<svg xmlns="http://www.w3.org/2000/svg" width="24" height="24" viewBox="0 0 24 24" fill="none"><rect width="24" height="24" fill="none"/>
<path fill-rule="evenodd" clip-rule="evenodd" d="M7.77569 17.7582C7.51459 18.2448 7.69744 18.851 8.18411 19.1121C8.67077 19.3732 9.27696 19.1904 9.53806 18.7037L15.0827 8.36921L17.2734 15.6318C17.4329 16.1605 17.9908 16.4599 18.5196 16.3004C19.0483 16.1409 19.3477 15.5829 19.1882 15.0542L16.3004 5.48094L16.3002 5.48028C16.2999 5.47932 16.2997 5.47836 16.2994 5.47741C16.2601 5.34875 16.1973 5.23375 16.117 5.13572C16.0381 5.03913 15.9397 4.95585 15.8237 4.89229C15.8183 4.88933 15.8129 4.88642 15.8075 4.88356C15.5844 4.7665 15.3172 4.73313 15.0569 4.81082C15.056 4.8111 15.055 4.81139 15.054 4.81168L15.0534 4.81188L5.48014 7.69962C4.95139 7.85912 4.65205 8.41706 4.81154 8.94581C4.97104 9.47456 5.52897 9.7739 6.05773 9.61441L13.3203 7.42367L7.77569 17.7582Z" fill="black"/>
</svg>
