<svg xmlns="http://www.w3.org/2000/svg" width="24" height="24" viewBox="0 0 24 24" fill="none"><rect width="24" height="24" fill="none"/>
<g clip-path="url(#clip0)">
<path d="M8.90019 21C5.60019 21 2.60019 19.2 1.00019 16.4C-0.199809 14.3 -0.399809 11.9 0.200191 9.6C0.900191 7.3 2.40019 5.4 4.50019 4.2C5.00019 3.9 5.60019 4 5.90019 4.5C6.10019 5 6.00019 5.6 5.50019 5.9C3.90019 6.8 2.70019 8.3 2.20019 10.1C1.70019 11.9 1.90019 13.8 2.80019 15.4C4.00019 17.7 6.40019 19.1 9.00019 19H18.0002C18.5002 19 18.9002 18.9 19.4002 18.8C19.9002 18.6 20.5002 18.9 20.7002 19.4C20.9002 19.9 20.6002 20.5 20.1002 20.7C19.4002 20.9 18.8002 21.1 18.1002 21.1H9.00019C9.00019 21 8.90019 21 8.90019 21ZM22.6002 18C22.5002 18 22.3002 18 22.2002 17.9C21.7002 17.7 21.5002 17.1 21.7002 16.6C22.6002 14.6 21.6002 12.2 19.6002 11.4C19.1002 11.2 18.6002 11.1 18.0002 11.1H16.7002C16.2002 11.1 15.8002 10.8 15.7002 10.3C15.0002 7.4 12.6002 5.3 9.60019 5C9.00019 5 8.60019 4.5 8.70019 3.9C8.70019 3.4 9.20019 2.9 9.80019 3C13.3002 3.3 16.3002 5.7 17.5002 9H18.0002C18.8002 9 19.6002 9.2 20.3002 9.5C23.3002 10.8 24.8002 14.3 23.5002 17.4C23.4002 17.7 23.0002 18 22.6002 18Z" fill="black"/>
<path d="M23.0002 24C22.7002 24 22.5002 23.9 22.3002 23.7L0.300191 1.7C-0.0998094 1.3 -0.0998094 0.7 0.300191 0.3C0.700191 -0.1 1.30019 -0.1 1.70019 0.3L23.7002 22.3C24.1002 22.7 24.1002 23.3 23.7002 23.7C23.5002 23.9 23.3002 24 23.0002 24Z" fill="black"/>
</g>
<defs>
<clipPath id="clip0">
<rect width="24" height="24" fill="white"/>
</clipPath>
</defs>
</svg>
