<svg xmlns="http://www.w3.org/2000/svg" width="25" height="24" viewBox="0 0 25 24" fill="none"><rect width="25" height="24" fill="none"/>
<path d="M11.1715 7.83333H12.8382V11.1667H16.1715V12.8333H12.8382V16.1667H11.1715V12.8333H7.83822V11.1667H11.1715V7.83333Z" fill="black"/>
<path fill-rule="evenodd" clip-rule="evenodd" d="M8.67155 2C4.98965 2 2.00488 4.98477 2.00488 8.66667V15.3333C2.00488 19.0152 4.98965 22 8.67155 22H15.3382C19.0201 22 22.0049 19.0152 22.0049 15.3333V8.66667C22.0049 4.98477 19.0201 2 15.3382 2H8.67155ZM8.67155 2.83333C5.44989 2.83333 2.83822 5.44501 2.83822 8.66667V15.3333C2.83822 18.555 5.44989 21.1667 8.67155 21.1667H15.3382C18.5599 21.1667 21.1715 18.555 21.1715 15.3333V8.66667C21.1715 5.44501 18.5599 2.83333 15.3382 2.83333H8.67155Z" fill="black"/>
</svg>
