<svg xmlns="http://www.w3.org/2000/svg" width="16" height="16" viewBox="0 0 16 16" fill="none"><rect width="16" height="16" fill="none"/>
<path d="M7.44461 5.22223H8.55572V7.44445H10.7779V8.55557H8.55572V10.7778H7.44461V8.55557H5.22239V7.44445H7.44461V5.22223Z" fill="black"/>
<path fill-rule="evenodd" clip-rule="evenodd" d="M5.77794 1.33334C3.32334 1.33334 1.3335 3.32319 1.3335 5.77779V10.2222C1.3335 12.6768 3.32334 14.6667 5.77794 14.6667H10.2224C12.677 14.6667 14.6668 12.6768 14.6668 10.2222V5.77779C14.6668 3.32319 12.677 1.33334 10.2224 1.33334H5.77794ZM5.77794 1.8889C3.63017 1.8889 1.88905 3.63001 1.88905 5.77779V10.2222C1.88905 12.37 3.63017 14.1111 5.77794 14.1111H10.2224C12.3702 14.1111 14.1113 12.37 14.1113 10.2222V5.77779C14.1113 3.63001 12.3702 1.8889 10.2224 1.8889H5.77794Z" fill="black"/>
</svg>
