<svg xmlns="http://www.w3.org/2000/svg" width="17" height="17" viewBox="0 0 17 17" fill="none"><rect width="17" height="17" fill="none"/>
<path d="M7.46609 5.22889H8.5772V7.45111H10.7994V8.56222H8.5772V10.7844H7.46609V8.56222H5.24387V7.45111H7.46609V5.22889Z" fill="black"/>
<path fill-rule="evenodd" clip-rule="evenodd" d="M5.79943 1.34C3.34483 1.34 1.35498 3.32984 1.35498 5.78444V10.2289C1.35498 12.6835 3.34483 14.6733 5.79942 14.6733H10.2439C12.6985 14.6733 14.6883 12.6835 14.6883 10.2289V5.78444C14.6883 3.32984 12.6985 1.34 10.2439 1.34H5.79943ZM5.79943 1.89555C3.65165 1.89555 1.91054 3.63667 1.91054 5.78444V10.2289C1.91054 12.3767 3.65165 14.1178 5.79943 14.1178H10.2439C12.3916 14.1178 14.1328 12.3767 14.1328 10.2289V5.78444C14.1328 3.63667 12.3916 1.89555 10.2439 1.89555H5.79943Z" fill="black"/>
</svg>
