<svg xmlns="http://www.w3.org/2000/svg" width="24" height="24" viewBox="0 0 24 24" fill="none"><rect width="24" height="24" fill="none"/>
<path d="M11.1676 7.83333H12.8343V11.1667H16.1676V12.8333H12.8343V16.1667H11.1676V12.8333H7.83431V11.1667H11.1676V7.83333Z" fill="black"/>
<path fill-rule="evenodd" clip-rule="evenodd" d="M8.66764 2C4.98575 2 2.00098 4.98477 2.00098 8.66667V15.3333C2.00098 19.0152 4.98574 22 8.66764 22H15.3343C19.0162 22 22.001 19.0152 22.001 15.3333V8.66667C22.001 4.98477 19.0162 2 15.3343 2H8.66764ZM8.66764 2.83333C5.44598 2.83333 2.83431 5.44501 2.83431 8.66667V15.3333C2.83431 18.555 5.44598 21.1667 8.66764 21.1667H15.3343C18.556 21.1667 21.1676 18.555 21.1676 15.3333V8.66667C21.1676 5.44501 18.556 2.83333 15.3343 2.83333H8.66764Z" fill="black"/>
</svg>
