<svg xmlns="http://www.w3.org/2000/svg" width="24" height="25" viewBox="0 0 24 25" fill="none"><rect width="24" height="25" fill="none"/>
<path fill-rule="evenodd" clip-rule="evenodd" d="M1.5 4.78003C1.5 4.29678 1.89175 3.90503 2.375 3.90503H21.625C22.1082 3.90503 22.5 4.29678 22.5 4.78003V11.2332C22.5 11.7164 22.1082 12.1082 21.625 12.1082H20.6543C20.3145 12.1082 20.0391 12.3836 20.0391 12.7234C20.0391 13.0632 19.7636 13.3386 19.4238 13.3386H4.57617C4.23639 13.3386 3.96094 13.0632 3.96094 12.7234C3.96094 12.3836 3.68549 12.1082 3.3457 12.1082H2.375C1.89175 12.1082 1.5 11.7164 1.5 11.2332V4.78003ZM17.168 7.18628C17.168 6.73322 16.8007 6.36597 16.3477 6.36597C15.8946 6.36597 15.5273 6.73322 15.5273 7.18628C15.5273 7.63934 15.8946 8.00659 16.3477 8.00659C16.8007 8.00659 17.168 7.63934 17.168 7.18628ZM18.1934 12.1082C18.5331 12.1082 18.8086 11.8327 18.8086 11.4929C18.8086 11.1531 18.5331 10.8777 18.1934 10.8777H5.80664C5.46686 10.8777 5.19141 11.1531 5.19141 11.4929C5.19141 11.8327 5.46686 12.1082 5.80664 12.1082H18.1934ZM18.3984 7.18628C18.3984 7.63934 18.7657 8.00659 19.2188 8.00659C19.6718 8.00659 20.0391 7.63934 20.0391 7.18628C20.0391 6.73322 19.6718 6.36597 19.2188 6.36597C18.7657 6.36597 18.3984 6.73322 18.3984 7.18628Z" fill="black"/>
<path d="M11.3848 17.03V14.5691H12.6152V17.03C12.6152 18.7262 11.2353 20.1062 9.53906 20.1062V18.8757C10.5568 18.8757 11.3848 18.0477 11.3848 17.03Z" fill="black"/>
<path d="M15.0762 14.5691V17.03C15.0762 18.0477 14.2482 18.8757 13.2305 18.8757V20.1062C14.9267 20.1062 16.3066 18.7262 16.3066 17.03V14.5691H15.0762Z" fill="black"/>
<path d="M7.69336 17.03V14.5691H8.92383V17.03C8.92383 18.7262 7.54386 20.1062 5.84766 20.1062V18.8757C6.86538 18.8757 7.69336 18.0477 7.69336 17.03Z" fill="black"/>
</svg>
