<svg xmlns="http://www.w3.org/2000/svg" width="24" height="24" viewBox="0 0 24 24" fill="none"><rect width="24" height="24" fill="none"/>
<path fill-rule="evenodd" clip-rule="evenodd" d="M1.50098 5.875C1.50098 5.39175 1.89273 5 2.37598 5H21.626C22.1092 5 22.501 5.39175 22.501 5.875V12.3281C22.501 12.8114 22.1092 13.2031 21.626 13.2031H20.6553C20.3155 13.2031 20.04 13.4786 20.04 13.8184C20.04 14.1581 19.7646 14.4336 19.4248 14.4336H4.57715C4.23736 14.4336 3.96191 14.1581 3.96191 13.8184C3.96191 13.4786 3.68646 13.2031 3.34668 13.2031H2.37598C1.89273 13.2031 1.50098 12.8114 1.50098 12.3281V5.875ZM17.1689 8.28125C17.1689 7.82819 16.8017 7.46094 16.3486 7.46094C15.8956 7.46094 15.5283 7.82819 15.5283 8.28125C15.5283 8.73431 15.8956 9.10156 16.3486 9.10156C16.8017 9.10156 17.1689 8.73431 17.1689 8.28125ZM18.1943 13.2031C18.5341 13.2031 18.8096 12.9277 18.8096 12.5879C18.8096 12.2481 18.5341 11.9727 18.1943 11.9727H5.80762C5.46783 11.9727 5.19238 12.2481 5.19238 12.5879C5.19238 12.9277 5.46783 13.2031 5.80762 13.2031H18.1943ZM18.3994 8.28125C18.3994 8.73431 18.7667 9.10156 19.2197 9.10156C19.6728 9.10156 20.04 8.73431 20.04 8.28125C20.04 7.82819 19.6728 7.46094 19.2197 7.46094C18.7667 7.46094 18.3994 7.82819 18.3994 8.28125Z" fill="black"/>
<path d="M11.3857 18.125V15.6641H12.6162V18.125C12.6162 19.8212 11.2362 21.2012 9.54004 21.2012V19.9707C10.5578 19.9707 11.3857 19.1427 11.3857 18.125Z" fill="black"/>
<path d="M15.0771 15.6641V18.125C15.0771 19.1427 14.2492 19.9707 13.2314 19.9707V21.2012C14.9276 21.2012 16.3076 19.8212 16.3076 18.125V15.6641H15.0771Z" fill="black"/>
<path d="M7.69434 18.125V15.6641H8.9248V18.125C8.9248 19.8212 7.54483 21.2012 5.84863 21.2012V19.9707C6.86635 19.9707 7.69434 19.1427 7.69434 18.125Z" fill="black"/>
</svg>
