<svg xmlns="http://www.w3.org/2000/svg" width="17" height="16" viewBox="0 0 17 16" fill="none"><rect width="17" height="16" fill="none"/>
<path fill-rule="evenodd" clip-rule="evenodd" d="M1.00488 3.18331C1.00488 2.86114 1.26605 2.59998 1.58822 2.59998H14.4215C14.7437 2.59998 15.0049 2.86114 15.0049 3.18331V7.48539C15.0049 7.80756 14.7437 8.06873 14.4215 8.06873H13.7744C13.5479 8.06873 13.3643 8.25236 13.3643 8.47888C13.3643 8.7054 13.1806 8.88904 12.9541 8.88904H3.05566C2.82914 8.88904 2.64551 8.7054 2.64551 8.47888C2.64551 8.25236 2.46187 8.06873 2.23535 8.06873H1.58822C1.26605 8.06873 1.00488 7.80756 1.00488 7.48539V3.18331ZM11.4502 4.78748C11.4502 4.48544 11.2054 4.2406 10.9033 4.2406C10.6013 4.2406 10.3564 4.48544 10.3564 4.78748C10.3564 5.08951 10.6013 5.33435 10.9033 5.33435C11.2054 5.33435 11.4502 5.08951 11.4502 4.78748ZM12.1338 8.06873C12.3603 8.06873 12.5439 7.88509 12.5439 7.65857C12.5439 7.43205 12.3603 7.24841 12.1338 7.24841H3.87598C3.64945 7.24841 3.46582 7.43205 3.46582 7.65857C3.46582 7.88509 3.64945 8.06873 3.87598 8.06873H12.1338ZM12.2705 4.78748C12.2705 5.08951 12.5153 5.33435 12.8174 5.33435C13.1194 5.33435 13.3643 5.08951 13.3643 4.78748C13.3643 4.48544 13.1194 4.2406 12.8174 4.2406C12.5153 4.2406 12.2705 4.48544 12.2705 4.78748Z" fill="black"/>
<path d="M7.59473 11.35V9.70935H8.41504V11.35C8.41504 12.4808 7.49506 13.4008 6.36426 13.4008V12.5804C7.04274 12.5804 7.59473 12.0285 7.59473 11.35Z" fill="black"/>
<path d="M10.0557 9.70935V11.35C10.0557 12.0285 9.50368 12.5804 8.82519 12.5804V13.4008C9.956 13.4008 10.876 12.4808 10.876 11.35V9.70935H10.0557Z" fill="black"/>
<path d="M5.13379 11.35V9.70935H5.9541V11.35C5.9541 12.4808 5.03412 13.4008 3.90332 13.4008V12.5804C4.5818 12.5804 5.13379 12.0285 5.13379 11.35Z" fill="black"/>
</svg>
