<svg xmlns="http://www.w3.org/2000/svg" width="16" height="16" viewBox="0 0 16 16" fill="none"><rect width="16" height="16" fill="none"/>
<path fill-rule="evenodd" clip-rule="evenodd" d="M1 3.91665C1 3.59448 1.26117 3.33331 1.58333 3.33331H14.4167C14.7388 3.33331 15 3.59448 15 3.91665V8.21873C15 8.5409 14.7388 8.80206 14.4167 8.80206H13.7695C13.543 8.80206 13.3594 8.9857 13.3594 9.21222C13.3594 9.43874 13.1757 9.62238 12.9492 9.62238H3.05078C2.82426 9.62238 2.64062 9.43874 2.64062 9.21222C2.64062 8.9857 2.45699 8.80206 2.23047 8.80206H1.58333C1.26117 8.80206 1 8.5409 1 8.21873V3.91665ZM11.4453 5.52081C11.4453 5.21877 11.2005 4.97394 10.8984 4.97394C10.5964 4.97394 10.3516 5.21877 10.3516 5.52081C10.3516 5.82285 10.5964 6.06769 10.8984 6.06769C11.2005 6.06769 11.4453 5.82285 11.4453 5.52081ZM12.1289 8.80206C12.3554 8.80206 12.5391 8.61843 12.5391 8.39191C12.5391 8.16538 12.3554 7.98175 12.1289 7.98175H3.87109C3.64457 7.98175 3.46094 8.16538 3.46094 8.39191C3.46094 8.61843 3.64457 8.80206 3.87109 8.80206H12.1289ZM12.2656 5.52081C12.2656 5.82285 12.5105 6.06769 12.8125 6.06769C13.1145 6.06769 13.3594 5.82285 13.3594 5.52081C13.3594 5.21877 13.1145 4.97394 12.8125 4.97394C12.5105 4.97394 12.2656 5.21877 12.2656 5.52081Z" fill="black"/>
<path d="M7.58984 12.0833V10.4427H8.41016V12.0833C8.41016 13.2141 7.49018 14.1341 6.35937 14.1341V13.3138C7.03785 13.3138 7.58984 12.7618 7.58984 12.0833Z" fill="black"/>
<path d="M10.0508 10.4427V12.0833C10.0508 12.7618 9.49879 13.3138 8.82031 13.3138V14.1341C9.95111 14.1341 10.8711 13.2141 10.8711 12.0833V10.4427H10.0508Z" fill="black"/>
<path d="M5.12891 12.0833V10.4427H5.94922V12.0833C5.94922 13.2141 5.02924 14.1341 3.89844 14.1341V13.3138C4.57692 13.3138 5.12891 12.7618 5.12891 12.0833Z" fill="black"/>
</svg>
