<svg xmlns="http://www.w3.org/2000/svg" width="24" height="24" viewBox="0 0 24 24" fill="none"><rect width="24" height="24" fill="none"/>
<path fill-rule="evenodd" clip-rule="evenodd" d="M10.1433 4.05831C10.9843 2.64723 13.0157 2.64723 13.8567 4.05831L21.6881 17.1987C22.554 18.6516 21.5144 20.5 19.8314 20.5H4.16857C2.48555 20.5 1.446 18.6516 2.3119 17.1987L10.1433 4.05831ZM10.8889 13.2083V8.34722H13.1111V13.2083H10.8889ZM12 17.5833C11.0795 17.5833 10.3333 16.9304 10.3333 16.125C10.3333 15.3196 11.0795 14.6667 12 14.6667C12.9205 14.6667 13.6667 15.3196 13.6667 16.125C13.6667 16.9304 12.9205 17.5833 12 17.5833Z" fill="black"/>
</svg>
