<svg xmlns="http://www.w3.org/2000/svg" width="17" height="16" viewBox="0 0 17 16" fill="none"><rect width="17" height="16" fill="none"/>
<path fill-rule="evenodd" clip-rule="evenodd" d="M6.78387 2.86555C7.34452 1.92482 8.69877 1.92482 9.25943 2.86555L14.4804 11.6258C15.0576 12.5944 14.3646 13.8267 13.2426 13.8267H2.8007C1.67868 13.8267 0.985646 12.5944 1.56292 11.6258L6.78387 2.86555ZM7.28091 8.96556V5.72482H8.76239V8.96556H7.28091ZM8.02165 11.8822C7.408 11.8822 6.91054 11.4469 6.91054 10.91C6.91054 10.3731 7.408 9.93778 8.02165 9.93778C8.6353 9.93778 9.13276 10.3731 9.13276 10.91C9.13276 11.4469 8.6353 11.8822 8.02165 11.8822Z" fill="black"/>
</svg>
