<svg xmlns="http://www.w3.org/2000/svg" width="25" height="24" viewBox="0 0 25 24" fill="none"><rect width="25" height="24" fill="none"/>
<path fill-rule="evenodd" clip-rule="evenodd" d="M10.1482 4.30831C10.9892 2.89723 13.0206 2.89723 13.8616 4.30831L21.693 17.4487C22.5589 18.9016 21.5193 20.75 19.8363 20.75H4.17346C2.49044 20.75 1.45088 18.9016 2.31679 17.4487L10.1482 4.30831ZM10.8938 13.4583V8.59722H13.116V13.4583H10.8938ZM12.0049 17.8333C11.0844 17.8333 10.3382 17.1804 10.3382 16.375C10.3382 15.5696 11.0844 14.9167 12.0049 14.9167C12.9254 14.9167 13.6715 15.5696 13.6715 16.375C13.6715 17.1804 12.9254 17.8333 12.0049 17.8333Z" fill="black"/>
</svg>
