<svg xmlns="http://www.w3.org/2000/svg" width="16" height="16" viewBox="0 0 16 16" fill="none"><rect width="16" height="16" fill="none"/>
<path fill-rule="evenodd" clip-rule="evenodd" d="M6.76238 2.70554C7.32304 1.76482 8.67729 1.76482 9.23794 2.70554L14.4589 11.4658C15.0362 12.4344 14.3431 13.6667 13.2211 13.6667H2.77921C1.6572 13.6667 0.964161 12.4344 1.54143 11.4658L6.76238 2.70554ZM7.25942 8.80556V5.56481H8.7409V8.80556H7.25942ZM8.00016 11.7222C7.38651 11.7222 6.88905 11.2869 6.88905 10.75C6.88905 10.2131 7.38651 9.77778 8.00016 9.77778C8.61381 9.77778 9.11127 10.2131 9.11127 10.75C9.11127 11.2869 8.61381 11.7222 8.00016 11.7222Z" fill="black"/>
</svg>
