<svg xmlns="http://www.w3.org/2000/svg" width="24" height="24" viewBox="0 0 24 24" fill="none"><rect width="24" height="24" fill="none"/>
<path fill-rule="evenodd" clip-rule="evenodd" d="M10.1443 4.05831C10.9853 2.64723 13.0167 2.64723 13.8576 4.05831L21.6891 17.1987C22.555 18.6516 21.5154 20.5 19.8324 20.5H4.16955C2.48653 20.5 1.44697 18.6516 2.31288 17.1987L10.1443 4.05831ZM10.8899 13.2083V8.34722H13.1121V13.2083H10.8899ZM12.001 17.5833C11.0805 17.5833 10.3343 16.9304 10.3343 16.125C10.3343 15.3196 11.0805 14.6667 12.001 14.6667C12.9215 14.6667 13.6676 15.3196 13.6676 16.125C13.6676 16.9304 12.9215 17.5833 12.001 17.5833Z" fill="black"/>
</svg>
