<svg xmlns="http://www.w3.org/2000/svg" width="16" height="16" viewBox="0 0 16 16" fill="none"><rect width="16" height="16" fill="none"/>
<path d="M4.19137 13.3032L4.80866 12.246H2.70205L2.62148 12.3861L2.56643 12.4968C2.39459 12.9103 2.55049 13.3975 2.94785 13.6296C3.38138 13.8829 3.93811 13.7367 4.19137 13.3032Z" fill="black"/>
<path d="M11.6483 9.51876L9.56477 5.90674L8.50904 7.71517L11.7308 13.3001L11.7996 13.4028C12.0735 13.7571 12.5739 13.8632 12.9725 13.6332C13.4074 13.3823 13.5565 12.8264 13.3056 12.3915L12.6968 11.3369L13.7578 11.3379L13.8811 11.3296C14.3248 11.2695 14.6668 10.8891 14.6668 10.4289L14.6585 10.3055C14.5983 9.86181 14.218 9.51982 13.7578 9.51982L11.6483 9.51876Z" fill="black"/>
<path d="M9.91051 3.49709C10.0823 3.08359 9.92645 2.59644 9.52907 2.36428C9.09556 2.11103 8.53883 2.25716 8.28557 2.69066L7.99387 3.18664L7.71128 2.69493L7.64245 2.59223C7.36857 2.23798 6.86822 2.13182 6.46958 2.36181L6.36688 2.43064C6.01263 2.70452 5.90647 3.20488 6.13646 3.60351L6.93935 4.99386L4.29583 9.51979L2.24256 9.51982L2.11921 9.52812C1.67549 9.58831 1.3335 9.96866 1.3335 10.4289C1.3335 10.9309 1.7405 11.3379 2.24256 11.3379L9.54832 11.3378L8.49986 9.51964L6.40123 9.51858L9.85545 3.60779L9.91051 3.49709Z" fill="black"/>
</svg>
