<svg xmlns="http://www.w3.org/2000/svg" width="25" height="25" viewBox="0 0 25 25" fill="none"><rect width="25" height="25" fill="none"/>
<path d="M6.2917 20.9598L7.21763 19.374H4.05772L3.93686 19.5841L3.85428 19.7502C3.59652 20.3704 3.83037 21.1012 4.42642 21.4494C5.0767 21.8293 5.9118 21.6101 6.2917 20.9598Z" fill="black"/>
<path d="M17.4772 15.2831L14.3518 9.8651L12.7682 12.5777L17.6009 20.9552L17.7041 21.1092C18.1149 21.6406 18.8655 21.7998 19.4634 21.4548C20.1157 21.0785 20.3394 20.2446 19.9631 19.5923L19.0498 18.0103L20.6413 18.0119L20.8263 17.9995C21.4919 17.9092 22.0049 17.3386 22.0049 16.6483L21.9924 16.4633C21.9021 15.7977 21.3316 15.2847 20.6413 15.2847L17.4772 15.2831Z" fill="black"/>
<path d="M14.8704 6.25061C15.1282 5.63037 14.8943 4.89964 14.2983 4.5514C13.648 4.17153 12.8129 4.39072 12.433 5.04098L11.9954 5.78495L11.5716 5.04738L11.4683 4.89333C11.0575 4.36195 10.307 4.20271 9.70901 4.5477L9.55496 4.65094C9.02358 5.06176 8.86434 5.81229 9.20933 6.41025L10.4137 8.49578L6.44839 15.2847L3.36848 15.2847L3.18345 15.2972C2.51788 15.3874 2.00488 15.958 2.00488 16.6483C2.00488 17.4014 2.61539 18.0119 3.36848 18.0119L14.3271 18.0116L12.7544 15.2844L9.60648 15.2829L14.7878 6.41666L14.8704 6.25061Z" fill="black"/>
</svg>
