<svg xmlns="http://www.w3.org/2000/svg" width="24" height="24" viewBox="0 0 24 24" fill="none"><rect width="24" height="24" fill="none"/>
<path d="M6.28779 19.9548L7.21372 18.369H4.05381L3.93296 18.5791L3.85037 18.7452C3.59261 19.3654 3.82646 20.0962 4.42251 20.4444C5.0728 20.8243 5.90789 20.6051 6.28779 19.9548Z" fill="black"/>
<path d="M17.4733 14.2781L14.3479 8.86011L12.7643 11.5728L17.597 19.9502L17.7002 20.1042C18.111 20.6356 18.8616 20.7948 19.4595 20.4499C20.1118 20.0735 20.3355 19.2396 19.9592 18.5873L19.0459 17.0053L20.6374 17.0069L20.8224 16.9945C21.488 16.9042 22.001 16.3336 22.001 15.6433L21.9885 15.4583C21.8982 14.7927 21.3277 14.2797 20.6374 14.2797L17.4733 14.2781Z" fill="black"/>
<path d="M14.8665 5.24562C15.1243 4.62538 14.8904 3.89465 14.2943 3.54641C13.6441 3.16654 12.809 3.38573 12.4291 4.03599L11.9915 4.77996L11.5677 4.04239L11.4644 3.88834C11.0536 3.35696 10.3031 3.19772 9.70511 3.54271L9.55106 3.64595C9.01967 4.05677 8.86044 4.8073 9.20542 5.40526L10.4098 7.49079L6.44448 14.2797L3.36457 14.2797L3.17954 14.2922C2.51397 14.3825 2.00098 14.953 2.00098 15.6433C2.00098 16.3964 2.61148 17.0069 3.36457 17.0069L14.3232 17.0066L12.7505 14.2795L9.60258 14.2779L14.7839 5.41167L14.8665 5.24562Z" fill="black"/>
</svg>
