<svg xmlns="http://www.w3.org/2000/svg" width="17" height="16" viewBox="0 0 17 16" fill="none"><rect width="17" height="16" fill="none"/>
<path d="M4.19772 13.3081L4.81501 12.2509H2.7084L2.62783 12.391L2.57277 12.5017C2.40094 12.9152 2.55683 13.4023 2.9542 13.6345C3.38772 13.8877 3.94445 13.7416 4.19772 13.3081Z" fill="black"/>
<path d="M11.6547 9.52364L9.57112 5.91162L8.51539 7.72005L11.7372 13.305L11.806 13.4077C12.0799 13.7619 12.5802 13.8681 12.9789 13.6381C13.4137 13.3872 13.5629 12.8313 13.312 12.3964L12.7031 11.3418L13.7641 11.3428L13.8875 11.3345C14.3312 11.2743 14.6732 10.894 14.6732 10.4338L14.6649 10.3104C14.6047 9.86669 14.2243 9.52469 13.7641 9.52469L11.6547 9.52364Z" fill="black"/>
<path d="M9.91686 3.50197C10.0887 3.08847 9.9328 2.60132 9.53542 2.36916C9.10191 2.11591 8.54518 2.26203 8.29192 2.69554L8.00022 3.19152L7.71763 2.69981L7.6488 2.59711C7.37492 2.24286 6.87457 2.1367 6.47593 2.36669L6.37323 2.43552C6.01897 2.7094 5.91282 3.20975 6.14281 3.60839L6.9457 4.99874L4.30218 9.52467L2.24891 9.52469L2.12555 9.53299C1.68184 9.59319 1.33984 9.97354 1.33984 10.4338C1.33984 10.9358 1.74685 11.3428 2.24891 11.3428L9.55467 11.3427L8.50621 9.52452L6.40758 9.52346L9.8618 3.61267L9.91686 3.50197Z" fill="black"/>
</svg>
