<svg xmlns="http://www.w3.org/2000/svg" width="25" height="24" viewBox="0 0 25 24" fill="none"><rect width="25" height="24" fill="none"/>
<path fill-rule="evenodd" clip-rule="evenodd" d="M12.0049 2C8.55311 2 5.75488 4.79822 5.75488 8.25V11.934C5.75488 11.9957 5.73662 12.056 5.7024 12.1074L3.57348 15.3008C3.36573 15.6124 3.25488 15.9785 3.25488 16.353C3.25488 17.4007 4.1042 18.25 5.15187 18.25H18.8579C19.9056 18.25 20.7549 17.4007 20.7549 16.353C20.7549 15.9785 20.644 15.6124 20.4363 15.3008L18.3074 12.1074C18.2731 12.056 18.2549 11.9957 18.2549 11.934V8.25C18.2549 4.79822 15.4566 2 12.0049 2ZM7.62988 8.25C7.62988 5.83375 9.58863 3.875 12.0049 3.875C14.4211 3.875 16.3799 5.83375 16.3799 8.25V11.934C16.3799 12.3659 16.5078 12.7881 16.7473 13.1474L18.8761 16.3407C18.8786 16.3444 18.8799 16.3486 18.8799 16.353C18.8799 16.3558 18.8793 16.3591 18.8793 16.3591L18.8785 16.3612C18.8785 16.3612 18.8761 16.3659 18.8734 16.3685C18.8708 16.3713 18.8661 16.3736 18.8661 16.3736C18.8661 16.3736 18.8626 16.375 18.8579 16.375H5.15187C5.14711 16.375 5.1436 16.3736 5.1436 16.3736C5.1436 16.3736 5.139 16.3713 5.13632 16.3685C5.13366 16.3659 5.13122 16.3612 5.13122 16.3612C5.13122 16.3612 5.12988 16.3577 5.12988 16.353C5.12988 16.3486 5.13117 16.3444 5.13357 16.3407L7.2625 13.1474C7.50205 12.7881 7.62988 12.3659 7.62988 11.934V8.25Z" fill="#24292E"/>
<path d="M14.4856 19.8119C14.3321 21.0454 13.28 22 12.0049 22C10.7298 22 9.67765 21.0454 9.52414 19.8119C9.50282 19.6406 9.64479 19.5 9.81737 19.5H14.1924C14.365 19.5 14.5069 19.6406 14.4856 19.8119Z" fill="#24292E"/>
</svg>
