<svg xmlns="http://www.w3.org/2000/svg" width="16" height="16" viewBox="0 0 16 16" fill="none"><rect width="16" height="16" fill="none"/>
<path d="M8.00098 15.6666C8.87109 15.6666 9.58299 14.959 9.58299 14.094H6.41896C6.41896 14.959 7.12295 15.6666 8.00098 15.6666ZM12.747 10.9487V7.01707C12.747 4.60306 11.4498 2.5822 9.18749 2.0475V1.5128C9.18749 0.860151 8.65751 0.333313 8.00098 0.333313C7.34444 0.333313 6.81446 0.860151 6.81446 1.5128V2.0475C4.54426 2.5822 3.25492 4.59519 3.25492 7.01707V10.9487L2.23452 11.9631C1.73618 12.4584 2.08422 13.3077 2.78822 13.3077H13.2058C13.9098 13.3077 14.2658 12.4584 13.7674 11.9631L12.747 10.9487Z" fill="black"/>
</svg>
