<svg xmlns="http://www.w3.org/2000/svg" width="16" height="16" viewBox="0 0 16 16" fill="none"><rect width="16" height="16" fill="none"/>
<path d="M7.94565 14.6666C9.03328 14.6666 9.94309 13.8848 10.152 12.85H5.73928C5.94832 13.8848 6.85814 14.6666 7.94565 14.6666Z" fill="black"/>
<path d="M12.1566 7.39942C12.1542 7.39942 12.1517 7.39997 12.1493 7.39997C9.83189 7.39997 7.94562 5.49848 7.94562 3.16112C7.94562 2.51856 8.0922 1.91116 8.34742 1.36496C8.21525 1.35232 8.08131 1.34445 7.94562 1.34445C5.62401 1.34445 3.74192 3.24217 3.74192 5.5833V7.27157C3.74192 8.46997 3.22125 9.60117 2.30781 10.3799C2.00332 10.6421 1.86818 11.0599 1.97748 11.4675C2.10482 11.9416 2.56962 12.2445 3.0573 12.2445H12.831C13.3426 12.2445 13.8249 11.9101 13.9287 11.4045C14.0092 11.0133 13.8711 10.6227 13.5702 10.3678C12.697 9.62967 12.192 8.54503 12.1566 7.39942Z" fill="black"/>
<path d="M15.1521 3.16112C15.1521 4.8333 13.8078 6.18882 12.1494 6.18882C10.491 6.18882 9.14676 4.8333 9.14676 3.16112C9.14676 1.48893 10.491 0.133301 12.1494 0.133301C13.8078 0.133301 15.1521 1.48893 15.1521 3.16112Z" fill="black"/>
</svg>
