<svg xmlns="http://www.w3.org/2000/svg" width="24" height="24" viewBox="0 0 24 24" fill="none"><rect width="24" height="24" fill="none"/>
<path d="M11.9185 22C13.5499 22 14.9146 20.8273 15.228 19.275H8.60892C8.92248 20.8273 10.2872 22 11.9185 22Z" fill="black"/>
<path d="M18.2349 11.0992C18.2312 11.0992 18.2276 11.1 18.224 11.1C14.7478 11.1 11.9184 8.24778 11.9184 4.74174C11.9184 3.77791 12.1383 2.8668 12.5211 2.04751C12.3229 2.02855 12.122 2.01674 11.9184 2.01674C8.43602 2.01674 5.61288 4.86332 5.61288 8.37502V10.9074C5.61288 12.705 4.83188 14.4018 3.46171 15.5699C3.00498 15.9632 2.80227 16.5899 2.96622 17.2013C3.15723 17.9125 3.85443 18.3667 4.58595 18.3667H19.2465C20.0139 18.3667 20.7374 17.8653 20.8931 17.1069C21.0138 16.5201 20.8066 15.9341 20.3554 15.5518C19.0456 14.4446 18.288 12.8176 18.2349 11.0992Z" fill="black"/>
<path d="M22.7281 4.74173C22.7281 7.25002 20.7117 9.28329 18.224 9.28329C15.7365 9.28329 13.7201 7.25002 13.7201 4.74173C13.7201 2.23345 15.7365 0.200012 18.224 0.200012C20.7117 0.200012 22.7281 2.23345 22.7281 4.74173Z" fill="black"/>
</svg>
