<svg xmlns="http://www.w3.org/2000/svg" width="17" height="17" viewBox="0 0 17 17" fill="none"><rect width="17" height="17" fill="none"/>
<path d="M8.00586 15.6734C8.87597 15.6734 9.58788 14.9657 9.58788 14.1007H6.42384C6.42384 14.9657 7.12784 15.6734 8.00586 15.6734ZM12.7519 10.9554V7.02379C12.7519 4.60977 11.4547 2.58892 9.19237 2.05421V1.51951C9.19237 0.866865 8.6624 0.340027 8.00586 0.340027C7.34932 0.340027 6.81934 0.866865 6.81934 1.51951V2.05421C4.54915 2.58892 3.2598 4.60191 3.2598 7.02379V10.9554L2.2394 11.9698C1.74106 12.4652 2.08911 13.3144 2.79311 13.3144H13.2107C13.9147 13.3144 14.2707 12.4652 13.7723 11.9698L12.7519 10.9554Z" fill="black"/>
</svg>
