<svg xmlns="http://www.w3.org/2000/svg" width="25" height="24" viewBox="0 0 25 24" fill="none"><rect width="25" height="24" fill="none"/>
<path d="M12.0063 23.5C13.3115 23.5 14.3794 22.4385 14.3794 21.141H9.63332C9.63332 22.4385 10.6893 23.5 12.0063 23.5ZM19.1254 16.4231V10.5256C19.1254 6.90462 17.1795 3.87333 13.7861 3.07128V2.26923C13.7861 1.29026 12.9912 0.5 12.0063 0.5C11.0215 0.5 10.2266 1.29026 10.2266 2.26923V3.07128C6.82128 3.87333 4.88726 6.89282 4.88726 10.5256V16.4231L3.35666 17.9446C2.60915 18.6877 3.13122 19.9615 4.18722 19.9615H19.8136C20.8696 19.9615 21.4035 18.6877 20.656 17.9446L19.1254 16.4231Z" fill="black"/>
</svg>
