<svg xmlns="http://www.w3.org/2000/svg" width="17" height="17" viewBox="0 0 17 17" fill="none"><rect width="17" height="17" fill="none"/>
<path d="M8.00613 14.6734C9.10377 14.6734 10.022 13.8909 10.2328 12.8552H5.77945C5.99041 13.8909 6.90861 14.6734 8.00613 14.6734Z" fill="black"/>
<path d="M12.2558 7.40006C12.2534 7.40006 12.2509 7.40061 12.2485 7.40061C9.90974 7.40061 8.0061 5.49753 8.0061 3.15821C8.0061 2.51512 8.15403 1.90721 8.4116 1.36056C8.27821 1.34791 8.14304 1.34003 8.0061 1.34003C5.66312 1.34003 3.7637 3.23934 3.7637 5.58243V7.27211C3.7637 8.47151 3.23824 9.60366 2.31639 10.383C2.0091 10.6455 1.87272 11.0636 1.98302 11.4716C2.11153 11.9461 2.58062 12.2492 3.07278 12.2492H12.9364C13.4528 12.2492 13.9395 11.9146 14.0443 11.4085C14.1255 11.017 13.9861 10.6261 13.6825 10.3709C12.8013 9.63218 12.2916 8.54664 12.2558 7.40006Z" fill="black"/>
<path d="M8.00613 14.6734C6.90861 14.6734 5.99041 13.8909 5.77945 12.8552H10.2328C10.022 13.8909 9.10377 14.6734 8.00613 14.6734Z" fill="black"/>
<path d="M3.75607 7.40006C3.75851 7.40006 3.76095 7.40061 3.76339 7.40061C6.10216 7.40061 8.0061 5.49753 8.0061 3.15821C8.0061 2.51512 7.85786 1.90721 7.6003 1.36056C7.73369 1.34791 7.86916 1.34003 8.0061 1.34003C10.3491 1.34003 12.2482 3.23934 12.2482 5.58243V7.27211C12.2482 8.47151 12.7737 9.60366 13.6955 10.383C14.0028 10.6455 14.1392 11.0636 14.0289 11.4716C13.9004 11.9461 13.4313 12.2492 12.9391 12.2492H3.07547C2.55911 12.2492 2.07238 11.9146 1.96762 11.4085C1.88639 11.017 2.02577 10.6261 2.3294 10.3709C3.21063 9.63218 3.72034 8.54664 3.75607 7.40006Z" fill="black"/>
</svg>
