<svg xmlns="http://www.w3.org/2000/svg" width="24" height="24" viewBox="0 0 24 24" fill="none"><rect width="24" height="24" fill="none"/>
<path d="M19.6551 5.04832V15.8201C19.6551 16.215 19.3337 16.5372 18.9386 16.5382C17.2727 16.5422 14.4818 16.8907 12.5564 18.9131V7.64024C12.5564 7.50634 12.5904 7.38056 12.6547 7.27647C14.235 4.72205 17.2718 4.33394 18.9414 4.32996H18.9431C19.1321 4.32996 19.3101 4.40397 19.4445 4.53848C19.5803 4.67447 19.6551 4.85555 19.6551 5.04832Z" fill="black"/>
<path d="M5.0588 4.33026H5.06048C6.73011 4.33418 9.76687 4.72229 11.3471 7.2767C11.4114 7.38079 11.4455 7.50658 11.4455 7.64048V18.9134C9.52014 16.891 6.72916 16.5425 5.06331 16.5385C4.66816 16.5375 4.34674 16.2153 4.34674 15.8203V5.04862C4.34674 4.85585 4.42156 4.67477 4.55738 4.53878C4.69173 4.40427 4.86964 4.33026 5.0588 4.33026Z" fill="black"/>
<path d="M21.2854 6.81388H20.7665V15.8198C20.7665 16.8283 19.9478 17.6507 18.9415 17.6532C17.5285 17.6566 15.1987 17.9339 13.5487 19.5015C16.4024 18.8001 19.4107 19.256 21.1252 19.6482C21.3393 19.6971 21.5605 19.6466 21.732 19.5094C21.9029 19.3725 22.001 19.1679 22.001 18.9483V7.53211C22.001 7.13609 21.68 6.81388 21.2854 6.81388Z" fill="black"/>
<path d="M3.23545 6.81388V15.8198C3.23545 16.8284 4.05417 17.6507 5.06043 17.6532C6.47343 17.6565 8.80326 17.9338 10.4532 19.5013C7.59962 18.7999 4.59121 19.2558 2.87673 19.648C2.66232 19.6971 2.44131 19.6463 2.26993 19.5092C2.09902 19.3723 2.00098 19.1678 2.00098 18.9481V7.53211C2.00098 7.13609 2.32205 6.81388 2.71653 6.81388H3.23545Z" fill="black"/>
</svg>
