<svg xmlns="http://www.w3.org/2000/svg" width="24" height="25" viewBox="0 0 24 25" fill="none"><rect width="24" height="25" fill="none"/>
<path d="M19.6541 5.05332V15.8251C19.6541 16.22 19.3327 16.5422 18.9376 16.5432C17.2718 16.5472 14.4808 16.8957 12.5554 18.9181V7.64525C12.5554 7.51135 12.5894 7.38556 12.6537 7.28147C14.2341 4.72706 17.2708 4.33895 18.9404 4.33496H18.9421C19.1311 4.33496 19.3091 4.40897 19.4435 4.54348C19.5793 4.67947 19.6541 4.86055 19.6541 5.05332Z" fill="black"/>
<path d="M5.05782 4.33527H5.0595C6.72913 4.33919 9.76589 4.7273 11.3462 7.28171C11.4105 7.3858 11.4445 7.51159 11.4445 7.64548V18.9184C9.51916 16.896 6.72819 16.5475 5.06233 16.5435C4.66718 16.5425 4.34577 16.2203 4.34577 15.8253V5.05363C4.34577 4.86086 4.42058 4.67978 4.55641 4.54379C4.69075 4.40928 4.86866 4.33527 5.05782 4.33527Z" fill="black"/>
<path d="M21.2844 6.81889H20.7655V15.8248C20.7655 16.8334 19.9469 17.6557 18.9405 17.6582C17.5275 17.6616 15.1977 17.9389 13.5477 19.5065C16.4014 18.8051 19.4098 19.261 21.1242 19.6532C21.3383 19.7021 21.5595 19.6516 21.731 19.5144C21.902 19.3775 22 19.1729 22 18.9533V7.53711C22.0001 7.1411 21.679 6.81889 21.2844 6.81889Z" fill="black"/>
<path d="M3.23448 6.81889V15.8248C3.23448 16.8334 4.0532 17.6557 5.05946 17.6582C6.47245 17.6616 8.80228 17.9388 10.4522 19.5063C7.59864 18.8049 4.59023 19.2608 2.87576 19.653C2.66135 19.7021 2.44034 19.6513 2.26896 19.5142C2.09805 19.3773 2 19.1728 2 18.9531V7.53711C2 7.14109 2.32108 6.81889 2.71555 6.81889H3.23448Z" fill="black"/>
</svg>
