<svg xmlns="http://www.w3.org/2000/svg" width="17" height="17" viewBox="0 0 17 17" fill="none"><rect width="17" height="17" fill="none"/>
<path d="M13.1093 3.36892V10.5501C13.1093 10.8134 12.895 11.0281 12.6316 11.0288C11.521 11.0315 9.66038 11.2638 8.37679 12.6121V5.09687C8.37679 5.00761 8.39946 4.92375 8.44233 4.85435C9.49589 3.15141 11.5204 2.89267 12.6334 2.89001H12.6346C12.7606 2.89001 12.8793 2.93936 12.9688 3.02903C13.0594 3.11969 13.1093 3.24041 13.1093 3.36892Z" fill="black"/>
<path d="M3.37839 2.89022H3.37951C4.4926 2.89283 6.51711 3.15157 7.57062 4.85451C7.61349 4.92391 7.63621 5.00776 7.63621 5.09703V12.6123C6.35262 11.264 4.49197 11.0317 3.3814 11.029C3.11796 11.0284 2.90369 10.8136 2.90369 10.5503V3.36913C2.90369 3.24061 2.95356 3.11989 3.04411 3.02923C3.13368 2.93956 3.25228 2.89022 3.37839 2.89022Z" fill="black"/>
<path d="M14.1961 4.54597H13.8502V10.5499C13.8502 11.2223 13.3044 11.7705 12.6335 11.7722C11.6915 11.7745 10.1383 11.9593 9.0383 13.0043C10.9408 12.5368 12.9464 12.8407 14.0893 13.1022C14.2321 13.1348 14.3795 13.1011 14.4939 13.0096C14.6078 12.9184 14.6732 12.782 14.6732 12.6356V5.02478C14.6732 4.76077 14.4592 4.54597 14.1961 4.54597Z" fill="black"/>
<path d="M2.16283 4.54596V10.5499C2.16283 11.2223 2.70864 11.7705 3.37948 11.7722C4.32148 11.7744 5.8747 11.9592 6.97467 13.0042C5.07227 12.5367 3.06666 12.8406 1.92368 13.102C1.78074 13.1348 1.6334 13.1009 1.51915 13.0095C1.40521 12.9182 1.33984 12.7819 1.33984 12.6354V5.02478C1.33984 4.76077 1.5539 4.54596 1.81688 4.54596H2.16283Z" fill="black"/>
</svg>
