<svg xmlns="http://www.w3.org/2000/svg" width="16" height="16" viewBox="0 0 16 16" fill="none"><rect width="16" height="16" fill="none"/>
<path d="M13.1029 3.3655V10.5467C13.1029 10.81 12.8886 11.0247 12.6252 11.0254C11.5147 11.0281 9.65403 11.2604 8.37044 12.6087V5.09345C8.37044 5.00419 8.39311 4.92033 8.43598 4.85094C9.48954 3.14799 11.514 2.88926 12.6271 2.8866H12.6283C12.7542 2.8866 12.8729 2.93594 12.9625 3.02561C13.053 3.11627 13.1029 3.23699 13.1029 3.3655Z" fill="black"/>
<path d="M3.37204 2.8868H3.37316C4.48625 2.88941 6.51076 3.14815 7.56427 4.85109C7.60714 4.92049 7.62986 5.00435 7.62986 5.09361V12.6089C6.34627 11.2606 4.48562 11.0283 3.37505 11.0256C3.11162 11.0249 2.89734 10.8102 2.89734 10.5468V3.36571C2.89734 3.23719 2.94722 3.11648 3.03777 3.02581C3.12733 2.93614 3.24594 2.8868 3.37204 2.8868Z" fill="black"/>
<path d="M14.1898 4.54255H13.8438V10.5465C13.8438 11.2189 13.2981 11.7671 12.6272 11.7688C11.6852 11.771 10.132 11.9559 9.03196 13.0009C10.9344 12.5334 12.94 12.8373 14.083 13.0988C14.2257 13.1314 14.3732 13.0977 14.4875 13.0062C14.6015 12.915 14.6668 12.7786 14.6668 12.6321V5.02136C14.6669 4.75735 14.4528 4.54255 14.1898 4.54255Z" fill="black"/>
<path d="M2.15648 4.54255V10.5465C2.15648 11.2189 2.70229 11.7671 3.37313 11.7687C4.31513 11.771 5.86835 11.9558 6.96832 13.0008C5.06593 12.5332 3.06032 12.8371 1.91733 13.0986C1.77439 13.1313 1.62705 13.0975 1.5128 13.0061C1.39886 12.9148 1.3335 12.7785 1.3335 12.632V5.02136C1.3335 4.75735 1.54755 4.54255 1.81053 4.54255H2.15648Z" fill="black"/>
</svg>
