<svg xmlns="http://www.w3.org/2000/svg" width="24" height="24" viewBox="0 0 24 24" fill="none"><rect width="24" height="24" fill="none"/>
<path fill-rule="evenodd" clip-rule="evenodd" d="M21.185 3.66202V16.5881C21.185 17.0621 20.7993 17.4486 20.3252 17.4499C18.3261 17.4546 14.977 17.8728 12.6665 20.2997V6.77233C12.6665 6.61165 12.7073 6.46071 12.7845 6.3358C14.6809 3.2705 18.325 2.80477 20.3285 2.79999H20.3306C20.5573 2.79999 20.771 2.8888 20.9322 3.05021C21.0952 3.2134 21.185 3.4307 21.185 3.66202ZM3.66938 2.80035H3.6714C5.67496 2.80506 9.31908 3.27079 11.2154 6.33608C11.2926 6.46099 11.3335 6.61194 11.3335 6.77262V20.3001C9.02299 17.8732 5.67383 17.455 3.6748 17.4502C3.20062 17.449 2.81492 17.0624 2.81492 16.5884V3.66239C2.81492 3.43106 2.9047 3.21377 3.06769 3.05058C3.2289 2.88917 3.44239 2.80035 3.66938 2.80035ZM23.1413 5.7807H22.5186V16.5878C22.5186 17.7981 21.5363 18.7849 20.3287 18.7879C18.6331 18.792 15.8373 19.1248 13.8572 21.0058C17.2817 20.1642 20.8917 20.7113 22.9491 21.1819C23.206 21.2406 23.4714 21.1799 23.6773 21.0153C23.8824 20.851 24 20.6055 24 20.342V6.64257C24.0001 6.16735 23.6148 5.7807 23.1413 5.7807ZM1.48137 5.7807V16.5878C1.48137 17.7981 2.46384 18.7849 3.67135 18.7878C5.36694 18.7919 8.16274 19.1246 10.1427 21.0055C6.71838 20.164 3.10828 20.711 1.05091 21.1816C0.793615 21.2405 0.528403 21.1796 0.322747 21.015C0.117656 20.8508 0 20.6054 0 20.3417V6.64257C0 6.16735 0.385292 5.7807 0.858666 5.7807H1.48137Z" fill="#A0B6C9"/>
</svg>
