<svg xmlns="http://www.w3.org/2000/svg" width="16" height="16" viewBox="0 0 16 16" fill="none"><rect width="16" height="16" fill="none"/>
<path d="M5.04029 1.33331L4.19797 2.536H11.8514L11.0091 1.33331H5.04029Z" fill="black"/>
<path d="M9.22742 3.19098H12.0701V4.39367H9.22742V3.19098Z" fill="black"/>
<path d="M8.02426 5.03035C7.95976 5.03035 7.8968 5.04882 7.84386 5.08326L7.36825 5.37768V3.19098H8.68027V5.37768L8.20466 5.08326C8.15172 5.04882 8.08876 5.03035 8.02426 5.03035Z" fill="black"/>
<path d="M3.9792 9.11201C3.9792 9.19486 4.01198 9.27431 4.07034 9.3329C4.1287 9.39148 4.20785 9.42439 4.29038 9.42439H11.7588C11.8414 9.42439 11.9205 9.39148 11.9789 9.3329C12.0372 9.27431 12.07 9.19486 12.07 9.11201V5.05098H9.26935V5.98814C9.26975 6.04476 9.25456 6.1004 9.22546 6.14891C9.19635 6.19742 9.15447 6.23691 9.10442 6.26304C9.05523 6.29008 8.99954 6.30293 8.94352 6.30017C8.8875 6.29742 8.83334 6.27916 8.78701 6.24742L8.02461 5.73823L7.2622 6.24742C7.21608 6.27963 7.16186 6.29818 7.10573 6.30094C7.04961 6.30371 6.99384 6.29057 6.94479 6.26304C6.89475 6.23691 6.85286 6.19742 6.82376 6.14891C6.79466 6.1004 6.77947 6.04476 6.77987 5.98814V5.05098H3.9792V9.11201Z" fill="black"/>
<path d="M6.82192 3.19098H3.9792V4.39367H6.82192V3.19098Z" fill="black"/>
<path d="M2.49916 12.6596V12.849H4.66379V11.5743L3.17669 9.32231C3.14962 9.27704 3.11237 9.23702 3.06718 9.20468C3.02198 9.17233 2.96977 9.14832 2.9137 9.13408C2.85762 9.11985 2.79883 9.11569 2.74087 9.12185C2.68291 9.12801 2.62697 9.14436 2.57642 9.16993C2.52587 9.1955 2.48175 9.22975 2.44672 9.27062C2.41169 9.3115 2.38647 9.35815 2.37258 9.40777C2.35869 9.45739 2.35641 9.50896 2.36589 9.55938C2.37537 9.60979 2.3964 9.658 2.42772 9.70112L3.51004 11.3414L3.13556 11.5308L2.05324 9.89052C1.99615 9.80436 1.95904 9.70919 1.94403 9.61046C1.92901 9.51174 1.93639 9.41139 1.96575 9.31516C1.9951 9.21893 2.04585 9.12871 2.11509 9.04966C2.18433 8.97061 2.27071 8.90429 2.36928 8.85447C2.41131 8.83508 2.45469 8.818 2.49916 8.80333V7.16687C2.49916 7.0664 2.45354 6.97005 2.37235 6.89901C2.29116 6.82797 2.18105 6.78806 2.06623 6.78806C1.95141 6.78806 1.84129 6.82797 1.7601 6.89901C1.67891 6.97005 1.6333 7.0664 1.6333 7.16687V11.6463L2.45153 12.5422C2.48244 12.5754 2.49927 12.6168 2.49916 12.6596Z" fill="black"/>
<path d="M13.4954 12.849V12.6596C13.4953 12.6168 13.5121 12.5754 13.543 12.5422L14.3613 11.6463V7.16687C14.3613 7.0664 14.3156 6.97005 14.2345 6.89901C14.1533 6.82797 14.0431 6.78806 13.9283 6.78806C13.8135 6.78806 13.7034 6.82797 13.6222 6.89901C13.541 6.97005 13.4954 7.0664 13.4954 7.16687V8.80333C13.5399 8.818 13.5832 8.83508 13.6253 8.85447C13.7238 8.90429 13.8102 8.97061 13.8795 9.04966C13.9487 9.12871 13.9995 9.21893 14.0288 9.31516C14.0582 9.41139 14.0655 9.51174 14.0505 9.61046C14.0355 9.70919 13.9984 9.80436 13.9413 9.89052L12.859 11.5308L12.4845 11.3414L13.5668 9.70112C13.5982 9.658 13.6192 9.60979 13.6287 9.55938C13.6381 9.50896 13.6359 9.45739 13.622 9.40777C13.6081 9.35815 13.5829 9.3115 13.5478 9.27062C13.5128 9.22975 13.4687 9.1955 13.4181 9.16993C13.3676 9.14436 13.3116 9.12801 13.2537 9.12185C13.1957 9.11569 13.1369 9.11985 13.0809 9.13408C13.0248 9.14832 12.9726 9.17233 12.9274 9.20468C12.8822 9.23702 12.8449 9.27704 12.8179 9.32231L11.3308 11.5743V12.849H13.4954Z" fill="black"/>
<path fill-rule="evenodd" clip-rule="evenodd" d="M4.66379 13.4545H2.2394V14.6666H4.66379V13.4545ZM4.31745 14.2626H3.97111V13.8585H4.31745V14.2626Z" fill="black"/>
<path fill-rule="evenodd" clip-rule="evenodd" d="M13.7552 13.4545H11.3308V14.6666H13.7552V13.4545ZM12.0234 14.2626H11.6771V13.8585H12.0234V14.2626Z" fill="black"/>
</svg>
