<svg xmlns="http://www.w3.org/2000/svg" width="25" height="25" viewBox="0 0 25 25" fill="none"><rect width="25" height="25" fill="none"/>
<path d="M7.57045 2.005L6.30696 3.80904H17.7872L16.5237 2.005H7.57045Z" fill="black"/>
<path d="M13.8511 4.7915H18.1152V6.59554H13.8511V4.7915Z" fill="black"/>
<path d="M12.0464 7.55056C11.9496 7.55056 11.8552 7.57826 11.7758 7.62993L11.0624 8.07156V4.7915H13.0304V8.07156L12.317 7.62993C12.2376 7.57826 12.1432 7.55056 12.0464 7.55056Z" fill="black"/>
<path d="M5.97881 13.673C5.97881 13.7973 6.02799 13.9165 6.11552 14.0044C6.20306 14.0923 6.32179 14.1416 6.44559 14.1416H17.6483C17.7721 14.1416 17.8908 14.0923 17.9783 14.0044C18.0659 13.9165 18.115 13.7973 18.115 13.673V7.5815H13.914V8.98724C13.9146 9.07218 13.8918 9.15563 13.8482 9.2284C13.8045 9.30116 13.7417 9.3604 13.6666 9.39959C13.5928 9.44015 13.5093 9.45943 13.4253 9.4553C13.3413 9.45116 13.26 9.42377 13.1905 9.37616L12.0469 8.61238L10.9033 9.37616C10.8341 9.42449 10.7528 9.45231 10.6686 9.45645C10.5844 9.46059 10.5008 9.44089 10.4272 9.39959C10.3521 9.3604 10.2893 9.30116 10.2456 9.2284C10.202 9.15563 10.1792 9.07218 10.1798 8.98724V7.5815H5.97881V13.673Z" fill="black"/>
<path d="M10.2429 4.7915H5.97881V6.59554H10.2429V4.7915Z" fill="black"/>
<path d="M3.75874 18.9945V19.2786H7.0057V17.3665L4.77504 13.9885C4.73444 13.9206 4.67857 13.8606 4.61077 13.8121C4.54298 13.7635 4.46467 13.7275 4.38056 13.7062C4.29644 13.6848 4.20826 13.6786 4.12132 13.6878C4.03438 13.697 3.95047 13.7216 3.87464 13.7599C3.79881 13.7983 3.73264 13.8497 3.68009 13.911C3.62755 13.9723 3.58972 14.0423 3.56888 14.1167C3.54804 14.1911 3.54463 14.2685 3.55884 14.3441C3.57306 14.4197 3.60461 14.492 3.65159 14.5567L5.27507 17.0171L4.71335 17.3012L3.08987 14.8408C3.00424 14.7116 2.94857 14.5688 2.92605 14.4207C2.90353 14.2726 2.9146 14.1221 2.95863 13.9778C3.00266 13.8334 3.07879 13.6981 3.18265 13.5795C3.28651 13.461 3.41607 13.3615 3.56393 13.2867C3.62698 13.2577 3.69204 13.232 3.75874 13.21V10.7553C3.75874 10.6046 3.69032 10.4601 3.56854 10.3535C3.44676 10.247 3.28158 10.1871 3.10935 10.1871C2.93712 10.1871 2.77195 10.247 2.65016 10.3535C2.52838 10.4601 2.45996 10.6046 2.45996 10.7553V17.4745L3.68731 18.8183C3.73368 18.8681 3.75892 18.9303 3.75874 18.9945Z" fill="black"/>
<path d="M20.2531 19.2786V18.9945C20.2529 18.9303 20.2782 18.8681 20.3245 18.8183L21.5519 17.4745V10.7553C21.5519 10.6046 21.4835 10.4601 21.3617 10.3535C21.2399 10.247 21.0747 10.1871 20.9025 10.1871C20.7303 10.1871 20.5651 10.247 20.4433 10.3535C20.3215 10.4601 20.2531 10.6046 20.2531 10.7553V13.21C20.3198 13.232 20.3849 13.2577 20.4479 13.2867C20.5958 13.3615 20.7253 13.461 20.8292 13.5795C20.9331 13.6981 21.0092 13.8334 21.0532 13.9778C21.0972 14.1221 21.1083 14.2726 21.0858 14.4207C21.0633 14.5688 21.0076 14.7116 20.922 14.8408L19.2985 17.3012L18.7368 17.0171L20.3603 14.5567C20.4072 14.492 20.4388 14.4197 20.453 14.3441C20.4672 14.2685 20.4638 14.1911 20.443 14.1167C20.4221 14.0423 20.3843 13.9723 20.3318 13.911C20.2792 13.8497 20.213 13.7983 20.1372 13.7599C20.0614 13.7216 19.9775 13.697 19.8905 13.6878C19.8036 13.6786 19.7154 13.6848 19.6313 13.7062C19.5472 13.7275 19.4689 13.7635 19.4011 13.8121C19.3333 13.8606 19.2774 13.9206 19.2368 13.9885L17.0062 17.3665V19.2786H20.2531Z" fill="black"/>
<path fill-rule="evenodd" clip-rule="evenodd" d="M7.0057 20.1867H3.36911V22.005H7.0057V20.1867ZM6.48618 21.3989H5.96667V20.7928H6.48618V21.3989Z" fill="black"/>
<path fill-rule="evenodd" clip-rule="evenodd" d="M20.6427 20.1867H17.0062V22.005H20.6427V20.1867ZM18.0452 21.3989H17.5257V20.7928H18.0452V21.3989Z" fill="black"/>
</svg>
