<svg xmlns="http://www.w3.org/2000/svg" width="17" height="17" viewBox="0 0 17 17" fill="none"><rect width="17" height="17" fill="none"/>
<path d="M5.04175 1.34L4.19943 2.54268H11.8529L11.0106 1.34H5.04175Z" fill="black"/>
<path d="M9.22888 3.19766H12.0716V4.40035H9.22888V3.19766Z" fill="black"/>
<path d="M8.02572 5.03704C7.96122 5.03704 7.89827 5.0555 7.84532 5.08994L7.36971 5.38437V3.19766H8.68174V5.38437L8.20613 5.08994C8.15318 5.0555 8.09023 5.03704 8.02572 5.03704Z" fill="black"/>
<path d="M3.98066 9.11869C3.98066 9.20154 4.01345 9.281 4.07181 9.33958C4.13017 9.39816 4.20932 9.43107 4.29185 9.43107H11.7603C11.8428 9.43107 11.922 9.39816 11.9803 9.33958C12.0387 9.281 12.0715 9.20154 12.0715 9.11869V5.05766H9.27081V5.99482C9.27121 6.05145 9.25602 6.10708 9.22692 6.15559C9.19782 6.2041 9.15593 6.2436 9.10589 6.26972C9.05669 6.29676 9.001 6.30961 8.94498 6.30686C8.88897 6.3041 8.8348 6.28584 8.78848 6.2541L8.02607 5.74491L7.26367 6.2541C7.21754 6.28632 7.16332 6.30487 7.1072 6.30763C7.05107 6.31039 6.9953 6.29725 6.94626 6.26972C6.89621 6.2436 6.85433 6.2041 6.82522 6.15559C6.79612 6.10708 6.78093 6.05145 6.78133 5.99482V5.05766H3.98066V9.11869Z" fill="black"/>
<path d="M6.82338 3.19766H3.98066V4.40035H6.82338V3.19766Z" fill="black"/>
<path d="M2.50062 12.6663V12.8557H4.66526V11.581L3.17815 9.32899C3.15109 9.28372 3.11384 9.24371 3.06864 9.21136C3.02345 9.17901 2.97124 9.155 2.91516 9.14077C2.85909 9.12653 2.8003 9.12237 2.74234 9.12853C2.68438 9.13469 2.62844 9.15105 2.57789 9.17661C2.52733 9.20218 2.48322 9.23643 2.44819 9.27731C2.41316 9.31818 2.38794 9.36483 2.37404 9.41445C2.36015 9.46408 2.35788 9.51565 2.36735 9.56606C2.37683 9.61647 2.39786 9.66468 2.42919 9.7078L3.5115 11.3481L3.13702 11.5375L2.0547 9.89721C1.99762 9.81104 1.9605 9.71587 1.94549 9.61715C1.93048 9.51842 1.93786 9.41807 1.96721 9.32184C1.99657 9.22562 2.04732 9.1354 2.11656 9.05635C2.1858 8.9773 2.27217 8.91097 2.37074 8.86116C2.41278 8.84176 2.45615 8.82468 2.50062 8.81002V7.17355C2.50062 7.07309 2.45501 6.97673 2.37382 6.90569C2.29263 6.83465 2.18251 6.79474 2.06769 6.79474C1.95287 6.79474 1.84276 6.83465 1.76157 6.90569C1.68038 6.97673 1.63477 7.07309 1.63477 7.17355V11.653L2.453 12.5489C2.48391 12.582 2.50074 12.6235 2.50062 12.6663Z" fill="black"/>
<path d="M13.4969 12.8557V12.6663C13.4967 12.6235 13.5136 12.582 13.5445 12.5489L14.3627 11.653V7.17355C14.3627 7.07309 14.3171 6.97673 14.2359 6.90569C14.1547 6.83465 14.0446 6.79474 13.9298 6.79474C13.815 6.79474 13.7049 6.83465 13.6237 6.90569C13.5425 6.97673 13.4969 7.07309 13.4969 7.17355V8.81002C13.5413 8.82468 13.5847 8.84176 13.6267 8.86116C13.7253 8.91097 13.8117 8.9773 13.8809 9.05635C13.9502 9.1354 14.0009 9.22562 14.0303 9.32184C14.0596 9.41807 14.067 9.51842 14.052 9.61715C14.037 9.71587 13.9999 9.81104 13.9428 9.89721L12.8605 11.5375L12.486 11.3481L13.5683 9.7078C13.5996 9.66468 13.6207 9.61647 13.6301 9.56606C13.6396 9.51565 13.6373 9.46408 13.6234 9.41445C13.6095 9.36483 13.5843 9.31818 13.5493 9.27731C13.5143 9.23643 13.4701 9.20218 13.4196 9.17661C13.369 9.15105 13.3131 9.13469 13.2551 9.12853C13.1972 9.12237 13.1384 9.12653 13.0823 9.14077C13.0262 9.155 12.974 9.17901 12.9288 9.21136C12.8836 9.24371 12.8464 9.28372 12.8193 9.32899L11.3322 11.581V12.8557H13.4969Z" fill="black"/>
<path fill-rule="evenodd" clip-rule="evenodd" d="M4.66526 13.4611H2.24086V14.6733H4.66526V13.4611ZM4.31891 14.2693H3.97257V13.8652H4.31891V14.2693Z" fill="black"/>
<path fill-rule="evenodd" clip-rule="evenodd" d="M13.7566 13.4611H11.3322V14.6733H13.7566V13.4611ZM12.0249 14.2693H11.6786V13.8652H12.0249V14.2693Z" fill="black"/>
</svg>
