<svg xmlns="http://www.w3.org/2000/svg" width="24" height="24" viewBox="0 0 24 24" fill="none"><rect width="24" height="24" fill="none"/>
<path d="M6.6775 0L5.16131 2.16484H18.9375L17.4214 0H6.6775Z" fill="black"/>
<path d="M14.2143 3.34379H19.3312V5.50863H14.2143V3.34379Z" fill="black"/>
<path d="M12.0486 6.65466C11.9325 6.65466 11.8192 6.6879 11.7239 6.7499L10.8678 7.27986V3.34379H13.2295V7.27986L12.3734 6.7499C12.2781 6.6879 12.1647 6.65466 12.0486 6.65466Z" fill="black"/>
<path d="M4.76753 14.0016C4.76753 14.1508 4.82655 14.2938 4.93159 14.3992C5.03664 14.5047 5.17911 14.5639 5.32767 14.5639H18.7709C18.9194 14.5639 19.0619 14.5047 19.1669 14.3992C19.272 14.2938 19.331 14.1508 19.331 14.0016V6.69179H14.2898V8.37868C14.2905 8.4806 14.2632 8.58075 14.2108 8.66806C14.1584 8.75538 14.083 8.82647 13.9929 8.8735C13.9044 8.92217 13.8041 8.9453 13.7033 8.94034C13.6025 8.93538 13.505 8.90251 13.4216 8.84538L12.0493 7.92884L10.6769 8.84538C10.5939 8.90337 10.4963 8.93675 10.3953 8.94172C10.2943 8.9467 10.1939 8.92305 10.1056 8.8735C10.0155 8.82647 9.94012 8.75538 9.88773 8.66806C9.83535 8.58075 9.80801 8.4806 9.80873 8.37868V6.69179H4.76753V14.0016Z" fill="black"/>
<path d="M9.88442 3.34379H4.76753V5.50863H9.88442V3.34379Z" fill="black"/>
<path d="M2.10346 20.3874V20.7283H5.9998V18.4338L3.32301 14.3802C3.2743 14.2987 3.20725 14.2267 3.12589 14.1684C3.04454 14.1102 2.95057 14.067 2.84964 14.0414C2.7487 14.0157 2.64288 14.0083 2.53855 14.0193C2.43422 14.0304 2.33353 14.0599 2.24253 14.1059C2.15154 14.1519 2.07213 14.2136 2.00908 14.2871C1.94602 14.3607 1.90063 14.4447 1.87562 14.534C1.85062 14.6233 1.84652 14.7162 1.86358 14.8069C1.88064 14.8976 1.9185 14.9844 1.97488 15.062L3.92305 18.0145L3.24898 18.3554L1.30081 15.403C1.19805 15.2479 1.13125 15.0766 1.10423 14.8989C1.0772 14.7211 1.09049 14.5405 1.14333 14.3673C1.19616 14.1941 1.28751 14.0317 1.41215 13.8894C1.53678 13.7471 1.69226 13.6277 1.86968 13.5381C1.94534 13.5032 2.02342 13.4724 2.10346 13.446V10.5004C2.10346 10.3195 2.02136 10.1461 1.87522 10.0182C1.72907 9.89037 1.53086 9.81853 1.32419 9.81853C1.11752 9.81853 0.919305 9.89037 0.773164 10.0182C0.627023 10.1461 0.544922 10.3195 0.544922 10.5004V18.5634L2.01774 20.176C2.07338 20.2356 2.10367 20.3103 2.10346 20.3874Z" fill="black"/>
<path d="M21.8967 20.7283V20.3874C21.8965 20.3103 21.9268 20.2356 21.9824 20.176L23.4552 18.5634V10.5004C23.4552 10.3195 23.3731 10.1461 23.227 10.0182C23.0808 9.89037 22.8826 9.81853 22.6759 9.81853C22.4693 9.81853 22.2711 9.89037 22.1249 10.0182C21.9788 10.1461 21.8967 10.3195 21.8967 10.5004V13.446C21.9767 13.4724 22.0548 13.5032 22.1305 13.5381C22.3079 13.6277 22.4633 13.7471 22.588 13.8894C22.7126 14.0317 22.804 14.1941 22.8568 14.3673C22.9096 14.5405 22.9229 14.7211 22.8959 14.8989C22.8689 15.0766 22.8021 15.2479 22.6993 15.403L20.7511 18.3554L20.0771 18.0145L22.0253 15.062C22.0816 14.9844 22.1195 14.8976 22.1366 14.8069C22.1536 14.7162 22.1495 14.6233 22.1245 14.534C22.0995 14.4447 22.0541 14.3607 21.9911 14.2871C21.928 14.2136 21.8486 14.1519 21.7576 14.1059C21.6666 14.0599 21.5659 14.0304 21.4616 14.0193C21.3572 14.0083 21.2514 14.0157 21.1505 14.0414C21.0496 14.067 20.9556 14.1102 20.8742 14.1684C20.7929 14.2267 20.7258 14.2987 20.6771 14.3802L18.0003 18.4338V20.7283H21.8967Z" fill="black"/>
<path fill-rule="evenodd" clip-rule="evenodd" d="M5.9998 21.818H1.6359V24H5.9998V21.818ZM5.37638 23.2727H4.75297V22.5453H5.37638V23.2727Z" fill="black"/>
<path fill-rule="evenodd" clip-rule="evenodd" d="M22.3642 21.818H18.0003V24H22.3642V21.818ZM19.2472 23.2727H18.6237V22.5453H19.2472V23.2727Z" fill="black"/>
</svg>
