<svg xmlns="http://www.w3.org/2000/svg" width="24" height="24" viewBox="0 0 24 24" fill="none"><rect width="24" height="24" fill="none"/>
<path d="M7.56141 2L6.29793 3.80403H17.7781L16.5147 2H7.56141Z" fill="black"/>
<path d="M13.8421 4.7865H18.1062V6.59053H13.8421V4.7865Z" fill="black"/>
<path d="M12.0374 7.54556C11.9406 7.54556 11.8462 7.57326 11.7668 7.62492L11.0533 8.06656V4.7865H13.0214V8.06656L12.308 7.62492C12.2286 7.57326 12.1341 7.54556 12.0374 7.54556Z" fill="black"/>
<path d="M5.96978 13.668C5.96978 13.7923 6.01895 13.9115 6.10649 13.9994C6.19403 14.0872 6.31276 14.1366 6.43655 14.1366H17.6392C17.763 14.1366 17.8817 14.0872 17.9693 13.9994C18.0568 13.9115 18.106 13.7923 18.106 13.668V7.5765H13.905V8.98224C13.9056 9.06718 13.8828 9.15063 13.8392 9.22339C13.7955 9.29616 13.7327 9.3554 13.6576 9.39459C13.5838 9.43515 13.5003 9.45443 13.4163 9.45029C13.3322 9.44616 13.251 9.41877 13.1815 9.37116L12.0379 8.60737L10.8943 9.37116C10.8251 9.41948 10.7438 9.4473 10.6596 9.45145C10.5754 9.45559 10.4917 9.43589 10.4182 9.39459C10.3431 9.3554 10.2803 9.29616 10.2366 9.22339C10.193 9.15063 10.1702 9.06718 10.1708 8.98224V7.5765H5.96978V13.668Z" fill="black"/>
<path d="M10.2339 4.7865H5.96978V6.59053H10.2339V4.7865Z" fill="black"/>
<path d="M3.74971 18.9895V19.2736H6.99666V17.3615L4.76601 13.9835C4.72541 13.9156 4.66953 13.8556 4.60174 13.807C4.53395 13.7585 4.45564 13.7225 4.37152 13.7012C4.28741 13.6798 4.19923 13.6736 4.11229 13.6828C4.02534 13.692 3.94143 13.7166 3.86561 13.7549C3.78978 13.7933 3.7236 13.8447 3.67106 13.906C3.61851 13.9673 3.58068 14.0373 3.55985 14.1117C3.53901 14.1861 3.5356 14.2635 3.54981 14.3391C3.56402 14.4147 3.59557 14.487 3.64256 14.5517L5.26604 17.0121L4.70431 17.2962L3.08084 14.8358C2.9952 14.7066 2.93953 14.5638 2.91702 14.4157C2.8945 14.2676 2.90557 14.1171 2.9496 13.9728C2.99363 13.8284 3.06975 13.6931 3.17362 13.5745C3.27748 13.456 3.40704 13.3565 3.55489 13.2817C3.61794 13.2527 3.68301 13.227 3.74971 13.205V10.7503C3.74971 10.5996 3.68129 10.4551 3.55951 10.3485C3.43772 10.242 3.27255 10.1821 3.10032 10.1821C2.92809 10.1821 2.76291 10.242 2.64113 10.3485C2.51935 10.4551 2.45093 10.5996 2.45093 10.7503V17.4695L3.67828 18.8133C3.72464 18.8631 3.74989 18.9253 3.74971 18.9895Z" fill="black"/>
<path d="M20.2441 19.2736V18.9895C20.2439 18.9253 20.2691 18.8631 20.3155 18.8133L21.5429 17.4695V10.7503C21.5429 10.5996 21.4744 10.4551 21.3527 10.3485C21.2309 10.242 21.0657 10.1821 20.8935 10.1821C20.7212 10.1821 20.5561 10.242 20.4343 10.3485C20.3125 10.4551 20.2441 10.5996 20.2441 10.7503V13.205C20.3108 13.227 20.3758 13.2527 20.4389 13.2817C20.5867 13.3565 20.7163 13.456 20.8202 13.5745C20.924 13.6931 21.0002 13.8284 21.0442 13.9728C21.0882 14.1171 21.0993 14.2676 21.0768 14.4157C21.0543 14.5638 20.9986 14.7066 20.9129 14.8358L19.2895 17.2962L18.7277 17.0121L20.3512 14.5517C20.3982 14.487 20.4298 14.4147 20.444 14.3391C20.4582 14.2635 20.4548 14.1861 20.4339 14.1117C20.4131 14.0373 20.3753 13.9673 20.3227 13.906C20.2702 13.8447 20.204 13.7933 20.1282 13.7549C20.0524 13.7166 19.9684 13.692 19.8815 13.6828C19.7946 13.6736 19.7064 13.6798 19.6223 13.7012C19.5381 13.7225 19.4598 13.7585 19.392 13.807C19.3242 13.8556 19.2684 13.9156 19.2278 13.9835L16.9971 17.3615V19.2736H20.2441Z" fill="black"/>
<path fill-rule="evenodd" clip-rule="evenodd" d="M6.99666 20.1817H3.36007V22H6.99666V20.1817ZM6.47715 21.3939H5.95764V20.7878H6.47715V21.3939Z" fill="black"/>
<path fill-rule="evenodd" clip-rule="evenodd" d="M20.6337 20.1817H16.9971V22H20.6337V20.1817ZM18.0361 21.3939H17.5166V20.7878H18.0361V21.3939Z" fill="black"/>
</svg>
