<svg xmlns="http://www.w3.org/2000/svg" width="24" height="25" viewBox="0 0 24 25" fill="none"><rect width="24" height="25" fill="none"/>
<path d="M20.3266 7.56638C20.321 7.53987 20.321 7.51245 20.3266 7.48595C20.3218 7.46274 20.3218 7.43877 20.3266 7.41556V7.32507L20.2674 7.17425C20.2433 7.1331 20.2134 7.09583 20.1785 7.06365L20.0897 6.98322H20.0404L16.1518 4.47963L12.4804 2.16707C12.3955 2.09843 12.2983 2.04721 12.1942 2.01626H12.1153C12.0271 2.00125 11.937 2.00125 11.8488 2.01626H11.7501C11.6355 2.04209 11.5256 2.0862 11.4244 2.14696L4.05201 6.82234L3.96318 6.89273L3.87436 6.97316L3.77566 7.04354L3.72632 7.10387L3.6671 7.25469V7.40551C3.65752 7.47218 3.65752 7.53993 3.6671 7.6066V16.3843C3.66677 16.5551 3.70918 16.7233 3.79034 16.8728C3.8715 17.0223 3.98873 17.1483 4.13096 17.2389L11.533 21.9042L11.681 21.9645H11.76C11.9269 22.0185 12.1062 22.0185 12.2732 21.9645H12.3521L12.5002 21.9042L19.843 17.3093C19.9852 17.2187 20.1024 17.0927 20.1836 16.9432C20.2648 16.7936 20.3072 16.6255 20.3068 16.4546V7.67698C20.3068 7.67698 20.3266 7.6066 20.3266 7.56638ZM11.9475 4.1981L13.7042 5.3041L8.18727 8.78299L6.42065 7.67698L11.9475 4.1981ZM10.9606 19.28L5.53241 15.9016V9.47675L10.9606 12.8953V19.28ZM11.9475 11.1257L10.0624 9.96943L15.5794 6.48049L17.4743 7.67698L11.9475 11.1257ZM18.3626 15.8715L12.9344 19.3101V12.8953L18.3626 9.47675V15.8715Z" fill="black"/>
</svg>
