<svg xmlns="http://www.w3.org/2000/svg" width="24" height="24" viewBox="0 0 24 24" fill="none"><rect width="24" height="24" fill="none"/>
<path d="M22 6.67365C21.9933 6.64184 21.9933 6.60894 22 6.57713C21.9942 6.54928 21.9942 6.52052 22 6.49267V6.38408L21.9289 6.2031C21.9001 6.15372 21.8641 6.10898 21.8224 6.07038L21.7158 5.97386H21.6565L16.9903 2.96955L12.5846 0.194483C12.4827 0.112111 12.3661 0.0506503 12.2412 0.0135003H12.1464C12.0406 -0.00450009 11.9325 -0.00450009 11.8267 0.0135003H11.7082C11.5707 0.0444992 11.4388 0.0974351 11.3174 0.170352L2.47051 5.78081L2.36392 5.86527L2.25734 5.96179L2.1389 6.04625L2.07969 6.11864L2.00863 6.29962V6.48061C1.99712 6.56062 1.99712 6.64191 2.00863 6.72192V17.2551C2.00822 17.4601 2.05912 17.6619 2.15652 17.8413C2.25391 18.0208 2.39458 18.172 2.56526 18.2807L11.4477 23.879L11.6253 23.9514H11.7201C11.9204 24.0162 12.1356 24.0162 12.3359 23.9514H12.4307L12.6083 23.879L21.4197 18.3651C21.5904 18.2564 21.731 18.1052 21.8284 17.9258C21.9258 17.7464 21.9767 17.5446 21.9763 17.3396V6.80637C21.9763 6.80637 22 6.72192 22 6.67365ZM11.9451 2.63171L14.0532 3.95892L7.43283 8.13358L5.31289 6.80637L11.9451 2.63171ZM10.7608 20.73L4.247 16.676V8.9661L10.7608 13.0684V20.73ZM11.9451 10.9448L9.68304 9.55731L16.3034 5.37058L18.5773 6.80637L11.9451 10.9448ZM19.6432 16.6398L13.1294 20.7662V13.0684L19.6432 8.9661V16.6398Z" fill="black"/>
</svg>
