<svg xmlns="http://www.w3.org/2000/svg" width="24" height="24" viewBox="0 0 24 24" fill="none"><rect width="24" height="24" fill="none"/>
<path d="M20.3376 7.56138C20.332 7.53487 20.332 7.50745 20.3376 7.48094C20.3328 7.45773 20.3328 7.43377 20.3376 7.41056V7.32007L20.2784 7.16925C20.2543 7.1281 20.2244 7.09082 20.1895 7.05865L20.1007 6.97821H20.0514L16.1628 4.47462L12.4914 2.16207C12.4065 2.09343 12.3093 2.04221 12.2052 2.01125H12.1263C12.038 1.99625 11.948 1.99625 11.8598 2.01125H11.7611C11.6465 2.03708 11.5365 2.0812 11.4354 2.14196L4.06299 6.81734L3.97417 6.88772L3.88534 6.96816L3.78665 7.03854L3.7373 7.09887L3.67809 7.24969V7.4005C3.6685 7.46718 3.6685 7.53492 3.67809 7.6016V16.3792C3.67775 16.5501 3.72017 16.7183 3.80133 16.8678C3.88249 17.0173 3.99972 17.1433 4.14195 17.2339L11.544 21.8992L11.692 21.9595H11.771C11.9379 22.0135 12.1172 22.0135 12.2842 21.9595H12.3631L12.5112 21.8992L19.854 17.3043C19.9962 17.2137 20.1134 17.0877 20.1946 16.9382C20.2757 16.7886 20.3182 16.6205 20.3178 16.4496V7.67198C20.3178 7.67198 20.3376 7.6016 20.3376 7.56138ZM11.9585 4.19309L13.7152 5.2991L8.19825 8.77798L6.43164 7.67198L11.9585 4.19309ZM10.9715 19.275L5.5434 15.8966V9.47175L10.9715 12.8903V19.275ZM11.9585 11.1207L10.0734 9.96442L15.5904 6.47548L17.4853 7.67198L11.9585 11.1207ZM18.3736 15.8665L12.9454 19.3051V12.8903L18.3736 9.47175V15.8665Z" fill="black"/>
</svg>
