<svg xmlns="http://www.w3.org/2000/svg" width="17" height="17" viewBox="0 0 17 17" fill="none"><rect width="17" height="17" fill="none"/>
<path d="M13.5662 5.04758C13.5625 5.02991 13.5625 5.01163 13.5662 4.99396C13.563 4.97849 13.563 4.96251 13.5662 4.94704V4.88671L13.5267 4.78616C13.5107 4.75873 13.4907 4.73388 13.4675 4.71243L13.4083 4.65881H13.3754L10.783 2.98974L8.33543 1.44804C8.2788 1.40228 8.214 1.36814 8.14462 1.3475H8.09199C8.03318 1.3375 7.97315 1.3375 7.91434 1.3475H7.84854C7.77211 1.36472 7.69884 1.39413 7.63142 1.43464L2.71647 4.55156L2.65726 4.59848L2.59804 4.6521L2.53225 4.69902L2.49935 4.73924L2.45987 4.83979V4.94033C2.45348 4.98478 2.45348 5.02994 2.45987 5.07439V10.9262C2.45965 11.0401 2.48792 11.1522 2.54203 11.2519C2.59614 11.3515 2.67429 11.4355 2.76911 11.4959L7.70379 14.6061L7.80248 14.6464H7.85512C7.96643 14.6823 8.08595 14.6823 8.19726 14.6464H8.2499L8.34859 14.6061L13.2438 11.5428C13.3386 11.4825 13.4168 11.3985 13.4709 11.2988C13.525 11.1991 13.5533 11.087 13.553 10.9731V5.12132C13.553 5.12132 13.5662 5.07439 13.5662 5.04758ZM7.98013 2.80206L9.1513 3.5394L5.47332 5.85865L4.29557 5.12132L7.98013 2.80206ZM7.32218 12.8566L3.70341 10.6044V6.32116L7.32218 8.6002V12.8566ZM7.98013 7.42046L6.72343 6.64961L10.4014 4.32365L11.6647 5.12132L7.98013 7.42046ZM12.2569 10.5843L8.63809 12.8767V8.6002L12.2569 6.32116V10.5843Z" fill="black"/>
</svg>
