<svg xmlns="http://www.w3.org/2000/svg" width="16" height="16" viewBox="0 0 16 16" fill="none"><rect width="16" height="16" fill="none"/>
<path fill-rule="evenodd" clip-rule="evenodd" d="M6.98504 11.1152H1.72371C1.50816 11.1152 1.3335 10.9404 1.3335 10.7249V1.72357C1.3335 1.50799 1.50816 1.33331 1.72371 1.33331H10.7241C10.9396 1.33331 11.1144 1.50799 11.1144 1.72357V6.98532C12.2361 7.77021 12.6857 9.2295 12.1715 10.5168L14.3099 12.6553C15.4015 13.7472 13.7414 15.398 12.6544 14.311L10.516 12.1724C9.22889 12.6866 7.76964 12.237 6.98504 11.1152ZM12.8888 12.3378L12.3369 12.8897L13.2061 13.7591C13.5744 14.1273 14.1153 13.5643 13.758 13.2071L12.8888 12.3378ZM11.7851 12.3379L12.337 11.786L11.7712 11.2202C11.6123 11.4274 11.4266 11.6133 11.2193 11.7721L11.7851 12.3379ZM10.3339 6.59608V2.11383H8.08926V4.30073C8.08926 4.58101 7.79039 4.79689 7.49814 4.63523L6.22393 3.99003L4.92398 4.64826C4.66214 4.78061 4.35921 4.58447 4.35951 4.30073L4.3586 2.11383H2.11393V10.3347H6.59573C5.84928 8.03787 8.03738 5.84955 10.3339 6.59608ZM7.87147 7.87194C7.0182 8.7253 7.0182 10.1091 7.87147 10.9625C8.72474 11.8158 10.1084 11.8158 10.9617 10.9625C11.8149 10.1091 11.8149 8.7253 10.9617 7.87194C10.1084 7.01859 8.72474 7.01859 7.87147 7.87194ZM7.30893 2.11383H5.13893V3.66682C6.43033 3.01286 6.01397 3.01103 7.30883 3.66682L7.30893 2.11383Z" fill="black"/>
</svg>
