<svg xmlns="http://www.w3.org/2000/svg" width="24" height="24" viewBox="0 0 24 24" fill="none"><rect width="24" height="24" fill="none"/>
<path fill-rule="evenodd" clip-rule="evenodd" d="M10.4783 16.6728H2.5863C2.26297 16.6728 2.00098 16.4106 2.00098 16.0874V2.58539C2.00098 2.26202 2.26297 2 2.5863 2H16.0869C16.4101 2 16.6723 2.26202 16.6723 2.58539V10.478C18.3549 11.6553 19.0293 13.8443 18.258 15.7752L21.4655 18.983C23.1029 20.6208 20.6129 23.0971 18.9823 21.4665L15.7748 18.2586C13.8441 19.0299 11.6552 18.3555 10.4783 16.6728ZM19.3339 18.5068L18.5061 19.3346L19.8099 20.6386C20.3623 21.191 21.1736 20.3465 20.6377 19.8108L19.3339 18.5068ZM17.6784 18.5069L18.5062 17.679L17.6575 16.8303C17.4192 17.1411 17.1406 17.4199 16.8297 17.6581L17.6784 18.5069ZM15.5016 9.89415V3.17077H12.1346V6.45112C12.1346 6.87155 11.6863 7.19537 11.2479 6.95288L9.33663 5.98507L7.38671 6.97242C6.99395 7.17095 6.53954 6.87673 6.54 6.45112L6.53863 3.17077H3.17163V15.502H9.89433C8.77465 12.0568 12.0568 8.77435 15.5016 9.89415ZM11.8079 11.8079C10.528 13.088 10.528 15.1637 11.8079 16.4437C13.0878 17.7238 15.1633 17.7238 16.4432 16.4437C17.7231 15.1637 17.7231 13.088 16.4432 11.8079C15.1633 10.5279 13.0878 10.5279 11.8079 11.8079ZM10.9641 3.17077H7.70913V5.50025C9.64623 4.51932 9.02169 4.51658 10.964 5.50025L10.9641 3.17077Z" fill="black"/>
</svg>
