<svg xmlns="http://www.w3.org/2000/svg" width="16" height="16" viewBox="0 0 16 16" fill="none"><rect width="16" height="16" fill="none"/>
<path d="M13.5579 5.0409C13.5542 5.02323 13.5542 5.00495 13.5579 4.98727C13.5547 4.9718 13.5547 4.95582 13.5579 4.94035V4.88003L13.5184 4.77948C13.5024 4.75204 13.4824 4.72719 13.4592 4.70575L13.4 4.65212H13.3671L10.7747 2.98306L8.32713 1.44136C8.2705 1.3956 8.2057 1.36145 8.13632 1.34081H8.08368C8.02488 1.33081 7.96485 1.33081 7.90604 1.34081H7.84024C7.76381 1.35803 7.69054 1.38744 7.62312 1.42795L2.70817 4.54487L2.64896 4.59179L2.58974 4.64542L2.52395 4.69234L2.49105 4.73256L2.45157 4.8331V4.93365C2.44518 4.9781 2.44518 5.02326 2.45157 5.06771V10.9195C2.45135 11.0334 2.47962 11.1455 2.53373 11.2452C2.58784 11.3449 2.66599 11.4289 2.76081 11.4892L7.69549 14.5995L7.79418 14.6397H7.84682C7.95813 14.6756 8.07764 14.6756 8.18896 14.6397H8.24159L8.34029 14.5995L13.2355 11.5362C13.3303 11.4758 13.4085 11.3918 13.4626 11.2921C13.5167 11.1924 13.545 11.0803 13.5447 10.9664V5.11463C13.5447 5.11463 13.5579 5.06771 13.5579 5.0409ZM7.97183 2.79538L9.143 3.53271L5.46501 5.85197L4.28727 5.11463L7.97183 2.79538ZM7.31388 12.85L3.69511 10.5977V6.31448L7.31388 8.59352V12.85ZM7.97183 7.41378L6.71513 6.64293L10.3931 4.31697L11.6564 5.11463L7.97183 7.41378ZM12.2486 10.5776L8.62979 12.8701V8.59352L12.2486 6.31448V10.5776Z" fill="black"/>
</svg>
