<svg xmlns="http://www.w3.org/2000/svg" width="17" height="17" viewBox="0 0 17 17" fill="none"><rect width="17" height="17" fill="none"/>
<path fill-rule="evenodd" clip-rule="evenodd" d="M6.99627 11.1218H1.73494C1.51939 11.1218 1.34473 10.9471 1.34473 10.7316V1.73025C1.34473 1.51468 1.51939 1.34 1.73494 1.34H10.7354C10.9508 1.34 11.1256 1.51468 11.1256 1.73025V6.992C12.2473 7.77689 12.6969 9.23618 12.1827 10.5234L14.3211 12.662C15.4127 13.7538 13.7526 15.4047 12.6656 14.3177L10.5272 12.1791C9.24012 12.6933 7.78087 12.2437 6.99627 11.1218ZM12.9 12.3445L12.3481 12.8964L13.2174 13.7657C13.5856 14.134 14.1265 13.571 13.7692 13.2138L12.9 12.3445ZM11.7964 12.3446L12.3482 11.7927L11.7824 11.2268C11.6235 11.4341 11.4378 11.6199 11.2306 11.7788L11.7964 12.3446ZM10.3452 6.60277V2.12051H8.10049V4.30741C8.10049 4.58769 7.80162 4.80358 7.50937 4.64192L6.23516 3.99671L4.93521 4.65494C4.67337 4.7873 4.37044 4.59115 4.37074 4.30741L4.36983 2.12051H2.12516V10.3413H6.60697C5.86051 8.04456 8.04861 5.85623 10.3452 6.60277ZM7.8827 7.87863C7.02943 8.73198 7.02943 10.1158 7.8827 10.9691C8.73597 11.8225 10.1196 11.8225 10.9729 10.9691C11.8262 10.1158 11.8262 8.73198 10.9729 7.87863C10.1196 7.02527 8.73597 7.02527 7.8827 7.87863ZM7.32016 2.12051H5.15016V3.6735C6.44156 3.01954 6.0252 3.01771 7.32006 3.6735L7.32016 2.12051Z" fill="black"/>
</svg>
