<svg xmlns="http://www.w3.org/2000/svg" width="24" height="25" viewBox="0 0 24 25" fill="none"><rect width="24" height="25" fill="none"/>
<path fill-rule="evenodd" clip-rule="evenodd" d="M10.4773 16.6778H2.58533C2.26199 16.6778 2 16.4156 2 16.0924V2.59039C2 2.26702 2.26199 2.005 2.58533 2.005H16.086C16.4092 2.005 16.6713 2.26702 16.6713 2.59039V10.483C18.3539 11.6603 19.0283 13.8493 18.257 15.7802L21.4645 18.988C23.102 20.6258 20.6119 23.1021 18.9813 21.4715L15.7738 18.2636C13.8431 19.0349 11.6542 18.3605 10.4773 16.6778ZM19.3329 18.5118L18.5051 19.3396L19.809 20.6436C20.3613 21.1961 21.1726 20.3515 20.6367 19.8158L19.3329 18.5118ZM17.6775 18.5119L18.5053 17.684L17.6566 16.8353C17.4182 17.1461 17.1396 17.4249 16.8288 17.6631L17.6775 18.5119ZM15.5006 9.89916V3.17578H12.1336V6.45613C12.1336 6.87655 11.6853 7.20037 11.247 6.95789L9.33565 5.99008L7.38573 6.97742C6.99297 7.17596 6.53857 6.88174 6.53902 6.45613L6.53765 3.17578H3.17065V15.507H9.89336C8.77367 12.0618 12.0558 8.77936 15.5006 9.89916ZM11.807 11.813C10.5271 13.093 10.5271 15.1687 11.807 16.4487C13.0869 17.7288 15.1624 17.7288 16.4423 16.4487C17.7222 15.1687 17.7222 13.093 16.4423 11.813C15.1624 10.5329 13.0869 10.5329 11.807 11.813ZM10.9631 3.17578H7.70815V5.50526C9.64525 4.52433 9.02071 4.52158 10.963 5.50526L10.9631 3.17578Z" fill="black"/>
</svg>
