<svg xmlns="http://www.w3.org/2000/svg" width="24" height="24" viewBox="0 0 24 24" fill="none"><rect width="24" height="24" fill="none"/>
<path fill-rule="evenodd" clip-rule="evenodd" d="M5.49695 6.0323C3.9572 6.43669 2.44976 7.62961 1.73677 9.00779C0.456283 11.4831 0.872914 14.4511 2.7684 16.3578C3.88091 17.4768 5.01541 18.0031 6.50077 18.0891C7.5497 18.1499 8.36394 17.9791 9.31928 17.498C10.1143 17.0977 11.1429 16.1602 11.6154 15.4051C11.7995 15.1112 11.9715 14.8705 11.9978 14.8705C12.0241 14.8705 12.1962 15.1112 12.3802 15.4051C13.1264 16.5973 14.5957 17.6576 15.941 17.9748C18.9322 18.6801 21.9997 16.7098 22.8035 13.5671C23.6497 10.2582 21.6824 6.84692 18.4547 6.02647C17.6381 5.81892 17.0146 5.83613 16.7779 6.07284C16.3516 6.49912 16.6807 7.12445 17.3314 7.12445C18.784 7.12445 20.4116 8.16679 21.1503 9.57002C22.878 12.8521 20.6788 16.8822 17.1641 16.8746C15.052 16.8701 13.0602 15.1099 12.7432 12.968C12.6918 12.6197 12.6303 12.1963 12.6068 12.0271C12.5518 11.633 12.3426 11.4265 11.9978 11.4265C11.6531 11.4265 11.4438 11.633 11.3889 12.0271C11.2055 13.3443 11.1227 13.6795 10.8383 14.2574C9.43362 17.1106 5.87544 17.7461 3.68053 15.5359C1.04404 12.8809 2.21267 8.18954 5.7393 7.27101C6.04876 7.19041 6.46501 7.12445 6.66424 7.12445C7.0912 7.12445 7.40898 6.85925 7.40898 6.50304C7.40898 6.37159 7.32294 6.178 7.21778 6.07284C6.98508 5.84014 6.29102 5.82379 5.49695 6.0323ZM5.16235 10.9386C4.95203 11.0359 4.66436 11.2393 4.52316 11.3906C3.62623 12.3508 4.10749 14.0324 5.38042 14.3859C5.82362 14.509 5.93509 14.509 6.3783 14.3859C7.65123 14.0324 8.13249 12.3508 7.23556 11.3906C6.90774 11.0395 6.30832 10.7615 5.87936 10.7615C5.69533 10.7615 5.37267 10.8411 5.16235 10.9386ZM17.3993 10.9386C17.189 11.0359 16.9013 11.2393 16.7601 11.3906C15.8632 12.3508 16.3444 14.0324 17.6174 14.3859C18.0606 14.509 18.1721 14.509 18.6153 14.3859C19.8882 14.0324 20.3694 12.3508 19.4725 11.3906C19.1447 11.0395 18.5453 10.7615 18.1163 10.7615C17.9323 10.7615 17.6096 10.8411 17.3993 10.9386ZM6.24044 12.149C6.65277 12.4377 6.38691 13.2429 5.87936 13.2429C5.59972 13.2429 5.30575 12.9028 5.30575 12.5792C5.30575 12.2878 5.59074 12.0001 5.87936 12.0001C5.9611 12.0001 6.12362 12.0671 6.24044 12.149ZM18.4774 12.149C18.8897 12.4377 18.6239 13.2429 18.1163 13.2429C17.8367 13.2429 17.5427 12.9028 17.5427 12.5792C17.5427 12.2878 17.8277 12.0001 18.1163 12.0001C18.1981 12.0001 18.3606 12.0671 18.4774 12.149Z" fill="black"/>
</svg>
