<svg xmlns="http://www.w3.org/2000/svg" width="24" height="24" viewBox="0 0 24 24" fill="none"><rect width="24" height="24" fill="none"/>
<path d="M20.1828 18.0981C20.1828 18.3282 20.3693 18.5148 20.5995 18.5148H21.5843C21.8144 18.5148 22.001 18.7013 22.001 18.9314V19.95C22.001 20.1801 21.8144 20.3666 21.5843 20.3666H2.41764C2.18752 20.3666 2.00098 20.1801 2.00098 19.95V18.9314C2.00098 18.7013 2.18752 18.5148 2.41764 18.5148H3.40249C3.63261 18.5148 3.81916 18.3282 3.81916 18.0981V4.62588C3.81916 4.38031 3.91494 4.14479 4.08542 3.97115C4.25591 3.7975 4.48714 3.69995 4.72825 3.69995H13.8192C14.0603 3.69995 14.2915 3.7975 14.462 3.97115C14.6325 4.14479 14.7282 4.38031 14.7282 4.62588V18.0981C14.7282 18.3282 14.9148 18.5148 15.1449 18.5148H16.1298C16.3599 18.5148 16.5464 18.3282 16.5464 18.0981V9.67217C16.5464 9.44205 16.733 9.25551 16.9631 9.25551H19.2737C19.5148 9.25551 19.746 9.35306 19.9165 9.5267C20.087 9.70035 20.1828 9.93586 20.1828 10.1814V18.0981ZM7.87219 11.1074C7.64207 11.1074 7.45552 11.2939 7.45552 11.524V12.5425C7.45552 12.7727 7.64207 12.9592 7.87219 12.9592H10.6752C10.9053 12.9592 11.0919 12.7727 11.0919 12.5425V11.524C11.0919 11.2939 10.9053 11.1074 10.6752 11.1074H7.87219ZM7.87219 7.40366C7.64207 7.40366 7.45552 7.5902 7.45552 7.82032V8.83884C7.45552 9.06896 7.64207 9.25551 7.87219 9.25551H10.6752C10.9053 9.25551 11.0919 9.06896 11.0919 8.83884V7.82032C11.0919 7.5902 10.9053 7.40366 10.6752 7.40366H7.87219Z" fill="black"/>
</svg>
