<svg xmlns="http://www.w3.org/2000/svg" width="17" height="17" viewBox="0 0 17 17" fill="none"><rect width="17" height="17" fill="none"/>
<path d="M13.4659 12.0488C13.4659 12.2022 13.5903 12.3266 13.7437 12.3266H14.4003C14.5537 12.3266 14.6781 12.4509 14.6781 12.6043V13.2833C14.6781 13.4368 14.5537 13.5611 14.4003 13.5611H1.6225C1.46909 13.5611 1.34473 13.4368 1.34473 13.2833V12.6043C1.34473 12.4509 1.46909 12.3266 1.6225 12.3266H2.27907C2.43248 12.3266 2.55685 12.2022 2.55685 12.0488V3.0673C2.55685 2.90358 2.6207 2.74657 2.73436 2.63081C2.84802 2.51505 3.00217 2.45001 3.16291 2.45001H9.22351C9.38425 2.45001 9.53841 2.51505 9.65206 2.63081C9.76572 2.74657 9.82958 2.90358 9.82958 3.0673V12.0488C9.82958 12.2022 9.95394 12.3266 10.1074 12.3266H10.7639C10.9173 12.3266 11.0417 12.2022 11.0417 12.0488V6.43149C11.0417 6.27808 11.1661 6.15372 11.3195 6.15372H12.8599C13.0206 6.15372 13.1748 6.21875 13.2884 6.33451C13.4021 6.45028 13.4659 6.60729 13.4659 6.771V12.0488ZM5.25887 7.38828C5.10546 7.38828 4.98109 7.51265 4.98109 7.66606V8.34507C4.98109 8.49849 5.10546 8.62285 5.25887 8.62285H7.12755C7.28097 8.62285 7.40533 8.49849 7.40533 8.34507V7.66606C7.40533 7.51265 7.28097 7.38828 7.12755 7.38828H5.25887ZM5.25887 4.91915C5.10546 4.91915 4.98109 5.04351 4.98109 5.19693V5.87594C4.98109 6.02935 5.10546 6.15372 5.25887 6.15372H7.12755C7.28097 6.15372 7.40533 6.02935 7.40533 5.87594V5.19693C7.40533 5.04351 7.28097 4.91915 7.12755 4.91915H5.25887Z" fill="black"/>
</svg>
