<svg xmlns="http://www.w3.org/2000/svg" width="16" height="16" viewBox="0 0 16 16" fill="none"><rect width="16" height="16" fill="none"/>
<path d="M13.4545 12.0654C13.4545 12.2189 13.5788 12.3432 13.7322 12.3432H14.3888C14.5422 12.3432 14.6666 12.4676 14.6666 12.621V13.3C14.6666 13.4534 14.5422 13.5778 14.3888 13.5778H1.61103C1.45762 13.5778 1.33325 13.4534 1.33325 13.3V12.621C1.33325 12.4676 1.45762 12.3432 1.61103 12.3432H2.2676C2.42101 12.3432 2.54537 12.2189 2.54537 12.0654V3.08396C2.54537 2.92024 2.60923 2.76324 2.72288 2.64747C2.83654 2.53171 2.9907 2.46667 3.15143 2.46667H9.21204C9.37278 2.46667 9.52693 2.53171 9.64059 2.64747C9.75425 2.76324 9.8181 2.92024 9.8181 3.08396V12.0654C9.8181 12.2189 9.94247 12.3432 10.0959 12.3432H10.7524C10.9059 12.3432 11.0302 12.2189 11.0302 12.0654V6.44816C11.0302 6.29474 11.1546 6.17038 11.308 6.17038H12.8484C13.0091 6.17038 13.1633 6.23541 13.277 6.35118C13.3906 6.46694 13.4545 6.62395 13.4545 6.78766V12.0654ZM5.24739 7.40495C5.09398 7.40495 4.96962 7.52931 4.96962 7.68272V8.36174C4.96962 8.51515 5.09398 8.63951 5.24739 8.63951H7.11608C7.26949 8.63951 7.39386 8.51515 7.39386 8.36174V7.68272C7.39386 7.52931 7.26949 7.40495 7.11608 7.40495H5.24739ZM5.24739 4.93581C5.09398 4.93581 4.96962 5.06018 4.96962 5.21359V5.8926C4.96962 6.04601 5.09398 6.17038 5.24739 6.17038H7.11608C7.26949 6.17038 7.39386 6.04601 7.39386 5.8926V5.21359C7.39386 5.06018 7.26949 4.93581 7.11608 4.93581H5.24739Z" fill="black"/>
</svg>
