<svg xmlns="http://www.w3.org/2000/svg" width="24" height="25" viewBox="0 0 24 25" fill="none"><rect width="24" height="25" fill="none"/>
<path d="M20.1818 18.0632C20.1818 18.2933 20.3684 18.4799 20.5985 18.4799H21.5833C21.8135 18.4799 22 18.6664 22 18.8965V19.915C22 20.1452 21.8134 20.3317 21.5833 20.3317H2.41667C2.18655 20.3317 2 20.1452 2 19.915V18.8965C2 18.6664 2.18655 18.4799 2.41667 18.4799H3.40152C3.63163 18.4799 3.81818 18.2933 3.81818 18.0632V4.59097C3.81818 4.34539 3.91396 4.10988 4.08445 3.93624C4.25494 3.76259 4.48617 3.66504 4.72727 3.66504H13.8182C14.0593 3.66504 14.2905 3.76259 14.461 3.93624C14.6315 4.10988 14.7273 4.34539 14.7273 4.59097V18.0632C14.7273 18.2933 14.9138 18.4799 15.1439 18.4799H16.1288C16.3589 18.4799 16.5455 18.2933 16.5455 18.0632V9.63726C16.5455 9.40714 16.732 9.22059 16.9621 9.22059H19.2727C19.5138 9.22059 19.7451 9.31815 19.9156 9.49179C20.086 9.66544 20.1818 9.90095 20.1818 10.1465V18.0632ZM7.87121 11.0724C7.64109 11.0724 7.45455 11.259 7.45455 11.4891V12.5076C7.45455 12.7378 7.64109 12.9243 7.87121 12.9243H10.6742C10.9044 12.9243 11.0909 12.7378 11.0909 12.5076V11.4891C11.0909 11.259 10.9044 11.0724 10.6742 11.0724H7.87121ZM7.87121 7.36874C7.64109 7.36874 7.45455 7.55529 7.45455 7.78541V8.80393C7.45455 9.03405 7.64109 9.22059 7.87121 9.22059H10.6742C10.9044 9.22059 11.0909 9.03405 11.0909 8.80393V7.78541C11.0909 7.55529 10.9044 7.36874 10.6742 7.36874H7.87121Z" fill="black"/>
</svg>
