<svg xmlns="http://www.w3.org/2000/svg" width="16" height="16" viewBox="0 0 16 16" fill="none"><rect width="16" height="16" fill="none"/>
<path d="M5.22454 10.5C5.22454 10.0398 5.59764 9.66671 6.05788 9.66671H6.61344C7.07368 9.66671 7.44678 10.0398 7.44678 10.5V11.0556C7.44678 11.5158 7.07368 11.8889 6.61344 11.8889H6.05788C5.59764 11.8889 5.22454 11.5158 5.22454 11.0556V10.5Z" fill="black"/>
<path fill-rule="evenodd" clip-rule="evenodd" d="M5.22459 1.33334C4.91777 1.33334 4.66903 1.58207 4.66903 1.8889V3.00002L4.66905 3.00399C3.37436 3.46157 2.44678 4.69629 2.44678 6.14766V11.3333C2.44678 13.1743 3.93916 14.6667 5.78011 14.6667H10.2246C12.0656 14.6667 13.5579 13.1743 13.5579 11.3333V6.14766C13.5579 4.69629 12.6303 3.46156 11.3357 3.00398L11.3357 3.00002V1.8889C11.3357 1.58207 11.0869 1.33334 10.7801 1.33334C10.4733 1.33334 10.2246 1.58207 10.2246 1.8889V2.81433H5.78015V1.8889C5.78015 1.58207 5.53142 1.33334 5.22459 1.33334ZM10.2246 3.92544H5.78011C4.6788 3.92544 3.76461 4.72657 3.58852 5.77785H12.4162C12.2401 4.72657 11.3259 3.92544 10.2246 3.92544ZM12.4468 6.88897H3.55791V6.88897L3.55789 11.3333C3.55789 12.5606 4.55281 13.5556 5.78011 13.5556H10.2246C11.4519 13.5556 12.4468 12.5606 12.4468 11.3333V6.88897Z" fill="black"/>
</svg>
