<svg xmlns="http://www.w3.org/2000/svg" width="24" height="24" viewBox="0 0 24 24" fill="none"><rect width="24" height="24" fill="none"/>
<path fill-rule="evenodd" clip-rule="evenodd" d="M6.54502 0C6.04295 0 5.63594 0.407009 5.63594 0.90908V2.78318L5.63594 2.78558C3.59742 2.96949 2 4.68281 2 6.76923V8L22 8V6.76923C22 4.76897 20.5318 3.11162 18.6142 2.8161C18.615 2.80056 18.6154 2.78493 18.6154 2.7692V0.923065C18.6154 0.41327 18.2021 0 17.6924 0C17.1826 0 16.7693 0.413271 16.7693 0.923065V2.7692V2.76923H7.4541V0.90908C7.4541 0.407009 7.04709 0 6.54502 0ZM22 9.5L2 9.5V20C2 22.2091 3.79086 24 6 24H18C20.2091 24 22 22.2091 22 20V9.5ZM8.3077 14.3077C8.3077 15.0724 7.68779 15.6923 6.92308 15.6923C6.15838 15.6923 5.53847 15.0724 5.53847 14.3077C5.53847 13.543 6.15838 12.9231 6.92308 12.9231C7.68779 12.9231 8.3077 13.543 8.3077 14.3077ZM11.5385 15.6923C12.3032 15.6923 12.9231 15.0724 12.9231 14.3077C12.9231 13.543 12.3032 12.9231 11.5385 12.9231C10.7738 12.9231 10.1539 13.543 10.1539 14.3077C10.1539 15.0724 10.7738 15.6923 11.5385 15.6923ZM8.3077 18.9231C8.3077 19.6878 7.68779 20.3077 6.92308 20.3077C6.15838 20.3077 5.53847 19.6878 5.53847 18.9231C5.53847 18.1584 6.15838 17.5385 6.92308 17.5385C7.68779 17.5385 8.3077 18.1584 8.3077 18.9231ZM16.1539 15.6923C16.9186 15.6923 17.5385 15.0724 17.5385 14.3077C17.5385 13.543 16.9186 12.9231 16.1539 12.9231C15.3892 12.9231 14.7692 13.543 14.7692 14.3077C14.7692 15.0724 15.3892 15.6923 16.1539 15.6923Z" fill="black"/>
</svg>
