<svg xmlns="http://www.w3.org/2000/svg" width="25" height="24" viewBox="0 0 25 24" fill="none"><rect width="25" height="24" fill="none"/>
<path fill-rule="evenodd" clip-rule="evenodd" d="M7.45203 2C7.03364 2 6.69446 2.33917 6.69446 2.75757V4.31932C6.69446 4.35498 6.69693 4.39007 6.7017 4.42442C4.95778 4.8555 3.66479 6.43061 3.66479 8.30771V18C3.66479 20.2092 5.45566 22 7.66479 22H16.3315C18.5406 22 20.3315 20.2092 20.3315 18V9.91672L3.66503 9.91672L3.66503 8.66672L20.3315 8.66672V8.30771C20.3315 6.50204 19.135 4.97582 17.4917 4.47856C17.5041 4.4236 17.5107 4.3664 17.5107 4.30766V2.76922C17.5107 2.34439 17.1663 2 16.7415 2C16.3167 2 15.9723 2.34439 15.9723 2.76922V4.30766V4.30771H8.2096V2.75757C8.2096 2.33917 7.87042 2 7.45203 2ZM8.92124 13.9231C8.92124 14.5604 8.40465 15.077 7.7674 15.077C7.13014 15.077 6.61355 14.5604 6.61355 13.9231C6.61355 13.2859 7.13014 12.7693 7.7674 12.7693C8.40465 12.7693 8.92124 13.2859 8.92124 13.9231ZM11.6132 15.077C12.2504 15.077 12.767 14.5604 12.767 13.9231C12.767 13.2859 12.2504 12.7693 11.6132 12.7693C10.9759 12.7693 10.4593 13.2859 10.4593 13.9231C10.4593 14.5604 10.9759 15.077 11.6132 15.077ZM8.92124 17.7692C8.92124 18.4065 8.40465 18.9231 7.7674 18.9231C7.13014 18.9231 6.61355 18.4065 6.61355 17.7692C6.61355 17.132 7.13014 16.6154 7.7674 16.6154C8.40465 16.6154 8.92124 17.132 8.92124 17.7692ZM15.4599 15.077C16.0972 15.077 16.6138 14.5604 16.6138 13.9231C16.6138 13.2859 16.0972 12.7693 15.4599 12.7693C14.8227 12.7693 14.3061 13.2859 14.3061 13.9231C14.3061 14.5604 14.8227 15.077 15.4599 15.077Z" fill="black"/>
</svg>
