<svg xmlns="http://www.w3.org/2000/svg" width="16" height="16" viewBox="0 0 16 16" fill="none"><rect width="16" height="16" fill="none"/>
<path fill-rule="evenodd" clip-rule="evenodd" d="M5.22455 1.33334C4.91773 1.33334 4.669 1.58207 4.669 1.8889V3.00001C4.669 3.01858 4.66991 3.03693 4.67169 3.05503C3.40244 3.31136 2.44678 4.43297 2.44678 5.77779V11.8889C2.44678 13.423 3.69043 14.6667 5.22455 14.6667H10.7801C12.3142 14.6667 13.5579 13.423 13.5579 11.8889V5.77779C13.5579 4.43297 12.6022 3.31136 11.333 3.05503C11.3348 3.03693 11.3357 3.01858 11.3357 3.00001V1.8889C11.3357 1.58207 11.0869 1.33334 10.7801 1.33334C10.4733 1.33334 10.2246 1.58207 10.2246 1.8889V3.00001H8.55789V1.8889C8.55789 1.58207 8.30916 1.33334 8.00233 1.33334C7.69551 1.33334 7.44678 1.58207 7.44678 1.8889V3.00001H5.78011V1.8889C5.78011 1.58207 5.53138 1.33334 5.22455 1.33334ZM3.55789 5.77779C3.55789 4.85731 4.30408 4.11112 5.22455 4.11112H10.7801C11.7006 4.11112 12.4468 4.85731 12.4468 5.77779V11.8889C12.4468 12.8094 11.7006 13.5556 10.7801 13.5556H5.22455C4.30408 13.5556 3.55789 12.8094 3.55789 11.8889V5.77779Z" fill="black"/>
</svg>
