<svg xmlns="http://www.w3.org/2000/svg" width="24" height="24" viewBox="0 0 24 24" fill="none"><rect width="24" height="24" fill="none"/>
<path fill-rule="evenodd" clip-rule="evenodd" d="M7.83756 2C7.37733 2 7.00423 2.3731 7.00423 2.83333V4.5C7.00423 4.52785 7.0056 4.55538 7.00827 4.58253C5.10439 4.96703 3.6709 6.64944 3.6709 8.66667V17.8333C3.6709 20.1345 5.53638 22 7.83756 22H16.1709C18.4721 22 20.3376 20.1345 20.3376 17.8333V8.66667C20.3376 6.64944 18.9041 4.96703 17.0002 4.58253C17.0029 4.55538 17.0042 4.52785 17.0042 4.5V2.83333C17.0042 2.3731 16.6311 2 16.1709 2C15.7107 2 15.3376 2.3731 15.3376 2.83333V4.5H12.8376V2.83333C12.8376 2.3731 12.4645 2 12.0042 2C11.544 2 11.1709 2.3731 11.1709 2.83333V4.5H8.6709V2.83333C8.6709 2.3731 8.2978 2 7.83756 2ZM5.33756 8.66667C5.33756 7.28595 6.45685 6.16667 7.83756 6.16667H16.1709C17.5516 6.16667 18.6709 7.28595 18.6709 8.66667V17.8333C18.6709 19.214 17.5516 20.3333 16.1709 20.3333H7.83756C6.45685 20.3333 5.33756 19.214 5.33756 17.8333V8.66667Z" fill="black"/>
</svg>
