<svg xmlns="http://www.w3.org/2000/svg" width="24" height="24" viewBox="0 0 24 24" fill="none"><rect width="24" height="24" fill="none"/>
<path fill-rule="evenodd" clip-rule="evenodd" d="M7.44812 2C7.02973 2 6.69056 2.33917 6.69056 2.75757V4.31932C6.69056 4.35498 6.69302 4.39007 6.69779 4.42442C4.95387 4.8555 3.66089 6.43061 3.66089 8.30771V18C3.66089 20.2092 5.45175 22 7.66089 22H16.3276C18.5367 22 20.3276 20.2092 20.3276 18V9.91672L3.66112 9.91672L3.66112 8.66672L20.3276 8.66672V8.30771C20.3276 6.50204 19.1311 4.97582 17.4878 4.47856C17.5002 4.4236 17.5068 4.3664 17.5068 4.30766V2.76922C17.5068 2.34439 17.1624 2 16.7376 2C16.3128 2 15.9684 2.34439 15.9684 2.76922V4.30766V4.30771H8.20569V2.75757C8.20569 2.33917 7.86652 2 7.44812 2ZM8.91733 13.9231C8.91733 14.5604 8.40074 15.077 7.76349 15.077C7.12624 15.077 6.60964 14.5604 6.60964 13.9231C6.60964 13.2859 7.12624 12.7693 7.76349 12.7693C8.40074 12.7693 8.91733 13.2859 8.91733 13.9231ZM11.6093 15.077C12.2465 15.077 12.7631 14.5604 12.7631 13.9231C12.7631 13.2859 12.2465 12.7693 11.6093 12.7693C10.972 12.7693 10.4554 13.2859 10.4554 13.9231C10.4554 14.5604 10.972 15.077 11.6093 15.077ZM8.91733 17.7692C8.91733 18.4065 8.40074 18.9231 7.76349 18.9231C7.12624 18.9231 6.60964 18.4065 6.60964 17.7692C6.60964 17.132 7.12624 16.6154 7.76349 16.6154C8.40074 16.6154 8.91733 17.132 8.91733 17.7692ZM15.456 15.077C16.0933 15.077 16.6099 14.5604 16.6099 13.9231C16.6099 13.2859 16.0933 12.7693 15.456 12.7693C14.8188 12.7693 14.3022 13.2859 14.3022 13.9231C14.3022 14.5604 14.8188 15.077 15.456 15.077Z" fill="black"/>
</svg>
