<svg xmlns="http://www.w3.org/2000/svg" width="16" height="16" viewBox="0 0 16 16" fill="none"><rect width="16" height="16" fill="none"/>
<path fill-rule="evenodd" clip-rule="evenodd" d="M4.96473 1.33334C4.6858 1.33334 4.45968 1.55946 4.45968 1.83839V2.87956C4.45968 3.0463 4.54049 3.19417 4.66508 3.28615C3.66466 3.78229 2.90148 4.6848 2.59138 5.77782L13.3996 5.77782C13.0972 4.71196 12.364 3.82726 11.4 3.32388C11.5611 3.2374 11.6706 3.06738 11.6706 2.87179V1.84616C11.6706 1.56294 11.441 1.33334 11.1578 1.33334C10.8746 1.33334 10.645 1.56294 10.645 1.84616V2.87178C10.645 2.92715 10.6537 2.98046 10.67 3.03041C10.3149 2.92716 9.93944 2.87181 9.55105 2.87181H6.43994C6.10073 2.87181 5.77138 2.91403 5.45686 2.99351C5.46531 2.95689 5.46977 2.91874 5.46977 2.87956V1.83839C5.46977 1.55946 5.24365 1.33334 4.96473 1.33334ZM13.5427 6.61115L2.4483 6.61115C2.44276 6.69732 2.43994 6.78424 2.43994 6.87181V10.6667C2.43994 12.8758 4.2308 14.6667 6.43994 14.6667H9.55105C11.7602 14.6667 13.5511 12.8758 13.5511 10.6667V6.87181C13.5511 6.78424 13.5482 6.69732 13.5427 6.61115ZM5.94425 9.28209C5.94425 9.70692 5.59985 10.0513 5.17502 10.0513C4.75018 10.0513 4.40579 9.70692 4.40579 9.28209C4.40579 8.85725 4.75018 8.51286 5.17502 8.51286C5.59985 8.51286 5.94425 8.85725 5.94425 9.28209ZM7.73891 10.0513C8.16375 10.0513 8.50814 9.70692 8.50814 9.28209C8.50814 8.85725 8.16375 8.51286 7.73891 8.51286C7.31408 8.51286 6.96968 8.85725 6.96968 9.28209C6.96968 9.70692 7.31408 10.0513 7.73891 10.0513ZM5.94425 11.8462C5.94425 12.271 5.59985 12.6154 5.17502 12.6154C4.75018 12.6154 4.40579 12.271 4.40579 11.8462C4.40579 11.4213 4.75018 11.0769 5.17502 11.0769C5.59985 11.0769 5.94425 11.4213 5.94425 11.8462ZM10.3033 10.0513C10.7282 10.0513 11.0726 9.70692 11.0726 9.28209C11.0726 8.85725 10.7282 8.51286 10.3033 8.51286C9.87849 8.51286 9.5341 8.85725 9.5341 9.28209C9.5341 9.70692 9.87849 10.0513 10.3033 10.0513Z" fill="black"/>
</svg>
