<svg xmlns="http://www.w3.org/2000/svg" width="25" height="24" viewBox="0 0 25 24" fill="none"><rect width="25" height="24" fill="none"/>
<path d="M7.83657 15.7501C7.83657 15.0597 8.39621 14.5001 9.08657 14.5001H9.91992C10.6103 14.5001 11.1699 15.0597 11.1699 15.7501V16.5834C11.1699 17.2738 10.6103 17.8334 9.91992 17.8334H9.08657C8.39622 17.8334 7.83657 17.2738 7.83657 16.5834V15.7501Z" fill="black"/>
<path fill-rule="evenodd" clip-rule="evenodd" d="M7.83664 2C7.3764 2 7.0033 2.3731 7.0033 2.83333V4.50001L7.00333 4.50596C5.0613 5.19234 3.66992 7.04442 3.66992 9.22148V17C3.66992 19.7614 5.90849 22 8.66992 22H15.3367C18.0981 22 20.3367 19.7614 20.3367 17V9.22147C20.3367 7.04442 18.9453 5.19233 17.0033 4.50596L17.0033 4.50001V2.83333C17.0033 2.3731 16.6302 2 16.1699 2C15.7097 2 15.3366 2.3731 15.3366 2.83333V4.22148H8.66998V2.83333C8.66998 2.3731 8.29688 2 7.83664 2ZM15.3367 5.88814H8.66992C7.01796 5.88814 5.64667 7.08984 5.38253 8.66677H18.624C18.3599 7.08984 16.9886 5.88814 15.3367 5.88814ZM18.67 10.3334H5.33663L5.33659 17C5.33659 18.841 6.82897 20.3333 8.66992 20.3333H15.3367C17.1776 20.3333 18.67 18.841 18.67 17V10.3334Z" fill="black"/>
</svg>
