<svg xmlns="http://www.w3.org/2000/svg" width="17" height="17" viewBox="0 0 17 17" fill="none"><rect width="17" height="17" fill="none"/>
<path d="M5.23773 10.5067C5.23773 10.0465 5.61082 9.67337 6.07106 9.67337H6.62663C7.08686 9.67337 7.45996 10.0465 7.45996 10.5067V11.0623C7.45996 11.5225 7.08686 11.8956 6.62663 11.8956H6.07106C5.61082 11.8956 5.23773 11.5225 5.23773 11.0623V10.5067Z" fill="black"/>
<path fill-rule="evenodd" clip-rule="evenodd" d="M5.23777 1.34C4.93095 1.34 4.68222 1.58873 4.68222 1.89555V3.00667L4.68223 3.01064C3.38755 3.46822 2.45996 4.70294 2.45996 6.15431V11.34C2.45996 13.1809 3.95234 14.6733 5.79329 14.6733H10.2378C12.0787 14.6733 13.5711 13.1809 13.5711 11.34V6.15431C13.5711 4.70294 12.6435 3.46822 11.3488 3.01064L11.3489 3.00667V1.89555C11.3489 1.58873 11.1001 1.34 10.7933 1.34C10.4865 1.34 10.2377 1.58873 10.2377 1.89555V2.82098H5.79333V1.89555C5.79333 1.58873 5.5446 1.34 5.23777 1.34ZM10.2378 3.93209H5.79329C4.69199 3.93209 3.7778 4.73322 3.6017 5.78451H12.4294C12.2533 4.73322 11.3391 3.93209 10.2378 3.93209ZM12.46 6.89562H3.5711L3.57107 11.34C3.57107 12.5673 4.56599 13.5622 5.79329 13.5622H10.2378C11.4651 13.5622 12.46 12.5673 12.46 11.34V6.89562Z" fill="black"/>
</svg>
