<svg xmlns="http://www.w3.org/2000/svg" width="25" height="24" viewBox="0 0 25 24" fill="none"><rect width="25" height="24" fill="none"/>
<path fill-rule="evenodd" clip-rule="evenodd" d="M7.83146 2C7.37122 2 6.99813 2.3731 6.99813 2.83333V4.5C6.99813 4.52785 6.99949 4.55538 7.00216 4.58253C5.09829 4.96703 3.66479 6.64944 3.66479 8.66667V17.8333C3.66479 20.1345 5.53027 22 7.83146 22H16.1648C18.466 22 20.3315 20.1345 20.3315 17.8333V8.66667C20.3315 6.64944 18.898 4.96703 16.9941 4.58253C16.9968 4.55538 16.9981 4.52785 16.9981 4.5V2.83333C16.9981 2.3731 16.625 2 16.1648 2C15.7046 2 15.3315 2.3731 15.3315 2.83333V4.5H12.8315V2.83333C12.8315 2.3731 12.4584 2 11.9981 2C11.5379 2 11.1648 2.3731 11.1648 2.83333V4.5H8.66479V2.83333C8.66479 2.3731 8.2917 2 7.83146 2ZM5.33146 8.66667C5.33146 7.28595 6.45075 6.16667 7.83146 6.16667H16.1648C17.5455 6.16667 18.6648 7.28595 18.6648 8.66667V17.8333C18.6648 19.214 17.5455 20.3333 16.1648 20.3333H7.83146C6.45075 20.3333 5.33146 19.214 5.33146 17.8333V8.66667Z" fill="black"/>
</svg>
