<svg xmlns="http://www.w3.org/2000/svg" width="17" height="17" viewBox="0 0 17 17" fill="none"><rect width="17" height="17" fill="none"/>
<path fill-rule="evenodd" clip-rule="evenodd" d="M4.98475 1.34C4.70582 1.34 4.4797 1.56611 4.4797 1.84504V2.87846H4.45996C3.35539 2.87846 2.45996 3.77389 2.45996 4.87846V12.6733C2.45996 13.7779 3.35539 14.6733 4.45996 14.6733H11.5711C12.6756 14.6733 13.5711 13.7779 13.5711 12.6733V6.61781L2.46009 6.6178L2.46009 5.78447L13.5711 5.78447V4.87846C13.5711 3.81402 12.7395 2.9438 11.6906 2.88197L11.6906 2.87844V1.85281C11.6906 1.56959 11.461 1.34 11.1778 1.34C10.8946 1.34 10.665 1.56959 10.665 1.85281V2.87844V2.87846H5.48979V1.84504C5.48979 1.56611 5.26367 1.34 4.98475 1.34ZM5.96427 9.28874C5.96427 9.71357 5.61987 10.058 5.19504 10.058C4.7702 10.058 4.4258 9.71357 4.4258 9.28874C4.4258 8.86391 4.7702 8.51951 5.19504 8.51951C5.61987 8.51951 5.96427 8.86391 5.96427 9.28874ZM7.75893 10.058C8.18377 10.058 8.52816 9.71357 8.52816 9.28874C8.52816 8.86391 8.18377 8.51951 7.75893 8.51951C7.3341 8.51951 6.9897 8.86391 6.9897 9.28874C6.9897 9.71357 7.3341 10.058 7.75893 10.058ZM5.96427 11.8528C5.96427 12.2776 5.61987 12.622 5.19504 12.622C4.7702 12.622 4.4258 12.2776 4.4258 11.8528C4.4258 11.428 4.7702 11.0836 5.19504 11.0836C5.61987 11.0836 5.96427 11.428 5.96427 11.8528ZM10.3233 10.058C10.7482 10.058 11.0926 9.71357 11.0926 9.28874C11.0926 8.86391 10.7482 8.51951 10.3233 8.51951C9.89851 8.51951 9.55412 8.86391 9.55412 9.28874C9.55412 9.71357 9.89851 10.058 10.3233 10.058Z" fill="black"/>
</svg>
