<svg xmlns="http://www.w3.org/2000/svg" width="24" height="24" viewBox="0 0 24 24" fill="none"><rect width="24" height="24" fill="none"/>
<path d="M7.83755 15.7501C7.83755 15.0597 8.39719 14.5001 9.08755 14.5001H9.92089C10.6113 14.5001 11.1709 15.0597 11.1709 15.7501V16.5834C11.1709 17.2738 10.6113 17.8334 9.9209 17.8334H9.08755C8.39719 17.8334 7.83755 17.2738 7.83755 16.5834V15.7501Z" fill="black"/>
<path fill-rule="evenodd" clip-rule="evenodd" d="M7.83762 2C7.37738 2 7.00428 2.3731 7.00428 2.83333V4.50001L7.0043 4.50596C5.06228 5.19234 3.6709 7.04442 3.6709 9.22148V17C3.6709 19.7614 5.90947 22 8.67089 22H15.3376C18.0991 22 20.3376 19.7614 20.3376 17V9.22147C20.3376 7.04442 18.9463 5.19233 17.0042 4.50596L17.0043 4.50001V2.83333C17.0043 2.3731 16.6312 2 16.1709 2C15.7107 2 15.3376 2.3731 15.3376 2.83333V4.22148H8.67096V2.83333C8.67096 2.3731 8.29786 2 7.83762 2ZM15.3376 5.88814H8.6709C7.01894 5.88814 5.64765 7.08984 5.38351 8.66677H18.625C18.3609 7.08984 16.9896 5.88814 15.3376 5.88814ZM18.671 10.3334H5.3376V10.3334L5.33756 17C5.33756 18.841 6.82995 20.3333 8.67089 20.3333H15.3376C17.1786 20.3333 18.671 18.841 18.671 17V10.3334Z" fill="black"/>
</svg>
