<svg xmlns="http://www.w3.org/2000/svg" width="17" height="17" viewBox="0 0 17 17" fill="none"><rect width="17" height="17" fill="none"/>
<path fill-rule="evenodd" clip-rule="evenodd" d="M5.23774 1.34C4.93091 1.34 4.68218 1.58873 4.68218 1.89555V3.00666C4.68218 3.02523 4.68309 3.04358 4.68487 3.06168C3.41562 3.31802 2.45996 4.43963 2.45996 5.78444V11.8956C2.45996 13.4297 3.70361 14.6733 5.23774 14.6733H10.7933C12.3274 14.6733 13.5711 13.4297 13.5711 11.8956V5.78444C13.5711 4.43962 12.6154 3.31802 11.3462 3.06168C11.3479 3.04359 11.3488 3.02523 11.3488 3.00666V1.89555C11.3488 1.58873 11.1001 1.34 10.7933 1.34C10.4865 1.34 10.2377 1.58873 10.2377 1.89555V3.00666H8.57107V1.89555C8.57107 1.58873 8.32234 1.34 8.01552 1.34C7.70869 1.34 7.45996 1.58873 7.45996 1.89555V3.00666H5.79329V1.89555C5.79329 1.58873 5.54456 1.34 5.23774 1.34ZM3.57107 5.78444C3.57107 4.86397 4.31726 4.11777 5.23774 4.11777H10.7933C11.7138 4.11777 12.46 4.86397 12.46 5.78444V11.8956C12.46 12.816 11.7138 13.5622 10.7933 13.5622H5.23774C4.31726 13.5622 3.57107 12.816 3.57107 11.8956V5.78444Z" fill="black"/>
</svg>
