<svg xmlns="http://www.w3.org/2000/svg" width="25" height="24" viewBox="0 0 25 24" fill="none"><rect width="25" height="24" fill="none"/>
<path fill-rule="evenodd" clip-rule="evenodd" d="M22.0049 12C22.0049 17.5228 17.5277 22 12.0049 22C6.48204 22 2.00488 17.5228 2.00488 12C2.00488 6.47715 6.48204 2 12.0049 2C17.5277 2 22.0049 6.47715 22.0049 12ZM19.7826 11.9999C19.7826 16.2954 16.3003 19.7777 12.0048 19.7777C10.4108 19.7777 8.92882 19.2982 7.69519 18.4756L18.4804 7.69031C19.3031 8.92393 19.7826 10.4059 19.7826 11.9999ZM16.995 6.03378C15.6444 4.90291 13.9041 4.22212 12.0048 4.22212C7.70924 4.22212 4.22701 7.70435 4.22701 11.9999C4.22701 13.8992 4.90779 15.6395 6.03866 16.9901L16.995 6.03378Z" fill="black"/>
</svg>
