<svg xmlns="http://www.w3.org/2000/svg" width="16" height="16" viewBox="0 0 16 16" fill="none"><rect width="16" height="16" fill="none"/>
<path fill-rule="evenodd" clip-rule="evenodd" d="M14.6666 8.00001C14.6666 11.6819 11.6818 14.6667 7.99992 14.6667C4.31802 14.6667 1.33325 11.6819 1.33325 8.00001C1.33325 4.31811 4.31802 1.33334 7.99992 1.33334C11.6818 1.33334 14.6666 4.31811 14.6666 8.00001ZM13.185 7.99994C13.185 10.8636 10.8636 13.1851 7.99985 13.1851C6.9372 13.1851 5.94921 12.8655 5.12679 12.317L12.317 5.12688C12.8654 5.9493 13.185 6.93729 13.185 7.99994ZM11.3267 4.02253C10.4263 3.26862 9.26606 2.81476 7.99985 2.81476C5.13615 2.81476 2.81467 5.13625 2.81467 7.99994C2.81467 9.26615 3.26853 10.4264 4.02244 11.3267L11.3267 4.02253Z" fill="black"/>
</svg>
