<svg xmlns="http://www.w3.org/2000/svg" width="17" height="17" viewBox="0 0 17 17" fill="none"><rect width="17" height="17" fill="none"/>
<path fill-rule="evenodd" clip-rule="evenodd" d="M14.6834 9.00166C14.6834 12.6836 11.6987 15.6683 8.01676 15.6683C4.33487 15.6683 1.3501 12.6836 1.3501 9.00166C1.3501 5.31976 4.33487 2.33499 8.01676 2.33499C11.6987 2.33499 14.6834 5.31976 14.6834 9.00166ZM13.2019 9.00159C13.2019 11.8653 10.8804 14.1868 8.0167 14.1868C6.95404 14.1868 5.96605 13.8671 5.14364 13.3187L12.3338 6.12853C12.8822 6.95095 13.2019 7.93894 13.2019 9.00159ZM11.3435 5.02418C10.4431 4.27027 9.28291 3.81641 8.0167 3.81641C5.153 3.81641 2.83151 6.13789 2.83151 9.00159C2.83151 10.2678 3.28537 11.428 4.03928 12.3284L11.3435 5.02418Z" fill="black"/>
</svg>
