<svg xmlns="http://www.w3.org/2000/svg" width="25" height="24" viewBox="0 0 25 24" fill="none"><rect width="25" height="24" fill="none"/>
<path fill-rule="evenodd" clip-rule="evenodd" d="M2.2515 7.14416C1.22209 7.54462 0.712219 8.70377 1.11269 9.73319L1.13049 9.77897V20.821C1.13049 21.9256 2.02593 22.821 3.1305 22.821H22.8869C23.9914 22.821 24.8869 21.9256 24.8869 20.821V8.98343C24.8869 7.87886 23.9914 6.98343 22.8869 6.98343H22.3105L22.3105 6.9834H2.66475L2.2515 7.14416ZM7.75364 5.0037H21.5403L20.4532 2.20927C20.0528 1.17986 18.8936 0.669991 17.8642 1.07046L7.75364 5.0037ZM13.0087 18.8613C15.1954 18.8613 16.9681 17.0886 16.9681 14.9019C16.9681 12.7152 15.1954 10.9425 13.0087 10.9425C10.822 10.9425 9.04929 12.7152 9.04929 14.9019C9.04929 17.0886 10.822 18.8613 13.0087 18.8613Z" fill="black"/>
</svg>
