<svg xmlns="http://www.w3.org/2000/svg" width="25" height="24" viewBox="0 0 25 24" fill="none"><rect width="25" height="24" fill="none"/>
<path fill-rule="evenodd" clip-rule="evenodd" d="M3.33036 7.87971C2.4212 8.2334 1.91729 9.17887 2.08784 10.1041V19.1111C2.08784 20.2156 2.98327 21.1111 4.08784 21.1111H19.9587C21.0632 21.1111 21.9587 20.2156 21.9587 19.1111V9.86385C21.9587 8.75928 21.0633 7.86385 19.9587 7.86385L3.37123 7.86382L3.33036 7.87971ZM12.0232 17.799C13.8523 17.799 15.335 16.3163 15.335 14.4872C15.335 12.6582 13.8523 11.1754 12.0232 11.1754C10.1941 11.1754 8.71138 12.6582 8.71138 14.4872C8.71138 16.3163 10.1941 17.799 12.0232 17.799Z" fill="black"/>
<path d="M7.62779 6.20791H19.1595L18.3688 4.17542C17.9683 3.146 16.8092 2.63614 15.7798 3.03661L7.62779 6.20791Z" fill="black"/>
</svg>
