<svg xmlns="http://www.w3.org/2000/svg" width="16" height="16" viewBox="0 0 16 16" fill="none"><rect width="16" height="16" fill="none"/>
<path fill-rule="evenodd" clip-rule="evenodd" d="M9.38904 2.66667C9.23563 2.66667 9.11127 2.79104 9.11127 2.94445V3.44709C9.11127 3.60051 9.23563 3.72487 9.38904 3.72487H10.2224V4.78331H4.61999C4.0382 4.78331 3.55492 5.23209 3.51192 5.81229L3.15362 10.6464H12.8463L12.488 5.81229C12.445 5.23209 11.9617 4.78331 11.3799 4.78331H10.7779V3.72487H11.6113C11.7647 3.72487 11.889 3.60051 11.889 3.44709V2.94445C11.889 2.79104 11.7647 2.66667 11.6113 2.66667H9.38904ZM5.22222 6.27122C4.91539 6.27122 4.66666 6.51995 4.66666 6.82677V8.19582C4.66666 8.50264 4.91539 8.75138 5.22222 8.75138H6.88888C7.19571 8.75138 7.44444 8.50264 7.44444 8.19582V6.82677C7.44444 6.51995 7.19571 6.27122 6.88888 6.27122H5.22222ZM8.55553 6.54899C8.55553 6.39558 8.67989 6.27122 8.83331 6.27122H9.38886C9.54227 6.27122 9.66664 6.39558 9.66664 6.54899V6.9855C9.66664 7.13892 9.54227 7.26328 9.38886 7.26328H8.83331C8.67989 7.26328 8.55553 7.13892 8.55553 6.9855V6.54899ZM8.83331 7.75955C8.67989 7.75955 8.55553 7.88392 8.55553 8.03733V8.47384C8.55553 8.62725 8.67989 8.75161 8.83331 8.75161H9.38886C9.54227 8.75161 9.66664 8.62725 9.66664 8.47384V8.03733C9.66664 7.88392 9.54227 7.75955 9.38886 7.75955H8.83331ZM10.2222 6.54899C10.2222 6.39558 10.3466 6.27122 10.5 6.27122H11.0555C11.2089 6.27122 11.3333 6.39558 11.3333 6.54899V6.9855C11.3333 7.13892 11.2089 7.26328 11.0555 7.26328H10.5C10.3466 7.26328 10.2222 7.13892 10.2222 6.9855V6.54899ZM10.5 7.75955C10.3466 7.75955 10.2222 7.88392 10.2222 8.03733V8.47384C10.2222 8.62725 10.3466 8.75161 10.5 8.75161H11.0555C11.2089 8.75161 11.3333 8.62725 11.3333 8.47384V8.03733C11.3333 7.88392 11.2089 7.75955 11.0555 7.75955H10.5Z" fill="black"/>
<path d="M1.88905 11.6613C1.58223 11.6613 1.3335 11.91 1.3335 12.2168V13.2221C1.3335 13.529 1.58223 13.7777 1.88905 13.7777H14.1113C14.4181 13.7777 14.6668 13.529 14.6668 13.2221V12.2168C14.6668 11.91 14.4181 11.6613 14.1113 11.6613H1.88905Z" fill="black"/>
</svg>
