<svg xmlns="http://www.w3.org/2000/svg" width="25" height="24" viewBox="0 0 25 24" fill="none"><rect width="25" height="24" fill="none"/>
<path fill-rule="evenodd" clip-rule="evenodd" d="M14.0843 4C13.8542 4 13.6676 4.18655 13.6676 4.41667V5.17063C13.6676 5.40075 13.8542 5.5873 14.0843 5.5873H15.3343V7.17495H6.93072C6.05803 7.17495 5.33311 7.84813 5.26861 8.71843L4.73117 15.9696H19.2701L18.7327 8.71843C18.6682 7.84813 17.9433 7.17495 17.0706 7.17495H16.1676V5.5873H17.4176C17.6478 5.5873 17.8343 5.40075 17.8343 5.17063V4.41667C17.8343 4.18655 17.6478 4 17.4176 4H14.0843ZM7.83406 9.40682C7.37382 9.40682 7.00073 9.77991 7.00073 10.2402V12.2937C7.00073 12.754 7.37382 13.1271 7.83406 13.1271H10.3341C10.7943 13.1271 11.1674 12.754 11.1674 12.2937V10.2402C11.1674 9.77991 10.7943 9.40682 10.3341 9.40682H7.83406ZM12.834 9.82348C12.834 9.59337 13.0206 9.40682 13.2507 9.40682H14.084C14.3141 9.40682 14.5007 9.59337 14.5007 9.82348V10.4782C14.5007 10.7084 14.3141 10.8949 14.084 10.8949H13.2507C13.0206 10.8949 12.834 10.7084 12.834 10.4782V9.82348ZM13.2507 11.6393C13.0206 11.6393 12.834 11.8259 12.834 12.056V12.7107C12.834 12.9409 13.0206 13.1274 13.2507 13.1274H14.084C14.3141 13.1274 14.5007 12.9409 14.5007 12.7107V12.056C14.5007 11.8259 14.3141 11.6393 14.084 11.6393H13.2507ZM15.334 9.82348C15.334 9.59337 15.5206 9.40682 15.7507 9.40682H16.584C16.8141 9.40682 17.0007 9.59337 17.0007 9.82348V10.4782C17.0007 10.7084 16.8141 10.8949 16.584 10.8949H15.7507C15.5206 10.8949 15.334 10.7084 15.334 10.4782V9.82348ZM15.7507 11.6393C15.5206 11.6393 15.334 11.8259 15.334 12.056V12.7107C15.334 12.9409 15.5206 13.1274 15.7507 13.1274H16.584C16.8141 13.1274 17.0007 12.9409 17.0007 12.7107V12.056C17.0007 11.8259 16.8141 11.6393 16.584 11.6393H15.7507Z" fill="black"/>
<path d="M2.83431 17.4919C2.37407 17.4919 2.00098 17.865 2.00098 18.3253V19.8332C2.00098 20.2934 2.37407 20.6665 2.83431 20.6665H21.1676C21.6279 20.6665 22.001 20.2934 22.001 19.8332V18.3253C22.001 17.865 21.6279 17.4919 21.1676 17.4919H2.83431Z" fill="black"/>
</svg>
