<svg xmlns="http://www.w3.org/2000/svg" width="24" height="24" viewBox="0 0 24 24" fill="none"><rect width="24" height="24" fill="none"/>
<path fill-rule="evenodd" clip-rule="evenodd" d="M3.2764 7.97967C2.36724 8.33336 1.86333 9.27883 2.03389 10.2041V19.211C2.03389 20.3156 2.92932 21.211 4.03389 21.211H19.9047C21.0093 21.211 21.9047 20.3156 21.9047 19.211V9.96381C21.9047 8.85924 21.0093 7.96381 19.9047 7.96381L3.31727 7.96378L3.2764 7.97967ZM11.9692 17.899C13.7983 17.899 15.281 16.4162 15.281 14.5872C15.281 12.7581 13.7983 11.2754 11.9692 11.2754C10.1402 11.2754 8.65743 12.7581 8.65743 14.5872C8.65743 16.4162 10.1402 17.899 11.9692 17.899Z" fill="black"/>
<path d="M7.57384 6.30787H19.1055L18.3148 4.27538C17.9144 3.24596 16.7552 2.7361 15.7258 3.13657L7.57384 6.30787Z" fill="black"/>
</svg>
