<svg xmlns="http://www.w3.org/2000/svg" width="17" height="16" viewBox="0 0 17 16" fill="none"><rect width="17" height="16" fill="none"/>
<path fill-rule="evenodd" clip-rule="evenodd" d="M9.39539 2.45C9.24198 2.45 9.11761 2.57437 9.11761 2.72778V3.23042C9.11761 3.38384 9.24198 3.5082 9.39539 3.5082H10.2287V4.56664H4.62634C4.04455 4.56664 3.56127 5.01542 3.51826 5.59562L3.15997 10.4297H12.8526L12.4943 5.59562C12.4513 5.01542 11.968 4.56664 11.3863 4.56664H10.7843V3.5082H11.6176C11.771 3.5082 11.8954 3.38384 11.8954 3.23042V2.72778C11.8954 2.57437 11.771 2.45 11.6176 2.45H9.39539ZM5.22857 6.05454C4.92174 6.05454 4.67301 6.30328 4.67301 6.6101V7.97915C4.67301 8.28597 4.92174 8.5347 5.22857 8.5347H6.89523C7.20206 8.5347 7.45079 8.28597 7.45079 7.97915V6.6101C7.45079 6.30328 7.20206 6.05454 6.89523 6.05454H5.22857ZM8.56188 6.33232C8.56188 6.17891 8.68624 6.05454 8.83965 6.05454H9.39521C9.54862 6.05454 9.67299 6.17891 9.67299 6.33232V6.76883C9.67299 6.92224 9.54862 7.04661 9.39521 7.04661H8.83965C8.68624 7.04661 8.56188 6.92224 8.56188 6.76883V6.33232ZM8.83965 7.54288C8.68624 7.54288 8.56188 7.66724 8.56188 7.82066V8.25716C8.56188 8.41058 8.68624 8.53494 8.83965 8.53494H9.39521C9.54862 8.53494 9.67299 8.41058 9.67299 8.25716V7.82066C9.67299 7.66724 9.54862 7.54288 9.39521 7.54288H8.83965ZM10.2285 6.33232C10.2285 6.17891 10.3529 6.05454 10.5063 6.05454H11.0619C11.2153 6.05454 11.3397 6.17891 11.3397 6.33232V6.76883C11.3397 6.92224 11.2153 7.04661 11.0619 7.04661H10.5063C10.3529 7.04661 10.2285 6.92224 10.2285 6.76883V6.33232ZM10.5063 7.54288C10.3529 7.54288 10.2285 7.66724 10.2285 7.82066V8.25716C10.2285 8.41058 10.3529 8.53494 10.5063 8.53494H11.0619C11.2153 8.53494 11.3397 8.41058 11.3397 8.25716V7.82066C11.3397 7.66724 11.2153 7.54288 11.0619 7.54288H10.5063Z" fill="black"/>
<path d="M1.8954 11.4446C1.58857 11.4446 1.33984 11.6933 1.33984 12.0002V13.0055C1.33984 13.3123 1.58857 13.561 1.8954 13.561H14.1176C14.4244 13.561 14.6732 13.3123 14.6732 13.0055V12.0002C14.6732 11.6933 14.4244 11.4446 14.1176 11.4446H1.8954Z" fill="black"/>
</svg>
