<svg xmlns="http://www.w3.org/2000/svg" width="17" height="17" viewBox="0 0 17 17" fill="none"><rect width="17" height="17" fill="none"/>
<path fill-rule="evenodd" clip-rule="evenodd" d="M2.21503 5.2547C1.60892 5.49049 1.27298 6.1208 1.38669 6.73761V12.7423C1.38669 13.4786 1.98364 14.0756 2.72002 14.0756H13.3006C14.037 14.0756 14.6339 13.4786 14.6339 12.7423V6.57745C14.6339 5.84107 14.037 5.24412 13.3006 5.24412L2.24228 5.2441L2.21503 5.2547ZM8.01025 11.8676C9.22963 11.8676 10.2181 10.8791 10.2181 9.6597C10.2181 8.44033 9.22963 7.45183 8.01025 7.45183C6.79088 7.45183 5.80238 8.44033 5.80238 9.6597C5.80238 10.8791 6.79088 11.8676 8.01025 11.8676Z" fill="black"/>
<path d="M5.07999 4.14016H12.7678L12.2407 2.78517C11.9737 2.09889 11.2009 1.75898 10.5146 2.02596L5.07999 4.14016Z" fill="black"/>
</svg>
