<svg xmlns="http://www.w3.org/2000/svg" width="16" height="16" viewBox="0 0 16 16" fill="none"><rect width="16" height="16" fill="none"/>
<path fill-rule="evenodd" clip-rule="evenodd" d="M2.18354 5.31977C1.57743 5.55556 1.24149 6.18587 1.35519 6.80269V12.8073C1.35519 13.5437 1.95215 14.1407 2.68853 14.1407H13.2691C14.0055 14.1407 14.6024 13.5437 14.6024 12.8073V6.64252C14.6024 5.90614 14.0055 5.30919 13.2691 5.30919L2.21078 5.30917L2.18354 5.31977ZM7.97876 11.9326C9.19813 11.9326 10.1866 10.9441 10.1866 9.72477C10.1866 8.5054 9.19813 7.5169 7.97876 7.5169C6.75938 7.5169 5.77089 8.5054 5.77089 9.72477C5.77089 10.9441 6.75938 11.9326 7.97876 11.9326Z" fill="black"/>
<path d="M5.04849 4.20523H12.7363L12.2092 2.85024C11.9422 2.16396 11.1694 1.82405 10.4831 2.09103L5.04849 4.20523Z" fill="black"/>
</svg>
