<svg xmlns="http://www.w3.org/2000/svg" width="24" height="24" viewBox="0 0 24 24" fill="none"><rect width="24" height="24" fill="none"/>
<path fill-rule="evenodd" clip-rule="evenodd" d="M14.5 2C14.2238 2 14 2.22386 14 2.5V3.40476C14 3.6809 14.2238 3.90476 14.5 3.90476H16V5.80994H5.91569C4.86847 5.80994 3.99856 6.61776 3.92116 7.66212L3.27623 16.3635H20.723L20.0781 7.66211C20.0007 6.61776 19.1308 5.80994 18.0835 5.80994H17V3.90476H18.5C18.7761 3.90476 19 3.6809 19 3.40476V2.5C19 2.22386 18.7761 2 18.5 2H14.5ZM6.9997 8.48818C6.44742 8.48818 5.9997 8.9359 5.9997 9.48818V11.9525C5.9997 12.5048 6.44742 12.9525 6.9997 12.9525H9.9997C10.552 12.9525 10.9997 12.5048 10.9997 11.9525V9.48818C10.9997 8.9359 10.552 8.48818 9.9997 8.48818H6.9997ZM12.9997 8.98818C12.9997 8.71204 13.2235 8.48818 13.4997 8.48818H14.4997C14.7758 8.48818 14.9997 8.71204 14.9997 8.98818V9.7739C14.9997 10.05 14.7758 10.2739 14.4997 10.2739H13.4997C13.2235 10.2739 12.9997 10.05 12.9997 9.7739V8.98818ZM13.4997 11.1672C13.2235 11.1672 12.9997 11.391 12.9997 11.6672V12.4529C12.9997 12.729 13.2235 12.9529 13.4997 12.9529H14.4997C14.7758 12.9529 14.9997 12.729 14.9997 12.4529V11.6672C14.9997 11.391 14.7758 11.1672 14.4997 11.1672H13.4997ZM15.9997 8.98818C15.9997 8.71204 16.2235 8.48818 16.4997 8.48818H17.4997C17.7758 8.48818 17.9997 8.71204 17.9997 8.98818V9.7739C17.9997 10.05 17.7758 10.2739 17.4997 10.2739H16.4997C16.2235 10.2739 15.9997 10.05 15.9997 9.7739V8.98818ZM16.4997 11.1672C16.2235 11.1672 15.9997 11.391 15.9997 11.6672V12.4529C15.9997 12.729 16.2235 12.9529 16.4997 12.9529H17.4997C17.7758 12.9529 17.9997 12.729 17.9997 12.4529V11.6672C17.9997 11.391 17.7758 11.1672 17.4997 11.1672H16.4997Z" fill="black"/>
<path d="M1 18.1903C0.447715 18.1903 0 18.638 0 19.1903V20.9998C0 21.5521 0.447716 21.9998 1 21.9998H23C23.5523 21.9998 24 21.5521 24 20.9998V19.1903C24 18.638 23.5523 18.1903 23 18.1903H1Z" fill="black"/>
</svg>
