<svg xmlns="http://www.w3.org/2000/svg" width="25" height="25" viewBox="0 0 25 25" fill="none"><rect width="25" height="25" fill="none"/>
<path fill-rule="evenodd" clip-rule="evenodd" d="M14.0882 3.66501C13.8581 3.66501 13.6715 3.85156 13.6715 4.08168V4.83564C13.6715 5.06576 13.8581 5.25231 14.0882 5.25231H15.3382V6.83996H6.93462C6.06194 6.83996 5.33702 7.51314 5.27251 8.38344L4.73508 15.6346H19.274L18.7366 8.38344C18.6721 7.51314 17.9472 6.83996 17.0745 6.83996H16.1715V5.25231H17.4215C17.6517 5.25231 17.8382 5.06576 17.8382 4.83564V4.08168C17.8382 3.85156 17.6517 3.66501 17.4215 3.66501H14.0882ZM7.83797 9.07183C7.37773 9.07183 7.00463 9.44492 7.00463 9.90516V11.9587C7.00463 12.419 7.37773 12.7921 7.83797 12.7921H10.338C10.7982 12.7921 11.1713 12.419 11.1713 11.9587V9.90516C11.1713 9.44492 10.7982 9.07183 10.338 9.07183H7.83797ZM12.8379 9.48849C12.8379 9.25837 13.0245 9.07183 13.2546 9.07183H14.0879C14.3181 9.07183 14.5046 9.25837 14.5046 9.48849V10.1433C14.5046 10.3734 14.3181 10.5599 14.0879 10.5599H13.2546C13.0245 10.5599 12.8379 10.3734 12.8379 10.1433V9.48849ZM13.2546 11.3043C13.0245 11.3043 12.8379 11.4909 12.8379 11.721V12.3758C12.8379 12.6059 13.0245 12.7924 13.2546 12.7924H14.0879C14.3181 12.7924 14.5046 12.6059 14.5046 12.3758V11.721C14.5046 11.4909 14.3181 11.3043 14.0879 11.3043H13.2546ZM15.3379 9.48849C15.3379 9.25837 15.5245 9.07183 15.7546 9.07183H16.5879C16.818 9.07183 17.0046 9.25837 17.0046 9.48849V10.1433C17.0046 10.3734 16.818 10.5599 16.5879 10.5599H15.7546C15.5245 10.5599 15.3379 10.3734 15.3379 10.1433V9.48849ZM15.7546 11.3043C15.5245 11.3043 15.3379 11.4909 15.3379 11.721V12.3758C15.3379 12.6059 15.5245 12.7924 15.7546 12.7924H16.5879C16.818 12.7924 17.0046 12.6059 17.0046 12.3758V11.721C17.0046 11.4909 16.818 11.3043 16.5879 11.3043H15.7546Z" fill="black"/>
<path d="M2.83822 17.1569C2.37798 17.1569 2.00488 17.53 2.00488 17.9903V19.4982C2.00488 19.9584 2.37798 20.3315 2.83822 20.3315H21.1715C21.6318 20.3315 22.0049 19.9584 22.0049 19.4982V17.9903C22.0049 17.53 21.6318 17.1569 21.1715 17.1569H2.83822Z" fill="black"/>
</svg>
