<svg xmlns="http://www.w3.org/2000/svg" width="17" height="17" viewBox="0 0 17 17" fill="none"><rect width="17" height="17" fill="none"/>
<path d="M4.90029 1.34V4.89556H1.34473L4.90029 1.34Z" fill="black"/>
<path fill-rule="evenodd" clip-rule="evenodd" d="M10.2461 14.1211L10.927 11.3896C10.5021 10.9851 10.2337 10.4162 10.2337 9.78422C10.2337 8.55932 11.231 7.56199 12.4559 7.56199C13.6808 7.56199 14.6781 8.55932 14.6781 9.78422C14.6781 10.4162 14.4097 10.9851 13.9848 11.3896L14.6657 14.1211C14.7075 14.2891 14.647 14.4669 14.5119 14.5762C14.3768 14.6847 14.1901 14.7033 14.0355 14.6269L12.4559 13.8367L10.8773 14.6269C10.8141 14.6571 10.7457 14.6731 10.6781 14.6731C10.5795 14.6731 10.4808 14.6402 10.3999 14.5762C10.2648 14.4669 10.2044 14.29 10.2461 14.1211ZM12.4559 11.1176C13.191 11.1176 13.7893 10.5193 13.7893 9.78422C13.7893 9.0491 13.191 8.45088 12.4559 8.45088C11.7208 8.45088 11.1226 9.0491 11.1226 9.78422C11.1226 10.5193 11.7208 11.1176 12.4559 11.1176Z" fill="black"/>
<path fill-rule="evenodd" clip-rule="evenodd" d="M5.78941 4.89556C5.78941 5.38534 5.3903 5.78445 4.90052 5.78445H1.34495V12.8956C1.34495 13.3862 1.74317 13.7845 2.23384 13.7845H9.41431L9.95297 11.6254C9.55831 11.0947 9.34497 10.4565 9.34497 9.78446C9.34497 8.2209 10.5076 6.93646 12.0116 6.71868V2.22889C12.0116 1.73911 11.6125 1.34 11.1228 1.34H5.78941V4.89556ZM10.2339 4.45112C10.2339 4.69645 10.0348 4.89556 9.78942 4.89556H7.12274C6.87741 4.89556 6.6783 4.69645 6.6783 4.45112C6.6783 4.20578 6.87741 4.00667 7.12274 4.00667H9.78942C10.0348 4.00667 10.2339 4.20578 10.2339 4.45112ZM8.45608 9.78446C8.45608 10.0298 8.25697 10.2289 8.01164 10.2289H3.56718C3.32184 10.2289 3.12273 10.0298 3.12273 9.78446C3.12273 9.53913 3.32184 9.34002 3.56718 9.34002H8.01164C8.25697 9.34002 8.45608 9.53913 8.45608 9.78446ZM8.90053 7.56223H3.56718C3.32184 7.56223 3.12273 7.36312 3.12273 7.11779C3.12273 6.87246 3.32184 6.67334 3.56718 6.67334H8.90053C9.14586 6.67334 9.34497 6.87246 9.34497 7.11779C9.34497 7.36312 9.14586 7.56223 8.90053 7.56223Z" fill="black"/>
</svg>
