<svg xmlns="http://www.w3.org/2000/svg" width="16" height="16" viewBox="0 0 16 16" fill="none"><rect width="16" height="16" fill="none"/>
<path d="M4.88906 1.33334V4.88891H1.3335L4.88906 1.33334Z" fill="black"/>
<path fill-rule="evenodd" clip-rule="evenodd" d="M10.2349 14.1145L10.9158 11.3829C10.4909 10.9785 10.2225 10.4096 10.2225 9.77756C10.2225 8.55267 11.2198 7.55534 12.4447 7.55534C13.6696 7.55534 14.6669 8.55267 14.6669 9.77756C14.6669 10.4096 14.3985 10.9785 13.9736 11.3829L14.6545 14.1145C14.6963 14.2825 14.6358 14.4602 14.5007 14.5696C14.3656 14.678 14.1789 14.6967 14.0243 14.6202L12.4447 13.83L10.866 14.6202C10.8029 14.6505 10.7345 14.6665 10.6669 14.6665C10.5682 14.6665 10.4696 14.6336 10.3887 14.5696C10.2536 14.4602 10.1931 14.2834 10.2349 14.1145ZM12.4447 11.1109C13.1798 11.1109 13.778 10.5127 13.778 9.77756C13.778 9.04245 13.1798 8.44423 12.4447 8.44423C11.7096 8.44423 11.1114 9.04245 11.1114 9.77756C11.1114 10.5127 11.7096 11.1109 12.4447 11.1109Z" fill="black"/>
<path fill-rule="evenodd" clip-rule="evenodd" d="M5.77818 4.88891C5.77818 5.37869 5.37906 5.7778 4.88929 5.7778H1.33372V12.8889C1.33372 13.3796 1.73194 13.7778 2.22261 13.7778H9.40308L9.94174 11.6187C9.54708 11.088 9.33374 10.4498 9.33374 9.77781C9.33374 8.21425 10.4964 6.9298 12.0004 6.71202V2.22223C12.0004 1.73246 11.6013 1.33334 11.1115 1.33334H5.77818V4.88891ZM10.2226 4.44446C10.2226 4.6898 10.0235 4.88891 9.77819 4.88891H7.11151C6.86618 4.88891 6.66707 4.6898 6.66707 4.44446C6.66707 4.19913 6.86618 4.00002 7.11151 4.00002H9.77819C10.0235 4.00002 10.2226 4.19913 10.2226 4.44446ZM8.44485 9.77781C8.44485 10.0231 8.24574 10.2223 8.00041 10.2223H3.55595C3.31061 10.2223 3.1115 10.0231 3.1115 9.77781C3.1115 9.53248 3.31061 9.33336 3.55595 9.33336H8.00041C8.24574 9.33336 8.44485 9.53248 8.44485 9.77781ZM8.8893 7.55558H3.55595C3.31061 7.55558 3.1115 7.35647 3.1115 7.11114C3.1115 6.8658 3.31061 6.66669 3.55595 6.66669H8.8893C9.13463 6.66669 9.33374 6.8658 9.33374 7.11114C9.33374 7.35647 9.13463 7.55558 8.8893 7.55558Z" fill="black"/>
</svg>
