<svg xmlns="http://www.w3.org/2000/svg" width="25" height="24" viewBox="0 0 25 24" fill="none"><rect width="25" height="24" fill="none"/>
<path d="M7.33822 2V7.33335H2.00488L7.33822 2Z" fill="black"/>
<path fill-rule="evenodd" clip-rule="evenodd" d="M15.357 21.1717L16.3783 17.0743C15.741 16.4677 15.3383 15.6143 15.3383 14.6663C15.3383 12.829 16.8343 11.333 18.6717 11.333C20.509 11.333 22.005 12.829 22.005 14.6663C22.005 15.6143 21.6024 16.4677 20.965 17.0743L21.9864 21.1717C22.049 21.4237 21.9584 21.6903 21.7557 21.8544C21.553 22.017 21.273 22.045 21.041 21.9303L18.6717 20.745L16.3037 21.9303C16.209 21.9757 16.1063 21.9997 16.005 21.9997C15.857 21.9997 15.709 21.9504 15.5877 21.8544C15.385 21.6903 15.2943 21.425 15.357 21.1717ZM18.6717 16.6663C19.7743 16.6663 20.6717 15.769 20.6717 14.6663C20.6717 13.5637 19.7743 12.6663 18.6717 12.6663C17.569 12.6663 16.6717 13.5637 16.6717 14.6663C16.6717 15.769 17.569 16.6663 18.6717 16.6663Z" fill="black"/>
<path fill-rule="evenodd" clip-rule="evenodd" d="M8.6719 7.33335C8.6719 8.06802 8.07324 8.66668 7.33857 8.66668H2.00522V19.3334C2.00522 20.0694 2.60255 20.6667 3.33856 20.6667H14.1093L14.9173 17.428C14.3253 16.632 14.0053 15.6747 14.0053 14.6667C14.0053 12.3214 15.7493 10.3947 18.0053 10.068V3.33334C18.0053 2.59867 17.4066 2 16.6719 2H8.6719V7.33335ZM15.3386 6.66668C15.3386 7.03468 15.0399 7.33335 14.6719 7.33335H10.6719C10.3039 7.33335 10.0052 7.03468 10.0052 6.66668C10.0052 6.29868 10.3039 6.00001 10.6719 6.00001H14.6719C15.0399 6.00001 15.3386 6.29868 15.3386 6.66668ZM12.6719 14.6667C12.6719 15.0347 12.3732 15.3334 12.0052 15.3334H5.33856C4.97056 15.3334 4.67189 15.0347 4.67189 14.6667C4.67189 14.2987 4.97056 14 5.33856 14H12.0052C12.3732 14 12.6719 14.2987 12.6719 14.6667ZM13.3386 11.3334H5.33856C4.97056 11.3334 4.67189 11.0347 4.67189 10.6667C4.67189 10.2987 4.97056 10 5.33856 10H13.3386C13.7066 10 14.0053 10.2987 14.0053 10.6667C14.0053 11.0347 13.7066 11.3334 13.3386 11.3334Z" fill="black"/>
</svg>
