<svg xmlns="http://www.w3.org/2000/svg" width="24" height="24" viewBox="0 0 24 24" fill="none"><rect width="24" height="24" fill="none"/>
<path d="M7.33432 2V7.33335H2.00098L7.33432 2Z" fill="black"/>
<path fill-rule="evenodd" clip-rule="evenodd" d="M15.3531 21.1717L16.3744 17.0743C15.7371 16.4677 15.3344 15.6143 15.3344 14.6663C15.3344 12.829 16.8304 11.333 18.6678 11.333C20.5051 11.333 22.0011 12.829 22.0011 14.6663C22.0011 15.6143 21.5984 16.4677 20.9611 17.0743L21.9824 21.1717C22.0451 21.4237 21.9544 21.6903 21.7518 21.8544C21.5491 22.017 21.2691 22.045 21.0371 21.9303L18.6678 20.745L16.2998 21.9303C16.2051 21.9757 16.1024 21.9997 16.0011 21.9997C15.8531 21.9997 15.7051 21.9504 15.5838 21.8544C15.3811 21.6903 15.2904 21.425 15.3531 21.1717ZM18.6678 16.6663C19.7704 16.6663 20.6678 15.769 20.6678 14.6663C20.6678 13.5637 19.7704 12.6663 18.6678 12.6663C17.5651 12.6663 16.6678 13.5637 16.6678 14.6663C16.6678 15.769 17.5651 16.6663 18.6678 16.6663Z" fill="black"/>
<path fill-rule="evenodd" clip-rule="evenodd" d="M8.668 7.33335C8.668 8.06802 8.06933 8.66668 7.33466 8.66668H2.00131V19.3334C2.00131 20.0694 2.59865 20.6667 3.33465 20.6667H14.1053L14.9133 17.428C14.3213 16.632 14.0013 15.6747 14.0013 14.6667C14.0013 12.3214 15.7454 10.3947 18.0014 10.068V3.33334C18.0014 2.59867 17.4027 2 16.668 2H8.668V7.33335ZM15.3347 6.66668C15.3347 7.03468 15.036 7.33335 14.668 7.33335H10.668C10.3 7.33335 10.0013 7.03468 10.0013 6.66668C10.0013 6.29868 10.3 6.00001 10.668 6.00001H14.668C15.036 6.00001 15.3347 6.29868 15.3347 6.66668ZM12.668 14.6667C12.668 15.0347 12.3693 15.3334 12.0013 15.3334H5.33466C4.96665 15.3334 4.66799 15.0347 4.66799 14.6667C4.66799 14.2987 4.96665 14 5.33466 14H12.0013C12.3693 14 12.668 14.2987 12.668 14.6667ZM13.3347 11.3334H5.33466C4.96665 11.3334 4.66799 11.0347 4.66799 10.6667C4.66799 10.2987 4.96665 10 5.33466 10H13.3347C13.7027 10 14.0013 10.2987 14.0013 10.6667C14.0013 11.0347 13.7027 11.3334 13.3347 11.3334Z" fill="black"/>
</svg>
