<svg xmlns="http://www.w3.org/2000/svg" width="25" height="24" viewBox="0 0 25 24" fill="none"><rect width="25" height="24" fill="none"/>
<path d="M21.3488 9.29327L21.4738 9.40516V9.23738V5.42424C21.4738 4.04395 20.3549 2.925 18.9746 2.925H4.42913C3.04883 2.925 1.92988 4.04395 1.92988 5.42424V15.1212C1.92988 16.5015 3.04883 17.6205 4.42913 17.6205H13.52H13.595V17.5455V16.7317V16.7052L13.5783 16.6845C13.4761 16.5582 13.3794 16.4271 13.2888 16.2916L13.2665 16.2583H13.2264H4.42913C3.80111 16.2583 3.292 15.7492 3.292 15.1212V5.42424C3.292 4.79623 3.80111 4.28712 4.42913 4.28712H18.9746C19.6026 4.28712 20.1117 4.79623 20.1117 5.42424V8.41547V8.46195L20.1533 8.48263C20.5885 8.6989 20.9903 8.97239 21.3488 9.29327ZM20.8675 16.3029C21.618 15.5262 22.0799 14.4685 22.0799 13.303C22.0799 10.9186 20.1469 8.98561 17.7625 8.98561C15.378 8.98561 13.445 10.9186 13.445 13.303C13.445 14.4683 13.9068 15.5259 14.6572 16.3026V21.1818C14.6572 21.743 15.2979 22.0634 15.7469 21.7267L17.4438 20.4539C17.6326 20.3123 17.8923 20.3123 18.0811 20.4539L19.7781 21.7267C20.227 22.0634 20.8678 21.743 20.8678 21.1818L20.8675 16.3029ZM17.7625 17.6205C18.3826 17.6205 18.9724 17.4897 19.5056 17.2541V19.5342L18.1129 18.6985C17.8972 18.5691 17.6277 18.5691 17.4121 18.6985L16.0193 19.5342V17.2541C16.5527 17.4899 17.1419 17.6205 17.7625 17.6205ZM20.7178 13.303C20.7178 14.9352 19.3946 16.2583 17.7625 16.2583C16.1303 16.2583 14.8072 14.9352 14.8072 13.303C14.8072 11.6709 16.1303 10.3477 17.7625 10.3477C19.3946 10.3477 20.7178 11.6709 20.7178 13.303ZM6.24731 6.56136C5.87117 6.56136 5.56625 6.86628 5.56625 7.24242C5.56625 7.61856 5.87117 7.92348 6.24731 7.92348H17.1564C17.5325 7.92348 17.8375 7.61856 17.8375 7.24242C17.8375 6.86629 17.5325 6.56136 17.1564 6.56136H6.24731ZM6.24731 12.622C5.87117 12.622 5.56625 12.9269 5.56625 13.303C5.56625 13.6792 5.87117 13.9841 6.24731 13.9841H11.0958C11.4719 13.9841 11.7769 13.6792 11.7769 13.303C11.7769 12.9269 11.4719 12.622 11.0958 12.622H6.24731Z" fill="black" stroke="black" stroke-width="0.15"/>
</svg>
