<svg xmlns="http://www.w3.org/2000/svg" width="25" height="24" viewBox="0 0 25 24" fill="none"><rect width="25" height="24" fill="none"/>
<path d="M2.41968 13.3596C2.41968 12.8994 2.79277 12.5263 3.25301 12.5263H3.71597C4.17621 12.5263 4.54931 12.8994 4.54931 13.3596V21.1667C4.54931 21.6269 4.17621 22 3.71597 22H3.25301C2.79277 22 2.41968 21.6269 2.41968 21.1667V13.3596ZM19.4567 9.14912C19.4567 8.68889 19.8298 8.31579 20.29 8.31579H20.753C21.2132 8.31579 21.5863 8.68889 21.5863 9.14912V21.1667C21.5863 21.6269 21.2132 22 20.753 22H20.29C19.8298 22 19.4567 21.6269 19.4567 21.1667V9.14912ZM10.9382 2.83333C10.9382 2.3731 11.3113 2 11.7715 2H12.2345C12.6947 2 13.0678 2.3731 13.0678 2.83333V21.1667C13.0678 21.6269 12.6947 22 12.2345 22H11.7715C11.3113 22 10.9382 21.6269 10.9382 21.1667V2.83333Z" fill="black"/>
</svg>
