<svg xmlns="http://www.w3.org/2000/svg" width="16" height="16" viewBox="0 0 16 16" fill="none"><rect width="16" height="16" fill="none"/>
<path d="M1.60596 8.90643C1.60596 8.5996 1.85469 8.35087 2.16151 8.35087H2.47015C2.77698 8.35087 3.02571 8.5996 3.02571 8.90643V14.1111C3.02571 14.4179 2.77698 14.6667 2.47015 14.6667H2.16151C1.85469 14.6667 1.60596 14.4179 1.60596 14.1111V8.90643ZM12.964 6.09941C12.964 5.79259 13.2127 5.54385 13.5195 5.54385H13.8282C14.135 5.54385 14.3837 5.79259 14.3837 6.09941V14.1111C14.3837 14.4179 14.135 14.6667 13.8282 14.6667H13.5195C13.2127 14.6667 12.964 14.4179 12.964 14.1111V6.09941ZM7.28497 1.88888C7.28497 1.58206 7.5337 1.33333 7.84052 1.33333H8.14917C8.45599 1.33333 8.70472 1.58206 8.70472 1.88888V14.1111C8.70472 14.4179 8.45599 14.6667 8.14917 14.6667H7.84052C7.5337 14.6667 7.28497 14.4179 7.28497 14.1111V1.88888Z" fill="black"/>
</svg>
