<svg xmlns="http://www.w3.org/2000/svg" width="24" height="24" viewBox="0 0 24 24" fill="none"><rect width="24" height="24" fill="none"/>
<path d="M2.40991 13.3596C2.40991 12.8994 2.78301 12.5263 3.24325 12.5263H3.70621C4.16645 12.5263 4.53954 12.8994 4.53954 13.3596V21.1667C4.53954 21.6269 4.16645 22 3.70621 22H3.24324C2.78301 22 2.40991 21.6269 2.40991 21.1667V13.3596ZM19.4469 9.14912C19.4469 8.68889 19.82 8.31579 20.2803 8.31579H20.7432C21.2035 8.31579 21.5766 8.68889 21.5766 9.14912V21.1667C21.5766 21.6269 21.2035 22 20.7432 22H20.2803C19.82 22 19.4469 21.6269 19.4469 21.1667V9.14912ZM10.9284 2.83333C10.9284 2.3731 11.3015 2 11.7618 2H12.2247C12.685 2 13.0581 2.3731 13.0581 2.83333V21.1667C13.0581 21.6269 12.685 22 12.2247 22H11.7618C11.3015 22 10.9284 21.6269 10.9284 21.1667V2.83333Z" fill="black"/>
</svg>
