<svg xmlns="http://www.w3.org/2000/svg" width="24" height="25" viewBox="0 0 24 25" fill="none"><rect width="24" height="25" fill="none"/>
<path fill-rule="evenodd" clip-rule="evenodd" d="M16 3.00574C12.97 3.00574 10.5 5.47574 10.5 8.50574C10.5 11.5357 12.97 14.0057 16 14.0057C19.03 14.0057 21.5 11.5357 21.5 8.50574C21.5 5.47574 19.03 3.00574 16 3.00574ZM2.5 14.0057C2.5 11.7957 4.29 10.0057 6.5 10.0057C8.71 10.0057 10.5 11.7957 10.5 14.0057C10.5 16.2157 8.71 18.0057 6.5 18.0057C4.29 18.0057 2.5 16.2157 2.5 14.0057ZM4.5 14.0057C4.5 15.1057 5.4 16.0057 6.5 16.0057C7.6 16.0057 8.5 15.1057 8.5 14.0057C8.5 12.9057 7.6 12.0057 6.5 12.0057C5.4 12.0057 4.5 12.9057 4.5 14.0057ZM14.51 15.0057C12.86 15.0057 11.51 16.3557 11.51 18.0057C11.51 19.6557 12.86 21.0057 14.51 21.0057C16.16 21.0057 17.51 19.6557 17.51 18.0057C17.51 16.3557 16.16 15.0057 14.51 15.0057ZM13.51 18.0057C13.51 18.5557 13.96 19.0057 14.51 19.0057C15.06 19.0057 15.51 18.5557 15.51 18.0057C15.51 17.4557 15.06 17.0057 14.51 17.0057C13.96 17.0057 13.51 17.4557 13.51 18.0057ZM12.5 8.50574C12.5 10.4357 14.07 12.0057 16 12.0057C17.93 12.0057 19.5 10.4357 19.5 8.50574C19.5 6.57574 17.93 5.00574 16 5.00574C14.07 5.00574 12.5 6.57574 12.5 8.50574Z" fill="black"/>
</svg>
