<svg xmlns="http://www.w3.org/2000/svg" width="17" height="17" viewBox="0 0 17 17" fill="none"><rect width="17" height="17" fill="none"/>
<path d="M1.61475 9.8882C1.61475 9.58137 1.86348 9.33264 2.1703 9.33264H2.47894C2.78577 9.33264 3.0345 9.58137 3.0345 9.8882V15.0929C3.0345 15.3997 2.78577 15.6484 2.47894 15.6484H2.1703C1.86348 15.6484 1.61475 15.3997 1.61475 15.0929V9.8882ZM12.9728 7.08118C12.9728 6.77436 13.2215 6.52562 13.5283 6.52562H13.837C14.1438 6.52562 14.3925 6.77435 14.3925 7.08118V15.0929C14.3925 15.3997 14.1438 15.6484 13.837 15.6484H13.5283C13.2215 15.6484 12.9728 15.3997 12.9728 15.0929V7.08118ZM7.29376 2.87065C7.29376 2.56383 7.54249 2.3151 7.84931 2.3151H8.15796C8.46478 2.3151 8.71351 2.56383 8.71351 2.87065V15.0929C8.71351 15.3997 8.46478 15.6484 8.15796 15.6484H7.84931C7.54249 15.6484 7.29376 15.3997 7.29376 15.0929V2.87065Z" fill="black"/>
</svg>
