<svg xmlns="http://www.w3.org/2000/svg" width="16" height="16" viewBox="0 0 16 16" fill="none"><rect width="16" height="16" fill="none"/>
<path fill-rule="evenodd" clip-rule="evenodd" d="M1.33325 8.00001C1.33325 4.31811 4.31802 1.33334 7.99992 1.33334C11.6818 1.33334 14.6666 4.31811 14.6666 8.00001C14.6666 11.6819 11.6818 14.6667 7.99992 14.6667C4.31802 14.6667 1.33325 11.6819 1.33325 8.00001ZM11.2001 6.35173C11.3776 6.17421 11.3776 5.88641 11.2001 5.7089C11.0226 5.53139 10.7348 5.53139 10.5573 5.7089L6.93931 9.32688L5.44254 7.83011C5.26503 7.6526 4.97723 7.6526 4.79972 7.83011C4.62221 8.00763 4.62221 8.29543 4.79972 8.47294L6.6179 10.2911C6.79541 10.4686 7.08321 10.4686 7.26073 10.2911L11.2001 6.35173Z" fill="black"/>
</svg>
