<svg xmlns="http://www.w3.org/2000/svg" width="17" height="17" viewBox="0 0 17 17" fill="none"><rect width="17" height="17" fill="none"/>
<path fill-rule="evenodd" clip-rule="evenodd" d="M1.35522 8.00666C1.35522 4.32476 4.33999 1.34 8.02189 1.34C11.7038 1.34 14.6886 4.32476 14.6886 8.00666C14.6886 11.6886 11.7038 14.6733 8.02189 14.6733C4.33999 14.6733 1.35522 11.6886 1.35522 8.00666ZM11.2221 6.35838C11.3996 6.18087 11.3996 5.89307 11.2221 5.71555C11.0446 5.53804 10.7568 5.53804 10.5793 5.71555L6.96129 9.33354L5.46452 7.83677C5.287 7.65926 4.9992 7.65926 4.82169 7.83677C4.64418 8.01428 4.64418 8.30208 4.82169 8.47959L6.63987 10.2978C6.81739 10.4753 7.10519 10.4753 7.2827 10.2978L11.2221 6.35838Z" fill="black"/>
</svg>
