<svg xmlns="http://www.w3.org/2000/svg" width="25" height="24" viewBox="0 0 25 24" fill="none"><rect width="25" height="24" fill="none"/>
<path d="M3.50488 3.75C3.50488 3.61193 3.61681 3.5 3.75488 3.5H17.2549C17.393 3.5 17.5049 3.61193 17.5049 3.75V13.75C17.5049 14.1642 17.8407 14.5 18.2549 14.5C18.6691 14.5 19.0049 14.1642 19.0049 13.75V3.75C19.0049 2.7835 18.2214 2 17.2549 2H3.75488C2.78838 2 2.00488 2.7835 2.00488 3.75V20.25C2.00488 21.2165 2.78838 22 3.75488 22H10.7549C11.1691 22 11.5049 21.6642 11.5049 21.25C11.5049 20.8358 11.1691 20.5 10.7549 20.5H3.75488C3.61681 20.5 3.50488 20.3881 3.50488 20.25V3.75Z" fill="black"/>
<path d="M6.25488 7C5.84067 7 5.50488 7.33579 5.50488 7.75C5.50488 8.16421 5.84067 8.5 6.25488 8.5H14.7549C15.1691 8.5 15.5049 8.16421 15.5049 7.75C15.5049 7.33579 15.1691 7 14.7549 7H6.25488Z" fill="black"/>
<path d="M5.50488 11.75C5.50488 11.3358 5.84067 11 6.25488 11H10.7549C11.1691 11 11.5049 11.3358 11.5049 11.75C11.5049 12.1642 11.1691 12.5 10.7549 12.5H6.25488C5.84067 12.5 5.50488 12.1642 5.50488 11.75Z" fill="black"/>
<path d="M21.7852 16.2803C22.0781 15.9874 22.0781 15.5126 21.7852 15.2197C21.4923 14.9268 21.0174 14.9268 20.7246 15.2197L15.7549 20.1893L13.7852 18.2197C13.4923 17.9268 13.0174 17.9268 12.7246 18.2197C12.4317 18.5126 12.4317 18.9874 12.7246 19.2803L15.2246 21.7803C15.5174 22.0732 15.9923 22.0732 16.2852 21.7803L21.7852 16.2803Z" fill="black"/>
</svg>
