<svg xmlns="http://www.w3.org/2000/svg" width="24" height="24" viewBox="0 0 24 24" fill="none"><rect width="24" height="24" fill="none"/>
<path fill-rule="evenodd" clip-rule="evenodd" d="M0 12C0 5.37258 5.37258 0 12 0C18.6274 0 24 5.37258 24 12C24 18.6274 18.6274 24 12 24C5.37258 24 0 18.6274 0 12ZM17.7604 9.03309C18.0799 8.71357 18.0799 8.19552 17.7604 7.876C17.4408 7.55648 16.9228 7.55648 16.6033 7.876L10.0909 14.3884L7.39672 11.6942C7.0772 11.3747 6.55916 11.3747 6.23964 11.6942C5.92012 12.0137 5.92012 12.5317 6.23964 12.8513L9.51237 16.124C9.83189 16.4435 10.3499 16.4435 10.6695 16.124L17.7604 9.03309Z" fill="#A0B6C9"/>
</svg>
