<svg xmlns="http://www.w3.org/2000/svg" width="24" height="25" viewBox="0 0 24 25" fill="none"><rect width="24" height="25" fill="none"/>
<path d="M15.8827 3.05072C17.2773 1.65643 19.5381 1.65643 20.9328 3.05072C22.3271 4.44542 22.3271 6.7062 20.9328 8.10086C20.6539 8.37973 20.2017 8.37973 19.9228 8.10086L15.8827 4.06074C15.6038 3.78182 15.6038 3.32967 15.8827 3.05072Z" fill="black"/>
<path d="M8.07498 3.05064C6.66275 1.67356 4.40159 1.70206 3.02447 3.1143C1.672 4.5013 1.67183 6.71361 3.02413 8.10082C3.30309 8.37969 3.75524 8.37969 4.03415 8.10082L8.07498 4.0607C8.35386 3.78174 8.35386 3.32959 8.07498 3.05064Z" fill="black"/>
<path fill-rule="evenodd" clip-rule="evenodd" d="M17.6518 18.1406C20.6543 15.0074 20.5484 10.0335 17.4152 7.03104C14.2821 4.02856 9.3082 4.13449 6.30573 7.2676C3.39328 10.3068 3.39328 15.1013 6.30573 18.1406L4.26421 20.8621C4.02753 21.1777 4.09148 21.6254 4.40706 21.8621C4.72264 22.0988 5.17039 22.0348 5.40708 21.7192L7.38573 19.0806C10.123 21.075 13.8345 21.075 16.5717 19.0806L18.5504 21.7192C18.787 22.0349 19.2348 22.0988 19.5504 21.8621C19.866 21.6254 19.9299 21.1776 19.6932 20.8621L17.6518 18.1406ZM12.6931 12.719C12.6931 12.8735 12.643 13.0239 12.5503 13.1475L10.4073 16.0048C10.1706 16.3204 9.72289 16.3844 9.40731 16.1476C9.09174 15.9109 9.02774 15.4632 9.26447 15.1476L11.2645 12.4811V8.4331C11.2645 8.03859 11.5843 7.71878 11.9789 7.71878C12.3734 7.71878 12.6932 8.03859 12.6932 8.4331L12.6931 12.719Z" fill="black"/>
</svg>
