<svg xmlns="http://www.w3.org/2000/svg" width="16" height="16" viewBox="0 0 16 16" fill="none"><rect width="16" height="16" fill="none"/>
<path d="M10.5883 2.03048C11.5181 1.10096 13.0252 1.10096 13.955 2.03048C14.8846 2.96028 14.8846 4.46747 13.955 5.39725C13.7691 5.58316 13.4677 5.58316 13.2817 5.39725L10.5883 2.70383C10.4024 2.51789 10.4024 2.21646 10.5883 2.03048Z" fill="black"/>
<path d="M5.38316 2.03043C4.44167 1.11238 2.93423 1.13138 2.01615 2.07287C1.1145 2.99754 1.11439 4.47242 2.01592 5.39722C2.2019 5.58314 2.50333 5.58314 2.68927 5.39722L5.38316 2.70381C5.56908 2.51784 5.56908 2.2164 5.38316 2.03043Z" fill="black"/>
<path fill-rule="evenodd" clip-rule="evenodd" d="M11.7677 12.0904C13.7694 10.0016 13.6988 6.68569 11.61 4.68403C9.52123 2.68238 6.20531 2.753 4.20365 4.84174C2.26202 6.86789 2.26202 10.0642 4.20365 12.0904L2.84265 13.9047C2.68486 14.1151 2.72749 14.4136 2.93788 14.5714C3.14826 14.7292 3.44677 14.6865 3.60456 14.4762L4.92365 12.7171C6.74849 14.0467 9.22284 14.0467 11.0476 12.7171L12.3667 14.4762C12.5245 14.6866 12.823 14.7292 13.0334 14.5714C13.2438 14.4136 13.2865 14.1151 13.1287 13.9047L11.7677 12.0904ZM8.46191 8.47598C8.46191 8.57902 8.42848 8.67927 8.36667 8.7617L6.93806 10.6665C6.78027 10.8769 6.48177 10.9196 6.27138 10.7618C6.06099 10.6039 6.01833 10.3055 6.17615 10.0951L7.50953 8.3174V5.61874C7.50953 5.35573 7.72274 5.14253 7.98575 5.14253C8.24876 5.14253 8.46196 5.35573 8.46196 5.61874L8.46191 8.47598Z" fill="black"/>
</svg>
