<svg xmlns="http://www.w3.org/2000/svg" width="24" height="24" viewBox="0 0 24 24" fill="none"><rect width="24" height="24" fill="none"/>
<path d="M15.8836 3.04571C17.2783 1.65143 19.5391 1.65143 20.9338 3.04571C22.3281 4.44041 22.3281 6.70119 20.9338 8.09585C20.6549 8.37473 20.2027 8.37473 19.9238 8.09585L15.8836 4.05573C15.6048 3.77682 15.6048 3.32467 15.8836 3.04571Z" fill="black"/>
<path d="M8.07596 3.04563C6.66372 1.66855 4.40256 1.69706 3.02544 3.10929C1.67297 4.49629 1.67281 6.70861 3.02511 8.09582C3.30406 8.37469 3.75621 8.37469 4.03513 8.09582L8.07596 4.05569C8.35483 3.77674 8.35483 3.32459 8.07596 3.04563Z" fill="black"/>
<path fill-rule="evenodd" clip-rule="evenodd" d="M17.6528 18.1355C20.6552 15.0024 20.5494 10.0285 17.4162 7.02603C14.2831 4.02355 9.30918 4.12949 6.3067 7.26259C3.39425 10.3018 3.39425 15.0963 6.3067 18.1355L4.26519 20.8571C4.02851 21.1727 4.09246 21.6204 4.40804 21.8571C4.72362 22.0938 5.17137 22.0298 5.40806 21.7142L7.3867 19.0756C10.124 21.07 13.8355 21.07 16.5727 19.0756L18.5513 21.7142C18.788 22.0298 19.2358 22.0938 19.5514 21.8571C19.867 21.6204 19.9309 21.1726 19.6942 20.8571L17.6528 18.1355ZM12.6941 12.7139C12.6941 12.8685 12.6439 13.0189 12.5512 13.1425L10.4083 15.9998C10.1716 16.3154 9.72387 16.3794 9.40829 16.1426C9.09271 15.9059 9.02872 15.4582 9.26544 15.1426L11.2655 12.4761V8.4281C11.2655 8.03358 11.5853 7.71378 11.9798 7.71378C12.3744 7.71378 12.6942 8.03358 12.6942 8.4281L12.6941 12.7139Z" fill="black"/>
</svg>
