<svg xmlns="http://www.w3.org/2000/svg" width="32" height="32" viewBox="0 0 32 32" fill="none"><rect width="32" height="32" fill="none"/>
<path fill-rule="evenodd" clip-rule="evenodd" d="M21.9623 2.27008C24.1008 0.132181 27.5673 0.132181 29.7059 2.27008C31.8438 4.40863 31.8438 7.87517 29.7059 10.0136C29.2782 10.4413 28.5849 10.4413 28.1572 10.0136L21.9623 3.81878C21.5347 3.39111 21.5347 2.69782 21.9623 2.27008ZM9.99056 2.26996C7.82513 0.158436 4.35801 0.20214 2.24642 2.36757C0.172631 4.49431 0.172374 7.88653 2.24591 10.0136C2.67364 10.4412 3.36694 10.4412 3.79461 10.0136L9.99056 3.81873C10.4182 3.39099 10.4182 2.6977 9.99056 2.26996ZM24.6751 25.4079C29.2789 20.6037 29.1165 12.9771 24.3124 8.37326C19.5082 3.76945 11.8816 3.93188 7.27776 8.73598C2.812 13.3961 2.812 20.7477 7.27776 25.4079L4.14744 29.5809C3.78453 30.0648 3.88259 30.7513 4.36648 31.1142C4.85036 31.4771 5.53692 31.3791 5.89984 30.8952L8.93377 26.8493C13.1309 29.9073 18.8219 29.9073 23.019 26.8493L26.0529 30.8952C26.4158 31.3791 27.1024 31.4772 27.5863 31.1142C28.0702 30.7513 28.1683 30.0648 27.8053 29.5809L24.6751 25.4079ZM17.0718 17.0947C17.0718 17.3317 16.9949 17.5623 16.8527 17.7519L13.5669 22.133C13.204 22.617 12.5174 22.715 12.0335 22.3521C11.5497 21.9891 11.4515 21.3026 11.8145 20.8187L14.8813 16.73V10.5231C14.8813 9.91817 15.3717 9.4278 15.9766 9.4278C16.5815 9.4278 17.0719 9.91817 17.0719 10.5231V17.0947H17.0718Z" fill="#A0B6C9"/>
</svg>
