<svg xmlns="http://www.w3.org/2000/svg" width="24" height="24" viewBox="0 0 24 24" fill="none"><rect width="24" height="24" fill="none"/>
<path fill-rule="evenodd" clip-rule="evenodd" d="M16.4717 1.70257C18.0755 0.0991435 20.6754 0.0991435 22.2793 1.70257C23.8828 3.30648 23.8828 5.90638 22.2793 7.51024C21.9586 7.83095 21.4386 7.83095 21.1178 7.51024L16.4717 2.86409C16.1509 2.54334 16.1509 2.02337 16.4717 1.70257ZM7.4928 1.70248C5.86872 0.118835 3.26839 0.151613 1.68469 1.77569C0.129351 3.37074 0.129159 5.91491 1.68431 7.5102C2.00511 7.8309 2.52508 7.8309 2.84583 7.5102L7.4928 2.86405C7.8135 2.54325 7.8135 2.02328 7.4928 1.70248ZM18.5061 19.0559C21.959 15.4528 21.8372 9.7328 18.2341 6.27995C14.631 2.82709 8.911 2.94891 5.45815 6.55199C2.10882 10.0471 2.10882 15.5608 5.45815 19.0559L3.11041 22.1857C2.83822 22.5486 2.91176 23.0635 3.27468 23.3357C3.6376 23.6079 4.15252 23.5343 4.4247 23.1714L6.70015 20.137C9.84799 22.4305 14.1163 22.4305 17.2641 20.137L19.5395 23.1714C19.8117 23.5344 20.3266 23.6079 20.6895 23.3357C21.0525 23.0635 21.126 22.5486 20.8538 22.1857L18.5061 19.0559ZM12.8036 12.8211C12.8036 12.9988 12.746 13.1718 12.6394 13.3139L10.175 16.5998C9.90282 16.9627 9.3879 17.0363 9.02498 16.764C8.66206 16.4918 8.58847 15.9769 8.86071 15.614L11.1608 12.5475V7.89233C11.1608 7.43863 11.5286 7.07086 11.9823 7.07086C12.436 7.07086 12.8037 7.43863 12.8037 7.89233V12.8211H12.8036Z" fill="#A0B6C9"/>
</svg>
