<svg xmlns="http://www.w3.org/2000/svg" width="17" height="17" viewBox="0 0 17 17" fill="none"><rect width="17" height="17" fill="none"/>
<path d="M10.6034 2.03714C11.5332 1.10762 13.0404 1.10762 13.9702 2.03714C14.8997 2.96694 14.8997 4.47413 13.9702 5.4039C13.7842 5.58981 13.4828 5.58981 13.2968 5.4039L10.6034 2.71048C10.4175 2.52454 10.4175 2.22311 10.6034 2.03714Z" fill="black"/>
<path d="M5.3983 2.03708C4.45681 1.11903 2.94937 1.13803 2.03128 2.07952C1.12964 3.00419 1.12953 4.47907 2.03106 5.40387C2.21703 5.58979 2.51847 5.58979 2.70441 5.40387L5.3983 2.71046C5.58421 2.52449 5.58421 2.22306 5.3983 2.03708Z" fill="black"/>
<path fill-rule="evenodd" clip-rule="evenodd" d="M11.7828 12.097C13.7845 10.0083 13.7139 6.69234 11.6251 4.69069C9.53637 2.68903 6.22044 2.75965 4.21879 4.84839C2.27716 6.87454 2.27716 10.0709 4.21879 12.097L2.85778 13.9114C2.69999 14.1218 2.74263 14.4203 2.95302 14.578C3.1634 14.7358 3.4619 14.6932 3.61969 14.4828L4.93879 12.7237C6.76362 14.0533 9.23798 14.0533 11.0628 12.7237L12.3819 14.4828C12.5397 14.6932 12.8382 14.7359 13.0486 14.578C13.259 14.4203 13.3016 14.1218 13.1438 13.9114L11.7828 12.097ZM8.47704 8.48263C8.47704 8.58567 8.44362 8.68593 8.38181 8.76835L6.9532 10.6732C6.79541 10.8836 6.4969 10.9262 6.28652 10.7684C6.07613 10.6106 6.03347 10.3121 6.19128 10.1017L7.52467 8.32406V5.6254C7.52467 5.36239 7.73787 5.14918 8.00088 5.14918C8.26389 5.14918 8.4771 5.36239 8.4771 5.6254L8.47704 8.48263Z" fill="black"/>
</svg>
