<svg xmlns="http://www.w3.org/2000/svg" width="16" height="16" viewBox="0 0 16 16" fill="none"><rect width="16" height="16" fill="none"/>
<path d="M7.21453 8.00003L5.22641 6.01192L6.01209 5.22625L8.0002 7.21436L9.98832 5.22624L10.774 6.01192L8.78588 8.00003L10.774 9.98815L9.98832 10.7738L8.0002 8.78571L6.01209 10.7738L5.22641 9.98815L7.21453 8.00003Z" fill="black"/>
<path fill-rule="evenodd" clip-rule="evenodd" d="M8.00016 1.33333C4.31826 1.33333 1.3335 4.3181 1.3335 8C1.3335 11.6819 4.31826 14.6667 8.00016 14.6667C11.6821 14.6667 14.6668 11.6819 14.6668 8C14.6668 4.3181 11.6821 1.33333 8.00016 1.33333ZM1.88905 8C1.88905 11.3751 4.62509 14.1111 8.00016 14.1111C11.3752 14.1111 14.1113 11.3751 14.1113 8C14.1113 4.62492 11.3752 1.88888 8.00016 1.88888C4.62509 1.88888 1.88905 4.62492 1.88905 8Z" fill="black"/>
</svg>
