<svg xmlns="http://www.w3.org/2000/svg" width="17" height="17" viewBox="0 0 17 17" fill="none"><rect width="17" height="17" fill="none"/>
<path d="M7.23064 9.0017L5.24253 7.01358L6.0282 6.22791L8.01632 8.21602L10.0044 6.22791L10.7901 7.01358L8.80199 9.0017L10.7901 10.9898L10.0044 11.7755L8.01632 9.78737L6.0282 11.7755L5.24253 10.9898L7.23064 9.0017Z" fill="black"/>
<path fill-rule="evenodd" clip-rule="evenodd" d="M8.01628 2.33499C4.33438 2.33499 1.34961 5.31976 1.34961 9.00166C1.34961 12.6836 4.33438 15.6683 8.01628 15.6683C11.6982 15.6683 14.6829 12.6836 14.6829 9.00166C14.6829 5.31976 11.6982 2.33499 8.01628 2.33499ZM1.90516 9.00166C1.90516 12.3767 4.6412 15.1128 8.01628 15.1128C11.3913 15.1128 14.1274 12.3767 14.1274 9.00166C14.1274 5.62659 11.3913 2.89055 8.01628 2.89055C4.6412 2.89055 1.90516 5.62659 1.90516 9.00166Z" fill="black"/>
</svg>
