<svg xmlns="http://www.w3.org/2000/svg" width="24" height="24" viewBox="0 0 24 24" fill="none"><rect width="24" height="24" fill="none"/>
<path d="M10.8225 12.0001L7.84035 9.01789L9.01886 7.83937L12.001 10.8215L14.9832 7.83937L16.1617 9.01789L13.1795 12.0001L16.1617 14.9822L14.9832 16.1607L12.001 13.1786L9.01886 16.1607L7.84035 14.9822L10.8225 12.0001Z" fill="black"/>
<path fill-rule="evenodd" clip-rule="evenodd" d="M12.001 2C6.47813 2 2.00098 6.47715 2.00098 12C2.00098 17.5228 6.47813 22 12.001 22C17.5238 22 22.001 17.5228 22.001 12C22.001 6.47715 17.5238 2 12.001 2ZM2.83431 12C2.83431 17.0626 6.93837 21.1667 12.001 21.1667C17.0636 21.1667 21.1676 17.0626 21.1676 12C21.1676 6.93739 17.0636 2.83333 12.001 2.83333C6.93837 2.83333 2.83431 6.93739 2.83431 12Z" fill="black"/>
</svg>
