<svg xmlns="http://www.w3.org/2000/svg" width="25" height="24" viewBox="0 0 25 24" fill="none"><rect width="25" height="24" fill="none"/>
<path d="M10.8264 12.0001L7.84426 9.01789L9.02277 7.83937L12.0049 10.8215L14.9871 7.83937L16.1656 9.01789L13.1835 12.0001L16.1656 14.9822L14.9871 16.1607L12.0049 13.1786L9.02277 16.1607L7.84426 14.9822L10.8264 12.0001Z" fill="black"/>
<path fill-rule="evenodd" clip-rule="evenodd" d="M12.0049 2C6.48204 2 2.00488 6.47715 2.00488 12C2.00488 17.5228 6.48204 22 12.0049 22C17.5277 22 22.0049 17.5228 22.0049 12C22.0049 6.47715 17.5277 2 12.0049 2ZM2.83822 12C2.83822 17.0626 6.94227 21.1667 12.0049 21.1667C17.0675 21.1667 21.1715 17.0626 21.1715 12C21.1715 6.93739 17.0675 2.83333 12.0049 2.83333C6.94227 2.83333 2.83822 6.93739 2.83822 12Z" fill="black"/>
</svg>
