<svg xmlns="http://www.w3.org/2000/svg" width="26" height="24" viewBox="0 0 26 24" fill="none"><rect width="26" height="24" fill="none"/>
<path d="M21.0002 18.6C20.6002 18.6 20.2002 18.4 20.1002 18C19.9002 17.5 20.1002 16.9 20.6002 16.7C21.6002 16.3 22.3002 15.5 22.7002 14.5C23.1002 13.5 23.1002 12.4 22.6002 11.4C22.0002 9.90003 20.6002 9.00003 19.0002 9.00003H17.7002C17.2002 9.00003 16.8002 8.70003 16.7002 8.20003C15.7002 4.50003 11.9002 2.20003 8.20016 3.20003C4.50016 4.20003 2.20016 8.00003 3.20016 11.7C3.60016 13.2 4.40016 14.5 5.60016 15.4C6.00016 15.7 6.10016 16.4 5.80016 16.8C5.50016 17.2 4.80016 17.3 4.40016 17C2.90016 15.8 1.80016 14.1 1.30016 12.2C0.000162035 7.40003 2.90016 2.50003 7.70016 1.30003C12.3002 0.100029 16.9002 2.70003 18.4002 7.00003H19.0002C21.4002 7.00003 23.5002 8.40003 24.5002 10.6C25.1002 12.1 25.2002 13.7 24.6002 15.2C24.0002 16.7 22.9002 17.9 21.4002 18.5C21.3002 18.6 21.1002 18.6 21.0002 18.6Z" fill="black"/>
<path d="M9 17C8.7 17 8.5 16.9 8.3 16.7C8.2 16.6 8.1 16.5 8.1 16.4C8 16.3 8 16.1 8 16C8 15.9 8 15.7 8.1 15.6C8.2 15.5 8.2 15.4 8.3 15.3C8.7 14.9 9.3 14.9 9.7 15.3C9.8 15.4 9.9 15.5 9.9 15.6C10 15.7 10 15.9 10 16C10 16.1 10 16.3 9.9 16.4C9.8 16.5 9.8 16.6 9.7 16.7C9.5 16.9 9.3 17 9 17Z" fill="black"/>
<path d="M9 21C8.7 21 8.5 20.9 8.3 20.7C8.1 20.5 8 20.3 8 20C8 19.7 8.1 19.5 8.3 19.3C8.4 19.2 8.5 19.1 8.6 19.1C9 18.9 9.4 19 9.7 19.3C9.9 19.5 10 19.7 10 20C10 20.3 9.9 20.5 9.7 20.7C9.5 20.9 9.3 21 9 21Z" fill="black"/>
<path d="M13 19C12.9 19 12.7 19 12.6 18.9C12.5 18.9 12.4 18.8 12.3 18.7C12.1 18.5 12 18.3 12 18C12 17.9 12 17.7 12.1 17.6C12.2 17.5 12.2 17.4 12.3 17.3C12.7 16.9 13.3 16.9 13.7 17.3C13.9 17.5 14 17.8 14 18C14 18.3 13.9 18.5 13.7 18.7C13.5 18.9 13.3 19 13 19Z" fill="black"/>
<path d="M13 23C12.7 23 12.5 22.9 12.3 22.7C12.1 22.5 12 22.3 12 22C12 21.9 12 21.7 12.1 21.6C12.2 21.5 12.2 21.4 12.3 21.3C12.7 20.9 13.3 20.9 13.7 21.3C13.8 21.4 13.9 21.5 13.9 21.6C13.9 21.7 14 21.9 14 22C14 22.3 13.9 22.5 13.7 22.7C13.6 22.8 13.5 22.9 13.4 22.9C13.3 22.9 13.1 23 13 23Z" fill="black"/>
<path d="M17 17C16.7 17 16.5 16.9 16.3 16.7C16.2 16.6 16.1 16.5 16.1 16.4C16.1 16.3 16 16.1 16 16C16 15.9 16 15.7 16.1 15.6C16.2 15.5 16.2 15.4 16.3 15.3C16.7 14.9 17.3 14.9 17.7 15.3C17.8 15.4 17.9 15.5 17.9 15.6C17.9 15.7 18 15.9 18 16C18 16.3 17.9 16.5 17.7 16.7C17.5 16.9 17.3 17 17 17Z" fill="black"/>
<path d="M17 21C16.7 21 16.5 20.9 16.3 20.7C16.1 20.5 16 20.3 16 20C16 19.7 16.1 19.5 16.3 19.3C16.5 19.1 16.9 19 17.2 19C17.3 19 17.3 19 17.4 19.1C17.5 19.1 17.5 19.1 17.6 19.2C17.6 19.2 17.7 19.3 17.8 19.3C18 19.5 18.1 19.8 18.1 20C18.1 20.3 18 20.5 17.8 20.7C17.5 20.9 17.3 21 17 21Z" fill="black"/>
</svg>
