<svg xmlns="http://www.w3.org/2000/svg" width="24" height="25" viewBox="0 0 24 25" fill="none"><rect width="24" height="25" fill="none"/>
<path d="M21.9988 15.8458C21.9651 13.9742 20.4644 12.4567 18.5929 12.423C18.1208 9.97815 15.9794 8.2246 13.484 8.24146C10.8874 8.2246 8.6786 10.1299 8.32451 12.7096C6.57097 13.4852 5.76164 15.5423 6.53725 17.3127C7.09366 18.5773 8.34138 19.4034 9.74084 19.4034H18.5929C20.515 19.3529 22.0494 17.7679 21.9988 15.8458Z" fill="black"/>
<path d="M4.8339 13.8649C5.21819 12.942 5.86107 12.1263 6.71405 11.5366C7.31548 9.36878 8.91695 7.65848 10.9586 6.88037C10.1012 5.51364 8.58095 4.60498 6.84848 4.60498C4.17074 4.60498 2 6.77572 2 9.45347C2 11.4124 3.16177 13.1 4.8339 13.8649Z" fill="black"/>
</svg>
