<svg xmlns="http://www.w3.org/2000/svg" width="16" height="16" viewBox="0 0 16 16" fill="none"><rect width="16" height="16" fill="none"/>
<path d="M14.666 10.8272C14.6435 9.57952 13.6431 8.56786 12.3954 8.54538C12.0807 6.91549 10.6531 5.74646 8.98948 5.7577C7.25842 5.74646 5.78589 7.01665 5.54984 8.73647C4.38081 9.25354 3.84126 10.6249 4.35833 11.8052C4.72927 12.6482 5.56108 13.199 6.49405 13.199H12.3954C13.6768 13.1653 14.6997 12.1087 14.666 10.8272Z" fill="black"/>
<path d="M3.22277 9.50665C3.47896 8.89138 3.90755 8.34761 4.4762 7.95447C4.87715 6.50924 5.94479 5.36904 7.30591 4.8503C6.73429 3.93914 5.7208 3.33337 4.56582 3.33337C2.78066 3.33337 1.3335 4.78053 1.3335 6.5657C1.3335 7.87167 2.10801 8.99675 3.22277 9.50665Z" fill="black"/>
</svg>
