<svg xmlns="http://www.w3.org/2000/svg" width="24" height="24" viewBox="0 0 24 24" fill="none"><rect width="24" height="24" fill="none"/>
<path d="M23.9986 16.6099C23.9581 14.364 22.1573 12.543 19.9114 12.5025C19.3449 9.56872 16.7753 7.46446 13.7808 7.4847C10.6649 7.46446 8.01432 9.75081 7.58942 12.8465C5.48517 13.7772 4.51397 16.2457 5.4447 18.3702C6.1124 19.8877 7.60966 20.8791 9.28901 20.8791H19.9114C22.218 20.8184 24.0593 18.9165 23.9986 16.6099Z" fill="black"/>
<path d="M5.81819 14.7573C9.03148 14.7573 11.6364 12.1524 11.6364 8.9391C11.6364 8.57922 11.6037 8.22698 11.5412 7.88518C9.46991 8.66866 7.90721 10.5312 7.58942 12.8465C6.68411 13.2469 5.9885 13.932 5.56387 14.7518C5.64819 14.7555 5.73298 14.7573 5.81819 14.7573Z" fill="black"/>
<path d="M3.40069 14.2328C3.86184 13.1253 4.63329 12.1465 5.65687 11.4389C6.37858 8.83747 8.30034 6.78512 10.7504 5.85138C9.72144 4.2113 7.89715 3.12091 5.81819 3.12091C2.60489 3.12091 0 5.7258 0 8.9391C0 11.2899 1.39413 13.315 3.40069 14.2328Z" fill="black"/>
</svg>
