<svg xmlns="http://www.w3.org/2000/svg" width="26" height="24" viewBox="0 0 26 24" fill="none"><rect width="26" height="24" fill="none"/>
<path d="M20.0002 17.9C19.5002 17.9 19.1002 17.6 19.0002 17.1C18.9002 16.6 19.2002 16 19.8002 15.9C22.0002 15.5 23.4002 13.3 22.9002 11.2C22.5002 9.3 20.9002 8 19.0002 8H17.7002C17.2002 8 16.8002 7.7 16.7002 7.2C15.7002 3.5 11.9002 1.2 8.2002 2.2C6.4002 2.7 4.9002 3.8 4.0002 5.4C3.0002 7.1 2.7002 8.9 3.2002 10.8C3.7002 12.7 4.9002 14.2 6.6002 15.2C7.1002 15.4 7.3002 16 7.0002 16.5C6.7002 17 6.1002 17.2 5.6002 16.9C3.4002 15.7 1.9002 13.7 1.2002 11.3C0.600204 9 0.900204 6.5 2.2002 4.5C3.4002 2.4 5.4002 1 7.7002 0.400004C12.2002 -0.799996 16.9002 1.8 18.4002 6.1H19.0002C21.8002 6.1 24.3002 8.1 24.9002 10.9C25.6002 14.1 23.5002 17.3 20.2002 18C20.1002 17.9 20.1002 17.9 20.0002 17.9Z" fill="black"/>
<path d="M12.0002 24C11.8002 24 11.6002 23.9 11.4002 23.8C10.9002 23.5 10.8002 22.9 11.1002 22.4L14.1002 18H10.0002C9.6002 18 9.3002 17.8 9.1002 17.5C8.9002 17.2 8.9002 16.8 9.1002 16.5L13.1002 10.5C13.4002 10 14.0002 9.9 14.5002 10.2C15.0002 10.5 15.1002 11.1 14.8002 11.6L11.8002 16H16.0002C16.4002 16 16.7002 16.2 16.9002 16.5C17.1002 16.8 17.1002 17.2 16.9002 17.5L12.9002 23.5C12.6002 23.8 12.3002 24 12.0002 24Z" fill="black"/>
</svg>
