<svg xmlns="http://www.w3.org/2000/svg" width="24" height="24" viewBox="0 0 24 24" fill="none"><rect width="24" height="24" fill="none"/>
<path d="M21.9998 16.2409C21.966 14.3693 20.4654 12.8519 18.5938 12.8181C18.1217 10.3733 15.9804 8.61975 13.485 8.63661C10.8884 8.61975 8.67957 10.525 8.32549 13.1048C6.57195 13.8804 5.76262 15.9374 6.53822 17.7078C7.09464 18.9724 8.34235 19.7986 9.74181 19.7986H18.5938C20.516 19.748 22.0503 18.1631 21.9998 16.2409Z" fill="black"/>
<path d="M4.83488 14.26C5.21917 13.3371 5.86205 12.5215 6.71503 11.9318C7.31646 9.76392 8.91792 8.05363 10.9596 7.27551C10.1022 5.90878 8.58193 5.00012 6.84946 5.00012C4.17172 5.00012 2.00098 7.17086 2.00098 9.84861C2.00098 11.8076 3.16275 13.4952 4.83488 14.26Z" fill="black"/>
</svg>
