<svg xmlns="http://www.w3.org/2000/svg" width="25" height="24" viewBox="0 0 25 24" fill="none"><rect width="25" height="24" fill="none"/>
<path d="M9.90019 21C6.60019 21 3.60019 19.2 2.00019 16.4C0.800191 14.3 0.600191 11.9 1.20019 9.6C1.90019 7.3 3.40019 5.4 5.50019 4.2C6.00019 3.9 6.60019 4 6.90019 4.5C7.10019 5 7.00019 5.6 6.50019 5.9C4.90019 6.8 3.70019 8.3 3.20019 10.1C2.70019 11.9 2.90019 13.8 3.80019 15.4C5.00019 17.7 7.40019 19.1 10.0002 19H19.0002C19.5002 19 19.9002 18.9 20.4002 18.8C20.9002 18.6 21.5002 18.9 21.7002 19.4C21.9002 19.9 21.6002 20.5 21.1002 20.7C20.4002 20.9 19.8002 21.1 19.1002 21.1H10.0002C10.0002 21 9.90019 21 9.90019 21ZM23.6002 18C23.5002 18 23.3002 18 23.2002 17.9C22.7002 17.7 22.5002 17.1 22.7002 16.6C23.6002 14.6 22.6002 12.2 20.6002 11.4C20.1002 11.2 19.6002 11.1 19.0002 11.1H17.7002C17.2002 11.1 16.8002 10.8 16.7002 10.3C16.0002 7.4 13.6002 5.3 10.6002 5C10.0002 5 9.60019 4.5 9.70019 3.9C9.70019 3.4 10.2002 2.9 10.8002 3C14.3002 3.3 17.3002 5.7 18.5002 9H19.0002C19.8002 9 20.6002 9.2 21.3002 9.5C24.3002 10.8 25.8002 14.3 24.5002 17.4C24.4002 17.7 24.0002 18 23.6002 18Z" fill="black"/>
<path d="M24.0002 24C23.7002 24 23.5002 23.9 23.3002 23.7L1.30019 1.7C0.900191 1.3 0.900191 0.7 1.30019 0.3C1.70019 -0.1 2.30019 -0.1 2.70019 0.3L24.7002 22.3C25.1002 22.7 25.1002 23.3 24.7002 23.7C24.5002 23.9 24.3002 24 24.0002 24Z" fill="black"/>
</svg>
