<svg xmlns="http://www.w3.org/2000/svg" width="17" height="16" viewBox="0 0 17 16" fill="none"><rect width="17" height="16" fill="none"/>
<path d="M14.6724 10.5587C14.6499 9.31103 13.6495 8.29937 12.4018 8.27689C12.087 6.64699 10.6594 5.47796 8.99583 5.4892C7.26477 5.47796 5.79224 6.74816 5.55619 8.46798C4.38716 8.98505 3.84761 10.3564 4.36468 11.5367C4.73562 12.3797 5.56743 12.9305 6.5004 12.9305H12.4018C13.6832 12.8968 14.7061 11.8402 14.6724 10.5587Z" fill="black"/>
<path d="M3.22911 9.23816C3.48531 8.62289 3.91389 8.07912 4.48255 7.68598C4.8835 6.24074 5.95114 5.10055 7.31226 4.5818C6.74064 3.67065 5.72714 3.06488 4.57217 3.06488C2.787 3.06488 1.33984 4.51204 1.33984 6.2972C1.33984 7.60318 2.11436 8.72825 3.22911 9.23816Z" fill="black"/>
</svg>
