<svg xmlns="http://www.w3.org/2000/svg" width="17" height="17" viewBox="0 0 17 17" fill="none"><rect width="17" height="17" fill="none"/>
<path d="M5.83195 6.86086C6.05629 7.86847 6.9606 8.60617 8.01137 8.60617C9.06226 8.60617 9.9667 7.86847 10.1911 6.86086H9.9086L10.5736 2.83589L12.825 2.10215C13.0301 2.03531 13.1423 1.81484 13.0754 1.60974C13.0086 1.40461 12.7879 1.29248 12.583 1.35938L10.1059 2.16666C9.96722 2.21184 9.86527 2.33051 9.84149 2.47436L9.11677 6.86086H5.83195Z" fill="black"/>
<path d="M3.07527 5.79505L5.35664 4.9647L5.75294 6.05348H6.58433L6.0908 4.69749L8.37704 3.86536C8.73107 3.73649 8.71409 3.22829 8.35243 3.12319L4.99535 2.14792C4.83194 2.10044 4.65647 2.16427 4.56179 2.30573L2.61708 5.21068C2.4075 5.52378 2.7214 5.9238 3.07527 5.79505Z" fill="black"/>
<path d="M11.0781 6.86086H11.8933C12.029 6.86086 12.155 6.93127 12.2261 7.04684L13.1839 8.60445C12.1648 8.57088 11.2972 7.84483 11.0781 6.86086Z" fill="black"/>
<path d="M3.7444 7.05314L2.82983 8.60476C3.85453 8.57695 4.72855 7.84899 4.94855 6.86086H4.08091C3.9426 6.86088 3.81461 6.93401 3.7444 7.05314Z" fill="black"/>
<path d="M5.39027 7.86109C6.55038 9.89494 9.47667 9.89333 10.6346 7.85815C11.1912 8.83671 12.2781 9.46664 13.4786 9.37935C13.3854 12.3144 10.969 14.6734 8.01177 14.6734C5.05441 14.6734 2.63805 12.3143 2.54492 9.37914C3.73074 9.46662 4.82523 8.85171 5.39027 7.86109Z" fill="black"/>
</svg>
