<svg xmlns="http://www.w3.org/2000/svg" width="24" height="24" viewBox="0 0 24 24" fill="none"><rect width="24" height="24" fill="none"/>
<path d="M8.07632 9.9375C8.48014 11.7512 10.1079 13.0791 11.9993 13.0791C13.8909 13.0791 15.5189 11.7512 15.9227 9.9375H15.4143L16.6113 2.69256L20.6639 1.37183C21.0331 1.2515 21.2349 0.854665 21.1145 0.485483C20.9942 0.116254 20.5971 -0.0855869 20.2282 0.0348332L15.7694 1.48794C15.5198 1.56926 15.3363 1.78287 15.2935 2.0418L13.989 9.9375H8.07632Z" fill="black"/>
<path d="M3.1143 8.01905L7.22077 6.52441L7.9341 8.48423H9.43061L8.54225 6.04343L12.6575 4.54561C13.2947 4.31363 13.2642 3.39888 12.6132 3.20969L6.57044 1.4542C6.2763 1.36875 5.96046 1.48364 5.79003 1.73826L2.28954 6.96719C1.9123 7.53076 2.47732 8.25079 3.1143 8.01905Z" fill="black"/>
<path d="M17.5194 9.9375H18.9868C19.2311 9.9375 19.4578 10.0642 19.5858 10.2723L21.3098 13.076C19.4754 13.0156 17.9138 11.7086 17.5194 9.9375Z" fill="black"/>
<path d="M4.31873 10.2836L2.67251 13.0765C4.51696 13.0265 6.09021 11.7161 6.4862 9.9375H4.92444C4.67549 9.93755 4.44511 10.0692 4.31873 10.2836Z" fill="black"/>
<path d="M7.2813 11.7379C9.3695 15.3989 14.6368 15.396 16.721 11.7326C17.7231 13.494 19.6795 14.6279 21.8403 14.4708C21.6725 19.7538 17.3231 24 12 24C6.67676 24 2.32729 19.7536 2.15967 14.4704C4.29414 14.6279 6.26422 13.521 7.2813 11.7379Z" fill="black"/>
</svg>
