<svg xmlns="http://www.w3.org/2000/svg" width="24" height="25" viewBox="0 0 24 25" fill="none"><rect width="24" height="25" fill="none"/>
<path d="M8.73058 10.2863C9.0671 11.7977 10.4236 12.9042 11.9997 12.9042C13.5761 12.9042 14.9327 11.7977 15.2693 10.2863H14.8456L15.8431 4.2488L19.2202 3.1482C19.5279 3.04792 19.696 2.71723 19.5957 2.40957C19.4955 2.10188 19.1646 1.93368 18.8571 2.03403L15.1415 3.24495C14.9335 3.31272 14.7806 3.49073 14.7449 3.70651L13.6578 10.2863H8.73058Z" fill="black"/>
<path d="M4.59557 8.68754L8.01763 7.44201L8.61207 9.07519H9.85917L9.11886 7.0412L12.5482 5.79301C13.0793 5.59969 13.0538 4.8374 12.5113 4.67975L7.47569 3.21684C7.23057 3.14563 6.96737 3.24137 6.82534 3.45355L3.90828 7.81099C3.59391 8.28063 4.06476 8.88066 4.59557 8.68754Z" fill="black"/>
<path d="M16.5998 10.2862H17.8226C18.0262 10.2862 18.2151 10.3919 18.3218 10.5652L19.7584 12.9016C18.2298 12.8513 16.9284 11.7622 16.5998 10.2862Z" fill="black"/>
<path d="M5.59927 10.5747L4.22741 12.9021C5.76446 12.8604 7.07549 11.7685 7.40549 10.2862H6.10403C5.89657 10.2863 5.70458 10.396 5.59927 10.5747Z" fill="black"/>
<path d="M8.06807 11.7866C9.80824 14.8374 14.1977 14.835 15.9345 11.7822C16.7695 13.25 18.3999 14.1949 20.2006 14.064C20.0607 18.4665 16.4362 22.005 12.0003 22.005C7.56429 22.005 3.93973 18.4663 3.80005 14.0637C5.57877 14.1949 7.2205 13.2725 8.06807 11.7866Z" fill="black"/>
</svg>
