<svg xmlns="http://www.w3.org/2000/svg" width="16" height="16" viewBox="0 0 16 16" fill="none"><rect width="16" height="16" fill="none"/>
<path d="M5.82023 6.85414C6.04457 7.86176 6.94888 8.59946 7.99965 8.59946C9.05054 8.59946 9.95498 7.86176 10.1794 6.85414H9.89688L10.5619 2.82918L12.8133 2.09544C13.0184 2.02859 13.1305 1.80813 13.0637 1.60303C12.9968 1.3979 12.7762 1.28576 12.5712 1.35266L10.0941 2.15994C9.9555 2.20513 9.85355 2.3238 9.82978 2.46765L9.10505 6.85414H5.82023Z" fill="black"/>
<path d="M3.06355 5.78834L5.34492 4.95798L5.74122 6.04677H6.57261L6.07908 4.69077L8.36532 3.85865C8.71935 3.72977 8.70237 3.22158 8.34071 3.11647L4.98363 2.1412C4.82022 2.09373 4.64475 2.15756 4.55007 2.29901L2.60536 5.20397C2.39578 5.51706 2.70968 5.91708 3.06355 5.78834Z" fill="black"/>
<path d="M11.0664 6.85414H11.8816C12.0173 6.85414 12.1433 6.92456 12.2144 7.04013L13.1721 8.59774C12.153 8.56417 11.2855 7.83811 11.0664 6.85414Z" fill="black"/>
<path d="M3.73268 7.04643L2.81811 8.59805C3.84281 8.57024 4.71683 7.84228 4.93683 6.85414H4.06919C3.93088 6.85417 3.80289 6.92729 3.73268 7.04643Z" fill="black"/>
<path d="M5.37855 7.85438C6.53866 9.88823 9.46495 9.88662 10.6228 7.85144C11.1795 8.82999 12.2664 9.45993 13.4669 9.37264C13.3737 12.3076 10.9573 14.6666 8.00005 14.6666C5.0427 14.6666 2.62633 12.3075 2.5332 9.37243C3.71902 9.4599 4.81351 8.84499 5.37855 7.85438Z" fill="black"/>
</svg>
