<svg xmlns="http://www.w3.org/2000/svg" width="24" height="24" viewBox="0 0 24 24" fill="none"><rect width="24" height="24" fill="none"/>
<path d="M8.73156 10.2812C9.06808 11.7927 10.4245 12.8992 12.0007 12.8992C13.577 12.8992 14.9337 11.7927 15.2702 10.2812H14.8465L15.844 4.2438L19.2212 3.14319C19.5289 3.04292 19.697 2.71222 19.5967 2.40457C19.4965 2.09688 19.1655 1.92868 18.8581 2.02903L15.1424 3.23995C14.9345 3.30772 14.7815 3.48572 14.7459 3.7015L13.6588 10.2812H8.73156Z" fill="black"/>
<path d="M4.59655 8.68253L8.01861 7.43701L8.61305 9.07018H9.86014L9.11984 7.03619L12.5492 5.78801C13.0802 5.59469 13.0548 4.8324 12.5123 4.67474L7.47666 3.21183C7.23155 3.14062 6.96835 3.23637 6.82632 3.44855L3.90926 7.80598C3.59489 8.27563 4.06574 8.87566 4.59655 8.68253Z" fill="black"/>
<path d="M16.6008 10.2812H17.8236C18.0272 10.2812 18.2161 10.3869 18.3228 10.5602L19.7594 12.8966C18.2308 12.8463 16.9294 11.7572 16.6008 10.2812Z" fill="black"/>
<path d="M5.60024 10.5697L4.22839 12.8971C5.76544 12.8554 7.07647 11.7634 7.40647 10.2812H6.105C5.89754 10.2813 5.70555 10.391 5.60024 10.5697Z" fill="black"/>
<path d="M8.06905 11.7816C9.80921 14.8324 14.1986 14.83 15.9355 11.7772C16.7705 13.245 18.4008 14.1899 20.2016 14.059C20.0617 18.4615 16.4372 22 12.0013 22C7.56526 22 3.94071 18.4613 3.80103 14.0587C5.57975 14.1899 7.22148 13.2675 8.06905 11.7816Z" fill="black"/>
</svg>
