<svg xmlns="http://www.w3.org/2000/svg" width="17" height="16" viewBox="0 0 17 16" fill="none"><rect width="17" height="16" fill="none"/>
<path d="M8.96377 3.24239C8.96377 3.76837 8.53737 4.19477 8.01139 4.19477C7.48541 4.19477 7.05901 3.76837 7.05901 3.24239C7.05901 2.7164 7.48541 2.29001 8.01139 2.29001C8.53737 2.29001 8.96377 2.7164 8.96377 3.24239Z" fill="black"/>
<path fill-rule="evenodd" clip-rule="evenodd" d="M4.97646 9.15439L1.97966 6.15759V11.7942C1.97966 12.8462 2.83244 13.699 3.88441 13.699H12.1384C13.1903 13.699 14.0431 12.8462 14.0431 11.7942V6.15824L11.047 9.15439L8.01172 6.11915L4.97646 9.15439ZM12.7733 11.7942V9.21616L11.047 10.9425L8.01172 7.90726L4.97646 10.9425L3.24949 9.21554V11.7942C3.24949 12.1448 3.53375 12.4291 3.88441 12.4291H12.1384C12.489 12.4291 12.7733 12.1448 12.7733 11.7942Z" fill="black"/>
<path d="M2.29711 5.46462C2.82309 5.46462 3.24948 5.03822 3.24948 4.51224C3.24948 3.98626 2.82309 3.55987 2.29711 3.55987C1.77112 3.55987 1.34473 3.98626 1.34473 4.51224C1.34473 5.03822 1.77112 5.46462 2.29711 5.46462Z" fill="black"/>
<path d="M14.6781 4.51224C14.6781 5.03822 14.2517 5.46462 13.7257 5.46462C13.1997 5.46462 12.7733 5.03822 12.7733 4.51224C12.7733 3.98626 13.1997 3.55987 13.7257 3.55987C14.2517 3.55987 14.6781 3.98626 14.6781 4.51224Z" fill="black"/>
</svg>
