<svg xmlns="http://www.w3.org/2000/svg" width="24" height="24" viewBox="0 0 24 24" fill="none"><rect width="24" height="24" fill="none"/>
<path d="M13.4295 5.12858C13.4295 5.91755 12.7899 6.55715 12.001 6.55715C11.212 6.55715 10.5724 5.91755 10.5724 5.12858C10.5724 4.33961 11.212 3.70001 12.001 3.70001C12.7899 3.70001 13.4295 4.33961 13.4295 5.12858Z" fill="black"/>
<path fill-rule="evenodd" clip-rule="evenodd" d="M7.44857 13.9966L2.95337 9.50138V17.9563C2.95337 19.5343 4.23255 20.8134 5.81051 20.8134H18.1914C19.7694 20.8134 21.0486 19.5343 21.0486 17.9563V9.50236L16.5543 13.9966L12.0015 9.44372L7.44857 13.9966ZM19.1438 17.9563V14.0892L16.5544 16.6788L12.0015 12.1259L7.44857 16.6788L4.85813 14.0883V17.9563C4.85813 18.4823 5.28451 18.9087 5.81051 18.9087H18.1914C18.7174 18.9087 19.1438 18.4823 19.1438 17.9563Z" fill="black"/>
<path d="M3.42955 8.46194C4.21851 8.46194 4.85811 7.82234 4.85811 7.03337C4.85811 6.24439 4.21851 5.6048 3.42955 5.6048C2.64057 5.6048 2.00098 6.24439 2.00098 7.03337C2.00098 7.82234 2.64057 8.46194 3.42955 8.46194Z" fill="black"/>
<path d="M22.001 7.03337C22.001 7.82234 21.3614 8.46194 20.5724 8.46194C19.7834 8.46194 19.1438 7.82234 19.1438 7.03337C19.1438 6.24439 19.7834 5.6048 20.5724 5.6048C21.3614 5.6048 22.001 6.24439 22.001 7.03337Z" fill="black"/>
</svg>
