<svg xmlns="http://www.w3.org/2000/svg" width="16" height="16" viewBox="0 0 16 16" fill="none"><rect width="16" height="16" fill="none"/>
<path d="M8.95254 3.41905C8.95254 3.94503 8.52614 4.37143 8.00016 4.37143C7.47418 4.37143 7.04778 3.94503 7.04778 3.41905C7.04778 2.89307 7.47418 2.46667 8.00016 2.46667C8.52614 2.46667 8.95254 2.89307 8.95254 3.41905Z" fill="black"/>
<path fill-rule="evenodd" clip-rule="evenodd" d="M4.96522 9.33106L1.96842 6.33426V11.9709C1.96842 13.0228 2.82121 13.8756 3.87318 13.8756H12.1271C13.1791 13.8756 14.0319 13.0228 14.0319 11.9709V6.33491L11.0357 9.33106L8.00049 6.29581L4.96522 9.33106ZM12.7621 11.9709V9.39283L11.0357 11.1192L8.00049 8.08393L4.96522 11.1192L3.23826 9.39221V11.9709C3.23826 12.3215 3.52252 12.6058 3.87318 12.6058H12.1271C12.4778 12.6058 12.7621 12.3215 12.7621 11.9709Z" fill="black"/>
<path d="M2.28588 5.64129C2.81186 5.64129 3.23825 5.21489 3.23825 4.68891C3.23825 4.16293 2.81186 3.73653 2.28588 3.73653C1.75989 3.73653 1.3335 4.16293 1.3335 4.68891C1.3335 5.21489 1.75989 5.64129 2.28588 5.64129Z" fill="black"/>
<path d="M14.6668 4.68891C14.6668 5.21489 14.2404 5.64129 13.7145 5.64129C13.1885 5.64129 12.7621 5.21489 12.7621 4.68891C12.7621 4.16293 13.1885 3.73653 13.7145 3.73653C14.2404 3.73653 14.6668 4.16293 14.6668 4.68891Z" fill="black"/>
</svg>
