<svg xmlns="http://www.w3.org/2000/svg" width="24" height="24" viewBox="0 0 24 24" fill="none"><rect width="24" height="24" fill="none"/>
<path d="M2.87733 19.9591C2.87733 19.4926 3.25551 19.1145 3.72202 19.1145H20.278C20.7445 19.1145 21.1227 19.4926 21.1227 19.9591V20.2259C21.1227 20.6924 20.7445 21.0706 20.278 21.0706H3.72202C3.25551 21.0706 2.87733 20.6924 2.87733 20.2259V19.9591ZM2.00333 7.03833C1.94452 6.35741 2.67663 5.8922 3.26811 6.23463L6.32652 8.00529C6.67769 8.2086 7.1238 8.13348 7.38903 7.82638L11.3607 3.22758C11.6976 2.83747 12.3024 2.83747 12.6393 3.22758L16.611 7.82638C16.8762 8.13348 17.3223 8.2086 17.6735 8.00529L20.7319 6.23463C21.3234 5.8922 22.0555 6.35741 21.9967 7.03833L21.1893 16.3863C21.1516 16.823 20.7861 17.1583 20.3478 17.1583H3.65221C3.21388 17.1583 2.84837 16.823 2.81065 16.3863L2.00333 7.03833Z" fill="black"/>
</svg>
