<svg xmlns="http://www.w3.org/2000/svg" width="16" height="16" viewBox="0 0 16 16" fill="none"><rect width="16" height="16" fill="none"/>
<path d="M1.91838 13.3494C1.91838 13.0384 2.1705 12.7862 2.48151 12.7862H13.5188C13.8298 12.7862 14.0819 13.0384 14.0819 13.3494V13.5272C14.0819 13.8382 13.8298 14.0903 13.5188 14.0903H2.48151C2.1705 14.0903 1.91838 13.8382 1.91838 13.5272V13.3494ZM1.33572 4.73549C1.29651 4.28154 1.78458 3.9714 2.1789 4.1997L4.21784 5.38014C4.45196 5.51567 4.74937 5.46559 4.92618 5.26086L7.57397 2.195C7.79859 1.93492 8.20174 1.93492 8.42635 2.195L11.0741 5.26086C11.251 5.4656 11.5484 5.51567 11.7825 5.38014L13.8214 4.1997C14.2157 3.9714 14.7038 4.28155 14.6646 4.7355L14.1264 10.9675C14.1012 11.2586 13.8576 11.4822 13.5654 11.4822H2.43497C2.14275 11.4822 1.89908 11.2586 1.87393 10.9675L1.33572 4.73549Z" fill="black"/>
</svg>
