<svg xmlns="http://www.w3.org/2000/svg" width="24" height="25" viewBox="0 0 24 25" fill="none"><rect width="24" height="25" fill="none"/>
<path d="M13.4286 4.86357C13.4286 5.65254 12.789 6.29213 12 6.29213C11.211 6.29213 10.5714 5.65254 10.5714 4.86357C10.5714 4.07459 11.211 3.435 12 3.435C12.789 3.435 13.4286 4.07459 13.4286 4.86357Z" fill="black"/>
<path fill-rule="evenodd" clip-rule="evenodd" d="M7.44759 13.7316L2.95239 9.23637V17.6913C2.95239 19.2692 4.23157 20.5484 5.80953 20.5484H18.1905C19.7684 20.5484 21.0476 19.2692 21.0476 17.6913V9.23734L16.5534 13.7316L12.0005 9.17871L7.44759 13.7316ZM19.1428 17.6913V13.8242L16.5534 16.4137L12.0005 11.8609L7.44759 16.4137L4.85715 13.8233V17.6913C4.85715 18.2172 5.28354 18.6437 5.80953 18.6437H18.1905C18.7164 18.6437 19.1428 18.2172 19.1428 17.6913Z" fill="black"/>
<path d="M3.42857 8.19692C4.21754 8.19692 4.85714 7.55732 4.85714 6.76835C4.85714 5.97938 4.21754 5.33978 3.42857 5.33978C2.63959 5.33978 2 5.97938 2 6.76835C2 7.55732 2.63959 8.19692 3.42857 8.19692Z" fill="black"/>
<path d="M22 6.76835C22 7.55732 21.3604 8.19692 20.5714 8.19692C19.7825 8.19692 19.1429 7.55732 19.1429 6.76835C19.1429 5.97938 19.7825 5.33978 20.5714 5.33978C21.3604 5.33978 22 5.97938 22 6.76835Z" fill="black"/>
</svg>
