<svg xmlns="http://www.w3.org/2000/svg" width="24" height="24" viewBox="0 0 24 24" fill="none"><rect width="24" height="24" fill="none"/>
<path d="M2.8783 20.0241C2.8783 19.5576 3.25649 19.1794 3.723 19.1794H20.279C20.7455 19.1794 21.1236 19.5576 21.1236 20.0241V20.2908C21.1236 20.7573 20.7455 21.1355 20.279 21.1355H3.723C3.25649 21.1355 2.8783 20.7573 2.8783 20.2908V20.0241ZM2.00431 7.10327C1.9455 6.42235 2.6776 5.95714 3.26909 6.29957L6.3275 8.07024C6.67867 8.27354 7.12478 8.19842 7.39 7.89132L11.3617 3.29252C11.6986 2.90241 12.3033 2.90241 12.6403 3.29252L16.612 7.89133C16.8772 8.19842 17.3233 8.27354 17.6745 8.07024L20.7329 6.29958C21.3244 5.95714 22.0565 6.42235 21.9976 7.10327L21.1903 16.4513C21.1526 16.888 20.7871 17.2233 20.3488 17.2233H3.65319C3.21485 17.2233 2.84935 16.888 2.81163 16.4513L2.00431 7.10327Z" fill="black"/>
</svg>
