<svg xmlns="http://www.w3.org/2000/svg" width="17" height="16" viewBox="0 0 17 16" fill="none"><rect width="17" height="16" fill="none"/>
<path d="M1.92961 13.3094C1.92961 12.9984 2.18173 12.7463 2.49274 12.7463H13.53C13.8411 12.7463 14.0932 12.9984 14.0932 13.3094V13.4873C14.0932 13.7983 13.8411 14.0504 13.53 14.0504H2.49274C2.18173 14.0504 1.92961 13.7983 1.92961 13.4873V13.3094ZM1.34695 4.69555C1.30774 4.2416 1.79581 3.93146 2.19013 4.15975L4.22908 5.34019C4.46319 5.47573 4.7606 5.42565 4.93741 5.22091L7.58521 2.15505C7.80982 1.89497 8.21297 1.89497 8.43758 2.15505L11.0854 5.22092C11.2622 5.42565 11.5596 5.47573 11.7937 5.34019L13.8327 4.15975C14.227 3.93146 14.715 4.2416 14.6758 4.69555L14.1376 10.9275C14.1125 11.2187 13.8688 11.4422 13.5766 11.4422H2.4462C2.15398 11.4422 1.91031 11.2187 1.88516 10.9275L1.34695 4.69555Z" fill="black"/>
</svg>
