<svg xmlns="http://www.w3.org/2000/svg" width="24" height="24" viewBox="0 0 24 24" fill="none"><rect width="24" height="24" fill="none"/>
<path d="M9.00103 2H8.00102V5.00003H9.00103V2Z" fill="black"/>
<path fill-rule="evenodd" clip-rule="evenodd" d="M19.2011 5.99986H5.701C5.4623 5.99986 5.23338 6.09351 5.0646 6.26021C4.89581 6.42691 4.80099 6.653 4.80099 6.88875V14.8888C4.80099 15.8318 5.18028 16.7362 5.85542 17.403C6.53055 18.0698 7.44624 18.4444 8.40102 18.4444H13.8011C14.7559 18.4444 15.6715 18.0698 16.3467 17.403C17.0218 16.7362 17.4011 15.8318 17.4011 14.8888V12.2221H19.2011C19.6785 12.2221 20.1364 12.0348 20.4739 11.7014C20.8115 11.368 21.0011 10.9158 21.0011 10.4443V7.77765C21.0011 7.30615 20.8115 6.85396 20.4739 6.52056C20.1364 6.18716 19.6785 5.99986 19.2011 5.99986ZM17.4011 10.4443V7.77765H19.2011V10.4443H17.4011Z" fill="black"/>
<path d="M19.2011 20.2222H3.00098V22H19.2011V20.2222Z" fill="black"/>
<path d="M11.001 2H12.001V5.00003H11.001V2Z" fill="black"/>
<path d="M15.0011 2H14.0011V5.00003H15.0011V2Z" fill="black"/>
</svg>
