<svg xmlns="http://www.w3.org/2000/svg" width="24" height="24" viewBox="0 0 24 24" fill="none"><rect width="24" height="24" fill="none"/>
<path d="M9.00006 2H8.00005V5.00003H9.00006V2Z" fill="black"/>
<path fill-rule="evenodd" clip-rule="evenodd" d="M19.2001 5.99986H5.70002C5.46133 5.99986 5.23241 6.09351 5.06362 6.26021C4.89484 6.42691 4.80002 6.653 4.80002 6.88875V14.8888C4.80002 15.8318 5.1793 16.7362 5.85444 17.403C6.52958 18.0698 7.44526 18.4444 8.40005 18.4444H13.8001C14.7549 18.4444 15.6706 18.0698 16.3457 17.403C17.0208 16.7362 17.4001 15.8318 17.4001 14.8888V12.2221H19.2001C19.6775 12.2221 20.1354 12.0348 20.4729 11.7014C20.8105 11.368 21.0002 10.9158 21.0002 10.4443V7.77765C21.0002 7.30615 20.8105 6.85396 20.4729 6.52056C20.1354 6.18716 19.6775 5.99986 19.2001 5.99986ZM17.4001 10.4443V7.77765H19.2001V10.4443H17.4001Z" fill="black"/>
<path d="M19.2001 20.2222H3V22H19.2001V20.2222Z" fill="black"/>
<path d="M11.0001 2H12.0001V5.00003H11.0001V2Z" fill="black"/>
<path d="M15.0001 2H14.0001V5.00003H15.0001V2Z" fill="black"/>
</svg>
