<svg xmlns="http://www.w3.org/2000/svg" width="16" height="16" viewBox="0 0 16 16" fill="none"><rect width="16" height="16" fill="none"/>
<path d="M6.00004 1.33331H5.33336V3.33333H6.00004V1.33331Z" fill="black"/>
<path fill-rule="evenodd" clip-rule="evenodd" d="M12.8001 3.99989H3.80002C3.64088 3.99989 3.48827 4.06232 3.37575 4.17345C3.26323 4.28459 3.20001 4.43532 3.20001 4.59248V9.92586C3.20001 10.5545 3.45287 11.1574 3.90296 11.602C4.35305 12.0465 4.96351 12.2963 5.60003 12.2963H9.20006C9.83659 12.2963 10.447 12.0465 10.8971 11.602C11.3472 11.1574 11.6001 10.5545 11.6001 9.92586V8.14807H12.8001C13.1184 8.14807 13.4236 8.0232 13.6486 7.80093C13.8737 7.57867 14.0001 7.27721 14.0001 6.96287V5.18508C14.0001 4.87075 13.8737 4.56929 13.6486 4.34702C13.4236 4.12475 13.1184 3.99989 12.8001 3.99989ZM11.6001 6.96287V5.18508H12.8001V6.96287H11.6001Z" fill="black"/>
<path d="M12.8001 13.4815H2V14.6666H12.8001V13.4815Z" fill="black"/>
<path d="M7.33338 1.33331H8.00005V3.33333H7.33338V1.33331Z" fill="black"/>
<path d="M10.0001 1.33331H9.3334V3.33333H10.0001V1.33331Z" fill="black"/>
</svg>
