<svg xmlns="http://www.w3.org/2000/svg" width="17" height="17" viewBox="0 0 17 17" fill="none"><rect width="17" height="17" fill="none"/>
<path d="M6.00492 1.34003H5.33825V3.34004H6.00492V1.34003Z" fill="black"/>
<path fill-rule="evenodd" clip-rule="evenodd" d="M12.805 4.0066H3.8049C3.64577 4.0066 3.49315 4.06903 3.38063 4.18017C3.26811 4.2913 3.20489 4.44203 3.20489 4.5992V9.93258C3.20489 10.5612 3.45775 11.1642 3.90784 11.6087C4.35793 12.0532 4.96839 12.303 5.60491 12.303H9.20495C9.84147 12.303 10.4519 12.0532 10.902 11.6087C11.3521 11.1642 11.605 10.5612 11.605 9.93258V8.15478H12.805C13.1232 8.15478 13.4285 8.02992 13.6535 7.80765C13.8786 7.58538 14.005 7.28392 14.005 6.96959V5.19179C14.005 4.87746 13.8786 4.576 13.6535 4.35373C13.4285 4.13147 13.1232 4.0066 12.805 4.0066ZM11.605 6.96959V5.19179H12.805V6.96959H11.605Z" fill="black"/>
<path d="M12.805 13.4882H2.00488V14.6734H12.805V13.4882Z" fill="black"/>
<path d="M7.33826 1.34003H8.00493V3.34004H7.33826V1.34003Z" fill="black"/>
<path d="M10.005 1.34003H9.33828V3.34004H10.005V1.34003Z" fill="black"/>
</svg>
