<svg xmlns="http://www.w3.org/2000/svg" width="16" height="16" viewBox="0 0 16 16" fill="none"><rect width="16" height="16" fill="none"/>
<path fill-rule="evenodd" clip-rule="evenodd" d="M4.9237 1.33334C4.64048 1.33334 4.41089 1.56294 4.41089 1.84616V2.87179L4.41093 2.87844C3.26361 2.96582 2.35986 3.92444 2.35986 5.09415V12.4445C2.35986 13.6718 3.35477 14.6667 4.58206 14.6667H11.4196C12.6469 14.6667 13.6418 13.6718 13.6418 12.4445V5.09415C13.6418 3.92447 12.7381 2.96586 11.5908 2.87845L11.5908 2.87179V1.84616C11.5908 1.56294 11.3612 1.33334 11.078 1.33334C10.7948 1.33334 10.5652 1.56294 10.5652 1.84616V2.87179L8.5136 2.87195V1.84616C8.5136 1.56294 8.28401 1.33334 8.00079 1.33334C7.71757 1.33334 7.48797 1.56294 7.48797 1.84616V2.87179L5.43652 2.87195V1.84616C5.43652 1.56294 5.20692 1.33334 4.9237 1.33334ZM8.4709 6.33328C8.77772 6.33328 9.02645 6.58201 9.02645 6.88883C9.02645 7.19565 8.77772 7.44438 8.4709 7.44438H5.13761C4.83079 7.44438 4.58206 7.19565 4.58206 6.88883C4.58206 6.58201 4.83079 6.33328 5.13761 6.33328H8.4709ZM11.8042 9.66657C11.8042 9.35975 11.5555 9.11102 11.2486 9.11102L5.13761 9.11102C4.83079 9.11102 4.58206 9.35975 4.58206 9.66657C4.58206 9.97339 4.83079 10.2221 5.13761 10.2221H11.2486C11.5555 10.2221 11.8042 9.97339 11.8042 9.66657Z" fill="black"/>
</svg>
