<svg xmlns="http://www.w3.org/2000/svg" width="25" height="24" viewBox="0 0 25 24" fill="none"><rect width="25" height="24" fill="none"/>
<path fill-rule="evenodd" clip-rule="evenodd" d="M7.39068 2C6.96585 2 6.62146 2.34439 6.62146 2.76922V4.30766L6.62153 4.31765C4.90054 4.44871 3.54492 5.88665 3.54492 7.6412V18.6667C3.54492 20.5076 5.03729 22 6.87821 22H17.1345C18.9754 22 20.4678 20.5076 20.4678 18.6667V7.64121C20.4678 5.88669 19.1122 4.44878 17.3913 4.31766L17.3914 4.30766V2.76922C17.3914 2.34439 17.047 2 16.6221 2C16.1973 2 15.8529 2.34439 15.8529 2.76922V4.30766L12.7755 4.30791V2.76922C12.7755 2.34439 12.4311 2 12.0063 2C11.5815 2 11.2371 2.34439 11.2371 2.76922V4.30766L8.1599 4.30791V2.76922C8.1599 2.34439 7.81551 2 7.39068 2ZM12.7115 9.49991C13.1717 9.49991 13.5448 9.873 13.5448 10.3332C13.5448 10.7935 13.1717 11.1666 12.7115 11.1666H7.71154C7.2513 11.1666 6.87821 10.7935 6.87821 10.3332C6.87821 9.873 7.2513 9.49991 7.71154 9.49991H12.7115ZM17.7114 14.4998C17.7114 14.0396 17.3383 13.6665 16.8781 13.6665L7.71154 13.6665C7.2513 13.6665 6.87821 14.0396 6.87821 14.4998C6.87821 14.9601 7.2513 15.3332 7.71154 15.3332H16.8781C17.3383 15.3332 17.7114 14.9601 17.7114 14.4998Z" fill="black"/>
</svg>
