<svg xmlns="http://www.w3.org/2000/svg" width="17" height="17" viewBox="0 0 17 17" fill="none"><rect width="17" height="17" fill="none"/>
<path fill-rule="evenodd" clip-rule="evenodd" d="M4.93884 1.34C4.65562 1.34 4.42603 1.56959 4.42603 1.85281V2.87844L4.42607 2.8851C3.27875 2.97247 2.375 3.93109 2.375 5.1008V12.4511C2.375 13.6784 3.36991 14.6733 4.5972 14.6733H11.4347C12.662 14.6733 13.6569 13.6784 13.6569 12.4511V5.1008C13.6569 3.93112 12.7532 2.97251 11.6059 2.8851L11.606 2.87844V1.85281C11.606 1.56959 11.3764 1.34 11.0931 1.34C10.8099 1.34 10.5803 1.56959 10.5803 1.85281V2.87844L8.52874 2.87861V1.85281C8.52874 1.56959 8.29914 1.34 8.01592 1.34C7.7327 1.34 7.50311 1.56959 7.50311 1.85281V2.87844L5.45165 2.87861V1.85281C5.45165 1.56959 5.22206 1.34 4.93884 1.34ZM8.48603 6.33993C8.79286 6.33993 9.04158 6.58866 9.04158 6.89548C9.04158 7.2023 8.79285 7.45103 8.48603 7.45103H5.15274C4.84592 7.45103 4.59719 7.2023 4.59719 6.89548C4.59719 6.58866 4.84592 6.33993 5.15274 6.33993H8.48603ZM11.8193 9.67323C11.8193 9.36641 11.5706 9.11768 11.2638 9.11768L5.15274 9.11768C4.84592 9.11768 4.59719 9.36641 4.59719 9.67323C4.59719 9.98005 4.84592 10.2288 5.15274 10.2288H11.2638C11.5706 10.2288 11.8193 9.98005 11.8193 9.67323Z" fill="black"/>
</svg>
