<svg xmlns="http://www.w3.org/2000/svg" width="24" height="24" viewBox="0 0 24 24" fill="none"><rect width="24" height="24" fill="none"/>
<path fill-rule="evenodd" clip-rule="evenodd" d="M7.38678 2C6.96195 2 6.61756 2.34439 6.61756 2.76922V4.30766L6.61762 4.31765C4.89663 4.44871 3.54102 5.88665 3.54102 7.6412V18.6667C3.54102 20.5076 5.03338 22 6.87431 22H17.1306C18.9715 22 20.4639 20.5076 20.4639 18.6667V7.64121C20.4639 5.88669 19.1083 4.44878 17.3874 4.31766L17.3874 4.30766V2.76922C17.3874 2.34439 17.0431 2 16.6182 2C16.1934 2 15.849 2.34439 15.849 2.76922V4.30766L12.7716 4.30791V2.76922C12.7716 2.34439 12.4272 2 12.0024 2C11.5776 2 11.2332 2.34439 11.2332 2.76922V4.30766L8.156 4.30791V2.76922C8.156 2.34439 7.81161 2 7.38678 2ZM12.7076 9.49991C13.1678 9.49991 13.5409 9.873 13.5409 10.3332C13.5409 10.7935 13.1678 11.1666 12.7076 11.1666H7.70763C7.2474 11.1666 6.87431 10.7935 6.87431 10.3332C6.87431 9.873 7.2474 9.49991 7.70763 9.49991H12.7076ZM17.7075 14.4998C17.7075 14.0396 17.3344 13.6665 16.8742 13.6665L7.70763 13.6665C7.2474 13.6665 6.87431 14.0396 6.87431 14.4998C6.87431 14.9601 7.2474 15.3332 7.70763 15.3332H16.8742C17.3344 15.3332 17.7075 14.9601 17.7075 14.4998Z" fill="black"/>
</svg>
