<svg xmlns="http://www.w3.org/2000/svg" width="24" height="25" viewBox="0 0 24 25" fill="none"><rect width="24" height="25" fill="none"/>
<path d="M10.22 2.505C5.96402 2.505 2.5021 5.96693 2.5021 10.2229C2.5021 11.6849 2.90654 13.0911 3.67462 14.3082L2.54291 17.1245C2.45386 17.3471 2.50581 17.5957 2.67649 17.7627C2.79152 17.8777 2.94365 17.9371 3.09578 17.9371C3.16999 17.9371 3.2442 17.9223 3.31841 17.8926L6.13471 16.7646C7.35176 17.5364 8.75805 17.9408 10.22 17.9408C14.476 17.9408 17.9379 14.4789 17.9379 10.2229C17.9379 5.96693 14.476 2.505 10.22 2.505Z" fill="black"/>
<path d="M21.4555 20.6892L20.4314 18.129C21.129 17.0084 21.5 15.7208 21.5 14.3776C21.5 12.2255 20.5427 10.2923 19.0288 8.9862C19.0845 9.38693 19.1253 9.80623 19.1253 10.2218C19.1253 15.1346 15.1328 19.1271 10.22 19.1271C9.81557 19.1271 9.38885 19.09 8.99183 19.038C10.2979 20.5445 12.2274 21.5018 14.3758 21.5018C15.719 21.5018 17.0066 21.1308 18.1272 20.4332L20.6874 21.4573C20.7579 21.487 20.8358 21.5018 20.9101 21.5018C21.0659 21.5018 21.218 21.4425 21.3293 21.3274C21.4963 21.1605 21.5446 20.9081 21.4555 20.6892Z" fill="black"/>
</svg>
