<svg xmlns="http://www.w3.org/2000/svg" width="16" height="16" viewBox="0 0 16 16" fill="none"><rect width="16" height="16" fill="none"/>
<path d="M6.81317 1.33475C3.97585 1.33475 1.6679 3.6427 1.6679 6.48002C1.6679 7.45465 1.93753 8.39218 2.44959 9.20354L1.69511 11.0811C1.63574 11.2295 1.67037 11.3952 1.78416 11.5065C1.86085 11.5832 1.96227 11.6228 2.06369 11.6228C2.11316 11.6228 2.16264 11.6129 2.21211 11.5931L4.08964 10.8411C4.90101 11.3557 5.83854 11.6253 6.81317 11.6253C9.65049 11.6253 11.9584 9.31734 11.9584 6.48002C11.9584 3.6427 9.65052 1.33475 6.81317 1.33475Z" fill="black"/>
<path d="M14.3035 13.4576L13.6208 11.7507C14.0858 11.0037 14.3332 10.1453 14.3332 9.24981C14.3332 7.81507 13.695 6.52628 12.6857 5.65554C12.7228 5.9227 12.75 6.20223 12.75 6.47928C12.75 9.75444 10.0883 12.4161 6.81318 12.4161C6.54355 12.4161 6.25907 12.3914 5.99439 12.3568C6.86513 13.3611 8.15144 13.9993 9.58371 13.9993C10.4792 13.9993 11.3376 13.7519 12.0846 13.2869L13.7915 13.9696C13.8385 13.9894 13.8904 13.9993 13.9399 13.9993C14.0438 13.9993 14.1452 13.9597 14.2194 13.883C14.3307 13.7717 14.3629 13.6035 14.3035 13.4576Z" fill="black"/>
</svg>
