<svg xmlns="http://www.w3.org/2000/svg" width="17" height="17" viewBox="0 0 17 17" fill="none"><rect width="17" height="17" fill="none"/>
<path d="M6.81171 1.67C3.97439 1.67 1.66644 3.97795 1.66644 6.81527C1.66644 7.7899 1.93607 8.72743 2.44812 9.5388L1.69365 11.4163C1.63428 11.5647 1.66891 11.7305 1.7827 11.8418C1.85938 11.9185 1.96081 11.9581 2.06223 11.9581C2.1117 11.9581 2.16117 11.9482 2.21065 11.9284L4.08818 11.1764C4.89955 11.6909 5.83707 11.9605 6.81171 11.9605C9.64903 11.9605 11.957 9.65259 11.957 6.81527C11.957 3.97795 9.64905 1.67 6.81171 1.67Z" fill="black"/>
<path d="M14.302 13.7928L13.6193 12.086C14.0844 11.3389 14.3317 10.4805 14.3317 9.58506C14.3317 8.15032 13.6935 6.86153 12.6842 5.99079C12.7214 6.25795 12.7486 6.53748 12.7486 6.81453C12.7486 10.0897 10.0869 12.7514 6.81171 12.7514C6.54208 12.7514 6.25761 12.7266 5.99292 12.692C6.86366 13.6963 8.14998 14.3345 9.58224 14.3345C10.4777 14.3345 11.3361 14.0872 12.0831 13.6221L13.79 14.3049C13.837 14.3247 13.8889 14.3345 13.9384 14.3345C14.0423 14.3345 14.1437 14.295 14.2179 14.2183C14.3293 14.107 14.3614 13.9388 14.302 13.7928Z" fill="black"/>
</svg>
