<svg xmlns="http://www.w3.org/2000/svg" width="24" height="24" viewBox="0 0 24 24" fill="none"><rect width="24" height="24" fill="none"/>
<path d="M10.22 2.00214C5.96402 2.00214 2.5021 5.46406 2.5021 9.72004C2.5021 11.182 2.90654 12.5883 3.67462 13.8053L2.54291 16.6216C2.45386 16.8443 2.50581 17.0929 2.67649 17.2598C2.79152 17.3749 2.94365 17.4342 3.09578 17.4342C3.16999 17.4342 3.2442 17.4194 3.31841 17.3897L6.13471 16.2617C7.35176 17.0335 8.75805 17.4379 10.22 17.4379C14.476 17.4379 17.9379 13.976 17.9379 9.72004C17.9379 5.46406 14.476 2.00214 10.22 2.00214Z" fill="black"/>
<path d="M21.4555 20.1864L20.4314 17.6261C21.129 16.5055 21.5 15.2179 21.5 13.8747C21.5 11.7226 20.5427 9.78944 19.0288 8.48333C19.0845 8.88407 19.1253 9.30336 19.1253 9.71894C19.1253 14.6317 15.1328 18.6242 10.22 18.6242C9.81557 18.6242 9.38885 18.5871 8.99183 18.5352C10.2979 20.0416 12.2274 20.999 14.3758 20.999C15.719 20.999 17.0066 20.6279 18.1272 19.9303L20.6874 20.9544C20.7579 20.9841 20.8358 20.999 20.9101 20.999C21.0659 20.999 21.218 20.9396 21.3293 20.8246C21.4963 20.6576 21.5446 20.4053 21.4555 20.1864Z" fill="black"/>
</svg>
