<svg xmlns="http://www.w3.org/2000/svg" width="24" height="24" viewBox="0 0 24 24" fill="none"><rect width="24" height="24" fill="none"/>
<path d="M10.221 2.00214C5.965 2.00214 2.50307 5.46406 2.50307 9.72004C2.50307 11.182 2.90752 12.5883 3.6756 13.8053L2.54389 16.6216C2.45484 16.8443 2.50678 17.0929 2.67747 17.2598C2.79249 17.3749 2.94463 17.4342 3.09676 17.4342C3.17097 17.4342 3.24518 17.4194 3.31939 17.3897L6.13568 16.2617C7.35274 17.0335 8.75903 17.4379 10.221 17.4379C14.477 17.4379 17.9389 13.976 17.9389 9.72004C17.9389 5.46406 14.477 2.00214 10.221 2.00214Z" fill="black"/>
<path d="M21.4565 20.1864L20.4324 17.6261C21.13 16.5055 21.501 15.2179 21.501 13.8747C21.501 11.7226 20.5437 9.78944 19.0298 8.48333C19.0855 8.88407 19.1263 9.30336 19.1263 9.71894C19.1263 14.6317 15.1337 18.6242 10.221 18.6242C9.81654 18.6242 9.38983 18.5871 8.9928 18.5352C10.2989 20.0416 12.2284 20.999 14.3768 20.999C15.72 20.999 17.0076 20.6279 18.1281 19.9303L20.6884 20.9544C20.7589 20.9841 20.8368 20.999 20.911 20.999C21.0669 20.999 21.219 20.9396 21.3303 20.8246C21.4973 20.6576 21.5455 20.4053 21.4565 20.1864Z" fill="black"/>
</svg>
