<svg xmlns="http://www.w3.org/2000/svg" width="25" height="24" viewBox="0 0 25 24" fill="none"><rect width="25" height="24" fill="none"/>
<path fill-rule="evenodd" clip-rule="evenodd" d="M20.4041 9.14538L21.1243 9.86538C21.6945 10.4254 22.0046 11.1854 22.0046 11.9854C22.0147 12.7854 21.7045 13.5464 21.1443 14.1154C21.1343 14.1264 21.1243 14.1354 21.1143 14.1454L20.4041 14.8554C20.124 15.1354 19.9639 15.5154 19.9639 15.9164V16.9454C19.9639 18.6054 18.6134 19.9564 16.9528 19.9564H15.9224C15.5223 19.9564 15.1422 20.1154 14.8621 20.3954L14.1418 21.1154C13.5516 21.7064 12.7813 21.9954 12.011 21.9954C11.2407 21.9954 10.4705 21.7064 9.88025 21.1264L9.14999 20.3954C8.86989 20.1154 8.48975 19.9564 8.0896 19.9564H7.05923C5.39863 19.9564 4.04814 18.6054 4.04814 16.9454V15.9164C4.04814 15.5154 3.88808 15.1354 3.60798 14.8454L2.88772 14.1354C1.71729 12.9664 1.70729 11.0554 2.87772 9.87638L3.60798 9.14538C3.88808 8.86538 4.04814 8.48538 4.04814 8.07538V7.05538C4.04814 5.39538 5.39863 4.04638 7.05923 4.04638H8.0896C8.48975 4.04638 8.86989 3.88538 9.14999 3.60538L9.87025 2.88538C11.0407 1.70638 12.9514 1.70638 14.1318 2.87638L14.8621 3.60538C15.1422 3.88538 15.5223 4.04638 15.9224 4.04638H16.9528C18.6134 4.04638 19.9639 5.39538 19.9639 7.05538V8.08638C19.9639 8.48538 20.124 8.86538 20.4041 9.14538ZM9.4301 15.4455C9.67018 15.4455 9.89026 15.3555 10.0503 15.1855L15.1922 10.0465C15.5323 9.70648 15.5323 9.14548 15.1922 8.80548C14.8521 8.46648 14.3019 8.46648 13.9617 8.80548L8.81987 13.9455C8.47975 14.2855 8.47975 14.8455 8.81987 15.1855C8.97993 15.3555 9.20001 15.4455 9.4301 15.4455ZM13.7016 14.5655C13.7016 15.0555 14.0917 15.4455 14.5819 15.4455C15.0621 15.4455 15.4522 15.0555 15.4522 14.5655C15.4522 14.0865 15.0621 13.6955 14.5819 13.6955C14.0917 13.6955 13.7016 14.0865 13.7016 14.5655ZM9.44011 8.55559C9.92029 8.55559 10.3104 8.94559 10.3104 9.42559C10.3104 9.91659 9.92029 10.3056 9.44011 10.3056C8.95994 10.3056 8.55979 9.91659 8.55979 9.42559C8.55979 8.94559 8.95994 8.55559 9.44011 8.55559Z" fill="black"/>
</svg>
