<svg xmlns="http://www.w3.org/2000/svg" width="24" height="24" viewBox="0 0 24 24" fill="none"><rect width="24" height="24" fill="none"/>
<path fill-rule="evenodd" clip-rule="evenodd" d="M22.079 8.57445L22.9433 9.43845C23.6276 10.1105 23.9997 11.0225 23.9997 11.9825C24.0117 12.9425 23.6396 13.8557 22.9673 14.5385C22.9553 14.5517 22.9433 14.5625 22.9313 14.5745L22.079 15.4265C21.7429 15.7625 21.5508 16.2185 21.5508 16.6997V17.9345C21.5508 19.9265 19.9302 21.5477 17.9375 21.5477H16.7011C16.2209 21.5477 15.7647 21.7385 15.4286 22.0745L14.5643 22.9385C13.856 23.6477 12.9317 23.9945 12.0074 23.9945C11.083 23.9945 10.1587 23.6477 9.45045 22.9517L8.57413 22.0745C8.23801 21.7385 7.78184 21.5477 7.30167 21.5477H6.06522C4.0725 21.5477 2.45191 19.9265 2.45191 17.9345V16.6997C2.45191 16.2185 2.25984 15.7625 1.92372 15.4145L1.0594 14.5625C-0.345106 13.1597 -0.35711 10.8665 1.0474 9.45165L1.92372 8.57445C2.25984 8.23845 2.45191 7.78245 2.45191 7.29045V6.06645C2.45191 4.07445 4.0725 2.45565 6.06522 2.45565H7.30167C7.78184 2.45565 8.23801 2.26245 8.57413 1.92645L9.43844 1.06245C10.8429 -0.352346 13.1358 -0.352346 14.5523 1.05165L15.4286 1.92645C15.7647 2.26245 16.2209 2.45565 16.7011 2.45565H17.9375C19.9302 2.45565 21.5508 4.07445 21.5508 6.06645V7.30365C21.5508 7.78245 21.7429 8.23845 22.079 8.57445ZM8.91026 16.1346C9.19836 16.1346 9.46246 16.0266 9.65452 15.8226L15.8248 9.65578C16.2329 9.24778 16.2329 8.57458 15.8248 8.16658C15.4166 7.75978 14.7564 7.75978 14.3482 8.16658L8.17799 14.3346C7.76984 14.7426 7.76984 15.4146 8.17799 15.8226C8.37006 16.0266 8.63416 16.1346 8.91026 16.1346ZM14.0361 15.0786C14.0361 15.6666 14.5042 16.1346 15.0924 16.1346C15.6687 16.1346 16.1368 15.6666 16.1368 15.0786C16.1368 14.5038 15.6687 14.0346 15.0924 14.0346C14.5042 14.0346 14.0361 14.5038 14.0361 15.0786ZM8.92228 7.8667C9.49848 7.8667 9.96665 8.3347 9.96665 8.9107C9.96665 9.4999 9.49848 9.9667 8.92228 9.9667C8.34607 9.9667 7.86589 9.4999 7.86589 8.9107C7.86589 8.3347 8.34607 7.8667 8.92228 7.8667Z" fill="black"/>
</svg>
