<svg xmlns="http://www.w3.org/2000/svg" width="16" height="16" viewBox="0 0 16 16" fill="none"><rect width="16" height="16" fill="none"/>
<path fill-rule="evenodd" clip-rule="evenodd" d="M13.5994 6.09691L14.0795 6.57691C14.4597 6.95025 14.6664 7.45691 14.6664 7.99025C14.6731 8.52358 14.4664 9.03091 14.0929 9.41025C14.0862 9.41758 14.0795 9.42358 14.0729 9.43025L13.5994 9.90358C13.4126 10.0902 13.3059 10.3436 13.3059 10.6109V11.2969C13.3059 12.4036 12.4056 13.3042 11.2985 13.3042H10.6116C10.3449 13.3042 10.0914 13.4102 9.9047 13.5969L9.42453 14.0769C9.03105 14.4709 8.51753 14.6636 8.00401 14.6636C7.49049 14.6636 6.97697 14.4709 6.5835 14.0842L6.09666 13.5969C5.90992 13.4102 5.6565 13.3042 5.38973 13.3042H4.70282C3.59575 13.3042 2.69542 12.4036 2.69542 11.2969V10.6109C2.69542 10.3436 2.58872 10.0902 2.40198 9.89691L1.92181 9.42358C1.14153 8.64425 1.13486 7.37025 1.91514 6.58425L2.40198 6.09691C2.58872 5.91025 2.69542 5.65691 2.69542 5.38358V4.70358C2.69542 3.59691 3.59575 2.69758 4.70282 2.69758H5.38973C5.6565 2.69758 5.90992 2.59025 6.09666 2.40358L6.57683 1.92358C7.35711 1.13758 8.63091 1.13758 9.41786 1.91758L9.9047 2.40358C10.0914 2.59025 10.3449 2.69758 10.6116 2.69758H11.2985C12.4056 2.69758 13.3059 3.59691 13.3059 4.70358V5.39091C13.3059 5.65691 13.4126 5.91025 13.5994 6.09691ZM6.28339 10.297C6.44345 10.297 6.59017 10.237 6.69688 10.1236L10.1248 6.69765C10.3515 6.47098 10.3515 6.09698 10.1248 5.87032C9.89804 5.64432 9.53124 5.64432 9.30449 5.87032L5.87658 9.29698C5.64983 9.52365 5.64983 9.89698 5.87658 10.1236C5.98328 10.237 6.13 10.297 6.28339 10.297ZM9.13106 9.71034C9.13106 10.037 9.39116 10.297 9.71794 10.297C10.0381 10.297 10.2982 10.037 10.2982 9.71034C10.2982 9.391 10.0381 9.13034 9.71794 9.13034C9.39116 9.13034 9.13106 9.391 9.13106 9.71034ZM6.29007 5.70372C6.61019 5.70372 6.87028 5.96372 6.87028 6.28372C6.87028 6.61105 6.61019 6.87039 6.29007 6.87039C5.96996 6.87039 5.70319 6.61105 5.70319 6.28372C5.70319 5.96372 5.96996 5.70372 6.29007 5.70372Z" fill="black"/>
</svg>
