<svg xmlns="http://www.w3.org/2000/svg" width="17" height="16" viewBox="0 0 17 16" fill="none"><rect width="17" height="16" fill="none"/>
<path fill-rule="evenodd" clip-rule="evenodd" d="M13.6062 6.10359L14.0864 6.58359C14.4665 6.95692 14.6733 7.46359 14.6733 7.99692C14.6799 8.53025 14.4732 9.03759 14.0997 9.41692C14.0931 9.42425 14.0864 9.43025 14.0797 9.43692L13.6062 9.91025C13.4195 10.0969 13.3128 10.3503 13.3128 10.6176V11.3036C13.3128 12.4103 12.4124 13.3109 11.3054 13.3109H10.6185C10.3517 13.3109 10.0983 13.4169 9.91154 13.6036L9.43136 14.0836C9.03789 14.4776 8.52437 14.6703 8.01085 14.6703C7.49733 14.6703 6.98381 14.4776 6.59033 14.0909L6.10349 13.6036C5.91676 13.4169 5.66333 13.3109 5.39657 13.3109H4.70965C3.60259 13.3109 2.70226 12.4103 2.70226 11.3036V10.6176C2.70226 10.3503 2.59555 10.0969 2.40882 9.90359L1.92865 9.43025C1.14836 8.65092 1.14169 7.37692 1.92198 6.59092L2.40882 6.10359C2.59555 5.91692 2.70226 5.66359 2.70226 5.39025V4.71025C2.70226 3.60359 3.60259 2.70425 4.70965 2.70425H5.39657C5.66333 2.70425 5.91676 2.59692 6.10349 2.41025L6.58367 1.93025C7.36395 1.14425 8.63774 1.14425 9.4247 1.92425L9.91154 2.41025C10.0983 2.59692 10.3517 2.70425 10.6185 2.70425H11.3054C12.4124 2.70425 13.3128 3.60359 13.3128 4.71025V5.39759C13.3128 5.66359 13.4195 5.91692 13.6062 6.10359ZM6.29023 10.3037C6.45029 10.3037 6.59701 10.2437 6.70371 10.1303L10.1316 6.70432C10.3584 6.47766 10.3584 6.10366 10.1316 5.87699C9.90487 5.65099 9.53807 5.65099 9.31132 5.87699L5.88342 9.30366C5.65667 9.53032 5.65667 9.90366 5.88342 10.1303C5.99012 10.2437 6.13684 10.3037 6.29023 10.3037ZM9.1379 9.71701C9.1379 10.0437 9.39799 10.3037 9.72478 10.3037C10.0449 10.3037 10.305 10.0437 10.305 9.71701C10.305 9.39768 10.0449 9.13701 9.72478 9.13701C9.39799 9.13701 9.1379 9.39768 9.1379 9.71701ZM6.29691 5.71039C6.61702 5.71039 6.87712 5.97039 6.87712 6.29039C6.87712 6.61772 6.61702 6.87706 6.29691 6.87706C5.97679 6.87706 5.71003 6.61772 5.71003 6.29039C5.71003 5.97039 5.97679 5.71039 6.29691 5.71039Z" fill="black"/>
</svg>
