<svg xmlns="http://www.w3.org/2000/svg" width="24" height="24" viewBox="0 0 24 24" fill="none"><rect width="24" height="24" fill="none"/>
<path fill-rule="evenodd" clip-rule="evenodd" d="M3.73851 2C2.7789 2 2.00098 2.77792 2.00098 3.73753V20.2625C2.00098 21.2221 2.7789 22 3.73851 22H12.8895C11.1691 20.6957 10.0578 18.6299 10.0578 16.3045C10.0578 12.6692 12.7734 9.66827 16.2867 9.21953V3.73753C16.2867 2.77792 15.5088 2 14.5492 2H3.73851ZM12.7773 2.00004V3.98841C12.7773 4.82807 13.458 5.50876 14.2976 5.50876H16.286V4.20561H14.2976C14.1777 4.20561 14.0804 4.10837 14.0804 3.98841V2.00004H12.7773ZM3.81916 11.7728C3.81916 11.3963 4.12442 11.091 4.50098 11.091H6.7737C7.15026 11.091 7.45552 11.3963 7.45552 11.7728C7.45552 12.1494 7.15026 12.4547 6.7737 12.4547H4.50098C4.12442 12.4547 3.81916 12.1494 3.81916 11.7728ZM4.50098 7.45455C4.12442 7.45455 3.81916 7.75981 3.81916 8.13636C3.81916 8.51292 4.12442 8.81818 4.50098 8.81818H9.50098C9.87753 8.81818 10.1828 8.51292 10.1828 8.13636C10.1828 7.75981 9.87753 7.45455 9.50097 7.45455H4.50098Z" fill="black"/>
<path fill-rule="evenodd" clip-rule="evenodd" d="M17.2195 21.6949C20.186 21.6949 22.5907 19.2901 22.5907 16.3237C22.5907 13.3572 20.186 10.9524 17.2195 10.9524C14.253 10.9524 11.8483 13.3572 11.8483 16.3237C11.8483 19.2901 14.253 21.6949 17.2195 21.6949ZM17.5852 13.9165C17.7631 13.7672 18.0283 13.7905 18.1776 13.9684L19.8013 15.9034C19.8712 15.9867 19.9033 16.0892 19.8994 16.19C19.9033 16.2908 19.8712 16.3933 19.8013 16.4767L18.1776 18.4117C18.0283 18.5896 17.7631 18.6128 17.5852 18.4636C17.4072 18.3143 17.384 18.049 17.5333 17.8711L18.6015 16.5981H14.2397C14.0074 16.5981 13.8192 16.4098 13.8192 16.1776C13.8192 15.9453 14.0074 15.757 14.2397 15.757H18.5805L17.5333 14.509C17.384 14.3311 17.4072 14.0658 17.5852 13.9165Z" fill="black"/>
</svg>
