<svg xmlns="http://www.w3.org/2000/svg" width="24" height="25" viewBox="0 0 24 25" fill="none"><rect width="24" height="25" fill="none"/>
<path d="M12.5426 4.61743C12.5426 5.04247 12.8871 5.38701 13.3122 5.38701H17.9296V9.80166C17.5037 9.73233 17.0667 9.69628 16.6213 9.69628C12.1585 9.69628 8.54076 13.314 8.54076 17.7768C8.54076 19.1389 8.87776 20.4222 9.47293 21.548H3.30774C2.03267 21.548 0.999023 20.5144 0.999023 19.2393V2.30871C0.999023 1.03365 2.03267 0 3.30774 0H12.5426V4.61743Z" fill="black"/>
<path d="M14.0815 0.452492V3.84937H17.4784L14.0815 0.452492Z" fill="black"/>
<path fill-rule="evenodd" clip-rule="evenodd" d="M22.999 17.7764C22.999 21.2996 20.1429 24.1557 16.6197 24.1557C13.0965 24.1557 10.2403 21.2996 10.2403 17.7764C10.2403 14.2531 13.0965 11.397 16.6197 11.397C20.1429 11.397 22.999 14.2531 22.999 17.7764ZM19.4985 15.98C19.2863 15.7603 18.9361 15.7542 18.7164 15.9664L16.2572 18.3411L14.4055 16.7873C14.1764 16.5952 13.835 16.625 13.6428 16.8541C13.4506 17.0831 13.4805 17.4246 13.7095 17.6168L16.3139 19.8022L16.3204 19.7945L16.3322 19.8067L19.4849 16.7622C19.7046 16.55 19.7107 16.1998 19.4985 15.98Z" fill="black"/>
</svg>
