<svg xmlns="http://www.w3.org/2000/svg" width="25" height="24" viewBox="0 0 25 24" fill="none"><rect width="25" height="24" fill="none"/>
<path d="M12.4755 5.51421C12.4755 5.88372 12.775 6.18325 13.1445 6.18325H17.1587V10.0212C16.7885 9.96089 16.4085 9.92956 16.0213 9.92956C12.1416 9.92956 8.99642 13.0747 8.99642 16.9544C8.99642 18.1385 9.2894 19.2542 9.80681 20.233H4.44704C3.33855 20.233 2.43994 19.3344 2.43994 18.2259V3.5071C2.43994 2.39861 3.33855 1.5 4.44704 1.5H12.4755V5.51421Z" fill="black"/>
<path d="M13.8133 1.89338V4.84649H16.7664L13.8133 1.89338Z" fill="black"/>
<path fill-rule="evenodd" clip-rule="evenodd" d="M21.5659 16.9541C21.5659 20.017 19.0829 22.5 16.0199 22.5C12.957 22.5 10.474 20.017 10.474 16.9541C10.474 13.8911 12.957 11.4081 16.0199 11.4081C19.0829 11.4081 21.5659 13.8911 21.5659 16.9541ZM18.5226 15.3924C18.3382 15.2014 18.0337 15.196 17.8427 15.3805L15.7048 17.4451L14.095 16.0942C13.8959 15.9272 13.599 15.9531 13.4319 16.1523C13.2648 16.3514 13.2908 16.6482 13.4899 16.8153L15.7541 18.7152L15.7597 18.7085L15.77 18.7191L18.5108 16.0724C18.7018 15.8879 18.7071 15.5834 18.5226 15.3924Z" fill="black"/>
</svg>
