<svg xmlns="http://www.w3.org/2000/svg" width="16" height="16" viewBox="0 0 16 16" fill="none"><rect width="16" height="16" fill="none"/>
<path fill-rule="evenodd" clip-rule="evenodd" d="M2.49185 1.33334C1.85211 1.33334 1.3335 1.85196 1.3335 2.4917V13.5083C1.3335 14.1481 1.85211 14.6667 2.49185 14.6667H8.59248C7.44555 13.7972 6.70474 12.4199 6.70474 10.8696C6.70474 8.44616 8.51514 6.44552 10.8573 6.14636V2.4917C10.8573 1.85196 10.3387 1.33334 9.69895 1.33334H2.49185ZM8.51771 1.33337V2.65895C8.51771 3.21873 8.9715 3.67251 9.53127 3.67251H10.8569V2.80375H9.53127C9.4513 2.80375 9.38648 2.73892 9.38648 2.65895V1.33337H8.51771ZM2.54562 7.84857C2.54562 7.59753 2.74912 7.39402 3.00016 7.39402H4.51531C4.76635 7.39402 4.96986 7.59753 4.96986 7.84857C4.96986 8.09961 4.76635 8.30312 4.51531 8.30312H3.00016C2.74912 8.30312 2.54562 8.09961 2.54562 7.84857ZM3.00016 4.96971C2.74912 4.96971 2.54562 5.17321 2.54562 5.42425C2.54562 5.67529 2.74912 5.8788 3.00016 5.8788H6.3335C6.58453 5.8788 6.78804 5.67529 6.78804 5.42425C6.78804 5.17321 6.58453 4.96971 6.33349 4.96971H3.00016Z" fill="black"/>
<path fill-rule="evenodd" clip-rule="evenodd" d="M11.4792 14.4633C13.4568 14.4633 15.06 12.8601 15.06 10.8825C15.06 8.90482 13.4568 7.30163 11.4792 7.30163C9.50154 7.30163 7.89835 8.90482 7.89835 10.8825C7.89835 12.8601 9.50154 14.4633 11.4792 14.4633ZM11.723 9.2777C11.8416 9.17817 12.0184 9.19364 12.1179 9.31226L13.2004 10.6023C13.247 10.6578 13.2684 10.7262 13.2658 10.7934C13.2684 10.8606 13.247 10.9289 13.2004 10.9845L12.1179 12.2745C12.0184 12.3931 11.8416 12.4086 11.723 12.309C11.6043 12.2095 11.5889 12.0327 11.6884 11.9141L12.4005 11.0654H9.49264C9.3378 11.0654 9.21229 10.9399 9.21229 10.785C9.21229 10.6302 9.3378 10.5047 9.49264 10.5047H12.3865L11.6884 9.67268C11.5889 9.55406 11.6043 9.37723 11.723 9.2777Z" fill="black"/>
</svg>
