<svg xmlns="http://www.w3.org/2000/svg" width="17" height="17" viewBox="0 0 17 17" fill="none"><rect width="17" height="17" fill="none"/>
<path fill-rule="evenodd" clip-rule="evenodd" d="M2.298 2.33499C1.65826 2.33499 1.13965 2.8536 1.13965 3.49334V14.51C1.13965 15.1497 1.65826 15.6683 2.298 15.6683H8.39864C7.25171 14.7988 6.51089 13.4216 6.51089 11.8713C6.51089 9.44781 8.32129 7.44717 10.6635 7.14801V3.49335C10.6635 2.8536 10.1448 2.33499 9.5051 2.33499H2.298ZM8.32386 2.33502V3.6606C8.32386 4.22037 8.77765 4.67416 9.33743 4.67416H10.663V3.8054H9.33743C9.25746 3.8054 9.19263 3.74057 9.19263 3.6606V2.33502H8.32386ZM2.35177 8.85022C2.35177 8.59918 2.55528 8.39567 2.80631 8.39567H4.32147C4.5725 8.39567 4.77601 8.59918 4.77601 8.85022C4.77601 9.10126 4.5725 9.30476 4.32147 9.30476H2.80631C2.55528 9.30476 2.35177 9.10126 2.35177 8.85022ZM2.80631 5.97136C2.55528 5.97136 2.35177 6.17486 2.35177 6.4259C2.35177 6.67694 2.55528 6.88045 2.80632 6.88045H6.13965C6.39069 6.88045 6.59419 6.67694 6.59419 6.4259C6.59419 6.17486 6.39069 5.97136 6.13965 5.97136H2.80631Z" fill="black"/>
<path fill-rule="evenodd" clip-rule="evenodd" d="M11.2853 15.4649C13.263 15.4649 14.8662 13.8617 14.8662 11.8841C14.8662 9.90647 13.263 8.30328 11.2853 8.30328C9.30769 8.30328 7.7045 9.90647 7.7045 11.8841C7.7045 13.8617 9.30769 15.4649 11.2853 15.4649ZM11.5291 10.2793C11.6477 10.1798 11.8246 10.1953 11.9241 10.3139L13.0065 11.6039C13.0532 11.6595 13.0745 11.7278 13.0719 11.795C13.0745 11.8622 13.0532 11.9306 13.0065 11.9861L11.9241 13.2761C11.8246 13.3947 11.6477 13.4102 11.5291 13.3107C11.4105 13.2112 11.395 13.0343 11.4946 12.9157L12.2067 12.0671H9.29879C9.14396 12.0671 9.01844 11.9415 9.01844 11.7867C9.01844 11.6319 9.14396 11.5063 9.29879 11.5063H12.1927L11.4945 10.6743C11.395 10.5557 11.4105 10.3789 11.5291 10.2793Z" fill="black"/>
</svg>
