<svg xmlns="http://www.w3.org/2000/svg" width="16" height="16" viewBox="0 0 16 16" fill="none"><rect width="16" height="16" fill="none"/>
<path d="M8.32023 3.67614C8.32023 3.92248 8.51992 4.12217 8.76626 4.12217H11.4424V6.68078C11.1956 6.6406 10.9423 6.6197 10.6841 6.6197C8.09763 6.6197 6.00087 8.71646 6.00087 11.3029C6.00087 12.0924 6.19619 12.8362 6.54113 13.4887H2.96795C2.22896 13.4887 1.62988 12.8896 1.62988 12.1506V2.33807C1.62988 1.59907 2.22896 1 2.96795 1H8.32023V3.67614Z" fill="black"/>
<path d="M9.21211 1.26225V3.23099H11.1809L9.21211 1.26225Z" fill="black"/>
<path fill-rule="evenodd" clip-rule="evenodd" d="M14.3805 11.3027C14.3805 13.3447 12.7252 15 10.6832 15C8.64123 15 6.9859 13.3447 6.9859 11.3027C6.9859 9.26074 8.64123 7.6054 10.6832 7.6054C12.7252 7.6054 14.3805 9.26074 14.3805 11.3027ZM12.3517 10.2616C12.2287 10.1342 12.0257 10.1307 11.8984 10.2537L10.4731 11.63L9.39991 10.7295C9.26716 10.6181 9.06925 10.6354 8.95787 10.7682C8.84648 10.9009 8.8638 11.0988 8.99654 11.2102L10.506 12.4768L10.5097 12.4723L10.5166 12.4794L12.3438 10.7149C12.4711 10.5919 12.4747 10.389 12.3517 10.2616Z" fill="black"/>
</svg>
