<svg xmlns="http://www.w3.org/2000/svg" width="25" height="24" viewBox="0 0 25 24" fill="none"><rect width="25" height="24" fill="none"/>
<path fill-rule="evenodd" clip-rule="evenodd" d="M3.44749 2C2.48788 2 1.70996 2.77792 1.70996 3.73753V20.2625C1.70996 21.2221 2.48788 22 3.4475 22H12.5984C10.878 20.6957 9.76683 18.6299 9.76683 16.3045C9.76683 12.6692 12.4824 9.66827 15.9957 9.21953V3.73753C15.9957 2.77792 15.2178 2 14.2581 2H3.44749ZM12.4863 2.00004V3.98841C12.4863 4.82807 13.167 5.50876 14.0066 5.50876H15.995V4.20561H14.0066C13.8867 4.20561 13.7894 4.10837 13.7894 3.98841V2.00004H12.4863ZM3.52814 11.7728C3.52814 11.3963 3.8334 11.091 4.20996 11.091H6.48269C6.85924 11.091 7.16451 11.3963 7.16451 11.7728C7.16451 12.1494 6.85924 12.4547 6.48269 12.4547H4.20996C3.8334 12.4547 3.52814 12.1494 3.52814 11.7728ZM4.20996 7.45455C3.8334 7.45455 3.52814 7.75981 3.52814 8.13636C3.52814 8.51292 3.8334 8.81818 4.20996 8.81818H9.20996C9.58652 8.81818 9.89178 8.51292 9.89178 8.13636C9.89178 7.75981 9.58652 7.45455 9.20996 7.45455H4.20996Z" fill="black"/>
<path fill-rule="evenodd" clip-rule="evenodd" d="M16.9285 21.6949C19.8949 21.6949 22.2997 19.2901 22.2997 16.3237C22.2997 13.3572 19.8949 10.9524 16.9285 10.9524C13.962 10.9524 11.5572 13.3572 11.5572 16.3237C11.5572 19.2901 13.962 21.6949 16.9285 21.6949ZM17.2941 13.9165C17.4721 13.7672 17.7373 13.7905 17.8866 13.9684L19.5103 15.9034C19.5802 15.9867 19.6123 16.0892 19.6084 16.19C19.6123 16.2908 19.5802 16.3933 19.5103 16.4767L17.8866 18.4117C17.7373 18.5896 17.4721 18.6128 17.2941 18.4636C17.1162 18.3143 17.093 18.049 17.2423 17.8711L18.3105 16.5981H13.9487C13.7164 16.5981 13.5281 16.4098 13.5281 16.1776C13.5281 15.9453 13.7164 15.757 13.9487 15.757H18.2895L17.2423 14.509C17.093 14.3311 17.1162 14.0658 17.2941 13.9165Z" fill="black"/>
</svg>
