<svg xmlns="http://www.w3.org/2000/svg" width="24" height="24" viewBox="0 0 24 24" fill="none"><rect width="24" height="24" fill="none"/>
<path fill-rule="evenodd" clip-rule="evenodd" d="M2.30005 0.48941C1.19548 0.48941 0.300049 1.38484 0.300049 2.48941V21.5106C0.300049 22.6151 1.19548 23.5106 2.30005 23.5106H12.8333C10.853 22.0093 9.57396 19.6313 9.57396 16.9547C9.57396 12.7703 12.6998 9.31603 16.7437 8.79951V2.48941C16.7437 1.38484 15.8483 0.48941 14.7437 0.48941H2.30005ZM12.7042 0.489454V2.77819C12.7042 3.74469 13.4877 4.52819 14.4542 4.52819H16.743V3.02819H14.4542C14.3161 3.02819 14.2042 2.91626 14.2042 2.77819V0.489454H12.7042ZM2.39288 11.7385C2.39288 11.3051 2.74425 10.9537 3.17769 10.9537H5.79373C6.22717 10.9537 6.57854 11.3051 6.57854 11.7385C6.57854 12.172 6.22717 12.5233 5.79373 12.5233H3.17769C2.74425 12.5233 2.39288 12.172 2.39288 11.7385ZM3.17769 6.76791C2.74425 6.76791 2.39288 7.11928 2.39288 7.55272C2.39288 7.98616 2.74425 8.33753 3.17769 8.33753H8.93298C9.36642 8.33753 9.71779 7.98616 9.71779 7.55272C9.71779 7.11928 9.36642 6.76791 8.93298 6.76791H3.17769Z" fill="black"/>
<path fill-rule="evenodd" clip-rule="evenodd" d="M17.8174 23.1594C21.232 23.1594 24 20.3913 24 16.9768C24 13.5622 21.232 10.7942 17.8174 10.7942C14.4029 10.7942 11.6348 13.5622 11.6348 16.9768C11.6348 20.3913 14.4029 23.1594 17.8174 23.1594ZM18.2383 14.206C18.4431 14.0342 18.7485 14.0609 18.9203 14.2657L20.7892 16.493C20.8697 16.5889 20.9067 16.7069 20.9021 16.8229C20.9067 16.939 20.8698 17.057 20.7892 17.1529L18.9203 19.3802C18.7485 19.585 18.4431 19.6118 18.2383 19.4399C18.0336 19.2681 18.0068 18.9627 18.1787 18.7579L19.4082 17.2927H14.3875C14.1202 17.2927 13.9035 17.0759 13.9035 16.8086C13.9035 16.5413 14.1202 16.3245 14.3875 16.3245H19.3841L18.1787 14.888C18.0068 14.6832 18.0335 14.3779 18.2383 14.206Z" fill="black"/>
</svg>
