<svg xmlns="http://www.w3.org/2000/svg" width="16" height="16" viewBox="0 0 16 16" fill="none"><rect width="16" height="16" fill="none"/>
<path d="M8.69034 4.00948C8.69034 4.25582 8.89003 4.45551 9.13637 4.45551H11.8125V7.01412C11.5657 6.97394 11.3124 6.95305 11.0542 6.95305C8.46775 6.95305 6.37099 9.04981 6.37099 11.6363C6.37099 12.4257 6.5663 13.1695 6.91125 13.822H3.33807C2.59907 13.822 2 13.2229 2 12.4839V2.67141C2 1.93242 2.59907 1.33334 3.33807 1.33334H8.69034V4.00948Z" fill="black"/>
<path d="M9.58223 1.5956V3.56433H11.551L9.58223 1.5956Z" fill="black"/>
<path fill-rule="evenodd" clip-rule="evenodd" d="M14.7506 11.636C14.7506 13.678 13.0953 15.3333 11.0533 15.3333C9.01135 15.3333 7.35601 13.678 7.35601 11.636C7.35601 9.59408 9.01135 7.93875 11.0533 7.93875C13.0953 7.93875 14.7506 9.59408 14.7506 11.636ZM12.7218 10.5949C12.5988 10.4676 12.3959 10.464 12.2685 10.587L10.8432 11.9634L9.77002 11.0628C9.63728 10.9515 9.43937 10.9688 9.32798 11.1015C9.2166 11.2343 9.23391 11.4322 9.36666 11.5436L10.8761 12.8101L10.8799 12.8057L10.8867 12.8128L12.7139 11.0483C12.8413 10.9253 12.8448 10.7223 12.7218 10.5949Z" fill="black"/>
</svg>
