<svg xmlns="http://www.w3.org/2000/svg" width="24" height="24" viewBox="0 0 24 24" fill="none"><rect width="24" height="24" fill="none"/>
<path d="M13.0365 6.01421C13.0365 6.38372 13.336 6.68325 13.7055 6.68325H17.7197V10.5212C17.3495 10.4609 16.9696 10.4296 16.5823 10.4296C12.7026 10.4296 9.55745 13.5747 9.55745 17.4544C9.55745 18.6385 9.85043 19.7542 10.3678 20.733H5.00808C3.89959 20.733 3.00098 19.8344 3.00098 18.7259V4.0071C3.00098 2.89861 3.89959 2 5.00808 2H13.0365V6.01421Z" fill="black"/>
<path d="M14.3743 2.39338V5.34649H17.3275L14.3743 2.39338Z" fill="black"/>
<path fill-rule="evenodd" clip-rule="evenodd" d="M22.1269 17.4541C22.1269 20.517 19.6439 23 16.5809 23C13.518 23 11.035 20.517 11.035 17.4541C11.035 14.3911 13.518 11.9081 16.5809 11.9081C19.6439 11.9081 22.1269 14.3911 22.1269 17.4541ZM19.0837 15.8924C18.8992 15.7014 18.5948 15.696 18.4037 15.8805L16.2658 17.9451L14.656 16.5942C14.4569 16.4272 14.16 16.4531 13.993 16.6523C13.8259 16.8514 13.8518 17.1482 14.051 17.3153L16.3152 19.2152L16.3208 19.2085L16.331 19.2191L19.0718 16.5724C19.2629 16.3879 19.2682 16.0834 19.0837 15.8924Z" fill="black"/>
</svg>
