<svg xmlns="http://www.w3.org/2000/svg" width="24" height="24" viewBox="0 0 24 24" fill="none"><rect width="24" height="24" fill="none"/>
<path fill-rule="evenodd" clip-rule="evenodd" d="M6.28667 12.1428C6.28667 13.3263 5.32729 14.2857 4.14382 14.2857C2.96036 14.2857 2.00098 13.3263 2.00098 12.1428C2.00098 10.9594 2.96036 10 4.14382 10C5.32729 10 6.28667 10.9594 6.28667 12.1428ZM14.1436 12.1428C14.1436 13.3263 13.1842 14.2857 12.0008 14.2857C10.8173 14.2857 9.85794 13.3263 9.85794 12.1428C9.85794 10.9594 10.8173 10 12.0008 10C13.1842 10 14.1436 10.9594 14.1436 12.1428ZM19.858 14.2857C21.0415 14.2857 22.0008 13.3263 22.0008 12.1428C22.0008 10.9594 21.0415 10 19.858 10C18.6745 10 17.7152 10.9594 17.7152 12.1428C17.7152 13.3263 18.6745 14.2857 19.858 14.2857Z" fill="black"/>
</svg>
