<svg xmlns="http://www.w3.org/2000/svg" width="16" height="16" viewBox="0 0 16 16" fill="none"><rect width="16" height="16" fill="none"/>
<path d="M4.57143 8.28571C4.57143 8.99579 3.99579 9.57143 3.28571 9.57143C2.57563 9.57143 2 8.99579 2 8.28571C2 7.57563 2.57563 7 3.28571 7C3.99579 7 4.57143 7.57563 4.57143 8.28571Z" fill="black"/>
<path d="M9.28566 8.28571C9.28566 8.99579 8.71003 9.57143 7.99995 9.57143C7.28987 9.57143 6.71423 8.99579 6.71423 8.28571C6.71423 7.57563 7.28987 7 7.99995 7C8.71003 7 9.28566 7.57563 9.28566 8.28571Z" fill="black"/>
<path d="M12.7143 9.57143C13.4244 9.57143 14 8.99579 14 8.28571C14 7.57563 13.4244 7 12.7143 7C12.0042 7 11.4286 7.57563 11.4286 8.28571C11.4286 8.99579 12.0042 9.57143 12.7143 9.57143Z" fill="black"/>
</svg>
