<svg xmlns="http://www.w3.org/2000/svg" width="24" height="24" viewBox="0 0 24 24" fill="none"><rect width="24" height="24" fill="none"/>
<path fill-rule="evenodd" clip-rule="evenodd" d="M6.2857 12.1428C6.2857 13.3263 5.32631 14.2857 4.14285 14.2857C2.95939 14.2857 2 13.3263 2 12.1428C2 10.9594 2.95939 10 4.14285 10C5.32631 10 6.2857 10.9594 6.2857 12.1428ZM14.1427 12.1428C14.1427 13.3263 13.1833 14.2857 11.9998 14.2857C10.8163 14.2857 9.85696 13.3263 9.85696 12.1428C9.85696 10.9594 10.8163 10 11.9998 10C13.1833 10 14.1427 10.9594 14.1427 12.1428ZM19.857 14.2857C21.0405 14.2857 21.9999 13.3263 21.9999 12.1428C21.9999 10.9594 21.0405 10 19.857 10C18.6736 10 17.7142 10.9594 17.7142 12.1428C17.7142 13.3263 18.6736 14.2857 19.857 14.2857Z" fill="black"/>
</svg>
