<svg xmlns="http://www.w3.org/2000/svg" width="25" height="24" viewBox="0 0 25 24" fill="none"><rect width="25" height="24" fill="none"/>
<path fill-rule="evenodd" clip-rule="evenodd" d="M6.45903 11.9928C6.45903 13.1763 5.49965 14.1357 4.31619 14.1357C3.13273 14.1357 2.17334 13.1763 2.17334 11.9928C2.17334 10.8094 3.13273 9.85 4.31619 9.85C5.49965 9.85 6.45903 10.8094 6.45903 11.9928ZM14.316 11.9928C14.316 13.1763 13.3566 14.1357 12.1731 14.1357C10.9897 14.1357 10.0303 13.1763 10.0303 11.9928C10.0303 10.8094 10.9897 9.85 12.1731 9.85C13.3566 9.85 14.316 10.8094 14.316 11.9928ZM20.0304 14.1357C21.2138 14.1357 22.1732 13.1763 22.1732 11.9928C22.1732 10.8094 21.2138 9.85 20.0304 9.85C18.8469 9.85 17.8875 10.8094 17.8875 11.9928C17.8875 13.1763 18.8469 14.1357 20.0304 14.1357Z" fill="black"/>
</svg>
