<svg xmlns="http://www.w3.org/2000/svg" width="17" height="17" viewBox="0 0 17 17" fill="none"><rect width="17" height="17" fill="none"/>
<path d="M4.58119 8.00572C4.58119 8.7158 4.00556 9.29143 3.29548 9.29143C2.5854 9.29143 2.00977 8.7158 2.00977 8.00572C2.00977 7.29564 2.5854 6.72 3.29548 6.72C4.00556 6.72 4.58119 7.29564 4.58119 8.00572Z" fill="black"/>
<path d="M9.29543 8.00572C9.29543 8.7158 8.71979 9.29143 8.00971 9.29143C7.29963 9.29143 6.724 8.7158 6.724 8.00572C6.724 7.29564 7.29963 6.72 8.00971 6.72C8.71979 6.72 9.29543 7.29564 9.29543 8.00572Z" fill="black"/>
<path d="M12.7241 9.29143C13.4341 9.29143 14.0098 8.7158 14.0098 8.00572C14.0098 7.29564 13.4341 6.72 12.7241 6.72C12.014 6.72 11.4384 7.29564 11.4384 8.00572C11.4384 8.7158 12.014 9.29143 12.7241 9.29143Z" fill="black"/>
</svg>
