<svg xmlns="http://www.w3.org/2000/svg" width="17" height="17" viewBox="0 0 17 17" fill="none"><rect width="17" height="17" fill="none"/>
<path fill-rule="evenodd" clip-rule="evenodd" d="M11.5086 8.12567C11.72 7.9228 11.7509 7.56684 11.5776 7.33061C11.4042 7.09438 11.0923 7.06733 10.8809 7.2702L9.43776 8.65501L9.43776 2.8241C9.43776 2.55404 9.21883 2.33511 8.94877 2.33511C8.67871 2.33511 8.45978 2.55404 8.45978 2.8241L8.45978 8.67956L6.98799 7.27062C6.77635 7.06802 6.46405 7.09511 6.29046 7.33113C6.11687 7.56715 6.14771 7.92272 6.35935 8.12533L8.59212 10.2627C8.68125 10.3481 8.78824 10.3927 8.8952 10.3981C9.02747 10.4158 9.16682 10.3728 9.27826 10.2659L11.5086 8.12567ZM4.24013 11.5018C3.9333 11.5018 3.68457 11.7505 3.68457 12.0573V12.3351C3.68457 14.1761 5.17695 15.6685 7.0179 15.6685H10.8411C12.6821 15.6685 14.1744 14.1761 14.1744 12.3351V12.0573C14.1744 11.7505 13.9257 11.5018 13.6189 11.5018C13.3121 11.5018 13.0633 11.7505 13.0633 12.0573V12.3351C13.0633 13.5624 12.0684 14.5574 10.8411 14.5574H7.0179C5.7906 14.5574 4.79568 13.5624 4.79568 12.3351V12.0573C4.79568 11.7505 4.54695 11.5018 4.24013 11.5018Z" fill="black"/>
</svg>
