<svg xmlns="http://www.w3.org/2000/svg" width="25" height="24" viewBox="0 0 25 24" fill="none"><rect width="25" height="24" fill="none"/>
<path fill-rule="evenodd" clip-rule="evenodd" d="M16.0442 10.6858C16.3613 10.3815 16.4076 9.84761 16.1476 9.49326C15.8876 9.13891 15.4197 9.09834 15.1026 9.40264L12.9379 11.4799V2.73349C12.9379 2.32839 12.6095 2 12.2044 2C11.7993 2 11.4709 2.32839 11.4709 2.73349L11.4709 11.5167L9.26323 9.40327C8.94577 9.09937 8.47733 9.14 8.21694 9.49403C7.95655 9.84807 8.00282 10.3814 8.32028 10.6853L11.6694 13.8915C11.8031 14.0195 11.9636 14.0863 12.1241 14.0944C12.3224 14.1211 12.5315 14.0565 12.6986 13.8961L16.0442 10.6858ZM5.14144 15.5C4.6812 15.5 4.30811 15.8731 4.30811 16.3333V17C4.30811 19.7615 6.54668 22 9.3081 22H15.0429C17.8043 22 20.0429 19.7615 20.0429 17V16.3333C20.0429 15.8731 19.6698 15.5 19.2096 15.5C18.7493 15.5 18.3762 15.8731 18.3762 16.3333V17C18.3762 18.841 16.8839 20.3334 15.0429 20.3334H9.3081C7.46715 20.3334 5.97477 18.841 5.97477 17V16.3333C5.97477 15.8731 5.60167 15.5 5.14144 15.5Z" fill="black"/>
</svg>
