<svg xmlns="http://www.w3.org/2000/svg" width="17" height="16" viewBox="0 0 17 16" fill="none"><rect width="17" height="16" fill="none"/>
<path fill-rule="evenodd" clip-rule="evenodd" d="M13.7615 4.83565C13.7921 4.91056 13.8076 4.99077 13.8071 5.07168L13.7641 5.10243C13.767 5.13105 13.767 5.15988 13.7641 5.1885C13.77 5.23751 13.77 5.28705 13.7641 5.33606C13.7307 5.41078 13.6849 5.47936 13.6288 5.53895L11.8826 7.24816L5.19898 13.9682C5.13793 14.029 5.06478 14.0763 4.98428 14.107C4.90378 14.1377 4.81772 14.1511 4.73168 14.1465H2.12464C1.96157 14.1465 1.80518 14.0817 1.68987 13.9664C1.57456 13.8511 1.50978 13.6947 1.50978 13.5316V10.9248C1.50931 10.8439 1.52482 10.7637 1.55542 10.6888C1.58602 10.6138 1.6311 10.5457 1.68809 10.4883L8.40858 3.76826L10.1487 2.02831C10.2061 1.97133 10.2742 1.92625 10.3492 1.89565C10.4241 1.86506 10.5043 1.84955 10.5852 1.85002C10.6661 1.84955 10.7464 1.86506 10.8213 1.89565C10.8962 1.92625 10.9643 1.97133 11.0218 2.02831L13.6288 4.63516C13.6858 4.69261 13.7309 4.76074 13.7615 4.83565ZM2.73951 12.9168H4.47958L10.5852 6.81163L8.84514 5.07168L2.73951 11.1769V12.9168ZM9.7121 4.20479L11.4522 5.94473L12.3191 5.07168L10.5852 3.33789L9.7121 4.20479ZM9.72929 12.8974C9.38411 12.8974 9.10428 13.1773 9.10428 13.5224C9.10428 13.8676 9.38411 14.1474 9.72929 14.1474H13.8847C14.2299 14.1474 14.5097 13.8676 14.5097 13.5224C14.5097 13.1773 14.2299 12.8974 13.8847 12.8974H9.72929Z" fill="black"/>
</svg>
