<svg xmlns="http://www.w3.org/2000/svg" width="16" height="16" viewBox="0 0 16 16" fill="none"><rect width="16" height="16" fill="none"/>
<path fill-rule="evenodd" clip-rule="evenodd" d="M13.7517 4.98564C13.7823 5.06055 13.7978 5.14076 13.7974 5.22168L13.7543 5.25242C13.7572 5.28104 13.7572 5.30988 13.7543 5.33849C13.7602 5.3875 13.7602 5.43704 13.7543 5.48605C13.7209 5.56077 13.6752 5.62936 13.619 5.68894L11.8728 7.39815L5.18921 14.1182C5.12816 14.179 5.05502 14.2262 4.97451 14.257C4.89401 14.2877 4.80795 14.3011 4.72191 14.2965H2.11488C1.9518 14.2965 1.79541 14.2317 1.6801 14.1164C1.56479 14.0011 1.50001 13.8447 1.50001 13.6816V11.0748C1.49954 10.9939 1.51505 10.9137 1.54565 10.8388C1.57625 10.7638 1.62133 10.6957 1.67832 10.6383L8.39882 3.91826L10.1389 2.17831C10.1963 2.12133 10.2645 2.07624 10.3394 2.04565C10.4143 2.01505 10.4945 1.99954 10.5754 2.00001C10.6564 1.99954 10.7366 2.01505 10.8115 2.04565C10.8864 2.07624 10.9545 2.12133 11.012 2.17831L13.619 4.78516C13.676 4.8426 13.7211 4.91074 13.7517 4.98564ZM2.72974 13.0668H4.46982L10.5754 6.96163L8.83537 5.22168L2.72974 11.3269V13.0668ZM9.70234 4.35478L11.4424 6.09473L12.3094 5.22168L10.5754 3.48788L9.70234 4.35478ZM9.71952 13.0474C9.37434 13.0474 9.09452 13.3272 9.09452 13.6724C9.09452 14.0176 9.37434 14.2974 9.71952 14.2974H13.8749C14.2201 14.2974 14.5 14.0176 14.5 13.6724C14.5 13.3272 14.2201 13.0474 13.8749 13.0474H9.71952Z" fill="black"/>
</svg>
