<svg xmlns="http://www.w3.org/2000/svg" width="24" height="24" viewBox="0 0 24 24" fill="none"><rect width="24" height="24" fill="none"/>
<path d="M22.2026 4.13098H1.79742C0.804703 4.13098 0 4.93568 0 5.9284V18.0577C0 19.0504 0.804703 19.8552 1.79742 19.8552H22.2026C23.1952 19.8552 24 19.0505 24 18.0577V5.9284C24 4.93568 23.1953 4.13098 22.2026 4.13098Z" fill="#41479B"/>
<path d="M23.9751 5.63033C23.8335 4.77913 23.094 4.13 22.2026 4.13H21.7349L14.069 9.15252V4.13005H9.93103V9.15257L2.26509 4.13005H1.79742C0.906 4.13005 0.166547 4.77913 0.0248906 5.63038L6.57698 9.92319H0V14.0611H6.57698L0.0248906 18.3538C0.166547 19.2051 0.906 19.8542 1.79742 19.8542H2.26509L9.93103 14.8317V19.8542H14.069V14.8317L21.7349 19.8542H22.2026C23.094 19.8542 23.8335 19.2051 23.9751 18.3538L17.423 14.061H24V9.9231H17.423L23.9751 5.63033Z" fill="#F5F5F5"/>
<path d="M13.2414 4.13098H10.7586V10.7517H0V13.2344H10.7586V19.8551H13.2414V13.2344H24V10.7517H13.2414V4.13098Z" fill="#D42020"/>
<path d="M1.16217 19.7383L9.90825 14.061H8.38819L0.432373 19.2253C0.627045 19.4526 0.877217 19.6306 1.16217 19.7383Z" fill="#D42020"/>
<path d="M16.2369 14.061H14.7168L23.1879 19.5597C23.4249 19.404 23.6227 19.1938 23.7638 18.9468L16.2369 14.061Z" fill="#D42020"/>
<path d="M0.189697 5.12379L7.58329 9.92318H9.10335L0.725291 4.48474C0.500338 4.65218 0.31626 4.87108 0.189697 5.12379Z" fill="#D42020"/>
<path d="M15.5889 9.92313L23.5593 4.7493C23.3625 4.52284 23.1103 4.34584 22.8234 4.24023L14.0688 9.92313H15.5889Z" fill="#D42020"/>
</svg>
