<svg xmlns="http://www.w3.org/2000/svg" width="25" height="24" viewBox="0 0 25 24" fill="none"><rect width="25" height="24" fill="none"/>
<path d="M3.62838 3.64796L15.1503 2.00464C15.2153 1.99532 15.2816 2.00008 15.3446 2.01858C15.4077 2.03708 15.466 2.0689 15.5156 2.11187C15.5652 2.15485 15.605 2.20798 15.6323 2.26767C15.6596 2.32735 15.6737 2.3922 15.6737 2.45781V21.5423C15.6737 21.6078 15.6596 21.6726 15.6324 21.7322C15.6051 21.7918 15.5654 21.8449 15.5159 21.8879C15.4664 21.9308 15.4082 21.9627 15.3453 21.9812C15.2824 21.9998 15.2162 22.0047 15.1512 21.9955L3.62747 20.3522C3.40896 20.3211 3.20902 20.2123 3.06437 20.0458C2.91973 19.8793 2.84009 19.6663 2.84009 19.4458V4.55431C2.84009 4.33387 2.91973 4.12083 3.06437 3.95433C3.20902 3.78783 3.40896 3.67904 3.62747 3.64796H3.62838ZM4.67425 5.34896V18.6512L13.8405 19.9594V4.04071L4.67425 5.34896ZM16.5903 18.4086H19.3402V5.59157H16.5903V3.76057H20.2568C20.4999 3.76057 20.7331 3.85702 20.905 4.02871C21.0769 4.2004 21.1734 4.43326 21.1734 4.67607V19.3241C21.1734 19.5669 21.0769 19.7997 20.905 19.9714C20.7331 20.1431 20.4999 20.2396 20.2568 20.2396H16.5903V18.4086ZM10.3573 12.0001L12.9238 15.6621H10.7239L9.25735 13.5692L7.79076 15.6621H5.59087L8.15741 12.0001L5.59087 8.33807H7.79076L9.25735 10.4309L10.7239 8.33807H12.9238L10.3573 12.0001Z" fill="black"/>
</svg>
