<svg xmlns="http://www.w3.org/2000/svg" width="24" height="24" viewBox="0 0 24 24" fill="none"><rect width="24" height="24" fill="none"/>
<path d="M3.60934 3.64796L15.1313 2.00464C15.1963 1.99532 15.2626 2.00008 15.3256 2.01858C15.3886 2.03708 15.4469 2.0689 15.4966 2.11187C15.5462 2.15485 15.586 2.20798 15.6133 2.26767C15.6406 2.32735 15.6547 2.3922 15.6547 2.45781V21.5423C15.6546 21.6078 15.6406 21.6726 15.6133 21.7322C15.5861 21.7918 15.5464 21.8449 15.4969 21.8879C15.4473 21.9308 15.3891 21.9627 15.3262 21.9812C15.2633 21.9998 15.1971 22.0047 15.1322 21.9955L3.60842 20.3522C3.38992 20.3211 3.18998 20.2123 3.04533 20.0458C2.90069 19.8793 2.82105 19.6663 2.82104 19.4458V4.55431C2.82105 4.33387 2.90069 4.12083 3.04533 3.95433C3.18998 3.78783 3.38992 3.67904 3.60842 3.64796H3.60934ZM4.6552 5.34896V18.6512L13.8214 19.9594V4.04071L4.6552 5.34896ZM16.5713 18.4086H19.3211V5.59157H16.5713V3.76057H20.2378C20.4809 3.76057 20.714 3.85702 20.8859 4.02871C21.0578 4.2004 21.1544 4.43326 21.1544 4.67607V19.3241C21.1544 19.5669 21.0578 19.7997 20.8859 19.9714C20.714 20.1431 20.4809 20.2396 20.2378 20.2396H16.5713V18.4086ZM10.3383 12.0001L12.9048 15.6621H10.7049L9.23831 13.5692L7.77171 15.6621H5.57182L8.13836 12.0001L5.57182 8.33807H7.77171L9.23831 10.4309L10.7049 8.33807H12.9048L10.3383 12.0001Z" fill="black"/>
</svg>
