<svg xmlns="http://www.w3.org/2000/svg" width="17" height="17" viewBox="0 0 17 17" fill="none"><rect width="17" height="17" fill="none"/>
<path d="M2.42055 2.43864L10.1018 1.34309C10.1452 1.33688 10.1894 1.34005 10.2314 1.35238C10.2734 1.36472 10.3123 1.38593 10.3454 1.41458C10.3784 1.44323 10.405 1.47865 10.4232 1.51845C10.4414 1.55824 10.4508 1.60147 10.4508 1.64521V14.3682C10.4508 14.4119 10.4414 14.4551 10.4232 14.4948C10.4051 14.5345 10.3786 14.5699 10.3456 14.5986C10.3125 14.6272 10.2737 14.6484 10.2318 14.6608C10.1899 14.6732 10.1457 14.6764 10.1024 14.6703L2.41994 13.5748C2.27427 13.5541 2.14097 13.4815 2.04454 13.3705C1.94811 13.2595 1.89502 13.1175 1.89502 12.9706V3.04287C1.89502 2.89591 1.94811 2.75389 2.04454 2.64288C2.14097 2.53188 2.27427 2.45936 2.41994 2.43864H2.42055ZM3.11779 3.57264V12.4408L9.2286 13.3129V2.70047L3.11779 3.57264ZM11.0618 12.279H12.8951V3.73438H11.0618V2.51371H13.5062C13.6682 2.51371 13.8237 2.57801 13.9383 2.69247C14.0529 2.80693 14.1172 2.96217 14.1172 3.12404V12.8894C14.1172 13.0512 14.0529 13.2065 13.9383 13.3209C13.8237 13.4354 13.6682 13.4997 13.5062 13.4997H11.0618V12.279ZM6.90649 8.00671L8.61752 10.448H7.15092L6.17319 9.05282L5.19547 10.448H3.72887L5.4399 8.00671L3.72887 5.56538H5.19547L6.17319 6.9606L7.15092 5.56538H8.61752L6.90649 8.00671Z" fill="black"/>
</svg>
