<svg xmlns="http://www.w3.org/2000/svg" width="16" height="16" viewBox="0 0 16 16" fill="none"><rect width="16" height="16" fill="none"/>
<path d="M2.40541 2.43197L10.0867 1.33642C10.13 1.33021 10.1742 1.33338 10.2162 1.34572C10.2583 1.35805 10.2971 1.37926 10.3302 1.40791C10.3633 1.43657 10.3898 1.47199 10.408 1.51178C10.4262 1.55157 10.4356 1.5948 10.4356 1.63854V14.3615C10.4356 14.4052 10.4262 14.4484 10.4081 14.4881C10.3899 14.5279 10.3634 14.5633 10.3304 14.5919C10.2974 14.6206 10.2586 14.6418 10.2167 14.6542C10.1747 14.6665 10.1306 14.6698 10.0873 14.6637L2.4048 13.5681C2.25913 13.5474 2.12584 13.4749 2.02941 13.3639C1.93298 13.2529 1.87988 13.1108 1.87988 12.9639V3.0362C1.87988 2.88924 1.93298 2.74722 2.02941 2.63622C2.12584 2.52522 2.25913 2.45269 2.4048 2.43197H2.40541ZM3.10266 3.56597V12.4341L9.21346 13.3063V2.69381L3.10266 3.56597ZM11.0467 12.2724H12.8799V3.72771H11.0467V2.50704H13.491C13.6531 2.50704 13.8085 2.57135 13.9231 2.68581C14.0377 2.80027 14.1021 2.95551 14.1021 3.11738V12.8827C14.1021 13.0446 14.0377 13.1998 13.9231 13.3143C13.8085 13.4287 13.6531 13.493 13.491 13.493H11.0467V12.2724ZM6.89136 8.00004L8.60238 10.4414H7.13579L6.15806 9.04615L5.18033 10.4414H3.71374L5.42476 8.00004L3.71374 5.55871H5.18033L6.15806 6.95393L7.13579 5.55871H8.60238L6.89136 8.00004Z" fill="black"/>
</svg>
