<svg xmlns="http://www.w3.org/2000/svg" width="16" height="16" viewBox="0 0 16 16" fill="none"><rect width="16" height="16" fill="none"/>
<path fill-rule="evenodd" clip-rule="evenodd" d="M8.00016 14.6667C11.6821 14.6667 14.6668 11.6819 14.6668 8C14.6668 4.3181 11.6821 1.33333 8.00016 1.33333C4.31826 1.33333 1.3335 4.3181 1.3335 8C1.3335 11.6819 4.31826 14.6667 8.00016 14.6667ZM8.00016 13.5556C11.0684 13.5556 13.5557 11.0682 13.5557 8C13.5557 4.93175 11.0684 2.44444 8.00016 2.44444C4.93191 2.44444 2.44461 4.93175 2.44461 8C2.44461 11.0682 4.93191 13.5556 8.00016 13.5556Z" fill="black"/>
<path d="M7.44461 5.22222C7.44461 4.91539 7.69334 4.66666 8.00016 4.66666C8.30699 4.66666 8.55572 4.91539 8.55572 5.22222V8C8.55572 8.30682 8.30699 8.55555 8.00016 8.55555C7.69334 8.55555 7.44461 8.30682 7.44461 8V5.22222Z" fill="black"/>
<path d="M7.44461 10.2222C7.44461 9.91539 7.69334 9.66666 8.00016 9.66666C8.30699 9.66666 8.55572 9.91539 8.55572 10.2222V10.7778C8.55572 11.0846 8.30699 11.3333 8.00016 11.3333C7.69334 11.3333 7.44461 11.0846 7.44461 10.7778V10.2222Z" fill="black"/>
</svg>
