<svg xmlns="http://www.w3.org/2000/svg" width="25" height="24" viewBox="0 0 25 24" fill="none"><rect width="25" height="24" fill="none"/>
<path fill-rule="evenodd" clip-rule="evenodd" d="M12.0049 22C17.5277 22 22.0049 17.5228 22.0049 12C22.0049 6.47715 17.5277 2 12.0049 2C6.48204 2 2.00488 6.47715 2.00488 12C2.00488 17.5228 6.48204 22 12.0049 22ZM12.0049 20.3333C16.6073 20.3333 20.3382 16.6024 20.3382 12C20.3382 7.39763 16.6073 3.66667 12.0049 3.66667C7.40251 3.66667 3.67155 7.39763 3.67155 12C3.67155 16.6024 7.40251 20.3333 12.0049 20.3333Z" fill="black"/>
<path d="M11.1715 7.83333C11.1715 7.3731 11.5446 7 12.0049 7C12.4651 7 12.8382 7.3731 12.8382 7.83333V12C12.8382 12.4602 12.4651 12.8333 12.0049 12.8333C11.5446 12.8333 11.1715 12.4602 11.1715 12V7.83333Z" fill="black"/>
<path d="M11.1715 15.3333C11.1715 14.8731 11.5446 14.5 12.0049 14.5C12.4651 14.5 12.8382 14.8731 12.8382 15.3333V16.1667C12.8382 16.6269 12.4651 17 12.0049 17C11.5446 17 11.1715 16.6269 11.1715 16.1667V15.3333Z" fill="black"/>
</svg>
