<svg xmlns="http://www.w3.org/2000/svg" width="24" height="24" viewBox="0 0 24 24" fill="none"><rect width="24" height="24" fill="none"/>
<path fill-rule="evenodd" clip-rule="evenodd" d="M13.24 22C13.7923 22 14.24 21.5523 14.24 21L14.24 18.5556C14.24 18.0033 13.7923 17.5556 13.24 17.5556L10.7956 17.5556C10.2433 17.5556 9.79556 18.0033 9.79556 18.5556L9.79556 21C9.79556 21.5523 10.2433 22 10.7956 22L13.24 22ZM13.24 14.2222C13.7923 14.2222 14.24 13.7745 14.24 13.2222L14.24 3.00001C14.24 2.44772 13.7923 2.00001 13.24 2.00001L10.7956 2.00001C10.2433 2.00001 9.79556 2.44772 9.79556 3.00001L9.79556 13.2222C9.79556 13.7745 10.2433 14.2222 10.7956 14.2222L13.24 14.2222Z" fill="black"/>
</svg>
