<svg xmlns="http://www.w3.org/2000/svg" width="24" height="24" viewBox="0 0 24 24" fill="none"><rect width="24" height="24" fill="none"/>
<path fill-rule="evenodd" clip-rule="evenodd" d="M13.241 22C13.7933 22 14.241 21.5523 14.241 21L14.241 18.5556C14.241 18.0033 13.7933 17.5556 13.241 17.5556L10.7965 17.5556C10.2442 17.5556 9.79653 18.0033 9.79653 18.5556L9.79653 21C9.79653 21.5523 10.2443 22 10.7965 22L13.241 22ZM13.241 14.2222C13.7933 14.2222 14.241 13.7745 14.241 13.2222L14.241 3.00001C14.241 2.44772 13.7933 2.00001 13.241 2.00001L10.7965 2.00001C10.2442 2.00001 9.79653 2.44772 9.79653 3.00001L9.79653 13.2222C9.79653 13.7745 10.2443 14.2222 10.7965 14.2222L13.241 14.2222Z" fill="black"/>
</svg>
