<svg xmlns="http://www.w3.org/2000/svg" width="16" height="16" viewBox="0 0 16 16" fill="none"><rect width="16" height="16" fill="none"/>
<path fill-rule="evenodd" clip-rule="evenodd" d="M8.49316 14.6667C9.04545 14.6667 9.49316 14.2189 9.49316 13.6667L9.49316 12.7037C9.49316 12.1514 9.04545 11.7037 8.49316 11.7037L7.53021 11.7037C6.97792 11.7037 6.53021 12.1514 6.53021 12.7037L6.53021 13.6667C6.53021 14.2189 6.97793 14.6667 7.53021 14.6667L8.49316 14.6667ZM8.49316 9.48146C9.04545 9.48146 9.49316 9.03375 9.49316 8.48146L9.49316 2.33334C9.49316 1.78105 9.04545 1.33334 8.49316 1.33334L7.53021 1.33334C6.97792 1.33334 6.53021 1.78105 6.53021 2.33334L6.53021 8.48146C6.53021 9.03375 6.97792 9.48146 7.53021 9.48146L8.49316 9.48146Z" fill="black"/>
</svg>
