<svg xmlns="http://www.w3.org/2000/svg" width="24" height="24" viewBox="0 0 24 24" fill="none"><rect width="24" height="24" fill="none"/>
<path fill-rule="evenodd" clip-rule="evenodd" d="M12.001 22C17.5238 22 22.001 17.5228 22.001 12C22.001 6.47715 17.5238 2 12.001 2C6.47813 2 2.00098 6.47715 2.00098 12C2.00098 17.5228 6.47813 22 12.001 22ZM12.001 20.3333C16.6033 20.3333 20.3343 16.6024 20.3343 12C20.3343 7.39763 16.6033 3.66667 12.001 3.66667C7.3986 3.66667 3.66764 7.39763 3.66764 12C3.66764 16.6024 7.3986 20.3333 12.001 20.3333Z" fill="black"/>
<path d="M11.1676 7.83333C11.1676 7.3731 11.5407 7 12.001 7C12.4612 7 12.8343 7.3731 12.8343 7.83333V12C12.8343 12.4602 12.4612 12.8333 12.001 12.8333C11.5407 12.8333 11.1676 12.4602 11.1676 12V7.83333Z" fill="black"/>
<path d="M11.1676 15.3333C11.1676 14.8731 11.5407 14.5 12.001 14.5C12.4612 14.5 12.8343 14.8731 12.8343 15.3333V16.1667C12.8343 16.6269 12.4612 17 12.001 17C11.5407 17 11.1676 16.6269 11.1676 16.1667V15.3333Z" fill="black"/>
</svg>
