<svg xmlns="http://www.w3.org/2000/svg" width="25" height="24" viewBox="0 0 25 24" fill="none"><rect width="25" height="24" fill="none"/>
<path fill-rule="evenodd" clip-rule="evenodd" d="M13.2292 22C13.7815 22 14.2292 21.5523 14.2292 21L14.2292 18.5556C14.2292 18.0033 13.7815 17.5556 13.2292 17.5556L10.7848 17.5556C10.2325 17.5556 9.78482 18.0033 9.78482 18.5556L9.78482 21C9.78482 21.5523 10.2325 22 10.7848 22L13.2292 22ZM13.2292 14.2222C13.7815 14.2222 14.2292 13.7745 14.2292 13.2222L14.2292 3.00001C14.2292 2.44772 13.7815 2.00001 13.2292 2.00001L10.7848 2.00001C10.2325 2.00001 9.78481 2.44772 9.78481 3.00001L9.78482 13.2222C9.78482 13.7745 10.2325 14.2222 10.7848 14.2222L13.2292 14.2222Z" fill="black"/>
</svg>
