<svg xmlns="http://www.w3.org/2000/svg" width="17" height="17" viewBox="0 0 17 17" fill="none"><rect width="17" height="17" fill="none"/>
<path fill-rule="evenodd" clip-rule="evenodd" d="M8.49805 15.6683C9.05033 15.6683 9.49805 15.2206 9.49805 14.6683L9.49805 13.7054C9.49805 13.1531 9.05033 12.7054 8.49805 12.7054L7.53509 12.7054C6.98281 12.7054 6.53509 13.1531 6.53509 13.7054L6.53509 14.6683C6.53509 15.2206 6.98281 15.6683 7.53509 15.6683L8.49805 15.6683ZM8.49805 10.4831C9.05033 10.4831 9.49805 10.0354 9.49805 9.48311L9.49805 3.33498C9.49805 2.7827 9.05033 2.33498 8.49804 2.33498L7.53509 2.33498C6.98281 2.33498 6.53509 2.7827 6.53509 3.33498L6.53509 9.48311C6.53509 10.0354 6.98281 10.4831 7.53509 10.4831L8.49805 10.4831Z" fill="black"/>
</svg>
