<svg xmlns="http://www.w3.org/2000/svg" width="17" height="17" viewBox="0 0 17 17" fill="none"><rect width="17" height="17" fill="none"/>
<path fill-rule="evenodd" clip-rule="evenodd" d="M8.01628 15.6683C11.6982 15.6683 14.6829 12.6836 14.6829 9.00166C14.6829 5.31976 11.6982 2.33499 8.01628 2.33499C4.33438 2.33499 1.34961 5.31976 1.34961 9.00166C1.34961 12.6836 4.33438 15.6683 8.01628 15.6683ZM8.01628 14.5572C11.0845 14.5572 13.5718 12.0699 13.5718 9.00166C13.5718 5.93341 11.0845 3.4461 8.01628 3.4461C4.94803 3.4461 2.46072 5.93341 2.46072 9.00166C2.46072 12.0699 4.94803 14.5572 8.01628 14.5572Z" fill="black"/>
<path d="M7.46072 6.22388C7.46072 5.91706 7.70945 5.66832 8.01628 5.66832C8.3231 5.66832 8.57183 5.91706 8.57183 6.22388V9.00166C8.57183 9.30848 8.3231 9.55721 8.01628 9.55721C7.70945 9.55721 7.46072 9.30848 7.46072 9.00166V6.22388Z" fill="black"/>
<path d="M7.46072 11.2239C7.46072 10.9171 7.70945 10.6683 8.01628 10.6683C8.3231 10.6683 8.57183 10.9171 8.57183 11.2239V11.7794C8.57183 12.0863 8.3231 12.335 8.01628 12.335C7.70945 12.335 7.46072 12.0863 7.46072 11.7794V11.2239Z" fill="black"/>
</svg>
