<svg xmlns="http://www.w3.org/2000/svg" width="25" height="24" viewBox="0 0 25 24" fill="none"><rect width="25" height="24" fill="none"/>
<path d="M16.6682 5.74805H21.0049V8.24805H16.6727C16.241 8.99745 15.4318 9.50195 14.5049 9.50195C13.5779 9.50195 12.7688 8.99745 12.3371 8.24805H3.00488V5.74805H12.3416C12.7744 5.00295 13.5811 4.50195 14.5049 4.50195C15.4286 4.50195 16.2353 5.00295 16.6682 5.74805Z" fill="black"/>
<path d="M21.0049 15.748H11.6704C11.2382 15.0008 10.4302 14.498 9.50488 14.498C8.57953 14.498 7.7716 15.0008 7.33934 15.748H3.00488V18.248H7.33934C7.7716 18.9953 8.57953 19.498 9.50488 19.498C10.4302 19.498 11.2382 18.9953 11.6704 18.248H21.0049V15.748Z" fill="black"/>
</svg>
