<svg xmlns="http://www.w3.org/2000/svg" width="24" height="25" viewBox="0 0 24 25" fill="none"><rect width="24" height="25" fill="none"/>
<path d="M3.9594 3.83536H12.2183C12.5881 3.83536 12.8879 4.13518 12.8879 4.505V13.4336C12.8879 13.8034 12.5881 14.1032 12.2183 14.1032H3.9594V21.1887C3.9594 21.5585 3.65958 22.005 3.28976 22.005C2.91994 22.005 2.62012 21.5585 2.62012 21.1887V2.67465C2.62012 2.30483 2.91994 2.005 3.28976 2.005C3.65958 2.005 3.9594 2.30483 3.9594 2.67465V3.83536Z" fill="black"/>
<path d="M19.6358 11.2015L21.3219 15.4171C21.4045 15.6234 21.3791 15.8573 21.2545 16.0412C21.13 16.2251 20.9224 16.3354 20.7001 16.3354H9.98582C9.61613 16.3354 9.31617 16.0363 9.31617 15.6658V15.4425H12.218C13.3255 15.4425 14.2269 14.5412 14.2269 13.4336V6.06755H20.7001C20.9224 6.06755 21.13 6.17781 21.2545 6.36174C21.3791 6.54567 21.4045 6.7796 21.3219 6.98585L19.6358 11.2015Z" fill="black"/>
</svg>
