<svg xmlns="http://www.w3.org/2000/svg" width="24" height="24" viewBox="0 0 24 24" fill="none"><rect width="24" height="24" fill="none"/>
<path fill-rule="evenodd" clip-rule="evenodd" d="M22.0984 2.02698C21.8791 2.10539 21.8149 2.1799 21.4413 2.78934C21.3638 2.91588 21.292 3.01943 21.2818 3.01943C21.2717 3.01943 21.039 2.93828 20.7648 2.83908C19.5702 2.407 18.6334 2.17475 17.7704 2.09671C17.4106 2.06418 16.5262 2.08312 16.2151 2.13002C15.3252 2.26416 14.4991 2.60312 13.6999 3.16206C13.0076 3.64625 12.2992 4.34295 11.7336 5.09581C11.5359 5.35914 11.1651 5.90995 11.0123 6.16753L10.9533 6.26707L10.6437 6.2819C9.21099 6.35057 7.40811 6.18334 5.82845 5.83529C5.37686 5.73578 5.35967 5.73374 5.15932 5.75524C4.80269 5.79352 4.7352 5.85116 4.40733 6.39775C2.75841 9.14664 1.73117 11.6265 1.2226 14.086C1.12409 14.5624 1.03793 15.0848 1.0282 15.2645C1.02355 15.3509 1.01306 15.4785 1.00493 15.5482C0.987584 15.6967 1.01461 15.7948 1.10856 15.9244C1.18506 16.0299 1.38463 16.1334 1.9288 16.3495C4.28739 17.2865 6.80734 17.5739 9.33022 17.1935C9.94862 17.1003 10.6269 16.9538 11.1014 16.811C11.3078 16.7488 11.4558 16.6378 11.5309 16.4889C11.5529 16.4451 11.6493 16.1517 11.7451 15.8369C12.0892 14.7053 12.3673 13.9064 12.7102 13.0646L12.9022 12.5932L12.9865 12.5998C13.4463 12.6359 14.421 12.7893 15.1602 12.9419C15.9747 13.1101 17.9504 13.5804 17.9876 13.6149C17.9981 13.6246 17.9603 13.9745 17.9036 14.3924C17.7705 15.3734 17.7071 15.8828 17.4743 17.8459C17.3688 18.7348 17.236 19.8106 17.1792 20.2366C17.0518 21.1913 17.0402 21.3594 17.0912 21.5129C17.1965 21.8296 17.6357 22.0741 17.9481 21.9899C18.0827 21.9537 18.2137 21.8492 18.2699 21.7332C18.3418 21.5847 18.4615 20.6964 18.7773 17.9694C19.2153 14.1858 19.4789 12.4198 19.8777 10.5959C20.5215 7.65166 21.5061 5.11994 22.7574 3.19189C22.9814 2.84663 22.999 2.80575 23 2.6266C23.001 2.44174 22.9608 2.34497 22.8279 2.21217C22.6355 2.01989 22.333 1.9431 22.0984 2.02698ZM18.0381 3.42126C18.4056 3.47628 18.9691 3.61264 19.395 3.74957C19.6644 3.83617 20.6293 4.18036 20.6471 4.19616C20.6499 4.19868 20.562 4.39354 20.4517 4.62917C19.5354 6.58631 18.8721 8.75163 18.3766 11.4035C18.3213 11.6998 18.2635 12.0205 18.2483 12.1162C18.2331 12.2119 18.2123 12.2902 18.2021 12.2902C18.1919 12.2902 17.9229 12.2255 17.6042 12.1464C15.5098 11.6266 14.1564 11.3705 12.8462 11.2461C12.0589 11.1713 10.83 11.1695 10.3412 11.2424C10.2238 11.2599 10.1259 11.2729 10.1237 11.2712C10.1214 11.2695 10.2586 10.94 10.4285 10.5389C11.5943 7.78783 12.4401 6.24029 13.3123 5.26284C14.2484 4.21363 15.5443 3.50689 16.7665 3.37894C17.0517 3.34909 17.7003 3.37068 18.0381 3.42126ZM5.91719 7.20626C7.17406 7.45985 8.30098 7.58479 9.59521 7.614C10.0404 7.62405 10.2277 7.63568 10.2204 7.65281C10.2145 7.66626 10.1347 7.83888 10.043 8.03641C9.83357 8.48749 9.55461 9.14242 9.05346 10.3597C8.64532 11.351 8.37487 11.9827 8.14529 12.481C7.94568 12.9142 7.9045 13.0843 7.90625 13.4687C7.90749 13.7438 7.91528 13.8081 7.96882 13.985C8.0847 14.3678 8.27685 14.7217 8.60852 15.1632C8.71508 15.305 8.81869 15.4573 8.83878 15.5017C8.85884 15.546 8.93783 15.6491 9.01426 15.7308L9.15326 15.8792L9.07885 15.8919C8.29128 16.0262 6.83349 16.0704 5.98277 15.9858C4.73473 15.8617 3.67031 15.6146 2.61847 15.2049C2.43577 15.1337 2.38819 15.1061 2.38819 15.0713C2.38819 15.0473 2.41928 14.8687 2.45727 14.6746C2.86488 12.5924 3.62028 10.5713 4.82098 8.35068C4.98752 8.04267 5.51073 7.12729 5.52026 7.12729C5.52331 7.12729 5.70194 7.16283 5.91719 7.20626ZM11.5094 12.5231C11.5094 12.5277 11.4531 12.6716 11.3842 12.8429C11.1972 13.3083 10.9068 14.119 10.7099 14.7257C10.6137 15.022 10.5326 15.268 10.5296 15.2722C10.5194 15.2867 10.3083 15.1324 10.1977 15.0297C10.1374 14.9736 10.0624 14.8874 10.0311 14.8381C9.99985 14.7888 9.92515 14.6895 9.86512 14.6174C9.39984 14.0588 9.22382 13.5574 9.37347 13.2169C9.42986 13.0887 9.57641 12.9381 9.73495 12.8455C9.99472 12.6938 10.5421 12.5709 11.1003 12.5389C11.2697 12.5293 11.4311 12.5198 11.4589 12.518C11.4867 12.5162 11.5094 12.5184 11.5094 12.5231Z" fill="black"/>
</svg>
