<svg xmlns="http://www.w3.org/2000/svg" width="24" height="24" viewBox="0 0 24 24" fill="none"><rect width="24" height="24" fill="none"/>
<path d="M2.57146 2.41408H12.2621C12.696 2.41408 13.0478 2.76587 13.0478 3.1998V13.6762C13.0478 14.1101 12.696 14.4619 12.2621 14.4619H2.57146V22.7757C2.57146 23.2096 2.21966 23.7335 1.78573 23.7335C1.3518 23.7335 1 23.2096 1 22.7757V1.05215C1 0.618215 1.3518 0.266418 1.78573 0.266418C2.21966 0.266418 2.57146 0.618215 2.57146 1.05215V2.41408Z" fill="black"/>
<path d="M20.9654 11.0571L22.9439 16.0036C23.0408 16.2456 23.0109 16.52 22.8648 16.7359C22.7186 16.9517 22.475 17.0811 22.2142 17.0811H9.64258C9.2088 17.0811 8.85685 16.73 8.85685 16.2953V16.0334H12.2617C13.5613 16.0334 14.6189 14.9758 14.6189 13.6762V5.03322H22.2142C22.475 5.03322 22.7186 5.1626 22.8648 5.37841C23.0109 5.59423 23.0408 5.86871 22.9439 6.11071L20.9654 11.0571Z" fill="black"/>
</svg>
