<svg xmlns="http://www.w3.org/2000/svg" width="24" height="24" viewBox="0 0 24 24" fill="none"><rect width="24" height="24" fill="none"/>
<path d="M4.04021 3.83036H12.2991C12.6689 3.83036 12.9687 4.13018 12.9687 4.5V13.4286C12.9687 13.7984 12.6689 14.0982 12.2991 14.0982H4.04021V21.1837C4.04021 21.5535 3.74039 22 3.37057 22C3.00075 22 2.70093 21.5535 2.70093 21.1837V2.66964C2.70093 2.29982 3.00075 2 3.37057 2C3.74039 2 4.04021 2.29982 4.04021 2.66964V3.83036Z" fill="black"/>
<path d="M19.7166 11.1965L21.4027 15.4121C21.4853 15.6183 21.4599 15.8523 21.3353 16.0362C21.2108 16.2201 21.0032 16.3304 20.7809 16.3304H10.0666C9.69694 16.3304 9.39699 16.0312 9.39699 15.6608V15.4375H12.2988C13.4064 15.4375 14.3077 14.5362 14.3077 13.4286V6.06254H20.7809C21.0032 6.06254 21.2108 6.17281 21.3353 6.35674C21.4599 6.54067 21.4853 6.77459 21.4027 6.98084L19.7166 11.1965Z" fill="black"/>
</svg>
