<svg xmlns="http://www.w3.org/2000/svg" width="17" height="17" viewBox="0 0 17 17" fill="none"><rect width="17" height="17" fill="none"/>
<path d="M2.64774 2.56023H8.15366C8.40021 2.56023 8.60009 2.76012 8.60009 3.00666V8.95904C8.60009 9.20559 8.40021 9.40547 8.15366 9.40547H2.64774V14.1291C2.64774 14.3757 2.44786 14.6733 2.20131 14.6733C1.95476 14.6733 1.75488 14.3757 1.75488 14.1291V1.78642C1.75488 1.53988 1.95476 1.34 2.20131 1.34C2.44786 1.34 2.64774 1.53988 2.64774 1.78642V2.56023Z" fill="black"/>
<path d="M13.0987 7.47098L14.2228 10.2814C14.2778 10.4189 14.2609 10.5748 14.1778 10.6975C14.0948 10.8201 13.9564 10.8936 13.8082 10.8936H6.66535C6.41889 10.8936 6.21892 10.6942 6.21892 10.4472V10.2984H8.15344C8.89184 10.2984 9.49273 9.69747 9.49273 8.95907V4.04836H13.8082C13.9564 4.04836 14.0948 4.12187 14.1778 4.24449C14.2609 4.36711 14.2778 4.52306 14.2228 4.66056L13.0987 7.47098Z" fill="black"/>
</svg>
