<svg xmlns="http://www.w3.org/2000/svg" width="16" height="16" viewBox="0 0 16 16" fill="none"><rect width="16" height="16" fill="none"/>
<path d="M2.69266 2.55355H8.19858C8.44513 2.55355 8.64501 2.75343 8.64501 2.99998V8.95236C8.64501 9.19891 8.44513 9.39879 8.19858 9.39879H2.69266V14.1224C2.69266 14.369 2.49278 14.6666 2.24623 14.6666C1.99969 14.6666 1.7998 14.369 1.7998 14.1224V1.77974C1.7998 1.53319 1.99969 1.33331 2.24623 1.33331C2.49278 1.33331 2.69266 1.53319 2.69266 1.77974V2.55355Z" fill="black"/>
<path d="M13.1436 7.46429L14.2677 10.2747C14.3227 10.4122 14.3058 10.5682 14.2227 10.6908C14.1397 10.8134 14.0013 10.8869 13.8531 10.8869H6.71027C6.46381 10.8869 6.26384 10.6875 6.26384 10.4405V10.2917H8.19837C8.93676 10.2917 9.53765 9.69078 9.53765 8.95239V4.04167H13.8531C14.0013 4.04167 14.1397 4.11519 14.2227 4.2378C14.3058 4.36042 14.3227 4.51638 14.2677 4.65388L13.1436 7.46429Z" fill="black"/>
</svg>
