<svg xmlns="http://www.w3.org/2000/svg" width="16" height="16" viewBox="0 0 16 16" fill="none"><rect width="16" height="16" fill="none"/>
<path fill-rule="evenodd" clip-rule="evenodd" d="M13.8332 7.43565C13.2579 7.87999 12.5365 8.14434 11.7533 8.14434C9.87251 8.14434 8.34782 6.61964 8.34782 4.73884C8.34782 2.85804 9.87251 1.33334 11.7533 1.33334C13.6341 1.33334 15.1588 2.85804 15.1588 4.73884C15.1588 5.4861 14.9181 6.17715 14.5101 6.7387L15.8577 8.08636C16.0474 8.27605 16.0474 8.5836 15.8577 8.77329C15.668 8.96297 15.3605 8.96297 15.1708 8.77329L13.8332 7.43565ZM14.1858 4.73895C14.1858 6.08238 13.0968 7.17145 11.7533 7.17145C10.4099 7.17145 9.32084 6.08238 9.32084 4.73895C9.32084 3.39552 10.4099 2.30645 11.7533 2.30645C13.0968 2.30645 14.1858 3.39552 14.1858 4.73895Z" fill="black"/>
<path fill-rule="evenodd" clip-rule="evenodd" d="M11.1304 8.96996C9.35865 8.81029 7.93515 7.44278 7.68966 5.69713C7.56822 5.69567 7.44704 5.69401 7.32606 5.69235C6.98018 5.68761 6.63587 5.68288 6.29159 5.68288V5.58102C6.28613 4.77679 5.61437 4.11733 4.78969 4.11197H4.24901C4.08516 4.11197 3.94863 3.98329 3.94863 3.82245C3.94863 3.60263 3.7684 3.42034 3.53902 3.42034C3.3151 3.42034 3.12941 3.60263 3.12941 3.82245C3.12941 4.42294 3.63186 4.91619 4.24901 4.91619H4.78969C5.16107 4.91619 5.47237 5.21644 5.47237 5.58638V5.67752C4.72962 5.67752 3.99778 5.68825 3.28233 5.69897C1.38175 5.69897 0 7.05006 0 8.91586V11.3124C0 13.1782 1.38175 14.5293 3.27687 14.5293C4.03601 14.5454 4.80608 14.5508 5.57068 14.5508C6.33528 14.5508 7.09442 14.5454 7.85357 14.5293C9.74869 14.5293 11.1304 13.1782 11.1304 11.3124V8.96996ZM4.35275 10.5137H4.9262C5.15012 10.5137 5.33581 10.3367 5.33581 10.1116C5.33581 9.89173 5.15012 9.70944 4.9262 9.70944H4.35275V9.14649C4.35275 8.92667 4.16706 8.74438 3.94314 8.74438C3.71376 8.74438 3.53353 8.92667 3.53353 9.14649V9.70944H2.95462C2.7307 9.70944 2.54501 9.89173 2.54501 10.1116C2.54501 10.3367 2.7307 10.5137 2.95462 10.5137H3.53353V11.082C3.53353 11.3018 3.71376 11.4841 3.94314 11.4841C4.16706 11.4841 4.35275 11.3018 4.35275 11.082V10.5137ZM7.30199 9.60743H7.24738C7.01799 9.60743 6.83777 9.4305 6.83777 9.20532C6.83777 8.9855 7.01799 8.80321 7.24738 8.80321H7.30199C7.52591 8.80321 7.7116 8.9855 7.7116 9.20532C7.7116 9.4305 7.52591 9.60743 7.30199 9.60743ZM8.23586 11.4519H8.18125C7.95132 11.4519 7.77164 11.275 7.77164 11.0498C7.77164 10.83 7.95132 10.6477 8.18125 10.6477H8.23586C8.45978 10.6477 8.64547 10.83 8.64547 11.0498C8.64547 11.275 8.45978 11.4519 8.23586 11.4519Z" fill="black"/>
</svg>
