<svg xmlns="http://www.w3.org/2000/svg" width="25" height="24" viewBox="0 0 25 24" fill="none"><rect width="25" height="24" fill="none"/>
<path fill-rule="evenodd" clip-rule="evenodd" d="M20.7546 11.2334C19.8917 11.8999 18.8096 12.2965 17.6349 12.2965C14.8137 12.2965 12.5266 10.0094 12.5266 7.18823C12.5266 4.36703 14.8137 2.07999 17.6349 2.07999C20.4561 2.07999 22.7431 4.36703 22.7431 7.18823C22.7431 8.30913 22.3821 9.3457 21.77 10.188L23.7915 12.2095C24.076 12.4941 24.076 12.9554 23.7915 13.2399C23.5069 13.5244 23.0456 13.5244 22.7611 13.2399L20.7546 11.2334ZM21.2836 7.1884C21.2836 9.20354 19.65 10.8371 17.6349 10.8371C15.6197 10.8371 13.9861 9.20354 13.9861 7.1884C13.9861 5.17325 15.6197 3.53965 17.6349 3.53965C19.65 3.53965 21.2836 5.17325 21.2836 7.1884Z" fill="black"/>
<path fill-rule="evenodd" clip-rule="evenodd" d="M16.7005 13.5349C14.0429 13.2954 11.9076 11.2441 11.5394 8.62567C11.3572 8.62348 11.1754 8.62098 10.994 8.6185C10.4752 8.61138 9.95869 8.6043 9.44227 8.6043V8.4515C9.43408 7.24516 8.42644 6.25597 7.18942 6.24793H6.37839C6.13263 6.24793 5.92782 6.05491 5.92782 5.81365C5.92782 5.48392 5.65748 5.21048 5.31341 5.21048C4.97753 5.21048 4.699 5.48392 4.699 5.81365C4.699 6.71438 5.45268 7.45426 6.37839 7.45426H7.18942C7.74649 7.45426 8.21344 7.90462 8.21344 8.45954V8.59626C7.09931 8.59626 6.00155 8.61234 4.92838 8.62842C2.0775 8.62842 0.00488281 10.6551 0.00488281 13.4538V17.0486C0.00488281 19.8473 2.0775 21.874 4.92019 21.874C6.0589 21.8981 7.214 21.9061 8.3609 21.9061C9.5078 21.9061 10.6465 21.8981 11.7852 21.874C14.6279 21.874 16.7005 19.8473 16.7005 17.0486V13.5349ZM6.534 15.8505H7.39418C7.73006 15.8505 8.00859 15.5851 8.00859 15.2473C8.00859 14.9176 7.73006 14.6441 7.39418 14.6441H6.534V13.7997C6.534 13.47 6.25547 13.1965 5.91959 13.1965C5.57552 13.1965 5.30518 13.47 5.30518 13.7997V14.6441H4.43681C4.10093 14.6441 3.82239 14.9176 3.82239 15.2473C3.82239 15.5851 4.10093 15.8505 4.43681 15.8505H5.30518V16.7029C5.30518 17.0327 5.57552 17.3061 5.91959 17.3061C6.25547 17.3061 6.534 17.0327 6.534 16.7029V15.8505ZM10.9579 14.4911H10.8759C10.5319 14.4911 10.2615 14.2257 10.2615 13.8879C10.2615 13.5582 10.5319 13.2848 10.8759 13.2848H10.9579C11.2937 13.2848 11.5723 13.5582 11.5723 13.8879C11.5723 14.2257 11.2937 14.4911 10.9579 14.4911ZM12.3587 17.2579H12.2768C11.9319 17.2579 11.6623 16.9925 11.6623 16.6547C11.6623 16.325 11.9319 16.0516 12.2768 16.0516H12.3587C12.6946 16.0516 12.9731 16.325 12.9731 16.6547C12.9731 16.9925 12.6946 17.2579 12.3587 17.2579Z" fill="black"/>
</svg>
