<svg xmlns="http://www.w3.org/2000/svg" width="17" height="16" viewBox="0 0 17 16" fill="none"><rect width="17" height="16" fill="none"/>
<path fill-rule="evenodd" clip-rule="evenodd" d="M8.67155 4.77665C8.67155 2.75161 10.3132 1.10999 12.3382 1.10999C14.3633 1.10999 16.0049 2.75161 16.0049 4.77665C16.0049 6.8017 14.3633 8.44332 12.3382 8.44332C10.3132 8.44332 8.67155 6.8017 8.67155 4.77665ZM14.0983 3.8701C14.196 3.77246 14.196 3.61417 14.0983 3.51654C14.0007 3.41891 13.8424 3.41891 13.7448 3.51654L11.7549 5.50643L10.9317 4.68321C10.834 4.58558 10.6757 4.58558 10.5781 4.68321C10.4805 4.78084 10.4805 4.93913 10.5781 5.03676L11.5781 6.03676C11.6757 6.13439 11.834 6.13439 11.9317 6.03676L14.0983 3.8701Z" fill="black"/>
<path fill-rule="evenodd" clip-rule="evenodd" d="M7.86542 5.82629C7.74132 5.8248 7.61749 5.8231 7.49385 5.8214C7.14029 5.81655 6.78822 5.81172 6.43629 5.81172V5.70759C6.4307 4.8855 5.74402 4.21138 4.90101 4.2059H4.34831C4.18083 4.2059 4.04126 4.07437 4.04126 3.90995C4.04126 3.68524 3.85703 3.4989 3.62255 3.4989C3.39365 3.4989 3.20384 3.68524 3.20384 3.90995C3.20384 4.52378 3.71746 5.028 4.34831 5.028H4.90101C5.28064 5.028 5.59886 5.33491 5.59886 5.71307V5.80624C4.8396 5.80624 4.0915 5.81721 3.36016 5.82817C1.41734 5.82817 0.00488281 7.20928 0.00488281 9.11654V11.5664C0.00488281 13.4736 1.41734 14.8548 3.35457 14.8548C4.13058 14.8712 4.91776 14.8767 5.69936 14.8767C6.48095 14.8767 7.25696 14.8712 8.03297 14.8548C9.97021 14.8548 11.3827 13.4736 11.3827 11.5664V9.17185C9.57151 9.00863 8.11637 7.61073 7.86542 5.82629ZM4.45437 10.7498H5.04056C5.26946 10.7498 5.45927 10.569 5.45927 10.3388C5.45927 10.1141 5.26946 9.92775 5.04056 9.92775H4.45437V9.35228C4.45437 9.12758 4.26455 8.94123 4.03566 8.94123C3.80118 8.94123 3.61695 9.12758 3.61695 9.35228V9.92775H3.02517C2.79627 9.92775 2.60646 10.1141 2.60646 10.3388C2.60646 10.569 2.79627 10.7498 3.02517 10.7498H3.61695V11.3308C3.61695 11.5555 3.80118 11.7418 4.03566 11.7418C4.26455 11.7418 4.45437 11.5555 4.45437 11.3308V10.7498ZM7.46914 9.82352H7.41331C7.17883 9.82352 6.9946 9.64266 6.9946 9.41247C6.9946 9.18776 7.17883 9.00142 7.41331 9.00142H7.46914C7.69803 9.00142 7.88785 9.18776 7.88785 9.41247C7.88785 9.64266 7.69803 9.82352 7.46914 9.82352ZM8.42378 11.709H8.36795C8.13292 11.709 7.94924 11.5282 7.94924 11.298C7.94924 11.0733 8.13292 10.8869 8.36795 10.8869H8.42378C8.65268 10.8869 8.84249 11.0733 8.84249 11.298C8.84249 11.5282 8.65268 11.709 8.42378 11.709Z" fill="black"/>
</svg>
