<svg xmlns="http://www.w3.org/2000/svg" width="24" height="24" viewBox="0 0 24 24" fill="none"><rect width="24" height="24" fill="none"/>
<path fill-rule="evenodd" clip-rule="evenodd" d="M13 7.2C13 4.16243 15.4624 1.7 18.5 1.7C21.5376 1.7 24 4.16243 24 7.2C24 10.2376 21.5376 12.7 18.5 12.7C15.4624 12.7 13 10.2376 13 7.2ZM21.1402 5.84016C21.2866 5.69372 21.2866 5.45628 21.1402 5.30983C20.9937 5.16339 20.7563 5.16339 20.6098 5.30983L17.625 8.29467L16.3902 7.05983C16.2437 6.91339 16.0063 6.91339 15.8598 7.05983C15.7134 7.20628 15.7134 7.44372 15.8598 7.59016L17.3598 9.09016C17.5063 9.23661 17.7437 9.23661 17.8902 9.09016L21.1402 5.84016Z" fill="black"/>
<path fill-rule="evenodd" clip-rule="evenodd" d="M11.7908 8.77446C11.6047 8.77221 11.4189 8.76967 11.2335 8.76712C10.7031 8.75985 10.175 8.75261 9.64711 8.75261V8.59641C9.63873 7.36327 8.6087 6.35209 7.34419 6.34387H6.51515C6.26392 6.34387 6.05456 6.14657 6.05456 5.89994C6.05456 5.56288 5.77821 5.28337 5.4265 5.28337C5.08315 5.28337 4.79843 5.56288 4.79843 5.89994C4.79843 6.82069 5.56886 7.57701 6.51515 7.57701H7.34419C7.91364 7.57701 8.39097 8.03738 8.39097 8.60463V8.74439C7.25208 8.74439 6.12993 8.76083 5.03291 8.77727C2.11868 8.77727 0 10.8489 0 13.7098V17.3846C0 20.2455 2.11868 22.3172 5.02453 22.3172C6.18855 22.3418 7.36932 22.35 8.54171 22.35C9.7141 22.35 10.8781 22.3418 12.0421 22.3172C14.948 22.3172 17.0667 20.2455 17.0667 17.3846V13.7928C14.3499 13.548 12.1672 11.4511 11.7908 8.77446ZM6.67423 16.1598H7.55352C7.89686 16.1598 8.18159 15.8885 8.18159 15.5432C8.18159 15.2062 7.89686 14.9266 7.55352 14.9266H6.67423V14.0634C6.67423 13.7264 6.3895 13.4469 6.04616 13.4469C5.69444 13.4469 5.41809 13.7264 5.41809 14.0634V14.9266H4.53043C4.18708 14.9266 3.90236 15.2062 3.90236 15.5432C3.90236 15.8885 4.18708 16.1598 4.53043 16.1598H5.41809V17.0312C5.41809 17.3683 5.69444 17.6478 6.04616 17.6478C6.3895 17.6478 6.67423 17.3683 6.67423 17.0312V16.1598ZM11.1964 14.7703H11.1126C10.7609 14.7703 10.4846 14.499 10.4846 14.1537C10.4846 13.8167 10.7609 13.5372 11.1126 13.5372H11.1964C11.5397 13.5372 11.8244 13.8167 11.8244 14.1537C11.8244 14.499 11.5397 14.7703 11.1964 14.7703ZM12.6283 17.5986H12.5446C12.192 17.5986 11.9165 17.3273 11.9165 16.982C11.9165 16.6449 12.192 16.3654 12.5446 16.3654H12.6283C12.9717 16.3654 13.2564 16.6449 13.2564 16.982C13.2564 17.3273 12.9717 17.5986 12.6283 17.5986Z" fill="black"/>
</svg>
