<svg xmlns="http://www.w3.org/2000/svg" width="16" height="16" viewBox="0 0 16 16" fill="none"><rect width="16" height="16" fill="none"/>
<path fill-rule="evenodd" clip-rule="evenodd" d="M7.86054 5.883C7.73643 5.88151 7.6126 5.87981 7.48897 5.87811C7.13541 5.87327 6.78333 5.86844 6.4314 5.86844V5.76431C6.42582 4.94221 5.73913 4.26809 4.89613 4.26261H4.34343C4.17595 4.26261 4.03638 4.13108 4.03638 3.96666C4.03638 3.74195 3.85214 3.55561 3.61766 3.55561C3.38877 3.55561 3.19895 3.74195 3.19895 3.96666C3.19895 4.58049 3.71257 5.08471 4.34343 5.08471H4.89613C5.27576 5.08471 5.59398 5.39162 5.59398 5.76979V5.86296C4.83472 5.86296 4.08662 5.87392 3.35527 5.88488C1.41245 5.88488 0 7.266 0 9.17325V11.6231C0 13.5304 1.41245 14.9115 3.34969 14.9115C4.1257 14.9279 4.91288 14.9334 5.69447 14.9334C6.47607 14.9334 7.25208 14.9279 8.02809 14.9115C9.96533 14.9115 11.3778 13.5304 11.3778 11.6231V9.22856C9.56662 9.06535 8.11149 7.66744 7.86054 5.883ZM4.44948 10.8066H5.03568C5.26458 10.8066 5.45439 10.6257 5.45439 10.3955C5.45439 10.1708 5.26458 9.98446 5.03568 9.98446H4.44948V9.40899C4.44948 9.18429 4.25967 8.99795 4.03077 8.99795C3.7963 8.99795 3.61206 9.18429 3.61206 9.40899V9.98446H3.02028C2.79139 9.98446 2.60157 10.1708 2.60157 10.3955C2.60157 10.6257 2.79139 10.8066 3.02028 10.8066H3.61206V11.3875C3.61206 11.6122 3.7963 11.7985 4.03077 11.7985C4.25967 11.7985 4.44948 11.6122 4.44948 11.3875V10.8066ZM7.46425 9.88032H7.40843C7.17395 9.88032 6.98971 9.69946 6.98971 9.46927C6.98971 9.24456 7.17395 9.05822 7.40843 9.05822H7.46425C7.69315 9.05822 7.88296 9.24456 7.88296 9.46927C7.88296 9.69946 7.69315 9.88032 7.46425 9.88032ZM8.4189 11.7658H8.36307C8.12803 11.7658 7.94436 11.585 7.94436 11.3548C7.94436 11.1301 8.12803 10.9437 8.36307 10.9437H8.4189C8.64779 10.9437 8.83761 11.1301 8.83761 11.3548C8.83761 11.585 8.64779 11.7658 8.4189 11.7658Z" fill="black"/>
<path fill-rule="evenodd" clip-rule="evenodd" d="M16 4.62224C16 6.58592 14.4081 8.17779 12.4444 8.17779C10.4808 8.17779 8.88888 6.58592 8.88888 4.62224C8.88888 2.65856 10.4808 1.06668 12.4444 1.06668C14.4081 1.06668 16 2.65856 16 4.62224ZM12.0889 2.84446H12.8V4.72236L14.1071 5.6222L13.7586 6.12839L12.0889 4.97891L12.0896 4.97779H12.0889V2.84446Z" fill="black"/>
</svg>
