<svg xmlns="http://www.w3.org/2000/svg" width="17" height="16" viewBox="0 0 17 16" fill="none"><rect width="17" height="16" fill="none"/>
<path fill-rule="evenodd" clip-rule="evenodd" d="M7.86542 5.87632C7.74132 5.87482 7.61749 5.87313 7.49385 5.87143C7.14029 5.86658 6.78822 5.86175 6.43629 5.86175V5.75762C6.4307 4.93553 5.74402 4.26141 4.90101 4.25593H4.34831C4.18083 4.25593 4.04126 4.1244 4.04126 3.95998C4.04126 3.73527 3.85703 3.54893 3.62255 3.54893C3.39365 3.54893 3.20384 3.73527 3.20384 3.95998C3.20384 4.57381 3.71746 5.07802 4.34831 5.07802H4.90101C5.28064 5.07802 5.59886 5.38494 5.59886 5.7631V5.85627C4.8396 5.85627 4.0915 5.86723 3.36016 5.8782C1.41734 5.8782 0.00488281 7.25931 0.00488281 9.16657V11.6164C0.00488281 13.5237 1.41734 14.9048 3.35457 14.9048C4.13058 14.9212 4.91776 14.9267 5.69936 14.9267C6.48095 14.9267 7.25696 14.9212 8.03297 14.9048C9.97021 14.9048 11.3827 13.5237 11.3827 11.6164V9.22188C9.57151 9.05866 8.11637 7.66076 7.86542 5.87632ZM4.45437 10.7999H5.04056C5.26946 10.7999 5.45927 10.619 5.45927 10.3888C5.45927 10.1641 5.26946 9.97778 5.04056 9.97778H4.45437V9.40231C4.45437 9.1776 4.26455 8.99126 4.03566 8.99126C3.80118 8.99126 3.61695 9.1776 3.61695 9.40231V9.97778H3.02517C2.79627 9.97778 2.60646 10.1641 2.60646 10.3888C2.60646 10.619 2.79627 10.7999 3.02517 10.7999H3.61695V11.3808C3.61695 11.6055 3.80118 11.7919 4.03566 11.7919C4.26455 11.7919 4.45437 11.6055 4.45437 11.3808V10.7999ZM7.46914 9.87355H7.41331C7.17883 9.87355 6.9946 9.69269 6.9946 9.4625C6.9946 9.23779 7.17883 9.05145 7.41331 9.05145H7.46914C7.69803 9.05145 7.88785 9.23779 7.88785 9.4625C7.88785 9.69269 7.69803 9.87355 7.46914 9.87355ZM8.42378 11.7591H8.36795C8.13291 11.7591 7.94924 11.5782 7.94924 11.348C7.94924 11.1233 8.13291 10.937 8.36795 10.937H8.42378C8.65267 10.937 8.84249 11.1233 8.84249 11.348C8.84249 11.5782 8.65267 11.7591 8.42378 11.7591Z" fill="black"/>
<path fill-rule="evenodd" clip-rule="evenodd" d="M12.4493 8.17111C14.413 8.17111 16.0049 6.57923 16.0049 4.61555C16.0049 2.65187 14.413 1.06 12.4493 1.06C10.4856 1.06 8.89377 2.65187 8.89377 4.61555C8.89377 6.57923 10.4856 8.17111 12.4493 8.17111ZM14.2271 4.97109V4.25998L10.6715 4.25998V4.97109H14.2271Z" fill="black"/>
</svg>
