<svg xmlns="http://www.w3.org/2000/svg" width="17" height="16" viewBox="0 0 17 16" fill="none"><rect width="17" height="16" fill="none"/>
<path fill-rule="evenodd" clip-rule="evenodd" d="M13.838 7.49232C13.2628 7.93666 12.5413 8.20101 11.7582 8.20101C9.8774 8.20101 8.3527 6.67632 8.3527 4.79551C8.3527 2.91471 9.8774 1.39001 11.7582 1.39001C13.639 1.39001 15.1637 2.91471 15.1637 4.79551C15.1637 5.54278 14.923 6.23382 14.5149 6.79537L15.8626 8.14304C16.0523 8.33272 16.0523 8.64027 15.8626 8.82996C15.6729 9.01964 15.3654 9.01964 15.1757 8.82996L13.838 7.49232ZM14.1907 4.79562C14.1907 6.13905 13.1017 7.22812 11.7582 7.22812C10.4148 7.22812 9.32573 6.13905 9.32573 4.79562C9.32573 3.45219 10.4148 2.36312 11.7582 2.36312C13.1017 2.36312 14.1907 3.45219 14.1907 4.79562Z" fill="black"/>
<path fill-rule="evenodd" clip-rule="evenodd" d="M11.1353 9.02663C9.36353 8.86697 7.94004 7.49945 7.69454 5.75381C7.5731 5.75234 7.45192 5.75068 7.33094 5.74902C6.98506 5.74428 6.64076 5.73956 6.29647 5.73956V5.63769C6.29101 4.83346 5.61925 4.174 4.79457 4.16864H4.25389C4.09005 4.16864 3.95351 4.03997 3.95351 3.87912C3.95351 3.6593 3.77328 3.47701 3.5439 3.47701C3.31998 3.47701 3.13429 3.6593 3.13429 3.87912C3.13429 4.47961 3.63675 4.97286 4.25389 4.97286H4.79457C5.16595 4.97286 5.47726 5.27311 5.47726 5.64305V5.73419C4.7345 5.73419 4.00266 5.74492 3.28721 5.75564C1.38663 5.75564 0.00488281 7.10673 0.00488281 8.97253V11.3691C0.00488281 13.2349 1.38663 14.586 3.28175 14.586C4.04089 14.6021 4.81096 14.6074 5.57556 14.6074C6.34016 14.6074 7.09931 14.6021 7.85845 14.586C9.75357 14.586 11.1353 13.2349 11.1353 11.3691V9.02663ZM4.35763 10.5703H4.93108C5.155 10.5703 5.34069 10.3934 5.34069 10.1682C5.34069 9.94841 5.155 9.76612 4.93108 9.76612H4.35763V9.20316C4.35763 8.98334 4.17194 8.80105 3.94802 8.80105C3.71864 8.80105 3.53841 8.98334 3.53841 9.20316V9.76612H2.9595C2.73558 9.76612 2.54989 9.94841 2.54989 10.1682C2.54989 10.3934 2.73558 10.5703 2.9595 10.5703H3.53841V11.1387C3.53841 11.3585 3.71864 11.5408 3.94802 11.5408C4.17194 11.5408 4.35763 11.3585 4.35763 11.1387V10.5703ZM7.30687 9.6641H7.25226C7.02288 9.6641 6.84265 9.48717 6.84265 9.26199C6.84265 9.04217 7.02288 8.85988 7.25226 8.85988H7.30687C7.53079 8.85988 7.71648 9.04217 7.71648 9.26199C7.71648 9.48717 7.53079 9.6641 7.30687 9.6641ZM8.24074 11.5086H8.18613C7.9562 11.5086 7.77652 11.3317 7.77652 11.1065C7.77652 10.8867 7.9562 10.7044 8.18613 10.7044H8.24074C8.46466 10.7044 8.65035 10.8867 8.65035 11.1065C8.65035 11.3317 8.46466 11.5086 8.24074 11.5086Z" fill="black"/>
</svg>
