<svg xmlns="http://www.w3.org/2000/svg" width="24" height="24" viewBox="0 0 24 24" fill="none"><rect width="24" height="24" fill="none"/>
<path fill-rule="evenodd" clip-rule="evenodd" d="M11.7908 8.82449C11.6047 8.82225 11.4189 8.8197 11.2335 8.81716C10.7031 8.80988 10.175 8.80264 9.64711 8.80264V8.64644C9.63873 7.4133 8.6087 6.40213 7.34419 6.39391H6.51515C6.26392 6.39391 6.05456 6.1966 6.05456 5.94998C6.05456 5.61292 5.77821 5.3334 5.4265 5.3334C5.08315 5.3334 4.79843 5.61292 4.79843 5.94998C4.79843 6.87072 5.56886 7.62705 6.51515 7.62705H7.34419C7.91364 7.62705 8.39097 8.08742 8.39097 8.65466V8.79442C7.25208 8.79442 6.12993 8.81086 5.03291 8.8273C2.11868 8.8273 0 10.899 0 13.7599V17.4346C0 20.2955 2.11868 22.3672 5.02453 22.3672C6.18855 22.3918 7.36932 22.4001 8.54171 22.4001C9.7141 22.4001 10.8781 22.3918 12.0421 22.3672C14.948 22.3672 17.0667 20.2955 17.0667 17.4346V13.8428C14.3499 13.598 12.1672 11.5012 11.7908 8.82449ZM6.67423 16.2098H7.55352C7.89686 16.2098 8.18159 15.9385 8.18159 15.5932C8.18159 15.2562 7.89686 14.9767 7.55352 14.9767H6.67423V14.1135C6.67423 13.7764 6.3895 13.4969 6.04616 13.4969C5.69444 13.4969 5.41809 13.7764 5.41809 14.1135V14.9767H4.53043C4.18708 14.9767 3.90236 15.2562 3.90236 15.5932C3.90236 15.9385 4.18708 16.2098 4.53043 16.2098H5.41809V17.0812C5.41809 17.4183 5.69444 17.6978 6.04616 17.6978C6.3895 17.6978 6.67423 17.4183 6.67423 17.0812V16.2098ZM11.1964 14.8205H11.1126C10.7609 14.8205 10.4846 14.5492 10.4846 14.2039C10.4846 13.8668 10.7609 13.5873 11.1126 13.5873H11.1964C11.5397 13.5873 11.8244 13.8668 11.8244 14.2039C11.8244 14.5492 11.5397 14.8205 11.1964 14.8205ZM12.6283 17.6487H12.5446C12.192 17.6487 11.9165 17.3774 11.9165 17.0321C11.9165 16.6951 12.192 16.4156 12.5446 16.4156H12.6283C12.9717 16.4156 13.2564 16.6951 13.2564 17.0321C13.2564 17.3774 12.9717 17.6487 12.6283 17.6487Z" fill="black"/>
<path fill-rule="evenodd" clip-rule="evenodd" d="M24 6.93334C24 9.87886 21.6122 12.2667 18.6667 12.2667C15.7211 12.2667 13.3333 9.87886 13.3333 6.93334C13.3333 3.98782 15.7211 1.60001 18.6667 1.60001C21.6122 1.60001 24 3.98782 24 6.93334ZM18.1333 4.26667H19.2V7.08353L21.1606 8.43328L20.6379 9.19257L18.1333 7.46834L18.1345 7.46667H18.1333V4.26667Z" fill="black"/>
</svg>
