<svg xmlns="http://www.w3.org/2000/svg" width="17" height="17" viewBox="0 0 17 17" fill="none"><rect width="17" height="17" fill="none"/>
<path fill-rule="evenodd" clip-rule="evenodd" d="M10.1207 4.06171C10.3308 4.06459 10.5413 4.06747 10.7526 4.06964C13.0228 4.06964 14.6781 5.68813 14.6781 7.9232V10.7941C14.6781 13.0292 13.0228 14.6477 10.7526 14.6477C9.84326 14.6669 8.93387 14.6734 8.01794 14.6734C7.10201 14.6734 6.17953 14.6669 5.27014 14.6477C2.99994 14.6477 1.34473 13.0292 1.34473 10.7941V7.9232C1.34473 5.68813 2.99994 4.06964 5.27669 4.06964C6.13374 4.05679 7.01041 4.04394 7.90017 4.04394V3.93476C7.90017 3.4916 7.52726 3.13193 7.08238 3.13193H6.43468C5.6954 3.13193 5.0935 2.54105 5.0935 1.82172C5.0935 1.5584 5.31594 1.34003 5.58418 1.34003C5.85896 1.34003 6.07485 1.5584 6.07485 1.82172C6.07485 2.0144 6.23841 2.16854 6.43468 2.16854H7.08238C8.07027 2.17497 8.87499 2.96495 8.88153 3.92834V4.05037C9.29395 4.05037 9.70638 4.05602 10.1207 4.06171ZM7.24594 9.83718H6.55899V10.518C6.55899 10.7813 6.33655 10.9997 6.06831 10.9997C5.79354 10.9997 5.57764 10.7813 5.57764 10.518V9.83718H4.88415C4.61591 9.83718 4.39347 9.62523 4.39347 9.35548C4.39347 9.09216 4.61591 8.87379 4.88415 8.87379H5.57764V8.19942C5.57764 7.93609 5.79354 7.71772 6.06831 7.71772C6.33655 7.71772 6.55899 7.93609 6.55899 8.19942V8.87379H7.24594C7.51418 8.87379 7.73662 9.09216 7.73662 9.35548C7.73662 9.62523 7.51418 9.83718 7.24594 9.83718ZM10.0265 8.75176H10.0919C10.3601 8.75176 10.5826 8.53981 10.5826 8.27006C10.5826 8.00674 10.3601 7.78837 10.0919 7.78837H10.0265C9.75168 7.78837 9.53578 8.00674 9.53578 8.27006C9.53578 8.53981 9.75168 8.75176 10.0265 8.75176ZM11.1452 10.9612H11.2106C11.4789 10.9612 11.7013 10.7492 11.7013 10.4795C11.7013 10.2161 11.4789 9.99777 11.2106 9.99777H11.1452C10.8698 9.99777 10.6545 10.2161 10.6545 10.4795C10.6545 10.7492 10.8698 10.9612 11.1452 10.9612Z" fill="black"/>
</svg>
