<svg xmlns="http://www.w3.org/2000/svg" width="25" height="24" viewBox="0 0 25 24" fill="none"><rect width="25" height="24" fill="none"/>
<path fill-rule="evenodd" clip-rule="evenodd" d="M11.7957 8.82446C11.6095 8.82222 11.4238 8.81967 11.2383 8.81713C10.708 8.80985 10.1799 8.80261 9.65199 8.80261V8.64641C9.64361 7.41327 8.61358 6.4021 7.34908 6.39388H6.52003C6.2688 6.39388 6.05945 6.19657 6.05945 5.94994C6.05945 5.61289 5.7831 5.33337 5.43138 5.33337C5.08804 5.33337 4.80331 5.61289 4.80331 5.94994C4.80331 6.87069 5.57374 7.62702 6.52003 7.62702H7.34908C7.91852 7.62702 8.39585 8.08739 8.39585 8.65463V8.79439C7.25696 8.79439 6.13481 8.81083 5.03779 8.82727C2.12356 8.82727 0.00488281 10.8989 0.00488281 13.7598V17.4346C0.00488281 20.2955 2.12356 22.3672 5.02942 22.3672C6.19343 22.3918 7.3742 22.4 8.54659 22.4C9.71898 22.4 10.883 22.3918 12.047 22.3672C14.9529 22.3672 17.0716 20.2955 17.0716 17.4346V13.8428C14.3548 13.598 12.1721 11.5011 11.7957 8.82446ZM6.67911 16.2098H7.5584C7.90175 16.2098 8.18647 15.9385 8.18647 15.5932C8.18647 15.2562 7.90175 14.9766 7.5584 14.9766H6.67911V14.1134C6.67911 13.7764 6.39439 13.4969 6.05104 13.4969C5.69933 13.4969 5.42298 13.7764 5.42298 14.1134V14.9766H4.53531C4.19197 14.9766 3.90724 15.2562 3.90724 15.5932C3.90724 15.9385 4.19197 16.2098 4.53531 16.2098H5.42298V17.0812C5.42298 17.4183 5.69933 17.6978 6.05104 17.6978C6.39439 17.6978 6.67911 17.4183 6.67911 17.0812V16.2098ZM11.2013 14.8204H11.1175C10.7658 14.8204 10.4895 14.5491 10.4895 14.2039C10.4895 13.8668 10.7658 13.5873 11.1175 13.5873H11.2013C11.5446 13.5873 11.8293 13.8668 11.8293 14.2039C11.8293 14.5491 11.5446 14.8204 11.2013 14.8204ZM12.6332 17.6487H12.5495C12.1969 17.6487 11.9214 17.3774 11.9214 17.0321C11.9214 16.6951 12.1969 16.4155 12.5495 16.4155H12.6332C12.9766 16.4155 13.2613 16.6951 13.2613 17.0321C13.2613 17.3774 12.9766 17.6487 12.6332 17.6487Z" fill="black"/>
<path fill-rule="evenodd" clip-rule="evenodd" d="M24.0049 6.93331C24.0049 9.87883 21.6171 12.2666 18.6715 12.2666C15.726 12.2666 13.3382 9.87883 13.3382 6.93331C13.3382 3.98779 15.726 1.59998 18.6715 1.59998C21.6171 1.59998 24.0049 3.98779 24.0049 6.93331ZM18.1382 4.26664H19.2049V7.0835L21.1655 8.43325L20.6428 9.19254L18.1382 7.46831L18.1394 7.46664H18.1382V4.26664Z" fill="black"/>
</svg>
