<svg xmlns="http://www.w3.org/2000/svg" width="16" height="16" viewBox="0 0 16 16" fill="none"><rect width="16" height="16" fill="none"/>
<path fill-rule="evenodd" clip-rule="evenodd" d="M10.1095 4.05502C10.3196 4.0579 10.5301 4.06079 10.7414 4.06295C13.0116 4.06295 14.6668 5.68145 14.6668 7.91652V10.7874C14.6668 13.0225 13.0116 14.641 10.7414 14.641C9.83202 14.6603 8.92264 14.6667 8.00671 14.6667C7.09077 14.6667 6.1683 14.6603 5.25891 14.641C2.98871 14.641 1.3335 13.0225 1.3335 10.7874V7.91652C1.3335 5.68145 2.98871 4.06295 5.26546 4.06295C6.12251 4.05011 6.99918 4.03726 7.88894 4.03726V3.92808C7.88894 3.48492 7.51603 3.12525 7.07115 3.12525H6.42345C5.68417 3.12525 5.08227 2.53437 5.08227 1.81504C5.08227 1.55171 5.30471 1.33334 5.57295 1.33334C5.84773 1.33334 6.06362 1.55171 6.06362 1.81504C6.06362 2.00772 6.22718 2.16186 6.42345 2.16186H7.07115C8.05904 2.16828 8.86376 2.95826 8.8703 3.92165V4.04368C9.28272 4.04368 9.69515 4.04934 10.1095 4.05502ZM7.23471 9.8305H6.54776V10.5113C6.54776 10.7746 6.32532 10.993 6.05708 10.993C5.7823 10.993 5.56641 10.7746 5.56641 10.5113V9.8305H4.87292C4.60468 9.8305 4.38224 9.61855 4.38224 9.3488C4.38224 9.08547 4.60468 8.86711 4.87292 8.86711H5.56641V8.19273C5.56641 7.92941 5.7823 7.71104 6.05708 7.71104C6.32532 7.71104 6.54776 7.92941 6.54776 8.19273V8.86711H7.23471C7.50295 8.86711 7.72539 9.08547 7.72539 9.3488C7.72539 9.61855 7.50295 9.8305 7.23471 9.8305ZM10.0152 8.74507H10.0806C10.3489 8.74507 10.5713 8.53313 10.5713 8.26338C10.5713 8.00005 10.3489 7.78168 10.0806 7.78168H10.0152C9.74045 7.78168 9.52455 8.00005 9.52455 8.26338C9.52455 8.53313 9.74045 8.74507 10.0152 8.74507ZM11.134 10.9545H11.1994C11.4676 10.9545 11.6901 10.7425 11.6901 10.4728C11.6901 10.2095 11.4676 9.99108 11.1994 9.99108H11.134C10.8585 9.99108 10.6433 10.2095 10.6433 10.4728C10.6433 10.7425 10.8585 10.9545 11.134 10.9545Z" fill="black"/>
</svg>
