<svg xmlns="http://www.w3.org/2000/svg" width="24" height="24" viewBox="0 0 24 24" fill="none"><rect width="24" height="24" fill="none"/>
<path fill-rule="evenodd" clip-rule="evenodd" d="M20.7498 11.1535C19.8868 11.82 18.8047 12.2165 17.63 12.2165C14.8088 12.2165 12.5217 9.92945 12.5217 7.10825C12.5217 4.28704 14.8088 2 17.63 2C20.4512 2 22.7382 4.28704 22.7382 7.10825C22.7382 8.22914 22.3772 9.26571 21.7651 10.108L23.7866 12.1295C24.0711 12.4141 24.0711 12.8754 23.7866 13.1599C23.5021 13.4444 23.0407 13.4444 22.7562 13.1599L20.7498 11.1535ZM21.2788 7.10841C21.2788 9.12356 19.6452 10.7572 17.63 10.7572C15.6149 10.7572 13.9813 9.12356 13.9813 7.10841C13.9813 5.09326 15.6149 3.45966 17.63 3.45966C19.6452 3.45966 21.2788 5.09326 21.2788 7.10841Z" fill="black"/>
<path fill-rule="evenodd" clip-rule="evenodd" d="M16.6957 13.4549C14.038 13.2154 11.9027 11.1642 11.5345 8.54569C11.3523 8.54349 11.1706 8.541 10.9891 8.53851C10.4703 8.53139 9.95381 8.52431 9.43739 8.52431V8.37151C9.42919 7.16518 8.42156 6.17598 7.18454 6.16794H6.37351C6.12775 6.16794 5.92294 5.97493 5.92294 5.73366C5.92294 5.40393 5.6526 5.13049 5.30853 5.13049C4.97265 5.13049 4.69412 5.40393 4.69412 5.73366C4.69412 6.63439 5.4478 7.37427 6.37351 7.37427H7.18454C7.7416 7.37427 8.20856 7.82464 8.20856 8.37955V8.51627C7.09442 8.51627 5.99667 8.53235 4.9235 8.54844C2.07262 8.54844 0 10.5751 0 13.3738V16.9686C0 19.7673 2.07262 21.794 4.9153 21.794C6.05402 21.8181 7.20911 21.8261 8.35602 21.8261C9.50292 21.8261 10.6416 21.8181 11.7803 21.794C14.623 21.794 16.6957 19.7673 16.6957 16.9686V13.4549ZM6.52912 15.7705H7.3893C7.72518 15.7705 8.00371 15.5051 8.00371 15.1673C8.00371 14.8376 7.72518 14.5641 7.3893 14.5641H6.52912V13.7197C6.52912 13.39 6.25059 13.1166 5.91471 13.1166C5.57064 13.1166 5.30029 13.39 5.30029 13.7197V14.5641H4.43192C4.09604 14.5641 3.81751 14.8376 3.81751 15.1673C3.81751 15.5051 4.09604 15.7705 4.43192 15.7705H5.30029V16.623C5.30029 16.9527 5.57064 17.2261 5.91471 17.2261C6.25059 17.2261 6.52912 16.9527 6.52912 16.623V15.7705ZM10.953 14.4111H10.8711C10.527 14.4111 10.2566 14.1457 10.2566 13.808C10.2566 13.4782 10.527 13.2048 10.8711 13.2048H10.953C11.2889 13.2048 11.5674 13.4782 11.5674 13.808C11.5674 14.1457 11.2889 14.4111 10.953 14.4111ZM12.3538 17.1779H12.2719C11.927 17.1779 11.6575 16.9125 11.6575 16.5747C11.6575 16.245 11.927 15.9716 12.2719 15.9716H12.3538C12.6897 15.9716 12.9682 16.245 12.9682 16.5747C12.9682 16.9125 12.6897 17.1779 12.3538 17.1779Z" fill="black"/>
</svg>
