<svg xmlns="http://www.w3.org/2000/svg" width="25" height="24" viewBox="0 0 25 24" fill="none"><rect width="25" height="24" fill="none"/>
<path fill-rule="evenodd" clip-rule="evenodd" d="M13.0049 7.17999C13.0049 4.14243 15.4673 1.67999 18.5049 1.67999C21.5424 1.67999 24.0049 4.14243 24.0049 7.17999C24.0049 10.2176 21.5424 12.68 18.5049 12.68C15.4673 12.68 13.0049 10.2176 13.0049 7.17999ZM21.145 5.82016C21.2915 5.67371 21.2915 5.43627 21.145 5.28983C20.9986 5.14338 20.7612 5.14338 20.6147 5.28983L17.6299 8.27466L16.395 7.03983C16.2486 6.89338 16.0112 6.89338 15.8647 7.03983C15.7183 7.18627 15.7183 7.42371 15.8647 7.57016L17.3647 9.07016C17.5112 9.2166 17.7486 9.2166 17.895 9.07016L21.145 5.82016Z" fill="black"/>
<path fill-rule="evenodd" clip-rule="evenodd" d="M11.7957 8.75445C11.6095 8.75221 11.4238 8.74966 11.2383 8.74712C10.708 8.73984 10.1799 8.7326 9.65199 8.7326V8.5764C9.64361 7.34326 8.61358 6.33209 7.34908 6.32387H6.52003C6.2688 6.32387 6.05945 6.12656 6.05945 5.87994C6.05945 5.54288 5.7831 5.26337 5.43138 5.26337C5.08804 5.26337 4.80331 5.54288 4.80331 5.87994C4.80331 6.80068 5.57374 7.55701 6.52003 7.55701H7.34908C7.91852 7.55701 8.39585 8.01738 8.39585 8.58463V8.72438C7.25696 8.72438 6.13481 8.74082 5.03779 8.75727C2.12356 8.75727 0.00488281 10.8289 0.00488281 13.6898V17.3646C0.00488281 20.2255 2.12356 22.2971 5.02942 22.2971C6.19343 22.3218 7.3742 22.33 8.54659 22.33C9.71898 22.33 10.883 22.3218 12.047 22.2971C14.9529 22.2971 17.0716 20.2255 17.0716 17.3646V13.7728C14.3548 13.528 12.1721 11.4311 11.7957 8.75445ZM6.67911 16.1398H7.5584C7.90175 16.1398 8.18647 15.8685 8.18647 15.5232C8.18647 15.1861 7.90175 14.9066 7.5584 14.9066H6.67911V14.0434C6.67911 13.7064 6.39439 13.4269 6.05104 13.4269C5.69933 13.4269 5.42298 13.7064 5.42298 14.0434V14.9066H4.53531C4.19197 14.9066 3.90724 15.1861 3.90724 15.5232C3.90724 15.8685 4.19197 16.1398 4.53531 16.1398H5.42298V17.0112C5.42298 17.3483 5.69933 17.6278 6.05104 17.6278C6.39439 17.6278 6.67911 17.3483 6.67911 17.0112V16.1398ZM11.2013 14.7503H11.1175C10.7658 14.7503 10.4895 14.479 10.4895 14.1337C10.4895 13.7967 10.7658 13.5172 11.1175 13.5172H11.2013C11.5446 13.5172 11.8293 13.7967 11.8293 14.1337C11.8293 14.479 11.5446 14.7503 11.2013 14.7503ZM12.6332 17.5785H12.5495C12.1969 17.5785 11.9214 17.3073 11.9214 16.962C11.9214 16.6249 12.1969 16.3454 12.5495 16.3454H12.6332C12.9766 16.3454 13.2613 16.6249 13.2613 16.962C13.2613 17.3073 12.9766 17.5785 12.6332 17.5785Z" fill="black"/>
</svg>
