<svg xmlns="http://www.w3.org/2000/svg" width="24" height="24" viewBox="0 0 24 24" fill="none"><rect width="24" height="24" fill="none"/>
<path fill-rule="evenodd" clip-rule="evenodd" d="M15.7968 4.89902C16.1749 4.90421 16.5539 4.90941 16.9342 4.91329C21.0206 4.91329 24 7.82659 24 11.8497V17.0173C24 21.0405 21.0206 23.9538 16.9342 23.9538C15.2974 23.9884 13.6605 24 12.0118 24C10.3631 24 8.70265 23.9884 7.06575 23.9538C2.97939 23.9538 0 21.0405 0 17.0173V11.8497C0 7.82659 2.97939 4.91329 7.07753 4.91329C8.62022 4.89017 10.1982 4.86705 11.7998 4.86705V4.67052C11.7998 3.87283 11.1286 3.22543 10.3278 3.22543H9.16192C7.83121 3.22543 6.74779 2.16185 6.74779 0.867052C6.74779 0.393064 7.14818 0 7.63101 0C8.12561 0 8.51423 0.393064 8.51423 0.867052C8.51423 1.21387 8.80864 1.49133 9.16192 1.49133H10.3278C12.106 1.50289 13.5545 2.92486 13.5662 4.65896V4.87861C14.3086 4.87861 15.051 4.88879 15.7968 4.89902ZM10.6222 15.2949H9.38568V16.5203C9.38568 16.9943 8.98528 17.3874 8.50246 17.3874C8.00786 17.3874 7.61924 16.9943 7.61924 16.5203V15.2949H6.37096C5.88813 15.2949 5.48774 14.9134 5.48774 14.4278C5.48774 13.9538 5.88813 13.5608 6.37096 13.5608H7.61924V12.3469C7.61924 11.8729 8.00786 11.4798 8.50246 11.4798C8.98528 11.4798 9.38568 11.8729 9.38568 12.3469V13.5608H10.6222C11.105 13.5608 11.5054 13.9538 11.5054 14.4278C11.5054 14.9134 11.105 15.2949 10.6222 15.2949ZM15.6271 13.3411H15.7449C16.2277 13.3411 16.6281 12.9596 16.6281 12.4741C16.6281 12.0001 16.2277 11.607 15.7449 11.607H15.6271C15.1325 11.607 14.7439 12.0001 14.7439 12.4741C14.7439 12.9596 15.1325 13.3411 15.6271 13.3411ZM17.6408 17.318H17.7586C18.2414 17.318 18.6418 16.9365 18.6418 16.451C18.6418 15.977 18.2414 15.5839 17.7586 15.5839H17.6408C17.1451 15.5839 16.7576 15.977 16.7576 16.451C16.7576 16.9365 17.1451 17.318 17.6408 17.318Z" fill="black"/>
</svg>
