<svg xmlns="http://www.w3.org/2000/svg" width="16" height="16" viewBox="0 0 16 16" fill="none"><rect width="16" height="16" fill="none"/>
<path fill-rule="evenodd" clip-rule="evenodd" d="M8.66667 4.8C8.66667 2.77495 10.3083 1.13333 12.3333 1.13333C14.3584 1.13333 16 2.77495 16 4.8C16 6.82504 14.3584 8.46666 12.3333 8.46666C10.3083 8.46666 8.66667 6.82504 8.66667 4.8ZM14.0934 3.89344C14.1911 3.79581 14.1911 3.63752 14.0934 3.53989C13.9958 3.44226 13.8375 3.44226 13.7399 3.53989L11.75 5.52978L10.9268 4.70655C10.8291 4.60892 10.6709 4.60892 10.5732 4.70655C10.4756 4.80419 10.4756 4.96248 10.5732 5.06011L11.5732 6.06011C11.6709 6.15774 11.8291 6.15774 11.9268 6.06011L14.0934 3.89344Z" fill="black"/>
<path fill-rule="evenodd" clip-rule="evenodd" d="M7.86054 5.84964C7.73643 5.84814 7.6126 5.84644 7.48897 5.84475C7.13541 5.8399 6.78333 5.83507 6.4314 5.83507V5.73094C6.42582 4.90885 5.73913 4.23473 4.89613 4.22925H4.34343C4.17595 4.22925 4.03638 4.09771 4.03638 3.93329C4.03638 3.70859 3.85214 3.52225 3.61766 3.52225C3.38877 3.52225 3.19895 3.70859 3.19895 3.93329C3.19895 4.54712 3.71257 5.05134 4.34343 5.05134H4.89613C5.27576 5.05134 5.59398 5.35826 5.59398 5.73642V5.82959C4.83472 5.82959 4.08662 5.84055 3.35527 5.85151C1.41245 5.85151 0 7.23263 0 9.13989V11.5897C0 13.497 1.41245 14.8781 3.34969 14.8781C4.1257 14.8945 4.91288 14.9 5.69447 14.9C6.47607 14.9 7.25208 14.8945 8.02809 14.8781C9.96533 14.8781 11.3778 13.497 11.3778 11.5897V9.19519C9.56662 9.03198 8.11149 7.63408 7.86054 5.84964ZM4.44949 10.7732H5.03568C5.26458 10.7732 5.45439 10.5923 5.45439 10.3621C5.45439 10.1374 5.26458 9.95109 5.03568 9.95109H4.44949V9.37563C4.44949 9.15092 4.25967 8.96458 4.03077 8.96458C3.7963 8.96458 3.61206 9.15092 3.61206 9.37563V9.95109H3.02028C2.79139 9.95109 2.60157 10.1374 2.60157 10.3621C2.60157 10.5923 2.79139 10.7732 3.02028 10.7732H3.61206V11.3541C3.61206 11.5788 3.7963 11.7652 4.03077 11.7652C4.25967 11.7652 4.44949 11.5788 4.44949 11.3541V10.7732ZM7.46425 9.84686H7.40843C7.17395 9.84686 6.98971 9.666 6.98971 9.43582C6.98971 9.21111 7.17395 9.02477 7.40843 9.02477H7.46425C7.69315 9.02477 7.88297 9.21111 7.88297 9.43582C7.88297 9.666 7.69315 9.84686 7.46425 9.84686ZM8.4189 11.7324H8.36307C8.12803 11.7324 7.94436 11.5515 7.94436 11.3213C7.94436 11.0966 8.12803 10.9103 8.36307 10.9103H8.4189C8.64779 10.9103 8.83761 11.0966 8.83761 11.3213C8.83761 11.5515 8.64779 11.7324 8.4189 11.7324Z" fill="black"/>
</svg>
