<svg xmlns="http://www.w3.org/2000/svg" width="25" height="24" viewBox="0 0 25 24" fill="none"><rect width="25" height="24" fill="none"/>
<path fill-rule="evenodd" clip-rule="evenodd" d="M15.1689 6.08252C15.484 6.08684 15.7998 6.09117 16.1168 6.09441C19.5221 6.09441 22.0049 8.52216 22.0049 11.8748V16.1811C22.0049 19.5337 19.5221 21.9615 16.1168 21.9615C14.7527 21.9904 13.3886 22 12.0147 22C10.6408 22 9.25709 21.9904 7.89301 21.9615C4.48771 21.9615 2.00488 19.5337 2.00488 16.1811V11.8748C2.00488 8.52216 4.48771 6.09441 7.90282 6.09441C9.1884 6.07514 10.5034 6.05588 11.8381 6.05588V5.8921C11.8381 5.22736 11.2787 4.68786 10.6114 4.68786H9.63982C8.53089 4.68786 7.62804 3.80154 7.62804 2.72254C7.62804 2.32755 7.9617 2 8.36406 2C8.77623 2 9.10007 2.32755 9.10007 2.72254C9.10007 3.01156 9.34541 3.24277 9.63982 3.24277H10.6114C12.0932 3.25241 13.3003 4.43738 13.3101 5.88247V6.06551C13.9287 6.06551 14.5474 6.07399 15.1689 6.08252ZM10.8567 14.7457H9.82628V15.7669C9.82628 16.1619 9.49262 16.4895 9.09026 16.4895C8.6781 16.4895 8.35425 16.1619 8.35425 15.7669V14.7457H7.31401C6.91166 14.7457 6.578 14.4278 6.578 14.0232C6.578 13.6282 6.91166 13.3006 7.31401 13.3006H8.35425V12.2891C8.35425 11.8941 8.6781 11.5665 9.09026 11.5665C9.49262 11.5665 9.82628 11.8941 9.82628 12.2891V13.3006H10.8567C11.2591 13.3006 11.5927 13.6282 11.5927 14.0232C11.5927 14.4278 11.2591 14.7457 10.8567 14.7457ZM15.0275 13.1176H15.1256C15.528 13.1176 15.8616 12.7997 15.8616 12.3951C15.8616 12.0001 15.528 11.6725 15.1256 11.6725H15.0275C14.6153 11.6725 14.2915 12.0001 14.2915 12.3951C14.2915 12.7997 14.6153 13.1176 15.0275 13.1176ZM16.7056 16.4317H16.8037C17.2061 16.4317 17.5397 16.1138 17.5397 15.7092C17.5397 15.3142 17.2061 14.9866 16.8037 14.9866H16.7056C16.2924 14.9866 15.9696 15.3142 15.9696 15.7092C15.9696 16.1138 16.2924 16.4317 16.7056 16.4317Z" fill="black"/>
</svg>
