<svg xmlns="http://www.w3.org/2000/svg" width="17" height="17" viewBox="0 0 17 17" fill="none"><rect width="17" height="17" fill="none"/>
<path fill-rule="evenodd" clip-rule="evenodd" d="M10.7738 4.39283C10.5926 4.29014 10.4047 4.19723 10.2111 4.11485L9.92806 2.85932C9.85907 2.55326 9.57979 2.33511 9.25695 2.33511H6.7562C6.43337 2.33511 6.15408 2.55326 6.08509 2.85932L5.80208 4.11485C5.61957 4.19249 5.44224 4.27948 5.27074 4.37519C5.09071 4.47522 4.91599 4.58545 4.7476 4.70562L3.48564 4.3157C3.17802 4.22066 2.8437 4.3463 2.68228 4.61762L1.43191 6.71929C1.27049 6.99061 1.32552 7.3344 1.56416 7.54541L2.5431 8.41102C2.5206 8.60791 2.50957 8.80513 2.50976 9.00177C2.50957 9.19842 2.5206 9.39566 2.5431 9.59255L1.56416 10.4582C1.32552 10.6692 1.27049 11.013 1.43191 11.2843L2.68228 13.386C2.8437 13.6573 3.17802 13.7829 3.48564 13.6879L4.7476 13.298C4.91786 13.4195 5.09459 13.5308 5.27673 13.6317C5.44637 13.7261 5.62169 13.812 5.80208 13.8887L6.08509 15.1442C6.15408 15.4503 6.43337 15.6684 6.7562 15.6684H9.25695C9.57979 15.6684 9.85907 15.4503 9.92806 15.1442L10.2111 13.8887C10.4025 13.8073 10.5883 13.7155 10.7676 13.6142C10.9387 13.518 11.1049 13.4125 11.2654 13.298L12.5274 13.6879C12.835 13.7829 13.1693 13.6573 13.3307 13.386L14.5811 11.2843C14.7425 11.013 14.6875 10.6692 14.4489 10.4582L13.4699 9.59255C13.4925 9.39541 13.5035 9.19793 13.5033 9.00104C13.5034 8.80464 13.4924 8.60767 13.4699 8.41102L14.4489 7.54541C14.6875 7.3344 14.7425 6.99061 14.5811 6.71929L13.3307 4.61762C13.1693 4.3463 12.835 4.22066 12.5274 4.3157L11.2654 4.70562C11.1069 4.59247 10.9427 4.48814 10.7738 4.39283ZM8.00653 11.6684C9.52416 11.6684 10.7544 10.4745 10.7544 9.00178C10.7544 7.52902 9.52416 6.33511 8.00653 6.33511C6.4889 6.33511 5.25861 7.52902 5.25861 9.00178C5.25861 10.4745 6.4889 11.6684 8.00653 11.6684Z" fill="black"/>
</svg>
