<svg xmlns="http://www.w3.org/2000/svg" width="24" height="24" viewBox="0 0 24 24" fill="none"><rect width="24" height="24" fill="none"/>
<path fill-rule="evenodd" clip-rule="evenodd" d="M16.1519 5.08657C15.88 4.93254 15.5983 4.79318 15.3078 4.6696L14.8833 2.7863C14.7798 2.32722 14.3609 2 13.8766 2H10.1255C9.64126 2 9.22234 2.32722 9.11885 2.7863L8.69433 4.6696C8.42057 4.78606 8.15458 4.91655 7.89733 5.06011C7.62728 5.21016 7.3652 5.37551 7.11261 5.55576L5.21967 4.97089C4.75824 4.82831 4.25676 5.01677 4.01463 5.42375L2.13907 8.57627C1.89694 8.98325 1.9795 9.49893 2.33745 9.81544L3.80586 11.1139C3.77211 11.4092 3.75557 11.705 3.75585 12C3.75557 12.295 3.77211 12.5908 3.80586 12.8862L2.33744 14.1846C1.9795 14.5011 1.89694 15.0168 2.13907 15.4238L4.01463 18.5763C4.25676 18.9832 4.75824 19.1717 5.21967 19.0291L7.11261 18.4443C7.368 18.6265 7.63309 18.7935 7.90631 18.9449C8.16077 19.0865 8.42375 19.2153 8.69433 19.3304L9.11885 21.2137C9.22234 21.6728 9.64126 22 10.1255 22H13.8766C14.3609 22 14.7798 21.6728 14.8833 21.2137L15.3078 19.3304C15.595 19.2082 15.8736 19.0706 16.1426 18.9187C16.3992 18.7743 16.6486 18.6161 16.8893 18.4443L18.7823 19.0291C19.2437 19.1717 19.7452 18.9832 19.9873 18.5763L21.8629 15.4238C22.105 15.0168 22.0225 14.5011 21.6645 14.1846L20.1961 12.8862C20.2299 12.5904 20.2464 12.2942 20.2461 11.9989C20.2463 11.7043 20.2298 11.4088 20.1961 11.1139L21.6645 9.81544C22.0225 9.49893 22.105 8.98325 21.8629 8.57627L19.9873 5.42376C19.7452 5.01678 19.2437 4.82831 18.7823 4.97089L16.8893 5.55576C16.6515 5.38604 16.4053 5.22954 16.1519 5.08657ZM12.001 16C14.2775 16 16.1229 14.2091 16.1229 12C16.1229 9.79086 14.2775 8 12.001 8C9.72456 8 7.87913 9.79086 7.87913 12C7.87913 14.2091 9.72456 16 12.001 16Z" fill="black"/>
</svg>
