<svg xmlns="http://www.w3.org/2000/svg" width="17" height="17" viewBox="0 0 17 17" fill="none"><rect width="17" height="17" fill="none"/>
<path d="M1.63484 5.95385C1.92563 5.05806 2.40466 4.23578 3.03674 3.53893C3.14362 3.42109 3.31131 3.37909 3.46145 3.43256L4.97197 3.97052C5.3815 4.11629 5.83212 3.90378 5.97847 3.49588C5.99286 3.45577 6.00394 3.41456 6.0116 3.37273L6.29938 1.79939C6.32799 1.64296 6.44861 1.51922 6.60475 1.48611C7.06162 1.38925 7.53004 1.34 8.00461 1.34C8.47889 1.34 8.94704 1.38919 9.40363 1.48594C9.55973 1.51901 9.68035 1.64267 9.70902 1.79904L9.99761 3.37266C10.0756 3.7988 10.4857 4.08125 10.9135 4.00354C10.9556 3.9959 10.997 3.98485 11.0372 3.97054L12.5478 3.43256C12.6979 3.37909 12.8656 3.42109 12.9725 3.53893C13.6046 4.23578 14.0836 5.05806 14.3744 5.95385C14.4234 6.10497 14.3761 6.27065 14.2546 6.37344L13.0302 7.4088C12.6987 7.68917 12.6582 8.18413 12.9397 8.51432C12.9674 8.54678 12.9976 8.57695 13.0302 8.60451L14.2546 9.63989C14.3761 9.74268 14.4234 9.90836 14.3744 10.0595C14.0836 10.9553 13.6046 11.7775 12.9725 12.4744C12.8656 12.5922 12.6979 12.6342 12.5478 12.5808L11.0372 12.0428C10.6277 11.897 10.1771 12.1095 10.0308 12.5174C10.0164 12.5576 10.0053 12.5988 9.99759 12.6408L9.70902 14.2143C9.68035 14.3707 9.55973 14.4943 9.40363 14.5274C8.94704 14.6241 8.47889 14.6733 8.00461 14.6733C7.53004 14.6733 7.06162 14.6241 6.60475 14.5272C6.44861 14.4941 6.32799 14.3704 6.29938 14.2139L6.01161 12.6407C5.93359 12.2145 5.52352 11.9321 5.09568 12.0098C5.05361 12.0174 5.01224 12.0285 4.97204 12.0428L3.46145 12.5808C3.31131 12.6342 3.14362 12.5922 3.03674 12.4744C2.40466 11.7775 1.92563 10.9553 1.63484 10.0595C1.58578 9.90836 1.63308 9.74268 1.75464 9.63989L2.97898 8.60452C3.31048 8.32415 3.35102 7.8292 3.06954 7.49901C3.04186 7.46654 3.01157 7.43637 2.97899 7.40882L1.75464 6.37344C1.63308 6.27065 1.58578 6.10497 1.63484 5.95385ZM2.46995 5.94948L3.48865 6.81095C3.55384 6.86608 3.61442 6.92642 3.66978 6.99135C4.23275 7.65173 4.15166 8.64164 3.48863 9.2024L2.46995 10.0638C2.69992 10.6774 3.03179 11.2476 3.45026 11.7518L4.70699 11.3042C4.78753 11.2756 4.87027 11.2535 4.95441 11.2382C5.81008 11.0828 6.63023 11.6477 6.78629 12.5L7.02564 13.8086C7.34681 13.862 7.67388 13.889 8.00461 13.889C8.33512 13.889 8.66197 13.862 8.98293 13.8087L9.22295 12.5C9.23829 12.4162 9.26046 12.3337 9.28924 12.2535C9.58194 11.4377 10.4832 11.0127 11.3023 11.3043L12.559 11.7518C12.9774 11.2476 13.3093 10.6774 13.5393 10.0638L12.5206 9.20238C12.4554 9.14724 12.3948 9.08691 12.3394 9.02197C11.7765 8.3616 11.8576 7.37169 12.5206 6.81093L13.5393 5.94948C13.3093 5.33596 12.9774 4.76575 12.559 4.26152L11.3022 4.70909C11.2217 4.73776 11.1389 4.75984 11.0548 4.77512C10.1991 4.93055 9.37899 4.36565 9.22297 3.51348L8.98293 2.20458C8.66197 2.15131 8.33512 2.12431 8.00461 2.12431C7.67388 2.12431 7.34681 2.15135 7.02564 2.20469L6.78627 3.51337C6.77093 3.59718 6.74876 3.6796 6.71998 3.75982C6.42728 4.57562 5.52604 5.00062 4.70692 4.70907L3.45026 4.26152C3.03179 4.76575 2.69992 5.33596 2.46995 5.94948ZM6.03602 8.00666C6.03602 6.92375 6.91739 6.04588 8.00461 6.04588C9.09183 6.04588 9.9732 6.92375 9.9732 8.00666C9.9732 9.08957 9.09183 9.96745 8.00461 9.96745C6.91739 9.96745 6.03602 9.08957 6.03602 8.00666ZM6.82346 8.00666C6.82346 8.65641 7.35228 9.18313 8.00461 9.18313C8.65694 9.18313 9.18576 8.65641 9.18576 8.00666C9.18576 7.35692 8.65694 6.83019 8.00461 6.83019C7.35228 6.83019 6.82346 7.35692 6.82346 8.00666Z" fill="black"/>
</svg>
