<svg xmlns="http://www.w3.org/2000/svg" width="16" height="16" viewBox="0 0 16 16" fill="none"><rect width="16" height="16" fill="none"/>
<path fill-rule="evenodd" clip-rule="evenodd" d="M13.0062 7.99998C13.0062 8.22665 12.9862 8.43998 12.9596 8.65331L14.3662 9.75331C14.4929 9.85331 14.5262 10.0333 14.4462 10.18L13.1129 12.4866C13.0529 12.5933 12.9396 12.6533 12.8262 12.6533C12.7862 12.6533 12.7462 12.6466 12.7062 12.6333L11.0462 11.9666C10.6996 12.2266 10.3262 12.4533 9.91957 12.62L9.66624 14.3866C9.64624 14.5466 9.50624 14.6666 9.33957 14.6666H6.67291C6.50624 14.6666 6.36624 14.5466 6.34624 14.3866L6.09291 12.62C5.68624 12.4533 5.31291 12.2333 4.96624 11.9666L3.30624 12.6333C3.27291 12.6466 3.23291 12.6533 3.19291 12.6533C3.07291 12.6533 2.95957 12.5933 2.89957 12.4866L1.56624 10.18C1.48624 10.0333 1.51957 9.85331 1.64624 9.75331L3.05291 8.65331C3.02624 8.43998 3.00624 8.21998 3.00624 7.99998C3.00624 7.77998 3.02624 7.55998 3.05291 7.34665L1.64624 6.24665C1.51957 6.14665 1.47957 5.96665 1.56624 5.81998L2.89957 3.51331C2.95957 3.40665 3.07291 3.34665 3.18624 3.34665C3.22624 3.34665 3.26624 3.35331 3.30624 3.36665L4.96624 4.03331C5.31291 3.77331 5.68624 3.54665 6.09291 3.37998L6.34624 1.61331C6.36624 1.45331 6.50624 1.33331 6.67291 1.33331H9.33957C9.50624 1.33331 9.64624 1.45331 9.66624 1.61331L9.91957 3.37998C10.3262 3.54665 10.6996 3.76665 11.0462 4.03331L12.7062 3.36665C12.7396 3.35331 12.7796 3.34665 12.8196 3.34665C12.9396 3.34665 13.0529 3.40665 13.1129 3.51331L14.4462 5.81998C14.5262 5.96665 14.4929 6.14665 14.3662 6.24665L12.9596 7.34665C12.9862 7.55998 13.0062 7.77331 13.0062 7.99998ZM11.6729 7.99994C11.6729 7.85994 11.6663 7.71994 11.6396 7.51327L11.5463 6.75994L12.1396 6.29327L12.8529 5.7266L12.3863 4.91994L11.5396 5.25994L10.8329 5.5466L10.2263 5.07994C9.9596 4.87994 9.69293 4.7266 9.40626 4.6066L8.6996 4.31994L8.46626 2.6666H7.5396L7.40626 3.5666L7.2996 4.31994L6.59293 4.6066C6.3196 4.71994 6.04626 4.87994 5.7596 5.09327L5.1596 5.5466L4.46626 5.2666L3.6196 4.9266L3.15293 5.73327L3.87293 6.29327L4.46626 6.75994L4.37293 7.51327C4.35293 7.71327 4.3396 7.8666 4.3396 7.99994C4.3396 8.13327 4.35293 8.2866 4.37293 8.49327L4.46626 9.2466L3.87293 9.71327L3.15293 10.2733L3.6196 11.0799L4.46626 10.7399L5.17293 10.4533L5.7796 10.9199C6.04626 11.1199 6.31293 11.2733 6.5996 11.3933L7.30626 11.6799L7.5396 13.3333H8.47293L8.60626 12.4333L8.71293 11.6799L9.4196 11.3933C9.69293 11.2799 9.96626 11.1199 10.2529 10.9066L10.8529 10.4533L11.5463 10.7333L12.3929 11.0733L12.8596 10.2666L12.1396 9.7066L11.5463 9.23994L11.6396 8.4866C11.6596 8.2866 11.6729 8.13994 11.6729 7.99994ZM8.00625 5.33333C6.53292 5.33333 5.33958 6.52666 5.33958 7.99999C5.33958 9.47333 6.53292 10.6667 8.00625 10.6667C9.47958 10.6667 10.6729 9.47333 10.6729 7.99999C10.6729 6.52666 9.47958 5.33333 8.00625 5.33333ZM6.67294 8.00002C6.67294 8.73336 7.27294 9.33335 8.00628 9.33335C8.73961 9.33335 9.33961 8.73336 9.33961 8.00002C9.33961 7.26669 8.73961 6.66669 8.00628 6.66669C7.27294 6.66669 6.67294 7.26669 6.67294 8.00002Z" fill="black"/>
</svg>
