<svg xmlns="http://www.w3.org/2000/svg" width="25" height="25" viewBox="0 0 25 25" fill="none"><rect width="25" height="25" fill="none"/>
<path d="M2.44346 8.92578C2.87965 7.5821 3.59821 6.34869 4.54632 5.3034C4.70665 5.12664 4.95818 5.06364 5.18338 5.14385L7.44917 5.95079C8.06346 6.16944 8.73939 5.85069 8.95891 5.23883C8.9805 5.17867 8.99713 5.11685 9.00862 5.0541L9.44028 2.69409C9.4832 2.45944 9.66413 2.27383 9.89834 2.22418C10.5836 2.07889 11.2863 2.005 11.9981 2.005C12.7095 2.005 13.4118 2.0788 14.0967 2.22391C14.3308 2.27352 14.5117 2.45902 14.5547 2.69358L14.9876 5.054C15.1047 5.69321 15.7198 6.11689 16.3615 6.00032C16.4246 5.98885 16.4867 5.97229 16.547 5.95083L18.8129 5.14385C19.0381 5.06364 19.2896 5.12664 19.4499 5.3034C20.398 6.34869 21.1166 7.5821 21.5528 8.92578C21.6264 9.15247 21.5554 9.40098 21.3731 9.55517L19.5366 11.1082C19.0393 11.5288 18.9785 12.2712 19.4007 12.7665C19.4423 12.8152 19.4877 12.8604 19.5366 12.9018L21.3731 14.4548C21.5554 14.609 21.6264 14.8575 21.5528 15.0842C21.1166 16.4279 20.398 17.6613 19.4499 18.7066C19.2896 18.8834 19.0381 18.9464 18.8129 18.8662L16.5471 18.0592C15.9328 17.8406 15.2569 18.1593 15.0373 18.7712C15.0158 18.8313 14.9991 18.8932 14.9876 18.9562L14.5547 21.3164C14.5117 21.551 14.3308 21.7365 14.0967 21.7861C13.4118 21.9312 12.7095 22.005 11.9981 22.005C11.2863 22.005 10.5836 21.9311 9.89834 21.7858C9.66413 21.7362 9.4832 21.5506 9.44028 21.3159L9.00863 18.956C8.8916 18.3168 8.27649 17.8931 7.63474 18.0097C7.57163 18.0212 7.50957 18.0377 7.44927 18.0592L5.18338 18.8662C4.95818 18.9464 4.70665 18.8834 4.54632 18.7066C3.59821 17.6613 2.87965 16.4279 2.44346 15.0842C2.36988 14.8575 2.44083 14.609 2.62317 14.4548L4.45967 12.9018C4.95693 12.4812 5.01775 11.7388 4.59552 11.2435C4.554 11.1948 4.50857 11.1496 4.4597 11.1082L2.62317 9.55517C2.44083 9.40098 2.36988 9.15247 2.44346 8.92578ZM3.69614 8.91923L5.22419 10.2114C5.32198 10.2941 5.41284 10.3846 5.49588 10.482C6.34033 11.4726 6.21869 12.9575 5.22416 13.7986L3.69614 15.0908C4.04109 16.0111 4.53889 16.8664 5.1666 17.6227L7.05169 16.9514C7.1725 16.9084 7.29662 16.8752 7.42283 16.8523C8.70633 16.6192 9.93656 17.4665 10.1706 18.745L10.5297 20.708C11.0114 20.788 11.502 20.8285 11.9981 20.8285C12.4939 20.8285 12.9842 20.788 13.4656 20.7081L13.8256 18.7449C13.8486 18.6192 13.8819 18.4956 13.9251 18.3753C14.3641 17.1516 15.716 16.5141 16.9447 16.9514L18.8297 17.6227C19.4574 16.8664 19.9552 16.0111 20.3001 15.0908L18.7721 13.7986C18.6743 13.7159 18.5834 13.6254 18.5004 13.528C17.6559 12.5374 17.7776 11.0525 18.7721 10.2114L20.3001 8.91923C19.9552 7.99896 19.4574 7.14363 18.8297 6.38728L16.9446 7.05865C16.8238 7.10165 16.6996 7.13477 16.5734 7.1577C15.2899 7.39084 14.0597 6.54348 13.8257 5.26523L13.4656 3.30189C12.9842 3.22198 12.4939 3.18148 11.9981 3.18148C11.502 3.18148 11.0114 3.22204 10.5297 3.30205L10.1706 5.26507C10.1476 5.39078 10.1143 5.51441 10.0712 5.63473C9.63214 6.85844 8.28027 7.49595 7.05159 7.05861L5.1666 6.38728C4.53889 7.14363 4.04109 7.99896 3.69614 8.91923ZM9.04524 12.005C9.04524 10.3806 10.3673 9.06383 11.9981 9.06383C13.629 9.06383 14.951 10.3806 14.951 12.005C14.951 13.6294 13.629 14.9462 11.9981 14.9462C10.3673 14.9462 9.04524 13.6294 9.04524 12.005ZM10.2264 12.005C10.2264 12.9796 11.0196 13.7697 11.9981 13.7697C12.9766 13.7697 13.7699 12.9796 13.7699 12.005C13.7699 11.0304 12.9766 10.2403 11.9981 10.2403C11.0196 10.2403 10.2264 11.0304 10.2264 12.005Z" fill="black"/>
</svg>
