<svg xmlns="http://www.w3.org/2000/svg" width="16" height="16" viewBox="0 0 16 16" fill="none"><rect width="16" height="16" fill="none"/>
<path fill-rule="evenodd" clip-rule="evenodd" d="M10.7674 3.39103C10.5862 3.28834 10.3984 3.19543 10.2047 3.11304L9.92171 1.85752C9.85272 1.55146 9.57344 1.33331 9.2506 1.33331H6.74986C6.42702 1.33331 6.14774 1.55146 6.07875 1.85752L5.79573 3.11304C5.61322 3.19069 5.4359 3.27768 5.2644 3.37339C5.08436 3.47342 4.90965 3.58365 4.74125 3.70382L3.47929 3.3139C3.17167 3.21886 2.83735 3.3445 2.67593 3.61582L1.42556 5.71749C1.26414 5.98881 1.31918 6.3326 1.55781 6.54361L2.53675 7.40922C2.51425 7.60611 2.50322 7.80333 2.50341 7.99997C2.50322 8.19662 2.51425 8.39385 2.53675 8.59075L1.55781 9.45637C1.31918 9.66738 1.26414 10.0112 1.42556 10.2825L2.67593 12.3842C2.83735 12.6555 3.17167 12.7811 3.47929 12.6861L4.74125 12.2962C4.91151 12.4177 5.08824 12.529 5.27038 12.6299C5.44002 12.7243 5.61535 12.8102 5.79573 12.8869L6.07875 14.1424C6.14774 14.4485 6.42702 14.6666 6.74986 14.6666H9.2506C9.57344 14.6666 9.85272 14.4485 9.92171 14.1424L10.2047 12.8869C10.3962 12.8055 10.5819 12.7137 10.7612 12.6124C10.9323 12.5162 11.0986 12.4107 11.2591 12.2962L12.521 12.6861C12.8287 12.7811 13.163 12.6555 13.3244 12.3842L14.5748 10.2825C14.7362 10.0112 14.6812 9.66738 14.4425 9.45637L13.4636 8.59075C13.4861 8.39361 13.4971 8.19613 13.4969 7.99924C13.4971 7.80284 13.486 7.60587 13.4636 7.40922L14.4425 6.54361C14.6812 6.3326 14.7362 5.98881 14.5748 5.71749L13.3244 3.61582C13.163 3.3445 12.8287 3.21886 12.521 3.3139L11.2591 3.70382C11.1005 3.59067 10.9364 3.48634 10.7674 3.39103ZM8.00018 10.6666C9.51782 10.6666 10.7481 9.47274 10.7481 7.99998C10.7481 6.52722 9.51782 5.33331 8.00018 5.33331C6.48255 5.33331 5.25226 6.52722 5.25226 7.99998C5.25226 9.47274 6.48255 10.6666 8.00018 10.6666Z" fill="black"/>
</svg>
