<svg xmlns="http://www.w3.org/2000/svg" width="17" height="17" viewBox="0 0 17 17" fill="none"><rect width="17" height="17" fill="none"/>
<path fill-rule="evenodd" clip-rule="evenodd" d="M13.0009 8.00666C13.0009 8.23333 12.9809 8.44666 12.9542 8.66L14.3609 9.76C14.4875 9.86 14.5209 10.04 14.4409 10.1867L13.1075 12.4933C13.0475 12.6 12.9342 12.66 12.8209 12.66C12.7809 12.66 12.7409 12.6533 12.7009 12.64L11.0409 11.9733C10.6942 12.2333 10.3209 12.46 9.9142 12.6267L9.66087 14.3933C9.64087 14.5533 9.50087 14.6733 9.3342 14.6733H6.66754C6.50087 14.6733 6.36087 14.5533 6.34087 14.3933L6.08754 12.6267C5.68087 12.46 5.30754 12.24 4.96087 11.9733L3.30087 12.64C3.26754 12.6533 3.22754 12.66 3.18754 12.66C3.06754 12.66 2.9542 12.6 2.8942 12.4933L1.56087 10.1867C1.48087 10.04 1.5142 9.86 1.64087 9.76L3.04754 8.66C3.02087 8.44666 3.00087 8.22666 3.00087 8.00666C3.00087 7.78666 3.02087 7.56666 3.04754 7.35333L1.64087 6.25333C1.5142 6.15333 1.4742 5.97333 1.56087 5.82666L2.8942 3.52C2.9542 3.41333 3.06754 3.35333 3.18087 3.35333C3.22087 3.35333 3.26087 3.36 3.30087 3.37333L4.96087 4.04C5.30754 3.78 5.68087 3.55333 6.08754 3.38666L6.34087 1.62C6.36087 1.46 6.50087 1.34 6.66754 1.34H9.3342C9.50087 1.34 9.64087 1.46 9.66087 1.62L9.9142 3.38666C10.3209 3.55333 10.6942 3.77333 11.0409 4.04L12.7009 3.37333C12.7342 3.36 12.7742 3.35333 12.8142 3.35333C12.9342 3.35333 13.0475 3.41333 13.1075 3.52L14.4409 5.82666C14.5209 5.97333 14.4875 6.15333 14.3609 6.25333L12.9542 7.35333C12.9809 7.56666 13.0009 7.78 13.0009 8.00666ZM11.6676 8.00662C11.6676 7.86662 11.6609 7.72662 11.6342 7.51995L11.5409 6.76662L12.1342 6.29995L12.8476 5.73329L12.3809 4.92662L11.5342 5.26662L10.8276 5.55329L10.2209 5.08662C9.95423 4.88662 9.68756 4.73329 9.40089 4.61329L8.69423 4.32662L8.46089 2.67329H7.53423L7.40089 3.57329L7.29423 4.32662L6.58756 4.61329C6.31423 4.72662 6.04089 4.88662 5.75423 5.09995L5.15423 5.55329L4.46089 5.27329L3.61423 4.93329L3.14756 5.73995L3.86756 6.29995L4.46089 6.76662L4.36756 7.51995C4.34756 7.71995 4.33423 7.87329 4.33423 8.00662C4.33423 8.13995 4.34756 8.29329 4.36756 8.49995L4.46089 9.25329L3.86756 9.71995L3.14756 10.28L3.61423 11.0866L4.46089 10.7466L5.16756 10.46L5.77423 10.9266C6.04089 11.1266 6.30756 11.28 6.59423 11.4L7.30089 11.6866L7.53423 13.34H8.46756L8.60089 12.44L8.70756 11.6866L9.41423 11.4C9.68756 11.2866 9.96089 11.1266 10.2476 10.9133L10.8476 10.46L11.5409 10.74L12.3876 11.08L12.8542 10.2733L12.1342 9.71329L11.5409 9.24662L11.6342 8.49329C11.6542 8.29329 11.6676 8.14662 11.6676 8.00662ZM8.00088 5.34001C6.52754 5.34001 5.33421 6.53334 5.33421 8.00668C5.33421 9.48001 6.52754 10.6733 8.00088 10.6733C9.47421 10.6733 10.6675 9.48001 10.6675 8.00668C10.6675 6.53334 9.47421 5.34001 8.00088 5.34001ZM6.66757 8.0067C6.66757 8.74004 7.26757 9.34004 8.00091 9.34004C8.73424 9.34004 9.33424 8.74004 9.33424 8.0067C9.33424 7.27337 8.73424 6.67337 8.00091 6.67337C7.26757 6.67337 6.66757 7.27337 6.66757 8.0067Z" fill="black"/>
</svg>
