<svg xmlns="http://www.w3.org/2000/svg" width="25" height="25" viewBox="0 0 25 25" fill="none"><rect width="25" height="25" fill="none"/>
<path fill-rule="evenodd" clip-rule="evenodd" d="M19.5094 12.005C19.5094 12.345 19.4794 12.665 19.4394 12.985L21.5494 14.635C21.7394 14.785 21.7894 15.055 21.6694 15.275L19.6694 18.735C19.5794 18.895 19.4094 18.985 19.2394 18.985C19.1794 18.985 19.1194 18.975 19.0594 18.955L16.5694 17.955C16.0494 18.345 15.4894 18.685 14.8794 18.935L14.4994 21.585C14.4694 21.825 14.2594 22.005 14.0094 22.005H10.0094C9.75936 22.005 9.54936 21.825 9.51936 21.585L9.13936 18.935C8.52936 18.685 7.96936 18.355 7.44936 17.955L4.95936 18.955C4.90936 18.975 4.84936 18.985 4.78936 18.985C4.60936 18.985 4.43936 18.895 4.34936 18.735L2.34936 15.275C2.22936 15.055 2.27936 14.785 2.46936 14.635L4.57936 12.985C4.53936 12.665 4.50936 12.335 4.50936 12.005C4.50936 11.675 4.53936 11.345 4.57936 11.025L2.46936 9.375C2.27936 9.225 2.21936 8.955 2.34936 8.735L4.34936 5.275C4.43936 5.115 4.60936 5.025 4.77936 5.025C4.83936 5.025 4.89936 5.035 4.95936 5.055L7.44936 6.05501C7.96936 5.665 8.52936 5.325 9.13936 5.075L9.51936 2.425C9.54936 2.185 9.75936 2.005 10.0094 2.005H14.0094C14.2594 2.005 14.4694 2.185 14.4994 2.425L14.8794 5.075C15.4894 5.325 16.0494 5.655 16.5694 6.05501L19.0594 5.055C19.1094 5.035 19.1694 5.025 19.2294 5.025C19.4094 5.025 19.5794 5.115 19.6694 5.275L21.6694 8.735C21.7894 8.955 21.7394 9.225 21.5494 9.375L19.4394 11.025C19.4794 11.345 19.5094 11.665 19.5094 12.005ZM17.5094 12.0049C17.5094 11.7949 17.4994 11.5849 17.4594 11.2749L17.3194 10.1449L18.2094 9.44494L19.2794 8.59494L18.5794 7.38494L17.3094 7.89494L16.2494 8.32494L15.3394 7.62494C14.9394 7.32494 14.5394 7.09494 14.1094 6.91494L13.0494 6.48494L12.6994 4.00494H11.3094L11.1094 5.35494L10.9494 6.48494L9.8894 6.91494C9.4794 7.08494 9.0694 7.32494 8.6394 7.64494L7.7394 8.32494L6.6994 7.90494L5.4294 7.39494L4.7294 8.60494L5.8094 9.44494L6.6994 10.1449L6.5594 11.2749C6.5294 11.5749 6.5094 11.8049 6.5094 12.0049C6.5094 12.2049 6.5294 12.4349 6.5594 12.7449L6.6994 13.8749L5.8094 14.5749L4.7294 15.4149L5.4294 16.6249L6.6994 16.1149L7.7594 15.6849L8.6694 16.3849C9.0694 16.6849 9.4694 16.9149 9.8994 17.0949L10.9594 17.5249L11.3094 20.0049H12.7094L12.9094 18.6549L13.0694 17.5249L14.1294 17.0949C14.5394 16.9249 14.9494 16.6849 15.3794 16.3649L16.2794 15.6849L17.3194 16.1049L18.5894 16.6149L19.2894 15.4049L18.2094 14.5649L17.3194 13.8649L17.4594 12.7349C17.4894 12.4349 17.5094 12.2149 17.5094 12.0049ZM12.0094 8.00503C9.79937 8.00503 8.00937 9.79503 8.00937 12.005C8.00937 14.215 9.79937 16.005 12.0094 16.005C14.2194 16.005 16.0094 14.215 16.0094 12.005C16.0094 9.79503 14.2194 8.00503 12.0094 8.00503ZM10.0094 12.0051C10.0094 13.1051 10.9094 14.0051 12.0094 14.0051C13.1094 14.0051 14.0094 13.1051 14.0094 12.0051C14.0094 10.9051 13.1094 10.0051 12.0094 10.0051C10.9094 10.0051 10.0094 10.9051 10.0094 12.0051Z" fill="black"/>
</svg>
