<svg xmlns="http://www.w3.org/2000/svg" width="24" height="24" viewBox="0 0 24 24" fill="none"><rect width="24" height="24" fill="none"/>
<path fill-rule="evenodd" clip-rule="evenodd" d="M19.5103 12C19.5103 12.34 19.4803 12.66 19.4403 12.98L21.5503 14.63C21.7403 14.78 21.7903 15.05 21.6703 15.27L19.6703 18.73C19.5803 18.89 19.4103 18.98 19.2403 18.98C19.1803 18.98 19.1203 18.97 19.0603 18.95L16.5703 17.95C16.0503 18.34 15.4903 18.68 14.8803 18.93L14.5003 21.58C14.4703 21.82 14.2603 22 14.0103 22H10.0103C9.76034 22 9.55034 21.82 9.52034 21.58L9.14034 18.93C8.53034 18.68 7.97034 18.35 7.45034 17.95L4.96034 18.95C4.91034 18.97 4.85034 18.98 4.79034 18.98C4.61034 18.98 4.44034 18.89 4.35034 18.73L2.35034 15.27C2.23034 15.05 2.28034 14.78 2.47034 14.63L4.58034 12.98C4.54034 12.66 4.51034 12.33 4.51034 12C4.51034 11.67 4.54034 11.34 4.58034 11.02L2.47034 9.37C2.28034 9.22 2.22034 8.95 2.35034 8.73L4.35034 5.27C4.44034 5.11 4.61034 5.02 4.78034 5.02C4.84034 5.02 4.90034 5.03 4.96034 5.05L7.45034 6.05C7.97034 5.66 8.53034 5.32 9.14034 5.07L9.52034 2.42C9.55034 2.18 9.76034 2 10.0103 2H14.0103C14.2603 2 14.4703 2.18 14.5003 2.42L14.8803 5.07C15.4903 5.32 16.0503 5.65 16.5703 6.05L19.0603 5.05C19.1103 5.03 19.1703 5.02 19.2303 5.02C19.4103 5.02 19.5803 5.11 19.6703 5.27L21.6703 8.73C21.7903 8.95 21.7403 9.22 21.5503 9.37L19.4403 11.02C19.4803 11.34 19.5103 11.66 19.5103 12ZM17.5104 11.9999C17.5104 11.7899 17.5004 11.5799 17.4604 11.2699L17.3204 10.1399L18.2104 9.43994L19.2804 8.58994L18.5804 7.37994L17.3104 7.88994L16.2504 8.31994L15.3404 7.61994C14.9404 7.31994 14.5404 7.08994 14.1104 6.90994L13.0504 6.47994L12.7004 3.99994H11.3104L11.1104 5.34994L10.9504 6.47994L9.89037 6.90994C9.48037 7.07994 9.07037 7.31994 8.64037 7.63994L7.74037 8.31994L6.70037 7.89994L5.43037 7.38994L4.73037 8.59994L5.81037 9.43994L6.70037 10.1399L6.56037 11.2699C6.53037 11.5699 6.51037 11.7999 6.51037 11.9999C6.51037 12.1999 6.53037 12.4299 6.56037 12.7399L6.70037 13.8699L5.81037 14.5699L4.73037 15.4099L5.43037 16.6199L6.70037 16.1099L7.76037 15.6799L8.67037 16.3799C9.07037 16.6799 9.47037 16.9099 9.90037 17.0899L10.9604 17.5199L11.3104 19.9999H12.7104L12.9104 18.6499L13.0704 17.5199L14.1304 17.0899C14.5404 16.9199 14.9504 16.6799 15.3804 16.3599L16.2804 15.6799L17.3204 16.0999L18.5904 16.6099L19.2904 15.3999L18.2104 14.5599L17.3204 13.8599L17.4604 12.7299C17.4904 12.4299 17.5104 12.2099 17.5104 11.9999ZM12.0103 8.00002C9.80035 8.00002 8.01035 9.79002 8.01035 12C8.01035 14.21 9.80035 16 12.0103 16C14.2203 16 16.0103 14.21 16.0103 12C16.0103 9.79002 14.2203 8.00002 12.0103 8.00002ZM10.0104 12.0001C10.0104 13.1001 10.9104 14.0001 12.0104 14.0001C13.1104 14.0001 14.0104 13.1001 14.0104 12.0001C14.0104 10.9001 13.1104 10.0001 12.0104 10.0001C10.9104 10.0001 10.0104 10.9001 10.0104 12.0001Z" fill="black"/>
</svg>
