<svg xmlns="http://www.w3.org/2000/svg" width="24" height="25" viewBox="0 0 24 25" fill="none"><rect width="24" height="25" fill="none"/>
<path fill-rule="evenodd" clip-rule="evenodd" d="M16.1509 5.09157C15.8791 4.93755 15.5973 4.79818 15.3068 4.6746L14.8823 2.79131C14.7788 2.33222 14.3599 2.005 13.8757 2.005H10.1245C9.64028 2.005 9.22136 2.33222 9.11787 2.79131L8.69335 4.6746C8.41959 4.79107 8.1536 4.92155 7.89635 5.06512C7.6263 5.21517 7.36422 5.38052 7.11163 5.56076L5.2187 4.97589C4.75726 4.83332 4.25578 5.02178 4.01366 5.42876L2.13809 8.58127C1.89597 8.98825 1.97852 9.50393 2.33647 9.82044L3.80488 11.1189C3.77113 11.4142 3.75459 11.71 3.75487 12.005C3.75459 12.3 3.77113 12.5958 3.80488 12.8912L2.33647 14.1896C1.97852 14.5061 1.89597 15.0218 2.13809 15.4288L4.01365 18.5813C4.25578 18.9883 4.75726 19.1767 5.21869 19.0341L7.11163 18.4493C7.36702 18.6315 7.63211 18.7985 7.90533 18.9499C8.15979 19.0915 8.42278 19.2203 8.69335 19.3354L9.11787 21.2187C9.22136 21.6778 9.64028 22.005 10.1245 22.005H13.8757C14.3599 22.005 14.7788 21.6778 14.8823 21.2187L15.3068 19.3354C15.594 19.2132 15.8726 19.0756 16.1416 18.9237C16.3983 18.7793 16.6476 18.6211 16.8884 18.4493L18.7813 19.0341C19.2427 19.1767 19.7442 18.9883 19.9863 18.5813L21.8619 15.4288C22.104 15.0218 22.0215 14.5061 21.6635 14.1896L20.1951 12.8912C20.2289 12.5954 20.2455 12.2992 20.2451 12.0039C20.2454 11.7093 20.2288 11.4138 20.1951 11.1189L21.6635 9.82044C22.0215 9.50393 22.104 8.98825 21.8619 8.58127L19.9863 5.42876C19.7442 5.02178 19.2427 4.83332 18.7813 4.97589L16.8884 5.56076C16.6505 5.39105 16.4043 5.23454 16.1509 5.09157ZM12 16.005C14.2765 16.005 16.1219 14.2141 16.1219 12.005C16.1219 9.79587 14.2765 8.005 12 8.005C9.72358 8.005 7.87815 9.79587 7.87815 12.005C7.87815 14.2141 9.72358 16.005 12 16.005Z" fill="black"/>
</svg>
