<svg xmlns="http://www.w3.org/2000/svg" width="16" height="16" viewBox="0 0 16 16" fill="none"><rect width="16" height="16" fill="none"/>
<path d="M1.62605 5.94716C1.91684 5.05137 2.39588 4.2291 3.02795 3.53224C3.13484 3.4144 3.30252 3.37241 3.45266 3.42587L4.96318 3.96384C5.37271 4.1096 5.82333 3.8971 5.96968 3.4892C5.98407 3.44909 5.99515 3.40788 6.00281 3.36605L6.29059 1.79271C6.3192 1.63627 6.43982 1.51253 6.59596 1.47943C7.05283 1.38257 7.52126 1.33331 7.99582 1.33331C8.4701 1.33331 8.93825 1.38251 9.39485 1.47925C9.55095 1.51233 9.67156 1.63599 9.70024 1.79236L9.98882 3.36598C10.0668 3.79211 10.4769 4.07457 10.9047 3.99685C10.9468 3.98921 10.9882 3.97817 11.0284 3.96386L12.539 3.42587C12.6891 3.37241 12.8568 3.4144 12.9637 3.53224C13.5958 4.2291 14.0748 5.05137 14.3656 5.94716C14.4147 6.09829 14.3674 6.26396 14.2458 6.36676L13.0215 7.40212C12.69 7.68249 12.6494 8.17745 12.9309 8.50763C12.9586 8.5401 12.9889 8.57027 13.0214 8.59782L14.2458 9.6332C14.3674 9.736 14.4147 9.90167 14.3656 10.0528C14.0748 10.9486 13.5958 11.7709 12.9637 12.4677C12.8568 12.5856 12.6891 12.6276 12.539 12.5741L11.0285 12.0361C10.6189 11.8904 10.1683 12.1029 10.022 12.5108C10.0076 12.5509 9.99649 12.5921 9.9888 12.6341L9.70024 14.2076C9.67156 14.364 9.55095 14.4876 9.39485 14.5207C8.93825 14.6175 8.4701 14.6666 7.99582 14.6666C7.52126 14.6666 7.05283 14.6174 6.59596 14.5205C6.43982 14.4874 6.3192 14.3637 6.29059 14.2073L6.00283 12.634C5.9248 12.2078 5.51473 11.9254 5.08689 12.0031C5.04483 12.0107 5.00345 12.0218 4.96325 12.0361L3.45266 12.5741C3.30252 12.6276 3.13484 12.5856 3.02795 12.4677C2.39588 11.7709 1.91684 10.9486 1.62605 10.0528C1.57699 9.90167 1.62429 9.736 1.74585 9.6332L2.97019 8.59784C3.30169 8.31747 3.34224 7.82251 3.06075 7.49233C3.03307 7.45986 3.00278 7.42969 2.9702 7.40214L1.74585 6.36676C1.62429 6.26396 1.57699 6.09829 1.62605 5.94716ZM2.46116 5.94279L3.47986 6.80426C3.54506 6.8594 3.60563 6.91974 3.66099 6.98467C4.22396 7.64505 4.14287 8.63496 3.47984 9.19571L2.46116 10.0572C2.69113 10.6707 3.023 11.2409 3.44147 11.7451L4.6982 11.2976C4.77874 11.2689 4.86148 11.2468 4.94562 11.2315C5.80129 11.0761 6.62144 11.641 6.7775 12.4933L7.01685 13.802C7.33803 13.8553 7.66509 13.8823 7.99582 13.8823C8.32633 13.8823 8.65318 13.8553 8.97414 13.8021L9.21416 12.4933C9.2295 12.4095 9.25167 12.327 9.28046 12.2468C9.57315 11.431 10.4744 11.006 11.2935 11.2976L12.5502 11.7451C12.9686 11.2409 13.3005 10.6707 13.5305 10.0572L12.5118 9.1957C12.4466 9.14056 12.386 9.08022 12.3307 9.01529C11.7677 8.35491 11.8488 7.365 12.5118 6.80425L13.5305 5.94279C13.3005 5.32928 12.9686 4.75906 12.5502 4.25483L11.2934 4.70241C11.2129 4.73107 11.1302 4.75316 11.046 4.76844C10.1904 4.92387 9.3702 4.35896 9.21418 3.5068L8.97414 2.1979C8.65318 2.14463 8.32633 2.11763 7.99582 2.11763C7.66509 2.11763 7.33803 2.14467 7.01685 2.19801L6.77748 3.50669C6.76214 3.59049 6.73997 3.67291 6.71119 3.75313C6.4185 4.56894 5.51725 4.99394 4.69813 4.70238L3.44147 4.25483C3.023 4.75906 2.69113 5.32928 2.46116 5.94279ZM6.02723 7.99998C6.02723 6.91707 6.9086 6.0392 7.99582 6.0392C9.08304 6.0392 9.96441 6.91707 9.96441 7.99998C9.96441 9.08289 9.08304 9.96076 7.99582 9.96076C6.9086 9.96076 6.02723 9.08289 6.02723 7.99998ZM6.81467 7.99998C6.81467 8.64973 7.34349 9.17645 7.99582 9.17645C8.64815 9.17645 9.17697 8.64973 9.17697 7.99998C9.17697 7.35023 8.64815 6.82351 7.99582 6.82351C7.34349 6.82351 6.81467 7.35023 6.81467 7.99998Z" fill="black"/>
</svg>
