<svg xmlns="http://www.w3.org/2000/svg" width="24" height="24" viewBox="0 0 24 24" fill="none"><rect width="24" height="24" fill="none"/>
<path d="M2.43956 8.92078C2.87575 7.57709 3.5943 6.34368 4.54241 5.2984C4.70274 5.12164 4.95427 5.05864 5.17947 5.13884L7.44526 5.94578C8.05955 6.16443 8.73548 5.84568 8.955 5.23383C8.97659 5.17366 8.99322 5.11185 9.00471 5.0491L9.43637 2.68909C9.47929 2.45444 9.66022 2.26883 9.89444 2.21917C10.5797 2.07388 11.2824 2 11.9942 2C12.7056 2 13.4079 2.07379 14.0928 2.21891C14.3269 2.26852 14.5078 2.45401 14.5508 2.68857L14.9837 5.049C15.1007 5.6882 15.7159 6.11188 16.3576 5.99531C16.4207 5.98385 16.4828 5.96728 16.5431 5.94582L18.809 5.13884C19.0342 5.05864 19.2857 5.12164 19.446 5.2984C20.3941 6.34368 21.1127 7.57709 21.5489 8.92078C21.6225 9.14746 21.5515 9.39597 21.3692 9.55016L19.5327 11.1032C19.0354 11.5238 18.9746 12.2662 19.3968 12.7615C19.4383 12.8102 19.4838 12.8554 19.5326 12.8968L21.3692 14.4498C21.5515 14.604 21.6225 14.8525 21.5489 15.0792C21.1127 16.4229 20.3941 17.6563 19.446 18.7016C19.2857 18.8784 19.0342 18.9414 18.809 18.8612L16.5432 18.0542C15.9289 17.8356 15.253 18.1543 15.0334 18.7662C15.0119 18.8263 14.9952 18.8882 14.9837 18.9512L14.5508 21.3114C14.5078 21.546 14.3269 21.7315 14.0928 21.7811C13.4079 21.9262 12.7056 22 11.9942 22C11.2824 22 10.5797 21.9261 9.89444 21.7808C9.66022 21.7312 9.47929 21.5456 9.43637 21.3109L9.00473 18.951C8.88769 18.3118 8.27258 17.8881 7.63083 18.0047C7.56773 18.0162 7.50567 18.0327 7.44536 18.0542L5.17947 18.8612C4.95427 18.9414 4.70274 18.8784 4.54241 18.7016C3.5943 17.6563 2.87575 16.4229 2.43956 15.0792C2.36597 14.8525 2.43693 14.604 2.61926 14.4498L4.45577 12.8968C4.95302 12.4762 5.01384 11.7338 4.59161 11.2385C4.5501 11.1898 4.50466 11.1446 4.45579 11.1032L2.61926 9.55016C2.43693 9.39597 2.36597 9.14746 2.43956 8.92078ZM3.69223 8.91422L5.22028 10.2064C5.31807 10.2891 5.40894 10.3796 5.49197 10.477C6.33643 11.4676 6.21479 12.9525 5.22025 13.7936L3.69223 15.0858C4.03719 16.006 4.53498 16.8614 5.16269 17.6177L7.04779 16.9464C7.16859 16.9034 7.29272 16.8702 7.41892 16.8473C8.70242 16.6142 9.93265 17.4615 10.1667 18.74L10.5258 20.703C11.0075 20.783 11.4981 20.8235 11.9942 20.8235C12.49 20.8235 12.9803 20.783 13.4617 20.7031L13.8217 18.7399C13.8447 18.6142 13.878 18.4906 13.9212 18.3703C14.3602 17.1466 15.7121 16.5091 16.9408 16.9464L18.8258 17.6177C19.4535 16.8614 19.9513 16.006 20.2962 15.0858L18.7682 13.7936C18.6704 13.7109 18.5795 13.6204 18.4965 13.523C17.652 12.5324 17.7737 11.0475 18.7682 10.2064L20.2962 8.91422C19.9513 7.99395 19.4535 7.13863 18.8258 6.38228L16.9407 7.05364C16.8199 7.09664 16.6957 7.12977 16.5695 7.15269C15.286 7.38583 14.0558 6.53847 13.8218 5.26023L13.4617 3.29688C12.9803 3.21698 12.49 3.17647 11.9942 3.17647C11.4981 3.17647 11.0075 3.21703 10.5258 3.29704L10.1667 5.26006C10.1437 5.38577 10.1104 5.5094 10.0673 5.62973C9.62823 6.85343 8.27636 7.49094 7.04769 7.05361L5.16269 6.38228C4.53498 7.13863 4.03719 7.99395 3.69223 8.91422ZM9.04134 12C9.04134 10.3756 10.3634 9.05882 11.9942 9.05882C13.6251 9.05882 14.9471 10.3756 14.9471 12C14.9471 13.6244 13.6251 14.9412 11.9942 14.9412C10.3634 14.9412 9.04134 13.6244 9.04134 12ZM10.2225 12C10.2225 12.9746 11.0157 13.7647 11.9942 13.7647C12.9727 13.7647 13.766 12.9746 13.766 12C13.766 11.0254 12.9727 10.2353 11.9942 10.2353C11.0157 10.2353 10.2225 11.0254 10.2225 12Z" fill="black"/>
</svg>
