<svg xmlns="http://www.w3.org/2000/svg" width="24" height="24" viewBox="0 0 24 24" fill="none"><rect width="24" height="24" fill="none"/>
<path d="M23.4279 9.57925C23.1055 9.35499 22.4921 9.00041 22.0548 8.81152L21.3644 7.14486C21.5348 6.71535 21.7211 6.02816 21.7925 5.63109C21.8697 5.2014 21.7317 4.76114 21.4229 4.45243L19.5476 2.57706C19.2389 2.26826 18.7985 2.13021 18.3689 2.20755C17.9779 2.27786 17.2951 2.46106 16.8551 2.63563L15.1885 1.94524C15.0057 1.52195 14.6515 0.90373 14.4207 0.572087C14.1715 0.213688 13.7626 0 13.3261 0H10.6739C10.2374 0 9.8285 0.213688 9.57925 0.572087C9.35499 0.894485 9.00041 1.50791 8.81152 1.94524L7.14486 2.63563C6.71535 2.46524 6.02816 2.27892 5.63109 2.20755C5.20167 2.13048 4.76114 2.26844 4.45243 2.57706L2.57706 4.45243C2.26835 4.76114 2.1303 5.2014 2.20755 5.63109C2.27786 6.02211 2.46106 6.70486 2.63563 7.14486L1.94524 8.81152C1.52195 8.99428 0.90373 9.3485 0.572087 9.57925C0.213688 9.8285 0 10.2374 0 10.6739V13.3261C0 13.7626 0.213688 14.1715 0.572087 14.4207C0.894485 14.645 1.50791 14.9996 1.94524 15.1885L2.63563 16.8551C2.46524 17.2846 2.27893 17.9718 2.20755 18.3689C2.1303 18.7986 2.26835 19.2389 2.57706 19.5476L4.45243 21.4229C4.76105 21.7317 5.20114 21.8695 5.63109 21.7925C6.02211 21.7221 6.70486 21.5389 7.14486 21.3644L8.81152 22.0548C8.99428 22.4781 9.3485 23.0963 9.57925 23.4279C9.8285 23.7863 10.2374 24 10.6739 24H13.3261C13.7626 24 14.1715 23.7863 14.4207 23.4279C14.645 23.1055 14.9996 22.4921 15.1885 22.0548L16.8551 21.3644C17.2846 21.5348 17.9718 21.7211 18.3689 21.7925C18.7986 21.8697 19.2389 21.7317 19.5476 21.4229L21.4229 19.5476C21.7317 19.2389 21.8697 18.7986 21.7925 18.3689C21.7221 17.9779 21.5389 17.2951 21.3644 16.8551L22.0548 15.1885C22.4781 15.0057 23.0963 14.6515 23.4279 14.4207C23.7863 14.1715 24 13.7626 24 13.3261V10.6739C24 10.2374 23.7863 9.8285 23.4279 9.57925ZM12 17.3334C9.05917 17.3334 6.66664 14.9409 6.66664 12.0001C6.66664 9.05934 9.05917 6.66682 12 6.66682C14.9407 6.66682 17.3333 9.05934 17.3333 12.0001C17.3333 14.9409 14.9407 17.3334 12 17.3334Z" fill="black"/>
</svg>
