<svg xmlns="http://www.w3.org/2000/svg" width="24" height="24" viewBox="0 0 24 24" fill="none"><rect width="24" height="24" fill="none"/>
<path d="M20.8438 12.6563C21.396 12.6563 21.8438 13.104 21.8438 13.6563V23.0001C21.8438 23.5523 21.396 24.0001 20.8438 24.0001H3.15625C2.60397 24.0001 2.15625 23.5523 2.15625 23.0001V13.6563C2.15625 13.104 2.60397 12.6563 3.15625 12.6563H8.1875C8.73978 12.6563 9.1875 13.104 9.1875 13.6563V15.6173C9.1875 16.416 10.0776 16.8924 10.7422 16.4494L11.4453 15.9806C11.7812 15.7567 12.2188 15.7567 12.5547 15.9806L13.2578 16.4494C13.9224 16.8924 14.8125 16.416 14.8125 15.6173V13.6563C14.8125 13.104 15.2602 12.6563 15.8125 12.6563H20.8438Z" fill="black"/>
<path d="M0.75 8.03131C0.75 7.47903 1.19772 7.03131 1.75 7.03131H8.1875C8.73978 7.03131 9.1875 7.47903 9.1875 8.03131V10.2501C9.1875 10.8023 8.73978 11.2501 8.1875 11.2501H1.75C1.19772 11.2501 0.75 10.8023 0.75 10.2501V8.03131Z" fill="black"/>
<path d="M14.8125 8.03131C14.8125 7.47903 15.2602 7.03131 15.8125 7.03131H22.25C22.8023 7.03131 23.25 7.47903 23.25 8.03131V10.2501C23.25 10.8023 22.8023 11.2501 22.25 11.2501H15.8125C15.2602 11.2501 14.8125 10.8023 14.8125 10.2501V8.03131Z" fill="black"/>
<path d="M21.8437 3.51568C21.8437 4.30646 21.5812 5.03724 21.1387 5.62506H14.8125V2.37474C15.9647 0.796932 17.1844 5.64157e-05 18.4556 5.64157e-05H18.4725C20.4994 0.0117752 21.8437 2.12349 21.8437 3.51568Z" fill="black"/>
<path d="M9.1875 2.37425V5.62503H2.86125C2.41875 5.03722 2.15625 4.30643 2.15625 3.51565C2.15625 2.12347 3.50063 0.0117474 5.5275 2.8624e-05C6.80437 -0.00794013 8.03016 0.789404 9.1875 2.37425Z" fill="black"/>
<path d="M10.5937 4.2188H13.4062V14.8582L12 13.9207L10.5937 14.8582V4.2188Z" fill="black"/>
</svg>
