<svg xmlns="http://www.w3.org/2000/svg" width="24" height="25" viewBox="0 0 24 25" fill="none"><rect width="24" height="25" fill="none"/>
<path d="M19.3697 12.5519C19.83 12.5519 20.2031 12.925 20.2031 13.3853V21.1717C20.2031 21.6319 19.83 22.005 19.3697 22.005H4.6302C4.16997 22.005 3.79687 21.6319 3.79687 21.1717V13.3853C3.79687 12.925 4.16997 12.5519 4.6302 12.5519H8.8229C9.28313 12.5519 9.65623 12.925 9.65623 13.3853V15.0194C9.65623 15.685 10.398 16.082 10.9518 15.7128L11.5377 15.3222C11.8176 15.1356 12.1823 15.1356 12.4622 15.3222L13.0481 15.7128C13.6019 16.082 14.3437 15.685 14.3437 15.0194V13.3853C14.3437 12.925 14.7168 12.5519 15.177 12.5519H19.3697Z" fill="black"/>
<path d="M2.625 8.69777C2.625 8.23753 2.99809 7.86444 3.45833 7.86444H8.8229C9.28313 7.86444 9.65623 8.23753 9.65623 8.69777V10.5467C9.65623 11.007 9.28313 11.3801 8.8229 11.3801H3.45833C2.99809 11.3801 2.625 11.007 2.625 10.5467V8.69777Z" fill="black"/>
<path d="M14.3437 8.69777C14.3437 8.23753 14.7168 7.86444 15.177 7.86444H20.5416C21.0018 7.86444 21.3749 8.23753 21.3749 8.69777V10.5467C21.3749 11.007 21.0018 11.3801 20.5416 11.3801H15.177C14.7168 11.3801 14.3437 11.007 14.3437 10.5467V8.69777Z" fill="black"/>
<path d="M20.2031 4.93476C20.2031 5.59374 19.9843 6.20272 19.6156 6.69256H14.3437V3.98398C15.3039 2.66914 16.3203 2.00508 17.3796 2.00508H17.3937C19.0828 2.01484 20.2031 3.7746 20.2031 4.93476Z" fill="black"/>
<path d="M9.65623 3.98356V6.69254H4.38437C4.01562 6.2027 3.79687 5.59371 3.79687 4.93473C3.79687 3.77458 4.91718 2.01482 6.60624 2.00505C7.6703 1.99841 8.69178 2.66286 9.65623 3.98356Z" fill="black"/>
<path d="M10.8281 5.52069H13.1718V14.3868L12 13.6055L10.8281 14.3868V5.52069Z" fill="black"/>
</svg>
