<svg xmlns="http://www.w3.org/2000/svg" width="24" height="24" viewBox="0 0 24 24" fill="none"><rect width="24" height="24" fill="none"/>
<path d="M19.3658 12.5469C19.8261 12.5469 20.1992 12.92 20.1992 13.3803V21.1667C20.1992 21.6269 19.8261 22 19.3658 22H4.6263C4.16606 22 3.79296 21.6269 3.79296 21.1667V13.3803C3.79296 12.92 4.16606 12.5469 4.6263 12.5469H8.81899C9.27923 12.5469 9.65232 12.92 9.65232 13.3803V15.0144C9.65232 15.68 10.3941 16.077 10.9479 15.7078L11.5338 15.3172C11.8137 15.1306 12.1784 15.1306 12.4583 15.3172L13.0442 15.7078C13.598 16.077 14.3398 15.68 14.3398 15.0144V13.3803C14.3398 12.92 14.7129 12.5469 15.1731 12.5469H19.3658Z" fill="black"/>
<path d="M2.62109 8.69276C2.62109 8.23253 2.99419 7.85943 3.45442 7.85943H8.81899C9.27923 7.85943 9.65232 8.23253 9.65232 8.69276V10.5417C9.65232 11.002 9.27923 11.375 8.81899 11.375H3.45442C2.99419 11.375 2.62109 11.002 2.62109 10.5417V8.69276Z" fill="black"/>
<path d="M14.3398 8.69276C14.3398 8.23253 14.7129 7.85943 15.1731 7.85943H20.5377C20.9979 7.85943 21.371 8.23253 21.371 8.69276V10.5417C21.371 11.002 20.9979 11.375 20.5377 11.375H15.1731C14.7129 11.375 14.3398 11.002 14.3398 10.5417V8.69276Z" fill="black"/>
<path d="M20.1992 4.92975C20.1992 5.58873 19.9804 6.19771 19.6117 6.68756H14.3398V3.97897C15.3 2.66413 16.3164 2.00007 17.3757 2.00007H17.3898C19.0788 2.00984 20.1992 3.7696 20.1992 4.92975Z" fill="black"/>
<path d="M9.65232 3.97856V6.68753H4.38046C4.01171 6.19769 3.79296 5.58871 3.79296 4.92973C3.79296 3.76957 4.91327 2.00981 6.60233 2.00005C7.66639 1.99341 8.68787 2.65786 9.65232 3.97856Z" fill="black"/>
<path d="M10.8242 5.51568H13.1679V14.3818L11.9961 13.6005L10.8242 14.3818V5.51568Z" fill="black"/>
</svg>
