<svg xmlns="http://www.w3.org/2000/svg" width="17" height="17" viewBox="0 0 17 17" fill="none"><rect width="17" height="17" fill="none"/>
<path d="M12.918 8.37128C13.2249 8.37128 13.4736 8.62001 13.4736 8.92684V14.1178C13.4736 14.4246 13.2249 14.6733 12.918 14.6733H3.09168C2.78486 14.6733 2.53613 14.4246 2.53613 14.1178V8.92684C2.53613 8.62001 2.78486 8.37128 3.09168 8.37128H5.88681C6.19364 8.37128 6.44237 8.62001 6.44237 8.92684V10.0163C6.44237 10.46 6.93689 10.7247 7.30609 10.4785L7.6967 10.2181C7.88331 10.0937 8.12642 10.0937 8.31303 10.2181L8.70364 10.4785C9.07283 10.7247 9.56736 10.46 9.56736 10.0163V8.92684C9.56736 8.62001 9.81609 8.37128 10.1229 8.37128H12.918Z" fill="black"/>
<path d="M1.75488 5.80184C1.75488 5.49501 2.00361 5.24628 2.31044 5.24628H5.88681C6.19364 5.24628 6.44237 5.49501 6.44237 5.80184V7.03447C6.44237 7.3413 6.19364 7.59003 5.88681 7.59003H2.31044C2.00361 7.59003 1.75488 7.3413 1.75488 7.03447V5.80184Z" fill="black"/>
<path d="M9.56735 5.80184C9.56735 5.49501 9.81608 5.24628 10.1229 5.24628H13.6993C14.0061 5.24628 14.2548 5.49501 14.2548 5.80184V7.03447C14.2548 7.3413 14.0061 7.59003 13.6993 7.59003H10.1229C9.81608 7.59003 9.56735 7.3413 9.56735 7.03447V5.80184Z" fill="black"/>
<path d="M13.4736 3.29316C13.4736 3.73248 13.3278 4.13847 13.0819 4.46503H9.56735V2.65931C10.2075 1.78275 10.8851 1.34004 11.5913 1.34004H11.6007C12.7267 1.34656 13.4736 2.51973 13.4736 3.29316Z" fill="black"/>
<path d="M6.44237 2.65904V4.46502H2.9278C2.68196 4.13846 2.53613 3.73247 2.53613 3.29315C2.53613 2.51971 3.283 1.34654 4.40904 1.34003C5.11841 1.3356 5.7994 1.77857 6.44237 2.65904Z" fill="black"/>
<path d="M7.22361 3.68379H8.78611V9.59452L8.00486 9.07369L7.22361 9.59452V3.68379Z" fill="black"/>
</svg>
