<svg xmlns="http://www.w3.org/2000/svg" width="16" height="16" viewBox="0 0 16 16" fill="none"><rect width="16" height="16" fill="none"/>
<path d="M12.9097 8.3646C13.2166 8.3646 13.4653 8.61333 13.4653 8.92015V14.1111C13.4653 14.4179 13.2166 14.6666 12.9097 14.6666H3.08338C2.77656 14.6666 2.52783 14.4179 2.52783 14.1111V8.92015C2.52783 8.61333 2.77656 8.3646 3.08338 8.3646H5.87851C6.18534 8.3646 6.43407 8.61333 6.43407 8.92015V10.0096C6.43407 10.4533 6.92859 10.718 7.29778 10.4718L7.6884 10.2114C7.87501 10.087 8.11812 10.087 8.30473 10.2114L8.69534 10.4718C9.06453 10.718 9.55906 10.4533 9.55906 10.0096V8.92015C9.55906 8.61333 9.80779 8.3646 10.1146 8.3646H12.9097Z" fill="black"/>
<path d="M1.74658 5.79515C1.74658 5.48833 1.99531 5.2396 2.30214 5.2396H5.87851C6.18534 5.2396 6.43407 5.48833 6.43407 5.79515V7.02779C6.43407 7.33461 6.18534 7.58334 5.87851 7.58334H2.30214C1.99531 7.58334 1.74658 7.33461 1.74658 7.02779V5.79515Z" fill="black"/>
<path d="M9.55905 5.79515C9.55905 5.48833 9.80778 5.2396 10.1146 5.2396H13.691C13.9978 5.2396 14.2465 5.48833 14.2465 5.79515V7.02779C14.2465 7.33461 13.9978 7.58334 13.691 7.58334H10.1146C9.80778 7.58334 9.55905 7.33461 9.55905 7.02779V5.79515Z" fill="black"/>
<path d="M13.4653 3.28648C13.4653 3.7258 13.3195 4.13179 13.0736 4.45835H9.55905V2.65263C10.1992 1.77607 10.8768 1.33336 11.583 1.33336H11.5924C12.7184 1.33987 13.4653 2.51304 13.4653 3.28648Z" fill="black"/>
<path d="M6.43407 2.65235V4.45834H2.91949C2.67366 4.13177 2.52783 3.72579 2.52783 3.28646C2.52783 2.51303 3.2747 1.33986 4.40074 1.33335C5.11011 1.32892 5.7911 1.77189 6.43407 2.65235Z" fill="black"/>
<path d="M7.21531 3.6771H8.77781V9.58784L7.99656 9.067L7.21531 9.58784V3.6771Z" fill="black"/>
</svg>
