<svg xmlns="http://www.w3.org/2000/svg" width="16" height="16" viewBox="0 0 16 16" fill="none"><rect width="16" height="16" fill="none"/>
<path d="M4.3423 1.50325C4.01819 1.29648 3.63193 1.27799 3.29505 1.45013L8.94335 7.44915L10.7902 5.48272L4.3423 1.50325ZM2.77609 2.00534C2.70484 2.16524 2.6665 2.34311 2.6665 2.52618V13.4997C2.6665 13.6836 2.70508 13.8588 2.77708 14.0154L8.42317 8.00306L2.77609 2.00534ZM8.94411 8.55619L3.3049 14.5612C3.45454 14.6346 3.61377 14.6667 3.77275 14.6667C3.96908 14.6667 4.16491 14.6169 4.34232 14.5039L10.7914 10.5184L8.94411 8.55619ZM13.2459 6.99836C13.2437 6.9968 13.2412 6.99524 13.239 6.99393L11.4487 5.88898L9.46405 8.00228L11.4499 10.1114C11.4499 10.1114 13.2437 9.00307 13.2459 9.00177C13.5788 8.78744 13.7776 8.41296 13.7776 7.99993C13.7776 7.58691 13.5788 7.21243 13.2459 6.99836Z" fill="black"/>
</svg>
