<svg xmlns="http://www.w3.org/2000/svg" width="17" height="17" viewBox="0 0 17 17" fill="none"><rect width="17" height="17" fill="none"/>
<path d="M4.90626 1.50992C4.58216 1.30315 4.19589 1.28466 3.85901 1.4568L9.50731 7.45582L11.3541 5.48939L4.90626 1.50992ZM3.34006 2.01201C3.2688 2.17191 3.23047 2.34977 3.23047 2.53285V13.5064C3.23047 13.6903 3.26905 13.8655 3.34104 14.022L8.98713 8.00973L3.34006 2.01201ZM9.50808 8.56286L3.86887 14.5679C4.01851 14.6413 4.17773 14.6733 4.33671 14.6733C4.53304 14.6733 4.72888 14.6236 4.90628 14.5106L11.3554 10.5251L9.50808 8.56286ZM13.8098 7.00503C13.8076 7.00347 13.8052 7.0019 13.803 7.0006L12.0127 5.89564L10.028 8.00895L12.0139 10.1181C12.0139 10.1181 13.8076 9.00974 13.8098 9.00843C14.1428 8.79411 14.3416 8.41963 14.3416 8.0066C14.3416 7.59358 14.1428 7.21909 13.8098 7.00503Z" fill="black"/>
</svg>
