<svg xmlns="http://www.w3.org/2000/svg" width="25" height="24" viewBox="0 0 25 24" fill="none"><rect width="25" height="24" fill="none"/>
<path d="M6.18361 2.25488C5.69746 1.94472 5.11806 1.91699 4.61274 2.1752L13.0852 11.1737L15.8554 8.22408L6.18361 2.25488ZM3.83431 3.00802C3.72742 3.24786 3.66992 3.51466 3.66992 3.78927V20.2496C3.66992 20.5254 3.72779 20.7883 3.83578 21.023L12.3049 12.0046L3.83431 3.00802ZM13.0863 12.8343L4.62752 21.8418C4.85198 21.952 5.09082 22 5.32929 22C5.62378 22 5.91753 21.9254 6.18365 21.7559L15.8573 15.7777L13.0863 12.8343ZM19.539 10.4975C19.5357 10.4952 19.532 10.4929 19.5287 10.4909L16.8432 8.83346L13.8662 12.0034L16.8451 15.1671C16.8451 15.1671 19.5357 13.5046 19.539 13.5027C20.0384 13.1812 20.3366 12.6194 20.3366 11.9999C20.3366 11.3804 20.0384 10.8186 19.539 10.4975Z" fill="black"/>
</svg>
