<svg xmlns="http://www.w3.org/2000/svg" width="24" height="24" viewBox="0 0 24 24" fill="none"><rect width="24" height="24" fill="none"/>
<path d="M6.51466 2.25488C6.02851 1.94472 5.44911 1.91699 4.94379 2.1752L13.4162 11.1737L16.1865 8.22408L6.51466 2.25488ZM4.16536 3.00802C4.05847 3.24786 4.00098 3.51466 4.00098 3.78927V20.2496C4.00098 20.5254 4.05884 20.7883 4.16684 21.023L12.636 12.0046L4.16536 3.00802ZM13.4174 12.8343L4.95857 21.8418C5.18304 21.952 5.42187 22 5.66034 22C5.95483 22 6.24859 21.9254 6.5147 21.7559L16.1883 15.7777L13.4174 12.8343ZM19.87 10.4975C19.8667 10.4952 19.863 10.4929 19.8597 10.4909L17.1743 8.83346L14.1973 12.0034L17.1761 15.1671C17.1761 15.1671 19.8667 13.5046 19.87 13.5027C20.3695 13.1812 20.6676 12.6194 20.6676 11.9999C20.6676 11.3804 20.3695 10.8186 19.87 10.4975Z" fill="black"/>
</svg>
