<svg xmlns="http://www.w3.org/2000/svg" width="24" height="24" viewBox="0 0 24 24" fill="none"><rect width="24" height="24" fill="none"/>
<path d="M5.80007 6.09994C5.00004 5.29991 1.60001 5.09994 0.499976 4.99991C0.39999 4.99991 0.299957 4.99991 0.199972 5.09989C0.0999858 5.19993 0 5.39995 0 5.49993V14.5001C0 14.8001 0.200019 15.0001 0.500023 15.0001H3.50007C3.70009 15.0001 3.90006 14.9001 4.00009 14.7001C4.00009 14.4001 5.80012 9.09999 6.00013 6.49998C6.00009 6.39995 6.00009 6.19997 5.80007 6.09994Z" fill="black"/>
<path d="M16.5008 8.49958C15.5008 8.19957 14.6008 7.79958 13.8008 7.49958C12.0007 6.69955 11.2007 7.09959 9.60071 8.6996C8.90071 9.39959 8.40069 10.3996 8.50068 10.7996C8.50068 10.8996 8.50068 10.8996 8.7007 10.9996C9.20072 11.1997 9.90071 11.2997 10.6007 10.1996C10.7007 10.0996 10.8007 9.9996 11.0007 9.9996C11.3007 9.9996 11.4007 9.89961 11.7007 9.79958C11.9007 9.69959 12.1007 9.59956 12.4007 9.49958C12.5007 9.49958 12.5007 9.49958 12.6007 9.49958C12.7007 9.49958 12.9007 9.59956 13.0007 9.59956C13.5008 10.0996 14.4008 10.7996 15.3008 11.5997C16.7008 12.6997 18.1008 13.8997 18.8009 14.7997H18.9008C18.2009 12.7997 17.0008 9.39959 16.5008 8.49958Z" fill="black"/>
<path d="M23.5 5.99975C19.5999 5.99975 17.3999 6.99975 17.2999 6.99975C17.1999 7.09973 17.0998 7.19977 16.9999 7.29975C16.9999 7.39974 16.9999 7.59976 17.0998 7.69974C17.6999 8.69974 19.6999 14.1999 19.9999 15.5998C20.0999 15.7999 20.2999 15.9998 20.4999 15.9998H23.5C23.8 15.9998 24 15.7998 24 15.4998V6.49968C24 6.19977 23.8 5.99975 23.5 5.99975Z" fill="black"/>
<path d="M18.0999 15.8001C17.6999 14.9 15.9999 13.6 14.4999 12.4C13.6999 11.7 12.8998 11.1 12.2998 10.5999C12.1998 10.6999 11.9998 10.6999 11.9998 10.8C11.6998 10.9 11.5998 11 11.1998 11C10.3998 12 9.39978 12.4 8.29979 12C7.79977 11.9 7.49977 11.5 7.39978 11.1C7.19976 10.1 8.09977 8.69994 8.79982 7.99994H6.79977C6.39978 9.99999 5.69974 12.6 5.19976 14C5.59975 14.4 5.99979 14.9 6.2998 15.1001C8.19981 16.7001 10.3999 18.3001 10.7999 18.6001C11.0999 18.8001 11.6999 19.0001 11.9999 19.0001C12.0999 19.0001 12.1999 19.0001 12.2999 19.0001L10.6998 17.4001C10.4998 17.2 10.4998 16.9 10.6998 16.7001C10.8998 16.5001 11.1999 16.5 11.3998 16.7001L13.3999 18.7001C13.5999 18.9001 13.7999 18.8001 13.9999 18.8001C14.2999 18.7001 14.3999 18.5001 14.4999 18.2001L12.1999 15.9C11.9998 15.7 11.9998 15.4 12.1999 15.2C12.3999 15.0001 12.6999 15 12.8998 15.2L15.3999 17.7001C15.4999 17.8001 15.8999 17.8001 16.1999 17.7001C16.2999 17.6001 16.4999 17.5 16.5999 17.3001L13.7999 14.5C13.5998 14.3 13.5998 14 13.7999 13.8C13.9999 13.6 14.2999 13.6 14.4999 13.8L17.3999 16.7001C17.5999 16.8001 17.7999 16.7001 17.9999 16.6001C18.0999 16.5 18.2999 16.2 18.0999 15.8001Z" fill="black"/>
</svg>
