<svg xmlns="http://www.w3.org/2000/svg" width="17" height="16" viewBox="0 0 17 16" fill="none"><rect width="17" height="16" fill="none"/>
<path d="M4.20928 4.39221C3.72038 3.90331 1.64258 3.7811 0.970336 3.71997C0.909233 3.71997 0.848102 3.71997 0.787 3.78107C0.725897 3.8422 0.664795 3.96444 0.664795 4.02554V9.52562C0.664795 9.70896 0.787028 9.83119 0.970365 9.83119H2.80372C2.92596 9.83119 3.04816 9.77009 3.10929 9.64786C3.10929 9.46452 4.20931 6.22557 4.33154 4.63668C4.33152 4.57555 4.33152 4.45334 4.20928 4.39221Z" fill="black"/>
<path d="M10.7486 5.85866C10.1375 5.67532 9.5875 5.43088 9.0986 5.24755C7.99858 4.75864 7.50968 5.00311 6.53189 5.98089C6.10412 6.40867 5.79855 7.0198 5.85965 7.26424C5.85965 7.32535 5.85965 7.32535 5.98189 7.38648C6.28746 7.50871 6.71523 7.56981 7.143 6.89757C7.20411 6.83647 7.26524 6.77534 7.38744 6.77534C7.57078 6.77534 7.63188 6.71423 7.81522 6.6531C7.93745 6.592 8.05966 6.53087 8.24299 6.46977C8.3041 6.46977 8.3041 6.46977 8.36523 6.46977C8.42633 6.46977 8.54856 6.53087 8.60966 6.53087C8.91526 6.83647 9.46527 7.26424 10.0153 7.75315C10.8709 8.42539 11.7264 9.15874 12.1542 9.70874H12.2153C11.7875 8.48649 11.0542 6.40866 10.7486 5.85866Z" fill="black"/>
<path d="M15.0259 4.33098C12.6425 4.33098 11.2981 4.9421 11.2369 4.9421C11.1758 5.0032 11.1147 5.06433 11.0536 5.12543C11.0536 5.18653 11.0536 5.30877 11.1147 5.36987C11.4814 5.98098 12.7036 9.34216 12.887 10.1977C12.9481 10.3199 13.0703 10.4421 13.1925 10.4421H15.0259C15.2092 10.4421 15.3315 10.3199 15.3315 10.1366V4.6365C15.3315 4.45322 15.2092 4.33098 15.0259 4.33098Z" fill="black"/>
<path d="M11.7258 10.3201C11.4814 9.77005 10.4425 8.97561 9.52582 8.24226C9.03694 7.81446 8.54803 7.44779 8.18136 7.14222C8.12026 7.20332 7.99802 7.20332 7.99802 7.26445C7.81469 7.32555 7.75359 7.38669 7.50912 7.38669C7.02024 7.9978 6.4091 8.24223 5.73689 7.9978C5.43132 7.93669 5.24799 7.69223 5.18688 7.44779C5.06465 6.83668 5.61466 5.9811 6.04246 5.55333H4.82021C4.57577 6.77558 4.14797 8.36447 3.84243 9.22004C4.08687 9.46448 4.33133 9.77005 4.51467 9.89229C5.67579 10.8701 7.02027 11.8479 7.26471 12.0312C7.44805 12.1534 7.81472 12.2757 7.99805 12.2757C8.05916 12.2757 8.12029 12.2757 8.18139 12.2757L7.20358 11.2978C7.08134 11.1756 7.08134 10.9923 7.20358 10.8701C7.32581 10.7479 7.50915 10.7478 7.63135 10.8701L8.8536 12.0923C8.97584 12.2146 9.09804 12.1534 9.22027 12.1534C9.40361 12.0923 9.46471 11.9701 9.52584 11.7867L8.12026 10.3812C7.99803 10.2589 7.99803 10.0756 8.12026 9.95339C8.24249 9.83118 8.42583 9.83115 8.54803 9.95339L10.0758 11.4812C10.1369 11.5423 10.3814 11.5423 10.5647 11.4812C10.6258 11.4201 10.7481 11.3589 10.8092 11.2367L9.09804 9.52559C8.97581 9.40335 8.97581 9.22002 9.09804 9.09781C9.22027 8.97561 9.40361 8.97558 9.52582 9.09781L11.2981 10.8701C11.4203 10.9312 11.5425 10.8701 11.6647 10.809C11.7258 10.7478 11.8481 10.5645 11.7258 10.3201Z" fill="black"/>
</svg>
