<svg xmlns="http://www.w3.org/2000/svg" width="24" height="25" viewBox="0 0 24 25" fill="none"><rect width="24" height="25" fill="none"/>
<path d="M6.31673 6.59839C5.58337 5.86503 2.46667 5.68172 1.45831 5.59003C1.36666 5.59003 1.27496 5.59003 1.18331 5.68168C1.09165 5.77338 1 5.95673 1 6.04838V14.2985C1 14.5735 1.18335 14.7569 1.45835 14.7569H4.20839C4.39175 14.7569 4.57505 14.6652 4.66675 14.4819C4.66675 14.2068 6.31677 9.34843 6.50012 6.96509C6.50008 6.87339 6.50008 6.69009 6.31673 6.59839Z" fill="black"/>
<path d="M16.1257 8.79806C15.2091 8.52305 14.3841 8.15639 13.6507 7.88139C12.0007 7.14803 11.2673 7.51473 9.80065 8.98141C9.15899 9.62307 8.70063 10.5398 8.79229 10.9064C8.79229 10.9981 8.79229 10.9981 8.97564 11.0898C9.43399 11.2731 10.0757 11.3648 10.7173 10.3564C10.809 10.2648 10.9007 10.1731 11.084 10.1731C11.359 10.1731 11.4506 10.0814 11.7256 9.98973C11.909 9.89807 12.0923 9.80638 12.3673 9.71472C12.459 9.71472 12.459 9.71472 12.5506 9.71472C12.6423 9.71472 12.8257 9.80638 12.9173 9.80638C13.3757 10.2648 14.2007 10.9064 15.0257 11.6398C16.3091 12.6482 17.5924 13.7482 18.2341 14.5732H18.3258C17.6841 12.7398 16.5841 9.62307 16.1257 8.79806Z" fill="black"/>
<path d="M22.5416 6.50655C18.9666 6.50655 16.9499 7.42321 16.8582 7.42321C16.7666 7.51487 16.6749 7.60656 16.5832 7.69822C16.5832 7.78987 16.5832 7.97322 16.6749 8.06488C17.2249 8.98154 19.0582 14.0233 19.3333 15.3066C19.4249 15.49 19.6083 15.6733 19.7916 15.6733H22.5416C22.8167 15.6733 23 15.4899 23 15.2149V6.96482C23 6.6899 22.8167 6.50655 22.5416 6.50655Z" fill="black"/>
<path d="M17.5916 15.4902C17.2249 14.6651 15.6666 13.4735 14.2915 12.3735C13.5582 11.7318 12.8249 11.1818 12.2748 10.7234C12.1832 10.8151 11.9998 10.8151 11.9998 10.9067C11.7248 10.9984 11.6332 11.0901 11.2665 11.0901C10.5332 12.0068 9.61646 12.3734 8.60814 12.0068C8.14979 11.9151 7.87479 11.5484 7.78313 11.1818C7.59978 10.2651 8.42479 8.98172 9.0665 8.34006H7.23312C6.86647 10.1734 6.22476 12.5568 5.76645 13.8401C6.13311 14.2068 6.49981 14.6651 6.77481 14.8485C8.51649 16.3152 10.5332 17.7819 10.8999 18.0569C11.1749 18.2402 11.7249 18.4236 11.9999 18.4236C12.0915 18.4236 12.1832 18.4236 12.2749 18.4236L10.8082 16.9568C10.6248 16.7735 10.6248 16.4985 10.8082 16.3152C10.9915 16.1319 11.2665 16.1318 11.4498 16.3152L13.2832 18.1485C13.4666 18.3319 13.6499 18.2402 13.8332 18.2402C14.1082 18.1485 14.1999 17.9652 14.2916 17.6902L12.1832 15.5818C11.9998 15.3985 11.9998 15.1235 12.1832 14.9402C12.3665 14.7568 12.6416 14.7568 12.8249 14.9402L15.1165 17.2318C15.2082 17.3235 15.5749 17.3235 15.8499 17.2318C15.9416 17.1402 16.1249 17.0485 16.2166 16.8652L13.6499 14.2984C13.4665 14.1151 13.4665 13.8401 13.6499 13.6568C13.8332 13.4735 14.1082 13.4734 14.2915 13.6568L16.9499 16.3152C17.1333 16.4068 17.3166 16.3152 17.4999 16.2235C17.5916 16.1318 17.7749 15.8568 17.5916 15.4902Z" fill="black"/>
</svg>
