<svg xmlns="http://www.w3.org/2000/svg" width="16" height="16" viewBox="0 0 16 16" fill="none"><rect width="16" height="16" fill="none"/>
<path d="M4.21123 4.67212C3.72233 4.18321 1.64453 4.06101 0.972289 3.99988C0.911187 3.99988 0.850055 3.99988 0.788953 4.06098C0.72785 4.12211 0.666748 4.24435 0.666748 4.30545V9.80553C0.666748 9.98886 0.788982 10.1111 0.972318 10.1111H2.80568C2.92791 10.1111 3.05012 10.05 3.11125 9.92776C3.11125 9.74443 4.21126 6.50548 4.3335 4.91659C4.33347 4.85546 4.33347 4.73325 4.21123 4.67212Z" fill="black"/>
<path d="M10.7506 6.13856C10.1395 5.95523 9.58946 5.71079 9.10055 5.52745C8.00054 5.03855 7.51163 5.28301 6.53385 6.2608C6.10607 6.68857 5.8005 7.29971 5.86161 7.54415C5.86161 7.60525 5.86161 7.60525 5.98384 7.66638C6.28941 7.78862 6.71718 7.84972 7.14496 7.17748C7.20606 7.11638 7.26719 7.05524 7.3894 7.05524C7.57273 7.05524 7.63383 6.99414 7.81717 6.93301C7.9394 6.87191 8.06161 6.81078 8.24495 6.74967C8.30605 6.74967 8.30605 6.74967 8.36718 6.74967C8.42828 6.74967 8.55052 6.81078 8.61162 6.81078C8.91722 7.11638 9.46722 7.54415 10.0172 8.03306C10.8728 8.7053 11.7284 9.43864 12.1562 9.98865H12.2173C11.7895 8.7664 11.0561 6.68857 10.7506 6.13856Z" fill="black"/>
<path d="M15.0278 4.61089C12.6445 4.61089 11.3 5.222 11.2389 5.222C11.1778 5.2831 11.1167 5.34424 11.0556 5.40534C11.0556 5.46644 11.0556 5.58867 11.1167 5.64978C11.4833 6.26089 12.7056 9.62207 12.8889 10.4776C12.95 10.5999 13.0723 10.7221 13.1945 10.7221H15.0278C15.2112 10.7221 15.3334 10.5998 15.3334 10.4165V4.9164C15.3334 4.73313 15.2112 4.61089 15.0278 4.61089Z" fill="black"/>
<path d="M11.7278 10.6C11.4834 10.05 10.4444 9.25551 9.52777 8.52217C9.03889 8.09437 8.54999 7.72769 8.18331 7.42213C8.12221 7.48323 7.99998 7.48323 7.99998 7.54436C7.81664 7.60546 7.75554 7.66659 7.51107 7.66659C7.0222 8.2777 6.41106 8.52214 5.73884 8.2777C5.43327 8.2166 5.24994 7.97213 5.18884 7.72769C5.0666 7.11658 5.61661 6.26101 6.04441 5.83323H4.82216C4.57773 7.05548 4.14992 8.64437 3.84438 9.49995C4.08882 9.74439 4.33329 10.05 4.51662 10.1722C5.67774 11.15 7.02222 12.1278 7.26666 12.3111C7.45 12.4334 7.81667 12.5556 8.00001 12.5556C8.06111 12.5556 8.12224 12.5556 8.18334 12.5556L7.20553 11.5777C7.0833 11.4555 7.0833 11.2722 7.20553 11.15C7.32776 11.0278 7.5111 11.0277 7.63331 11.15L8.85556 12.3722C8.97779 12.4945 9.09999 12.4333 9.22223 12.4333C9.40556 12.3722 9.46667 12.25 9.5278 12.0667L8.12221 10.6611C7.99998 10.5388 7.99998 10.3555 8.12221 10.2333C8.24445 10.1111 8.42778 10.1111 8.54999 10.2333L10.0778 11.7611C10.1389 11.8222 10.3833 11.8222 10.5667 11.7611C10.6278 11.7 10.75 11.6389 10.8111 11.5166L9.09999 9.80549C8.97776 9.68326 8.97776 9.49992 9.09999 9.37772C9.22223 9.25551 9.40556 9.25548 9.52777 9.37772L11.3 11.15C11.4223 11.2111 11.5445 11.15 11.6667 11.0889C11.7278 11.0277 11.85 10.8444 11.7278 10.6Z" fill="black"/>
</svg>
