<svg xmlns="http://www.w3.org/2000/svg" width="24" height="24" viewBox="0 0 24 24" fill="none"><rect width="24" height="24" fill="none"/>
<path d="M6.31771 7.00824C5.58435 6.27488 2.46765 6.09157 1.45929 5.99988C1.36763 5.99988 1.27594 5.99988 1.18428 6.09153C1.09263 6.18323 1.00098 6.36658 1.00098 6.45823V14.7084C1.00098 14.9834 1.18433 15.1667 1.45933 15.1667H4.20937C4.39272 15.1667 4.57603 15.0751 4.66773 14.8917C4.66773 14.6167 6.31775 9.75828 6.5011 7.37494C6.50106 7.28324 6.50106 7.09994 6.31771 7.00824Z" fill="black"/>
<path d="M16.1267 9.20791C15.2101 8.9329 14.385 8.56624 13.6517 8.29124C12.0017 7.55788 11.2683 7.92458 9.80163 9.39126C9.15996 10.0329 8.70161 10.9496 8.79326 11.3163C8.79326 11.4079 8.79326 11.4079 8.97661 11.4996C9.43497 11.683 10.0766 11.7746 10.7183 10.7663C10.8099 10.6746 10.9016 10.5829 11.085 10.5829C11.36 10.5829 11.4516 10.4913 11.7266 10.3996C11.91 10.3079 12.0933 10.2162 12.3683 10.1246C12.4599 10.1246 12.4599 10.1246 12.5516 10.1246C12.6433 10.1246 12.8266 10.2162 12.9183 10.2162C13.3767 10.6746 14.2017 11.3163 15.0267 12.0496C16.3101 13.058 17.5934 14.158 18.2351 14.983H18.3268C17.6851 13.1497 16.5851 10.0329 16.1267 9.20791Z" fill="black"/>
<path d="M22.5426 6.9164C18.9676 6.9164 16.9509 7.83306 16.8592 7.83306C16.7675 7.92472 16.6758 8.01642 16.5842 8.10807C16.5842 8.19972 16.5842 8.38307 16.6758 8.47473C17.2258 9.39139 19.0592 14.4332 19.3342 15.7165C19.4259 15.8998 19.6092 16.0831 19.7926 16.0831H22.5426C22.8176 16.0831 23.001 15.8998 23.001 15.6248V7.37467C23.001 7.09975 22.8176 6.9164 22.5426 6.9164Z" fill="black"/>
<path d="M17.5926 15.9C17.2259 15.075 15.6675 13.8833 14.2925 12.7833C13.5592 12.1416 12.8258 11.5916 12.2758 11.1332C12.1842 11.2249 12.0008 11.2249 12.0008 11.3166C11.7258 11.4083 11.6342 11.4999 11.2675 11.4999C10.5341 12.4166 9.61744 12.7833 8.60912 12.4166C8.15077 12.325 7.87576 11.9583 7.78411 11.5916C7.60076 10.6749 8.42577 9.39157 9.06747 8.74991H7.2341C6.86744 10.5833 6.22574 12.9666 5.76743 14.25C6.13408 14.6166 6.50078 15.075 6.77579 15.2583C8.51747 16.725 10.5342 18.1917 10.9008 18.4667C11.1759 18.6501 11.7259 18.8334 12.0009 18.8334C12.0925 18.8334 12.1842 18.8334 12.2759 18.8334L10.8092 17.3667C10.6258 17.1833 10.6258 16.9083 10.8092 16.725C10.9925 16.5417 11.2675 16.5417 11.4508 16.725L13.2842 18.5584C13.4675 18.7417 13.6508 18.65 13.8342 18.65C14.1092 18.5584 14.2009 18.375 14.2926 18.1L12.1842 15.9917C12.0008 15.8083 12.0008 15.5333 12.1842 15.35C12.3675 15.1667 12.6425 15.1667 12.8258 15.35L15.1175 17.6417C15.2092 17.7333 15.5759 17.7333 15.8509 17.6417C15.9425 17.55 16.1259 17.4583 16.2175 17.275L13.6508 14.7083C13.4675 14.5249 13.4675 14.2499 13.6508 14.0666C13.8342 13.8833 14.1092 13.8833 14.2925 14.0666L16.9509 16.725C17.1342 16.8167 17.3176 16.725 17.5009 16.6334C17.5926 16.5417 17.7759 16.2667 17.5926 15.9Z" fill="black"/>
</svg>
