<svg xmlns="http://www.w3.org/2000/svg" width="25" height="24" viewBox="0 0 25 24" fill="none"><rect width="25" height="24" fill="none"/>
<path fill-rule="evenodd" clip-rule="evenodd" d="M12.0049 4.87669C11.6653 4.47836 11.2694 4.13055 10.8327 3.84044C9.86755 3.19933 8.70281 2.84003 7.50488 2.84003C4.42488 2.84003 2.00488 5.25739 2.00488 8.33403C2.00488 9.42722 2.26063 10.4653 2.69871 11.4529C4.05749 14.5189 7.17064 17.1062 9.85038 19.3332C10.6219 19.9744 11.3574 20.5857 12.0049 21.17C12.6523 20.5857 13.3879 19.9744 14.1594 19.3332C16.8391 17.1062 19.9522 14.519 21.311 11.4531C21.7491 10.4654 22.0049 9.42728 22.0049 8.33403C22.0049 5.25739 19.5849 2.84003 16.5049 2.84003C15.307 2.84003 14.1422 3.19933 13.1771 3.84044C12.7403 4.13055 12.3445 4.47836 12.0049 4.87669ZM12.0049 18.4917C12.3277 18.2193 12.6576 17.9446 12.9871 17.6703C13.2661 17.438 13.5448 17.2059 13.8185 16.9759C14.9139 16.0548 15.9862 15.1191 16.9358 14.1385C18.1109 12.9249 18.9842 11.7569 19.4927 10.604C19.8281 9.8428 20.0049 9.08885 20.0049 8.33403C20.0049 6.41901 18.5168 4.87669 16.5049 4.87669C15.3165 4.87669 14.2074 5.39984 13.5152 6.21185L12.0049 7.98346L10.4946 6.21185C9.80236 5.39984 8.69331 4.87669 7.50488 4.87669C5.49297 4.87669 4.00488 6.41901 4.00488 8.33403C4.00488 9.08885 4.18162 9.8428 4.51702 10.604C5.02558 11.7569 5.89891 12.9249 7.07398 14.1385C8.02352 15.1191 9.09583 16.0548 10.1913 16.9759C10.465 17.2059 10.7437 17.438 11.0227 17.6703C11.3522 17.9446 11.6821 18.2193 12.0049 18.4917Z" fill="black"/>
</svg>
