<svg xmlns="http://www.w3.org/2000/svg" width="24" height="24" viewBox="0 0 24 24" fill="none"><rect width="24" height="24" fill="none"/>
<path fill-rule="evenodd" clip-rule="evenodd" d="M12 5.53667C11.6604 5.13833 11.2646 4.79052 10.8278 4.50041C9.86267 3.85931 8.69792 3.5 7.5 3.5C4.42 3.5 2 5.91736 2 8.99401C2 10.0872 2.25574 11.1253 2.69383 12.1129C4.0526 15.1788 7.16576 17.7661 9.8455 19.9932C10.617 20.6344 11.3526 21.2457 12 21.83C12.6474 21.2457 13.383 20.6344 14.1545 19.9932C16.8342 17.7662 19.9473 15.1789 21.3061 12.1131C21.7442 11.1254 22 10.0873 22 8.99401C22 5.91736 19.58 3.5 16.5 3.5C15.3021 3.5 14.1373 3.85931 13.1722 4.50041C12.7354 4.79052 12.3396 5.13833 12 5.53667ZM12 19.1517C12.3228 18.8793 12.6527 18.6046 12.9822 18.3303C13.2612 18.0979 13.5399 17.8659 13.8136 17.6358C14.9091 16.7148 15.9814 15.7791 16.9309 14.7984C18.106 13.5849 18.9793 12.4169 19.4879 11.264C19.8233 10.5028 20 9.74883 20 8.99401C20 7.07898 18.5119 5.53667 16.5 5.53667C15.3116 5.53667 14.2025 6.05981 13.5103 6.87182L12 8.64344L10.4897 6.87182C9.79748 6.05981 8.68843 5.53667 7.5 5.53667C5.48808 5.53667 4 7.07898 4 8.99401C4 9.74883 4.17674 10.5028 4.51214 11.264C5.02069 12.4169 5.89402 13.5849 7.06909 14.7984C8.01864 15.7791 9.09095 16.7148 10.1864 17.6358C10.4601 17.8659 10.7388 18.0979 11.0178 18.3303C11.3473 18.6046 11.6772 18.8793 12 19.1517Z" fill="black"/>
</svg>
