<svg xmlns="http://www.w3.org/2000/svg" width="17" height="16" viewBox="0 0 17 16" fill="none"><rect width="17" height="16" fill="none"/>
<path fill-rule="evenodd" clip-rule="evenodd" d="M8.01139 3.24779C7.78501 2.98224 7.5211 2.75036 7.22994 2.55696C6.58651 2.12955 5.81001 1.89001 5.01139 1.89001C2.95806 1.89001 1.34473 3.50159 1.34473 5.55269C1.34473 6.28148 1.51522 6.97354 1.80728 7.63195C2.71313 9.67591 4.78857 11.4008 6.57506 12.8855C7.08939 13.3129 7.57977 13.7205 8.01139 14.11C8.44302 13.7205 8.9334 13.3129 9.44773 12.8855C11.2342 11.4008 13.3096 9.67597 14.2155 7.63206C14.5075 6.97362 14.6781 6.28152 14.6781 5.55269C14.6781 3.50159 13.0647 1.89001 11.0114 1.89001C10.2128 1.89001 9.43628 2.12955 8.79285 2.55696C8.50169 2.75036 8.23778 2.98224 8.01139 3.24779ZM8.01139 12.3245C8.22658 12.1429 8.44655 11.9597 8.66617 11.7769C8.85221 11.622 9.038 11.4673 9.22044 11.3139C9.95076 10.6999 10.6656 10.0761 11.2987 9.42231C12.082 8.61328 12.6643 7.83459 13.0033 7.06599C13.2269 6.55853 13.3447 6.0559 13.3447 5.55269C13.3447 4.276 12.3527 3.24779 11.0114 3.24779C10.2191 3.24779 9.47974 3.59656 9.01825 4.13789L8.01139 5.31897L7.00453 4.13789C6.54305 3.59656 5.80368 3.24779 5.01139 3.24779C3.67012 3.24779 2.67806 4.276 2.67806 5.55269C2.67806 6.0559 2.79589 6.55853 3.01948 7.06599C3.35852 7.83459 3.94074 8.61328 4.72412 9.42231C5.35715 10.0761 6.07203 10.6999 6.80235 11.3139C6.98478 11.4673 7.17058 11.622 7.35661 11.7769C7.57624 11.9597 7.79621 12.1429 8.01139 12.3245Z" fill="black"/>
</svg>
