<svg xmlns="http://www.w3.org/2000/svg" width="24" height="25" viewBox="0 0 24 25" fill="none"><rect width="24" height="25" fill="none"/>
<path d="M9.74994 2.53579L10.1249 8.72329M13.8749 8.72329L14.2499 2.53579M9.74994 21.4742L10.1249 15.2867M13.8749 15.2867L14.2499 21.4742M21.4687 9.75447L15.2812 10.1295M15.2812 13.8793L21.4687 14.2543M2.53121 9.75447L8.71871 10.1295M8.71871 13.8793L2.53121 14.2543M21.75 12.0049C21.75 17.3897 17.3848 21.7549 12 21.7549C6.61522 21.7549 2.25 17.3897 2.25 12.0049C2.25 6.6201 6.61522 2.25488 12 2.25488C17.3848 2.25488 21.75 6.6201 21.75 12.0049ZM15.7499 12.0048C15.7499 14.0759 14.071 15.7548 11.9999 15.7548C9.92883 15.7548 8.2499 14.0759 8.2499 12.0048C8.2499 9.93377 9.92883 8.25484 11.9999 8.25484C14.071 8.25484 15.7499 9.93377 15.7499 12.0048Z" stroke="black" stroke-width="1.5" stroke-linecap="round" stroke-linejoin="round"/>
</svg>
