<svg xmlns="http://www.w3.org/2000/svg" width="24" height="24" viewBox="0 0 24 24" fill="none"><rect width="24" height="24" fill="none"/>
<path d="M11.7167 4.16792C11.7772 4.12396 11.8588 4.12314 11.9201 4.16587L20.6223 10.2288C21.0198 10.5057 21.5665 10.408 21.8434 10.0105C22.1204 9.61299 22.0227 9.06625 21.6252 8.78931L12.923 2.72641C12.2484 2.2564 11.3501 2.26543 10.6851 2.74891L2.36241 8.79954C1.97057 9.08441 1.88385 9.633 2.16872 10.0249C2.4536 10.4167 3.00219 10.5034 3.39404 10.2185L11.7167 4.16792Z" fill="black"/>
<path fill-rule="evenodd" clip-rule="evenodd" d="M5.20736 11.925C5.20736 11.3983 5.45634 10.9025 5.87887 10.588L10.8395 6.89559C11.4168 6.46594 12.2045 6.45525 12.7932 6.86907L18.0863 10.59C18.5302 10.9021 18.7944 11.4108 18.7944 11.9535V19.9474C18.7944 20.8679 18.0482 21.6141 17.1278 21.6141H6.87402C5.95355 21.6141 5.20736 20.8679 5.20736 19.9474V11.925ZM12.7027 13.7199C12.7027 12.8478 13.4096 12.1409 14.2816 12.1409C15.1536 12.1409 15.8605 12.8478 15.8605 13.7199C15.8605 14.5919 15.1536 15.2988 14.2816 15.2988C13.4096 15.2988 12.7027 14.5919 12.7027 13.7199Z" fill="black"/>
</svg>
