<svg xmlns="http://www.w3.org/2000/svg" width="16" height="16" viewBox="0 0 16 16" fill="none"><rect width="16" height="16" fill="none"/>
<path d="M7.81064 2.77861C7.85095 2.74931 7.90539 2.74876 7.94628 2.77725L13.7477 6.81918C14.0127 7.0038 14.3772 6.93865 14.5618 6.67366C14.7464 6.40866 14.6813 6.04417 14.4163 5.85954L8.61487 1.81761C8.16513 1.50427 7.56624 1.51029 7.12289 1.83261L1.57445 5.86636C1.31322 6.05627 1.25541 6.422 1.44533 6.68323C1.63524 6.94447 2.00097 7.00228 2.2622 6.81236L7.81064 2.77861Z" fill="black"/>
<path fill-rule="evenodd" clip-rule="evenodd" d="M3.47108 7.94999C3.47108 7.59884 3.63707 7.26836 3.91876 7.05869L7.22588 4.59706C7.61069 4.31062 8.13587 4.3035 8.52832 4.57938L12.057 7.06003C12.353 7.26809 12.5291 7.60722 12.5291 7.96901V13.2983C12.5291 13.9119 12.0317 14.4094 11.418 14.4094H4.58219C3.96854 14.4094 3.47108 13.9119 3.47108 13.2983V7.94999ZM8.46795 9.14658C8.46795 8.56523 8.93923 8.09395 9.52058 8.09395C10.1019 8.09395 10.5732 8.56523 10.5732 9.14658C10.5732 9.72793 10.1019 10.1992 9.52058 10.1992C8.93923 10.1992 8.46795 9.72793 8.46795 9.14658Z" fill="black"/>
</svg>
