<svg xmlns="http://www.w3.org/2000/svg" width="17" height="17" viewBox="0 0 17 17" fill="none"><rect width="17" height="17" fill="none"/>
<path d="M7.81699 2.78197C7.85729 2.75267 7.91174 2.75212 7.95262 2.7806L13.754 6.82253C14.019 7.00716 14.3835 6.94201 14.5682 6.67701C14.7528 6.41202 14.6876 6.04752 14.4226 5.8629L8.62122 1.82097C8.17148 1.50762 7.57259 1.51364 7.12924 1.83596L1.5808 5.86971C1.31957 6.05963 1.26176 6.42536 1.45167 6.68659C1.64159 6.94782 2.00732 7.00563 2.26855 6.81572L7.81699 2.78197Z" fill="black"/>
<path fill-rule="evenodd" clip-rule="evenodd" d="M3.47743 7.95335C3.47743 7.6022 3.64342 7.27172 3.92511 7.06205L7.23222 4.60041C7.61704 4.31398 8.14222 4.30685 8.53466 4.58274L12.0634 7.06339C12.3593 7.27145 12.5355 7.61058 12.5355 7.97236V13.3017C12.5355 13.9153 12.038 14.4128 11.4244 14.4128H4.58854C3.97489 14.4128 3.47743 13.9153 3.47743 13.3017V7.95335ZM8.4743 9.14993C8.4743 8.56859 8.94558 8.09731 9.52692 8.09731C10.1083 8.09731 10.5795 8.56859 10.5795 9.14993C10.5795 9.73128 10.1083 10.2026 9.52692 10.2026C8.94558 10.2026 8.4743 9.73128 8.4743 9.14993Z" fill="black"/>
</svg>
