<svg xmlns="http://www.w3.org/2000/svg" width="24" height="24" viewBox="0 0 24 24" fill="none"><rect width="24" height="24" fill="none"/>
<path d="M11.6589 2.14549C11.7314 2.09275 11.8294 2.09176 11.903 2.14304L22.3455 9.41851C22.8225 9.75084 23.4786 9.63357 23.811 9.15658C24.1433 8.67958 24.026 8.02349 23.549 7.69117L13.1065 0.41569C12.2969 -0.148325 11.2189 -0.137488 10.4209 0.442687L0.433723 7.70344C-0.0364938 8.04529 -0.140555 8.7036 0.201296 9.17382C0.543147 9.64403 1.20146 9.74809 1.67167 9.40624L11.6589 2.14549Z" fill="black"/>
<path fill-rule="evenodd" clip-rule="evenodd" d="M3.84765 11.454C3.84765 10.8219 4.14644 10.227 4.65347 9.84964L10.6063 5.4187C11.2989 4.90312 12.2443 4.89029 12.9507 5.38688L19.3023 9.85205C19.8351 10.2266 20.1521 10.837 20.1521 11.4882V21.0809C20.1521 22.1855 19.2567 23.0809 18.1521 23.0809H5.84765C4.74308 23.0809 3.84765 22.1855 3.84765 21.0809V11.454ZM12.842 13.6078C12.842 12.5614 13.6903 11.7131 14.7367 11.7131C15.7832 11.7131 16.6315 12.5614 16.6315 13.6078C16.6315 14.6543 15.7832 15.5026 14.7367 15.5026C13.6903 15.5026 12.842 14.6543 12.842 13.6078Z" fill="black"/>
</svg>
