<svg xmlns="http://www.w3.org/2000/svg" width="24" height="25" viewBox="0 0 24 25" fill="none"><rect width="24" height="25" fill="none"/>
<path d="M11.7157 4.17292C11.7762 4.12897 11.8578 4.12815 11.9192 4.17088L20.6213 10.2338C21.0188 10.5107 21.5655 10.413 21.8425 10.0155C22.1194 9.61799 22.0217 9.07126 21.6242 8.79431L12.9221 2.73142C12.2474 2.26141 11.3491 2.27044 10.6841 2.75392L2.36144 8.80454C1.96959 9.08942 1.88287 9.63801 2.16775 10.0299C2.45262 10.4217 3.00121 10.5084 3.39306 10.2235L11.7157 4.17292Z" fill="black"/>
<path fill-rule="evenodd" clip-rule="evenodd" d="M5.20638 11.93C5.20638 11.4033 5.45537 10.9075 5.87789 10.593L10.8386 6.90059C11.4158 6.47094 12.2036 6.46025 12.7922 6.87408L18.0853 10.595C18.5292 10.9071 18.7934 11.4158 18.7934 11.9585V19.9525C18.7934 20.8729 18.0473 21.6191 17.1268 21.6191H6.87304C5.95257 21.6191 5.20638 20.8729 5.20638 19.9525V11.93ZM12.7017 13.7249C12.7017 12.8528 13.4086 12.1459 14.2806 12.1459C15.1526 12.1459 15.8596 12.8528 15.8596 13.7249C15.8596 14.5969 15.1526 15.3038 14.2806 15.3038C13.4086 15.3038 12.7017 14.5969 12.7017 13.7249Z" fill="black"/>
</svg>
