<svg xmlns="http://www.w3.org/2000/svg" width="24" height="24" viewBox="0 0 24 24" fill="none"><rect width="24" height="24" fill="none"/>
<path d="M18.761 20.7349L18.7611 20.7348C18.8229 20.7022 18.912 20.6424 18.9497 20.6101C18.9906 20.5749 19.0496 20.5054 19.1076 20.4176C19.1651 20.3306 19.2094 20.2443 19.2299 20.1838L19.2299 20.1837L19.2645 20.0821L19.2699 17.1294C19.2702 16.987 19.2705 16.8512 19.2707 16.7214C19.2734 15.3382 19.2747 14.6542 19.2611 14.2861C19.2537 14.0834 19.242 13.9942 19.2292 13.9427C19.2201 13.9063 19.2119 13.8899 19.1881 13.8427C19.182 13.8308 19.175 13.8169 19.1667 13.8001M18.761 20.7349L19.1667 13.8001M18.761 20.7349C18.6826 20.7762 18.6784 20.7849 18.6715 20.7887C18.6676 20.7908 18.6628 20.7913 18.6435 20.7952C18.5724 20.8096 18.4184 20.8221 18.0215 20.8297C17.3571 20.8426 16.0673 20.8425 13.4811 20.8421C13.0284 20.8421 12.5361 20.842 12.0004 20.842C11.4467 20.842 10.9392 20.8421 10.4741 20.8421C7.90973 20.8425 6.63102 20.8427 5.97158 20.8295C5.57532 20.8215 5.42302 20.8086 5.35277 20.7938C5.33285 20.7896 5.32786 20.7889 5.32376 20.7866C5.31641 20.7824 5.31194 20.7731 5.22905 20.7297C5.0269 20.6237 4.86303 20.4331 4.77068 20.1759L4.73636 20.0803L18.761 20.7349ZM19.1667 13.8001L19.3684 13.7003L5.37989 13.0905C5.52612 13.0512 5.82847 13.0507 5.97754 13.0895L5.92082 13.3072C5.92082 13.3072 5.92083 13.3072 5.92083 13.3072C6.16086 13.3698 6.39784 13.5574 6.50677 13.7659C6.52547 13.8017 6.53885 13.8259 6.54897 13.8443C6.56683 13.8767 6.57454 13.8907 6.58339 13.917C6.59487 13.951 6.6073 14.0099 6.61587 14.1608C6.63074 14.4226 6.63185 14.8984 6.63409 15.8689C6.63445 16.0247 6.63484 16.1931 6.63533 16.3755L6.64152 18.7241L6.64211 18.9485H6.86652H12.0004H17.1342H17.3586L17.3592 18.7241L17.3654 16.3755C17.3659 16.1932 17.3663 16.0248 17.3666 15.8691C17.3689 14.8984 17.37 14.4226 17.3849 14.1608C17.3934 14.0099 17.4059 13.951 17.4174 13.917C17.4262 13.8907 17.4339 13.8767 17.4518 13.8443C17.4619 13.8259 17.4753 13.8016 17.494 13.7659C17.6082 13.5473 17.8717 13.3482 18.1126 13.2982L18.0669 13.0779L18.1126 13.2982C18.1717 13.2859 18.2734 13.2812 18.3851 13.2883C18.4983 13.2956 18.5908 13.3132 18.6356 13.33C18.8694 13.4182 19.0645 13.5938 19.1667 13.8001ZM11.7586 3.17905L11.7586 3.17903C11.8014 3.16752 11.8899 3.15792 11.9953 3.15774C12.1003 3.15756 12.1903 3.1668 12.2352 3.1785L12.2919 2.96082L12.2352 3.1785C12.2815 3.19055 12.3608 3.22022 12.4065 3.24232C12.4089 3.2439 12.416 3.2485 12.43 3.25798C12.4517 3.27265 12.4825 3.29388 12.5223 3.32151C12.6017 3.37666 12.7146 3.45583 12.8564 3.55577C13.1399 3.75558 13.5378 4.0375 14.012 4.37436C14.9603 5.04804 16.2131 5.94096 17.4651 6.83517C18.7172 7.72937 19.9684 8.62474 20.9135 9.30331C21.386 9.64261 21.7819 9.92758 22.0631 10.1311C22.2037 10.2328 22.3153 10.314 22.3933 10.3713C22.4324 10.4 22.4625 10.4223 22.4834 10.438C22.4978 10.4488 22.5044 10.4541 22.5063 10.4555C22.6634 10.6108 22.7584 10.8216 22.7732 11.0647C22.7997 11.4995 22.5278 11.8952 22.1007 12.0315C21.9013 12.0951 21.6212 12.0726 21.4136 11.9705C21.411 11.9688 21.4054 11.9651 21.3958 11.9586C21.3777 11.9463 21.3517 11.9284 21.3179 11.905C21.2504 11.8582 21.154 11.7906 21.0314 11.7043C20.7864 11.5319 20.4386 11.2858 20.0135 10.984C19.1633 10.3806 18.0047 9.55541 16.7428 8.65405C15.4807 7.75253 14.3307 6.93293 13.4947 6.33867C13.0767 6.04156 12.737 5.80067 12.501 5.63401C12.383 5.55072 12.2907 5.48576 12.2273 5.44153C12.1957 5.41949 12.1707 5.40219 12.1532 5.39024L12.1304 5.37494C12.1275 5.37307 12.123 5.37016 12.1181 5.36724C12.1161 5.36601 12.1109 5.36291 12.1043 5.3595C12.1013 5.35794 12.0942 5.35437 12.0849 5.35062C12.0802 5.34877 12.0685 5.34471 12.0615 5.34261C12.0505 5.3398 12.0199 5.335 12.0004 5.33415C11.9808 5.335 11.9503 5.3398 11.9392 5.34261C11.9322 5.34471 11.9205 5.34877 11.9158 5.35062C11.9065 5.35437 11.8995 5.35794 11.8965 5.3595C11.8899 5.36291 11.8847 5.36601 11.8826 5.36724C11.8777 5.37016 11.8732 5.37307 11.8704 5.37494L11.8475 5.39024C11.83 5.40219 11.805 5.41949 11.7734 5.44153C11.7101 5.48576 11.6177 5.55072 11.4997 5.63401C11.2637 5.80067 10.9241 6.04156 10.5061 6.33867C9.67003 6.93293 8.52006 7.75253 7.25795 8.65405L7.36258 8.80052L7.25795 8.65405C5.99607 9.55541 4.83741 10.3806 3.98724 10.984C3.56212 11.2858 3.2143 11.5319 2.96933 11.7043C2.84679 11.7906 2.75031 11.8582 2.68286 11.905C2.64906 11.9284 2.62308 11.9463 2.60496 11.9586C2.59525 11.9651 2.58963 11.9688 2.58703 11.9705C2.30014 12.1125 1.96484 12.0996 1.68431 11.9331L1.6843 11.9331C1.62229 11.8963 1.54608 11.833 1.47504 11.7571C1.40343 11.6805 1.34988 11.6047 1.32361 11.5497L1.3236 11.5497C1.14416 11.1737 1.21557 10.7379 1.48839 10.4594L1.50948 10.4433C1.53015 10.4278 1.56003 10.4056 1.59891 10.377C1.67652 10.32 1.78779 10.2391 1.92818 10.1374C2.20886 9.93426 2.6046 9.64935 3.07729 9.30993C4.0226 8.63116 5.27495 7.73494 6.5285 6.83969C7.78204 5.94443 9.03663 5.05026 9.98644 4.37559C10.4614 4.03822 10.8599 3.75588 11.144 3.55575C11.2861 3.45565 11.3992 3.37636 11.4787 3.32113C11.5186 3.29345 11.5495 3.27219 11.5712 3.25751C11.5852 3.248 11.5923 3.24341 11.5947 3.24184C11.6421 3.2189 11.718 3.18996 11.7586 3.17905ZM22.5006 10.4498L22.5006 10.4499L22.5006 10.4498ZM1.48278 10.4639C1.48275 10.4639 1.48312 10.4636 1.48397 10.4629L1.48278 10.4639ZM11.5873 3.24549L11.5873 3.24547L11.5873 3.24549Z" fill="black" stroke="white" stroke-width="0.45"/>
</svg>
