<svg xmlns="http://www.w3.org/2000/svg" width="17" height="17" viewBox="0 0 17 17" fill="none"><rect width="17" height="17" fill="none"/>
<path d="M12.7357 3.2926C11.4765 2.03346 9.80238 1.34 8.02165 1.34C6.24092 1.34 4.56678 2.03346 3.30758 3.2926C2.04844 4.55179 1.35498 6.22593 1.35498 8.00666C1.35498 9.78739 2.04844 11.4615 3.30758 12.7207C4.56678 13.9799 6.24092 14.6733 8.02165 14.6733C9.80238 14.6733 11.4765 13.9799 12.7357 12.7207C13.9949 11.4615 14.6883 9.78739 14.6883 8.00666C14.6883 6.22593 13.9949 4.55179 12.7357 3.2926ZM8.02165 3.16291C8.81141 3.16291 9.45394 3.80544 9.45394 4.5952C9.45394 5.38497 8.81141 6.0275 8.02165 6.0275C7.23188 6.0275 6.58936 5.38497 6.58936 4.5952C6.58936 3.80544 7.23188 3.16291 8.02165 3.16291ZM9.84456 12.2775H6.19873V11.4962H6.97998V7.59H6.19873V6.80875H9.06331V11.4962H9.84456V12.2775Z" fill="black"/>
</svg>
