<svg xmlns="http://www.w3.org/2000/svg" width="16" height="16" viewBox="0 0 16 16" fill="none"><rect width="16" height="16" fill="none"/>
<path d="M12.714 3.28595C11.4548 2.02681 9.78065 1.33334 7.99992 1.33334C6.21919 1.33334 4.54505 2.02681 3.28586 3.28595C2.02672 4.54514 1.33325 6.21928 1.33325 8.00001C1.33325 9.78074 2.02672 11.4549 3.28586 12.7141C4.54505 13.9732 6.21919 14.6667 7.99992 14.6667C9.78065 14.6667 11.4548 13.9732 12.714 12.7141C13.9731 11.4549 14.6666 9.78074 14.6666 8.00001C14.6666 6.21928 13.9731 4.54514 12.714 3.28595ZM7.99992 3.15626C8.78968 3.15626 9.43221 3.79879 9.43221 4.58855C9.43221 5.37832 8.78968 6.02084 7.99992 6.02084C7.21015 6.02084 6.56763 5.37832 6.56763 4.58855C6.56763 3.79879 7.21015 3.15626 7.99992 3.15626ZM9.82284 12.2708H6.177V11.4896H6.95825V7.58334H6.177V6.80209H9.04159V11.4896H9.82284V12.2708Z" fill="black"/>
</svg>
