<svg xmlns="http://www.w3.org/2000/svg" width="24" height="24" viewBox="0 0 24 24" fill="none"><rect width="24" height="24" fill="none"/>
<path d="M19.0721 4.92891C17.1833 3.0402 14.6721 2 12.001 2C9.32988 2 6.81867 3.0402 4.92988 4.92891C3.04117 6.8177 2.00098 9.32891 2.00098 12C2.00098 14.6711 3.04117 17.1823 4.92988 19.0711C6.81867 20.9598 9.32988 22 12.001 22C14.6721 22 17.1833 20.9598 19.0721 19.0711C20.9608 17.1823 22.001 14.6711 22.001 12C22.001 9.32891 20.9608 6.8177 19.0721 4.92891ZM12.001 4.73437C13.1856 4.73437 14.1494 5.69816 14.1494 6.88281C14.1494 8.06746 13.1856 9.03125 12.001 9.03125C10.8163 9.03125 9.85254 8.06746 9.85254 6.88281C9.85254 5.69816 10.8163 4.73437 12.001 4.73437ZM14.7354 18.4062H9.2666V17.2344H10.4385V11.375H9.2666V10.2031H13.5635V17.2344H14.7354V18.4062Z" fill="black"/>
</svg>
