<svg xmlns="http://www.w3.org/2000/svg" width="25" height="24" viewBox="0 0 25 24" fill="none"><rect width="25" height="24" fill="none"/>
<path d="M19.076 4.92891C17.1872 3.0402 14.676 2 12.0049 2C9.33379 2 6.82258 3.0402 4.93379 4.92891C3.04508 6.8177 2.00488 9.32891 2.00488 12C2.00488 14.6711 3.04508 17.1823 4.93379 19.0711C6.82258 20.9598 9.33379 22 12.0049 22C14.676 22 17.1872 20.9598 19.076 19.0711C20.9647 17.1823 22.0049 14.6711 22.0049 12C22.0049 9.32891 20.9647 6.8177 19.076 4.92891ZM12.0049 4.73438C13.1895 4.73438 14.1533 5.69816 14.1533 6.88281C14.1533 8.06746 13.1895 9.03125 12.0049 9.03125C10.8202 9.03125 9.85645 8.06746 9.85645 6.88281C9.85645 5.69816 10.8202 4.73438 12.0049 4.73438ZM14.7393 18.4062H9.27051V17.2344H10.4424V11.375H9.27051V10.2031H13.5674V17.2344H14.7393V18.4062Z" fill="black"/>
</svg>
