<svg xmlns="http://www.w3.org/2000/svg" width="17" height="17" viewBox="0 0 17 17" fill="none"><rect width="17" height="17" fill="none"/>
<path fill-rule="evenodd" clip-rule="evenodd" d="M8.01139 4.67822C6.17056 4.67822 4.67806 6.17072 4.67806 8.01155C4.67806 9.85238 6.17056 11.3449 8.01139 11.3449C9.85223 11.3449 11.3447 9.85238 11.3447 8.01155C11.3447 6.17072 9.85223 4.67822 8.01139 4.67822ZM8.01139 10.0949C6.86306 10.0949 5.92806 9.15988 5.92806 8.01155C5.92806 6.86238 6.86306 5.92822 8.01139 5.92822C9.15973 5.92822 10.0947 6.86238 10.0947 8.01155C10.0947 9.15988 9.15973 10.0949 8.01139 10.0949Z" fill="black"/>
<path d="M12.0383 4.42817C12.0383 4.67348 11.8395 4.87234 11.5941 4.87234C11.3488 4.87234 11.15 4.67348 11.15 4.42817C11.15 4.18287 11.3488 3.98401 11.5941 3.98401C11.8395 3.98401 12.0383 4.18287 12.0383 4.42817Z" fill="black"/>
<path fill-rule="evenodd" clip-rule="evenodd" d="M10.5114 1.34488H5.51139C3.21056 1.34488 1.34473 3.21072 1.34473 5.51155V10.5115C1.34473 12.8124 3.21056 14.6782 5.51139 14.6782H10.5114C12.8122 14.6782 14.6781 12.8124 14.6781 10.5115V5.51155C14.6781 3.21072 12.8122 1.34488 10.5114 1.34488ZM13.4281 10.5115C13.4281 12.1199 12.1197 13.4282 10.5114 13.4282H5.51139C3.90306 13.4282 2.59473 12.1199 2.59473 10.5115V5.51155C2.59473 3.90322 3.90306 2.59488 5.51139 2.59488H10.5114C12.1197 2.59488 13.4281 3.90322 13.4281 5.51155V10.5115Z" fill="black"/>
</svg>
