<svg xmlns="http://www.w3.org/2000/svg" width="25" height="24" viewBox="0 0 25 24" fill="none"><rect width="25" height="24" fill="none"/>
<path fill-rule="evenodd" clip-rule="evenodd" d="M12.0049 7C9.24363 7 7.00488 9.23875 7.00488 12C7.00488 14.7613 9.24363 17 12.0049 17C14.7661 17 17.0049 14.7613 17.0049 12C17.0049 9.23875 14.7661 7 12.0049 7ZM12.0049 15.125C10.2824 15.125 8.87988 13.7225 8.87988 12C8.87988 10.2763 10.2824 8.875 12.0049 8.875C13.7274 8.875 15.1299 10.2763 15.1299 12C15.1299 13.7225 13.7274 15.125 12.0049 15.125Z" fill="black"/>
<path d="M18.0453 6.62494C18.0453 6.9929 17.747 7.29119 17.379 7.29119C17.0111 7.29119 16.7128 6.9929 16.7128 6.62494C16.7128 6.25698 17.0111 5.95869 17.379 5.95869C17.747 5.95869 18.0453 6.25698 18.0453 6.62494Z" fill="black"/>
<path fill-rule="evenodd" clip-rule="evenodd" d="M15.7549 2H8.25488C4.80363 2 2.00488 4.79875 2.00488 8.25V15.75C2.00488 19.2013 4.80363 22 8.25488 22H15.7549C19.2061 22 22.0049 19.2013 22.0049 15.75V8.25C22.0049 4.79875 19.2061 2 15.7549 2ZM20.1299 15.75C20.1299 18.1625 18.1674 20.125 15.7549 20.125H8.25488C5.84238 20.125 3.87988 18.1625 3.87988 15.75V8.25C3.87988 5.8375 5.84238 3.875 8.25488 3.875H15.7549C18.1674 3.875 20.1299 5.8375 20.1299 8.25V15.75Z" fill="black"/>
</svg>
