<svg xmlns="http://www.w3.org/2000/svg" width="24" height="24" viewBox="0 0 24 24" fill="none"><rect width="24" height="24" fill="none"/>
<path fill-rule="evenodd" clip-rule="evenodd" d="M12.001 7C9.23973 7 7.00098 9.23875 7.00098 12C7.00098 14.7613 9.23973 17 12.001 17C14.7622 17 17.001 14.7613 17.001 12C17.001 9.23875 14.7622 7 12.001 7ZM12.001 15.125C10.2785 15.125 8.87598 13.7225 8.87598 12C8.87598 10.2763 10.2785 8.875 12.001 8.875C13.7235 8.875 15.126 10.2763 15.126 12C15.126 13.7225 13.7235 15.125 12.001 15.125Z" fill="black"/>
<path d="M18.0414 6.62494C18.0414 6.9929 17.7431 7.29119 17.3751 7.29119C17.0071 7.29119 16.7089 6.9929 16.7089 6.62494C16.7089 6.25698 17.0071 5.95869 17.3751 5.95869C17.7431 5.95869 18.0414 6.25698 18.0414 6.62494Z" fill="black"/>
<path fill-rule="evenodd" clip-rule="evenodd" d="M15.751 2H8.25098C4.79973 2 2.00098 4.79875 2.00098 8.25V15.75C2.00098 19.2013 4.79973 22 8.25098 22H15.751C19.2022 22 22.001 19.2013 22.001 15.75V8.25C22.001 4.79875 19.2022 2 15.751 2ZM20.126 15.75C20.126 18.1625 18.1635 20.125 15.751 20.125H8.25098C5.83848 20.125 3.87598 18.1625 3.87598 15.75V8.25C3.87598 5.8375 5.83848 3.875 8.25098 3.875H15.751C18.1635 3.875 20.126 5.8375 20.126 8.25V15.75Z" fill="black"/>
</svg>
