<svg xmlns="http://www.w3.org/2000/svg" width="16" height="16" viewBox="0 0 16 16" fill="none"><rect width="16" height="16" fill="none"/>
<path fill-rule="evenodd" clip-rule="evenodd" d="M8.00016 4.66667C6.15933 4.66667 4.66683 6.15917 4.66683 8C4.66683 9.84083 6.15933 11.3333 8.00016 11.3333C9.841 11.3333 11.3335 9.84083 11.3335 8C11.3335 6.15917 9.841 4.66667 8.00016 4.66667ZM8.00016 10.0833C6.85183 10.0833 5.91683 9.14833 5.91683 8C5.91683 6.85083 6.85183 5.91667 8.00016 5.91667C9.1485 5.91667 10.0835 6.85083 10.0835 8C10.0835 9.14833 9.1485 10.0833 8.00016 10.0833Z" fill="black"/>
<path d="M12.0271 4.41662C12.0271 4.66193 11.8282 4.86079 11.5829 4.86079C11.3376 4.86079 11.1387 4.66193 11.1387 4.41662C11.1387 4.17132 11.3376 3.97246 11.5829 3.97246C11.8282 3.97246 12.0271 4.17132 12.0271 4.41662Z" fill="black"/>
<path fill-rule="evenodd" clip-rule="evenodd" d="M10.5002 1.33333H5.50016C3.19933 1.33333 1.3335 3.19917 1.3335 5.5V10.5C1.3335 12.8008 3.19933 14.6667 5.50016 14.6667H10.5002C12.801 14.6667 14.6668 12.8008 14.6668 10.5V5.5C14.6668 3.19917 12.801 1.33333 10.5002 1.33333ZM13.4168 10.5C13.4168 12.1083 12.1085 13.4167 10.5002 13.4167H5.50016C3.89183 13.4167 2.5835 12.1083 2.5835 10.5V5.5C2.5835 3.89167 3.89183 2.58333 5.50016 2.58333H10.5002C12.1085 2.58333 13.4168 3.89167 13.4168 5.5V10.5Z" fill="black"/>
</svg>
