<svg xmlns="http://www.w3.org/2000/svg" width="24" height="24" viewBox="0 0 24 24" fill="none"><rect width="24" height="24" fill="none"/>
<path d="M2.77147 5.32292C2.77147 4.01627 3.83071 2.95703 5.13736 2.95703H7.42429C8.73093 2.95703 9.79017 4.01628 9.79017 5.32292V8.04028C9.79017 9.34692 8.73093 10.4062 7.42429 10.4062H5.13736C3.83071 10.4062 2.77147 9.34692 2.77147 8.04028V5.32292Z" fill="black"/>
<path d="M13.8006 6.6816C13.8006 4.62458 15.5036 2.95703 17.5606 2.95703C19.6177 2.95703 21.3207 4.62458 21.3207 6.6816C21.3207 8.73862 19.6177 10.4062 17.5606 10.4062C15.5036 10.4062 13.8006 8.73862 13.8006 6.6816Z" fill="black"/>
<path d="M6.80718 14.5541C6.50293 14.0321 5.74874 14.0321 5.44449 14.5541L2.60945 19.4182C2.30302 19.944 2.68226 20.604 3.29079 20.604H8.96088C9.56941 20.604 9.94866 19.944 9.64223 19.4182L6.80718 14.5541Z" fill="black"/>
<path d="M13.9629 13.547C14.4227 13.0828 15.1717 13.0793 15.6358 13.5391L17.5589 15.444L19.4855 13.5357C19.9496 13.0759 20.6986 13.0795 21.1584 13.5436C21.6182 14.0078 21.6146 14.7568 21.1505 15.2165L19.2399 17.1091L21.1505 19.0017C21.6147 19.4615 21.6182 20.2105 21.1585 20.6747C20.6987 21.1388 19.9497 21.1424 19.4855 20.6826L17.5589 18.7742L15.6358 20.6792C15.1716 21.139 14.4226 21.1355 13.9628 20.6713C13.5031 20.2071 13.5066 19.4582 13.9708 18.9984L15.878 17.1091L13.9708 15.2199C13.5067 14.7601 13.5031 14.0111 13.9629 13.547Z" fill="black"/>
</svg>
