<svg xmlns="http://www.w3.org/2000/svg" width="17" height="16" viewBox="0 0 17 16" fill="none"><rect width="17" height="16" fill="none"/>
<path d="M1.84537 3.54723C1.84537 2.67613 2.55153 1.96997 3.42263 1.96997H4.94725C5.81834 1.96997 6.5245 2.67613 6.5245 3.54723V5.3588C6.5245 6.2299 5.81834 6.93606 4.94724 6.93606H3.42262C2.55153 6.93606 1.84537 6.2299 1.84537 5.3588V3.54723Z" fill="black"/>
<path d="M9.19813 4.45301C9.19813 3.08167 10.3335 1.96997 11.7048 1.96997C13.0762 1.96997 14.2115 3.08167 14.2115 4.45301C14.2115 5.82436 13.0762 6.93606 11.7048 6.93606C10.3335 6.93606 9.19813 5.82436 9.19813 4.45301Z" fill="black"/>
<path d="M4.53584 9.70136C4.33301 9.35335 3.83022 9.35335 3.62738 9.70136L1.73735 12.9441C1.53307 13.2946 1.7859 13.7346 2.19158 13.7346H5.97164C6.37733 13.7346 6.63016 13.2946 6.42587 12.9441L4.53584 9.70136Z" fill="black"/>
<path d="M9.30633 9.02993C9.61285 8.7205 10.1122 8.71813 10.4216 9.02465L11.7037 10.2946L12.988 9.02241C13.2975 8.71589 13.7968 8.71826 14.1033 9.02769C14.4098 9.33712 14.4075 9.83645 14.098 10.143L12.8243 11.4047L14.0981 12.6664C14.4075 12.973 14.4099 13.4723 14.1034 13.7817C13.7968 14.0912 13.2975 14.0935 12.9881 13.787L11.7037 12.5147L10.4216 13.7848C10.1121 14.0913 9.61279 14.0889 9.30628 13.7795C8.99976 13.47 9.00213 12.9707 9.31156 12.6642L10.5831 11.4047L9.31161 10.1452C9.00218 9.8387 8.99981 9.33937 9.30633 9.02993Z" fill="black"/>
</svg>
