<svg xmlns="http://www.w3.org/2000/svg" width="16" height="16" viewBox="0 0 16 16" fill="none"><rect width="16" height="16" fill="none"/>
<path d="M1.84683 3.54857C1.84683 2.67748 2.55299 1.97131 3.42409 1.97131H4.94871C5.81981 1.97131 6.52597 2.67748 6.52597 3.54857V5.36014C6.52597 6.23124 5.8198 6.9374 4.94871 6.9374H3.42409C2.55299 6.9374 1.84683 6.23124 1.84683 5.36014V3.54857Z" fill="black"/>
<path d="M9.19959 4.45436C9.19959 3.08301 10.3349 1.97131 11.7063 1.97131C13.0776 1.97131 14.213 3.08301 14.213 4.45436C14.213 5.8257 13.0776 6.9374 11.7063 6.9374C10.3349 6.9374 9.19959 5.8257 9.19959 4.45436Z" fill="black"/>
<path d="M4.53731 9.7027C4.33447 9.35469 3.83168 9.35469 3.62885 9.7027L1.73882 12.9455C1.53453 13.296 1.78736 13.736 2.19305 13.736H5.97311C6.37879 13.736 6.63162 13.296 6.42734 12.9455L4.53731 9.7027Z" fill="black"/>
<path d="M9.3078 9.03128C9.61431 8.72184 10.1136 8.71948 10.4231 9.02599L11.7051 10.296L12.9895 9.02375C13.2989 8.71723 13.7983 8.7196 14.1048 9.02903C14.4113 9.33847 14.4089 9.83779 14.0995 10.1443L12.8258 11.406L14.0995 12.6678C14.409 12.9743 14.4113 13.4736 14.1048 13.7831C13.7983 14.0925 13.299 14.0949 12.9895 13.7884L11.7051 12.5161L10.423 13.7861C10.1136 14.0926 9.61426 14.0903 9.30774 13.7808C9.00123 13.4714 9.00359 12.9721 9.31303 12.6655L10.5845 11.406L9.31308 10.1466C9.00364 9.84004 9.00128 9.34071 9.3078 9.03128Z" fill="black"/>
</svg>
