<svg xmlns="http://www.w3.org/2000/svg" width="24" height="25" viewBox="0 0 24 25" fill="none"><rect width="24" height="25" fill="none"/>
<path d="M2.77049 5.33085C2.77049 4.02421 3.82974 2.96497 5.13638 2.96497H7.42331C8.72995 2.96497 9.7892 4.02421 9.7892 5.33085V8.04821C9.7892 9.35486 8.72995 10.4141 7.42331 10.4141H5.13638C3.82974 10.4141 2.77049 9.35485 2.77049 8.04821V5.33085Z" fill="black"/>
<path d="M13.7996 6.68953C13.7996 4.63251 15.5026 2.96497 17.5597 2.96497C19.6167 2.96497 21.3197 4.63251 21.3197 6.68953C21.3197 8.74655 19.6167 10.4141 17.5597 10.4141C15.5026 10.4141 13.7996 8.74655 13.7996 6.68953Z" fill="black"/>
<path d="M6.80621 14.562C6.50195 14.04 5.74777 14.04 5.44352 14.562L2.60847 19.4262C2.30204 19.9519 2.68129 20.6119 3.28982 20.6119H8.95991C9.56844 20.6119 9.94768 19.9519 9.64125 19.4262L6.80621 14.562Z" fill="black"/>
<path d="M13.9619 13.5549C14.4217 13.0908 15.1707 13.0872 15.6349 13.547L17.558 15.452L19.4845 13.5436C19.9486 13.0838 20.6976 13.0874 21.1574 13.5515C21.6172 14.0157 21.6136 14.7647 21.1495 15.2245L19.2389 17.117L21.1496 19.0097C21.6137 19.4695 21.6173 20.2184 21.1575 20.6826C20.6977 21.1468 19.9487 21.1503 19.4846 20.6905L17.558 18.7821L15.6348 20.6872C15.1706 21.1469 14.4216 21.1434 13.9619 20.6792C13.5021 20.2151 13.5056 19.4661 13.9698 19.0063L15.8771 17.117L13.9699 15.2278C13.5057 14.7681 13.5022 14.0191 13.9619 13.5549Z" fill="black"/>
</svg>
