<svg xmlns="http://www.w3.org/2000/svg" width="25" height="24" viewBox="0 0 25 24" fill="none"><rect width="25" height="24" fill="none"/>
<path d="M0.461155 3.5C0.461155 1.84314 1.8043 0.5 3.46116 0.5H6.36104C8.01789 0.5 9.36104 1.84315 9.36104 3.5V6.94567C9.36104 8.60253 8.01789 9.94567 6.36104 9.94567H3.46115C1.8043 9.94567 0.461155 8.60253 0.461155 6.94567V3.5Z" fill="black"/>
<path d="M14.4464 5.22284C14.4464 2.61449 16.6058 0.5 19.2142 0.5C21.8225 0.5 23.982 2.61449 23.982 5.22284C23.982 7.83119 21.8225 9.94567 19.2142 9.94567C16.6058 9.94567 14.4464 7.83119 14.4464 5.22284Z" fill="black"/>
<path d="M5.57854 15.2054C5.19274 14.5434 4.23641 14.5434 3.85061 15.2054L0.255707 21.3732C-0.132853 22.0399 0.348041 22.8768 1.11967 22.8768H8.30948C9.08111 22.8768 9.562 22.0399 9.17344 21.3732L5.57854 15.2054Z" fill="black"/>
<path d="M14.6522 13.9283C15.2352 13.3397 16.1849 13.3352 16.7735 13.9183L19.212 16.3338L21.6549 13.914C22.2434 13.331 23.1932 13.3355 23.7762 13.924C24.3592 14.5126 24.3547 15.4623 23.7661 16.0453L21.3435 18.4452L23.7662 20.8451C24.3548 21.4281 24.3593 22.3778 23.7763 22.9664C23.1933 23.5549 22.2435 23.5594 21.655 22.9764L19.212 20.5565L16.7734 22.9722C16.1848 23.5552 15.2351 23.5507 14.6521 22.9621C14.0691 22.3736 14.0736 21.4238 14.6621 20.8408L17.0806 18.4452L14.6622 16.0496C14.0737 15.4666 14.0692 14.5169 14.6522 13.9283Z" fill="black"/>
</svg>
