<svg xmlns="http://www.w3.org/2000/svg" width="16" height="16" viewBox="0 0 16 16" fill="none"><rect width="16" height="16" fill="none"/>
<path d="M2.83379 1.33337L14.3842 12.8845C14.5645 13.0646 14.6658 13.309 14.6659 13.5639C14.6659 13.8188 14.5647 14.0632 14.3846 14.2435C14.2044 14.4237 13.96 14.525 13.7051 14.5251C13.4503 14.5251 13.2058 14.424 13.0255 14.2438L10.0814 11.299L7.81628 13.5635L5.17706 10.9243V12.6026C5.17706 12.7725 5.10957 12.9354 4.98944 13.0556C4.8693 13.1757 4.70637 13.2432 4.53647 13.2432C4.36658 13.2432 4.20364 13.1757 4.08351 13.0556C3.96338 12.9354 3.89588 12.7725 3.89588 12.6026V10.0402C3.8957 9.87697 3.83318 9.71993 3.7211 9.60121C3.60902 9.48248 3.45583 9.41104 3.29284 9.40147C3.12985 9.3919 2.96935 9.44493 2.84415 9.54973C2.71894 9.65452 2.63848 9.80317 2.61919 9.9653L2.61471 10.0402V10.6808C2.61471 10.8507 2.54722 11.0137 2.42708 11.1338C2.30695 11.2539 2.14402 11.3214 1.97412 11.3214C1.80423 11.3214 1.64129 11.2539 1.52116 11.1338C1.40102 11.0137 1.33353 10.8507 1.33353 10.6808V5.05263C1.30692 3.71565 1.80553 2.42153 2.72233 1.44804L2.83379 1.33337ZM2.98817 3.29998L2.9555 3.37044C2.76311 3.79545 2.6498 4.25196 2.62111 4.7176L2.61471 4.91554L2.61407 4.99241C2.62178 5.94311 2.9825 6.85702 3.6262 7.55669L3.73958 7.6752L7.81564 11.7513L9.62787 9.93967L2.98817 3.29998Z" fill="black"/>
</svg>
