<svg xmlns="http://www.w3.org/2000/svg" width="24" height="25" viewBox="0 0 24 25" fill="none"><rect width="24" height="25" fill="none"/>
<path d="M4.25191 2.10498L21.5776 19.4316C21.848 19.7019 21.9999 20.0685 22 20.4508C22.0001 20.8331 21.8483 21.1997 21.5781 21.4701C21.3078 21.7405 20.9412 21.8925 20.5589 21.8925C20.1766 21.8926 19.8099 21.7409 19.5395 21.4706L15.1233 17.0534L11.7256 20.4501L7.76681 16.4913V19.0088C7.76681 19.2637 7.66558 19.5081 7.48538 19.6883C7.30518 19.8685 7.06077 19.9697 6.80593 19.9697C6.55109 19.9697 6.30668 19.8685 6.12648 19.6883C5.94628 19.5081 5.84505 19.2637 5.84505 19.0088V15.1653C5.84478 14.9204 5.751 14.6848 5.58287 14.5067C5.41475 14.3286 5.18497 14.2215 4.94048 14.2071C4.69599 14.1928 4.45525 14.2723 4.26744 14.4295C4.07963 14.5867 3.95894 14.8097 3.93001 15.0529L3.92328 15.1653V16.1262C3.92328 16.381 3.82205 16.6254 3.64185 16.8056C3.46165 16.9858 3.21724 17.0871 2.9624 17.0871C2.70756 17.0871 2.46316 16.9858 2.28296 16.8056C2.10275 16.6254 2.00152 16.381 2.00152 16.1262V7.68386C1.9616 5.6784 2.70951 3.73722 4.08471 2.27698L4.25191 2.10498ZM4.48348 5.05489L4.43447 5.16059C4.14589 5.79809 3.97592 6.48286 3.93289 7.18132L3.92328 7.47823L3.92232 7.59354C3.93388 9.01958 4.47497 10.3904 5.44052 11.4399L5.61059 11.6177L11.7247 17.7318L14.443 15.0144L4.48348 5.05489Z" fill="black"/>
</svg>
