<svg xmlns="http://www.w3.org/2000/svg" width="17" height="17" viewBox="0 0 17 17" fill="none"><rect width="17" height="17" fill="none"/>
<path d="M2.846 1.40997L14.3964 12.9611C14.5767 13.1412 14.678 13.3856 14.6781 13.6405C14.6781 13.8954 14.5769 14.1398 14.3968 14.3201C14.2166 14.5003 13.9722 14.6016 13.7173 14.6017C13.4625 14.6017 13.218 14.5006 13.0378 14.3204L10.0936 11.3756L7.82849 13.6401L5.18927 11.0009V12.6792C5.18927 12.8491 5.12178 13.012 5.00164 13.1322C4.88151 13.2523 4.71857 13.3198 4.54868 13.3198C4.37879 13.3198 4.21585 13.2523 4.09572 13.1322C3.97558 13.012 3.90809 12.8491 3.90809 12.6792V10.1168C3.90791 9.95357 3.84539 9.79653 3.73331 9.67781C3.62123 9.55908 3.46804 9.48764 3.30505 9.47807C3.14205 9.4685 2.98156 9.52153 2.85635 9.62632C2.73115 9.73112 2.65068 9.87977 2.6314 10.0419L2.62692 10.1168V10.7574C2.62692 10.9273 2.55943 11.0903 2.43929 11.2104C2.31916 11.3305 2.15622 11.398 1.98633 11.398C1.81643 11.398 1.6535 11.3305 1.53336 11.2104C1.41323 11.0903 1.34574 10.9273 1.34574 10.7574V5.12923C1.31913 3.79225 1.81773 2.49813 2.73453 1.52464L2.846 1.40997ZM3.00038 3.37658L2.96771 3.44704C2.77532 3.87205 2.662 4.32856 2.63332 4.7942L2.62692 4.99214L2.62628 5.06901C2.63398 6.01971 2.99471 6.93362 3.6384 7.63329L3.75179 7.75179L7.82785 11.8279L9.64007 10.0163L3.00038 3.37658Z" fill="black"/>
</svg>
