<svg xmlns="http://www.w3.org/2000/svg" width="24" height="24" viewBox="0 0 24 24" fill="none"><rect width="24" height="24" fill="none"/>
<path d="M4.25142 2L21.5771 19.3266C21.8475 19.5969 21.9994 19.9635 21.9995 20.3458C21.9996 20.7281 21.8478 21.0947 21.5776 21.3651C21.3073 21.6355 20.9407 21.7875 20.5584 21.7876C20.1761 21.7877 19.8094 21.6359 19.5391 21.3656L15.1228 16.9484L11.7252 20.3452L7.76632 16.3863V18.9038C7.76632 19.1587 7.66509 19.4031 7.48489 19.5833C7.30469 19.7635 7.06028 19.8647 6.80544 19.8647C6.5506 19.8647 6.3062 19.7635 6.126 19.5833C5.9458 19.4031 5.84456 19.1587 5.84456 18.9038V15.0603C5.84429 14.8154 5.75051 14.5798 5.58238 14.4018C5.41426 14.2237 5.18448 14.1165 4.93999 14.1021C4.6955 14.0878 4.45476 14.1673 4.26695 14.3245C4.07914 14.4817 3.95845 14.7047 3.92952 14.9479L3.9228 15.0603V16.0212C3.9228 16.276 3.82156 16.5204 3.64136 16.7006C3.46116 16.8808 3.21676 16.9821 2.96191 16.9821C2.70707 16.9821 2.46267 16.8808 2.28247 16.7006C2.10227 16.5204 2.00103 16.276 2.00103 16.0212V7.57888C1.96111 5.57342 2.70902 3.63224 4.08422 2.172L4.25142 2ZM4.48299 4.94991L4.43398 5.0556C4.1454 5.69311 3.97543 6.37788 3.9324 7.07634L3.9228 7.37325L3.92183 7.48856C3.9334 8.9146 4.47448 10.2855 5.44003 11.335L5.6101 11.5127L11.7242 17.6268L14.4425 14.9095L4.48299 4.94991Z" fill="black"/>
</svg>
