<svg xmlns="http://www.w3.org/2000/svg" width="24" height="24" viewBox="0 0 24 24" fill="none"><rect width="24" height="24" fill="none"/>
<path fill-rule="evenodd" clip-rule="evenodd" d="M13.5792 2.167C11.3579 1.69326 9.08395 2.24069 7.35746 3.64083C5.62044 5.0515 4.63086 7.13593 4.63086 9.36774C4.63086 11.6417 5.66254 13.7471 7.44168 15.1578C8.16803 15.7263 8.64175 16.4631 8.78916 17.2632V17.2732C8.78917 17.2732 8.78918 17.2732 8.78918 17.2732V17.2738C8.81024 17.2633 8.82077 17.2633 8.84182 17.2633H15.1583C15.1793 17.2633 15.2109 17.2633 15.232 17.2738V17.2732L15.232 17.2732V17.2631C15.3794 16.4315 15.811 15.7157 16.4321 15.2526C18.7271 13.5155 19.8008 10.6731 19.2113 7.80969C18.6323 5.01992 16.3689 2.746 13.5792 2.167ZM8.84182 9.10456C8.84182 9.53618 8.48389 9.89411 8.05227 9.89411C7.62064 9.89411 7.26271 9.53618 7.26271 9.10456C7.26271 6.64114 9.27344 4.63041 11.7369 4.63041C12.1685 4.63041 12.5264 4.98834 12.5264 5.41996C12.5264 5.85159 12.1685 6.20952 11.7369 6.20952C10.1367 6.20952 8.84182 7.50439 8.84182 9.10456ZM8.84169 20.1578L8.84169 18.8419H15.1581V19.8525C15.1581 21.3263 14.2001 22.0001 13.3158 22.0001H10.684C9.67335 22.0001 8.84169 21.1684 8.84169 20.1578Z" fill="black"/>
</svg>
