<svg xmlns="http://www.w3.org/2000/svg" width="24" height="24" viewBox="0 0 24 24" fill="none"><rect width="24" height="24" fill="none"/>
<path fill-rule="evenodd" clip-rule="evenodd" d="M13.8942 0.200394C11.2287 -0.368086 8.49996 0.288823 6.42816 1.969C4.34374 3.6618 3.15625 6.16311 3.15625 8.84128C3.15625 11.57 4.39427 14.0966 6.52923 15.7894C7.40086 16.4715 7.96932 17.3558 8.14621 18.3158V18.3279C8.14622 18.3279 8.14623 18.3279 8.14623 18.3279V18.3286C8.1715 18.3159 8.18413 18.3159 8.2094 18.3159H15.7891C15.8144 18.3159 15.8523 18.3159 15.8776 18.3286V18.3279L15.8776 18.3279V18.3158C16.0544 17.3179 16.5724 16.4589 17.3177 15.9031C20.0717 13.8186 21.3602 10.4078 20.6528 6.97162C19.958 3.6239 17.2419 0.895202 13.8942 0.200394ZM8.2094 8.52546C8.2094 9.04341 7.77988 9.47293 7.26193 9.47293C6.74399 9.47293 6.31447 9.04341 6.31447 8.52546C6.31447 5.56937 8.72735 3.15649 11.6834 3.15649C12.2014 3.15649 12.6309 3.58601 12.6309 4.10395C12.6309 4.6219 12.2014 5.05142 11.6834 5.05142C9.76324 5.05142 8.2094 6.60526 8.2094 8.52546ZM8.20944 21.7892V20.2101H15.7892V21.4229C15.7892 23.1915 14.6396 24 13.5784 24H10.4202C9.20744 24 8.20944 23.002 8.20944 21.7892Z" fill="black"/>
</svg>
