<svg xmlns="http://www.w3.org/2000/svg" width="17" height="17" viewBox="0 0 17 17" fill="none"><rect width="17" height="17" fill="none"/>
<path fill-rule="evenodd" clip-rule="evenodd" d="M9.05049 1.45136C7.56963 1.13553 6.05369 1.50048 4.90269 2.43391C3.74468 3.37436 3.08496 4.76398 3.08496 6.25185C3.08496 7.7678 3.77275 9.17146 4.95884 10.1119C5.44309 10.4909 5.75891 10.9822 5.85717 11.5155V11.5222L5.85718 11.5226C5.87121 11.5156 5.87823 11.5156 5.89227 11.5156H10.1032C10.1173 11.5156 10.1383 11.5156 10.1524 11.5226V11.5156C10.2506 10.9611 10.5384 10.4839 10.9524 10.1751C12.4824 9.01706 13.1983 7.12212 12.8053 5.21315C12.4193 3.35331 10.9103 1.83736 9.05049 1.45136ZM5.89227 6.0764C5.89227 6.36415 5.65365 6.60277 5.3659 6.60277C5.07815 6.60277 4.83953 6.36415 4.83953 6.0764C4.83953 4.43412 6.18002 3.09363 7.82229 3.09363C8.11004 3.09363 8.34866 3.33225 8.34866 3.62C8.34866 3.90775 8.11004 4.14637 7.82229 4.14637C6.75552 4.14637 5.89227 5.00962 5.89227 6.0764ZM5.89216 13.4452L5.89216 12.5679H10.1031V13.2417C10.1031 14.2243 9.46446 14.6734 8.87493 14.6734H7.12036C6.44661 14.6734 5.89216 14.119 5.89216 13.4452Z" fill="black"/>
</svg>
