<svg xmlns="http://www.w3.org/2000/svg" width="24" height="25" viewBox="0 0 24 25" fill="none"><rect width="24" height="25" fill="none"/>
<path fill-rule="evenodd" clip-rule="evenodd" d="M13.5782 2.172C11.3569 1.69827 9.08297 2.24569 7.35648 3.64584C5.61946 5.05651 4.62988 7.14094 4.62988 9.37275C4.62988 11.6467 5.66157 13.7521 7.4407 15.1628C8.16705 15.7313 8.64078 16.4681 8.78818 17.2682V17.2782C8.78819 17.2782 8.7882 17.2782 8.78821 17.2782V17.2788C8.80926 17.2683 8.81979 17.2683 8.84084 17.2683H15.1573C15.1783 17.2683 15.2099 17.2683 15.231 17.2788V17.2782L15.231 17.2782V17.2681C15.3784 16.4365 15.81 15.7207 16.4311 15.2576C18.7261 13.5205 19.7999 10.6781 19.2103 7.81469C18.6313 5.02493 16.3679 2.75101 13.5782 2.172ZM8.84084 9.10956C8.84084 9.54119 8.48291 9.89912 8.05129 9.89912C7.61967 9.89912 7.26173 9.54119 7.26173 9.10956C7.26173 6.64615 9.27247 4.63541 11.7359 4.63541C12.1675 4.63541 12.5254 4.99335 12.5254 5.42497C12.5254 5.85659 12.1675 6.21453 11.7359 6.21452C10.1357 6.21452 8.84084 7.5094 8.84084 9.10956ZM8.84071 20.1628L8.84071 18.8469H15.1572V19.8575C15.1572 21.3313 14.1992 22.0051 13.3149 22.0051H10.683C9.67237 22.0051 8.84071 21.1734 8.84071 20.1628Z" fill="black"/>
</svg>
