<svg xmlns="http://www.w3.org/2000/svg" width="16" height="16" viewBox="0 0 16 16" fill="none"><rect width="16" height="16" fill="none"/>
<path fill-rule="evenodd" clip-rule="evenodd" d="M9.05244 1.4447C7.57159 1.12888 6.05564 1.49383 4.90465 2.42726C3.74663 3.36771 3.08691 4.75733 3.08691 6.2452C3.08691 7.76115 3.7747 9.1648 4.96079 10.1053C5.44504 10.4842 5.76086 10.9755 5.85912 11.5089V11.5155L5.85913 11.5159C5.87317 11.5089 5.88018 11.5089 5.89422 11.5089H10.1052C10.1192 11.5089 10.1403 11.5089 10.1543 11.5159V11.5089C10.2526 10.9545 10.5403 10.4772 10.9544 10.1684C12.4844 9.0104 13.2002 7.11547 12.8072 5.2065C12.4212 3.34666 10.9123 1.83071 9.05244 1.4447ZM5.89422 6.06975C5.89422 6.35749 5.6556 6.59612 5.36785 6.59612C5.0801 6.59612 4.84148 6.35749 4.84148 6.06975C4.84148 4.42747 6.18197 3.08698 7.82424 3.08698C8.11199 3.08698 8.35062 3.3256 8.35062 3.61335C8.35062 3.9011 8.11199 4.13972 7.82424 4.13972C6.75747 4.13972 5.89422 5.00297 5.89422 6.06975ZM5.89412 13.4386L5.89412 12.5613H10.1051V13.2351C10.1051 14.2176 9.46641 14.6668 8.87688 14.6668H7.12231C6.44856 14.6668 5.89412 14.1123 5.89412 13.4386Z" fill="black"/>
</svg>
