<svg xmlns="http://www.w3.org/2000/svg" width="17" height="17" viewBox="0 0 17 17" fill="none"><rect width="17" height="17" fill="none"/>
<path fill-rule="evenodd" clip-rule="evenodd" d="M8.02165 1.34C4.34095 1.34 1.35498 4.32597 1.35498 8.00666C1.35498 11.6874 4.34095 14.6733 8.02165 14.6733C11.7023 14.6733 14.6883 11.6874 14.6883 8.00666C14.6883 4.32597 11.7023 1.34 8.02165 1.34ZM8.02152 13.3373C5.08231 13.3373 2.69086 10.9459 2.69086 8.00669C2.69086 5.06748 5.08231 2.67603 8.02152 2.67603C10.9607 2.67603 13.3522 5.06748 13.3522 8.00669C13.3522 10.9459 10.9607 13.3373 8.02152 13.3373ZM5.51649 9.00865L8.5225 3.33062V7.00464H10.5265L7.61402 12.6827V9.00865H5.51649Z" fill="black"/>
</svg>
