<svg xmlns="http://www.w3.org/2000/svg" width="16" height="16" viewBox="0 0 16 16" fill="none"><rect width="16" height="16" fill="none"/>
<path fill-rule="evenodd" clip-rule="evenodd" d="M7.99992 1.33334C4.31922 1.33334 1.33325 4.31932 1.33325 8.00001C1.33325 11.6807 4.31922 14.6667 7.99992 14.6667C11.6806 14.6667 14.6666 11.6807 14.6666 8.00001C14.6666 4.31932 11.6806 1.33334 7.99992 1.33334ZM7.99979 13.3307C5.06058 13.3307 2.66913 10.9392 2.66913 8.00003C2.66913 5.06082 5.06058 2.66937 7.99979 2.66937C10.939 2.66937 13.3305 5.06082 13.3305 8.00003C13.3305 10.9392 10.939 13.3307 7.99979 13.3307ZM5.49476 9.002L8.50077 3.32397V6.99799H10.5048L7.59229 12.676V9.002H5.49476Z" fill="black"/>
</svg>
