<svg xmlns="http://www.w3.org/2000/svg" width="25" height="24" viewBox="0 0 25 24" fill="none"><rect width="25" height="24" fill="none"/>
<path fill-rule="evenodd" clip-rule="evenodd" d="M12.0049 2C6.48384 2 2.00488 6.47896 2.00488 12C2.00488 17.521 6.48384 22 12.0049 22C17.5259 22 22.0049 17.521 22.0049 12C22.0049 6.47896 17.5259 2 12.0049 2ZM12.0047 19.996C7.59588 19.996 4.0087 16.4089 4.0087 12C4.0087 7.59122 7.59588 4.00404 12.0047 4.00404C16.4135 4.00404 20.0007 7.59122 20.0007 12C20.0007 16.4089 16.4135 19.996 12.0047 19.996ZM8.24715 13.503L12.7562 4.98594V10.497H15.7622L11.3934 19.014V13.503H8.24715Z" fill="black"/>
</svg>
