<svg xmlns="http://www.w3.org/2000/svg" width="24" height="24" viewBox="0 0 24 24" fill="none"><rect width="24" height="24" fill="none"/>
<path fill-rule="evenodd" clip-rule="evenodd" d="M12.001 2C6.47993 2 2.00098 6.47896 2.00098 12C2.00098 17.521 6.47993 22 12.001 22C17.522 22 22.001 17.521 22.001 12C22.001 6.47896 17.522 2 12.001 2ZM12.0008 19.996C7.59197 19.996 4.0048 16.4089 4.0048 12C4.0048 7.59122 7.59197 4.00404 12.0008 4.00404C16.4096 4.00404 19.9968 7.59122 19.9968 12C19.9968 16.4089 16.4096 19.996 12.0008 19.996ZM8.24324 13.503L12.7523 4.98594V10.497H15.7583L11.3895 19.014V13.503H8.24324Z" fill="black"/>
</svg>
