<svg xmlns="http://www.w3.org/2000/svg" width="25" height="25" viewBox="0 0 25 25" fill="none"><rect width="25" height="25" fill="none"/>
<path fill-rule="evenodd" clip-rule="evenodd" d="M11.5168 5.99717H6.46627C5.04372 5.99717 3.89051 7.15038 3.89051 8.57293V10.8962C3.89051 12.3187 5.04372 13.4719 6.46627 13.4719H8.53697V13.3709H10.2541V13.4719H11.5168C12.9393 13.4719 14.0925 12.3187 14.0925 10.8962V10.5427H12.8299C11.9963 10.5427 11.2552 10.9386 10.7844 11.5527H8.83142C9.45709 9.95611 11.0115 8.82548 12.8299 8.82548H17.8804C20.2513 8.82548 22.1733 10.7475 22.1733 13.1184V15.4416C22.1733 17.8126 20.2513 19.7346 17.8804 19.7346H12.8299C10.459 19.7346 8.53697 17.8126 8.53697 15.4417V15.1891H6.46627C4.09535 15.1891 2.17334 13.2671 2.17334 10.8962V8.57293C2.17334 6.20201 4.09535 4.28 6.46627 4.28H11.5168C13.3352 4.28 14.8896 5.41064 15.5153 7.00729H13.5623C13.0915 6.39316 12.3504 5.99717 11.5168 5.99717ZM10.2541 15.1891V15.4417C10.2541 16.8642 11.4073 18.0174 12.8299 18.0174H17.8804C19.303 18.0174 20.4562 16.8642 20.4562 15.4416V13.1184C20.4562 11.6959 19.303 10.5427 17.8804 10.5427H15.8097V10.8962C15.8097 13.2671 13.8877 15.1891 11.5168 15.1891H10.2541Z" fill="black"/>
</svg>
