<svg xmlns="http://www.w3.org/2000/svg" width="24" height="24" viewBox="0 0 24 24" fill="none"><rect width="24" height="24" fill="none"/>
<path fill-rule="evenodd" clip-rule="evenodd" d="M11.3444 5.98717H6.29391C4.87136 5.98717 3.71815 7.14038 3.71815 8.56293V10.8862C3.71815 12.3087 4.87136 13.4619 6.29391 13.4619H8.3646V13.3609H10.0818V13.4619H11.3444C12.767 13.4619 13.9202 12.3087 13.9202 10.8862V10.5327H12.6575C11.824 10.5327 11.0829 10.9286 10.6121 11.5427H8.65906C9.28473 9.94611 10.8391 8.81548 12.6575 8.81548H17.708C20.079 8.81548 22.001 10.7375 22.001 13.1084V15.4316C22.001 17.8026 20.079 19.7246 17.708 19.7246H12.6575C10.2866 19.7246 8.3646 17.8026 8.3646 15.4316V15.1791H6.29391C3.92299 15.1791 2.00098 13.2571 2.00098 10.8862V8.56293C2.00098 6.19201 3.92299 4.27 6.29391 4.27H11.3444C13.1629 4.27 14.7172 5.40064 15.3429 6.99729H13.3899C12.9191 6.38316 12.178 5.98717 11.3444 5.98717ZM10.0818 15.1791V15.4316C10.0818 16.8542 11.235 18.0074 12.6575 18.0074H17.708C19.1306 18.0074 20.2838 16.8542 20.2838 15.4316V13.1084C20.2838 11.6859 19.1306 10.5327 17.708 10.5327H15.6374V10.8862C15.6374 13.2571 13.7153 15.1791 11.3444 15.1791H10.0818Z" fill="black"/>
</svg>
