<svg xmlns="http://www.w3.org/2000/svg" width="16" height="16" viewBox="0 0 16 16" fill="none"><rect width="16" height="16" fill="none"/>
<path fill-rule="evenodd" clip-rule="evenodd" d="M7.56221 3.99144H4.19521C3.24684 3.99144 2.47803 4.76024 2.47803 5.70861V7.25743C2.47803 8.2058 3.24684 8.97461 4.19521 8.97461H5.57567V8.90727H6.72045V8.97461H7.56221C8.51058 8.97461 9.27939 8.2058 9.27939 7.25743V7.02176H8.43762C7.8819 7.02176 7.38784 7.28574 7.07399 7.69515H5.77197C6.18909 6.63073 7.22533 5.87698 8.43762 5.87698H11.8046C13.3852 5.87698 14.6666 7.15832 14.6666 8.73893V10.2878C14.6666 11.8684 13.3852 13.1497 11.8046 13.1497H8.43763C6.85701 13.1497 5.57567 11.8684 5.57567 10.2878V10.1194H4.19521C2.61459 10.1194 1.33325 8.83805 1.33325 7.25743V5.70861C1.33325 4.128 2.61459 2.84666 4.19521 2.84666H7.56221C8.77452 2.84666 9.81077 3.60042 10.2279 4.66485H8.92587C8.61202 4.25543 8.11795 3.99144 7.56221 3.99144ZM6.72045 10.1194V10.2878C6.72045 11.2361 7.48926 12.0049 8.43763 12.0049H11.8046C12.753 12.0049 13.5218 11.2361 13.5218 10.2878V8.73893C13.5218 7.79057 12.753 7.02176 11.8046 7.02176H10.4242V7.25743C10.4242 8.83805 9.14283 10.1194 7.56221 10.1194H6.72045Z" fill="black"/>
</svg>
