<svg xmlns="http://www.w3.org/2000/svg" width="17" height="17" viewBox="0 0 17 17" fill="none"><rect width="17" height="17" fill="none"/>
<path fill-rule="evenodd" clip-rule="evenodd" d="M7.57369 3.99479H4.20668C3.25831 3.99479 2.48951 4.76359 2.48951 5.71196V7.26078C2.48951 8.20915 3.25831 8.97796 4.20668 8.97796H5.58714V8.91062H6.73193V8.97796H7.57369C8.52206 8.97796 9.29086 8.20915 9.29086 7.26078V7.02511H8.4491C7.89338 7.02511 7.39931 7.28909 7.08546 7.6985H5.78345C6.20056 6.63408 7.23681 5.88033 8.4491 5.88033H11.8161C13.3967 5.88033 14.6781 7.16167 14.6781 8.74228V10.2911C14.6781 11.8717 13.3967 13.1531 11.8161 13.1531H8.4491C6.86849 13.1531 5.58714 11.8717 5.58714 10.2911V10.1227H4.20668C2.62607 10.1227 1.34473 8.8414 1.34473 7.26078V5.71196C1.34473 4.13135 2.62607 2.85001 4.20668 2.85001H7.57369C8.78599 2.85001 9.82224 3.60377 10.2393 4.6682H8.93734C8.62349 4.25878 8.12942 3.99479 7.57369 3.99479ZM6.73193 10.1227V10.2911C6.73193 11.2395 7.50073 12.0083 8.4491 12.0083H11.8161C12.7645 12.0083 13.5333 11.2395 13.5333 10.2911V8.74228C13.5333 7.79392 12.7645 7.02511 11.8161 7.02511H10.4356V7.26078C10.4356 8.84139 9.1543 10.1227 7.57369 10.1227H6.73193Z" fill="black"/>
</svg>
