<svg xmlns="http://www.w3.org/2000/svg" width="24" height="24" viewBox="0 0 24 24" fill="none"><rect width="24" height="24" fill="none"/>
<path fill-rule="evenodd" clip-rule="evenodd" d="M11.2354 5H5.35303C3.69618 5 2.35303 6.34315 2.35303 8.00001V10.7059C2.35303 12.3627 3.69617 13.7059 5.35303 13.7059H7.76478V13.5882H9.76478V13.7059H11.2354C12.8922 13.7059 14.2354 12.3627 14.2354 10.7059V10.2942H12.7648C11.7939 10.2942 10.9307 10.7553 10.3824 11.4706H8.10773C8.83645 9.611 10.6468 8.29415 12.7648 8.29415H14.2354V8.29414H16.2354V8.29415H18.6471C21.4086 8.29415 23.6471 10.5327 23.6471 13.2942V16C23.6471 18.7615 21.4086 21 18.6471 21H12.7648C10.0034 21 7.76478 18.7615 7.76478 16V15.7059H5.35303C2.5916 15.7059 0.353027 13.4673 0.353027 10.7059V8.00001C0.353027 5.23858 2.5916 3 5.35303 3H11.2354C13.3533 3 15.1637 4.31687 15.8924 6.17649H13.6178C13.0695 5.46121 12.2063 5 11.2354 5ZM9.76478 15.7059V16C9.76478 17.6569 11.1079 19 12.7648 19H18.6471C20.304 19 21.6471 17.6569 21.6471 16V13.2942C21.6471 11.6373 20.304 10.2942 18.6471 10.2942H16.2354V10.7059C16.2354 13.4673 13.9968 15.7059 11.2354 15.7059H9.76478Z" fill="#A0B6C9"/>
</svg>
