<svg xmlns="http://www.w3.org/2000/svg" width="17" height="16" viewBox="0 0 17 16" fill="none"><rect width="17" height="16" fill="none"/>
<path d="M8.22639 1.58338H7.03037C6.96914 1.25162 6.67358 1 6.3245 1C5.97541 1 5.67986 1.25162 5.61862 1.58338H4.63459C4.23188 1.58338 3.90542 1.90984 3.90542 2.31255C3.90542 2.71526 4.23188 3.04172 4.63459 3.04172H8.22639C8.62911 3.04172 8.95558 2.71524 8.95556 2.31252C8.95554 1.90982 8.62909 1.58338 8.22639 1.58338Z" fill="black"/>
<path fill-rule="evenodd" clip-rule="evenodd" d="M1.93994 4.64622C1.93994 3.77359 2.57865 3.05013 3.41409 2.91785C3.55866 3.39927 4.00523 3.75002 4.53373 3.75002H8.37062C8.89912 3.75002 9.3457 3.39927 9.49027 2.91785C10.3257 3.05014 10.9644 3.77359 10.9644 4.64622V8.10907C8.86584 8.10907 7.1645 9.8065 7.1645 11.9004C7.1645 12.7971 7.4765 13.6211 7.99809 14.2702H3.68993C2.72344 14.2702 1.93994 13.4867 1.93994 12.5202V4.64622ZM3.33995 8.88659C3.33995 8.65463 3.52799 8.46659 3.75995 8.46659C3.99191 8.46659 4.17995 8.65463 4.17995 8.88659C4.17995 9.11855 3.99191 9.30659 3.75995 9.30659C3.52799 9.30659 3.33995 9.11855 3.33995 8.88659ZM3.75995 6.1332C3.52799 6.1332 3.33995 6.32124 3.33995 6.5532C3.33995 6.78516 3.52799 6.9732 3.75995 6.9732C3.99191 6.9732 4.17995 6.78516 4.17995 6.5532C4.17995 6.32124 3.99191 6.1332 3.75995 6.1332ZM4.73995 8.88659C4.73995 8.65463 4.92799 8.46659 5.15995 8.46659H6.65329C6.88525 8.46659 7.07329 8.65463 7.07329 8.88659C7.07329 9.11855 6.88525 9.30659 6.65329 9.30659H5.15995C4.92799 9.30659 4.73995 9.11855 4.73995 8.88659ZM5.15995 6.1332C4.92799 6.1332 4.73995 6.32124 4.73995 6.5532C4.73995 6.78516 4.92799 6.9732 5.15995 6.9732H8.51996C8.75192 6.9732 8.93996 6.78516 8.93996 6.5532C8.93996 6.32124 8.75192 6.1332 8.51996 6.1332H5.15995Z" fill="black"/>
<path fill-rule="evenodd" clip-rule="evenodd" d="M10.9644 15C12.6814 15 14.0733 13.6112 14.0733 11.898C14.0733 10.1848 12.6814 8.79601 10.9644 8.79601C9.24738 8.79601 7.85548 10.1848 7.85548 11.898C7.85548 13.6112 9.24738 15 10.9644 15ZM12.2018 11.7559C12.3839 11.5969 12.4026 11.3206 12.2437 11.1386C12.0848 10.9565 11.8084 10.9378 11.6264 11.0967L10.8285 11.7933L10.302 11.3337C10.1199 11.1748 9.84357 11.1935 9.68466 11.3755C9.52575 11.5575 9.54448 11.8339 9.72649 11.9928L10.8285 12.9549L12.2018 11.7559Z" fill="black"/>
</svg>
