<svg xmlns="http://www.w3.org/2000/svg" width="16" height="16" viewBox="0 0 16 16" fill="none"><rect width="16" height="16" fill="none"/>
<path fill-rule="evenodd" clip-rule="evenodd" d="M2.2002 3.15153C2.2002 2.14737 3.01422 1.33334 4.01838 1.33334H11.9762C12.9804 1.33334 13.7944 2.14737 13.7944 3.15153V12.8485C13.7944 13.8526 12.9804 14.6667 11.9762 14.6667H4.01838C3.01422 14.6667 2.2002 13.8526 2.2002 12.8485V3.15153ZM3.93936 4.81137C3.93936 4.49121 4.19891 4.23166 4.51907 4.23166C4.83924 4.23166 5.09878 4.49121 5.09878 4.81137C5.09878 5.13154 4.83924 5.39108 4.51907 5.39108C4.19891 5.39108 3.93936 5.13154 3.93936 4.81137ZM6.83782 4.23166C6.51765 4.23166 6.25811 4.49121 6.25811 4.81137C6.25811 5.13154 6.51765 5.39108 6.83782 5.39108H11.4755C11.7957 5.39108 12.0552 5.13154 12.0552 4.81137C12.0552 4.49121 11.7957 4.23166 11.4755 4.23166H6.83782ZM3.93936 7.71028C3.93936 7.39012 4.19891 7.13057 4.51907 7.13057C4.83924 7.13057 5.09878 7.39012 5.09878 7.71028C5.09878 8.03045 4.83924 8.28999 4.51907 8.28999C4.19891 8.28999 3.93936 8.03045 3.93936 7.71028ZM6.83782 7.13057C6.51765 7.13057 6.25811 7.39012 6.25811 7.71028C6.25811 8.03045 6.51765 8.28999 6.83782 8.28999H11.4755C11.7957 8.28999 12.0552 8.03045 12.0552 7.71028C12.0552 7.39012 11.7957 7.13057 11.4755 7.13057H6.83782ZM3.93936 10.6086C3.93936 10.2884 4.19891 10.0289 4.51907 10.0289C4.83924 10.0289 5.09878 10.2884 5.09878 10.6086C5.09878 10.9288 4.83924 11.1883 4.51907 11.1883C4.19891 11.1883 3.93936 10.9288 3.93936 10.6086ZM6.83782 10.0289C6.51765 10.0289 6.25811 10.2884 6.25811 10.6086C6.25811 10.9288 6.51765 11.1883 6.83782 11.1883H11.4755C11.7957 11.1883 12.0552 10.9288 12.0552 10.6086C12.0552 10.2884 11.7957 10.0289 11.4755 10.0289H6.83782Z" fill="black"/>
</svg>
