<svg xmlns="http://www.w3.org/2000/svg" width="24" height="24" viewBox="0 0 24 24" fill="none"><rect width="24" height="24" fill="none"/>
<path fill-rule="evenodd" clip-rule="evenodd" d="M3.30103 4.72727C3.30103 3.22104 4.52207 2 6.0283 2H17.9651C19.4713 2 20.6923 3.22104 20.6923 4.72727V19.2727C20.6923 20.779 19.4713 22 17.9651 22H6.0283C4.52207 22 3.30103 20.779 3.30103 19.2727V4.72727ZM5.90978 7.21704C5.90978 6.7368 6.2991 6.34748 6.77934 6.34748C7.25959 6.34748 7.64891 6.7368 7.64891 7.21704C7.64891 7.69729 7.25959 8.08661 6.77934 8.08661C6.2991 8.08661 5.90978 7.69729 5.90978 7.21704ZM10.2575 6.34748C9.77721 6.34748 9.38789 6.7368 9.38789 7.21704C9.38789 7.69729 9.77721 8.08661 10.2575 8.08661H17.214C17.6942 8.08661 18.0835 7.69729 18.0835 7.21704C18.0835 6.7368 17.6942 6.34748 17.214 6.34748H10.2575ZM5.90978 11.5654C5.90978 11.0852 6.2991 10.6958 6.77934 10.6958C7.25959 10.6958 7.64891 11.0852 7.64891 11.5654C7.64891 12.0457 7.25959 12.435 6.77934 12.435C6.2991 12.435 5.90978 12.0457 5.90978 11.5654ZM10.2575 10.6958C9.77721 10.6958 9.38789 11.0852 9.38789 11.5654C9.38789 12.0457 9.77721 12.435 10.2575 12.435H17.214C17.6942 12.435 18.0835 12.0457 18.0835 11.5654C18.0835 11.0852 17.6942 10.6958 17.214 10.6958H10.2575ZM5.90978 15.9129C5.90978 15.4326 6.2991 15.0433 6.77934 15.0433C7.25959 15.0433 7.64891 15.4326 7.64891 15.9129C7.64891 16.3931 7.25959 16.7825 6.77934 16.7825C6.2991 16.7825 5.90978 16.3931 5.90978 15.9129ZM10.2575 15.0433C9.77721 15.0433 9.38789 15.4326 9.38789 15.9129C9.38789 16.3931 9.77721 16.7825 10.2575 16.7825H17.214C17.6942 16.7825 18.0835 16.3931 18.0835 15.9129C18.0835 15.4326 17.6942 15.0433 17.214 15.0433H10.2575Z" fill="black"/>
</svg>
