<svg xmlns="http://www.w3.org/2000/svg" width="24" height="24" viewBox="0 0 24 24" fill="none"><rect width="24" height="24" fill="none"/>
<path d="M12.4307 1.87507H10.6366C10.5448 1.37743 10.1014 1 9.57781 1C9.05419 1 8.61085 1.37743 8.51899 1.87507H7.04294C6.43888 1.87507 5.94919 2.36476 5.94919 2.96882C5.94919 3.57289 6.43888 4.06258 7.04294 4.06258H12.4307C13.0347 4.06258 13.5244 3.57286 13.5244 2.96878C13.5244 2.36473 13.0347 1.87507 12.4307 1.87507Z" fill="black"/>
<path fill-rule="evenodd" clip-rule="evenodd" d="M3.00098 6.46934C3.00098 5.16038 3.95905 4.0752 5.21219 3.87677C5.42905 4.5989 6.09891 5.12503 6.89166 5.12503H12.647C13.4397 5.12503 14.1096 4.5989 14.3265 3.87678C15.5796 4.07522 16.5377 5.16039 16.5377 6.46934V11.6636C13.3898 11.6636 10.8378 14.2098 10.8378 17.3506C10.8378 18.6957 11.3058 19.9317 12.0882 20.9053H5.62597C4.17622 20.9053 3.00098 19.7301 3.00098 18.2803V6.46934ZM5.10098 12.8299C5.10098 12.4819 5.38305 12.1999 5.73099 12.1999C6.07893 12.1999 6.36099 12.4819 6.36099 12.8299C6.36099 13.1778 6.07893 13.4599 5.73099 13.4599C5.38305 13.4599 5.10098 13.1778 5.10098 12.8299ZM5.73099 8.6998C5.38305 8.6998 5.10098 8.98186 5.10098 9.3298C5.10098 9.67774 5.38305 9.9598 5.73099 9.9598C6.07893 9.9598 6.36099 9.67774 6.36099 9.3298C6.36099 8.98186 6.07893 8.6998 5.73099 8.6998ZM7.20099 12.8299C7.20099 12.4819 7.48305 12.1999 7.831 12.1999H10.071C10.4189 12.1999 10.701 12.4819 10.701 12.8299C10.701 13.1778 10.4189 13.4599 10.071 13.4599H7.83099C7.48305 13.4599 7.20099 13.1778 7.20099 12.8299ZM7.831 8.6998C7.48305 8.6998 7.20099 8.98186 7.20099 9.3298C7.20099 9.67774 7.48305 9.9598 7.831 9.9598H12.871C13.2189 9.9598 13.501 9.67774 13.501 9.3298C13.501 8.98186 13.2189 8.6998 12.871 8.6998H7.831Z" fill="black"/>
<path fill-rule="evenodd" clip-rule="evenodd" d="M16.5376 22C19.1131 22 21.201 19.9168 21.201 17.347C21.201 14.7772 19.1131 12.694 16.5376 12.694C13.9621 12.694 11.8743 14.7772 11.8743 17.347C11.8743 19.9168 13.9621 22 16.5376 22ZM18.3938 17.1338C18.6669 16.8954 18.6949 16.4809 18.4566 16.2078C18.2182 15.9348 17.8037 15.9067 17.5306 16.1451L16.3338 17.19L15.544 16.5005C15.271 16.2621 14.8564 16.2902 14.618 16.5633C14.3797 16.8363 14.4078 17.2509 14.6808 17.4892L16.3338 18.9323L18.3938 17.1338Z" fill="black"/>
</svg>
