<svg xmlns="http://www.w3.org/2000/svg" width="24" height="24" viewBox="0 0 24 24" fill="none"><rect width="24" height="24" fill="none"/>
<path fill-rule="evenodd" clip-rule="evenodd" d="M2.5 4C2.5 2.34315 3.84315 1 5.5 1H18.6304C20.2873 1 21.6304 2.34315 21.6304 4V20C21.6304 21.6569 20.2873 23 18.6304 23H5.5C3.84315 23 2.5 21.6569 2.5 20V4ZM5.36963 6.73875C5.36963 6.21048 5.79788 5.78223 6.32615 5.78223C6.85442 5.78223 7.28267 6.21048 7.28267 6.73875C7.28267 7.26702 6.85442 7.69527 6.32615 7.69527C5.79788 7.69527 5.36963 7.26702 5.36963 6.73875ZM10.1521 5.78223C9.62381 5.78223 9.19556 6.21048 9.19556 6.73875C9.19556 7.26702 9.62381 7.69527 10.1521 7.69527H17.8043C18.3325 7.69527 18.7608 7.26702 18.7608 6.73875C18.7608 6.21048 18.3325 5.78223 17.8043 5.78223H10.1521ZM5.36963 11.522C5.36963 10.9937 5.79788 10.5654 6.32615 10.5654C6.85442 10.5654 7.28267 10.9937 7.28267 11.522C7.28267 12.0502 6.85442 12.4785 6.32615 12.4785C5.79788 12.4785 5.36963 12.0502 5.36963 11.522ZM10.1521 10.5654C9.62381 10.5654 9.19556 10.9937 9.19556 11.522C9.19556 12.0502 9.62381 12.4785 10.1521 12.4785H17.8043C18.3325 12.4785 18.7608 12.0502 18.7608 11.522C18.7608 10.9937 18.3325 10.5654 17.8043 10.5654H10.1521ZM5.36963 16.3042C5.36963 15.7759 5.79788 15.3477 6.32615 15.3477C6.85442 15.3477 7.28267 15.7759 7.28267 16.3042C7.28267 16.8325 6.85442 17.2607 6.32615 17.2607C5.79788 17.2607 5.36963 16.8325 5.36963 16.3042ZM10.1521 15.3477C9.62381 15.3477 9.19556 15.7759 9.19556 16.3042C9.19556 16.8325 9.62381 17.2607 10.1521 17.2607H17.8043C18.3325 17.2607 18.7608 16.8325 18.7608 16.3042C18.7608 15.7759 18.3325 15.3477 17.8043 15.3477H10.1521Z" fill="black"/>
</svg>
