<svg xmlns="http://www.w3.org/2000/svg" width="24" height="24" viewBox="0 0 24 24" fill="none"><rect width="24" height="24" fill="none"/>
<path d="M12.3769 1.00009H10.3266C10.2216 0.431346 9.71494 0 9.11651 0C8.51808 0 8.01141 0.431346 7.90643 1.00009H6.21951C5.52915 1.00009 4.9695 1.55973 4.9695 2.25009C4.9695 2.94045 5.52915 3.5001 6.21951 3.5001H12.3769C13.0673 3.5001 13.6269 2.94042 13.6269 2.25004C13.6269 1.5597 13.0673 1.00009 12.3769 1.00009Z" fill="black"/>
<path fill-rule="evenodd" clip-rule="evenodd" d="M1.6001 6.25069C1.6001 4.75474 2.69504 3.51453 4.12721 3.28775C4.37505 4.11304 5.14061 4.71433 6.04661 4.71433H12.6242C13.5302 4.71433 14.2957 4.11305 14.5436 3.28776C15.9757 3.51455 17.0706 4.75475 17.0706 6.2507V12.187C13.4731 12.187 10.5565 15.0969 10.5565 18.6865C10.5565 20.2237 11.0914 21.6363 11.9855 22.749H4.6001C2.94324 22.749 1.6001 21.4059 1.6001 19.749V6.25069ZM4.00012 13.5199C4.00012 13.1223 4.32247 12.7999 4.72012 12.7999C5.11777 12.7999 5.44013 13.1223 5.44013 13.5199C5.44013 13.9176 5.11777 14.2399 4.72012 14.2399C4.32247 14.2399 4.00012 13.9176 4.00012 13.5199ZM4.72012 8.7998C4.32247 8.7998 4.00012 9.12216 4.00012 9.51981C4.00012 9.91746 4.32247 10.2398 4.72012 10.2398C5.11777 10.2398 5.44013 9.91746 5.44013 9.51981C5.44013 9.12216 5.11777 8.7998 4.72012 8.7998ZM6.40014 13.5199C6.40014 13.1223 6.72249 12.7999 7.12014 12.7999H9.68016C10.0778 12.7999 10.4002 13.1223 10.4002 13.5199C10.4002 13.9176 10.0778 14.2399 9.68016 14.2399H7.12014C6.72249 14.2399 6.40014 13.9176 6.40014 13.5199ZM7.12014 8.7998C6.72249 8.7998 6.40014 9.12216 6.40014 9.51981C6.40014 9.91746 6.72249 10.2398 7.12014 10.2398H12.8802C13.2778 10.2398 13.6002 9.91746 13.6002 9.51981C13.6002 9.12216 13.2778 8.7998 12.8802 8.7998H7.12014Z" fill="black"/>
<path fill-rule="evenodd" clip-rule="evenodd" d="M17.0706 24.0001C20.0141 24.0001 22.4002 21.6193 22.4002 18.6824C22.4002 15.7455 20.0141 13.3646 17.0706 13.3646C14.1272 13.3646 11.7411 15.7455 11.7411 18.6824C11.7411 21.6193 14.1272 24.0001 17.0706 24.0001ZM19.192 18.4387C19.504 18.1663 19.5361 17.6925 19.2637 17.3804C18.9913 17.0684 18.5175 17.0363 18.2055 17.3087L16.8376 18.5029L15.935 17.7149C15.623 17.4425 15.1492 17.4746 14.8768 17.7867C14.6044 18.0987 14.6365 18.5725 14.9485 18.8449L16.8376 20.4942L19.192 18.4387Z" fill="black"/>
</svg>
