<svg xmlns="http://www.w3.org/2000/svg" width="24" height="24" viewBox="0 0 24 24" fill="none"><rect width="24" height="24" fill="none"/>
<path d="M8.13886 2H15.8544C19.0677 2 20.9923 3.95143 21.001 7.20971V16.7903C21.001 20.0486 19.0852 22 15.8631 22H13.0068C12.6405 21.959 12.3632 21.6452 12.3632 21.2715C12.3632 20.8978 12.6405 20.584 13.0068 20.543H15.8544C18.3101 20.543 19.5467 19.2804 19.5467 16.7903V7.20971C19.5467 4.71965 18.3101 3.45695 15.8544 3.45695H8.13886C5.68312 3.45695 4.43784 4.71965 4.43784 7.20971V16.7903C4.43784 19.2804 5.68312 20.543 8.13886 20.543C8.50516 20.584 8.78243 20.8978 8.78243 21.2715C8.78243 21.6452 8.50516 21.959 8.13886 22C4.92551 22 3.00098 20.0486 3.00098 16.7903V7.20971C3.00098 3.9426 4.92551 2 8.13886 2Z" fill="black"/>
<path d="M8.39149 8.49899H11.1346C11.5009 8.45803 11.7782 8.14419 11.7782 7.77051C11.7782 7.39683 11.5009 7.08299 11.1346 7.04203H8.39149C8.02518 7.08299 7.74792 7.39683 7.74792 7.77051C7.74792 8.14419 8.02518 8.45803 8.39149 8.49899Z" fill="black"/>
<path d="M15.5933 12.7285H8.38289C8.01659 12.6876 7.73932 12.3737 7.73932 12.0001C7.73932 11.6264 8.01659 11.3125 8.38289 11.2716H15.5933C15.8689 11.2408 16.1376 11.3725 16.2849 11.6106C16.4322 11.8488 16.4322 12.1514 16.2849 12.3895C16.1376 12.6276 15.8689 12.7593 15.5933 12.7285Z" fill="black"/>
<path d="M15.5934 16.9582H8.38292C7.98854 16.9582 7.66884 16.6341 7.66884 16.2342C7.66884 15.8343 7.98854 15.5101 8.38292 15.5101H15.5934C15.9877 15.5101 16.3074 15.8343 16.3074 16.2342C16.3074 16.6341 15.9877 16.9582 15.5934 16.9582Z" fill="black"/>
</svg>
