<svg xmlns="http://www.w3.org/2000/svg" width="17" height="17" viewBox="0 0 17 17" fill="none"><rect width="17" height="17" fill="none"/>
<path fill-rule="evenodd" clip-rule="evenodd" d="M2.20996 4.15317C2.20996 3.14902 3.02399 2.33499 4.02814 2.33499H11.986C12.9901 2.33499 13.8042 3.14902 13.8042 4.15317V13.8501C13.8042 14.8543 12.9901 15.6683 11.986 15.6683H4.02814C3.02399 15.6683 2.20996 14.8543 2.20996 13.8501V4.15317ZM3.94913 5.81302C3.94913 5.49286 4.20867 5.23331 4.52884 5.23331C4.849 5.23331 5.10855 5.49286 5.10855 5.81302C5.10855 6.13319 4.849 6.39273 4.52884 6.39273C4.20867 6.39273 3.94913 6.13319 3.94913 5.81302ZM6.84758 5.23331C6.52742 5.23331 6.26787 5.49286 6.26787 5.81302C6.26787 6.13319 6.52742 6.39273 6.84758 6.39273H11.4853C11.8054 6.39273 12.065 6.13319 12.065 5.81302C12.065 5.49286 11.8054 5.23331 11.4853 5.23331H6.84758ZM3.94913 8.71193C3.94913 8.39177 4.20867 8.13222 4.52884 8.13222C4.849 8.13222 5.10855 8.39177 5.10855 8.71193C5.10855 9.0321 4.849 9.29164 4.52884 9.29164C4.20867 9.29164 3.94913 9.0321 3.94913 8.71193ZM6.84758 8.13222C6.52742 8.13222 6.26787 8.39177 6.26787 8.71193C6.26787 9.0321 6.52742 9.29164 6.84758 9.29164H11.4853C11.8054 9.29164 12.065 9.0321 12.065 8.71193C12.065 8.39177 11.8054 8.13222 11.4853 8.13222H6.84758ZM3.94913 11.6103C3.94913 11.2901 4.20867 11.0305 4.52884 11.0305C4.849 11.0305 5.10855 11.2901 5.10855 11.6103C5.10855 11.9304 4.849 12.19 4.52884 12.19C4.20867 12.19 3.94913 11.9304 3.94913 11.6103ZM6.84758 11.0305C6.52742 11.0305 6.26787 11.2901 6.26787 11.6103C6.26787 11.9304 6.52742 12.19 6.84758 12.19H11.4853C11.8054 12.19 12.065 11.9304 12.065 11.6103C12.065 11.2901 11.8054 11.0305 11.4853 11.0305H6.84758Z" fill="black"/>
</svg>
