<svg xmlns="http://www.w3.org/2000/svg" width="25" height="24" viewBox="0 0 25 24" fill="none"><rect width="25" height="24" fill="none"/>
<path d="M8.14276 2H15.8583C19.0716 2 20.9962 3.95143 21.0049 7.20971V16.7903C21.0049 20.0486 19.0891 22 15.867 22H13.0107C12.6444 21.959 12.3671 21.6452 12.3671 21.2715C12.3671 20.8978 12.6444 20.584 13.0107 20.543H15.8583C18.314 20.543 19.5506 19.2804 19.5506 16.7903V7.20971C19.5506 4.71965 18.314 3.45695 15.8583 3.45695H8.14276C5.68703 3.45695 4.44175 4.71965 4.44175 7.20971V16.7903C4.44175 19.2804 5.68703 20.543 8.14276 20.543C8.50907 20.584 8.78633 20.8978 8.78633 21.2715C8.78633 21.6452 8.50907 21.959 8.14276 22C4.92941 22 3.00488 20.0486 3.00488 16.7903V7.20971C3.00488 3.9426 4.92941 2 8.14276 2Z" fill="black"/>
<path d="M8.3954 8.49899H11.1385C11.5048 8.45803 11.7821 8.14419 11.7821 7.77051C11.7821 7.39683 11.5048 7.08299 11.1385 7.04203H8.3954C8.02909 7.08299 7.75183 7.39683 7.75183 7.77051C7.75183 8.14419 8.02909 8.45803 8.3954 8.49899Z" fill="black"/>
<path d="M15.5972 12.7285H8.3868C8.02049 12.6876 7.74323 12.3737 7.74323 12.0001C7.74323 11.6264 8.02049 11.3125 8.3868 11.2716H15.5972C15.8728 11.2408 16.1415 11.3725 16.2888 11.6106C16.4361 11.8488 16.4361 12.1514 16.2888 12.3895C16.1415 12.6276 15.8728 12.7593 15.5972 12.7285Z" fill="black"/>
<path d="M15.5973 16.9582H8.38682C7.99245 16.9582 7.67275 16.6341 7.67275 16.2342C7.67275 15.8343 7.99245 15.5101 8.38682 15.5101H15.5973C15.9916 15.5101 16.3114 15.8343 16.3114 16.2342C16.3114 16.6341 15.9916 16.9582 15.5973 16.9582Z" fill="black"/>
</svg>
