<svg xmlns="http://www.w3.org/2000/svg" width="25" height="24" viewBox="0 0 25 24" fill="none"><rect width="25" height="24" fill="none"/>
<path d="M12.3347 2.37507H10.5407C10.4488 1.87743 10.0055 1.5 9.48186 1.5C8.95824 1.5 8.5149 1.87743 8.42305 2.37507H6.947C6.34293 2.37507 5.85324 2.86476 5.85324 3.46882C5.85324 4.07289 6.34293 4.56258 6.947 4.56258H12.3347C12.9388 4.56258 13.4285 4.07286 13.4285 3.46878C13.4284 2.86473 12.9388 2.37507 12.3347 2.37507Z" fill="black"/>
<path fill-rule="evenodd" clip-rule="evenodd" d="M2.90503 6.96934C2.90503 5.66038 3.8631 4.5752 5.11625 4.37677C5.3331 5.0989 6.00297 5.62503 6.79572 5.62503H12.5511C13.3438 5.62503 14.0137 5.0989 14.2305 4.37678C15.4837 4.57522 16.4417 5.66039 16.4417 6.96934V12.1636C13.2939 12.1636 10.7419 14.7098 10.7419 17.8506C10.7419 19.1957 11.2099 20.4317 11.9923 21.4053H5.53002C4.08028 21.4053 2.90503 20.2301 2.90503 18.7803V6.96934ZM5.00504 13.3299C5.00504 12.9819 5.2871 12.6999 5.63504 12.6999C5.98298 12.6999 6.26504 12.9819 6.26504 13.3299C6.26504 13.6778 5.98298 13.9599 5.63504 13.9599C5.2871 13.9599 5.00504 13.6778 5.00504 13.3299ZM5.63504 9.1998C5.2871 9.1998 5.00504 9.48186 5.00504 9.8298C5.00504 10.1777 5.2871 10.4598 5.63504 10.4598C5.98298 10.4598 6.26504 10.1777 6.26504 9.8298C6.26504 9.48186 5.98298 9.1998 5.63504 9.1998ZM7.10505 13.3299C7.10505 12.9819 7.38711 12.6999 7.73505 12.6999H9.97505C10.323 12.6999 10.6051 12.9819 10.6051 13.3299C10.6051 13.6778 10.323 13.9599 9.97505 13.9599H7.73505C7.38711 13.9599 7.10505 13.6778 7.10505 13.3299ZM7.73505 9.1998C7.38711 9.1998 7.10505 9.48186 7.10505 9.8298C7.10505 10.1777 7.38711 10.4598 7.73505 10.4598H12.7751C13.123 10.4598 13.4051 10.1777 13.4051 9.8298C13.4051 9.48186 13.123 9.1998 12.7751 9.1998H7.73505Z" fill="black"/>
<path fill-rule="evenodd" clip-rule="evenodd" d="M16.4417 22.5C19.0172 22.5 21.105 20.4168 21.105 17.847C21.105 15.2772 19.0172 13.194 16.4417 13.194C13.8662 13.194 11.7783 15.2772 11.7783 17.847C11.7783 20.4168 13.8662 22.5 16.4417 22.5ZM18.2979 17.6338C18.5709 17.3954 18.599 16.9809 18.3606 16.7078C18.1223 16.4348 17.7077 16.4067 17.4347 16.6451L16.2378 17.69L15.4481 17.0005C15.175 16.7621 14.7605 16.7902 14.5221 17.0633C14.2837 17.3363 14.3118 17.7509 14.5849 17.9892L16.2378 19.4323L18.2979 17.6338Z" fill="black"/>
</svg>
