<svg xmlns="http://www.w3.org/2000/svg" width="25" height="24" viewBox="0 0 25 24" fill="none"><rect width="25" height="24" fill="none"/>
<path fill-rule="evenodd" clip-rule="evenodd" d="M9.27761 2.5C9.27761 2.22386 9.05375 2 8.77761 2H2.50488C2.22874 2 2.00488 2.22386 2.00488 2.5V8.77273C2.00488 9.04887 2.22874 9.27273 2.50488 9.27273H8.77761C9.05375 9.27273 9.27761 9.04887 9.27761 8.77273V7.04545C9.27761 6.76931 9.50147 6.54545 9.77761 6.54545H10.5958C10.8719 6.54545 11.0958 6.76931 11.0958 7.04545V18.7727C11.0958 19.0489 11.3196 19.2727 11.5958 19.2727H14.2322C14.5083 19.2727 14.7322 19.4966 14.7322 19.7727V21.5C14.7322 21.7761 14.956 22 15.2322 22H21.5049C21.781 22 22.0049 21.7761 22.0049 21.5V15.2273C22.0049 14.9511 21.781 14.7273 21.5049 14.7273H15.2322C14.956 14.7273 14.7322 14.9511 14.7322 15.2273V16.9545C14.7322 17.2307 14.5083 17.4545 14.2322 17.4545H13.414C13.1378 17.4545 12.914 17.2307 12.914 16.9545V7.04545C12.914 6.76931 13.1378 6.54545 13.414 6.54545H14.2322C14.5083 6.54545 14.7322 6.76931 14.7322 7.04545V8.77273C14.7322 9.04887 14.956 9.27273 15.2322 9.27273H21.5049C21.781 9.27273 22.0049 9.04887 22.0049 8.77273V2.5C22.0049 2.22386 21.781 2 21.5049 2H15.2322C14.956 2 14.7322 2.22386 14.7322 2.5V4.22727C14.7322 4.50341 14.5083 4.72727 14.2322 4.72727H9.77761C9.50147 4.72727 9.27761 4.50342 9.27761 4.22727V2.5ZM20.1867 4.31818C20.1867 4.04204 19.9628 3.81818 19.6867 3.81818H17.0503C16.7742 3.81818 16.5503 4.04204 16.5503 4.31818V6.95455C16.5503 7.23069 16.7742 7.45455 17.0503 7.45455H19.6867C19.9628 7.45455 20.1867 7.23069 20.1867 6.95455V4.31818ZM16.5503 17.0455C16.5503 16.7693 16.7742 16.5455 17.0503 16.5455H19.6867C19.9628 16.5455 20.1867 16.7693 20.1867 17.0455V19.6818C20.1867 19.958 19.9628 20.1818 19.6867 20.1818H17.0503C16.7742 20.1818 16.5503 19.958 16.5503 19.6818V17.0455Z" fill="black"/>
</svg>
