<svg xmlns="http://www.w3.org/2000/svg" width="25" height="24" viewBox="0 0 25 24" fill="none"><rect width="25" height="24" fill="none"/>
<path fill-rule="evenodd" clip-rule="evenodd" d="M3.31006 4.72727C3.31006 3.22104 4.5311 2 6.03733 2H17.9741C19.4803 2 20.7014 3.22104 20.7014 4.72727V19.2727C20.7014 20.779 19.4803 22 17.9741 22H6.03733C4.5311 22 3.31006 20.779 3.31006 19.2727V4.72727ZM5.91881 7.21704C5.91881 6.7368 6.30813 6.34748 6.78838 6.34748C7.26862 6.34748 7.65794 6.7368 7.65794 7.21704C7.65794 7.69729 7.26862 8.08661 6.78838 8.08661C6.30813 8.08661 5.91881 7.69729 5.91881 7.21704ZM10.2665 6.34748C9.78625 6.34748 9.39693 6.7368 9.39693 7.21704C9.39693 7.69729 9.78625 8.08661 10.2665 8.08661H17.223C17.7033 8.08661 18.0926 7.69729 18.0926 7.21704C18.0926 6.7368 17.7033 6.34748 17.223 6.34748H10.2665ZM5.91881 11.5654C5.91881 11.0852 6.30813 10.6958 6.78838 10.6958C7.26862 10.6958 7.65794 11.0852 7.65794 11.5654C7.65794 12.0457 7.26862 12.435 6.78838 12.435C6.30813 12.435 5.91881 12.0457 5.91881 11.5654ZM10.2665 10.6958C9.78625 10.6958 9.39693 11.0852 9.39693 11.5654C9.39693 12.0457 9.78625 12.435 10.2665 12.435H17.223C17.7033 12.435 18.0926 12.0457 18.0926 11.5654C18.0926 11.0852 17.7033 10.6958 17.223 10.6958H10.2665ZM5.91881 15.9129C5.91881 15.4326 6.30813 15.0433 6.78838 15.0433C7.26862 15.0433 7.65794 15.4326 7.65794 15.9129C7.65794 16.3931 7.26862 16.7825 6.78838 16.7825C6.30813 16.7825 5.91881 16.3931 5.91881 15.9129ZM10.2665 15.0433C9.78625 15.0433 9.39693 15.4326 9.39693 15.9129C9.39693 16.3931 9.78625 16.7825 10.2665 16.7825H17.223C17.7033 16.7825 18.0926 16.3931 18.0926 15.9129C18.0926 15.4326 17.7033 15.0433 17.223 15.0433H10.2665Z" fill="black"/>
</svg>
