<svg xmlns="http://www.w3.org/2000/svg" width="17" height="17" viewBox="0 0 17 17" fill="none"><rect width="17" height="17" fill="none"/>
<path d="M5.43014 2.33499H10.5738C12.7161 2.33499 13.9991 3.63595 14.0049 5.80813V12.1952C14.0049 14.3674 12.7277 15.6683 10.5796 15.6683H8.67542C8.43122 15.641 8.24637 15.4318 8.24637 15.1827C8.24637 14.9336 8.43122 14.7243 8.67542 14.697H10.5738C12.211 14.697 13.0354 13.8552 13.0354 12.1952V5.80813C13.0354 4.14809 12.211 3.30629 10.5738 3.30629H5.43014C3.79298 3.30629 2.96279 4.14809 2.96279 5.80813V12.1952C2.96279 13.8552 3.79298 14.697 5.43014 14.697C5.67434 14.7243 5.85918 14.9336 5.85918 15.1827C5.85918 15.4318 5.67434 15.641 5.43014 15.6683C3.2879 15.6683 2.00488 14.3674 2.00488 12.1952V5.80813C2.00488 3.63006 3.2879 2.33499 5.43014 2.33499Z" fill="black"/>
<path d="M5.59856 6.66765H7.4273C7.6715 6.64035 7.85634 6.43112 7.85634 6.182C7.85634 5.93288 7.6715 5.72365 7.4273 5.69635H5.59856C5.35435 5.72365 5.16951 5.93288 5.16951 6.182C5.16951 6.43112 5.35435 6.64035 5.59856 6.66765Z" fill="black"/>
<path d="M10.3998 9.48735H5.59283C5.34862 9.46005 5.16378 9.25082 5.16378 9.0017C5.16378 8.75258 5.34862 8.54335 5.59283 8.51605H10.3998C10.5835 8.49551 10.7626 8.58332 10.8608 8.74208C10.959 8.90084 10.959 9.10256 10.8608 9.26132C10.7626 9.42007 10.5835 9.50789 10.3998 9.48735Z" fill="black"/>
<path d="M10.3998 12.3071H5.59284C5.32993 12.3071 5.11679 12.091 5.11679 11.8244C5.11679 11.5578 5.32993 11.3417 5.59284 11.3417H10.3998C10.6627 11.3417 10.8759 11.5578 10.8759 11.8244C10.8759 12.091 10.6627 12.3071 10.3998 12.3071Z" fill="black"/>
</svg>
