<svg xmlns="http://www.w3.org/2000/svg" width="16" height="16" viewBox="0 0 16 16" fill="none"><rect width="16" height="16" fill="none"/>
<path d="M8.28645 1.25004H7.09043C7.0292 0.918274 6.73364 0.666656 6.38456 0.666656C6.03547 0.666656 5.73992 0.918274 5.67868 1.25004H4.69465C4.29194 1.25004 3.96548 1.5765 3.96548 1.97921C3.96548 2.38191 4.29194 2.70837 4.69465 2.70837H8.28645C8.68917 2.70837 9.01564 2.3819 9.01562 1.97918C9.0156 1.57648 8.68915 1.25004 8.28645 1.25004Z" fill="black"/>
<path fill-rule="evenodd" clip-rule="evenodd" d="M2 4.31288C2 3.44024 2.63871 2.71679 3.47415 2.58451C3.61871 3.06592 4.06529 3.41667 4.59379 3.41667H8.43068C8.95918 3.41667 9.40575 3.06592 9.55032 2.58451C10.3857 2.7168 11.0245 3.44025 11.0245 4.31288V7.77572C8.9259 7.77572 7.22456 9.47316 7.22456 11.567C7.22456 12.4638 7.53656 13.2878 8.05815 13.9369H3.74999C2.7835 13.9369 2 13.1534 2 12.1869V4.31288ZM3.40001 8.55324C3.40001 8.32128 3.58805 8.13324 3.82001 8.13324C4.05197 8.13324 4.24001 8.32128 4.24001 8.55324C4.24001 8.7852 4.05197 8.97324 3.82001 8.97324C3.58805 8.97324 3.40001 8.7852 3.40001 8.55324ZM3.82001 5.79985C3.58805 5.79985 3.40001 5.9879 3.40001 6.21986C3.40001 6.45182 3.58805 6.63986 3.82001 6.63986C4.05197 6.63986 4.24001 6.45182 4.24001 6.21986C4.24001 5.9879 4.05197 5.79985 3.82001 5.79985ZM4.80001 8.55324C4.80001 8.32128 4.98805 8.13324 5.22001 8.13324H6.71335C6.94531 8.13324 7.13335 8.32128 7.13335 8.55324C7.13335 8.7852 6.94531 8.97324 6.71335 8.97324H5.22001C4.98805 8.97324 4.80001 8.7852 4.80001 8.55324ZM5.22001 5.79985C4.98805 5.79985 4.80001 5.9879 4.80001 6.21986C4.80001 6.45182 4.98805 6.63986 5.22001 6.63986H8.58002C8.81198 6.63986 9.00002 6.45182 9.00002 6.21986C9.00002 5.9879 8.81198 5.79985 8.58002 5.79985H5.22001Z" fill="black"/>
<path fill-rule="evenodd" clip-rule="evenodd" d="M11.0244 14.6667C12.7414 14.6667 14.1333 13.2778 14.1333 11.5647C14.1333 9.85147 12.7414 8.46266 11.0244 8.46266C9.30744 8.46266 7.91554 9.85147 7.91554 11.5647C7.91554 13.2778 9.30744 14.6667 11.0244 14.6667ZM12.2619 11.4225C12.4439 11.2636 12.4626 10.9872 12.3037 10.8052C12.1448 10.6232 11.8685 10.6045 11.6864 10.7634L10.8885 11.46L10.362 11.0003C10.18 10.8414 9.90362 10.8602 9.74471 11.0422C9.5858 11.2242 9.60454 11.5006 9.78655 11.6595L10.8885 12.6215L12.2619 11.4225Z" fill="black"/>
</svg>
