<svg xmlns="http://www.w3.org/2000/svg" width="16" height="16" viewBox="0 0 16 16" fill="none"><rect width="16" height="16" fill="none"/>
<path d="M5.42525 1.33334H10.5689C12.7112 1.33334 13.9942 2.6343 14 4.80649V11.1935C14 13.3657 12.7228 14.6667 10.5747 14.6667H8.67054C8.42633 14.6394 8.24149 14.4301 8.24149 14.181C8.24149 13.9319 8.42633 13.7227 8.67054 13.6954H10.5689C12.2061 13.6954 13.0305 12.8536 13.0305 11.1935V4.80649C13.0305 3.14644 12.2061 2.30465 10.5689 2.30465H5.42525C3.7881 2.30465 2.95791 3.14644 2.95791 4.80649V11.1935C2.95791 12.8536 3.7881 13.6954 5.42525 13.6954C5.66946 13.7227 5.8543 13.9319 5.8543 14.181C5.8543 14.4301 5.66946 14.6394 5.42525 14.6667C3.28302 14.6667 2 13.3657 2 11.1935V4.80649C2 2.62841 3.28302 1.33334 5.42525 1.33334Z" fill="black"/>
<path d="M5.59368 5.666H7.42241C7.66662 5.6387 7.85146 5.42947 7.85146 5.18035C7.85146 4.93123 7.66662 4.722 7.42241 4.6947H5.59368C5.34947 4.722 5.16463 4.93123 5.16463 5.18035C5.16463 5.42947 5.34947 5.6387 5.59368 5.666Z" fill="black"/>
<path d="M10.3949 8.4857H5.58794C5.34374 8.4584 5.1589 8.24917 5.1589 8.00005C5.1589 7.75093 5.34374 7.5417 5.58794 7.5144H10.3949C10.5786 7.49386 10.7577 7.58167 10.8559 7.74043C10.9541 7.89919 10.9541 8.10091 10.8559 8.25967C10.7577 8.41843 10.5786 8.50624 10.3949 8.4857Z" fill="black"/>
<path d="M10.3949 11.3055H5.58796C5.32504 11.3055 5.11191 11.0894 5.11191 10.8228C5.11191 10.5562 5.32504 10.3401 5.58796 10.3401H10.3949C10.6578 10.3401 10.871 10.5562 10.871 10.8228C10.871 11.0894 10.6578 11.3055 10.3949 11.3055Z" fill="black"/>
</svg>
