<svg xmlns="http://www.w3.org/2000/svg" width="24" height="24" viewBox="0 0 24 24" fill="none"><rect width="24" height="24" fill="none"/>
<path d="M11.9942 2C8.0885 2 4.91089 5.11865 4.91089 8.9519C4.91089 13.7699 12.0012 22 12.0012 22C12.0012 22 19.0776 13.533 19.0776 8.9519C19.0776 5.11865 15.9001 2 11.9942 2ZM14.1314 10.9874C13.5421 11.5657 12.7682 11.8549 11.9942 11.8549C11.2203 11.8549 10.4462 11.5657 9.85716 10.9874C8.67867 9.83093 8.67867 7.9491 9.85716 6.79248C10.4278 6.23218 11.1869 5.92358 11.9942 5.92358C12.8016 5.92358 13.5605 6.2323 14.1314 6.79248C15.3099 7.9491 15.3099 9.83093 14.1314 10.9874Z" fill="black"/>
</svg>
