<svg xmlns="http://www.w3.org/2000/svg" width="16" height="16" viewBox="0 0 16 16" fill="none"><rect width="16" height="16" fill="none"/>
<path d="M7.99566 1.33337C5.39185 1.33337 3.27344 3.41248 3.27344 5.96798C3.27344 9.17997 8.0003 14.6667 8.0003 14.6667C8.0003 14.6667 12.7179 9.02201 12.7179 5.96798C12.7179 3.41248 10.5996 1.33337 7.99566 1.33337ZM9.42045 7.32499C9.02758 7.71049 8.51166 7.90328 7.99566 7.90328C7.47974 7.90328 6.96365 7.71049 6.57095 7.32499C5.7853 6.554 5.7853 5.29944 6.57095 4.52836C6.95138 4.15483 7.45743 3.9491 7.99566 3.9491C8.53389 3.9491 9.03986 4.15491 9.42045 4.52836C10.2061 5.29944 10.2061 6.554 9.42045 7.32499Z" fill="black"/>
</svg>
