<svg xmlns="http://www.w3.org/2000/svg" width="24" height="24" viewBox="0 0 24 24" fill="none"><rect width="24" height="24" fill="none"/>
<path d="M11.9932 2C8.08752 2 4.90991 5.11865 4.90991 8.9519C4.90991 13.7699 12.0002 22 12.0002 22C12.0002 22 19.0766 13.533 19.0766 8.9519C19.0766 5.11865 15.8991 2 11.9932 2ZM14.1304 10.9874C13.5411 11.5657 12.7673 11.8549 11.9932 11.8549C11.2194 11.8549 10.4452 11.5657 9.85618 10.9874C8.6777 9.83093 8.6777 7.9491 9.85618 6.79248C10.4268 6.23218 11.1859 5.92358 11.9932 5.92358C12.8006 5.92358 13.5595 6.2323 14.1304 6.79248C15.3089 7.9491 15.3089 9.83093 14.1304 10.9874Z" fill="black"/>
</svg>
