<svg xmlns="http://www.w3.org/2000/svg" width="17" height="17" viewBox="0 0 17 17" fill="none"><rect width="17" height="17" fill="none"/>
<path d="M8.00713 2.33514C5.40332 2.33514 3.28491 4.41425 3.28491 6.96975C3.28491 10.1817 8.01178 15.6685 8.01178 15.6685C8.01178 15.6685 12.7294 10.0238 12.7294 6.96975C12.7294 4.41425 10.611 2.33514 8.00713 2.33514ZM9.43193 8.32676C9.03906 8.71226 8.52314 8.90505 8.00713 8.90505C7.49121 8.90505 6.97513 8.71226 6.58242 8.32676C5.79677 7.55577 5.79677 6.30121 6.58242 5.53013C6.96286 5.1566 7.46891 4.95087 8.00713 4.95087C8.54536 4.95087 9.05133 5.15668 9.43193 5.53013C10.2176 6.30121 10.2176 7.55577 9.43193 8.32676Z" fill="black"/>
</svg>
