<svg xmlns="http://www.w3.org/2000/svg" width="24" height="25" viewBox="0 0 24 25" fill="none"><rect width="24" height="25" fill="none"/>
<path fill-rule="evenodd" clip-rule="evenodd" d="M17 9.50574H17.625C18.6588 9.50574 19.5 10.347 19.5 11.3807V20.1307C19.5 21.1645 18.6588 22.0057 17.625 22.0057H6.375C5.34125 22.0057 4.5 21.1645 4.5 20.1307V11.3807C4.5 10.347 5.34125 9.50574 6.375 9.50574H7V7.00574C7 4.24824 9.2425 2.00574 12 2.00574C14.7575 2.00574 17 4.24824 17 7.00574V9.50574ZM12 3.67199C10.1613 3.67199 8.66625 5.16824 8.66625 7.00574V9.50574H12H15.3337V7.00574C15.3337 5.16824 13.8387 3.67199 12 3.67199ZM7 11.0057C6.44772 11.0057 6 11.4535 6 12.0057V19.6057C6 20.158 6.44772 20.6057 7 20.6057H17C17.5523 20.6057 18 20.158 18 19.6057V12.0057C18 11.4535 17.5523 11.0057 17 11.0057H7Z" fill="black"/>
<path d="M12.8313 15.9407V17.8395C12.8313 18.2995 12.4588 18.6732 11.9976 18.6732C11.5363 18.6732 11.1638 18.2995 11.1638 17.8395V15.9407C10.6676 15.652 10.3301 15.1207 10.3301 14.5057C10.3301 13.587 11.0776 12.8395 11.9963 12.8395C12.9151 12.8395 13.6626 13.587 13.6626 14.5057C13.6638 15.1195 13.3263 15.652 12.8313 15.9407Z" fill="black"/>
</svg>
