<svg xmlns="http://www.w3.org/2000/svg" width="16" height="16" viewBox="0 0 16 16" fill="none"><rect width="16" height="16" fill="none"/>
<path d="M11.75 6.33337H11.3333V4.66671C11.3333 2.82837 9.83833 1.33337 8 1.33337C6.16167 1.33337 4.66667 2.82837 4.66667 4.66671V6.33337H4.25C3.56083 6.33337 3 6.89421 3 7.58337V13.4167C3 14.1059 3.56083 14.6667 4.25 14.6667H11.75C12.4392 14.6667 13 14.1059 13 13.4167V7.58337C13 6.89421 12.4392 6.33337 11.75 6.33337ZM5.7775 4.66671C5.7775 3.44171 6.77417 2.44421 8 2.44421C9.22583 2.44421 10.2225 3.44171 10.2225 4.66671V6.33337H5.7775V4.66671ZM8.55583 10.6234V11.8892C8.55583 12.1959 8.3075 12.445 8 12.445C7.6925 12.445 7.44417 12.1959 7.44417 11.8892V10.6234C7.11333 10.4309 6.88833 10.0767 6.88833 9.66671C6.88833 9.05421 7.38667 8.55587 7.99917 8.55587C8.61167 8.55587 9.11 9.05421 9.11 9.66671C9.11083 10.0759 8.88583 10.4309 8.55583 10.6234Z" fill="black"/>
</svg>
