<svg xmlns="http://www.w3.org/2000/svg" width="24" height="25" viewBox="0 0 24 25" fill="none"><rect width="24" height="25" fill="none"/>
<path d="M17.625 9.505H17V7.005C17 4.2475 14.7575 2.005 12 2.005C9.2425 2.005 7 4.2475 7 7.005V9.505H6.375C5.34125 9.505 4.5 10.3463 4.5 11.38V20.13C4.5 21.1638 5.34125 22.005 6.375 22.005H17.625C18.6588 22.005 19.5 21.1638 19.5 20.13V11.38C19.5 10.3463 18.6588 9.505 17.625 9.505ZM8.66625 7.005C8.66625 5.1675 10.1613 3.67126 12 3.67126C13.8387 3.67126 15.3337 5.1675 15.3337 7.005V9.505H8.66625V7.005ZM12.8338 15.94V17.8388C12.8338 18.2988 12.4612 18.6725 12 18.6725C11.5388 18.6725 11.1663 18.2988 11.1663 17.8388V15.94C10.67 15.6513 10.3325 15.12 10.3325 14.505C10.3325 13.5863 11.08 12.8388 11.9987 12.8388C12.9175 12.8388 13.665 13.5863 13.665 14.505C13.6663 15.1188 13.3288 15.6513 12.8338 15.94Z" fill="black"/>
</svg>
