<svg xmlns="http://www.w3.org/2000/svg" width="24" height="24" viewBox="0 0 24 24" fill="none"><rect width="24" height="24" fill="none"/>
<path d="M17.626 9.5H17.001V7C17.001 4.2425 14.7585 2 12.001 2C9.24348 2 7.00098 4.2425 7.00098 7V9.5H6.37598C5.34223 9.5 4.50098 10.3412 4.50098 11.375V20.125C4.50098 21.1588 5.34223 22 6.37598 22H17.626C18.6597 22 19.501 21.1588 19.501 20.125V11.375C19.501 10.3412 18.6597 9.5 17.626 9.5ZM8.66723 7C8.66723 5.1625 10.1622 3.66625 12.001 3.66625C13.8397 3.66625 15.3347 5.1625 15.3347 7V9.5H8.66723V7ZM12.8347 15.935V17.8337C12.8347 18.2937 12.4622 18.6675 12.001 18.6675C11.5397 18.6675 11.1672 18.2937 11.1672 17.8337V15.935C10.671 15.6463 10.3335 15.115 10.3335 14.5C10.3335 13.5813 11.081 12.8338 11.9997 12.8338C12.9185 12.8338 13.666 13.5813 13.666 14.5C13.6672 15.1138 13.3297 15.6463 12.8347 15.935Z" fill="black"/>
</svg>
