<svg xmlns="http://www.w3.org/2000/svg" width="17" height="17" viewBox="0 0 17 17" fill="none"><rect width="17" height="17" fill="none"/>
<path d="M11.7549 6.34003H11.3382V4.67336C11.3382 2.83503 9.84322 1.34003 8.00488 1.34003C6.16655 1.34003 4.67155 2.83503 4.67155 4.67336V6.34003H4.25488C3.56572 6.34003 3.00488 6.90086 3.00488 7.59003V13.4234C3.00488 14.1125 3.56572 14.6734 4.25488 14.6734H11.7549C12.444 14.6734 13.0049 14.1125 13.0049 13.4234V7.59003C13.0049 6.90086 12.444 6.34003 11.7549 6.34003ZM5.78238 4.67336C5.78238 3.44836 6.77905 2.45086 8.00488 2.45086C9.23072 2.45086 10.2274 3.44836 10.2274 4.67336V6.34003H5.78238V4.67336ZM8.56072 10.63V11.8959C8.56072 12.2025 8.31238 12.4517 8.00488 12.4517C7.69738 12.4517 7.44905 12.2025 7.44905 11.8959V10.63C7.11822 10.4375 6.89322 10.0834 6.89322 9.67336C6.89322 9.06086 7.39155 8.56253 8.00405 8.56253C8.61655 8.56253 9.11488 9.06086 9.11488 9.67336C9.11572 10.0825 8.89072 10.4375 8.56072 10.63Z" fill="black"/>
</svg>
