<svg xmlns="http://www.w3.org/2000/svg" width="17" height="17" viewBox="0 0 17 17" fill="none"><rect width="17" height="17" fill="none"/>
<path d="M7.70917 6.13863C7.48645 5.90613 7.09558 5.87223 6.83614 6.0629C6.57671 6.25358 6.54696 6.59662 6.76968 6.82912L8.28742 8.41341L1.88183 8.41341C1.5852 8.41341 1.34473 8.65388 1.34473 8.95051C1.34473 9.24715 1.5852 9.48762 1.88183 9.48762L8.31826 9.48762L6.76979 11.104C6.54706 11.3365 6.57682 11.6795 6.83625 11.8702C7.09568 12.0609 7.48655 12.027 7.70928 11.7945L10.0586 9.34212C10.1642 9.23196 10.213 9.09697 10.2076 8.96514C10.2122 8.8342 10.1633 8.70036 10.0585 8.59098L7.70917 6.13863Z" fill="black"/>
<path d="M9.84408 14.7499C9.53726 14.7499 9.28853 14.5012 9.28853 14.1944C9.28853 13.8875 9.53726 13.6388 9.84408 13.6388H11.3447C12.572 13.6388 13.567 12.6439 13.567 11.4166V6.58843C13.567 5.36114 12.572 4.36622 11.3447 4.36622H9.84408C9.53726 4.36622 9.28853 4.11749 9.28853 3.81067C9.28853 3.50384 9.53726 3.25511 9.84408 3.25511L11.3447 3.25511C13.1857 3.25511 14.6781 4.74749 14.6781 6.58843V11.4166C14.6781 13.2575 13.1857 14.7499 11.3447 14.7499H9.84408Z" fill="black"/>
</svg>
