<svg xmlns="http://www.w3.org/2000/svg" width="16" height="16" viewBox="0 0 16 16" fill="none"><rect width="16" height="16" fill="none"/>
<path d="M7.69794 5.13685C7.47522 4.90435 7.08435 4.87045 6.82491 5.06112C6.56548 5.2518 6.53573 5.59484 6.75845 5.82734L8.27619 7.41163L1.8706 7.41163C1.57397 7.41163 1.3335 7.6521 1.3335 7.94874C1.3335 8.24537 1.57397 8.48584 1.8706 8.48584L8.30703 8.48584L6.75856 10.1022C6.53583 10.3347 6.56559 10.6777 6.82502 10.8684C7.08445 11.0591 7.47532 11.0252 7.69805 10.7927L10.0474 8.34035C10.1529 8.23018 10.2018 8.0952 10.1964 7.96336C10.201 7.83243 10.1521 7.69858 10.0473 7.5892L7.69794 5.13685Z" fill="black"/>
<path d="M9.83285 13.7481C9.52603 13.7481 9.2773 13.4994 9.2773 13.1926C9.2773 12.8858 9.52603 12.637 9.83285 12.637H11.3335C12.5608 12.637 13.5557 11.6421 13.5557 10.4148V5.58666C13.5557 4.35936 12.5608 3.36444 11.3335 3.36444H9.83285C9.52603 3.36444 9.2773 3.11571 9.2773 2.80889C9.2773 2.50206 9.52603 2.25333 9.83285 2.25333L11.3335 2.25333C13.1745 2.25333 14.6668 3.74571 14.6668 5.58666V10.4148C14.6668 12.2557 13.1744 13.7481 11.3335 13.7481H9.83285Z" fill="black"/>
</svg>
