<svg xmlns="http://www.w3.org/2000/svg" width="24" height="24" viewBox="0 0 24 24" fill="none"><rect width="24" height="24" fill="none"/>
<path d="M11.5476 7.70527C11.2136 7.35653 10.6273 7.30567 10.2381 7.59168C9.84895 7.87769 9.80432 8.39226 10.1384 8.741L12.415 11.1174L2.80664 11.1174C2.36168 11.1174 2.00098 11.4781 2.00098 11.9231C2.00098 12.3681 2.36168 12.7288 2.80664 12.7288L12.4613 12.7288L10.1386 15.1533C9.80448 15.5021 9.84911 16.0166 10.2383 16.3026C10.6274 16.5886 11.2137 16.5378 11.5478 16.189L15.0718 12.5105C15.2301 12.3453 15.3034 12.1428 15.2953 11.945C15.3022 11.7486 15.2288 11.5479 15.0716 11.3838L11.5476 7.70527Z" fill="black"/>
<path d="M14.75 20.6222C14.2898 20.6222 13.9167 20.2491 13.9167 19.7889C13.9167 19.3286 14.2898 18.9555 14.75 18.9555H17.001C18.8419 18.9555 20.3343 17.4631 20.3343 15.6222V8.37998C20.3343 6.53904 18.8419 5.04666 17.001 5.04666H14.75C14.2898 5.04666 13.9167 4.67356 13.9167 4.21333C13.9167 3.75309 14.2898 3.38 14.75 3.38L17.001 3.38C19.7624 3.38 22.001 5.61856 22.001 8.37998V15.6222C22.001 18.3836 19.7624 20.6222 17.001 20.6222H14.75Z" fill="black"/>
</svg>
