<svg xmlns="http://www.w3.org/2000/svg" width="25" height="25" viewBox="0 0 25 25" fill="none"><rect width="25" height="25" fill="none"/>
<path d="M11.72 7.70527C11.3859 7.35653 10.7996 7.30568 10.4105 7.59169C10.0213 7.8777 9.97668 8.39227 10.3108 8.74101L12.5874 11.1174L2.979 11.1174C2.53405 11.1174 2.17334 11.4781 2.17334 11.9231C2.17334 12.3681 2.53405 12.7288 2.979 12.7288L12.6336 12.7288L10.3109 15.1533C9.97685 15.5021 10.0215 16.0166 10.4106 16.3026C10.7998 16.5886 11.3861 16.5378 11.7202 16.189L15.2442 12.5105C15.4025 12.3453 15.4757 12.1428 15.4676 11.945C15.4745 11.7486 15.4012 11.5479 15.244 11.3838L11.72 7.70527Z" fill="black"/>
<path d="M14.9224 20.6222C14.4621 20.6222 14.089 20.2491 14.089 19.7889C14.089 19.3286 14.4621 18.9555 14.9224 18.9555H17.1734C19.0143 18.9555 20.5067 17.4631 20.5067 15.6222V8.37998C20.5067 6.53904 19.0143 5.04666 17.1734 5.04666H14.9224C14.4621 5.04666 14.089 4.67357 14.089 4.21333C14.089 3.7531 14.4621 3.38 14.9224 3.38L17.1734 3.38C19.9348 3.38 22.1733 5.61857 22.1733 8.37998V15.6222C22.1733 18.3836 19.9348 20.6222 17.1734 20.6222H14.9224Z" fill="black"/>
</svg>
