<svg xmlns="http://www.w3.org/2000/svg" width="25" height="24" viewBox="0 0 25 24" fill="none"><rect width="25" height="24" fill="none"/>
<path d="M9.08893 3.38C9.54917 3.38 9.92226 3.76091 9.92226 4.23078C9.92226 4.70065 9.54917 5.08156 9.08893 5.08156H7.0049C5.16395 5.08156 3.67156 6.60519 3.67156 8.48469L3.67156 15.5153C3.67156 17.3948 5.16395 18.9184 7.0049 18.9184H9.08893C9.54917 18.9184 9.92226 19.2993 9.92226 19.7692C9.92226 20.2391 9.54917 20.62 9.08893 20.62H7.0049C4.24347 20.62 2.00488 18.3346 2.00488 15.5153L2.00488 8.48469C2.00488 5.66545 4.24347 3.38 7.0049 3.38L9.08893 3.38Z" fill="black"/>
<path d="M18.3339 7.70491C18.0067 7.35621 17.4324 7.30536 17.0513 7.59134C16.6702 7.87731 16.6265 8.39181 16.9537 8.74051L19.183 11.1163L9.77315 11.1163C9.33738 11.1163 8.98411 11.4769 8.98411 11.9218C8.98411 12.3667 9.33737 12.7274 9.77315 12.7274L19.2289 12.7274L16.954 15.1518C16.6268 15.5005 16.6705 16.015 17.0516 16.301C17.4327 16.5869 18.0069 16.5361 18.3341 16.1874L21.7854 12.5093C21.9409 12.3437 22.0126 12.1406 22.0042 11.9424C22.0105 11.7466 21.9386 11.5465 21.7852 11.383L18.3339 7.70491Z" fill="black"/>
</svg>
