<svg xmlns="http://www.w3.org/2000/svg" width="28" height="44" viewBox="0 0 28 44" fill="none"><rect width="28" height="44" fill="none"/>
<path d="M13.9943 3.83776C15.1582 5.53815 16.0776 7.38647 16.7268 9.33097C16.422 9.482 16.1279 9.6528 15.8464 9.84221L15.8381 9.84783C15.4518 10.1083 15.0904 10.4022 14.7583 10.7261L13.9943 11.4702L13.2316 10.7261C12.8994 10.4022 12.538 10.1083 12.1517 9.84783L12.1434 9.84221C11.862 9.6528 11.5679 9.482 11.263 9.33097C11.9116 7.38898 12.8295 5.54284 13.9911 3.844C13.9922 3.84149 13.9937 3.83917 13.9956 3.83713L13.9943 3.83776ZM7.74734 10.9427H7.75245C7.90653 10.9427 8.06317 10.949 8.21789 10.9621H8.22364C8.18528 11.1337 8.1482 11.306 8.11368 11.4789C7.7937 13.0744 7.63375 14.6966 7.63609 16.3223C7.63609 16.7714 7.64845 17.2177 7.67317 17.6613L7.0057 18.3136L7.00059 18.3186C6.38198 18.955 5.81509 19.6375 5.30507 20.3598L5.29676 20.3723C5.21556 20.4878 5.13501 20.6045 5.05637 20.7225L4.03343 19.7237C3.15755 18.8739 2.61671 17.7497 2.50606 16.5489C2.44399 15.8756 2.51762 15.197 2.7228 14.5514C2.9757 13.7581 3.42244 13.0368 4.02449 12.4496C4.57958 11.9053 5.25303 11.4899 5.99492 11.2342L6.01026 11.2293L6.02177 11.2249H6.02624C6.07355 11.2087 6.12534 11.1918 6.17393 11.1774C6.55991 11.0594 6.95847 10.9851 7.36182 10.9558H7.38419C7.50439 10.9471 7.62714 10.9427 7.74734 10.9427ZM20.2412 10.9427C20.3614 10.9427 20.4842 10.9471 20.6044 10.9552H20.6268C21.0301 10.9845 21.4287 11.0588 21.8146 11.1768C21.8632 11.1918 21.915 11.208 21.9623 11.2243H21.9668L21.9783 11.2286L21.9937 11.2336C22.7355 11.4893 23.409 11.9046 23.9641 12.449C24.5662 13.0363 25.013 13.7579 25.2658 14.5514C25.471 15.197 25.5446 15.8756 25.4825 16.5489C25.3731 17.7494 24.8334 18.8737 23.9583 19.7237L22.9354 20.7225C22.8568 20.6045 22.7762 20.4878 22.695 20.3723L22.6867 20.3598C22.1767 19.6375 21.6098 18.955 20.9912 18.3186L20.9861 18.3136L20.3186 17.6613C20.3429 17.2181 20.3552 16.7718 20.3557 16.3223C20.3573 14.6969 20.1967 13.0752 19.8762 11.4802C19.8416 11.3073 19.8046 11.135 19.7662 10.9633H19.772C19.9267 10.9502 20.0833 10.9434 20.2374 10.9434H20.2425L20.2412 10.9427ZM10.6058 11.7605C10.845 11.9113 11.0712 12.0808 11.2822 12.2673L11.2944 12.278C11.3583 12.3323 11.4158 12.3884 11.4753 12.4459L12.4548 13.4003L13.7942 14.7062C13.847 14.7577 13.9177 14.788 13.9924 14.7911H14.0013C14.076 14.7878 14.1467 14.7573 14.1995 14.7056L15.5389 13.3997L16.5184 12.4452C16.5778 12.3878 16.6379 12.3316 16.6993 12.2773L16.7115 12.2667C16.9225 12.0801 17.1487 11.9106 17.3879 11.7598C17.4128 11.8797 17.4371 12.0008 17.4608 12.1213C17.7043 13.3884 17.8365 14.6736 17.8559 15.9628C17.8559 16.0808 17.8559 16.2006 17.8559 16.3205C17.8559 16.4803 17.8559 16.6376 17.8508 16.7967C17.8388 17.3523 17.8062 17.9025 17.7529 18.4472C17.7488 18.4898 17.7544 18.5327 17.7692 18.573C17.784 18.6132 17.8077 18.6498 17.8386 18.68L18.953 19.7687C18.9601 19.7777 18.9678 19.7862 18.976 19.7943C19.1205 19.937 19.2616 20.0827 19.3992 20.2312L19.5162 20.3561L19.5213 20.3623C19.8717 20.7484 20.2008 21.1525 20.5072 21.5727C20.7233 21.8686 20.9279 22.173 21.121 22.486L17.8731 25.6527L17.127 26.3855L16.4954 27.0004C15.7373 27.7407 14.8991 28.3983 13.9956 28.9617C13.0921 28.3979 12.254 27.74 11.4958 26.9998L10.8641 26.3849L10.1174 25.6564L6.86953 22.4897C7.06261 22.1768 7.2672 21.8721 7.48329 21.5758C7.78952 21.1553 8.1186 20.751 8.46914 20.3648L8.47426 20.3586L8.59126 20.2337C8.7285 20.086 8.86958 19.9404 9.0145 19.7968C9.02268 19.7887 9.03037 19.7802 9.03751 19.7712L10.1519 18.6825C10.1828 18.6523 10.2065 18.6157 10.2213 18.5755C10.2361 18.5352 10.2417 18.4923 10.2375 18.4497C10.1851 17.905 10.1525 17.3548 10.1397 16.7992C10.1397 16.6401 10.1346 16.4828 10.1346 16.323C10.1346 16.2031 10.1346 16.0833 10.1346 15.9653C10.154 14.6761 10.2861 13.3909 10.5297 12.1238C10.5534 12.0033 10.5777 11.8822 10.6026 11.7623L10.6058 11.7605ZM5.71873 24.8031L8.36941 27.388L8.98701 27.9954L8.99404 28.0029L10.3629 29.3487L11.3219 30.2951L11.2797 30.3107C11.1742 30.3494 11.0616 30.3893 10.9542 30.4255C9.39228 30.9577 7.74963 31.2291 6.09529 31.2283H6.08507C5.65799 31.2283 5.23347 31.2108 4.81407 31.1758C4.77698 30.7639 4.75823 30.3477 4.7578 29.9274C4.75613 28.5009 4.9716 27.0822 5.39714 25.7176L5.40161 25.7039C5.48984 25.4205 5.58766 25.1421 5.69315 24.8655C5.70082 24.8462 5.70786 24.8262 5.71553 24.8068L5.71873 24.8031ZM22.2775 24.8031C22.2852 24.8224 22.2922 24.8424 22.2999 24.8618C22.4054 25.1371 22.5032 25.4167 22.5914 25.7001L22.5959 25.7138C23.0215 27.0784 23.2369 28.4972 23.2352 29.9236C23.2352 30.3456 23.2165 30.7618 23.179 31.1721C22.7596 31.2071 22.3351 31.2245 21.908 31.2245H21.8978C20.2434 31.2254 18.6008 30.954 17.0388 30.4218C16.9314 30.3856 16.8195 30.3456 16.7134 30.3069L16.6712 30.2913L17.6302 29.345L18.999 27.9992L19.006 27.9917L19.6236 27.3843L22.2743 24.7994L22.2775 24.8031ZM13.9943 0.00124864C13.9614 0.00110424 13.9287 0.00659811 13.8977 0.0174792C13.8801 0.0231586 13.8632 0.0306966 13.8472 0.0399543C13.8121 0.0595589 13.7815 0.0858873 13.7571 0.117358C13.3364 0.597598 12.9347 1.09303 12.5519 1.60365C10.9586 3.72947 9.72222 6.08948 8.88919 8.59501C8.54812 8.54574 8.20399 8.51946 7.85922 8.51635H7.75053C7.51525 8.51635 7.2787 8.52697 7.04343 8.54819C5.57586 8.68025 4.17722 9.21787 3.01132 10.0981C1.84542 10.9783 0.960547 12.1647 0.460339 13.5182C-0.039868 14.8718 -0.134699 16.3364 0.18696 17.7407C0.508618 19.145 1.23344 20.4307 2.27654 21.4472L3.56033 22.6994L3.81158 22.9454C3.63811 23.3174 3.47828 23.6965 3.33208 24.0827C3.3295 24.0883 3.32757 24.0942 3.32633 24.1002C3.23469 24.3428 3.14945 24.5882 3.0706 24.8362C2.53805 26.4838 2.2685 28.2016 2.27143 29.9293C2.27143 30.3396 2.28655 30.7462 2.31682 31.149C2.3171 31.1513 2.3171 31.1536 2.31682 31.1559C2.36619 31.8205 2.45607 32.4817 2.58598 33.1359C2.59793 33.1943 2.62773 33.2477 2.67146 33.2892C2.71518 33.3306 2.77076 33.3582 2.83085 33.3681C3.50062 33.4931 4.17735 33.5794 4.85754 33.6266C5.26543 33.6549 5.67695 33.669 6.0921 33.669H6.1068C7.36796 33.6686 8.6253 33.5338 9.85651 33.267C10.3254 33.1646 10.7872 33.0444 11.2419 32.9062L11.4638 32.8363C10.9878 33.3446 10.7225 34.0077 10.7196 34.6965C10.7202 35.0732 10.801 35.4456 10.9568 35.7901L13.9936 43.9757V44L13.9981 43.9875L14.0026 44V43.9757L17.0394 35.7901C17.1952 35.4456 17.276 35.0732 17.2766 34.6965C17.2737 34.0075 17.0084 33.3443 16.5324 32.8357L16.7543 32.905C17.2082 33.0431 17.67 33.1634 18.1397 33.2658C19.3709 33.5325 20.6283 33.6673 21.8894 33.6678H21.9041C22.3197 33.6678 22.7312 33.6536 23.1387 33.6253C23.8189 33.5782 24.4956 33.4919 25.1654 33.3669C25.2255 33.3569 25.2811 33.3294 25.3248 33.2879C25.3685 33.2465 25.3983 33.193 25.4103 33.1347C25.5402 32.4805 25.63 31.8193 25.6794 31.1546C25.6791 31.1523 25.6791 31.15 25.6794 31.1478C25.7088 30.7453 25.724 30.3388 25.7248 29.928C25.7277 28.2003 25.4582 26.4825 24.9256 24.8349C24.8459 24.5852 24.7607 24.3399 24.6699 24.099C24.6687 24.0929 24.6667 24.0871 24.6642 24.0815C24.5184 23.6957 24.3586 23.3166 24.1847 22.9441L24.4366 22.6982L25.7203 21.446C26.7645 20.4299 27.4902 19.1441 27.8125 17.7395C28.1348 16.3349 28.0402 14.8698 27.5398 13.5158C27.0395 12.1618 26.1541 10.9753 24.9875 10.0952C23.8209 9.2151 22.4216 8.67803 20.9535 8.54694C20.7182 8.52571 20.4816 8.5151 20.2464 8.5151H20.1319C19.7871 8.51821 19.443 8.54449 19.1019 8.59376C18.2689 6.08823 17.0325 3.72822 15.4392 1.6024C15.0556 1.09178 14.6539 0.596348 14.234 0.116108C14.2096 0.0846376 14.179 0.0583092 14.1439 0.0387046C14.1279 0.0294469 14.111 0.0219127 14.0934 0.0162333C14.0624 0.00535224 14.0297 -0.000141622 13.9968 2.77403e-06H13.9943V0.00124864Z" fill="white"/>
<path d="M7.74274 8.51138H7.7696C7.9614 8.51138 8.15767 8.51887 8.35075 8.53323H8.36354C8.53702 8.54696 8.70942 8.5659 8.88076 8.59003C8.7529 8.95521 8.64549 9.29853 8.55534 9.61939C8.45241 9.98394 8.22353 10.9615 8.22353 10.9615H8.21713C8.06241 10.9477 7.9077 10.9403 7.7549 10.9403H7.73955C7.6168 10.9403 7.49341 10.9446 7.37193 10.9527C6.99436 10.9789 6.62075 11.0446 6.25757 11.1487L6.96084 8.54821L7.04331 8.54072C7.27284 8.52012 7.50363 8.51013 7.73443 8.51013H7.74274V8.51138Z" fill="url(#paint0_linear_1001_498)"/>
<path d="M11.2624 9.33099L11.3263 9.36408L11.3359 9.3697C11.5729 9.49073 11.8031 9.62387 12.0257 9.76858L12.036 9.77544C12.073 9.79916 12.1076 9.82226 12.1434 9.84661L12.1613 9.85972C12.4232 10.0371 12.6734 10.2304 12.9106 10.4384L12.176 13.1438L11.4606 12.4446C11.4005 12.3822 11.3404 12.3298 11.2784 12.2742L11.2681 12.2655C11.1172 12.1319 10.9586 12.0069 10.7931 11.891L10.7816 11.8835C10.7177 11.8398 10.6537 11.7979 10.5898 11.7586C10.5636 11.8785 10.5393 11.9996 10.5156 12.1207C10.6209 11.5726 10.7217 11.1246 10.818 10.7767C10.9169 10.4101 11.0631 9.92838 11.2566 9.33162L11.2624 9.33099Z" fill="url(#paint1_linear_1001_498)"/>
<path d="M3.49247 22.6333L4.84723 23.9592L5.71224 24.8062C5.70393 24.8262 5.69626 24.8456 5.68923 24.8649C5.5831 25.1408 5.48549 25.4203 5.39641 25.7032L5.39257 25.7139C5.25107 26.1654 5.13215 26.6256 5.03583 27.0946L2.97461 25.0971C3.00146 25.0072 3.02959 24.918 3.05836 24.8293C3.13934 24.5796 3.22587 24.3339 3.31793 24.0921L3.32368 24.0765C3.47073 23.6899 3.63142 23.3106 3.80575 22.9385L3.55512 22.6932L3.49119 22.6308L3.49247 22.6333Z" fill="url(#paint2_linear_1001_498)"/>
<path d="M6.34776 19.0365L8.17946 20.6976C7.93524 20.9814 7.70273 21.2748 7.48195 21.5777C7.47911 21.5822 7.4759 21.5863 7.47235 21.5902C7.25924 21.8815 7.05764 22.1814 6.86754 22.4897L5.98654 21.6295L4.7002 20.373L5.05694 20.7225L5.09147 20.672L5.09658 20.6645L5.10298 20.6551L5.14198 20.5977C5.23617 20.4612 5.33165 20.3257 5.4284 20.1913C5.71781 19.7939 6.02383 19.4094 6.34648 19.0377L6.34776 19.0365Z" fill="url(#paint3_linear_1001_498)"/>
<path d="M20.2457 8.51138H20.2188C20.027 8.51138 19.8308 8.51887 19.637 8.53323H19.6249C19.4514 8.54696 19.279 8.5659 19.1077 8.59003C19.2355 8.95521 19.3429 9.29853 19.4331 9.61939C19.536 9.98394 19.7649 10.9615 19.7649 10.9615H19.7713C19.926 10.9477 20.0807 10.9403 20.2335 10.9403H20.2489C20.3716 10.9403 20.495 10.9446 20.6165 10.9527C20.9941 10.9789 21.3677 11.0446 21.7309 11.1487L21.0276 8.54821L20.9451 8.54072C20.7156 8.52012 20.4848 8.51013 20.254 8.51013H20.2457V8.51138Z" fill="url(#paint4_linear_1001_498)"/>
<path d="M16.7261 9.33099L16.6622 9.36408L16.6526 9.3697C16.4156 9.49073 16.1853 9.62387 15.9627 9.76858L15.9525 9.77544C15.9154 9.79916 15.8809 9.82226 15.8451 9.84661L15.8272 9.85972C15.5653 10.0371 15.315 10.2304 15.0779 10.4384L15.8125 13.1438L16.5279 12.4446C16.588 12.3822 16.6481 12.3298 16.7101 12.2742L16.7203 12.2655C16.8712 12.1319 17.0298 12.0069 17.1954 11.891L17.2069 11.8835C17.2708 11.8398 17.3347 11.7979 17.3987 11.7586C17.4242 11.8785 17.4492 11.9996 17.4728 12.1207C17.3676 11.5726 17.2668 11.1246 17.1704 10.7767C17.0715 10.4101 16.9253 9.92838 16.7318 9.33162L16.7261 9.33099Z" fill="url(#paint5_linear_1001_498)"/>
<path d="M24.4961 22.6333L23.1414 23.9592L22.2764 24.8062C22.2847 24.8262 22.2923 24.8456 22.2994 24.8649C22.4055 25.1408 22.5031 25.4203 22.5922 25.7032L22.596 25.7139C22.7375 26.1654 22.8565 26.6256 22.9528 27.0946L25.014 25.0971C24.9871 25.0079 24.959 24.918 24.9296 24.8293C24.8491 24.5796 24.7638 24.3339 24.6739 24.0921L24.6681 24.0765C24.5211 23.6899 24.3604 23.3106 24.1861 22.9385L24.4367 22.6932L24.5006 22.6308L24.4961 22.6333Z" fill="url(#paint6_linear_1001_498)"/>
<path d="M21.6408 19.0365L19.8123 20.6976C20.0565 20.9814 20.289 21.2748 20.5098 21.5777C20.5126 21.5822 20.5158 21.5863 20.5194 21.5902C20.7325 21.8815 20.9341 22.1816 21.1242 22.4904L22.0052 21.6295L23.2915 20.373L22.9348 20.7225L22.9003 20.672L22.8951 20.6645L22.8887 20.6551L22.8497 20.5977C22.7558 20.461 22.6579 20.3255 22.5627 20.1913C22.2737 19.7939 21.9679 19.4094 21.6452 19.0377L21.6408 19.0365Z" fill="url(#paint7_linear_1001_498)"/>
<defs>
<linearGradient id="paint0_linear_1001_498" x1="8.78167" y1="10.1412" x2="7.43913" y2="9.82704" gradientUnits="userSpaceOnUse">
<stop stop-color="#E7D3D9"/>
<stop offset="1" stop-color="white"/>
</linearGradient>
<linearGradient id="paint1_linear_1001_498" x1="10.4274" y1="10.8529" x2="11.7651" y2="11.2702" gradientUnits="userSpaceOnUse">
<stop stop-color="#E7D3D9"/>
<stop offset="1" stop-color="white"/>
</linearGradient>
<linearGradient id="paint2_linear_1001_498" x1="5.22954" y1="23.8793" x2="4.1199" y2="25.0668" gradientUnits="userSpaceOnUse">
<stop stop-color="#E7D3D9"/>
<stop offset="1" stop-color="white"/>
</linearGradient>
<linearGradient id="paint3_linear_1001_498" x1="5.47507" y1="21.7207" x2="6.69815" y2="20.5179" gradientUnits="userSpaceOnUse">
<stop stop-color="#E7D3D9"/>
<stop offset="1" stop-color="white"/>
</linearGradient>
<linearGradient id="paint4_linear_1001_498" x1="19.2068" y1="10.1412" x2="20.5493" y2="9.82704" gradientUnits="userSpaceOnUse">
<stop stop-color="#E7D3D9"/>
<stop offset="1" stop-color="white"/>
</linearGradient>
<linearGradient id="paint5_linear_1001_498" x1="17.5611" y1="10.8529" x2="16.2234" y2="11.2702" gradientUnits="userSpaceOnUse">
<stop stop-color="#E7D3D9"/>
<stop offset="1" stop-color="white"/>
</linearGradient>
<linearGradient id="paint6_linear_1001_498" x1="22.7591" y1="23.8793" x2="23.8687" y2="25.0668" gradientUnits="userSpaceOnUse">
<stop stop-color="#E7D3D9"/>
<stop offset="1" stop-color="white"/>
</linearGradient>
<linearGradient id="paint7_linear_1001_498" x1="22.5135" y1="21.7207" x2="21.2904" y2="20.5179" gradientUnits="userSpaceOnUse">
<stop stop-color="#E7D3D9"/>
<stop offset="1" stop-color="white"/>
</linearGradient>
</defs>
</svg>
