<svg xmlns="http://www.w3.org/2000/svg" width="17" height="17" viewBox="0 0 17 17" fill="none"><rect width="17" height="17" fill="none"/>
<path d="M6.06742 3.25511C6.37425 3.25511 6.62298 3.50905 6.62298 3.8223C6.62298 4.13555 6.37425 4.38949 6.06742 4.38949H4.67807C3.45077 4.38949 2.45584 5.40524 2.45584 6.65824L2.45584 11.3453C2.45584 12.5983 3.45077 13.6141 4.67807 13.6141H6.06742C6.37425 13.6141 6.62298 13.868 6.62298 14.1813C6.62298 14.4945 6.37425 14.7484 6.06742 14.7484H4.67807C2.83712 14.7484 1.34473 13.2248 1.34473 11.3453L1.34473 6.65824C1.34473 4.77874 2.83712 3.25511 4.67807 3.25511L6.06742 3.25511Z" fill="black"/>
<path d="M12.2307 6.13838C12.0126 5.90592 11.6298 5.87202 11.3757 6.06267C11.1216 6.25332 11.0925 6.59632 11.3106 6.82878L12.7968 8.41264L6.52357 8.41263C6.23306 8.41263 5.99754 8.65307 5.99754 8.94967C5.99754 9.24627 6.23305 9.48671 6.52357 9.48671L12.8274 9.48671L11.3108 11.103C11.0926 11.3354 11.1218 11.6784 11.3759 11.8691C11.63 12.0597 12.0128 12.0258 12.2309 11.7934L14.5318 9.34133C14.6354 9.2309 14.6832 9.09552 14.6776 8.96338C14.6818 8.83283 14.6339 8.69947 14.5316 8.59043L12.2307 6.13838Z" fill="black"/>
</svg>
