<svg xmlns="http://www.w3.org/2000/svg" width="22" height="36" viewBox="0 0 22 36" fill="none"><rect width="22" height="36" fill="none"/>
<path fill-rule="evenodd" clip-rule="evenodd" d="M10.1619 0.495598C7.82509 2.15287 5.21827 4.88345 3.5389 7.43277C-0.261717 13.2024 -1.03514 19.8818 1.38376 26.0442C1.91953 27.4091 3.22424 30.0912 3.35157 30.0895C3.39976 30.0889 3.7847 29.8277 4.20696 29.5089C5.7407 28.3512 9.13901 25.8044 10.3944 24.8719C12.6605 23.1882 14.2761 21.8425 15.4667 20.6468C17.4435 18.6615 17.9674 17.6097 17.8906 15.7804C17.7981 13.5784 16.373 11.9001 14.2668 11.5125C13.3813 11.3495 12.462 11.4909 11.5869 11.9248L10.9939 12.2188L10.4029 11.9218C8.20566 10.8182 5.55325 11.7499 4.48595 14.0003C4.21464 14.5723 4.15287 14.885 4.11235 15.8892C4.06688 17.0191 4.08507 17.1401 4.41107 17.8673C5.00177 19.1853 6.2877 20.6404 8.48229 22.4742C8.84006 22.7731 9.16972 23.0176 9.21508 23.0176C9.33095 23.0176 10.704 22.0258 10.7 21.945C10.6983 21.9086 10.2938 21.582 9.80129 21.2194C9.30875 20.8567 8.42004 20.0738 7.82615 19.4794C6.14099 17.7929 5.63475 16.8515 5.80259 15.7161C6.08146 13.8283 7.79131 12.7341 9.37902 13.4274C9.7166 13.5748 10.1724 13.8974 10.3921 14.1441C10.6118 14.3909 10.843 14.6252 10.9058 14.6645C10.9686 14.7039 11.3157 14.4456 11.677 14.0905C12.8242 12.9626 14.1261 12.8837 15.2086 13.8763C16.2107 14.7952 16.4786 16.1306 15.9 17.3232C15.4045 18.3443 13.0851 20.5771 10.6015 22.424C9.40855 23.311 7.44889 24.7785 6.24647 25.685C5.04405 26.5916 4.02388 27.3334 3.97935 27.3334C3.79568 27.3334 2.8126 24.9445 2.44987 23.617C1.91292 21.6515 1.79161 20.7429 1.79374 18.7018C1.79586 16.5685 2.01001 15.1993 2.63767 13.3071C3.31353 11.2695 4.80959 8.56663 6.25415 6.77341C7.38428 5.37054 10.1066 2.71344 10.9007 2.23822C11.2427 2.03358 14.5497 5.20522 15.947 7.07792C18.13 10.0034 19.4022 12.7408 19.9914 15.7798C20.276 17.2477 20.2719 20.1571 19.9829 21.6989C19.5866 23.814 18.282 27.4125 17.9574 27.2862C17.8746 27.2539 16.7268 26.4245 15.4067 25.4431C14.0867 24.4616 12.9428 23.6207 12.865 23.5746C12.7404 23.5006 11.3107 24.418 11.3042 24.5761C11.3028 24.6091 11.951 25.1267 12.7447 25.7264C16.5761 28.6212 18.4263 29.996 18.5619 30.0489C18.8383 30.1565 20.5793 26.4239 21.1146 24.5761C22.451 19.9624 22.2801 15.9 20.564 11.4891C19.2288 8.05736 16.6518 4.53411 13.4791 1.80269C12.3911 0.866038 11.1994 0 10.9986 0C10.9227 0 10.5461 0.222983 10.1619 0.495598ZM9.15283 26.4563C8.50048 26.8672 8.25255 27.8989 8.62863 28.637C8.80404 28.9813 10.0437 30.2134 10.6705 30.6664L11.0278 30.9246L11.919 30.1528C12.4092 29.7283 12.9555 29.1878 13.133 28.9516C13.9912 27.8095 13.3404 26.2619 11.9994 26.2563C11.7702 26.2553 11.4581 26.3431 11.3056 26.4514C11.0487 26.6341 11.0048 26.6341 10.7002 26.4514C10.283 26.2012 9.55395 26.2036 9.15283 26.4563ZM6.6561 30.4497C6.2369 30.7844 6.21127 31.4593 6.59881 31.9607C6.96674 32.4365 7.53169 32.948 7.7854 33.0348C8.06002 33.1288 9.19559 32.16 9.40111 31.6564C9.70668 30.9079 9.18638 30.1392 8.45914 30.2647C7.92773 30.3563 7.76898 30.3565 7.33526 30.266C7.07175 30.211 6.89516 30.2588 6.6561 30.4497ZM12.776 30.5154C12.5709 30.7401 12.4751 30.9806 12.4751 31.2712C12.4751 31.6341 12.5796 31.8005 13.1794 32.3926C13.5668 32.7749 13.974 33.0878 14.0842 33.0878C14.1944 33.0878 14.595 32.7728 14.9744 32.3877C15.5672 31.786 15.6642 31.6251 15.6642 31.2434C15.6642 30.6133 15.2059 30.1555 14.6828 30.2629C14.2233 30.3572 14.074 30.357 13.5143 30.2608C13.1387 30.1964 13.0347 30.2322 12.776 30.5154ZM10.0446 32.4258C9.81381 32.7832 9.96134 33.1678 10.5203 33.6659C11.0021 34.0952 11.1214 34.0748 11.6926 33.4656C12.0495 33.0849 12.1318 32.611 11.8922 32.3179C11.7964 32.2008 11.5102 32.1482 10.9855 32.1513C10.3232 32.1551 10.1952 32.1925 10.0446 32.4258ZM8.4198 34.1268C8.22397 34.3256 8.37256 34.841 8.70187 35.105L9.04972 35.3838L9.39603 35.105C9.82515 34.7594 9.8711 34.6561 9.74672 34.3166C9.66286 34.0876 9.56116 34.0469 9.07322 34.0469C8.75714 34.0469 8.46304 34.0829 8.4198 34.1268ZM12.2554 34.2066C12.0619 34.4431 12.2536 34.9097 12.6534 35.1756C12.9666 35.3838 12.977 35.3818 13.3191 35.0491C13.5581 34.8168 13.6559 34.6167 13.6319 34.4089C13.6005 34.1357 13.5395 34.1035 12.9961 34.0712C12.5847 34.0469 12.3509 34.0896 12.2554 34.2066ZM10.6694 35.3202C10.5076 35.4843 10.5871 35.8377 10.8133 35.9606C11.0844 36.1078 11.4465 35.8178 11.3873 35.501C11.35 35.3005 10.8202 35.1671 10.6694 35.3202Z" fill="white"/>
</svg>
