<svg xmlns="http://www.w3.org/2000/svg" width="44" height="44" viewBox="0 0 44 44" fill="none"><rect width="44" height="44" fill="none"/>
<path d="M5.2992 33.8132C2.74333 34.1403 0.711472 36.4378 1.32757 39.3184C1.40511 38.4597 2.73909 38.1141 3.16042 38.8289C3.84285 39.9878 1.9888 40.6609 0.979539 41.3239C0.0759874 41.9173 -0.0633471 42.8384 0.021162 43.6326C0.838992 42.3744 2.77028 42.7597 4.16665 42.7197C10.2722 42.5446 10.3631 36.9167 8.70652 34.4505C8.70683 34.4493 6.82278 33.6175 5.2992 33.8132Z" fill="white"/>
<path d="M18.2126 32.5371C17.2667 32.5768 16.2377 32.3578 15.2266 31.8658C15.0988 31.8035 14.9548 31.7827 14.8145 31.8061C14.6743 31.8296 14.5448 31.8962 14.4442 31.9967L12.2473 34.1936C12.094 34.3469 11.8278 34.3309 11.6536 34.157L9.22649 31.7311C9.05262 31.5572 9.03657 31.2906 9.18984 31.1371L11.3868 28.9401C11.4873 28.8396 11.554 28.7101 11.5774 28.5699C11.6009 28.4296 11.58 28.2856 11.5176 28.1577C11.1017 27.303 10.8815 26.4349 10.8464 25.6152C10.3766 25.4638 9.91862 25.3138 9.47668 25.1642C9.44276 26.1756 9.64268 27.25 10.0858 28.308L8.22328 30.1705C7.53691 30.8569 7.55327 31.9906 8.25963 32.6973L10.6868 35.1238C11.3928 35.8302 12.5266 35.8469 13.213 35.1602L15.0758 33.2977C16.2822 33.8029 17.5099 33.9943 18.6418 33.8789C18.4989 33.4427 18.3558 32.9955 18.2126 32.5371Z" fill="white"/>
<path d="M28.9929 34.9688L30.0316 28.5645C32.0713 26.8038 33.4846 25.2048 33.6452 25.0236C33.6491 25.0191 33.6534 25.0146 33.6576 25.0091C40.6343 16.693 43.0475 8.35445 43.762 5.15552C44.2164 3.11549 44.0198 1.65248 43.1744 0.807084C41.8653 -0.50205 39.2083 0.151003 38.8369 0.25096C35.6092 0.983675 27.2473 3.43232 18.9997 10.3512L18.9857 10.3636C18.804 10.5226 17.2053 11.9387 15.4442 13.9775L9.04031 15.0161C8.80871 15.0486 8.59444 15.157 8.43117 15.3245L3.52177 20.4117C3.33665 20.6071 3.23308 20.8658 3.2322 21.135C3.23159 21.2444 3.24668 21.3534 3.27702 21.4585C3.32725 21.6269 3.41371 21.7824 3.53034 21.9138C3.64698 22.0453 3.79096 22.1497 3.95219 22.2197C4.00489 22.2427 9.32352 24.4945 15.0411 25.992C15.8736 26.2099 16.6758 26.4017 17.4476 26.5675L18.0167 26.6869C19.202 26.9268 20.3073 27.1018 21.322 27.2103C24.3059 27.5289 26.5822 27.2709 28.0873 26.4458C29.0509 25.9498 29.8145 25.1373 30.25 24.1449C30.6854 23.1524 30.7662 22.0403 30.4787 20.9954C30.2228 20.0823 29.689 19.2714 28.9515 18.6753C28.2141 18.0792 27.3093 17.7274 26.3629 17.6686C26.3041 16.7213 25.952 15.8158 25.3554 15.0777C24.7588 14.3395 23.9473 13.8053 23.0334 13.5492C21.4059 13.0948 19.6457 13.5607 18.4393 14.7674C18.1003 15.1066 17.8153 15.4957 17.5942 15.9212C16.9278 16.9865 16.3126 19.334 17.0705 24.4748C17.5621 24.586 18.044 24.6889 18.5129 24.7825C17.8956 21.006 18.0249 17.8279 18.7855 16.6436C18.7979 16.6245 18.8091 16.6048 18.8197 16.583C18.9767 16.2754 19.1811 15.9944 19.4255 15.7504C20.2776 14.8986 21.5155 14.569 22.6584 14.888C23.1836 15.0337 23.662 15.3132 24.0469 15.6992C24.3841 16.0377 24.6415 16.4472 24.8004 16.8979C24.9592 17.3485 25.0154 17.829 24.965 18.3041C24.9546 18.4068 24.9672 18.5105 25.0018 18.6077C25.0365 18.7049 25.0924 18.7931 25.1655 18.866C25.2388 18.9389 25.3275 18.9945 25.4249 19.029C25.5224 19.0635 25.6263 19.0759 25.7292 19.0653C26.2029 19.0137 26.6821 19.0689 27.1316 19.2269C27.5812 19.3849 27.9896 19.6416 28.3269 19.9782C28.7133 20.3625 28.9931 20.8407 29.1389 21.3658C29.3405 22.1032 29.282 22.8876 28.9735 23.587C28.6649 24.2864 28.125 24.8583 27.4445 25.2066C27.4379 25.2096 27.4315 25.213 27.4251 25.2166C26.1748 25.906 24.172 26.1095 21.4713 25.8224C19.7172 25.6352 17.6733 25.2375 15.3951 24.6411C10.5742 23.3783 6.03857 21.5688 4.82061 21.069L9.3529 16.3719L15.9198 15.3078C16.0829 15.281 16.2312 15.1973 16.3384 15.0716C18.074 13.033 19.6772 11.6064 19.9011 11.4095C27.9246 4.6836 36.0411 2.31159 39.1586 1.60523C39.168 1.60311 39.178 1.60038 39.1889 1.59765C39.7629 1.44317 41.546 1.14573 42.1915 1.79151C42.8276 2.42942 42.5986 3.98269 42.4035 4.8508C41.7123 7.94947 39.3721 16.0278 32.5962 24.1071C32.4275 24.2994 30.993 25.9172 28.9336 27.6704C28.8082 27.7778 28.7248 27.926 28.6982 28.089L27.6335 34.6559L22.9368 39.1882C22.3976 37.8742 20.3573 32.7546 19.0963 27.5495C18.6116 27.4638 18.0274 27.3572 17.6094 27.2803C19.079 33.5806 21.7633 39.9954 21.7912 40.0602C21.8618 40.2205 21.9664 40.3636 22.0978 40.4794C22.2292 40.5953 22.3842 40.6812 22.5521 40.7311C22.6563 40.7612 22.7643 40.7762 22.8728 40.7757C23.1438 40.7746 23.404 40.6697 23.5998 40.4825L28.6885 35.5727C28.8535 35.4103 28.9605 35.198 28.9929 34.9688Z" fill="white"/>
</svg>
