<svg xmlns="http://www.w3.org/2000/svg" width="24" height="24" viewBox="0 0 24 24" fill="none"><rect width="24" height="24" fill="none"/>
<path d="M9.08502 3.38C9.54526 3.38 9.91836 3.76091 9.91836 4.23078C9.91836 4.70065 9.54526 5.08156 9.08502 5.08156H7.001C5.16004 5.08156 3.66765 6.60519 3.66765 8.48468L3.66765 15.5153C3.66765 17.3948 5.16004 18.9184 7.001 18.9184H9.08502C9.54526 18.9184 9.91836 19.2993 9.91836 19.7692C9.91836 20.2391 9.54526 20.62 9.08502 20.62H7.001C4.23956 20.62 2.00098 18.3346 2.00098 15.5153L2.00098 8.48468C2.00098 5.66545 4.23956 3.38 7.001 3.38L9.08502 3.38Z" fill="black"/>
<path d="M18.3299 7.7049C18.0027 7.35621 17.4285 7.30536 17.0474 7.59133C16.6663 7.87731 16.6226 8.39181 16.9498 8.74051L19.1791 11.1163L9.76924 11.1163C9.33347 11.1163 8.9802 11.4769 8.9802 11.9218C8.9802 12.3667 9.33347 12.7274 9.76924 12.7274L19.225 12.7274L16.9501 15.1518C16.6229 15.5005 16.6666 16.015 17.0477 16.301C17.4288 16.5869 18.003 16.5361 18.3302 16.1874L21.7815 12.5093C21.937 12.3437 22.0087 12.1406 22.0003 11.9424C22.0066 11.7466 21.9347 11.5465 21.7813 11.383L18.3299 7.7049Z" fill="black"/>
</svg>
