<svg xmlns="http://www.w3.org/2000/svg" width="16" height="16" viewBox="0 0 16 16" fill="none"><rect width="16" height="16" fill="none"/>
<path d="M6.05619 2.25333C6.36302 2.25333 6.61175 2.50727 6.61175 2.82052C6.61175 3.13377 6.36302 3.38771 6.05619 3.38771H4.66684C3.43954 3.38771 2.44461 4.40346 2.44461 5.65646L2.44461 10.3435C2.44461 11.5965 3.43954 12.6123 4.66684 12.6123H6.05619C6.36302 12.6123 6.61175 12.8662 6.61175 13.1795C6.61175 13.4927 6.36302 13.7467 6.05619 13.7467H4.66684C2.82589 13.7467 1.3335 12.223 1.3335 10.3435L1.3335 5.65646C1.3335 3.77697 2.82589 2.25333 4.66684 2.25333L6.05619 2.25333Z" fill="black"/>
<path d="M12.2195 5.13661C12.0013 4.90414 11.6185 4.87024 11.3645 5.06089C11.1104 5.25154 11.0812 5.59454 11.2994 5.82701L12.7856 7.41086L6.51234 7.41086C6.22182 7.41086 5.98631 7.6513 5.98631 7.94789C5.98631 8.24449 6.22182 8.48493 6.51234 8.48493L12.8162 8.48493L11.2996 10.1012C11.0814 10.3337 11.1106 10.6767 11.3646 10.8673C11.6187 11.058 12.0015 11.0241 12.2197 10.7916L14.5205 8.33955C14.6242 8.22912 14.672 8.09374 14.6664 7.9616C14.6706 7.83105 14.6227 7.69769 14.5203 7.58865L12.2195 5.13661Z" fill="black"/>
</svg>
