<svg xmlns="http://www.w3.org/2000/svg" width="24" height="25" viewBox="0 0 24 25" fill="none"><rect width="24" height="25" fill="none"/>
<path d="M18.3106 13.4459C15.2471 13.5696 12.3467 14.3947 9.76247 15.7622L6.43946 17.7496C5.56064 18.2745 4.43832 17.9595 3.93397 17.0539L2.24517 14.0251C1.73974 13.1179 2.041 11.9535 2.91686 11.43L5.66998 9.78338C5.8294 9.68804 6.03328 9.74458 6.12537 9.90975L8.28867 13.7907C8.38234 13.9587 8.59177 14.0145 8.75252 13.9119C8.90798 13.8126 8.95044 13.5969 8.85911 13.4331L6.68017 9.52404C6.59363 9.36876 6.63613 9.17054 6.77843 9.06838C9.05128 7.43623 10.9742 5.35744 12.4509 2.93303C13.0103 2.01381 14.3139 2.03841 14.8397 2.98137L19.4644 11.2789C19.99 12.2199 19.3607 13.4036 18.3106 13.4459ZM18.9041 7.66695C19.0753 6.65196 18.5009 5.63395 17.5726 5.28549C17.2808 5.17596 17.0161 5.50487 17.1712 5.78328C17.5406 6.44606 17.9112 7.11112 18.286 7.78326C18.4426 8.06401 18.8502 7.98637 18.9041 7.66695ZM11.2092 19.8838L9.6273 17.0395C9.53538 16.8742 9.33124 16.8176 9.1717 16.9129C8.31438 17.4252 8.28197 17.4451 7.13839 18.1289C6.97893 18.2242 6.9241 18.4355 7.01618 18.6007L8.60077 21.4431C8.8039 21.8071 9.1692 22.005 9.54121 22.005C9.90205 22.005 10.0401 21.8785 10.8125 21.4168C11.33 21.1073 11.5079 20.4194 11.2092 19.8838ZM21.338 5.04174C21.4974 4.9464 21.552 4.73523 21.46 4.57011C21.368 4.40503 21.1642 4.34836 21.0046 4.44374L20.1421 4.95952C19.847 5.13604 19.9704 5.60387 20.3091 5.60387C20.4277 5.60383 20.4039 5.60029 21.338 5.04174ZM18.2728 3.25262L18.4831 2.4397C18.5308 2.2555 18.4252 2.06621 18.2474 2.01683C18.0695 1.96755 17.8868 2.07678 17.8391 2.26098L17.6288 3.0739C17.5722 3.2928 17.7314 3.50863 17.951 3.50863C18.0982 3.50859 18.2329 3.40687 18.2728 3.25262ZM21.9886 8.72838C22.0362 8.54418 21.9306 8.35485 21.7528 8.30552L20.9679 8.0877C20.7901 8.03846 20.6073 8.14769 20.5597 8.33185C20.512 8.516 20.6176 8.70534 20.7954 8.75471C21.6538 8.99294 21.6067 8.9844 21.6668 8.9844C21.8139 8.9844 21.9486 8.88263 21.9886 8.72838Z" fill="black"/>
</svg>
