<svg xmlns="http://www.w3.org/2000/svg" width="17" height="17" viewBox="0 0 17 17" fill="none"><rect width="17" height="17" fill="none"/>
<path d="M12.2185 8.96729C10.1761 9.04978 8.24253 9.59984 6.5197 10.5115L4.30436 11.8364C3.71849 12.1863 2.97027 11.9763 2.63404 11.3726L1.50818 9.35341C1.17122 8.74862 1.37206 7.97235 1.95597 7.62335L3.79138 6.52561C3.89766 6.46205 4.03358 6.49974 4.09497 6.60986L5.53718 9.19718C5.59962 9.30919 5.73924 9.34636 5.84641 9.27794C5.95005 9.21177 5.97836 9.06797 5.91747 8.95875L4.46484 6.35272C4.40715 6.2492 4.43548 6.11705 4.53034 6.04894C6.04558 4.96084 7.3275 3.57498 8.31198 1.95871C8.68493 1.3459 9.55398 1.3623 9.90452 1.99094L12.9877 7.52265C13.3381 8.14994 12.9185 8.9391 12.2185 8.96729ZM12.6141 5.11466C12.7282 4.438 12.3453 3.75932 11.7265 3.52702C11.5319 3.454 11.3554 3.67327 11.4589 3.85888C11.7051 4.30073 11.9522 4.7441 12.2021 5.1922C12.3065 5.37936 12.5782 5.3276 12.6141 5.11466ZM7.48418 13.2592L6.42959 11.3631C6.36831 11.2529 6.23222 11.2151 6.12586 11.2786C5.55432 11.6202 5.5327 11.6335 4.77032 12.0893C4.66401 12.1528 4.62746 12.2937 4.68885 12.4038L5.74524 14.2987C5.88066 14.5414 6.12419 14.6734 6.3722 14.6734C6.61276 14.6734 6.70476 14.5891 7.21972 14.2812C7.56473 14.0749 7.68335 13.6163 7.48418 13.2592ZM14.2367 3.36451C14.343 3.30096 14.3794 3.16018 14.318 3.05009C14.2567 2.94004 14.1208 2.90226 14.0145 2.96585L13.4395 3.3097C13.2427 3.42738 13.325 3.73927 13.5508 3.73927C13.6298 3.73924 13.614 3.73688 14.2367 3.36451ZM12.1933 2.17177L12.3335 1.62982C12.3653 1.50702 12.2949 1.38083 12.1764 1.34791C12.0577 1.31505 11.9359 1.38788 11.9042 1.51068L11.7639 2.05263C11.7262 2.19856 11.8324 2.34245 11.9787 2.34245C12.0768 2.34242 12.1666 2.2746 12.1933 2.17177ZM14.6704 5.82228C14.7022 5.69948 14.6318 5.57326 14.5133 5.54037L13.99 5.39516C13.8715 5.36233 13.7496 5.43515 13.7178 5.55792C13.6861 5.68069 13.7565 5.80691 13.875 5.83983C14.4473 5.99865 14.4158 5.99295 14.4559 5.99295C14.554 5.99295 14.6438 5.92511 14.6704 5.82228Z" fill="black"/>
</svg>
