<svg xmlns="http://www.w3.org/2000/svg" width="24" height="24" viewBox="0 0 24 24" fill="none"><rect width="24" height="24" fill="none"/>
<path d="M19.5727 13.7291C15.8965 13.8776 12.416 14.8677 9.31496 16.5086L5.32735 18.8935C4.27277 19.5234 2.92598 19.1453 2.32077 18.0587L0.29421 14.4241C-0.312307 13.3355 0.0492028 11.9382 1.10023 11.31L4.40397 9.33405C4.59528 9.21965 4.83994 9.28749 4.95044 9.48569L7.54641 14.1429C7.65881 14.3445 7.91012 14.4114 8.10303 14.2882C8.28958 14.1691 8.34053 13.9103 8.23093 13.7137L5.61621 9.02285C5.51235 8.83651 5.56336 8.59864 5.73411 8.47605C8.46154 6.51747 10.769 4.02292 12.541 1.11364C13.2124 0.0105684 14.7767 0.0400884 15.4076 1.17164L20.9573 11.1287C21.588 12.2578 20.8329 13.6783 19.5727 13.7291ZM20.2849 6.79434C20.4903 5.57635 19.8011 4.35474 18.6871 3.93659C18.337 3.80514 18.0193 4.19983 18.2055 4.53393C18.6487 5.32926 19.0935 6.12734 19.5432 6.93391C19.7311 7.2708 20.2202 7.17763 20.2849 6.79434ZM11.051 21.4545L9.15275 18.0414C9.04245 17.8431 8.79749 17.7751 8.60604 17.8895C7.57726 18.5043 7.53836 18.5282 6.16607 19.3486C5.97472 19.463 5.90892 19.7166 6.01942 19.9148L7.92092 23.3257C8.16468 23.7625 8.60304 24 9.04945 24C9.48246 24 9.64807 23.8483 10.575 23.2941C11.196 22.9228 11.4095 22.0972 11.051 21.4545ZM23.2055 3.64408C23.3968 3.52967 23.4625 3.27627 23.3519 3.07812C23.2415 2.88003 22.997 2.81203 22.8055 2.92648L21.7706 3.54542C21.4163 3.75724 21.5645 4.31864 21.971 4.31864C22.1132 4.31859 22.0847 4.31434 23.2055 3.64408ZM19.5273 1.49714L19.7797 0.521628C19.837 0.30059 19.7103 0.0734409 19.4969 0.0141936C19.2834 -0.0449502 19.0642 0.0861294 19.007 0.307168L18.7546 1.28268C18.6866 1.54535 18.8777 1.80435 19.1412 1.80435C19.3178 1.8043 19.4794 1.68223 19.5273 1.49714ZM23.9863 8.06805C24.0435 7.84702 23.9168 7.61981 23.7034 7.56062L22.7615 7.29924C22.5482 7.24014 22.3288 7.37122 22.2716 7.59221C22.2144 7.8132 22.3411 8.0404 22.5545 8.09964C23.5846 8.38552 23.528 8.37527 23.6001 8.37527C23.7767 8.37527 23.9384 8.25315 23.9863 8.06805Z" fill="black"/>
</svg>
