<svg xmlns="http://www.w3.org/2000/svg" width="16" height="16" viewBox="0 0 16 16" fill="none"><rect width="16" height="16" fill="none"/>
<path d="M12.207 8.96064C10.1647 9.04313 8.23106 9.59319 6.50823 10.5048L4.29289 11.8298C3.70701 12.1797 2.9588 11.9697 2.62257 11.366L1.4967 9.34676C1.15975 8.74197 1.36059 7.9657 1.94449 7.6167L3.7799 6.51896C3.88618 6.4554 4.02211 6.49309 4.0835 6.6032L5.5257 9.19053C5.58815 9.30254 5.72776 9.33971 5.83493 9.27129C5.93857 9.20511 5.96688 9.06131 5.90599 8.95209L4.45337 6.34607C4.39567 6.24254 4.42401 6.1104 4.51887 6.04229C6.03411 4.95419 7.31603 3.56833 8.3005 1.95206C8.67346 1.33925 9.54251 1.35565 9.89305 1.98429L12.9762 7.516C13.3266 8.14328 12.9071 8.93244 12.207 8.96064ZM12.6026 5.10801C12.7168 4.43135 12.3339 3.75267 11.715 3.52037C11.5205 3.44734 11.344 3.66661 11.4474 3.85222C11.6936 4.29407 11.9407 4.73745 12.1906 5.18555C12.295 5.37271 12.5667 5.32095 12.6026 5.10801ZM7.4727 13.2526L6.41812 11.3564C6.35684 11.2462 6.22075 11.2084 6.11438 11.272C5.54284 11.6135 5.52123 11.6268 4.75885 12.0826C4.65254 12.1462 4.61598 12.287 4.67737 12.3971L5.73376 14.2921C5.86918 14.5348 6.11272 14.6667 6.36073 14.6667C6.60129 14.6667 6.69329 14.5824 7.20825 14.2745C7.55326 14.0682 7.67187 13.6096 7.4727 13.2526ZM14.2252 3.35786C14.3315 3.2943 14.3679 3.15352 14.3066 3.04344C14.2452 2.93339 14.1094 2.89561 14.003 2.9592L13.428 3.30305C13.2312 3.42073 13.3135 3.73262 13.5393 3.73262C13.6184 3.73259 13.6025 3.73023 14.2252 3.35786ZM12.1818 2.16512L12.322 1.62317C12.3538 1.50037 12.2834 1.37417 12.1649 1.34126C12.0462 1.3084 11.9245 1.38122 11.8927 1.50402L11.7525 2.04597C11.7147 2.1919 11.8209 2.33579 11.9672 2.33579C12.0654 2.33576 12.1552 2.26795 12.1818 2.16512ZM14.659 5.81563C14.6907 5.69283 14.6203 5.5666 14.5018 5.53372L13.9785 5.38851C13.86 5.35568 13.7382 5.4285 13.7064 5.55127C13.6746 5.67404 13.745 5.80026 13.8635 5.83318C14.4358 5.992 14.4044 5.9863 14.4444 5.9863C14.5425 5.9863 14.6323 5.91846 14.659 5.81563Z" fill="black"/>
</svg>
