<svg xmlns="http://www.w3.org/2000/svg" width="24" height="24" viewBox="0 0 24 24" fill="none"><rect width="24" height="24" fill="none"/>
<path d="M18.3116 13.4409C15.2481 13.5646 12.3477 14.3897 9.76344 15.7572L6.44043 17.7446C5.56162 18.2695 4.4393 17.9545 3.93495 17.0489L2.24615 14.0201C1.74072 13.1129 2.04198 11.9485 2.91784 11.425L5.67095 9.77838C5.83038 9.68304 6.03426 9.73958 6.12634 9.90474L8.28965 13.7857C8.38332 13.9537 8.59274 14.0095 8.7535 13.9069C8.90896 13.8076 8.95142 13.5919 8.86008 13.4281L6.68115 9.51904C6.5946 9.36376 6.63711 9.16553 6.7794 9.06338C9.05226 7.43123 10.9751 5.35243 12.4518 2.92803C13.0113 2.00881 14.3149 2.03341 14.8407 2.97637L19.4654 11.2739C19.991 12.2149 19.3617 13.3986 18.3116 13.4409ZM18.905 7.66195C19.0762 6.64696 18.5019 5.62895 17.5736 5.28049C17.2818 5.17095 17.0171 5.49986 17.1722 5.77827C17.5415 6.44105 17.9122 7.10612 18.287 7.77826C18.4436 8.059 18.8512 7.98136 18.905 7.66195ZM11.2101 19.8788L9.62827 17.0345C9.53635 16.8692 9.33222 16.8126 9.17268 16.9079C8.31536 17.4202 8.28294 17.4401 7.13937 18.1238C6.97991 18.2192 6.92507 18.4305 7.01716 18.5956L8.60174 21.4381C8.80487 21.8021 9.17018 22 9.54219 22C9.90303 22 10.041 21.8735 10.8135 21.4118C11.331 21.1023 11.5089 20.4144 11.2101 19.8788ZM21.3389 5.03673C21.4984 4.9414 21.553 4.73022 21.4609 4.5651C21.3689 4.40002 21.1651 4.34335 21.0056 4.43873L20.1431 4.95452C19.8479 5.13103 19.9714 5.59887 20.3101 5.59887C20.4287 5.59882 20.4049 5.59528 21.3389 5.03673ZM18.2738 3.24762L18.4841 2.43469C18.5318 2.25049 18.4262 2.0612 18.2484 2.01183C18.0705 1.96254 17.8878 2.07177 17.8401 2.25597L17.6298 3.0689C17.5732 3.2878 17.7324 3.50363 17.952 3.50363C18.0991 3.50359 18.2338 3.40186 18.2738 3.24762ZM21.9895 8.72338C22.0372 8.53918 21.9316 8.34984 21.7538 8.30051L20.9689 8.0827C20.7911 8.03345 20.6083 8.14269 20.5607 8.32684C20.513 8.511 20.6186 8.70033 20.7964 8.7497C21.6548 8.98794 21.6076 8.97939 21.6677 8.97939C21.8149 8.97939 21.9496 8.87762 21.9895 8.72338Z" fill="black"/>
</svg>
