<svg xmlns="http://www.w3.org/2000/svg" width="24" height="25" viewBox="0 0 24 25" fill="none"><rect width="24" height="25" fill="none"/>
<path d="M21.0343 16.8192L18.9643 14.6992C18.5191 14.2759 17.9574 13.9955 17.3516 13.8939C16.7457 13.7924 16.1233 13.8743 15.5643 14.1292L14.6643 13.2292C15.7249 11.8121 16.2092 10.0459 16.0199 8.28604C15.8305 6.52619 14.9815 4.90342 13.6438 3.7444C12.306 2.58537 10.5789 1.97616 8.81001 2.03938C7.04114 2.10261 5.36189 2.83359 4.11032 4.08517C2.85874 5.33675 2.12776 7.01599 2.06453 8.78486C2.0013 10.5537 2.61052 12.2809 3.76955 13.6186C4.92857 14.9564 6.55134 15.8054 8.31118 15.9947C10.071 16.1841 11.8373 15.6998 13.2543 14.6392L14.1443 15.5292C13.8594 16.0888 13.7573 16.7238 13.8524 17.3445C13.9475 17.9653 14.235 18.5405 14.6743 18.9892L16.7943 21.1092C17.3568 21.671 18.1193 21.9866 18.9143 21.9866C19.7093 21.9866 20.4718 21.671 21.0343 21.1092C21.3201 20.8298 21.5471 20.4961 21.7021 20.1278C21.8571 19.7594 21.937 19.3638 21.937 18.9642C21.937 18.5646 21.8571 18.169 21.7021 17.8006C21.5471 17.4323 21.3201 17.0986 21.0343 16.8192ZM12.5543 12.5792C11.8546 13.2772 10.9636 13.7521 9.99409 13.944C9.02453 14.136 8.01984 14.0362 7.10695 13.6574C6.19405 13.2786 5.41391 12.6377 4.86506 11.8157C4.31621 10.9938 4.02328 10.0276 4.02328 9.0392C4.02328 8.05083 4.31621 7.08463 4.86506 6.26266C5.41391 5.44069 6.19405 4.79982 7.10695 4.42101C8.01984 4.0422 9.02453 3.94245 9.99409 4.13435C10.9636 4.32625 11.8546 4.8012 12.5543 5.4992C13.02 5.96366 13.3894 6.51541 13.6415 7.12286C13.8935 7.73031 14.0233 8.38153 14.0233 9.0392C14.0233 9.69687 13.8935 10.3481 13.6415 10.9555C13.3894 11.563 13.02 12.1147 12.5543 12.5792ZM19.6243 19.6492C19.5314 19.7429 19.4208 19.8173 19.2989 19.8681C19.1771 19.9189 19.0464 19.945 18.9143 19.945C18.7823 19.945 18.6516 19.9189 18.5298 19.8681C18.4079 19.8173 18.2973 19.7429 18.2043 19.6492L16.0843 17.5292C15.9906 17.4362 15.9162 17.3256 15.8655 17.2038C15.8147 17.0819 15.7885 16.9512 15.7885 16.8192C15.7885 16.6872 15.8147 16.5565 15.8655 16.4346C15.9162 16.3128 15.9906 16.2022 16.0843 16.1092C16.1773 16.0155 16.2879 15.9411 16.4098 15.8903C16.5316 15.8395 16.6623 15.8134 16.7943 15.8134C16.9264 15.8134 17.0571 15.8395 17.1789 15.8903C17.3008 15.9411 17.4114 16.0155 17.5043 16.1092L19.6243 18.2292C19.7181 18.3222 19.7925 18.4328 19.8432 18.5546C19.894 18.6765 19.9201 18.8072 19.9201 18.9392C19.9201 19.0712 19.894 19.2019 19.8432 19.3238C19.7925 19.4456 19.7181 19.5562 19.6243 19.6492Z" fill="black"/>
</svg>
