<svg xmlns="http://www.w3.org/2000/svg" width="16" height="16" viewBox="0 0 16 16" fill="none"><rect width="16" height="16" fill="none"/>
<path d="M14.0465 11.22L12.6665 9.80663C12.3697 9.52446 11.9952 9.33751 11.5913 9.26979C11.1874 9.20208 10.7725 9.2567 10.3998 9.42663L9.79983 8.82663C10.5069 7.88191 10.8298 6.70441 10.7035 5.53118C10.5773 4.35796 10.0113 3.27611 9.11945 2.50343C8.22762 1.73074 7.07619 1.3246 5.89694 1.36675C4.71769 1.4089 3.5982 1.89622 2.76381 2.73061C1.92942 3.56499 1.44211 4.68449 1.39995 5.86374C1.3578 7.04298 1.76395 8.19442 2.53663 9.08625C3.30931 9.97808 4.39116 10.5441 5.56439 10.6703C6.73762 10.7966 7.91511 10.4737 8.85983 9.76663L9.45316 10.36C9.26322 10.7331 9.19515 11.1563 9.25854 11.5702C9.32193 11.984 9.51359 12.3675 9.8065 12.6666L11.2198 14.08C11.5948 14.4545 12.1032 14.6649 12.6332 14.6649C13.1632 14.6649 13.6715 14.4545 14.0465 14.08C14.237 13.8937 14.3883 13.6713 14.4917 13.4257C14.595 13.1801 14.6482 12.9164 14.6482 12.65C14.6482 12.3835 14.595 12.1198 14.4917 11.8742C14.3883 11.6287 14.237 11.4062 14.0465 11.22ZM8.39316 8.39329C7.92665 8.85863 7.3327 9.17526 6.68632 9.30319C6.03995 9.43113 5.37016 9.36463 4.76157 9.11209C4.15297 8.85955 3.63287 8.4323 3.26697 7.88432C2.90107 7.33634 2.70579 6.69221 2.70579 6.03329C2.70579 5.37438 2.90107 4.73025 3.26697 4.18227C3.63287 3.63429 4.15297 3.20704 4.76157 2.9545C5.37016 2.70196 6.03995 2.63546 6.68632 2.7634C7.3327 2.89133 7.92665 3.20796 8.39316 3.67329C8.70359 3.98293 8.94987 4.35077 9.11791 4.75574C9.28596 5.1607 9.37246 5.59485 9.37246 6.03329C9.37246 6.47174 9.28596 6.90588 9.11791 7.31085C8.94987 7.71582 8.70359 8.08366 8.39316 8.39329ZM13.1065 13.1066C13.0445 13.1691 12.9708 13.2187 12.8895 13.2526C12.8083 13.2864 12.7212 13.3038 12.6332 13.3038C12.5452 13.3038 12.458 13.2864 12.3768 13.2526C12.2955 13.2187 12.2218 13.1691 12.1598 13.1066L10.7465 11.6933C10.684 11.6313 10.6344 11.5576 10.6006 11.4763C10.5667 11.3951 10.5493 11.308 10.5493 11.22C10.5493 11.132 10.5667 11.0448 10.6006 10.9636C10.6344 10.8823 10.684 10.8086 10.7465 10.7466C10.8085 10.6841 10.8822 10.6345 10.9634 10.6007C11.0447 10.5669 11.1318 10.5494 11.2198 10.5494C11.3078 10.5494 11.395 10.5669 11.4762 10.6007C11.5575 10.6345 11.6312 10.6841 11.6932 10.7466L13.1065 12.16C13.169 12.2219 13.2186 12.2957 13.2524 12.3769C13.2863 12.4581 13.3037 12.5453 13.3037 12.6333C13.3037 12.7213 13.2863 12.8084 13.2524 12.8897C13.2186 12.9709 13.169 13.0447 13.1065 13.1066Z" fill="black"/>
</svg>
