<svg xmlns="http://www.w3.org/2000/svg" width="24" height="24" viewBox="0 0 24 24" fill="none"><rect width="24" height="24" fill="none"/>
<path d="M21.071 16.8299L19.001 14.7099C18.5557 14.2867 17.9941 14.0063 17.3882 13.9047C16.7823 13.8031 16.1599 13.885 15.601 14.1399L14.701 13.2399C15.7615 11.8229 16.2459 10.0566 16.0565 8.29678C15.8671 6.53694 15.0181 4.91417 13.6804 3.75514C12.3427 2.59612 10.6155 1.9869 8.84663 2.05013C7.07776 2.11335 5.39851 2.84433 4.14694 4.09591C2.89536 5.34749 2.16438 7.02674 2.10115 8.79561C2.03792 10.5645 2.64714 12.2916 3.80617 13.6294C4.96519 14.9671 6.58796 15.8161 8.3478 16.0055C10.1076 16.1948 11.8739 15.7105 13.291 14.6499L14.181 15.5399C13.8961 16.0996 13.7939 16.7345 13.889 17.3553C13.9841 17.976 14.2716 18.5513 14.711 18.9999L16.831 21.1199C17.3935 21.6817 18.156 21.9973 18.951 21.9973C19.746 21.9973 20.5085 21.6817 21.071 21.1199C21.3567 20.8405 21.5837 20.5069 21.7387 20.1385C21.8937 19.7702 21.9736 19.3746 21.9736 18.9749C21.9736 18.5753 21.8937 18.1797 21.7387 17.8114C21.5837 17.443 21.3567 17.1093 21.071 16.8299ZM12.591 12.5899C11.8912 13.2879 11.0003 13.7629 10.0307 13.9548C9.06115 14.1467 8.05646 14.0469 7.14357 13.6681C6.23067 13.2893 5.45053 12.6485 4.90168 11.8265C4.35283 11.0045 4.0599 10.0383 4.0599 9.04994C4.0599 8.06157 4.35283 7.09538 4.90168 6.2734C5.45053 5.45143 6.23067 4.81056 7.14357 4.43175C8.05646 4.05294 9.06115 3.95319 10.0307 4.14509C11.0003 4.33699 11.8912 4.81194 12.591 5.50994C13.0566 5.9744 13.426 6.52615 13.6781 7.13361C13.9302 7.74106 14.0599 8.39227 14.0599 9.04994C14.0599 9.70761 13.9302 10.3588 13.6781 10.9663C13.426 11.5737 13.0566 12.1255 12.591 12.5899ZM19.661 19.6599C19.568 19.7537 19.4574 19.8281 19.3355 19.8788C19.2137 19.9296 19.083 19.9557 18.951 19.9557C18.819 19.9557 18.6883 19.9296 18.5664 19.8788C18.4445 19.8281 18.3339 19.7537 18.241 19.6599L16.121 17.5399C16.0272 17.447 15.9528 17.3364 15.9021 17.2145C15.8513 17.0927 15.8252 16.962 15.8252 16.8299C15.8252 16.6979 15.8513 16.5672 15.9021 16.4454C15.9528 16.3235 16.0272 16.2129 16.121 16.1199C16.2139 16.0262 16.3245 15.9518 16.4464 15.9011C16.5682 15.8503 16.699 15.8241 16.831 15.8241C16.963 15.8241 17.0937 15.8503 17.2155 15.9011C17.3374 15.9518 17.448 16.0262 17.541 16.1199L19.661 18.2399C19.7547 18.3329 19.8291 18.4435 19.8799 18.5654C19.9306 18.6872 19.9568 18.8179 19.9568 18.9499C19.9568 19.082 19.9306 19.2127 19.8799 19.3345C19.8291 19.4564 19.7547 19.567 19.661 19.6599Z" fill="black"/>
</svg>
