<svg xmlns="http://www.w3.org/2000/svg" width="17" height="16" viewBox="0 0 17 16" fill="none"><rect width="17" height="16" fill="none"/>
<path d="M14.0343 11.2062L12.6543 9.79283C12.3575 9.51067 11.983 9.32371 11.5791 9.256C11.1752 9.18828 10.7603 9.2429 10.3876 9.41283L9.78762 8.81283C10.4947 7.86811 10.8176 6.69062 10.6913 5.51739C10.5651 4.34416 9.99907 3.26232 9.10724 2.48963C8.21541 1.71695 7.06398 1.3108 5.88473 1.35296C4.70549 1.39511 3.58599 1.88243 2.7516 2.71681C1.91722 3.5512 1.4299 4.6707 1.38775 5.84994C1.3456 7.02919 1.75174 8.18062 2.52442 9.07245C3.29711 9.96428 4.37895 10.5303 5.55218 10.6565C6.72541 10.7828 7.9029 10.4599 8.84762 9.75283L9.44096 10.3462C9.25102 10.7193 9.18294 11.1425 9.24633 11.5564C9.30972 11.9702 9.50138 12.3537 9.79429 12.6528L11.2076 14.0662C11.5826 14.4407 12.091 14.6511 12.621 14.6511C13.151 14.6511 13.6593 14.4407 14.0343 14.0662C14.2248 13.8799 14.3761 13.6575 14.4795 13.4119C14.5828 13.1663 14.636 12.9026 14.636 12.6362C14.636 12.3697 14.5828 12.106 14.4795 11.8604C14.3761 11.6149 14.2248 11.3924 14.0343 11.2062ZM8.38096 8.3795C7.91445 8.84483 7.32049 9.16147 6.67412 9.2894C6.02774 9.41734 5.35795 9.35083 4.74936 9.09829C4.14076 8.84575 3.62066 8.41851 3.25476 7.87053C2.88887 7.32254 2.69358 6.67841 2.69358 6.0195C2.69358 5.36059 2.88887 4.71646 3.25476 4.16848C3.62066 3.62049 4.14076 3.19325 4.74936 2.94071C5.35795 2.68817 6.02774 2.62167 6.67412 2.7496C7.32049 2.87754 7.91445 3.19417 8.38096 3.6595C8.69138 3.96914 8.93766 4.33698 9.10571 4.74194C9.27375 5.14691 9.36025 5.58105 9.36025 6.0195C9.36025 6.45795 9.27375 6.89209 9.10571 7.29706C8.93766 7.70203 8.69138 8.06986 8.38096 8.3795ZM13.0943 13.0928C13.0323 13.1553 12.9586 13.2049 12.8773 13.2388C12.7961 13.2726 12.709 13.29 12.621 13.29C12.5329 13.29 12.4458 13.2726 12.3646 13.2388C12.2833 13.2049 12.2096 13.1553 12.1476 13.0928L10.7343 11.6795C10.6718 11.6175 10.6222 11.5438 10.5884 11.4626C10.5545 11.3813 10.5371 11.2942 10.5371 11.2062C10.5371 11.1182 10.5545 11.031 10.5884 10.9498C10.6222 10.8685 10.6718 10.7948 10.7343 10.7328C10.7963 10.6703 10.87 10.6208 10.9512 10.5869C11.0325 10.5531 11.1196 10.5356 11.2076 10.5356C11.2956 10.5356 11.3828 10.5531 11.464 10.5869C11.5452 10.6208 11.619 10.6703 11.681 10.7328L13.0943 12.1462C13.1568 12.2081 13.2064 12.2819 13.2402 12.3631C13.2741 12.4444 13.2915 12.5315 13.2915 12.6195C13.2915 12.7075 13.2741 12.7946 13.2402 12.8759C13.2064 12.9571 13.1568 13.0309 13.0943 13.0928Z" fill="black"/>
</svg>
