<svg xmlns="http://www.w3.org/2000/svg" width="16" height="16" viewBox="0 0 16 16" fill="none"><rect width="16" height="16" fill="none"/>
<path d="M10.9838 4.70622C10.913 3.92391 10.3471 3.35496 9.56901 3.28384C10.3471 3.21272 10.913 2.64377 10.9838 1.86146C11.0545 2.64377 11.6204 3.21272 12.3985 3.28384C11.6204 3.35496 11.0545 3.92391 10.9838 4.70622Z" fill="black"/>
<path d="M7.87134 7.05304C7.8006 6.27073 7.23469 5.70178 6.45657 5.63066C7.23469 5.55954 7.8006 4.99059 7.87134 4.20827C7.94208 4.99059 8.50798 5.55954 9.2861 5.63066C8.50798 5.70178 7.87134 6.27073 7.87134 7.05304Z" fill="black"/>
<path d="M6.81031 4.17808C6.73957 3.39577 6.17366 2.82681 5.39554 2.7557C6.17366 2.68458 6.73957 2.11562 6.81031 1.33331C6.88105 2.11562 7.44695 2.68458 8.22507 2.7557C7.44695 2.82681 6.81031 3.39577 6.81031 4.17808Z" fill="black"/>
<path d="M3.41477 5.60051C3.34403 4.8182 2.77812 4.24925 2 4.17813C2.77812 4.10701 3.34403 3.53806 3.41477 2.75575C3.4855 3.53806 4.05141 4.10701 4.82953 4.17813C4.05141 4.24925 3.4855 4.8182 3.41477 5.60051Z" fill="black"/>
<path d="M5.4611 14.4682L5.0404 14.0518C4.77515 13.7876 4.77294 13.3589 5.03545 13.0919L9.79628 8.25107C10.0612 7.98174 10.4946 7.9795 10.7623 8.24608L11.183 8.66241C11.4482 8.92661 11.4505 9.35539 11.1879 9.62231L6.42711 14.4632C6.16224 14.7325 5.72875 14.7347 5.4611 14.4682Z" fill="black"/>
<path d="M13.7785 7.01241L13.0502 7.74468C12.7842 8.01215 12.3514 8.01234 12.0851 7.7451L11.6685 7.32455C11.4039 7.059 11.4037 6.62953 11.6681 6.36375L12.3964 5.63148C12.6625 5.364 13.0953 5.36381 13.3615 5.63105L13.7781 6.0516C14.0427 6.31715 14.0429 6.74663 13.7785 7.01241Z" fill="black"/>
</svg>
