<svg xmlns="http://www.w3.org/2000/svg" width="24" height="25" viewBox="0 0 24 25" fill="none"><rect width="24" height="25" fill="none"/>
<path d="M16.4857 7.06437C16.3796 5.89091 15.5307 5.03748 14.3635 4.9308C15.5307 4.82412 16.3796 3.97069 16.4857 2.79722C16.5918 3.97069 17.4406 4.82412 18.6078 4.9308C17.4406 5.03748 16.5918 5.89091 16.4857 7.06437Z" fill="black"/>
<path d="M11.817 10.5846C11.7109 9.41113 10.8621 8.5577 9.69487 8.45102C10.8621 8.34434 11.7109 7.49091 11.817 6.31745C11.9231 7.49091 12.772 8.34434 13.9392 8.45102C12.772 8.5577 11.817 9.41113 11.817 10.5846Z" fill="black"/>
<path d="M10.2255 6.27215C10.1194 5.09869 9.27051 4.24526 8.10332 4.13858C9.27051 4.0319 10.1194 3.17847 10.2255 2.005C10.3316 3.17847 11.1804 4.0319 12.3476 4.13858C11.1804 4.24526 10.2255 5.09869 10.2255 6.27215Z" fill="black"/>
<path d="M5.13216 8.40581C5.02605 7.23234 4.17719 6.37891 3.01001 6.27223C4.17719 6.16555 5.02605 5.31212 5.13216 4.13866C5.23826 5.31212 6.08712 6.16555 7.25431 6.27223C6.08712 6.37891 5.23826 7.23234 5.13216 8.40581Z" fill="black"/>
<path d="M8.20167 21.7073L7.57061 21.0828C7.17274 20.6865 7.16942 20.0433 7.56318 19.6429L14.7044 12.3816C15.1017 11.9776 15.752 11.9743 16.1534 12.3742L16.7845 12.9987C17.1824 13.395 17.1857 14.0381 16.7919 14.4385L9.65068 21.6998C9.25336 22.1038 8.60313 22.1072 8.20167 21.7073Z" fill="black"/>
<path d="M20.6778 10.5236L19.5853 11.622C19.1862 12.0233 18.537 12.0235 18.1376 11.6227L17.5127 10.9919C17.1158 10.5935 17.1156 9.94933 17.5121 9.55065L18.6046 8.45225C19.0037 8.05104 19.6529 8.05075 20.0523 8.45161L20.6772 9.08244C21.0741 9.48076 21.0744 10.125 20.6778 10.5236Z" fill="black"/>
</svg>
