<svg xmlns="http://www.w3.org/2000/svg" width="17" height="17" viewBox="0 0 17 17" fill="none"><rect width="17" height="17" fill="none"/>
<path d="M10.9984 4.71294C10.9277 3.93063 10.3618 3.36167 9.58366 3.29056C10.3618 3.21944 10.9277 2.65048 10.9984 1.86817C11.0692 2.65048 11.6351 3.21944 12.4132 3.29056C11.6351 3.36167 11.0692 3.93063 10.9984 4.71294Z" fill="black"/>
<path d="M7.88599 7.05975C7.81525 6.27744 7.24934 5.70849 6.47122 5.63737C7.24934 5.56625 7.81525 4.9973 7.88599 4.21499C7.95673 4.9973 8.52263 5.56625 9.30075 5.63737C8.52263 5.70849 7.88599 6.27744 7.88599 7.05975Z" fill="black"/>
<path d="M6.82496 4.18479C6.75422 3.40248 6.18831 2.83353 5.41019 2.76241C6.18831 2.69129 6.75422 2.12234 6.82496 1.34003C6.8957 2.12234 7.4616 2.69129 8.23972 2.76241C7.4616 2.83353 6.82496 3.40248 6.82496 4.18479Z" fill="black"/>
<path d="M3.42941 5.60723C3.35868 4.82492 2.79277 4.25596 2.01465 4.18485C2.79277 4.11373 3.35868 3.54477 3.42941 2.76246C3.50015 3.54477 4.06606 4.11373 4.84418 4.18485C4.06606 4.25596 3.50015 4.82492 3.42941 5.60723Z" fill="black"/>
<path d="M5.47575 14.4749L5.05505 14.0585C4.7898 13.7943 4.78759 13.3656 5.0501 13.0987L9.81093 8.25778C10.0758 7.98845 10.5093 7.98622 10.7769 8.2528L11.1976 8.66913C11.4629 8.93333 11.4651 9.3621 11.2026 9.62902L6.44176 14.4699C6.17688 14.7392 5.74339 14.7415 5.47575 14.4749Z" fill="black"/>
<path d="M13.7932 7.01912L13.0648 7.75139C12.7988 8.01886 12.366 8.01905 12.0997 7.75182L11.6831 7.33127C11.4185 7.06572 11.4183 6.63624 11.6827 6.37046L12.4111 5.63819C12.6771 5.37072 13.1099 5.37053 13.3762 5.63777L13.7928 6.05832C14.0574 6.32387 14.0576 6.75334 13.7932 7.01912Z" fill="black"/>
</svg>
