<svg xmlns="http://www.w3.org/2000/svg" width="24" height="24" viewBox="0 0 24 24" fill="none"><rect width="24" height="24" fill="none"/>
<path d="M16.4766 7.05937C16.3705 5.8859 15.5217 5.03247 14.3545 4.92579C15.5217 4.81911 16.3705 3.96568 16.4766 2.79222C16.5827 3.96568 17.4316 4.81911 18.5988 4.92579C17.4316 5.03247 16.5827 5.8859 16.4766 7.05937Z" fill="black"/>
<path d="M11.808 10.5796C11.7019 9.40612 10.853 8.55269 9.68584 8.44602C10.853 8.33934 11.7019 7.48591 11.808 6.31244C11.9141 7.48591 12.7629 8.33934 13.9301 8.44602C12.7629 8.55269 11.808 9.40612 11.808 10.5796Z" fill="black"/>
<path d="M10.2164 6.26715C10.1103 5.09368 9.26147 4.24025 8.09429 4.13357C9.26147 4.0269 10.1103 3.17347 10.2164 2C10.3225 3.17347 11.1714 4.0269 12.3386 4.13357C11.1714 4.24025 10.2164 5.09368 10.2164 6.26715Z" fill="black"/>
<path d="M5.12312 8.4008C5.01702 7.22734 4.16816 6.37391 3.00098 6.26723C4.16816 6.16055 5.01702 5.30712 5.12312 4.13365C5.22923 5.30712 6.07809 6.16055 7.24527 6.26723C6.07809 6.37391 5.22923 7.22734 5.12312 8.4008Z" fill="black"/>
<path d="M8.19263 21.7023L7.56158 21.0778C7.16371 20.6815 7.16039 20.0383 7.55415 19.6379L14.6954 12.3766C15.0927 11.9726 15.7429 11.9693 16.1444 12.3692L16.7755 12.9937C17.1733 13.3899 17.1767 14.0331 16.7829 14.4335L9.64164 21.6948C9.24433 22.0988 8.59409 22.1021 8.19263 21.7023Z" fill="black"/>
<path d="M20.6688 10.5186L19.5763 11.617C19.1772 12.0183 18.528 12.0185 18.1286 11.6177L17.5037 10.9869C17.1068 10.5885 17.1065 9.94432 17.5031 9.54565L18.5956 8.44725C18.9947 8.04604 19.6439 8.04575 20.0433 8.44661L20.6682 9.07743C21.0651 9.47576 21.0653 10.12 20.6688 10.5186Z" fill="black"/>
</svg>
