<svg xmlns="http://www.w3.org/2000/svg" width="16" height="16" viewBox="0 0 16 16" fill="none"><rect width="16" height="16" fill="none"/>
<path d="M2.93341 4.59015V12.712L6.14125 11.3377L9.94125 13.2377L13.0667 11.8969V3.77569L13.892 3.42229C13.9402 3.40163 13.9927 3.39326 14.045 3.39793C14.0972 3.4026 14.1474 3.42016 14.1912 3.44904C14.2349 3.47792 14.2708 3.51721 14.2957 3.56339C14.3205 3.60957 14.3335 3.66119 14.3334 3.71362V12.7329L9.90008 14.6329L6.10008 12.7329L2.10818 14.4436C2.05999 14.4642 2.00743 14.4726 1.95521 14.4679C1.90299 14.4632 1.85274 14.4457 1.80899 14.4168C1.76523 14.3879 1.72933 14.3486 1.7045 14.3024C1.67967 14.2563 1.6667 14.2046 1.66675 14.1522V5.13292L2.93341 4.59015ZM10.6873 7.82015L8.00008 10.5068L5.31285 7.82015C4.78147 7.28869 4.41962 6.61159 4.27305 5.87448C4.12648 5.13737 4.20177 4.37335 4.4894 3.67903C4.77703 2.98471 5.26409 2.39127 5.88898 1.97374C6.51387 1.55622 7.24854 1.33337 8.00008 1.33337C8.75162 1.33337 9.48629 1.55622 10.1112 1.97374C10.7361 2.39127 11.2231 2.98471 11.5108 3.67903C11.7984 4.37335 11.8737 5.13737 11.7271 5.87448C11.5805 6.61159 11.2187 7.28869 10.6873 7.82015ZM8.00008 8.71568L9.79115 6.92399C10.1455 6.56972 10.3869 6.11833 10.4847 5.62689C10.5825 5.13545 10.5324 4.62604 10.3406 4.16309C10.1489 3.70014 9.82423 3.30444 9.40761 3.02604C8.99098 2.74764 8.50116 2.59904 8.00008 2.59904C7.499 2.59904 7.00918 2.74764 6.59256 3.02604C6.17594 3.30444 5.85123 3.70014 5.65951 4.16309C5.46779 4.62604 5.41767 5.13545 5.51548 5.62689C5.61329 6.11833 5.85465 6.56972 6.20901 6.92399L8.00008 8.71568Z" fill="black"/>
</svg>
