<svg xmlns="http://www.w3.org/2000/svg" width="24" height="24" viewBox="0 0 24 24" fill="none"><rect width="24" height="24" fill="none"/>
<path d="M4.4 6.9152V19.098L9.21175 17.0365L14.9117 19.8865L19.6 17.8753V5.6935L20.8378 5.1634C20.9101 5.13241 20.989 5.11986 21.0673 5.12686C21.1456 5.13387 21.221 5.16021 21.2866 5.20353C21.3523 5.24685 21.4061 5.30579 21.4434 5.37505C21.4806 5.44432 21.5001 5.52175 21.5 5.6004V19.1293L14.85 21.9793L9.15 19.1293L3.16215 21.6953C3.08987 21.7263 3.01102 21.7388 2.93269 21.7318C2.85436 21.7248 2.779 21.6985 2.71336 21.6552C2.64772 21.6118 2.59387 21.5529 2.55663 21.4836C2.51939 21.4144 2.49993 21.3369 2.5 21.2583V7.72935L4.4 6.9152ZM16.0308 11.7602L12 15.7901L7.96915 11.7602C7.17209 10.963 6.62931 9.94735 6.40945 8.84169C6.1896 7.73602 6.30253 6.58999 6.73398 5.54851C7.16543 4.50703 7.89601 3.61687 8.83335 2.99059C9.77069 2.3643 10.8727 2.03003 12 2.03003C13.1273 2.03003 14.2293 2.3643 15.1666 2.99059C16.104 3.61687 16.8346 4.50703 17.266 5.54851C17.6975 6.58999 17.8104 7.73602 17.5905 8.84169C17.3707 9.94735 16.8279 10.963 16.0308 11.7602ZM12 13.1035L14.6866 10.4159C15.2182 9.88455 15.5802 9.20746 15.7269 8.4703C15.8736 7.73314 15.7984 6.96903 15.5109 6.2746C15.2233 5.58018 14.7362 4.98663 14.1113 4.56903C13.4864 4.15143 12.7516 3.92853 12 3.92853C11.2484 3.92853 10.5136 4.15143 9.88871 4.56903C9.26378 4.98663 8.77673 5.58018 8.48915 6.2746C8.20157 6.96903 8.12638 7.73314 8.2731 8.4703C8.41982 9.20746 8.78185 9.88455 9.3134 10.4159L12 13.1035Z" fill="black"/>
</svg>
