<svg xmlns="http://www.w3.org/2000/svg" width="24" height="24" viewBox="0 0 24 24" fill="none"><rect width="24" height="24" fill="none"/>
<path d="M4.40098 6.88517V19.068L9.21273 17.0065L14.9127 19.8565L19.601 17.8453V5.66347L20.8388 5.13337C20.9111 5.10238 20.99 5.08983 21.0683 5.09683C21.1466 5.10384 21.222 5.13018 21.2876 5.1735C21.3533 5.21682 21.4071 5.27576 21.4444 5.34503C21.4816 5.41429 21.501 5.49172 21.501 5.57037V19.0993L14.851 21.9493L9.15098 19.0993L3.16313 21.6653C3.09084 21.6963 3.012 21.7088 2.93367 21.7018C2.85534 21.6948 2.77997 21.6685 2.71433 21.6251C2.6487 21.5818 2.59484 21.5229 2.5576 21.4536C2.52036 21.3843 2.50091 21.3069 2.50098 21.2283V7.69932L4.40098 6.88517ZM16.0318 11.7302L12.001 15.7601L7.97013 11.7302C7.17306 10.933 6.63029 9.91733 6.41043 8.81166C6.19057 7.70599 6.30351 6.55996 6.73496 5.51848C7.1664 4.477 7.89699 3.58684 8.83433 2.96056C9.77167 2.33427 10.8737 2 12.001 2C13.1283 2 14.2303 2.33427 15.1676 2.96056C16.105 3.58684 16.8355 4.477 17.267 5.51848C17.6984 6.55996 17.8114 7.70599 17.5915 8.81166C17.3717 9.91733 16.8289 10.933 16.0318 11.7302ZM12.001 13.0735L14.6876 10.3859C15.2191 9.85452 15.5812 9.17743 15.7279 8.44027C15.8746 7.70311 15.7994 6.939 15.5118 6.24457C15.2242 5.55015 14.7372 4.9566 14.1123 4.539C13.4873 4.1214 12.7526 3.89851 12.001 3.89851C11.2494 3.89851 10.5146 4.1214 9.88969 4.539C9.26476 4.9566 8.7777 5.55015 8.49012 6.24457C8.20255 6.939 8.12736 7.70311 8.27408 8.44027C8.42079 9.17743 8.78282 9.85452 9.31438 10.3859L12.001 13.0735Z" fill="black"/>
</svg>
