<svg xmlns="http://www.w3.org/2000/svg" width="17" height="16" viewBox="0 0 17 16" fill="none"><rect width="17" height="16" fill="none"/>
<path d="M2.93146 4.60675V12.7286L6.13929 11.3543L9.93929 13.2543L13.0648 11.9135V3.79229L13.89 3.43889C13.9382 3.41823 13.9908 3.40986 14.043 3.41453C14.0952 3.4192 14.1455 3.43676 14.1892 3.46564C14.233 3.49452 14.2689 3.53381 14.2937 3.57999C14.3185 3.62617 14.3315 3.67779 14.3315 3.73022V12.7495L9.89813 14.6495L6.09813 12.7495L2.10623 14.4602C2.05804 14.4808 2.00548 14.4892 1.95326 14.4845C1.90104 14.4798 1.85079 14.4623 1.80703 14.4334C1.76328 14.4045 1.72737 14.3652 1.70255 14.319C1.67772 14.2729 1.66475 14.2212 1.6648 14.1688V5.14952L2.93146 4.60675ZM10.6854 7.83675L7.99813 10.5234L5.31089 7.83675C4.77952 7.30529 4.41767 6.62819 4.2711 5.89108C4.12453 5.15397 4.19982 4.38995 4.48745 3.69563C4.77508 3.00131 5.26214 2.40787 5.88703 1.99035C6.51192 1.57283 7.24659 1.34998 7.99813 1.34998C8.74967 1.34998 9.48434 1.57283 10.1092 1.99035C10.7341 2.40787 11.2212 3.00131 11.5088 3.69563C11.7964 4.38995 11.8717 5.15397 11.7252 5.89108C11.5786 6.62819 11.2167 7.30529 10.6854 7.83675ZM7.99813 8.73229L9.7892 6.94059C10.1436 6.58632 10.3849 6.13493 10.4827 5.64349C10.5805 5.15205 10.5304 4.64264 10.3387 4.17969C10.147 3.71674 9.82227 3.32104 9.40565 3.04264C8.98903 2.76424 8.49921 2.61565 7.99813 2.61565C7.49705 2.61565 7.00723 2.76424 6.5906 3.04264C6.17398 3.32104 5.84928 3.71674 5.65756 4.17969C5.46584 4.64264 5.41572 5.15205 5.51353 5.64349C5.61134 6.13493 5.85269 6.58632 6.20706 6.94059L7.99813 8.73229Z" fill="black"/>
</svg>
