<svg xmlns="http://www.w3.org/2000/svg" width="16" height="16" viewBox="0 0 16 16" fill="none"><rect width="16" height="16" fill="none"/>
<path d="M3.05661 1.59998C2.28888 1.59998 1.6665 2.22235 1.6665 2.99008V4.68799C1.6665 5.45572 2.28888 6.07809 3.05661 6.07809H4.75451C5.52225 6.07809 6.14462 5.45572 6.14462 4.68799V2.99008C6.14462 2.22235 5.52225 1.59998 4.75451 1.59998H3.05661Z" fill="black"/>
<path d="M3.05661 9.91651C2.28888 9.91651 1.6665 10.5389 1.6665 11.3066V13.0045C1.6665 13.7723 2.28888 14.3946 3.05661 14.3946H4.75451C5.52225 14.3946 6.14462 13.7723 6.14462 13.0045V11.3066C6.14462 10.5389 5.52225 9.91651 4.75451 9.91651H3.05661Z" fill="black"/>
<path d="M9.85505 2.99008C9.85505 2.22235 10.4774 1.59998 11.2452 1.59998H12.9431C13.7108 1.59998 14.3332 2.22235 14.3332 2.99008V4.68799C14.3332 5.45572 13.7108 6.07809 12.9431 6.07809H11.2452C10.4774 6.07809 9.85505 5.45572 9.85505 4.68799V2.99008Z" fill="black"/>
<path d="M11.2452 9.91651C10.4774 9.91651 9.85505 10.5389 9.85505 11.3066V13.0045C9.85505 13.7723 10.4774 14.3946 11.2452 14.3946H12.9431C13.7108 14.3946 14.3332 13.7723 14.3332 13.0045V11.3066C14.3332 10.5389 13.7108 9.91651 12.9431 9.91651H11.2452Z" fill="black"/>
</svg>
