<svg xmlns="http://www.w3.org/2000/svg" width="24" height="24" viewBox="0 0 24 24" fill="none"><rect width="24" height="24" fill="none"/>
<path d="M3.1001 0.5C1.71939 0.5 0.600098 1.61929 0.600098 3V6.05355C0.600098 7.43426 1.71939 8.55355 3.1001 8.55355H6.15364C7.53436 8.55355 8.65364 7.43426 8.65364 6.05354V3C8.65364 1.61929 7.53435 0.5 6.15364 0.5H3.1001Z" fill="black"/>
<path d="M3.1001 15.4566C1.71939 15.4566 0.600098 16.5759 0.600098 17.9566V21.0102C0.600098 22.3909 1.71939 23.5102 3.1001 23.5102H6.15364C7.53436 23.5102 8.65364 22.3909 8.65364 21.0102V17.9566C8.65364 16.5759 7.53435 15.4566 6.15364 15.4566H3.1001Z" fill="black"/>
<path d="M15.3266 3C15.3266 1.61929 16.4458 0.5 17.8266 0.5H20.8801C22.2608 0.5 23.3801 1.61929 23.3801 3V6.05354C23.3801 7.43426 22.2608 8.55355 20.8801 8.55355H17.8266C16.4458 8.55355 15.3266 7.43426 15.3266 6.05355V3Z" fill="black"/>
<path d="M17.8266 15.4566C16.4458 15.4566 15.3266 16.5759 15.3266 17.9566V21.0102C15.3266 22.3909 16.4458 23.5102 17.8266 23.5102H20.8801C22.2608 23.5102 23.3801 22.3909 23.3801 21.0102V17.9566C23.3801 16.5759 22.2608 15.4566 20.8801 15.4566H17.8266Z" fill="black"/>
</svg>
