<svg xmlns="http://www.w3.org/2000/svg" width="24" height="24" viewBox="0 0 24 24" fill="none"><rect width="24" height="24" fill="none"/>
<path d="M4.58614 2.40002C3.43454 2.40002 2.50098 3.33358 2.50098 4.48519V7.03204C2.50098 8.18364 3.43454 9.1172 4.58614 9.1172H7.13299C8.2846 9.1172 9.21816 8.18364 9.21816 7.03204V4.48519C9.21816 3.33358 8.2846 2.40002 7.13299 2.40002H4.58614Z" fill="black"/>
<path d="M4.58614 14.8748C3.43454 14.8748 2.50098 15.8084 2.50098 16.96V19.5068C2.50098 20.6585 3.43454 21.592 4.58614 21.592H7.13299C8.2846 21.592 9.21816 20.6585 9.21816 19.5068V16.96C9.21816 15.8084 8.2846 14.8748 7.13299 14.8748H4.58614Z" fill="black"/>
<path d="M14.7838 4.48519C14.7838 3.33358 15.7174 2.40002 16.869 2.40002H19.4158C20.5674 2.40002 21.501 3.33358 21.501 4.48519V7.03204C21.501 8.18364 20.5674 9.1172 19.4158 9.1172H16.869C15.7174 9.1172 14.7838 8.18364 14.7838 7.03204V4.48519Z" fill="black"/>
<path d="M16.869 14.8748C15.7174 14.8748 14.7838 15.8084 14.7838 16.96V19.5068C14.7838 20.6585 15.7174 21.592 16.869 21.592H19.4158C20.5674 21.592 21.501 20.6585 21.501 19.5068V16.96C21.501 15.8084 20.5674 14.8748 19.4158 14.8748H16.869Z" fill="black"/>
</svg>
