<svg xmlns="http://www.w3.org/2000/svg" width="17" height="17" viewBox="0 0 17 17" fill="none"><rect width="17" height="17" fill="none"/>
<path d="M3.06003 2.6051C2.29229 2.6051 1.66992 3.22748 1.66992 3.99521V5.69311C1.66992 6.46085 2.29229 7.08322 3.06003 7.08322H4.75793C5.52567 7.08322 6.14804 6.46085 6.14804 5.69311V3.99521C6.14804 3.22748 5.52567 2.6051 4.75793 2.6051H3.06003Z" fill="black"/>
<path d="M3.06003 10.9216C2.29229 10.9216 1.66992 11.544 1.66992 12.3117V14.0097C1.66992 14.7774 2.29229 15.3998 3.06003 15.3998H4.75793C5.52567 15.3998 6.14804 14.7774 6.14804 14.0097V12.3117C6.14804 11.544 5.52567 10.9216 4.75793 10.9216H3.06003Z" fill="black"/>
<path d="M9.85847 3.99521C9.85847 3.22748 10.4808 2.6051 11.2486 2.6051H12.9465C13.7142 2.6051 14.3366 3.22748 14.3366 3.99521V5.69311C14.3366 6.46085 13.7142 7.08322 12.9465 7.08322H11.2486C10.4808 7.08322 9.85847 6.46085 9.85847 5.69311V3.99521Z" fill="black"/>
<path d="M11.2486 10.9216C10.4808 10.9216 9.85847 11.544 9.85847 12.3117V14.0097C9.85847 14.7774 10.4808 15.3998 11.2486 15.3998H12.9465C13.7142 15.3998 14.3366 14.7774 14.3366 14.0097V12.3117C14.3366 11.544 13.7142 10.9216 12.9465 10.9216H11.2486Z" fill="black"/>
</svg>
