<svg xmlns="http://www.w3.org/2000/svg" width="24" height="25" viewBox="0 0 24 25" fill="none"><rect width="24" height="25" fill="none"/>
<path d="M4.58516 2.41003C3.43356 2.41003 2.5 3.34359 2.5 4.4952V7.04205C2.5 8.19365 3.43356 9.12721 4.58516 9.12721H7.13202C8.28362 9.12721 9.21718 8.19365 9.21718 7.04205V4.4952C9.21718 3.34359 8.28362 2.41003 7.13202 2.41003H4.58516Z" fill="black"/>
<path d="M4.58516 14.8848C3.43356 14.8848 2.5 15.8184 2.5 16.97V19.5169C2.5 20.6685 3.43356 21.602 4.58516 21.602H7.13202C8.28362 21.602 9.21718 20.6685 9.21718 19.5169V16.97C9.21718 15.8184 8.28362 14.8848 7.13202 14.8848H4.58516Z" fill="black"/>
<path d="M14.7828 4.4952C14.7828 3.34359 15.7164 2.41003 16.868 2.41003H19.4148C20.5664 2.41003 21.5 3.34359 21.5 4.4952V7.04205C21.5 8.19365 20.5664 9.12721 19.4148 9.12721H16.868C15.7164 9.12721 14.7828 8.19365 14.7828 7.04205V4.4952Z" fill="black"/>
<path d="M16.868 14.8848C15.7164 14.8848 14.7828 15.8184 14.7828 16.97V19.5169C14.7828 20.6685 15.7164 21.602 16.868 21.602H19.4148C20.5664 21.602 21.5 20.6685 21.5 19.5169V16.97C21.5 15.8184 20.5664 14.8848 19.4148 14.8848H16.868Z" fill="black"/>
</svg>
