<svg xmlns="http://www.w3.org/2000/svg" width="25" height="24" viewBox="0 0 25 24" fill="none"><rect width="25" height="24" fill="none"/>
<path d="M16.6718 15.1894C17.132 15.1894 17.5051 15.5625 17.5051 16.0227L17.5051 16.4857C17.5051 16.9459 17.132 17.319 16.6718 17.319L2.83675 17.319C2.37652 17.319 2.00342 16.9459 2.00342 16.4857L2.00342 16.0227C2.00342 15.5625 2.37652 15.1894 2.83675 15.1894L16.6718 15.1894ZM21.1701 6.67085C21.6303 6.67085 22.0034 7.04395 22.0034 7.50419L22.0034 7.96715C22.0034 8.42739 21.6303 8.80048 21.1701 8.80048L2.83675 8.80048C2.37652 8.80048 2.00342 8.42738 2.00342 7.96715L2.00342 7.50418C2.00342 7.04395 2.37651 6.67085 2.83675 6.67085L21.1701 6.67085Z" fill="black"/>
</svg>
