<svg xmlns="http://www.w3.org/2000/svg" width="24" height="25" viewBox="0 0 24 25" fill="none"><rect width="24" height="25" fill="none"/>
<path d="M7.25 10.0049C7.25 9.59067 7.58579 9.25488 8 9.25488H16C16.4142 9.25488 16.75 9.59067 16.75 10.0049C16.75 10.4191 16.4142 10.7549 16 10.7549H8C7.58579 10.7549 7.25 10.4191 7.25 10.0049Z" fill="black"/>
<path d="M8 13.2549C7.58579 13.2549 7.25 13.5907 7.25 14.0049C7.25 14.4191 7.58579 14.7549 8 14.7549H12C12.4142 14.7549 12.75 14.4191 12.75 14.0049C12.75 13.5907 12.4142 13.2549 12 13.2549H8Z" fill="black"/>
<path fill-rule="evenodd" clip-rule="evenodd" d="M2.25 12.0049C2.25 6.62011 6.61522 2.25488 12 2.25488C17.3848 2.25488 21.75 6.62011 21.75 12.0049C21.75 17.3897 17.3848 21.7549 12 21.7549H3C2.7234 21.7549 2.46926 21.6026 2.33875 21.3588C2.20823 21.1149 2.22254 20.819 2.37596 20.5889L2.60092 20.2514C2.91394 19.7819 3.135 19.45 3.29509 19.1853C3.45516 18.9207 3.529 18.7635 3.56638 18.6465C3.63414 18.4343 3.65857 18.3299 3.66968 18.2401C3.68079 18.1504 3.68255 18.0431 3.66858 17.8208C3.66179 17.7129 3.61715 17.5021 3.4822 17.0794C3.35199 16.6715 3.1597 16.1306 2.89482 15.3858C2.54104 14.3911 2.25 13.2109 2.25 12.0049ZM12 3.75488C7.44365 3.75488 3.75 7.44853 3.75 12.0049C3.75 12.9815 3.98831 13.984 4.30809 14.8832L4.31311 14.8973C4.57195 15.625 4.77257 16.1891 4.91115 16.6232C5.04587 17.0452 5.14598 17.4143 5.16562 17.7267C5.1813 17.9761 5.18681 18.1942 5.15832 18.4244C5.12983 18.6546 5.0713 18.8648 4.9953 19.1028C4.90459 19.3868 4.75975 19.6622 4.57853 19.9617C4.52323 20.0532 4.46217 20.1506 4.39535 20.2549H12C16.5564 20.2549 20.25 16.5612 20.25 12.0049C20.25 7.44853 16.5564 3.75488 12 3.75488Z" fill="black"/>
<path d="M7.25 10.0049C7.25 9.59067 7.58579 9.25488 8 9.25488H16C16.4142 9.25488 16.75 9.59067 16.75 10.0049C16.75 10.4191 16.4142 10.7549 16 10.7549H8C7.58579 10.7549 7.25 10.4191 7.25 10.0049Z" stroke="black" stroke-width="0.2" stroke-linecap="round" stroke-linejoin="round"/>
<path d="M8 13.2549C7.58579 13.2549 7.25 13.5907 7.25 14.0049C7.25 14.4191 7.58579 14.7549 8 14.7549H12C12.4142 14.7549 12.75 14.4191 12.75 14.0049C12.75 13.5907 12.4142 13.2549 12 13.2549H8Z" stroke="black" stroke-width="0.2" stroke-linecap="round" stroke-linejoin="round"/>
<path fill-rule="evenodd" clip-rule="evenodd" d="M2.25 12.0049C2.25 6.62011 6.61522 2.25488 12 2.25488C17.3848 2.25488 21.75 6.62011 21.75 12.0049C21.75 17.3897 17.3848 21.7549 12 21.7549H3C2.7234 21.7549 2.46926 21.6026 2.33875 21.3588C2.20823 21.1149 2.22254 20.819 2.37596 20.5889L2.60092 20.2514C2.91394 19.7819 3.135 19.45 3.29509 19.1853C3.45516 18.9207 3.529 18.7635 3.56638 18.6465C3.63414 18.4343 3.65857 18.3299 3.66968 18.2401C3.68079 18.1504 3.68255 18.0431 3.66858 17.8208C3.66179 17.7129 3.61715 17.5021 3.4822 17.0794C3.35199 16.6715 3.1597 16.1306 2.89482 15.3858C2.54104 14.3911 2.25 13.2109 2.25 12.0049ZM12 3.75488C7.44365 3.75488 3.75 7.44853 3.75 12.0049C3.75 12.9815 3.98831 13.984 4.30809 14.8832L4.31311 14.8973C4.57195 15.625 4.77257 16.1891 4.91115 16.6232C5.04587 17.0452 5.14598 17.4143 5.16562 17.7267C5.1813 17.9761 5.18681 18.1942 5.15832 18.4244C5.12983 18.6546 5.0713 18.8648 4.9953 19.1028C4.90459 19.3868 4.75975 19.6622 4.57853 19.9617C4.52323 20.0532 4.46217 20.1506 4.39535 20.2549H12C16.5564 20.2549 20.25 16.5612 20.25 12.0049C20.25 7.44853 16.5564 3.75488 12 3.75488Z" stroke="black" stroke-width="0.2" stroke-linecap="round" stroke-linejoin="round"/>
</svg>
