<svg xmlns="http://www.w3.org/2000/svg" width="16" height="17" viewBox="0 0 16 17" fill="none"><rect width="16" height="17" fill="none"/>
<path d="M4.83333 6.6724C4.83333 6.39626 5.05719 6.1724 5.33333 6.1724H10.6667C10.9428 6.1724 11.1667 6.39626 11.1667 6.6724C11.1667 6.94855 10.9428 7.1724 10.6667 7.1724H5.33333C5.05719 7.1724 4.83333 6.94855 4.83333 6.6724Z" fill="black"/>
<path d="M5.33333 8.83907C5.05719 8.83907 4.83333 9.06293 4.83333 9.33907C4.83333 9.61521 5.05719 9.83907 5.33333 9.83907H8C8.27614 9.83907 8.5 9.61521 8.5 9.33907C8.5 9.06293 8.27614 8.83907 8 8.83907H5.33333Z" fill="black"/>
<path fill-rule="evenodd" clip-rule="evenodd" d="M1.5 8.00574C1.5 4.41589 4.41015 1.50574 8 1.50574C11.5899 1.50574 14.5 4.41589 14.5 8.00574C14.5 11.5956 11.5899 14.5057 8 14.5057H2C1.8156 14.5057 1.64617 14.4042 1.55916 14.2417C1.47215 14.0791 1.48169 13.8818 1.58398 13.7284L1.73395 13.5034C1.94263 13.1904 2.09 12.9691 2.19673 12.7927C2.30344 12.6163 2.35267 12.5115 2.37759 12.4335C2.42276 12.292 2.43905 12.2224 2.44645 12.1626C2.45386 12.1027 2.45504 12.0312 2.44572 11.883C2.44119 11.8111 2.41144 11.6706 2.32146 11.3887C2.23466 11.1168 2.10647 10.7562 1.92988 10.2597C1.69403 9.59656 1.5 8.80977 1.5 8.00574ZM8 2.50574C4.96243 2.50574 2.5 4.96817 2.5 8.00574C2.5 8.65683 2.65887 9.32517 2.87206 9.92459L2.87541 9.934C3.04796 10.4192 3.18171 10.7952 3.2741 11.0846C3.36391 11.3659 3.43065 11.612 3.44375 11.8203C3.4542 11.9865 3.45787 12.1319 3.43888 12.2854C3.41988 12.4389 3.38087 12.579 3.3302 12.7377C3.26972 12.927 3.17317 13.1106 3.05236 13.3103C3.01548 13.3713 2.97478 13.4362 2.93023 13.5057H8C11.0376 13.5057 13.5 11.0433 13.5 8.00574C13.5 4.96817 11.0376 2.50574 8 2.50574Z" fill="black"/>
<path d="M4.83333 6.6724C4.83333 6.39626 5.05719 6.1724 5.33333 6.1724H10.6667C10.9428 6.1724 11.1667 6.39626 11.1667 6.6724C11.1667 6.94855 10.9428 7.1724 10.6667 7.1724H5.33333C5.05719 7.1724 4.83333 6.94855 4.83333 6.6724Z" stroke="black" stroke-width="0.2" stroke-linecap="round" stroke-linejoin="round"/>
<path d="M5.33333 8.83907C5.05719 8.83907 4.83333 9.06293 4.83333 9.33907C4.83333 9.61521 5.05719 9.83907 5.33333 9.83907H8C8.27614 9.83907 8.5 9.61521 8.5 9.33907C8.5 9.06293 8.27614 8.83907 8 8.83907H5.33333Z" stroke="black" stroke-width="0.2" stroke-linecap="round" stroke-linejoin="round"/>
<path fill-rule="evenodd" clip-rule="evenodd" d="M1.5 8.00574C1.5 4.41589 4.41015 1.50574 8 1.50574C11.5899 1.50574 14.5 4.41589 14.5 8.00574C14.5 11.5956 11.5899 14.5057 8 14.5057H2C1.8156 14.5057 1.64617 14.4042 1.55916 14.2417C1.47215 14.0791 1.48169 13.8818 1.58398 13.7284L1.73395 13.5034C1.94263 13.1904 2.09 12.9691 2.19673 12.7927C2.30344 12.6163 2.35267 12.5115 2.37759 12.4335C2.42276 12.292 2.43905 12.2224 2.44645 12.1626C2.45386 12.1027 2.45504 12.0312 2.44572 11.883C2.44119 11.8111 2.41144 11.6706 2.32146 11.3887C2.23466 11.1168 2.10647 10.7562 1.92988 10.2597C1.69403 9.59656 1.5 8.80977 1.5 8.00574ZM8 2.50574C4.96243 2.50574 2.5 4.96817 2.5 8.00574C2.5 8.65683 2.65887 9.32517 2.87206 9.92459L2.87541 9.934C3.04796 10.4192 3.18171 10.7952 3.2741 11.0846C3.36391 11.3659 3.43065 11.612 3.44375 11.8203C3.4542 11.9865 3.45787 12.1319 3.43888 12.2854C3.41988 12.4389 3.38087 12.579 3.3302 12.7377C3.26972 12.927 3.17317 13.1106 3.05236 13.3103C3.01548 13.3713 2.97478 13.4362 2.93023 13.5057H8C11.0376 13.5057 13.5 11.0433 13.5 8.00574C13.5 4.96817 11.0376 2.50574 8 2.50574Z" stroke="black" stroke-width="0.2" stroke-linecap="round" stroke-linejoin="round"/>
</svg>
