<svg xmlns="http://www.w3.org/2000/svg" width="25" height="24" viewBox="0 0 25 24" fill="none"><rect width="25" height="24" fill="none"/>
<path d="M21.0958 16.5455H2.91397C2.67287 16.5455 2.44164 16.6412 2.27115 16.8117C2.10066 16.9822 2.00488 17.2134 2.00488 17.4545C2.00488 17.6957 2.10066 17.9269 2.27115 18.0974C2.44164 18.2679 2.67287 18.3636 2.91397 18.3636H21.0958C21.3369 18.3636 21.5681 18.2679 21.7386 18.0974C21.9091 17.9269 22.0049 17.6957 22.0049 17.4545C22.0049 17.2134 21.9091 16.9822 21.7386 16.8117C21.5681 16.6412 21.3369 16.5455 21.0958 16.5455ZM21.0958 20.1818H2.91397C2.67287 20.1818 2.44164 20.2776 2.27115 20.4481C2.10066 20.6186 2.00488 20.8498 2.00488 21.0909C2.00488 21.332 2.10066 21.5632 2.27115 21.7337C2.44164 21.9042 2.67287 22 2.91397 22H21.0958C21.3369 22 21.5681 21.9042 21.7386 21.7337C21.9091 21.5632 22.0049 21.332 22.0049 21.0909C22.0049 20.8498 21.9091 20.6186 21.7386 20.4481C21.5681 20.2776 21.3369 20.1818 21.0958 20.1818ZM6.55034 7.45455C6.37054 7.45455 6.19477 7.50786 6.04527 7.60776C5.89577 7.70765 5.77925 7.84963 5.71045 8.01574C5.64164 8.18186 5.62364 8.36465 5.65871 8.54099C5.69379 8.71734 5.78037 8.87932 5.90751 9.00646C6.03465 9.1336 6.19664 9.22018 6.37298 9.25526C6.54933 9.29034 6.73212 9.27233 6.89823 9.20353C7.06435 9.13472 7.20633 9.0182 7.30622 8.8687C7.40611 8.7192 7.45943 8.54344 7.45943 8.36364C7.45943 8.12253 7.36365 7.8913 7.19316 7.72081C7.02267 7.55032 6.79144 7.45455 6.55034 7.45455ZM19.2776 2H4.73216C4.00884 2 3.31515 2.28734 2.80368 2.7988C2.29222 3.31026 2.00488 4.00396 2.00488 4.72727V12C2.00488 12.7233 2.29222 13.417 2.80368 13.9285C3.31515 14.4399 4.00884 14.7273 4.73216 14.7273H19.2776C20.0009 14.7273 20.6946 14.4399 21.2061 13.9285C21.7175 13.417 22.0049 12.7233 22.0049 12V4.72727C22.0049 4.00396 21.7175 3.31026 21.2061 2.7988C20.6946 2.28734 20.0009 2 19.2776 2ZM20.1867 12C20.1867 12.2411 20.0909 12.4723 19.9204 12.6428C19.7499 12.8133 19.5187 12.9091 19.2776 12.9091H4.73216C4.49105 12.9091 4.25982 12.8133 4.08933 12.6428C3.91884 12.4723 3.82306 12.2411 3.82306 12V4.72727C3.82306 4.48617 3.91884 4.25494 4.08933 4.08445C4.25982 3.91396 4.49105 3.81818 4.73216 3.81818H19.2776C19.5187 3.81818 19.7499 3.91396 19.9204 4.08445C20.0909 4.25494 20.1867 4.48617 20.1867 4.72727V12ZM12.0049 5.63636C11.4655 5.63636 10.9382 5.79632 10.4897 6.09599C10.0412 6.39567 9.69163 6.82161 9.48521 7.31995C9.27879 7.8183 9.22478 8.36666 9.33001 8.8957C9.43525 9.42474 9.69499 9.91069 10.0764 10.2921C10.4578 10.6735 10.9438 10.9333 11.4728 11.0385C12.0019 11.1437 12.5502 11.0897 13.0486 10.8833C13.5469 10.6769 13.9729 10.3273 14.2725 9.87883C14.5722 9.43033 14.7322 8.90304 14.7322 8.36364C14.7322 7.64032 14.4448 6.94663 13.9334 6.43516C13.4219 5.9237 12.7282 5.63636 12.0049 5.63636ZM12.0049 9.27273C11.8251 9.27273 11.6493 9.21941 11.4998 9.11952C11.3503 9.01963 11.2338 8.87765 11.165 8.71153C11.0962 8.54542 11.0782 8.36263 11.1133 8.18628C11.1483 8.00994 11.2349 7.84795 11.3621 7.72081C11.4892 7.59367 11.6512 7.50709 11.8275 7.47201C12.0039 7.43694 12.1867 7.45494 12.3528 7.52375C12.5189 7.59255 12.6609 7.70907 12.7608 7.85857C12.8607 8.00807 12.914 8.18384 12.914 8.36364C12.914 8.60474 12.8182 8.83597 12.6477 9.00646C12.4772 9.17695 12.246 9.27273 12.0049 9.27273ZM17.4594 7.45455C17.2796 7.45455 17.1039 7.50786 16.9544 7.60776C16.8049 7.70765 16.6883 7.84963 16.6195 8.01574C16.5507 8.18186 16.5327 8.36465 16.5678 8.54099C16.6029 8.71734 16.6895 8.87932 16.8166 9.00646C16.9437 9.1336 17.1057 9.22018 17.2821 9.25526C17.4584 9.29034 17.6412 9.27233 17.8073 9.20353C17.9734 9.13472 18.1154 9.0182 18.2153 8.8687C18.3152 8.7192 18.3685 8.54344 18.3685 8.36364C18.3685 8.12253 18.2727 7.8913 18.1023 7.72081C17.9318 7.55032 17.7005 7.45455 17.4594 7.45455Z" fill="black"/>
</svg>
