<svg xmlns="http://www.w3.org/2000/svg" width="24" height="24" viewBox="0 0 24 24" fill="none"><rect width="24" height="24" fill="none"/>
<path d="M16.6494 6.75069V8.31248H18.2113C18.0043 7.55502 17.4069 6.95752 16.6494 6.75069Z" fill="black"/>
<path d="M20.2432 3H3.75879C2.78953 3 2.00098 3.78855 2.00098 4.75781V15.2266C2.00098 16.1958 2.78953 16.9844 3.75879 16.9844H20.2432C21.2124 16.9844 22.001 16.1958 22.001 15.2266V4.75781C22.001 3.78855 21.2124 3 20.2432 3ZM5.49746 11.8516C5.10117 12.1643 4.54004 11.8873 4.54004 11.3984C4.54004 11.0624 4.82809 10.7826 5.18379 10.8152C5.70098 10.8699 5.90035 11.5118 5.49746 11.8516ZM5.70879 8.95586C5.68359 9.26449 5.39562 9.51457 5.06816 9.48125C4.75766 9.45535 4.50906 9.16688 4.54316 8.84098C4.56891 8.5227 4.87656 8.2557 5.24043 8.32383C5.54852 8.38777 5.73855 8.66883 5.70879 8.95586ZM5.70918 6.45621C5.65637 6.96586 5.0166 7.1782 4.67285 6.76988C4.45742 6.49734 4.51844 6.13824 4.75449 5.94527C5.16152 5.61359 5.76168 5.94449 5.70918 6.45621ZM8.56348 14.4844H7.62598C7.30238 14.4844 7.04004 14.222 7.04004 13.8984C7.04004 13.5748 7.30238 13.3125 7.62598 13.3125H8.56348C8.88707 13.3125 9.14941 13.5748 9.14941 13.8984C9.14941 14.222 8.88707 14.4844 8.56348 14.4844ZM10.751 11.9844H7.62598C7.30238 11.9844 7.04004 11.722 7.04004 11.3984C7.04004 11.0748 7.30238 10.8125 7.62598 10.8125H10.751C11.0746 10.8125 11.3369 11.0748 11.3369 11.3984C11.3369 11.722 11.0746 11.9844 10.751 11.9844ZM10.751 9.48438H7.62598C7.30238 9.48438 7.04004 9.22203 7.04004 8.89844C7.04004 8.57484 7.30238 8.3125 7.62598 8.3125H10.751C11.0746 8.3125 11.3369 8.57484 11.3369 8.89844C11.3369 9.22203 11.0746 9.48438 10.751 9.48438ZM10.751 6.98438H7.62598C7.30238 6.98438 7.04004 6.72203 7.04004 6.39844C7.04004 6.07484 7.30238 5.8125 7.62598 5.8125H10.751C11.0746 5.8125 11.3369 6.07484 11.3369 6.39844C11.3369 6.72203 11.0746 6.98438 10.751 6.98438ZM14.1885 14.4844H13.251C12.9274 14.4844 12.665 14.222 12.665 13.8984C12.665 13.5748 12.9274 13.3125 13.251 13.3125H14.1885C14.5121 13.3125 14.7744 13.5748 14.7744 13.8984C14.7744 14.222 14.5121 14.4844 14.1885 14.4844ZM16.0635 12.2969C14.1896 12.2969 12.665 10.7723 12.665 8.89844C12.665 7.02453 14.1896 5.5 16.0635 5.5C17.9374 5.5 19.4619 7.02453 19.4619 8.89844C19.4619 10.7723 17.9374 12.2969 16.0635 12.2969Z" fill="black"/>
<path d="M15.4775 8.89842V6.75069C14.5332 7.00862 13.8369 7.8735 13.8369 8.89842C13.8369 10.1262 14.8357 11.125 16.0635 11.125C17.0884 11.125 17.9533 10.4287 18.2113 9.48436H16.0635C15.7399 9.48436 15.4775 9.22202 15.4775 8.89842Z" fill="black"/>
<path d="M18.251 19.5625H14.4619V18.1562H9.54004V19.5625H5.75098C5.42738 19.5625 5.16504 19.8248 5.16504 20.1484C5.16504 20.472 5.42738 20.7344 5.75098 20.7344H18.251C18.5746 20.7344 18.8369 20.472 18.8369 20.1484C18.8369 19.8248 18.5746 19.5625 18.251 19.5625Z" fill="black"/>
</svg>
