<svg xmlns="http://www.w3.org/2000/svg" width="16" height="16" viewBox="0 0 16 16" fill="none"><rect width="16" height="16" fill="none"/>
<path d="M11.0989 4.50046V5.54166H12.1401C12.0022 5.03668 11.6039 4.63835 11.0989 4.50046Z" fill="black"/>
<path d="M13.4947 2H2.50513C1.85896 2 1.33325 2.5257 1.33325 3.17188V10.151C1.33325 10.7972 1.85896 11.3229 2.50513 11.3229H13.4947C14.1409 11.3229 14.6666 10.7972 14.6666 10.151V3.17188C14.6666 2.5257 14.1409 2 13.4947 2ZM3.66424 7.90104C3.40005 8.10953 3.02596 7.92487 3.02596 7.59896C3.02596 7.37492 3.21799 7.18839 3.45513 7.21013C3.79992 7.24661 3.93284 7.67456 3.66424 7.90104ZM3.80513 5.97057C3.78833 6.17633 3.59635 6.34305 3.37804 6.32083C3.17104 6.30357 3.00531 6.11125 3.02804 5.89398C3.04521 5.6818 3.25031 5.5038 3.49289 5.54922C3.69828 5.59185 3.82497 5.77922 3.80513 5.97057ZM3.80539 4.30414C3.77018 4.64391 3.34367 4.78547 3.1145 4.51326C2.97088 4.33156 3.01156 4.09216 3.16893 3.96352C3.44028 3.7424 3.84039 3.96299 3.80539 4.30414ZM5.70825 9.65625H5.08325C4.86752 9.65625 4.69263 9.48135 4.69263 9.26563C4.69263 9.0499 4.86752 8.875 5.08325 8.875H5.70825C5.92398 8.875 6.09888 9.0499 6.09888 9.26563C6.09888 9.48135 5.92398 9.65625 5.70825 9.65625ZM7.16659 7.98958H5.08325C4.86752 7.98958 4.69263 7.81469 4.69263 7.59896C4.69263 7.38323 4.86752 7.20833 5.08325 7.20833H7.16659C7.38231 7.20833 7.55721 7.38323 7.55721 7.59896C7.55721 7.81469 7.38231 7.98958 7.16659 7.98958ZM7.16659 6.32292H5.08325C4.86752 6.32292 4.69263 6.14802 4.69263 5.93229C4.69263 5.71656 4.86752 5.54167 5.08325 5.54167H7.16659C7.38231 5.54167 7.55721 5.71656 7.55721 5.93229C7.55721 6.14802 7.38231 6.32292 7.16659 6.32292ZM7.16659 4.65625H5.08325C4.86752 4.65625 4.69263 4.48135 4.69263 4.26563C4.69263 4.0499 4.86752 3.875 5.08325 3.875H7.16659C7.38231 3.875 7.55721 4.0499 7.55721 4.26563C7.55721 4.48135 7.38231 4.65625 7.16659 4.65625ZM9.45825 9.65625H8.83325C8.61752 9.65625 8.44263 9.48135 8.44263 9.26563C8.44263 9.0499 8.61752 8.875 8.83325 8.875H9.45825C9.67398 8.875 9.84888 9.0499 9.84888 9.26563C9.84888 9.48135 9.67398 9.65625 9.45825 9.65625ZM10.7083 8.19792C9.45898 8.19792 8.44263 7.18156 8.44263 5.93229C8.44263 4.68302 9.45898 3.66667 10.7083 3.66667C11.9575 3.66667 12.9739 4.68302 12.9739 5.93229C12.9739 7.18156 11.9575 8.19792 10.7083 8.19792Z" fill="black"/>
<path d="M10.3176 5.93228V4.50046C9.6881 4.67241 9.22388 5.249 9.22388 5.93228C9.22388 6.75077 9.88976 7.41666 10.7083 7.41666C11.3915 7.41666 11.9681 6.95244 12.1401 6.32291H10.7083C10.4925 6.32291 10.3176 6.14801 10.3176 5.93228Z" fill="black"/>
<path d="M12.1666 13.0417H9.64054V12.1042H6.35929V13.0417H3.83325C3.61752 13.0417 3.44263 13.2166 3.44263 13.4323C3.44263 13.648 3.61752 13.8229 3.83325 13.8229H12.1666C12.3823 13.8229 12.5572 13.648 12.5572 13.4323C12.5572 13.2166 12.3823 13.0417 12.1666 13.0417Z" fill="black"/>
</svg>
