<svg xmlns="http://www.w3.org/2000/svg" width="24" height="24" viewBox="0 0 24 24" fill="none"><rect width="24" height="24" fill="none"/>
<path d="M16.6484 6.75069V8.31248H18.2103C18.0034 7.55502 17.4059 6.95752 16.6484 6.75069Z" fill="black"/>
<path d="M20.2422 3H3.75781C2.78855 3 2 3.78855 2 4.75781V15.2266C2 16.1958 2.78855 16.9844 3.75781 16.9844H20.2422C21.2114 16.9844 22 16.1958 22 15.2266V4.75781C22 3.78855 21.2114 3 20.2422 3ZM5.49648 11.8516C5.1002 12.1643 4.53906 11.8873 4.53906 11.3984C4.53906 11.0624 4.82711 10.7826 5.18281 10.8152C5.7 10.8699 5.89938 11.5118 5.49648 11.8516ZM5.70781 8.95586C5.68262 9.26449 5.39465 9.51457 5.06719 9.48125C4.75668 9.45535 4.50809 9.16688 4.54219 8.84098C4.56793 8.5227 4.87559 8.2557 5.23945 8.32383C5.54754 8.38777 5.73758 8.66883 5.70781 8.95586ZM5.7082 6.45621C5.65539 6.96586 5.01562 7.1782 4.67188 6.76988C4.45645 6.49734 4.51746 6.13824 4.75352 5.94527C5.16055 5.61359 5.7607 5.94449 5.7082 6.45621ZM8.5625 14.4844H7.625C7.30141 14.4844 7.03906 14.222 7.03906 13.8984C7.03906 13.5748 7.30141 13.3125 7.625 13.3125H8.5625C8.88609 13.3125 9.14844 13.5748 9.14844 13.8984C9.14844 14.222 8.88609 14.4844 8.5625 14.4844ZM10.75 11.9844H7.625C7.30141 11.9844 7.03906 11.722 7.03906 11.3984C7.03906 11.0748 7.30141 10.8125 7.625 10.8125H10.75C11.0736 10.8125 11.3359 11.0748 11.3359 11.3984C11.3359 11.722 11.0736 11.9844 10.75 11.9844ZM10.75 9.48438H7.625C7.30141 9.48438 7.03906 9.22203 7.03906 8.89844C7.03906 8.57484 7.30141 8.3125 7.625 8.3125H10.75C11.0736 8.3125 11.3359 8.57484 11.3359 8.89844C11.3359 9.22203 11.0736 9.48438 10.75 9.48438ZM10.75 6.98438H7.625C7.30141 6.98438 7.03906 6.72203 7.03906 6.39844C7.03906 6.07484 7.30141 5.8125 7.625 5.8125H10.75C11.0736 5.8125 11.3359 6.07484 11.3359 6.39844C11.3359 6.72203 11.0736 6.98438 10.75 6.98438ZM14.1875 14.4844H13.25C12.9264 14.4844 12.6641 14.222 12.6641 13.8984C12.6641 13.5748 12.9264 13.3125 13.25 13.3125H14.1875C14.5111 13.3125 14.7734 13.5748 14.7734 13.8984C14.7734 14.222 14.5111 14.4844 14.1875 14.4844ZM16.0625 12.2969C14.1886 12.2969 12.6641 10.7723 12.6641 8.89844C12.6641 7.02453 14.1886 5.5 16.0625 5.5C17.9364 5.5 19.4609 7.02453 19.4609 8.89844C19.4609 10.7723 17.9364 12.2969 16.0625 12.2969Z" fill="black"/>
<path d="M15.4766 8.89842V6.75069C14.5323 7.00862 13.8359 7.8735 13.8359 8.89842C13.8359 10.1262 14.8348 11.125 16.0625 11.125C17.0874 11.125 17.9523 10.4287 18.2103 9.48436H16.0625C15.7389 9.48436 15.4766 9.22202 15.4766 8.89842Z" fill="black"/>
<path d="M18.25 19.5625H14.4609V18.1562H9.53906V19.5625H5.75C5.42641 19.5625 5.16406 19.8248 5.16406 20.1484C5.16406 20.472 5.42641 20.7344 5.75 20.7344H18.25C18.5736 20.7344 18.8359 20.472 18.8359 20.1484C18.8359 19.8248 18.5736 19.5625 18.25 19.5625Z" fill="black"/>
</svg>
