<svg xmlns="http://www.w3.org/2000/svg" width="24" height="25" viewBox="0 0 24 25" fill="none"><rect width="24" height="25" fill="none"/>
<path d="M16.6484 6.8907V8.4525H18.2103C18.0034 7.69504 17.4059 7.09754 16.6484 6.8907Z" fill="black"/>
<path d="M20.2422 3.14001H3.75781C2.78855 3.14001 2 3.92857 2 4.89783V15.3666C2 16.3358 2.78855 17.1244 3.75781 17.1244H20.2422C21.2114 17.1244 22 16.3358 22 15.3666V4.89783C22 3.92857 21.2114 3.14001 20.2422 3.14001ZM5.49648 11.9916C5.1002 12.3043 4.53906 12.0273 4.53906 11.5385C4.53906 11.2024 4.82711 10.9226 5.18281 10.9552C5.7 11.0099 5.89938 11.6519 5.49648 11.9916ZM5.70781 9.09587C5.68262 9.40451 5.39465 9.65458 5.06719 9.62126C4.75668 9.59537 4.50809 9.30689 4.54219 8.98099C4.56793 8.66271 4.87559 8.39572 5.23945 8.46384C5.54754 8.52779 5.73758 8.80884 5.70781 9.09587ZM5.7082 6.59623C5.65539 7.10587 5.01562 7.31822 4.67188 6.9099C4.45645 6.63736 4.51746 6.27826 4.75352 6.08529C5.16055 5.75361 5.7607 6.08451 5.7082 6.59623ZM8.5625 14.6244H7.625C7.30141 14.6244 7.03906 14.362 7.03906 14.0385C7.03906 13.7149 7.30141 13.4525 7.625 13.4525H8.5625C8.88609 13.4525 9.14844 13.7149 9.14844 14.0385C9.14844 14.362 8.88609 14.6244 8.5625 14.6244ZM10.75 12.1244H7.625C7.30141 12.1244 7.03906 11.862 7.03906 11.5385C7.03906 11.2149 7.30141 10.9525 7.625 10.9525H10.75C11.0736 10.9525 11.3359 11.2149 11.3359 11.5385C11.3359 11.862 11.0736 12.1244 10.75 12.1244ZM10.75 9.62439H7.625C7.30141 9.62439 7.03906 9.36205 7.03906 9.03845C7.03906 8.71486 7.30141 8.45251 7.625 8.45251H10.75C11.0736 8.45251 11.3359 8.71486 11.3359 9.03845C11.3359 9.36205 11.0736 9.62439 10.75 9.62439ZM10.75 7.12439H7.625C7.30141 7.12439 7.03906 6.86205 7.03906 6.53845C7.03906 6.21486 7.30141 5.95251 7.625 5.95251H10.75C11.0736 5.95251 11.3359 6.21486 11.3359 6.53845C11.3359 6.86205 11.0736 7.12439 10.75 7.12439ZM14.1875 14.6244H13.25C12.9264 14.6244 12.6641 14.362 12.6641 14.0385C12.6641 13.7149 12.9264 13.4525 13.25 13.4525H14.1875C14.5111 13.4525 14.7734 13.7149 14.7734 14.0385C14.7734 14.362 14.5111 14.6244 14.1875 14.6244ZM16.0625 12.4369C14.1886 12.4369 12.6641 10.9124 12.6641 9.03845C12.6641 7.16455 14.1886 5.64001 16.0625 5.64001C17.9364 5.64001 19.4609 7.16455 19.4609 9.03845C19.4609 10.9124 17.9364 12.4369 16.0625 12.4369Z" fill="black"/>
<path d="M15.4766 9.03844V6.8907C14.5323 7.14863 13.8359 8.01351 13.8359 9.03844C13.8359 10.2662 14.8348 11.265 16.0625 11.265C17.0874 11.265 17.9523 10.5687 18.2103 9.62437H16.0625C15.7389 9.62437 15.4766 9.36203 15.4766 9.03844Z" fill="black"/>
<path d="M18.25 19.7025H14.4609V18.2963H9.53906V19.7025H5.75C5.42641 19.7025 5.16406 19.9649 5.16406 20.2885C5.16406 20.612 5.42641 20.8744 5.75 20.8744H18.25C18.5736 20.8744 18.8359 20.612 18.8359 20.2885C18.8359 19.9649 18.5736 19.7025 18.25 19.7025Z" fill="black"/>
</svg>
