<svg xmlns="http://www.w3.org/2000/svg" width="17" height="17" viewBox="0 0 17 17" fill="none"><rect width="17" height="17" fill="none"/>
<path d="M11.1055 4.59046V5.63166H12.1467C12.0088 5.12668 11.6104 4.72835 11.1055 4.59046Z" fill="black"/>
<path d="M13.5013 2.09H2.51172C1.86555 2.09 1.33984 2.6157 1.33984 3.26188V10.241C1.33984 10.8872 1.86555 11.4129 2.51172 11.4129H13.5013C14.1475 11.4129 14.6732 10.8872 14.6732 10.241V3.26188C14.6732 2.6157 14.1475 2.09 13.5013 2.09ZM3.67083 7.99104C3.40664 8.19953 3.03255 8.01487 3.03255 7.68896C3.03255 7.46492 3.22458 7.27839 3.46172 7.30013C3.80651 7.33661 3.93943 7.76456 3.67083 7.99104ZM3.81172 6.06057C3.79492 6.26633 3.60294 6.43305 3.38464 6.41083C3.17763 6.39357 3.0119 6.20125 3.03464 5.98398C3.0518 5.7718 3.2569 5.5938 3.49948 5.63922C3.70487 5.68185 3.83156 5.86922 3.81172 6.06057ZM3.81198 4.39414C3.77677 4.73391 3.35026 4.87547 3.12109 4.60326C2.97747 4.42156 3.01815 4.18216 3.17552 4.05352C3.44687 3.8324 3.84698 4.05299 3.81198 4.39414ZM5.71484 9.74625H5.08984C4.87411 9.74625 4.69922 9.57135 4.69922 9.35563C4.69922 9.1399 4.87411 8.965 5.08984 8.965H5.71484C5.93057 8.965 6.10547 9.1399 6.10547 9.35563C6.10547 9.57135 5.93057 9.74625 5.71484 9.74625ZM7.17318 8.07958H5.08984C4.87411 8.07958 4.69922 7.90469 4.69922 7.68896C4.69922 7.47323 4.87411 7.29833 5.08984 7.29833H7.17318C7.38891 7.29833 7.5638 7.47323 7.5638 7.68896C7.5638 7.90469 7.38891 8.07958 7.17318 8.07958ZM7.17318 6.41292H5.08984C4.87411 6.41292 4.69922 6.23802 4.69922 6.02229C4.69922 5.80656 4.87411 5.63167 5.08984 5.63167H7.17318C7.38891 5.63167 7.5638 5.80656 7.5638 6.02229C7.5638 6.23802 7.38891 6.41292 7.17318 6.41292ZM7.17318 4.74625H5.08984C4.87411 4.74625 4.69922 4.57135 4.69922 4.35563C4.69922 4.1399 4.87411 3.965 5.08984 3.965H7.17318C7.38891 3.965 7.5638 4.1399 7.5638 4.35563C7.5638 4.57135 7.38891 4.74625 7.17318 4.74625ZM9.46484 9.74625H8.83984C8.62411 9.74625 8.44922 9.57135 8.44922 9.35563C8.44922 9.1399 8.62411 8.965 8.83984 8.965H9.46484C9.68057 8.965 9.85547 9.1399 9.85547 9.35563C9.85547 9.57135 9.68057 9.74625 9.46484 9.74625ZM10.7148 8.28792C9.46557 8.28792 8.44922 7.27156 8.44922 6.02229C8.44922 4.77302 9.46557 3.75667 10.7148 3.75667C11.9641 3.75667 12.9805 4.77302 12.9805 6.02229C12.9805 7.27156 11.9641 8.28792 10.7148 8.28792Z" fill="black"/>
<path d="M10.3242 6.02228V4.59046C9.69469 4.76241 9.23047 5.339 9.23047 6.02228C9.23047 6.84077 9.89635 7.50666 10.7148 7.50666C11.3981 7.50666 11.9747 7.04244 12.1467 6.41291H10.7148C10.4991 6.41291 10.3242 6.23801 10.3242 6.02228Z" fill="black"/>
<path d="M12.1732 13.1317H9.64714V12.1942H6.36589V13.1317H3.83984C3.62411 13.1317 3.44922 13.3066 3.44922 13.5223C3.44922 13.738 3.62411 13.9129 3.83984 13.9129H12.1732C12.3889 13.9129 12.5638 13.738 12.5638 13.5223C12.5638 13.3066 12.3889 13.1317 12.1732 13.1317Z" fill="black"/>
</svg>
