<svg xmlns="http://www.w3.org/2000/svg" width="24" height="25" viewBox="0 0 24 25" fill="none"><rect width="24" height="25" fill="none"/>
<path d="M11 19.0049H8C7.73478 19.0049 7.48043 19.1103 7.29289 19.2978C7.10536 19.4854 7 19.7397 7 20.0049C7 20.2702 7.10536 20.5245 7.29289 20.712C7.48043 20.8996 7.73478 21.0049 8 21.0049H11C11.2652 21.0049 11.5196 20.8996 11.7071 20.712C11.8946 20.5245 12 20.2702 12 20.0049C12 19.7397 11.8946 19.4854 11.7071 19.2978C11.5196 19.1103 11.2652 19.0049 11 19.0049ZM20 15.0049H18.84C19.4153 14.1066 19.8094 13.1045 20 12.0549C20.0289 11.8837 20.0128 11.708 19.9532 11.5449C19.8936 11.3818 19.7925 11.2371 19.66 11.1249C19.5256 11.0066 19.3619 10.9266 19.186 10.8932C19.0101 10.8598 18.8284 10.8742 18.66 10.9349C18.0417 11.1454 17.3932 11.2535 16.74 11.2549C15.1431 11.255 13.6108 10.6248 12.476 9.50127C11.3412 8.37774 10.6958 6.85173 10.68 5.25494C10.6891 4.91962 10.7225 4.58541 10.78 4.25494C10.806 4.08443 10.7874 3.9101 10.726 3.74889C10.6647 3.58769 10.5627 3.44508 10.43 3.33494C10.2946 3.21833 10.1304 3.14012 9.95457 3.10847C9.7787 3.07681 9.59756 3.09286 9.43 3.15494C7.85902 3.69712 6.49405 4.71167 5.522 6.05965C4.54995 7.40763 4.01835 9.02313 4 10.6849C4.00099 12.2168 4.44179 13.7162 5.27 15.0049H4C3.73478 15.0049 3.48043 15.1103 3.29289 15.2978C3.10536 15.4854 3 15.7397 3 16.0049C3 16.2702 3.10536 16.5245 3.29289 16.712C3.48043 16.8996 3.73478 17.0049 4 17.0049H20C20.2652 17.0049 20.5196 16.8996 20.7071 16.712C20.8946 16.5245 21 16.2702 21 16.0049C21 15.7397 20.8946 15.4854 20.7071 15.2978C20.5196 15.1103 20.2652 15.0049 20 15.0049ZM16.28 15.0049H7.83C7.17747 14.3793 6.67474 13.6143 6.35938 12.7671C6.04401 11.9199 5.92416 11.0124 6.00878 10.1123C6.0934 9.21231 6.3803 8.34304 6.84804 7.56946C7.31579 6.79587 7.95229 6.13799 8.71 5.64494C8.82502 7.70191 9.72335 9.63676 11.2205 11.052C12.7176 12.4673 14.6998 13.2556 16.76 13.2549C17.0231 13.2698 17.2869 13.2698 17.55 13.2549C17.2346 13.9095 16.8045 14.5022 16.28 15.0049ZM16 19.0049H15C14.7348 19.0049 14.4804 19.1103 14.2929 19.2978C14.1054 19.4854 14 19.7397 14 20.0049C14 20.2702 14.1054 20.5245 14.2929 20.712C14.4804 20.8996 14.7348 21.0049 15 21.0049H16C16.2652 21.0049 16.5196 20.8996 16.7071 20.712C16.8946 20.5245 17 20.2702 17 20.0049C17 19.7397 16.8946 19.4854 16.7071 19.2978C16.5196 19.1103 16.2652 19.0049 16 19.0049Z" fill="black"/>
</svg>
