<svg xmlns="http://www.w3.org/2000/svg" width="25" height="25" viewBox="0 0 25 25" fill="none"><rect width="25" height="25" fill="none"/>
<path fill-rule="evenodd" clip-rule="evenodd" d="M14.3063 5.29049C14.8316 4.84975 15.6147 4.91826 16.0554 5.44351L20.8489 11.1561C21.0552 11.402 21.1499 11.7044 21.1384 12.0018C21.1502 12.2995 21.0555 12.6023 20.8489 12.8485L16.0555 18.5611C15.6147 19.0864 14.8316 19.1549 14.3064 18.7141C13.7811 18.2734 13.7126 17.4903 14.1533 16.9651L17.307 13.2067H4.42975C3.74408 13.2067 3.18823 12.6509 3.18823 11.9652C3.18823 11.2795 3.74408 10.7237 4.42974 10.7237H17.2446L14.1533 7.03957C13.7126 6.51432 13.7811 5.73123 14.3063 5.29049Z" fill="black"/>
</svg>
