<svg xmlns="http://www.w3.org/2000/svg" width="16" height="16" viewBox="0 0 16 16" fill="none"><rect width="16" height="16" fill="none"/>
<path fill-rule="evenodd" clip-rule="evenodd" d="M9.41204 3.52364C9.76221 3.22982 10.2843 3.27549 10.5781 3.62566L13.7737 7.43406C13.9112 7.59795 13.9744 7.79949 13.9668 7.99766C13.9747 8.19617 13.9115 8.39814 13.7738 8.56233L10.5781 12.3707C10.2843 12.7209 9.76225 12.7666 9.41208 12.4727C9.06191 12.1789 9.01624 11.6569 9.31006 11.3067L11.4125 8.80111H2.82768C2.37056 8.80111 2 8.43055 2 7.97344C2 7.51632 2.37056 7.14576 2.82767 7.14576H11.3709L9.31002 4.6897C9.0162 4.33953 9.06187 3.81747 9.41204 3.52364Z" fill="black"/>
</svg>
