<svg xmlns="http://www.w3.org/2000/svg" width="16" height="16" viewBox="0 0 16 16" fill="none"><rect width="16" height="16" fill="none"/>
<path fill-rule="evenodd" clip-rule="evenodd" d="M9.41204 3.52366C9.76221 3.22983 10.2843 3.27551 10.5781 3.62568L13.7737 7.43408C13.9112 7.59796 13.9744 7.7995 13.9668 7.99767C13.9747 8.19619 13.9115 8.39816 13.7738 8.56234L10.5781 12.3707C10.2843 12.7209 9.76225 12.7666 9.41208 12.4728C9.06191 12.1789 9.01624 11.6569 9.31006 11.3067L11.4125 8.80113H2.82768C2.37056 8.80113 2 8.43056 2 7.97345C2 7.51634 2.37056 7.14578 2.82767 7.14578H11.3709L9.31002 4.68972C9.0162 4.33955 9.06187 3.81749 9.41204 3.52366Z" fill="black"/>
</svg>
