<svg xmlns="http://www.w3.org/2000/svg" width="17" height="16" viewBox="0 0 17 16" fill="none"><rect width="17" height="16" fill="none"/>
<path fill-rule="evenodd" clip-rule="evenodd" d="M9.43206 3.52366C9.78223 3.22983 10.3043 3.27551 10.5981 3.62568L13.7937 7.43408C13.9313 7.59796 13.9944 7.7995 13.9868 7.99767C13.9947 8.19619 13.9316 8.39816 13.7938 8.56234L10.5982 12.3707C10.3043 12.7209 9.78227 12.7666 9.4321 12.4728C9.08193 12.1789 9.03626 11.6569 9.33008 11.3067L11.4325 8.80113H2.8477C2.39058 8.80113 2.02002 8.43056 2.02002 7.97345C2.02002 7.51634 2.39058 7.14578 2.84769 7.14578H11.3909L9.33004 4.68972C9.03622 4.33955 9.08189 3.81749 9.43206 3.52366Z" fill="black"/>
</svg>
