<svg xmlns="http://www.w3.org/2000/svg" width="24" height="24" viewBox="0 0 24 24" fill="none"><rect width="24" height="24" fill="none"/>
<path d="M16.4506 9.25587C16.6252 9.09587 16.847 9.01587 17.1161 9.01587C17.3852 9.01587 17.6034 9.09587 17.7706 9.25587C17.9379 9.41587 18.0215 9.63405 18.0215 9.91041C18.0215 10.1795 17.9379 10.3977 17.7706 10.565C17.6034 10.725 17.3852 10.805 17.1161 10.805C16.847 10.805 16.6252 10.725 16.4506 10.565C16.2834 10.3977 16.1997 10.1795 16.1997 9.91041C16.1997 9.63405 16.2834 9.41587 16.4506 9.25587Z" fill="black"/>
<path fill-rule="evenodd" clip-rule="evenodd" d="M12.001 22C17.5238 22 22.001 17.5228 22.001 12C22.001 6.47715 17.5238 2 12.001 2C6.47813 2 2.00098 6.47715 2.00098 12C2.00098 17.5228 6.47813 22 12.001 22ZM16.0579 11.4813C16.3706 11.6341 16.7234 11.7104 17.1161 11.7104C17.5088 11.7104 17.8615 11.6341 18.1743 11.4813C18.487 11.3286 18.7306 11.1141 18.9052 10.8377C19.087 10.5613 19.1779 10.2522 19.1779 9.91041C19.1779 9.5686 19.087 9.25951 18.9052 8.98314C18.7306 8.70678 18.487 8.49223 18.1743 8.33951C17.8615 8.18678 17.5088 8.11041 17.1161 8.11041C16.7234 8.11041 16.3706 8.18678 16.0579 8.33951C15.7452 8.49223 15.4979 8.70678 15.3161 8.98314C15.1415 9.25951 15.0543 9.5686 15.0543 9.91041C15.0543 10.2522 15.1415 10.5613 15.3161 10.8377C15.4979 11.1141 15.7452 11.3286 16.0579 11.4813ZM14.2579 8.19769H12.5124V12.8341L8.71608 8.19769H7.25426V15.8341H8.99971V11.1977L12.807 15.8341H14.2579V8.19769ZM18.9597 13.4668V12.4304H15.2724V13.4668H18.9597Z" fill="black"/>
</svg>
