<svg xmlns="http://www.w3.org/2000/svg" width="24" height="24" viewBox="0 0 24 24" fill="none"><rect width="24" height="24" fill="none"/>
<path d="M17.3386 8.70704C17.5481 8.51504 17.8142 8.41904 18.1371 8.41904C18.4601 8.41904 18.7219 8.51504 18.9226 8.70704C19.1233 8.89904 19.2237 9.16086 19.2237 9.4925C19.2237 9.81541 19.1233 10.0772 18.9226 10.278C18.7219 10.47 18.4601 10.566 18.1371 10.566C17.8142 10.566 17.5481 10.47 17.3386 10.278C17.1379 10.0772 17.0375 9.81541 17.0375 9.4925C17.0375 9.16086 17.1379 8.89904 17.3386 8.70704Z" fill="black"/>
<path fill-rule="evenodd" clip-rule="evenodd" d="M11.999 24C18.6264 24 23.999 18.6274 23.999 12C23.999 5.37258 18.6264 0 11.999 0C5.37161 0 -0.000976562 5.37258 -0.000976562 12C-0.000976562 18.6274 5.37161 24 11.999 24ZM16.8673 11.3776C17.2426 11.5609 17.6659 11.6525 18.1371 11.6525C18.6084 11.6525 19.0317 11.5609 19.407 11.3776C19.7822 11.1943 20.0746 10.9369 20.2841 10.6052C20.5022 10.2736 20.6113 9.90268 20.6113 9.4925C20.6113 9.08232 20.5022 8.71141 20.2841 8.37977C20.0746 8.04813 19.7822 7.79068 19.407 7.60741C19.0317 7.42413 18.6084 7.3325 18.1371 7.3325C17.6659 7.3325 17.2426 7.42413 16.8673 7.60741C16.4921 7.79068 16.1953 8.04813 15.9771 8.37977C15.7677 8.71141 15.663 9.08232 15.663 9.4925C15.663 9.90268 15.7677 10.2736 15.9771 10.6052C16.1953 10.9369 16.4921 11.1943 16.8673 11.3776ZM14.7073 7.43722H12.6128V13.0009L8.05714 7.43722H6.30296V16.6009H8.39751V11.0372L12.9662 16.6009H14.7073V7.43722ZM20.3495 13.7601V12.5165H15.9248V13.7601H20.3495Z" fill="black"/>
</svg>
