<svg xmlns="http://www.w3.org/2000/svg" width="17" height="17" viewBox="0 0 17 17" fill="none"><rect width="17" height="17" fill="none"/>
<path d="M10.9881 6.17724C11.1044 6.07058 11.2523 6.01724 11.4317 6.01724C11.6111 6.01724 11.7566 6.07058 11.8681 6.17724C11.9796 6.28391 12.0354 6.42936 12.0354 6.61361C12.0354 6.793 11.9796 6.93845 11.8681 7.04997C11.7566 7.15664 11.6111 7.20997 11.4317 7.20997C11.2523 7.20997 11.1044 7.15664 10.9881 7.04997C10.8766 6.93845 10.8208 6.793 10.8208 6.61361C10.8208 6.42936 10.8766 6.28391 10.9881 6.17724Z" fill="black"/>
<path fill-rule="evenodd" clip-rule="evenodd" d="M8.02165 14.6733C11.7035 14.6733 14.6883 11.6886 14.6883 8.00666C14.6883 4.32476 11.7035 1.34 8.02165 1.34C4.33975 1.34 1.35498 4.32476 1.35498 8.00666C1.35498 11.6886 4.33975 14.6733 8.02165 14.6733ZM10.7263 7.66088C10.9347 7.7627 11.1699 7.81361 11.4317 7.81361C11.6935 7.81361 11.9287 7.7627 12.1372 7.66088C12.3457 7.55906 12.5081 7.41603 12.6244 7.23179C12.7457 7.04755 12.8063 6.84149 12.8063 6.61361C12.8063 6.38573 12.7457 6.17967 12.6244 5.99542C12.5081 5.81118 12.3457 5.66815 12.1372 5.56633C11.9287 5.46452 11.6935 5.41361 11.4317 5.41361C11.1699 5.41361 10.9347 5.46452 10.7263 5.56633C10.5178 5.66815 10.3529 5.81118 10.2317 5.99542C10.1154 6.17967 10.0572 6.38573 10.0572 6.61361C10.0572 6.84149 10.1154 7.04755 10.2317 7.23179C10.3529 7.41603 10.5178 7.55906 10.7263 7.66088ZM9.52626 5.47179H8.36262V8.5627L5.83171 5.47179H4.85717V10.5627H6.02081V7.47179L8.55899 10.5627H9.52626V5.47179ZM12.6608 8.98452V8.29361H10.2026V8.98452H12.6608Z" fill="black"/>
</svg>
