<svg xmlns="http://www.w3.org/2000/svg" width="16" height="16" viewBox="0 0 16 16" fill="none"><rect width="16" height="16" fill="none"/>
<path d="M10.9664 6.17059C11.0827 6.06392 11.2306 6.01059 11.41 6.01059C11.5894 6.01059 11.7348 6.06392 11.8464 6.17059C11.9579 6.27726 12.0136 6.42271 12.0136 6.60695C12.0136 6.78635 11.9579 6.9318 11.8464 7.04332C11.7348 7.14998 11.5894 7.20332 11.41 7.20332C11.2306 7.20332 11.0827 7.14998 10.9664 7.04332C10.8548 6.9318 10.7991 6.78635 10.7991 6.60695C10.7991 6.42271 10.8548 6.27726 10.9664 6.17059Z" fill="black"/>
<path fill-rule="evenodd" clip-rule="evenodd" d="M7.99992 14.6667C11.6818 14.6667 14.6666 11.6819 14.6666 8.00001C14.6666 4.31811 11.6818 1.33334 7.99992 1.33334C4.31802 1.33334 1.33325 4.31811 1.33325 8.00001C1.33325 11.6819 4.31802 14.6667 7.99992 14.6667ZM10.7045 7.65423C10.913 7.75604 11.1482 7.80695 11.41 7.80695C11.6718 7.80695 11.907 7.75604 12.1154 7.65423C12.3239 7.55241 12.4864 7.40938 12.6027 7.22514C12.7239 7.04089 12.7845 6.83483 12.7845 6.60695C12.7845 6.37907 12.7239 6.17301 12.6027 5.98877C12.4864 5.80453 12.3239 5.6615 12.1154 5.55968C11.907 5.45786 11.6718 5.40695 11.41 5.40695C11.1482 5.40695 10.913 5.45786 10.7045 5.55968C10.496 5.6615 10.3312 5.80453 10.21 5.98877C10.0936 6.17301 10.0354 6.37907 10.0354 6.60695C10.0354 6.83483 10.0936 7.04089 10.21 7.22514C10.3312 7.40938 10.496 7.55241 10.7045 7.65423ZM9.50453 5.46514H8.3409V8.55605L5.80999 5.46514H4.83544V10.556H5.99908V7.46514L8.53726 10.556H9.50453V5.46514ZM12.6391 8.97786V8.28695H10.1809V8.97786H12.6391Z" fill="black"/>
</svg>
