<svg xmlns="http://www.w3.org/2000/svg" width="25" height="24" viewBox="0 0 25 24" fill="none"><rect width="25" height="24" fill="none"/>
<path d="M16.4545 9.25587C16.6291 9.09587 16.8509 9.01587 17.12 9.01587C17.3891 9.01587 17.6073 9.09587 17.7745 9.25587C17.9418 9.41587 18.0254 9.63405 18.0254 9.91041C18.0254 10.1795 17.9418 10.3977 17.7745 10.565C17.6073 10.725 17.3891 10.805 17.12 10.805C16.8509 10.805 16.6291 10.725 16.4545 10.565C16.2873 10.3977 16.2036 10.1795 16.2036 9.91041C16.2036 9.63405 16.2873 9.41587 16.4545 9.25587Z" fill="black"/>
<path fill-rule="evenodd" clip-rule="evenodd" d="M12.0049 22C17.5277 22 22.0049 17.5228 22.0049 12C22.0049 6.47715 17.5277 2 12.0049 2C6.48204 2 2.00488 6.47715 2.00488 12C2.00488 17.5228 6.48204 22 12.0049 22ZM16.0618 11.4813C16.3745 11.6341 16.7273 11.7104 17.12 11.7104C17.5127 11.7104 17.8654 11.6341 18.1782 11.4813C18.4909 11.3286 18.7345 11.1141 18.9091 10.8377C19.0909 10.5613 19.1818 10.2522 19.1818 9.91041C19.1818 9.5686 19.0909 9.25951 18.9091 8.98314C18.7345 8.70678 18.4909 8.49223 18.1782 8.33951C17.8654 8.18678 17.5127 8.11041 17.12 8.11041C16.7273 8.11041 16.3745 8.18678 16.0618 8.33951C15.7491 8.49223 15.5018 8.70678 15.32 8.98314C15.1454 9.25951 15.0582 9.5686 15.0582 9.91041C15.0582 10.2522 15.1454 10.5613 15.32 10.8377C15.5018 11.1141 15.7491 11.3286 16.0618 11.4813ZM14.2618 8.19769H12.5163V12.8341L8.71998 8.19769H7.25817V15.8341H9.00362V11.1977L12.8109 15.8341H14.2618V8.19769ZM18.9636 13.4668V12.4304H15.2763V13.4668H18.9636Z" fill="black"/>
</svg>
