<svg xmlns="http://www.w3.org/2000/svg" width="17" height="17" viewBox="0 0 17 17" fill="none"><rect width="17" height="17" fill="none"/>
<path fill-rule="evenodd" clip-rule="evenodd" d="M10.5398 1.48489C10.2342 1.48489 9.98649 1.7326 9.98649 2.03817C9.98649 2.34374 10.2342 2.59146 10.5398 2.59146H12.6731L8.59499 6.66954C8.37892 6.88561 8.37892 7.23593 8.59499 7.452C8.81107 7.66807 9.16139 7.66807 9.37746 7.452L13.4788 3.35062V5.53036C13.4788 5.83594 13.7266 6.08365 14.0321 6.08365C14.3377 6.08365 14.5854 5.83593 14.5854 5.53036L14.5854 2.207C14.5854 2.01089 14.4834 1.83861 14.3295 1.74035C14.2312 1.58672 14.0591 1.48489 13.8631 1.48489H10.5398ZM3.43506 3.8146H6.43506V2.5146H3.43506C2.33049 2.5146 1.43506 3.41003 1.43506 4.5146V12.5146C1.43506 13.6192 2.33049 14.5146 3.43506 14.5146H11.4351C12.5396 14.5146 13.4351 13.6192 13.4351 12.5146V9.5146H12.1351V12.5146C12.1351 12.9012 11.8217 13.2146 11.4351 13.2146H3.43506C3.04846 13.2146 2.73506 12.9012 2.73506 12.5146V4.5146C2.73506 4.128 3.04846 3.8146 3.43506 3.8146Z" fill="black"/>
</svg>
