<svg xmlns="http://www.w3.org/2000/svg" width="24" height="24" viewBox="0 0 24 24" fill="none"><rect width="24" height="24" fill="none"/>
<g clip-path="url(#clip0)">
<path d="M19.0002 17.9C18.5002 17.9 18.1002 17.6 18.0002 17.1C17.9002 16.6 18.2002 16 18.8002 15.9C21.0002 15.5 22.4002 13.3 21.9002 11.2C21.5002 9.3 19.9002 8 18.0002 8H16.7002C16.2002 8 15.8002 7.7 15.7002 7.2C14.7002 3.5 10.9002 1.2 7.2002 2.2C5.4002 2.7 3.9002 3.8 3.0002 5.4C2.0002 7.1 1.7002 8.9 2.2002 10.8C2.7002 12.7 3.9002 14.2 5.6002 15.2C6.1002 15.4 6.3002 16 6.0002 16.5C5.7002 17 5.1002 17.2 4.6002 16.9C2.4002 15.7 0.900204 13.7 0.200204 11.3C-0.399796 9 -0.0997958 6.5 1.2002 4.5C2.4002 2.4 4.4002 1 6.7002 0.400004C11.2002 -0.799996 15.9002 1.8 17.4002 6.1H18.0002C20.8002 6.1 23.3002 8.1 23.9002 10.9C24.6002 14.1 22.5002 17.3 19.2002 18C19.1002 17.9 19.1002 17.9 19.0002 17.9Z" fill="black"/>
<path d="M11.0002 24C10.8002 24 10.6002 23.9 10.4002 23.8C9.9002 23.5 9.8002 22.9 10.1002 22.4L13.1002 18H9.0002C8.6002 18 8.3002 17.8 8.1002 17.5C7.9002 17.2 7.9002 16.8 8.1002 16.5L12.1002 10.5C12.4002 10 13.0002 9.9 13.5002 10.2C14.0002 10.5 14.1002 11.1 13.8002 11.6L10.8002 16H15.0002C15.4002 16 15.7002 16.2 15.9002 16.5C16.1002 16.8 16.1002 17.2 15.9002 17.5L11.9002 23.5C11.6002 23.8 11.3002 24 11.0002 24Z" fill="black"/>
</g>
<defs>
<clipPath id="clip0">
<rect width="24" height="24" fill="white"/>
</clipPath>
</defs>
</svg>
