<svg xmlns="http://www.w3.org/2000/svg" width="16" height="24" viewBox="0 0 16 24" fill="none"><rect width="16" height="24" fill="none"/>
<path fill-rule="evenodd" clip-rule="evenodd" d="M2.88881 6.5C1.47741 6.5 0.333252 8.21624 0.333252 10.3333V12.5238C0.333252 14.6409 1.47741 16.3571 2.8888 16.3571H8.7689C8.74331 16.0889 8.73008 15.8146 8.73008 15.5357C8.73008 12.3601 10.4463 9.78571 12.5634 9.78571C13.0099 9.78571 13.4385 9.9002 13.8369 10.1107C13.7601 8.0972 12.6472 6.5 11.2856 6.5H2.88881ZM1.79357 13.619C1.79357 13.3166 1.95702 13.0714 2.15865 13.0714H3.98405C4.18567 13.0714 4.34912 13.3166 4.34912 13.619C4.34912 13.9215 4.18567 14.1667 3.98405 14.1667H2.15865C1.95702 14.1667 1.79357 13.9215 1.79357 13.619ZM5.44436 13.619C5.44436 13.3166 5.60781 13.0714 5.80944 13.0714H7.63484C7.83647 13.0714 7.99992 13.3166 7.99992 13.619C7.99992 13.9215 7.83647 14.1667 7.63484 14.1667H5.80944C5.60781 14.1667 5.44436 13.9215 5.44436 13.619ZM3.07135 9.2381C2.56728 9.2381 2.15865 9.85104 2.15865 10.6071C2.15865 11.3632 2.56728 11.9762 3.07135 11.9762C3.57542 11.9762 3.98405 11.3632 3.98405 10.6071C3.98405 9.85104 3.57542 9.2381 3.07135 9.2381ZM5.80944 10.6071C5.80944 9.85104 6.21807 9.2381 6.72214 9.2381C7.22621 9.2381 7.63484 9.85104 7.63484 10.6071C7.63484 11.3632 7.22621 11.9762 6.72214 11.9762C6.21807 11.9762 5.80944 11.3632 5.80944 10.6071Z" fill="black"/>
<path fill-rule="evenodd" clip-rule="evenodd" d="M12.5634 20.1905C10.8496 20.1905 9.46024 18.1065 9.46024 15.5357C9.46024 12.965 10.8496 10.881 12.5634 10.881C14.2772 10.881 15.6666 12.965 15.6666 15.5357C15.6666 18.1065 14.2772 20.1905 12.5634 20.1905ZM13.9098 14.0431C14.0562 14.2512 14.0623 14.5978 13.9236 14.8173L12.4631 17.128L11.2192 15.3887C11.0718 15.1824 11.0637 14.8359 11.2011 14.6147C11.3386 14.3935 11.5696 14.3813 11.7171 14.5875L12.4314 15.5863L13.3937 14.0637C13.5324 13.8442 13.7635 13.835 13.9098 14.0431Z" fill="black"/>
</svg>
