<svg xmlns="http://www.w3.org/2000/svg" width="24" height="24" viewBox="0 0 24 24" fill="none"><rect width="24" height="24" fill="none"/>
<path fill-rule="evenodd" clip-rule="evenodd" d="M4 4.85715C1.79086 4.85715 0 6.64801 0 8.85715V11.1429C0 13.352 1.79086 15.1429 3.99999 15.1429H13.2036C13.1636 14.8629 13.1429 14.5767 13.1429 14.2857C13.1429 10.972 15.8291 8.28572 19.1429 8.28572C19.8416 8.28572 20.5125 8.40518 21.1362 8.62479C21.0159 6.52379 19.274 4.85715 17.1429 4.85715H4ZM2.28571 12.2857C2.28571 11.9701 2.54155 11.7143 2.85714 11.7143H5.71429C6.02988 11.7143 6.28571 11.9701 6.28571 12.2857C6.28571 12.6013 6.02988 12.8571 5.71429 12.8571H2.85714C2.54155 12.8571 2.28571 12.6013 2.28571 12.2857ZM8 12.2857C8 11.9701 8.25584 11.7143 8.57143 11.7143H11.4286C11.7442 11.7143 12 11.9701 12 12.2857C12 12.6013 11.7442 12.8571 11.4286 12.8571H8.57143C8.25584 12.8571 8 12.6013 8 12.2857ZM4.28571 7.71429C3.49674 7.71429 2.85714 8.35388 2.85714 9.14286C2.85714 9.93184 3.49674 10.5714 4.28571 10.5714C5.07469 10.5714 5.71429 9.93184 5.71429 9.14286C5.71429 8.35388 5.07469 7.71429 4.28571 7.71429ZM8.57143 9.14286C8.57143 8.35388 9.21102 7.71429 10 7.71429C10.789 7.71429 11.4286 8.35388 11.4286 9.14286C11.4286 9.93184 10.789 10.5714 10 10.5714C9.21102 10.5714 8.57143 9.93184 8.57143 9.14286Z" fill="black"/>
<path fill-rule="evenodd" clip-rule="evenodd" d="M19.1429 19.1429C16.4603 19.1429 14.2857 16.9682 14.2857 14.2857C14.2857 11.6032 16.4603 9.42858 19.1429 9.42858C21.8254 9.42858 24 11.6032 24 14.2857C24 16.9682 21.8254 19.1429 19.1429 19.1429ZM21.2503 12.7282C21.4793 12.9453 21.489 13.307 21.2718 13.536L18.9859 15.9472L17.0389 14.1323C16.8081 13.9171 16.7954 13.5555 17.0106 13.3247C17.2258 13.0938 17.5874 13.0811 17.8182 13.2963L18.9362 14.3385L20.4425 12.7497C20.6596 12.5207 21.0213 12.5111 21.2503 12.7282Z" fill="black"/>
</svg>
