<svg xmlns="http://www.w3.org/2000/svg" width="24" height="25" viewBox="0 0 24 25" fill="none"><rect width="24" height="25" fill="none"/>
<path fill-rule="evenodd" clip-rule="evenodd" d="M4.33333 5.16504C2.21624 5.16504 0.5 6.88128 0.5 8.99837V11.1888C0.5 13.3059 2.21624 15.0222 4.33333 15.0222H13.1535C13.1151 14.7539 13.0952 14.4796 13.0952 14.2008C13.0952 11.0251 15.6696 8.45075 18.8452 8.45075C19.5149 8.45075 20.1579 8.56524 20.7555 8.7757C20.6402 6.76224 18.9709 5.16504 16.9286 5.16504H4.33333ZM2.69048 12.2841C2.69048 11.9816 2.93565 11.7365 3.2381 11.7365H5.97619C6.27863 11.7365 6.52381 11.9816 6.52381 12.2841C6.52381 12.5865 6.27863 12.8317 5.97619 12.8317H3.2381C2.93565 12.8317 2.69048 12.5865 2.69048 12.2841ZM8.16667 12.2841C8.16667 11.9816 8.41184 11.7365 8.71428 11.7365H11.4524C11.7548 11.7365 12 11.9816 12 12.2841C12 12.5865 11.7548 12.8317 11.4524 12.8317H8.71428C8.41184 12.8317 8.16667 12.5865 8.16667 12.2841ZM4.60714 7.90313C3.85104 7.90313 3.2381 8.51608 3.2381 9.27218C3.2381 10.0283 3.85104 10.6412 4.60714 10.6412C5.36325 10.6412 5.97619 10.0283 5.97619 9.27218C5.97619 8.51608 5.36325 7.90313 4.60714 7.90313ZM8.71428 9.27218C8.71428 8.51608 9.32723 7.90313 10.0833 7.90313C10.8394 7.90313 11.4524 8.51608 11.4524 9.27218C11.4524 10.0283 10.8394 10.6412 10.0833 10.6412C9.32723 10.6412 8.71428 10.0283 8.71428 9.27218Z" fill="black"/>
<path fill-rule="evenodd" clip-rule="evenodd" d="M18.8452 18.8555C16.2745 18.8555 14.1905 16.7715 14.1905 14.2008C14.1905 11.63 16.2745 9.54599 18.8452 9.54599C21.416 9.54599 23.5 11.63 23.5 14.2008C23.5 16.7715 21.416 18.8555 18.8452 18.8555ZM20.8649 12.7081C21.0844 12.9162 21.0936 13.2628 20.8855 13.4823L18.6948 15.793L16.829 14.0537C16.6078 13.8475 16.5956 13.501 16.8018 13.2797C17.0081 13.0585 17.3546 13.0464 17.5758 13.2526L18.6472 14.2514L20.0907 12.7288C20.2988 12.5093 20.6454 12.5 20.8649 12.7081Z" fill="black"/>
</svg>
