<svg xmlns="http://www.w3.org/2000/svg" width="17" height="17" viewBox="0 0 17 17" fill="none"><rect width="17" height="17" fill="none"/>
<path fill-rule="evenodd" clip-rule="evenodd" d="M2.67155 3.23999C1.19879 3.23999 0.00488281 4.4339 0.00488281 5.90666V7.43047C0.00488281 8.90323 1.19879 10.0971 2.67155 10.0971H8.8073C8.7806 9.9105 8.76679 9.71972 8.76679 9.52571C8.76679 7.31657 10.5576 5.5257 12.7668 5.5257C13.2326 5.5257 13.6799 5.60534 14.0957 5.75175C14.0155 4.35108 12.8542 3.23999 11.4335 3.23999H2.67155ZM1.52869 8.19237C1.52869 7.98198 1.69925 7.81142 1.90964 7.81142H3.81441C4.0248 7.81142 4.19536 7.98198 4.19536 8.19237C4.19536 8.40277 4.0248 8.57332 3.81441 8.57332H1.90964C1.69925 8.57332 1.52869 8.40277 1.52869 8.19237ZM5.33822 8.19237C5.33822 7.98198 5.50877 7.81142 5.71917 7.81142H7.62393C7.83432 7.81142 8.00488 7.98198 8.00488 8.19237C8.00488 8.40277 7.83432 8.57332 7.62393 8.57332H5.71917C5.50877 8.57332 5.33822 8.40277 5.33822 8.19237ZM2.86203 5.14475C2.33604 5.14475 1.90964 5.57115 1.90964 6.09713C1.90964 6.62312 2.33604 7.04951 2.86203 7.04951C3.38801 7.04951 3.81441 6.62312 3.81441 6.09713C3.81441 5.57115 3.38801 5.14475 2.86203 5.14475ZM5.71917 6.09713C5.71917 5.57115 6.14556 5.14475 6.67155 5.14475C7.19753 5.14475 7.62393 5.57115 7.62393 6.09713C7.62393 6.62312 7.19753 7.04951 6.67155 7.04951C6.14556 7.04951 5.71917 6.62312 5.71917 6.09713Z" fill="black"/>
<path fill-rule="evenodd" clip-rule="evenodd" d="M12.7668 12.7638C10.9784 12.7638 9.52869 11.3141 9.52869 9.52571C9.52869 7.73735 10.9784 6.28761 12.7668 6.28761C14.5551 6.28761 16.0049 7.73735 16.0049 9.52571C16.0049 11.3141 14.5551 12.7638 12.7668 12.7638ZM14.1717 8.48735C14.3244 8.63211 14.3309 8.87323 14.1861 9.02591L12.6621 10.6334L11.3642 9.42342C11.2103 9.27996 11.2018 9.0389 11.3453 8.885C11.4887 8.73111 11.7298 8.72265 11.8837 8.86611L12.629 9.56091L13.6332 8.50172C13.7779 8.34903 14.0191 8.3426 14.1717 8.48735Z" fill="black"/>
</svg>
