<svg xmlns="http://www.w3.org/2000/svg" width="17" height="17" viewBox="0 0 17 17" fill="none"><rect width="17" height="17" fill="none"/>
<path d="M13.9774 2.07623C13.6608 1.75264 13.1922 1.63295 12.7552 1.75961L2.56607 4.70363C2.10505 4.83155 1.77829 5.19694 1.69027 5.66048C1.60035 6.13289 1.91444 6.73322 2.32479 6.98399L5.51072 8.92937C5.83748 9.12948 6.25923 9.07945 6.52964 8.80841L10.1778 5.16021C10.3615 4.9696 10.6655 4.9696 10.8491 5.16021C11.0327 5.34322 11.0327 5.64148 10.8491 5.83146L7.19456 9.47967C6.92352 9.7507 6.87286 10.1712 7.07234 10.4986L9.01898 13.6965C9.24695 14.0759 9.63957 14.2918 10.0702 14.2918C10.1208 14.2918 10.1778 14.2918 10.2285 14.2848C10.7224 14.2221 11.1151 13.8859 11.2607 13.4109L14.2814 3.29843C14.4143 2.86781 14.294 2.3992 13.9774 2.07623Z" fill="black"/>
<path d="M2.31473 11.0872C2.19314 11.0872 2.07155 11.041 1.9791 10.9479C1.79355 10.7623 1.79355 10.4622 1.9791 10.2766L2.8435 9.41159C3.02904 9.22668 3.32984 9.22668 3.51539 9.41159C3.7003 9.59714 3.7003 9.89794 3.51539 10.0835L2.65035 10.9479C2.5579 11.041 2.43631 11.0872 2.31473 11.0872Z" fill="black"/>
<path d="M4.69654 11.8423C4.57495 11.8423 4.45337 11.7961 4.36091 11.703C4.17537 11.5174 4.17537 11.2173 4.36091 11.0317L5.22531 10.1667C5.41086 9.98178 5.71166 9.98178 5.8972 10.1667C6.08211 10.3522 6.08211 10.653 5.8972 10.8386L5.03217 11.703C4.93971 11.7961 4.81813 11.8423 4.69654 11.8423Z" fill="black"/>
<path d="M4.8572 14.1018C4.94965 14.1949 5.07124 14.2411 5.19283 14.2411C5.31441 14.2411 5.436 14.1949 5.52845 14.1018L6.39349 13.2374C6.5784 13.0518 6.5784 12.751 6.39349 12.5655C6.20794 12.3806 5.90714 12.3806 5.7216 12.5655L4.8572 13.4305C4.67165 13.6161 4.67165 13.9162 4.8572 14.1018Z" fill="black"/>
</svg>
