<svg xmlns="http://www.w3.org/2000/svg" width="16" height="16" viewBox="0 0 16 16" fill="none"><rect width="16" height="16" fill="none"/>
<path d="M13.9691 2.03284C13.6525 1.70924 13.1839 1.58956 12.7469 1.71621L2.55777 4.66023C2.09675 4.78815 1.76999 5.15354 1.68197 5.61709C1.59205 6.0895 1.90614 6.68983 2.31649 6.9406L5.50242 8.88597C5.82918 9.08608 6.25093 9.03605 6.52134 8.76502L10.1695 5.11681C10.3532 4.9262 10.6572 4.9262 10.8408 5.11681C11.0244 5.29982 11.0244 5.59809 10.8408 5.78807L7.18626 9.43627C6.91522 9.70731 6.86456 10.1278 7.06404 10.4552L9.01068 13.6531C9.23865 14.0325 9.63127 14.2484 10.0619 14.2484C10.1125 14.2484 10.1695 14.2484 10.2202 14.2414C10.7141 14.1788 11.1068 13.8425 11.2524 13.3675L14.2731 3.25503C14.406 2.82441 14.2857 2.3558 13.9691 2.03284Z" fill="black"/>
<path d="M2.30643 11.0438C2.18484 11.0438 2.06325 10.9976 1.9708 10.9045C1.78525 10.7189 1.78525 10.4188 1.9708 10.2332L2.8352 9.3682C3.02074 9.18329 3.32154 9.18329 3.50708 9.3682C3.692 9.55374 3.692 9.85454 3.50708 10.0401L2.64205 10.9045C2.5496 10.9976 2.42801 11.0438 2.30643 11.0438Z" fill="black"/>
<path d="M4.68824 11.7989C4.56665 11.7989 4.44507 11.7527 4.35261 11.6596C4.16707 11.474 4.16707 11.1739 4.35261 10.9883L5.21701 10.1233C5.40256 9.93838 5.70335 9.93838 5.8889 10.1233C6.07381 10.3088 6.07381 10.6096 5.8889 10.7952L5.02387 11.6596C4.93141 11.7527 4.80983 11.7989 4.68824 11.7989Z" fill="black"/>
<path d="M4.8489 14.0584C4.94135 14.1515 5.06294 14.1977 5.18453 14.1977C5.30611 14.1977 5.4277 14.1515 5.52015 14.0584L6.38518 13.194C6.5701 13.0084 6.5701 12.7076 6.38518 12.5221C6.19964 12.3372 5.89884 12.3372 5.7133 12.5221L4.8489 13.3871C4.66335 13.5727 4.66335 13.8728 4.8489 14.0584Z" fill="black"/>
</svg>
