<svg xmlns="http://www.w3.org/2000/svg" width="24" height="25" viewBox="0 0 24 25" fill="none"><rect width="24" height="25" fill="none"/>
<path d="M20.9539 3.12427C20.4789 2.63888 19.776 2.45935 19.1206 2.64933L3.83689 7.06536C3.14537 7.25724 2.65523 7.80532 2.5232 8.50064C2.38831 9.20926 2.85946 10.1098 3.47499 10.4859L8.25388 13.404C8.74402 13.7041 9.37664 13.6291 9.78225 13.2225L15.2546 7.75023C15.53 7.46431 15.986 7.46431 16.2614 7.75023C16.5369 8.02475 16.5369 8.47214 16.2614 8.75711L10.7796 14.2294C10.3731 14.636 10.2971 15.2667 10.5963 15.7578L13.5163 20.5547C13.8582 21.1237 14.4472 21.4476 15.0931 21.4476C15.1691 21.4476 15.2546 21.4476 15.3305 21.4372C16.0715 21.3431 16.6604 20.8387 16.8789 20.1263L21.4098 4.95756C21.6093 4.31163 21.4288 3.60871 20.9539 3.12427Z" fill="black"/>
<path d="M3.45988 16.6407C3.2775 16.6407 3.09512 16.5714 2.95644 16.4317C2.67812 16.1534 2.67812 15.7032 2.95644 15.4249L4.25304 14.1273C4.53136 13.8499 4.98255 13.8499 5.26087 14.1273C5.53824 14.4056 5.53824 14.8568 5.26087 15.1351L3.96332 16.4317C3.82464 16.5714 3.64226 16.6407 3.45988 16.6407Z" fill="black"/>
<path d="M7.0326 17.7734C6.85022 17.7734 6.66785 17.704 6.52916 17.5644C6.25085 17.2861 6.25085 16.8358 6.52916 16.5575L7.82576 15.26C8.10408 14.9826 8.55528 14.9826 8.83359 15.26C9.11096 15.5383 9.11096 15.9895 8.83359 16.2678L7.53605 17.5644C7.39736 17.704 7.21498 17.7734 7.0326 17.7734Z" fill="black"/>
<path d="M7.27359 21.1626C7.41227 21.3022 7.59465 21.3715 7.77703 21.3715C7.95941 21.3715 8.14179 21.3022 8.28047 21.1626L9.57802 19.866C9.85539 19.5876 9.85539 19.1365 9.57802 18.8581C9.2997 18.5808 8.84851 18.5808 8.57019 18.8581L7.27359 20.1557C6.99527 20.434 6.99527 20.8842 7.27359 21.1626Z" fill="black"/>
</svg>
