<svg xmlns="http://www.w3.org/2000/svg" width="24" height="25" viewBox="0 0 24 25" fill="none"><rect width="24" height="25" fill="none"/>
<path d="M18.0799 12.4249L11.8999 18.6149C11.0897 19.3349 10.0351 19.7181 8.95164 19.6862C7.86821 19.6543 6.83792 19.2097 6.07149 18.4433C5.30506 17.6768 4.86043 16.6466 4.82853 15.5631C4.79664 14.4797 5.1799 13.425 5.89992 12.6149L13.8999 4.61485C14.3775 4.16115 15.0112 3.90818 15.6699 3.90818C16.3287 3.90818 16.9623 4.16115 17.4399 4.61485C17.9053 5.08644 18.1662 5.72232 18.1662 6.38485C18.1662 7.04738 17.9053 7.68326 17.4399 8.15485L10.5399 15.0449C10.4716 15.1184 10.3895 15.1778 10.2983 15.2196C10.2071 15.2614 10.1085 15.2848 10.0082 15.2885C9.90791 15.2922 9.80788 15.2762 9.7138 15.2412C9.61973 15.2063 9.53346 15.1531 9.45992 15.0849C9.38638 15.0166 9.32701 14.9345 9.2852 14.8432C9.24339 14.752 9.21995 14.6534 9.21624 14.5531C9.21253 14.4528 9.2286 14.3528 9.26355 14.2587C9.29849 14.1647 9.35163 14.0784 9.41992 14.0049L14.5499 8.88485C14.7382 8.69655 14.844 8.44115 14.844 8.17485C14.844 7.90855 14.7382 7.65315 14.5499 7.46485C14.3616 7.27655 14.1062 7.17076 13.8399 7.17076C13.5736 7.17076 13.3182 7.27655 13.1299 7.46485L7.99992 12.6049C7.74322 12.8596 7.53948 13.1626 7.40045 13.4964C7.26141 13.8302 7.18983 14.1882 7.18983 14.5499C7.18983 14.9115 7.26141 15.2695 7.40045 15.6033C7.53948 15.9371 7.74322 16.2401 7.99992 16.4949C8.52429 16.9943 9.22072 17.2729 9.94492 17.2729C10.6691 17.2729 11.3655 16.9943 11.8899 16.4949L18.7799 9.59485C19.5748 8.7418 20.0075 7.61352 19.987 6.44772C19.9664 5.28191 19.4941 4.1696 18.6696 3.34512C17.8452 2.52064 16.7329 2.04837 15.5671 2.0278C14.4012 2.00723 13.273 2.43997 12.4199 3.23485L4.41992 11.2348C3.34111 12.4297 2.76494 13.9947 2.81145 15.6038C2.85795 17.213 3.52355 18.7421 4.66955 19.8726C5.81556 21.0032 7.35359 21.6479 8.9632 21.6725C10.5728 21.6972 12.1299 21.0998 13.3099 20.0049L19.4999 13.8249C19.5932 13.7316 19.6671 13.6209 19.7176 13.4991C19.768 13.3773 19.794 13.2467 19.794 13.1149C19.794 12.983 19.768 12.8524 19.7176 12.7306C19.6671 12.6088 19.5932 12.4981 19.4999 12.4049C19.4067 12.3116 19.296 12.2377 19.1742 12.1872C19.0523 12.1367 18.9218 12.1108 18.7899 12.1108C18.6581 12.1108 18.5275 12.1367 18.4057 12.1872C18.2838 12.2377 18.1732 12.3116 18.0799 12.4049V12.4249Z" fill="black"/>
</svg>
