<svg xmlns="http://www.w3.org/2000/svg" width="24" height="24" viewBox="0 0 24 24" fill="none"><rect width="24" height="24" fill="none"/>
<path d="M20.9549 3.04932C20.4799 2.56393 19.777 2.3844 19.1216 2.57437L3.83787 6.99041C3.14635 7.18229 2.65621 7.73037 2.52417 8.42569C2.38929 9.13431 2.86043 10.0348 3.47596 10.411L8.25485 13.329C8.745 13.6292 9.37762 13.5541 9.78322 13.1476L15.2555 7.67528C15.531 7.38936 15.9869 7.38936 16.2624 7.67528C16.5379 7.9498 16.5379 8.39719 16.2624 8.68216L10.7806 14.1545C10.3741 14.561 10.2981 15.1917 10.5973 15.6828L13.5172 20.4798C13.8592 21.0488 14.4481 21.3727 15.0941 21.3727C15.17 21.3727 15.2555 21.3727 15.3315 21.3622C16.0724 21.2682 16.6614 20.7638 16.8798 20.0514L21.4108 4.8826C21.6103 4.23668 21.4298 3.53376 20.9549 3.04932Z" fill="black"/>
<path d="M3.46086 16.5658C3.27848 16.5658 3.0961 16.4964 2.95742 16.3568C2.6791 16.0785 2.6791 15.6282 2.95742 15.3499L4.25402 14.0524C4.53233 13.775 4.98353 13.775 5.26185 14.0524C5.53922 14.3307 5.53922 14.7819 5.26185 15.0602L3.9643 16.3568C3.82562 16.4964 3.64324 16.5658 3.46086 16.5658Z" fill="black"/>
<path d="M7.03358 17.6984C6.8512 17.6984 6.66882 17.6291 6.53014 17.4894C6.25182 17.2111 6.25182 16.7609 6.53014 16.4826L7.82674 15.185C8.10506 14.9076 8.55625 14.9076 8.83457 15.185C9.11194 15.4633 9.11194 15.9145 8.83457 16.1928L7.53702 17.4894C7.39834 17.6291 7.21596 17.6984 7.03358 17.6984Z" fill="black"/>
<path d="M7.27457 21.0876C7.41325 21.2272 7.59563 21.2966 7.77801 21.2966C7.96039 21.2966 8.14277 21.2272 8.28145 21.0876L9.579 19.791C9.85637 19.5127 9.85637 19.0615 9.579 18.7832C9.30068 18.5058 8.84948 18.5058 8.57117 18.7832L7.27457 20.0807C6.99625 20.359 6.99625 20.8093 7.27457 21.0876Z" fill="black"/>
</svg>
