<svg xmlns="http://www.w3.org/2000/svg" width="24" height="24" viewBox="0 0 24 24" fill="none"><rect width="24" height="24" fill="none"/>
<path d="M8.91263 18.7907C8.54451 17.9008 8.34138 16.9254 8.34138 15.9025C8.34138 15.6003 8.3591 15.3023 8.39356 15.0095C7.27231 13.9682 6.68103 12.4003 6.95587 10.779C7.38942 8.22115 9.81443 6.49912 12.3722 6.93272C13.4271 7.11154 14.3594 7.63715 15.0491 8.38909C15.3292 8.35764 15.6139 8.34148 15.9024 8.34148C16.9352 8.34148 17.9196 8.54857 18.8165 8.92348C18.6212 8.37957 18.366 7.85792 18.0547 7.36844C17.9751 7.24226 17.9751 7.08166 18.0547 6.95549L19.0354 5.56178L17.59 4.1164L16.1963 5.09716C16.0696 5.19601 15.895 5.20629 15.7575 5.12295C14.9716 4.60523 14.0965 4.23768 13.1766 4.03894C13.0215 3.99685 12.9085 3.86332 12.8927 3.70341L12.6088 2H10.5699L10.286 3.70345C10.2733 3.87028 10.1612 4.013 10.0021 4.06478C9.07632 4.25705 8.19308 4.61555 7.3953 5.12295C7.26913 5.20249 7.10852 5.20249 6.98235 5.12295L5.5886 4.14219L4.14321 5.58752L5.12398 6.98123C5.20238 7.11698 5.20238 7.28426 5.12398 7.42001C4.60625 8.20594 4.23871 9.08103 4.03996 10.001C3.99787 10.1561 3.86434 10.2691 3.70443 10.2849L2.00098 10.5688V12.6077L3.70443 12.8916C3.87126 12.9043 4.01398 13.0164 4.06575 13.1756C4.25802 14.1013 4.61653 14.9845 5.12393 15.7823C5.20346 15.9085 5.20346 16.0691 5.12393 16.1953L4.14316 17.589L5.5885 19.0343L6.98221 18.0535C7.11796 17.9751 7.28523 17.9751 7.42099 18.0535C7.89253 18.3502 8.39244 18.597 8.91263 18.7907Z" fill="black"/>
<path fill-rule="evenodd" clip-rule="evenodd" d="M15.9018 22C19.2694 22 21.9994 19.27 21.9994 15.9024C21.9994 12.5348 19.2694 9.80488 15.9018 9.80488C12.5342 9.80488 9.80427 12.5348 9.80427 15.9024C9.80427 19.27 12.5342 22 15.9018 22ZM18.0634 16.9972C17.6482 17.4978 17.1446 17.7481 16.5524 17.7481C16.2288 17.7481 15.9388 17.684 15.6824 17.5558C15.426 17.4215 15.2215 17.2353 15.0689 16.9972H17.0286V16.0998H14.7758C14.7697 16.057 14.7667 15.996 14.7667 15.9166C14.7667 15.8373 14.7697 15.7762 14.7758 15.7335H17.0286V14.836H15.0689C15.2215 14.598 15.426 14.4148 15.6824 14.2866C15.9388 14.1523 16.2288 14.0851 16.5524 14.0851C17.1446 14.0851 17.6482 14.3354 18.0634 14.836L19.2172 13.7921C18.9059 13.4014 18.5152 13.1022 18.0451 12.8947C17.575 12.6871 17.0469 12.5833 16.4608 12.5833C15.9297 12.5833 15.4352 12.6779 14.9773 12.8672C14.5194 13.0503 14.1287 13.3128 13.8051 13.6547C13.4816 13.9905 13.2465 14.3843 13.1 14.836H12.0835V15.7335H12.9352V16.0998H12.0835V16.9972H13.1C13.2465 17.449 13.4816 17.8458 13.8051 18.1877C14.1287 18.5235 14.5194 18.786 14.9773 18.9752C15.4352 19.1584 15.9297 19.25 16.4608 19.25C17.0469 19.25 17.575 19.1462 18.0451 18.9386C18.5152 18.731 18.9059 18.4319 19.2172 18.0412L18.0634 16.9972Z" fill="black"/>
</svg>
