<svg xmlns="http://www.w3.org/2000/svg" width="16" height="16" viewBox="0 0 16 16" fill="none"><rect width="16" height="16" fill="none"/>
<path d="M5.94126 12.5271C5.69585 11.9339 5.56043 11.2836 5.56043 10.6016C5.56043 10.4002 5.57225 10.2015 5.59522 10.0063C4.84772 9.31214 4.45353 8.26683 4.63676 7.18595C4.92579 5.48075 6.54246 4.33273 8.24763 4.62179C8.95091 4.74101 9.57242 5.09141 10.0322 5.59271C10.219 5.57174 10.4088 5.56097 10.6011 5.56097C11.2896 5.56097 11.9459 5.69902 12.5438 5.94896C12.4137 5.58636 12.2435 5.23859 12.036 4.91227C11.9829 4.82816 11.9829 4.72109 12.036 4.63697L12.6898 3.70783L11.7262 2.74425L10.7971 3.39809C10.7126 3.46399 10.5962 3.47084 10.5045 3.41528C9.9806 3.07013 9.3972 2.8251 8.7839 2.69261C8.68049 2.66455 8.60517 2.57552 8.59463 2.46892L8.40539 1.33331H7.04609L6.85682 2.46895C6.84836 2.58017 6.77363 2.67532 6.66755 2.70983C6.0504 2.83801 5.46157 3.07701 4.92971 3.41528C4.8456 3.4683 4.73853 3.4683 4.65441 3.41528L3.72524 2.76144L2.76165 3.72499L3.4155 4.65413C3.46776 4.74464 3.46776 4.85615 3.4155 4.94665C3.07035 5.4706 2.82532 6.054 2.69282 6.6673C2.66476 6.77071 2.57574 6.84603 2.46913 6.85657L1.3335 7.04585V8.40514L2.46913 8.59441C2.58035 8.60287 2.6755 8.6776 2.71001 8.78368C2.83819 9.40084 3.0772 9.98967 3.41546 10.5215C3.46849 10.6056 3.46849 10.7127 3.41546 10.7968L2.76162 11.726L3.72518 12.6895L4.65432 12.0357C4.74482 11.9834 4.85633 11.9834 4.94684 12.0357C5.2612 12.2334 5.59447 12.398 5.94126 12.5271Z" fill="black"/>
<path fill-rule="evenodd" clip-rule="evenodd" d="M10.6007 14.6666C12.8458 14.6666 14.6658 12.8467 14.6658 10.6016C14.6658 8.35654 12.8458 6.53656 10.6007 6.53656C8.35567 6.53656 6.53569 8.35654 6.53569 10.6016C6.53569 12.8467 8.35567 14.6666 10.6007 14.6666ZM12.0418 11.3315C11.765 11.6652 11.4292 11.8321 11.0344 11.8321C10.8187 11.8321 10.6254 11.7893 10.4545 11.7039C10.2835 11.6143 10.1472 11.4902 10.0454 11.3315H11.3519V10.7332H9.85007C9.846 10.7047 9.84396 10.664 9.84396 10.6111C9.84396 10.5582 9.846 10.5175 9.85007 10.489H11.3519V9.89068H10.0454C10.1472 9.73195 10.2835 9.60985 10.4545 9.52438C10.6254 9.43484 10.8187 9.39007 11.0344 9.39007C11.4292 9.39007 11.765 9.55694 12.0418 9.89068L12.811 9.19471C12.6034 8.93423 12.3429 8.7348 12.0296 8.59642C11.7162 8.45804 11.3641 8.38885 10.9734 8.38885C10.6193 8.38885 10.2896 8.45193 9.98438 8.5781C9.67913 8.7002 9.41865 8.87521 9.20294 9.10313C8.98723 9.32698 8.83053 9.5895 8.73285 9.89068H8.0552V10.489H8.62296V10.7332H8.0552V11.3315H8.73285C8.83053 11.6326 8.98723 11.8972 9.20294 12.1251C9.41865 12.349 9.67913 12.524 9.98438 12.6501C10.2896 12.7722 10.6193 12.8333 10.9734 12.8333C11.3641 12.8333 11.7162 12.7641 12.0296 12.6257C12.3429 12.4873 12.6034 12.2879 12.811 12.0274L12.0418 11.3315Z" fill="black"/>
</svg>
