<svg xmlns="http://www.w3.org/2000/svg" width="24" height="25" viewBox="0 0 24 25" fill="none"><rect width="24" height="25" fill="none"/>
<path d="M8.91165 18.7957C8.54353 17.9058 8.3404 16.9304 8.3404 15.9075C8.3404 15.6053 8.35812 15.3073 8.39258 15.0145C7.27133 13.9732 6.68005 12.4053 6.9549 10.784C7.38844 8.22616 9.81345 6.50413 12.3712 6.93772C13.4261 7.11655 14.3584 7.64215 15.0481 8.3941C15.3282 8.36264 15.6129 8.34648 15.9014 8.34648C16.9342 8.34648 17.9186 8.55357 18.8155 8.92848C18.6203 8.38458 18.365 7.86292 18.0537 7.37344C17.9741 7.24727 17.9741 7.08667 18.0537 6.96049L19.0344 5.56679L17.5891 4.1214L16.1954 5.10217C16.0686 5.20102 15.894 5.2113 15.7566 5.12796C14.9706 4.61023 14.0956 4.24268 13.1756 4.04394C13.0205 4.00185 12.9075 3.86832 12.8917 3.70841L12.6078 2.005H10.5689L10.285 3.70846C10.2723 3.87529 10.1602 4.01801 10.0011 4.06978C9.07535 4.26205 8.1921 4.62055 7.39432 5.12796C7.26815 5.20749 7.10755 5.20749 6.98138 5.12796L5.58762 4.14719L4.14224 5.59252L5.123 6.98623C5.2014 7.12199 5.2014 7.28926 5.123 7.42501C4.60527 8.21094 4.23773 9.08603 4.03899 10.006C3.9969 10.1611 3.86337 10.2741 3.70345 10.2899L2 10.5738V12.6127L3.70345 12.8967C3.87028 12.9093 4.013 13.0214 4.06478 13.1806C4.25705 14.1063 4.61555 14.9895 5.12295 15.7873C5.20249 15.9135 5.20249 16.0741 5.12295 16.2003L4.14219 17.594L5.58752 19.0393L6.98123 18.0585C7.11698 17.9801 7.28426 17.9801 7.42001 18.0585C7.89155 18.3552 8.39147 18.602 8.91165 18.7957Z" fill="black"/>
<path fill-rule="evenodd" clip-rule="evenodd" d="M15.9009 22.005C19.2684 22.005 21.9984 19.275 21.9984 15.9074C21.9984 12.5399 19.2684 9.80988 15.9009 9.80988C12.5333 9.80988 9.8033 12.5399 9.8033 15.9074C9.8033 19.275 12.5333 22.005 15.9009 22.005ZM18.0624 17.0022C17.6473 17.5028 17.1436 17.7531 16.5514 17.7531C16.2278 17.7531 15.9379 17.689 15.6814 17.5608C15.425 17.4265 15.2205 17.2403 15.0679 17.0022H17.0276V16.1048H14.7749C14.7688 16.0621 14.7657 16.001 14.7657 15.9216C14.7657 15.8423 14.7688 15.7812 14.7749 15.7385H17.0276V14.8411H15.0679C15.2205 14.603 15.425 14.4198 15.6814 14.2916C15.9379 14.1573 16.2278 14.0901 16.5514 14.0901C17.1436 14.0901 17.6473 14.3404 18.0624 14.8411L19.2163 13.7971C18.9049 13.4064 18.5142 13.1072 18.0441 12.8997C17.574 12.6921 17.0459 12.5883 16.4598 12.5883C15.9287 12.5883 15.4342 12.6829 14.9763 12.8722C14.5184 13.0553 14.1277 13.3179 13.8042 13.6597C13.4806 13.9955 13.2456 14.3893 13.099 14.8411H12.0825V15.7385H12.9342V16.1048H12.0825V17.0022H13.099C13.2456 17.454 13.4806 17.8508 13.8042 18.1927C14.1277 18.5285 14.5184 18.791 14.9763 18.9802C15.4342 19.1634 15.9287 19.255 16.4598 19.255C17.0459 19.255 17.574 19.1512 18.0441 18.9436C18.5142 18.736 18.9049 18.4369 19.2163 18.0462L18.0624 17.0022Z" fill="black"/>
</svg>
