<svg xmlns="http://www.w3.org/2000/svg" width="17" height="17" viewBox="0 0 17 17" fill="none"><rect width="17" height="17" fill="none"/>
<path d="M5.95152 12.5338C5.7061 11.9405 5.57068 11.2902 5.57068 10.6083C5.57068 10.4069 5.5825 10.2082 5.60547 10.013C4.85797 9.31883 4.46379 8.27351 4.64702 7.19263C4.93605 5.48743 6.55272 4.33941 8.25789 4.62847C8.96117 4.74769 9.58268 5.0981 10.0425 5.59939C10.2292 5.57842 10.419 5.56765 10.6113 5.56765C11.2999 5.56765 11.9562 5.70571 12.5541 5.95565C12.4239 5.59305 12.2538 5.24528 12.0462 4.91895C11.9932 4.83484 11.9932 4.72777 12.0462 4.64366L12.7 3.71452L11.7365 2.75093L10.8073 3.40477C10.7228 3.47067 10.6064 3.47752 10.5148 3.42196C9.99085 3.07681 9.40745 2.83178 8.79415 2.69929C8.69074 2.67123 8.61542 2.58221 8.60488 2.4756L8.41564 1.34H7.05635L6.86707 2.47563C6.85861 2.58685 6.78388 2.682 6.6778 2.71651C6.06065 2.84469 5.47182 3.0837 4.93997 3.42196C4.85585 3.47499 4.74878 3.47499 4.66467 3.42196L3.7355 2.76812L2.77191 3.73168L3.42575 4.66082C3.47802 4.75132 3.47802 4.86283 3.42575 4.95334C3.0806 5.47729 2.83557 6.06068 2.70308 6.67398C2.67502 6.7774 2.58599 6.85272 2.47939 6.86326L1.34375 7.05253V8.41182L2.47939 8.60109C2.59061 8.60956 2.68575 8.68429 2.72027 8.79037C2.84845 9.40752 3.08745 9.99635 3.42572 10.5282C3.47874 10.6123 3.47874 10.7194 3.42572 10.8035L2.77187 11.7326L3.73543 12.6962L4.66457 12.0424C4.75507 11.9901 4.86659 11.9901 4.95709 12.0424C5.27145 12.2401 5.60473 12.4047 5.95152 12.5338Z" fill="black"/>
<path fill-rule="evenodd" clip-rule="evenodd" d="M10.611 14.6733C12.856 14.6733 14.676 12.8533 14.676 10.6083C14.676 8.36323 12.856 6.54325 10.611 6.54325C8.36593 6.54325 6.54595 8.36323 6.54595 10.6083C6.54595 12.8533 8.36593 14.6733 10.611 14.6733ZM12.052 11.3381C11.7753 11.6719 11.4395 11.8388 11.0447 11.8388C10.829 11.8388 10.6357 11.796 10.4647 11.7106C10.2938 11.621 10.1574 11.4969 10.0557 11.3381H11.3622V10.7399H9.86032C9.85625 10.7114 9.85422 10.6707 9.85422 10.6178C9.85422 10.5648 9.85625 10.5241 9.86032 10.4957H11.3622V9.89736H10.0557C10.1574 9.73863 10.2938 9.61653 10.4647 9.53106C10.6357 9.44152 10.829 9.39675 11.0447 9.39675C11.4395 9.39675 11.7753 9.56362 12.052 9.89736L12.8213 9.20139C12.6137 8.94091 12.3532 8.74148 12.0398 8.6031C11.7264 8.46472 11.3744 8.39553 10.9836 8.39553C10.6296 8.39553 10.2999 8.45862 9.99463 8.58479C9.68938 8.70689 9.4289 8.8819 9.21319 9.10982C8.99748 9.33367 8.84079 9.59618 8.74311 9.89736H8.06545V10.4957H8.63322V10.7399H8.06545V11.3381H8.74311C8.84079 11.6393 8.99748 11.9039 9.21319 12.1318C9.4289 12.3556 9.68938 12.5307 9.99463 12.6568C10.2999 12.7789 10.6296 12.84 10.9836 12.84C11.3744 12.84 11.7264 12.7708 12.0398 12.6324C12.3532 12.494 12.6137 12.2946 12.8213 12.0341L12.052 11.3381Z" fill="black"/>
</svg>
