<svg xmlns="http://www.w3.org/2000/svg" width="24" height="24" viewBox="0 0 24 24" fill="none"><rect width="24" height="24" fill="none"/>
<path d="M8.29495 20.1488C7.85321 19.081 7.60946 17.9104 7.60946 16.6829C7.60946 16.3204 7.63072 15.9628 7.67207 15.6114C6.32657 14.3619 5.61704 12.4803 5.94685 10.5347C6.46711 7.46538 9.37711 5.39894 12.4464 5.91926C13.7123 6.13385 14.831 6.76457 15.6587 7.66691C15.9948 7.62916 16.3364 7.60977 16.6826 7.60977C17.922 7.60977 19.1033 7.85827 20.1795 8.30817C19.9453 7.65549 19.639 7.0295 19.2654 6.44212C19.1699 6.29071 19.1699 6.09799 19.2654 5.94658L20.4423 4.27414L18.7078 2.53968L17.0354 3.71659C16.8833 3.83522 16.6738 3.84755 16.5089 3.74754C15.5657 3.12627 14.5156 2.68521 13.4117 2.44672C13.2256 2.39622 13.09 2.23598 13.071 2.04408L12.7304 0H10.2836L9.94296 2.04414C9.92772 2.24434 9.79321 2.4156 9.60227 2.47773C8.49139 2.70845 7.4315 3.13866 6.47416 3.74754C6.32275 3.84298 6.13003 3.84298 5.97863 3.74754L4.30612 2.57062L2.57166 4.30502L3.74857 5.97747C3.84265 6.14038 3.84265 6.3411 3.74857 6.50401C3.1273 7.44712 2.68625 8.49723 2.44776 9.60117C2.39725 9.78731 2.23702 9.92289 2.04512 9.94186L0.000976562 10.2826V12.7293L2.04512 13.07C2.24531 13.0852 2.41658 13.2197 2.47871 13.4107C2.70943 14.5215 3.13964 15.5814 3.74852 16.5388C3.84396 16.6902 3.84396 16.8829 3.74852 17.0343L2.5716 18.7067L4.306 20.4411L5.97845 19.2642C6.14135 19.1702 6.34208 19.1702 6.50499 19.2642C7.07084 19.6202 7.67073 19.9164 8.29495 20.1488Z" fill="black"/>
<path fill-rule="evenodd" clip-rule="evenodd" d="M16.682 24C20.7231 24 23.9991 20.724 23.9991 16.6829C23.9991 12.6418 20.7231 9.36584 16.682 9.36584C12.6409 9.36584 9.36493 12.6418 9.36493 16.6829C9.36493 20.724 12.6409 24 16.682 24ZM19.2759 17.9967C18.7777 18.5974 18.1733 18.8978 17.4627 18.8978C17.0744 18.8978 16.7264 18.8208 16.4187 18.667C16.111 18.5058 15.8656 18.2824 15.6824 17.9967H18.0341V16.9197H15.3308C15.3235 16.8685 15.3198 16.7952 15.3198 16.7C15.3198 16.6047 15.3235 16.5315 15.3308 16.4802H18.0341V15.4032H15.6824C15.8656 15.1175 16.111 14.8978 16.4187 14.7439C16.7264 14.5827 17.0744 14.5021 17.4627 14.5021C18.1733 14.5021 18.7777 14.8025 19.2759 15.4032L20.6605 14.1505C20.2868 13.6816 19.818 13.3227 19.2539 13.0736C18.6898 12.8245 18.0561 12.7 17.3528 12.7C16.7154 12.7 16.122 12.8135 15.5726 13.0406C15.0231 13.2604 14.5542 13.5754 14.166 13.9857C13.7777 14.3886 13.4956 14.8611 13.3198 15.4032H12.1V16.4802H13.122V16.9197H12.1V17.9967H13.3198C13.4956 18.5388 13.7777 19.015 14.166 19.4252C14.5542 19.8282 15.0231 20.1432 15.5726 20.3703C16.122 20.5901 16.7154 20.7 17.3528 20.7C18.0561 20.7 18.6898 20.5754 19.2539 20.3263C19.818 20.0772 20.2868 19.7183 20.6605 19.2494L19.2759 17.9967Z" fill="black"/>
</svg>
