<svg xmlns="http://www.w3.org/2000/svg" width="24" height="24" viewBox="0 0 24 24" fill="none"><rect width="24" height="24" fill="none"/>
<path d="M9.02966 20.2645H10.5055L11.0175 16.9975C11.1169 16.3592 11.437 15.778 11.9202 15.3583C12.4033 14.9386 13.0179 14.708 13.6533 14.7079H14.1291C16.6765 14.7079 17.9925 13.7566 18.4587 11.3179C18.6567 10.2863 18.5701 9.64375 18.296 9.28375C17.1475 12.2392 14.6896 13.3095 11.6712 13.3095H10.83C10.4646 13.3095 10.0745 13.5117 10.0193 13.8708L9.02966 20.2645ZM4.3251 19.98C4.24935 19.98 4.1745 19.9633 4.10571 19.931C4.03692 19.8987 3.97583 19.8517 3.92663 19.7931C3.87744 19.7345 3.84131 19.6658 3.82073 19.5916C3.80016 19.5175 3.79563 19.4397 3.80745 19.3636L6.35099 2.95095C6.38365 2.74137 6.48884 2.55055 6.6476 2.41286C6.80637 2.27518 7.00827 2.19969 7.21692 2.2H13.3298C15.4347 2.2 17.0809 2.65193 17.9915 3.70772C18.8194 4.66576 19.0601 5.72446 18.8203 7.28056C19.1629 7.4654 19.456 7.69184 19.692 7.96377C20.4704 8.86666 20.6226 10.1508 20.3276 11.6895C19.6235 15.3717 17.2103 16.6443 14.1291 16.6443H13.6533C13.4711 16.6445 13.295 16.7108 13.1565 16.8312C13.018 16.9517 12.9263 17.1184 12.8978 17.3014L12.2298 21.5429C12.2014 21.726 12.1098 21.8928 11.9713 22.0133C11.8327 22.1337 11.6565 22.1999 11.4742 22.2H7.34062C7.27424 22.2 7.20865 22.1853 7.14837 22.1571C7.08808 22.1288 7.03453 22.0876 6.9914 22.0363C6.94827 21.985 6.91658 21.9248 6.89851 21.8598C6.88044 21.7949 6.87642 21.7267 6.88672 21.66L7.14745 19.98H4.32415H4.3251ZM10.83 11.3731H11.6712C14.7067 11.3731 16.3291 10.2002 16.8887 7.28056C16.9077 7.18282 16.9239 7.08411 16.9391 6.98153C17.097 5.95574 16.9867 5.47865 16.5604 4.98511C16.1179 4.47222 15.035 4.13545 13.3288 4.13545H8.09522L5.93801 18.0446H7.42341L8.11805 13.5659L8.12472 13.5669C8.26446 12.9436 8.60827 12.387 9.09978 11.9884C9.5913 11.5898 10.2014 11.3729 10.83 11.3731Z" fill="black"/>
</svg>
