<svg xmlns="http://www.w3.org/2000/svg" width="17" height="17" viewBox="0 0 17 17" fill="none"><rect width="17" height="17" fill="none"/>
<path d="M5.93595 13.383H6.91987L7.26117 11.205C7.32746 10.7795 7.54085 10.392 7.86297 10.1122C8.18508 9.8324 8.59478 9.67864 9.01839 9.67857H9.33558C11.0338 9.67857 11.9112 9.04439 12.222 7.41861C12.354 6.73088 12.2962 6.3025 12.1135 6.0625C11.3478 8.03279 9.70923 8.74633 7.69698 8.74633H7.13619C6.89259 8.74633 6.6325 8.88117 6.5957 9.12052L5.93595 13.383ZM2.79958 13.1934C2.74908 13.1933 2.69918 13.1822 2.65332 13.1607C2.60746 13.1392 2.56673 13.1078 2.53393 13.0687C2.50114 13.0297 2.47705 12.9839 2.46333 12.9344C2.44962 12.885 2.4466 12.8331 2.45448 12.7824L4.15017 1.84064C4.17195 1.70092 4.24207 1.5737 4.34791 1.48191C4.45376 1.39012 4.58836 1.33979 4.72746 1.34H8.80271C10.206 1.34 11.3034 1.64129 11.9105 2.34515C12.4624 2.98384 12.6229 3.68964 12.4631 4.72704C12.6914 4.85027 12.8868 5.00123 13.0442 5.18252C13.5631 5.78444 13.6646 6.64056 13.4679 7.66635C12.9985 10.1211 11.3897 10.9695 9.33558 10.9695H9.01839C8.89693 10.9697 8.77949 11.0139 8.68718 11.0942C8.59486 11.1744 8.53371 11.2856 8.5147 11.4076L8.06936 14.2353C8.05047 14.3573 7.98936 14.4685 7.89701 14.5488C7.80467 14.6292 7.68717 14.6733 7.56567 14.6733H4.80993C4.76567 14.6733 4.72195 14.6636 4.68176 14.6447C4.64157 14.6259 4.60587 14.5984 4.57711 14.5642C4.54836 14.53 4.52723 14.4899 4.51518 14.4465C4.50314 14.4032 4.50046 14.3578 4.50733 14.3133L4.68115 13.1934H2.79895H2.79958ZM7.13619 7.45538H7.69698C9.72065 7.45538 10.8023 6.67346 11.1753 4.72704C11.188 4.66188 11.1988 4.59608 11.2089 4.52769C11.3142 3.84383 11.2406 3.52577 10.9564 3.19674C10.6614 2.85481 9.93951 2.6303 8.80207 2.6303H5.31299L3.87485 11.9031H4.86512L5.32821 8.9173L5.33266 8.91794C5.42582 8.50239 5.65502 8.13135 5.9827 7.86562C6.31038 7.5999 6.71709 7.45525 7.13619 7.45538Z" fill="black"/>
</svg>
