<svg xmlns="http://www.w3.org/2000/svg" width="25" height="24" viewBox="0 0 25 24" fill="none"><rect width="25" height="24" fill="none"/>
<path d="M8.89855 20.0645H10.3744L10.8864 16.7975C10.9858 16.1592 11.3059 15.578 11.7891 15.1583C12.2722 14.7386 12.8868 14.508 13.5222 14.5079H13.998C16.5454 14.5079 17.8614 13.5566 18.3276 11.1179C18.5256 10.0863 18.439 9.44375 18.1649 9.08376C17.0164 12.0392 14.5585 13.1095 11.5401 13.1095H10.6989C10.3335 13.1095 9.94337 13.3118 9.88818 13.6708L8.89855 20.0645ZM4.194 19.78C4.11825 19.78 4.0434 19.7633 3.97461 19.731C3.90582 19.6987 3.84473 19.6517 3.79553 19.5931C3.74633 19.5345 3.7102 19.4658 3.68963 19.3916C3.66906 19.3175 3.66452 19.2397 3.67635 19.1636L6.21989 2.75096C6.25255 2.54138 6.35774 2.35055 6.5165 2.21287C6.67526 2.07518 6.87716 1.99969 7.08582 2H13.1987C15.3036 2 16.9498 2.45193 17.8604 3.50772C18.6883 4.46577 18.929 5.52446 18.6892 7.08056C19.0318 7.2654 19.3249 7.49185 19.5609 7.76378C20.3393 8.66667 20.4915 9.95084 20.1965 11.4895C19.4924 15.1717 17.0792 16.4443 13.998 16.4443H13.5222C13.34 16.4445 13.1639 16.5108 13.0254 16.6312C12.8869 16.7517 12.7952 16.9184 12.7667 17.1014L12.0987 21.3429C12.0703 21.526 11.9787 21.6928 11.8401 21.8133C11.7016 21.9337 11.5254 21.9999 11.3431 22H7.20952C7.14314 22 7.07755 21.9853 7.01727 21.9571C6.95698 21.9288 6.90343 21.8876 6.8603 21.8363C6.81716 21.785 6.78547 21.7248 6.7674 21.6598C6.74933 21.5949 6.74531 21.5267 6.75562 21.46L7.01635 19.78H4.19305H4.194ZM10.6989 11.1731H11.5401C14.5756 11.1731 16.198 10.0002 16.7576 7.08056C16.7766 6.98282 16.7928 6.88412 16.808 6.78154C16.9659 5.75575 16.8556 5.27866 16.4293 4.78512C15.9868 4.27222 14.9039 3.93545 13.1977 3.93545H7.96411L5.80691 17.8446H7.29231L7.98695 13.3659L7.99361 13.3669C8.13336 12.7436 8.47716 12.187 8.96868 11.7884C9.4602 11.3898 10.0703 11.1729 10.6989 11.1731Z" fill="black"/>
</svg>
