<svg xmlns="http://www.w3.org/2000/svg" width="16" height="16" viewBox="0 0 16 16" fill="none"><rect width="16" height="16" fill="none"/>
<path d="M6.0192 13.5097H7.00312L7.34442 11.3317C7.41072 10.9062 7.62411 10.5187 7.94622 10.2389C8.26833 9.95908 8.67803 9.80532 9.10165 9.80526H9.41884C11.1171 9.80526 11.9944 9.17107 12.3053 7.54529C12.4372 6.85756 12.3795 6.42918 12.1968 6.18919C11.4311 8.15948 9.79249 8.87301 7.78024 8.87301H7.21945C6.97584 8.87301 6.71575 9.00785 6.67895 9.2472L6.0192 13.5097ZM2.88283 13.32C2.83233 13.32 2.78243 13.3089 2.73657 13.2873C2.69071 13.2658 2.64998 13.2345 2.61719 13.1954C2.58439 13.1564 2.5603 13.1105 2.54659 13.0611C2.53287 13.0117 2.52985 12.9598 2.53773 12.9091L4.23343 1.96732C4.2552 1.8276 4.32532 1.70038 4.43117 1.60859C4.53701 1.5168 4.67161 1.46648 4.81071 1.46668H8.88596C10.2892 1.46668 11.3867 1.76797 11.9938 2.47183C12.5457 3.11053 12.7062 3.81632 12.5463 4.85372C12.7747 4.97695 12.9701 5.12791 13.1274 5.3092C13.6463 5.91113 13.7478 6.76724 13.5512 7.79303C13.0817 10.2478 11.473 11.0962 9.41884 11.0962H9.10165C8.98018 11.0964 8.86275 11.1406 8.77043 11.2208C8.67812 11.3011 8.61696 11.4123 8.59795 11.5343L8.15262 14.362C8.13373 14.484 8.07261 14.5952 7.98027 14.6755C7.88792 14.7558 7.77042 14.8 7.64892 14.8H4.89318C4.84893 14.8 4.8052 14.7902 4.76501 14.7714C4.72482 14.7526 4.68912 14.7251 4.66036 14.6909C4.63161 14.6567 4.61048 14.6165 4.59843 14.5732C4.58639 14.5299 4.58371 14.4845 4.59058 14.44L4.7644 13.32H2.8822H2.88283ZM7.21945 7.58207H7.78024C9.8039 7.58207 10.8855 6.80014 11.2585 4.85372C11.2712 4.78856 11.282 4.72276 11.2922 4.65437C11.3975 3.97051 11.3239 3.65245 11.0397 3.32343C10.7447 2.9815 10.0228 2.75698 8.88532 2.75698H5.39624L3.9581 12.0297H4.94837L5.41147 9.04398L5.41591 9.04462C5.50907 8.62907 5.73827 8.25803 6.06595 7.9923C6.39363 7.72658 6.80035 7.58193 7.21945 7.58207Z" fill="black"/>
</svg>
