<svg xmlns="http://www.w3.org/2000/svg" width="24" height="24" viewBox="0 0 24 24" fill="none"><rect width="24" height="24" fill="none"/>
<path d="M7.8641 14.8678C7.8641 14.5356 7.63362 14.3376 7.22698 14.3376C7.06093 14.3376 6.94847 14.354 6.88965 14.3696V15.4353C6.9593 15.451 7.04491 15.4562 7.16293 15.4562C7.59637 15.4562 7.8641 15.2372 7.8641 14.8678Z" fill="black"/>
<path d="M10.3811 14.3478C10.199 14.3478 10.0813 14.3635 10.0117 14.3798V16.74C10.0814 16.7563 10.1938 16.7563 10.2955 16.7563C11.0342 16.7616 11.5161 16.3549 11.5161 15.4933C11.5213 14.744 11.0822 14.3478 10.3811 14.3478Z" fill="black"/>
<path d="M15.0582 2H7.02536C5.85184 2 4.89672 2.95578 4.89672 4.12864V12H4.68882C4.21518 12 3.83105 12.3837 3.83105 12.8578V18.0598C3.83105 18.5338 4.21513 18.9175 4.68882 18.9175H4.89672V19.8714C4.89672 21.0455 5.85184 22 7.02536 22H17.9858C19.1586 22 20.1138 21.0455 20.1138 19.8714V7.03792L15.0582 2ZM6.08132 13.7966C6.3327 13.7541 6.68604 13.7221 7.18386 13.7221C7.68696 13.7221 8.04552 13.8181 8.28645 14.011C8.51659 14.1927 8.6719 14.4928 8.6719 14.8459C8.6719 15.1989 8.55422 15.499 8.34009 15.7023C8.06158 15.9645 7.6497 16.0822 7.16789 16.0822C7.06066 16.0822 6.96455 16.0769 6.88938 16.0664V17.3564H6.08132V13.7966ZM17.9858 20.6964H7.02536C6.57097 20.6964 6.20095 20.3264 6.20095 19.8714V18.9175H16.4183C16.8921 18.9175 17.2761 18.5338 17.2761 18.0598V12.8578C17.2761 12.3837 16.8921 12 16.4183 12H6.20095V4.12864C6.20095 3.67491 6.57101 3.30489 7.02536 3.30489L14.5705 3.29701V6.08596C14.5705 6.90058 15.2315 7.56217 16.0467 7.56217L18.7788 7.55433L18.8095 19.8713C18.8095 20.3264 18.4402 20.6964 17.9858 20.6964ZM9.19295 17.34V13.7966C9.49266 13.7489 9.88329 13.7221 10.2955 13.7221C10.9807 13.7221 11.4249 13.845 11.773 14.1071C12.1477 14.3856 12.383 14.8295 12.383 15.4669C12.383 16.1573 12.1316 16.6339 11.7835 16.9281C11.4036 17.2438 10.8254 17.3936 10.119 17.3936C9.69596 17.3936 9.39625 17.3668 9.19295 17.34ZM15.0347 15.2421V15.9056H13.7392V17.3564H12.9204V13.7489H15.1256V14.4176H13.7392V15.2421H15.0347Z" fill="black"/>
</svg>
