<svg xmlns="http://www.w3.org/2000/svg" width="25" height="24" viewBox="0 0 25 24" fill="none"><rect width="25" height="24" fill="none"/>
<path d="M7.89803 14.8678C7.89803 14.5356 7.66756 14.3376 7.26091 14.3376C7.09486 14.3376 6.9824 14.354 6.92358 14.3696V15.4353C6.99323 15.451 7.07885 15.4562 7.19687 15.4562C7.63031 15.4562 7.89803 15.2372 7.89803 14.8678Z" fill="black"/>
<path d="M10.415 14.3478C10.2329 14.3478 10.1153 14.3635 10.0457 14.3798V16.74C10.1153 16.7563 10.2278 16.7563 10.3294 16.7563C11.0682 16.7616 11.55 16.3549 11.55 15.4933C11.5552 14.744 11.1162 14.3478 10.415 14.3478Z" fill="black"/>
<path d="M15.0921 2H7.0593C5.88578 2 4.93066 2.95578 4.93066 4.12864V12H4.72275C4.24911 12 3.86499 12.3837 3.86499 12.8578V18.0598C3.86499 18.5338 4.24907 18.9175 4.72275 18.9175H4.93066V19.8714C4.93066 21.0455 5.88578 22 7.0593 22H18.0197C19.1925 22 20.1478 21.0455 20.1478 19.8714V7.03792L15.0921 2ZM6.11525 13.7966C6.36663 13.7541 6.71998 13.7221 7.2178 13.7221C7.72089 13.7221 8.07946 13.8181 8.32039 14.011C8.55053 14.1927 8.70583 14.4928 8.70583 14.8459C8.70583 15.1989 8.58815 15.499 8.37402 15.7023C8.09551 15.9645 7.68364 16.0822 7.20183 16.0822C7.0946 16.0822 6.99848 16.0769 6.92332 16.0664V17.3564H6.11525V13.7966ZM18.0197 20.6964H7.0593C6.60491 20.6964 6.23489 20.3264 6.23489 19.8714V18.9175H16.4523C16.926 18.9175 17.3101 18.5338 17.3101 18.0598V12.8578C17.3101 12.3837 16.926 12 16.4523 12H6.23489V4.12864C6.23489 3.67491 6.60495 3.30489 7.0593 3.30489L14.6044 3.29701V6.08596C14.6044 6.90058 15.2654 7.56217 16.0806 7.56217L18.8127 7.55433L18.8435 19.8713C18.8435 20.3264 18.4741 20.6964 18.0197 20.6964ZM9.22689 17.34V13.7966C9.52659 13.7489 9.91723 13.7221 10.3295 13.7221C11.0146 13.7221 11.4589 13.845 11.807 14.1071C12.1816 14.3856 12.4169 14.8295 12.4169 15.4669C12.4169 16.1573 12.1655 16.6339 11.8174 16.9281C11.4375 17.2438 10.8593 17.3936 10.1529 17.3936C9.7299 17.3936 9.43019 17.3668 9.22689 17.34ZM15.0686 15.2421V15.9056H13.7732V17.3564H12.9543V13.7489H15.1595V14.4176H13.7732V15.2421H15.0686Z" fill="black"/>
</svg>
