<svg xmlns="http://www.w3.org/2000/svg" width="16" height="17" viewBox="0 0 16 17" fill="none"><rect width="16" height="17" fill="none"/>
<path d="M5.2634 9.91852C5.2634 9.69709 5.10975 9.56504 4.83866 9.56504C4.72795 9.56504 4.65298 9.57597 4.61377 9.58642V10.2969C4.6602 10.3073 4.71728 10.3108 4.79596 10.3108C5.08492 10.3108 5.2634 10.1648 5.2634 9.91852Z" fill="black"/>
<path d="M6.94141 9.57188C6.82001 9.57188 6.74155 9.58236 6.69515 9.59323V11.1667C6.74158 11.1776 6.81655 11.1776 6.88433 11.1776C7.37683 11.181 7.69804 10.9099 7.69804 10.3355C7.70153 9.83598 7.40883 9.57188 6.94141 9.57188Z" fill="black"/>
<path d="M10.0595 1.34H4.70424C3.9219 1.34 3.28515 1.97719 3.28515 2.75909V8.00665H3.14655C2.83079 8.00665 2.57471 8.26249 2.57471 8.57852V12.0465C2.57471 12.3625 2.83076 12.6183 3.14655 12.6183H3.28515V13.2542C3.28515 14.037 3.9219 14.6733 4.70424 14.6733H12.0112C12.7931 14.6733 13.4299 14.037 13.4299 13.2542V4.69862L10.0595 1.34ZM4.07488 9.20437C4.24247 9.17605 4.47803 9.1547 4.80991 9.1547C5.14531 9.1547 5.38435 9.21872 5.54497 9.34732C5.6984 9.4685 5.80194 9.66852 5.80194 9.90392C5.80194 10.1393 5.72348 10.3393 5.58073 10.4749C5.39506 10.6497 5.12047 10.7281 4.79927 10.7281C4.72778 10.7281 4.6637 10.7246 4.61359 10.7176V11.5776H4.07488V9.20437ZM12.0112 13.8043H4.70424C4.40132 13.8043 4.15464 13.5576 4.15464 13.2542V12.6183H10.9662C11.282 12.6183 11.5381 12.3625 11.5381 12.0465V8.57852C11.5381 8.26249 11.282 8.00665 10.9662 8.00665H4.15464V2.75909C4.15464 2.45661 4.40134 2.20993 4.70424 2.20993L9.73433 2.20467V4.06397C9.73433 4.60705 10.175 5.04812 10.7185 5.04812L12.5399 5.04289L12.5603 13.2542C12.5603 13.5576 12.3141 13.8043 12.0112 13.8043ZM6.14931 11.5667V9.20437C6.34911 9.17257 6.60953 9.1547 6.88436 9.1547C7.34111 9.1547 7.63729 9.23664 7.86936 9.41139C8.11911 9.59707 8.27599 9.89303 8.27599 10.3179C8.27599 10.7782 8.10841 11.0959 7.8763 11.292C7.62307 11.5025 7.2376 11.6024 6.76667 11.6024C6.48464 11.6024 6.28484 11.5845 6.14931 11.5667ZM10.0438 10.168V10.6104H9.18016V11.5776H8.63426V9.17257H10.1044V9.61842H9.18016V10.168H10.0438Z" fill="black"/>
</svg>
