<svg xmlns="http://www.w3.org/2000/svg" width="16" height="16" viewBox="0 0 16 16" fill="none"><rect width="16" height="16" fill="none"/>
<path d="M5.24192 9.91186C5.24192 9.69043 5.08827 9.55838 4.81717 9.55838C4.70647 9.55838 4.6315 9.5693 4.59228 9.57975V10.2902C4.63872 10.3007 4.6958 10.3041 4.77447 10.3041C5.06344 10.3041 5.24192 10.1581 5.24192 9.91186Z" fill="black"/>
<path d="M6.91993 9.56521C6.79853 9.56521 6.72007 9.57569 6.67367 9.58656V11.16C6.7201 11.1709 6.79507 11.1709 6.86285 11.1709C7.35535 11.1744 7.67656 10.9033 7.67656 10.3288C7.68004 9.82931 7.38735 9.56521 6.91993 9.56521Z" fill="black"/>
<path d="M10.038 1.33333H4.68276C3.90041 1.33333 3.26367 1.97052 3.26367 2.75242V7.99999H3.12506C2.8093 7.99999 2.55322 8.25582 2.55322 8.57185V12.0398C2.55322 12.3559 2.80928 12.6117 3.12506 12.6117H3.26367V13.2476C3.26367 14.0303 3.90041 14.6667 4.68276 14.6667H11.9897C12.7716 14.6667 13.4084 14.0303 13.4084 13.2476V4.69195L10.038 1.33333ZM4.0534 9.1977C4.22099 9.16939 4.45655 9.14804 4.78843 9.14804C5.12382 9.14804 5.36287 9.21206 5.52349 9.34065C5.67691 9.46183 5.78045 9.66186 5.78045 9.89725C5.78045 10.1326 5.702 10.3327 5.55924 10.4682C5.37357 10.643 5.09899 10.7214 4.77778 10.7214C4.70629 10.7214 4.64222 10.7179 4.59211 10.711V11.5709H4.0534V9.1977ZM11.9897 13.7976H4.68276C4.37983 13.7976 4.13315 13.5509 4.13315 13.2476V12.6117H10.9447C11.2606 12.6117 11.5166 12.3559 11.5166 12.0398V8.57185C11.5166 8.25582 11.2606 7.99999 10.9447 7.99999H4.13315V2.75242C4.13315 2.44994 4.37986 2.20326 4.68276 2.20326L9.71284 2.19801V4.0573C9.71284 4.60038 10.1535 5.04145 10.697 5.04145L12.5184 5.03622L12.5389 13.2475C12.5389 13.5509 12.2926 13.7976 11.9897 13.7976ZM6.12782 11.56V9.1977C6.32763 9.1659 6.58805 9.14804 6.86288 9.14804C7.31962 9.14804 7.6158 9.22998 7.84788 9.40472C8.09763 9.5904 8.25451 9.88636 8.25451 10.3113C8.25451 10.7715 8.08692 11.0893 7.85482 11.2854C7.60159 11.4959 7.21611 11.5957 6.74518 11.5957C6.46316 11.5957 6.26336 11.5778 6.12782 11.56ZM10.0223 10.1614V10.6037H9.15868V11.5709H8.61278V9.1659H10.0829V9.61175H9.15868V10.1614H10.0223Z" fill="black"/>
</svg>
