<svg xmlns="http://www.w3.org/2000/svg" width="25" height="24" viewBox="0 0 25 24" fill="none"><rect width="25" height="24" fill="none"/>
<path fill-rule="evenodd" clip-rule="evenodd" d="M20.8536 7.13329C20.9007 7.24854 20.9246 7.37194 20.9239 7.49642L20.8576 7.54372C20.8621 7.58775 20.8621 7.63211 20.8576 7.67614C20.8668 7.75154 20.8668 7.82776 20.8576 7.90315C20.8062 8.01811 20.7359 8.12362 20.6495 8.21529L17.963 10.8448L7.68059 21.1833C7.58667 21.2768 7.47413 21.3496 7.35028 21.3968C7.22643 21.4441 7.09403 21.4648 6.96167 21.4576H2.95085C2.69997 21.4576 2.45936 21.3579 2.28196 21.1806C2.10456 21.0032 2.0049 20.7626 2.0049 20.5117V16.5012C2.00418 16.3767 2.02804 16.2533 2.07512 16.1381C2.12219 16.0228 2.19155 15.918 2.27922 15.8296L15.2955 2.81432C15.3839 2.72666 15.4887 2.6573 15.6039 2.61023C15.7192 2.56316 15.8426 2.5393 15.9671 2.54002C16.0916 2.5393 16.215 2.56316 16.3302 2.61023C16.4455 2.6573 16.5503 2.72666 16.6387 2.81432L20.6495 6.82485C20.7372 6.91323 20.8066 7.01805 20.8536 7.13329ZM3.8968 19.5658H6.57383L15.9671 10.1733L13.2901 7.49642L3.8968 16.889V19.5658ZM14.6238 6.16273L17.3009 8.83957L18.6347 7.49642L15.9671 4.82904L14.6238 6.16273Z" fill="black"/>
<path d="M14.6503 19.536C14.1193 19.536 13.6888 19.9665 13.6888 20.4976C13.6888 21.0286 14.1193 21.4591 14.6503 21.4591H21.0433C21.5743 21.4591 22.0048 21.0286 22.0048 20.4976C22.0048 19.9665 21.5743 19.536 21.0433 19.536H14.6503Z" fill="black"/>
</svg>
