<svg xmlns="http://www.w3.org/2000/svg" width="24" height="24" viewBox="0 0 24 24" fill="none"><rect width="24" height="24" fill="none"/>
<path fill-rule="evenodd" clip-rule="evenodd" d="M20.8488 7.1333C20.8958 7.24855 20.9197 7.37195 20.919 7.49643L20.8528 7.54373C20.8572 7.58776 20.8572 7.63212 20.8528 7.67615C20.8619 7.75154 20.8619 7.82776 20.8528 7.90316C20.8013 8.01811 20.731 8.12363 20.6447 8.2153L17.9582 10.8448L7.67571 21.1833C7.58178 21.2768 7.46925 21.3496 7.3454 21.3969C7.22155 21.4441 7.08915 21.4648 6.95678 21.4576H2.94596C2.69508 21.4576 2.45448 21.358 2.27708 21.1806C2.09968 21.0032 2.00002 20.7626 2.00002 20.5117V16.5012C1.9993 16.3767 2.02316 16.2533 2.07023 16.1381C2.11731 16.0228 2.18667 15.918 2.27434 15.8296L15.2906 2.81433C15.379 2.72666 15.4838 2.65731 15.5991 2.61024C15.7143 2.56316 15.8377 2.5393 15.9622 2.54002C16.0867 2.5393 16.2101 2.56316 16.3254 2.61024C16.4406 2.65731 16.5454 2.72666 16.6338 2.81433L20.6447 6.82486C20.7323 6.91324 20.8017 7.01806 20.8488 7.1333ZM3.89191 19.5659H6.56895L15.9622 10.1733L13.2852 7.49643L3.89191 16.889V19.5659ZM14.619 6.16274L17.296 8.83958L18.6298 7.49643L15.9622 4.82905L14.619 6.16274Z" fill="black"/>
<path d="M14.6454 19.536C14.1144 19.536 13.6839 19.9665 13.6839 20.4976C13.6839 21.0286 14.1144 21.4591 14.6454 21.4591H21.0384C21.5694 21.4591 21.9999 21.0286 21.9999 20.4976C21.9999 19.9665 21.5694 19.536 21.0384 19.536H14.6454Z" fill="black"/>
</svg>
