<svg xmlns="http://www.w3.org/2000/svg" width="24" height="24" viewBox="0 0 24 24" fill="none"><rect width="24" height="24" fill="none"/>
<path fill-rule="evenodd" clip-rule="evenodd" d="M20.8497 7.13329C20.8968 7.24854 20.9207 7.37194 20.92 7.49642L20.8537 7.54372C20.8582 7.58775 20.8582 7.63211 20.8537 7.67614C20.8629 7.75154 20.8629 7.82775 20.8537 7.90315C20.8023 8.01811 20.732 8.12362 20.6456 8.21529L17.9591 10.8448L7.67668 21.1833C7.58276 21.2768 7.47023 21.3496 7.34638 21.3968C7.22253 21.4441 7.09013 21.4648 6.95776 21.4576H2.94694C2.69606 21.4576 2.45545 21.3579 2.27805 21.1806C2.10065 21.0032 2.00099 20.7626 2.00099 20.5117V16.5012C2.00027 16.3767 2.02413 16.2533 2.07121 16.1381C2.11828 16.0228 2.18765 15.918 2.27532 15.8296L15.2916 2.81432C15.38 2.72666 15.4848 2.6573 15.6 2.61023C15.7153 2.56316 15.8387 2.5393 15.9632 2.54002C16.0877 2.5393 16.2111 2.56316 16.3263 2.61023C16.4416 2.6573 16.5464 2.72666 16.6348 2.81432L20.6456 6.82485C20.7333 6.91323 20.8027 7.01805 20.8497 7.13329ZM3.89289 19.5658H6.56992L15.9632 10.1733L13.2862 7.49642L3.89289 16.889V19.5658ZM14.6199 6.16273L17.297 8.83957L18.6308 7.49642L15.9632 4.82904L14.6199 6.16273Z" fill="black"/>
<path d="M14.6464 19.536C14.1153 19.536 13.6848 19.9665 13.6848 20.4976C13.6848 21.0286 14.1153 21.4591 14.6464 21.4591H21.0394C21.5704 21.4591 22.0009 21.0286 22.0009 20.4976C22.0009 19.9665 21.5704 19.536 21.0394 19.536H14.6464Z" fill="black"/>
</svg>
