<svg xmlns="http://www.w3.org/2000/svg" width="24" height="24" viewBox="0 0 24 24" fill="none"><rect width="24" height="24" fill="none"/>
<path d="M20.191 3.01944C19.5655 2.3666 18.717 1.99991 17.8323 2.00001C16.9471 1.99735 16.0978 2.36468 15.474 3.02003L3.99824 14.9936C3.90304 15.0937 3.83121 15.2154 3.78828 15.3491L2.04587 20.8036C1.89379 21.28 2.14061 21.7948 2.59713 21.9534C2.6857 21.9842 2.77845 21.9999 2.87177 22C2.96529 21.9998 3.05825 21.9842 3.14707 21.9537L8.37437 20.1355C8.50276 20.0907 8.6194 20.0154 8.71502 19.9155L20.1907 7.94095C21.4932 6.582 21.4933 4.37855 20.191 3.01944Z" fill="black"/>
<path d="M15.3343 18.6667H22.001V22H15.3343V18.6667Z" fill="black"/>
</svg>
