<svg xmlns="http://www.w3.org/2000/svg" width="25" height="24" viewBox="0 0 25 24" fill="none"><rect width="25" height="24" fill="none"/>
<path d="M20.1949 3.01944C19.5694 2.3666 18.7209 1.99991 17.8362 2.00001C16.951 1.99735 16.1017 2.36468 15.4779 3.02003L4.00215 14.9936C3.90694 15.0937 3.83512 15.2154 3.79219 15.3491L2.04977 20.8036C1.8977 21.28 2.14452 21.7948 2.60104 21.9534C2.68961 21.9842 2.78236 21.9999 2.87568 22C2.9692 21.9998 3.06215 21.9842 3.15098 21.9537L8.37828 20.1355C8.50666 20.0907 8.62331 20.0154 8.71892 19.9155L20.1946 7.94095C21.4971 6.582 21.4972 4.37855 20.1949 3.01944Z" fill="black"/>
<path d="M15.3382 18.6667H22.0049V22H15.3382V18.6667Z" fill="black"/>
</svg>
