<svg xmlns="http://www.w3.org/2000/svg" width="24" height="24" viewBox="0 0 24 24" fill="none"><rect width="24" height="24" fill="none"/>
<path d="M21.8281 1.22333C21.0774 0.439918 20.0593 -0.000110582 18.9976 1.72593e-05C17.9353 -0.00317877 16.9161 0.437617 16.1676 1.22403L2.39672 15.5923C2.28247 15.7124 2.19629 15.8584 2.14477 16.0189L0.0538679 22.5643C-0.128618 23.136 0.167561 23.7537 0.715387 23.9441C0.821668 23.981 0.932973 23.9999 1.04495 24C1.15718 23.9998 1.26873 23.981 1.37531 23.9444L7.64808 21.7626C7.80214 21.7089 7.94211 21.6185 8.05685 21.4986L21.8276 7.12914C23.3906 5.4984 23.3908 2.85426 21.8281 1.22333Z" fill="black"/>
<path d="M16 20H24V24H16V20Z" fill="black"/>
</svg>
