<svg xmlns="http://www.w3.org/2000/svg" width="16" height="16" viewBox="0 0 16 16" fill="none"><rect width="16" height="16" fill="none"/>
<path d="M13.4602 2.01296C13.0432 1.57773 12.4775 1.33327 11.8877 1.33334C11.2976 1.33156 10.7314 1.57645 10.3155 2.01335L2.66501 9.99574C2.60154 10.0625 2.55365 10.1436 2.52503 10.2327L1.36342 13.8691C1.26204 14.1867 1.42659 14.5298 1.73093 14.6356C1.78998 14.6561 1.85181 14.6666 1.91403 14.6667C1.97637 14.6666 2.03834 14.6561 2.09756 14.6358L5.58243 13.4237C5.66802 13.3938 5.74578 13.3436 5.80952 13.277L13.46 5.29396C14.3283 4.38799 14.3284 2.91903 13.4602 2.01296Z" fill="black"/>
<path d="M10.2224 12.4444H14.6668V14.6667H10.2224V12.4444Z" fill="black"/>
</svg>
