<svg xmlns="http://www.w3.org/2000/svg" width="17" height="17" viewBox="0 0 17 17" fill="none"><rect width="17" height="17" fill="none"/>
<path d="M13.4714 3.01462C13.0544 2.57939 12.4888 2.33493 11.899 2.335C11.3088 2.33323 10.7426 2.57811 10.3267 3.01501L2.67624 10.9974C2.61277 11.0641 2.56489 11.1452 2.53626 11.2344L1.37465 14.8707C1.27327 15.1883 1.43782 15.5315 1.74216 15.6373C1.80121 15.6578 1.86305 15.6683 1.92526 15.6683C1.9876 15.6682 2.04957 15.6578 2.10879 15.6374L5.59366 14.4253C5.67925 14.3955 5.75701 14.3453 5.82075 14.2787L13.4712 6.29562C14.3395 5.38966 14.3396 3.92069 13.4714 3.01462Z" fill="black"/>
<path d="M10.2336 13.4461H14.6781V15.6683H10.2336V13.4461Z" fill="black"/>
</svg>
