<svg xmlns="http://www.w3.org/2000/svg" width="25" height="25" viewBox="0 0 25 25" fill="none"><rect width="25" height="25" fill="none"/>
<path d="M12.0062 9.87396C10.843 9.87396 9.89668 8.92762 9.89668 7.76448C9.89668 6.60133 10.843 5.655 12.0062 5.655C13.1693 5.655 14.1156 6.60133 14.1156 7.76448C14.1156 8.92762 13.1693 9.87396 12.0062 9.87396Z" fill="black"/>
<path d="M7.78685 15.499C7.78685 13.1726 9.67934 11.2801 12.0058 11.2801C14.3323 11.2801 16.2248 13.1726 16.2248 15.499V18.3586H7.78685V15.499Z" fill="black"/>
<path d="M6.38073 9.17158C6.38073 8.00844 5.43439 7.0621 4.27125 7.0621C3.10811 7.0621 2.16177 8.00844 2.16177 9.17158C2.16177 10.3347 3.10811 11.2811 4.27125 11.2811C5.43439 11.2811 6.38073 10.3347 6.38073 9.17158Z" fill="black"/>
<path d="M19.7411 7.0621C20.9042 7.0621 21.8506 8.00844 21.8506 9.17158C21.8506 10.3347 20.9042 11.2811 19.7411 11.2811C18.5779 11.2811 17.6316 10.3347 17.6316 9.17158C17.6316 8.00844 18.5779 7.0621 19.7411 7.0621Z" fill="black"/>
<path d="M19.7391 12.6872C18.8044 12.6872 17.9491 13.0009 17.25 13.515C17.4853 14.1345 17.6296 14.7989 17.6296 15.4998V18.3593H24.0049V16.9061C24.0049 14.576 22.0692 12.6872 19.7391 12.6872Z" fill="black"/>
<path d="M0.00488281 18.3593V16.9061C0.00488281 14.576 1.94059 12.6872 4.27072 12.6872C5.20533 12.6872 6.06066 13.0009 6.75979 13.515C6.52449 14.1345 6.3802 14.7989 6.3802 15.4998V18.3593H0.00488281Z" fill="black"/>
</svg>
