<svg xmlns="http://www.w3.org/2000/svg" width="24" height="24" viewBox="0 0 24 24" fill="none"><rect width="24" height="24" fill="none"/>
<path fill-rule="evenodd" clip-rule="evenodd" d="M4.20825 8.54167C4.20825 5.75724 6.46767 3.5 9.25483 3.5C12.042 3.5 14.3014 5.75724 14.3014 8.54167C14.3014 10.2737 13.4272 11.8017 12.0954 12.7094C15.1826 13.8392 17.4064 16.7577 17.5092 20.2087C17.5205 20.5882 17.2217 20.9051 16.8418 20.9164C16.4619 20.9277 16.1447 20.6291 16.1334 20.2496C16.0232 16.5494 12.9856 13.5833 9.25475 13.5833C5.52392 13.5833 2.4863 16.5494 2.37606 20.2496C2.36475 20.6291 2.04762 20.9277 1.66771 20.9164C1.28781 20.9051 0.989004 20.5882 1.00031 20.2087C1.10312 16.7577 3.32694 13.8391 6.41416 12.7094C5.08248 11.8017 4.20825 10.2737 4.20825 8.54167ZM9.25483 4.875C7.22784 4.875 5.58461 6.51661 5.58461 8.54167C5.58461 10.5667 7.22784 12.2083 9.25483 12.2083C11.2818 12.2083 12.925 10.5667 12.925 8.54167C12.925 6.51661 11.2818 4.875 9.25483 4.875Z" fill="black"/>
<path d="M16.8615 8.54167C16.726 8.54167 16.5931 8.5513 16.4635 8.56982C16.0873 8.62358 15.7386 8.36246 15.6848 7.98659C15.631 7.61072 15.8924 7.26243 16.2686 7.20867C16.4626 7.18096 16.6606 7.16667 16.8615 7.16667C19.1571 7.16667 21.018 9.02581 21.018 11.3192C21.018 12.672 20.3704 13.8729 19.3698 14.6305C21.509 15.5885 23 17.7342 23 20.2292C23 20.6089 22.6919 20.9167 22.3118 20.9167C21.9317 20.9167 21.6236 20.6089 21.6236 20.2292C21.6236 18.0788 20.195 16.2599 18.2327 15.6716L17.7423 15.5246V13.9884L18.1187 13.7973C19.0239 13.3378 19.6417 12.4 19.6417 11.3192C19.6417 9.78518 18.3969 8.54167 16.8615 8.54167Z" fill="black"/>
</svg>
