<svg xmlns="http://www.w3.org/2000/svg" width="24" height="24" viewBox="0 0 24 24" fill="none"><rect width="24" height="24" fill="none"/>
<path d="M12.5455 8.07292C12.5455 5.82263 10.6741 4 8.36364 4C6.05318 4 4.18182 5.82263 4.18182 8.07292C4.18182 10.3232 6.05318 12.1458 8.36364 12.1458C10.6741 12.1458 12.5455 10.3232 12.5455 8.07292ZM14.6364 10.1094V12.1458H17.7727V15.2005H19.8636V12.1458H23V10.1094H19.8636V7.05469H17.7727V10.1094H14.6364ZM0 18.2552V20.2917H16.7273V18.2552C16.7273 15.5467 11.155 14.1823 8.36364 14.1823C5.57227 14.1823 0 15.5467 0 18.2552Z" fill="black"/>
</svg>
