<svg xmlns="http://www.w3.org/2000/svg" width="16" height="16" viewBox="0 0 16 16" fill="none"><rect width="16" height="16" fill="none"/>
<path d="M8.36364 5.38196C8.36364 3.88177 7.11606 2.66669 5.57576 2.66669C4.03545 2.66669 2.78788 3.88177 2.78788 5.38196C2.78788 6.88216 4.03545 8.09724 5.57576 8.09724C7.11606 8.09724 8.36364 6.88216 8.36364 5.38196ZM9.75758 6.7396V8.09724H11.8485V10.1337H13.2424V8.09724H15.3333V6.7396H13.2424V4.70315H11.8485V6.7396H9.75758ZM0 12.1702V13.5278H11.1515V12.1702C11.1515 10.3645 7.43667 9.45488 5.57576 9.45488C3.71485 9.45488 0 10.3645 0 12.1702Z" fill="black"/>
</svg>
