<svg xmlns="http://www.w3.org/2000/svg" width="16" height="17" viewBox="0 0 16 17" fill="none"><rect width="16" height="17" fill="none"/>
<path d="M8.00085 6.57765C7.22543 6.57765 6.59453 5.94676 6.59453 5.17133C6.59453 4.3959 7.22543 3.76501 8.00085 3.76501C8.77628 3.76501 9.40717 4.3959 9.40717 5.17133C9.40717 5.94676 8.77628 6.57765 8.00085 6.57765Z" fill="black"/>
<path d="M5.18798 10.3277C5.18798 8.77673 6.44964 7.51507 8.00062 7.51507C9.5516 7.51507 10.8133 8.77673 10.8133 10.3277V12.234H5.18798V10.3277Z" fill="black"/>
<path d="M4.25056 6.1094C4.25056 5.33397 3.61967 4.70308 2.84424 4.70308C2.06882 4.70308 1.43793 5.33397 1.43793 6.1094C1.43793 6.88483 2.06882 7.51572 2.84424 7.51572C3.61967 7.51572 4.25056 6.88483 4.25056 6.1094Z" fill="black"/>
<path d="M13.1575 4.70308C13.9329 4.70308 14.5638 5.33397 14.5638 6.1094C14.5638 6.88483 13.9329 7.51572 13.1575 7.51572C12.382 7.51572 11.7511 6.88483 11.7511 6.1094C11.7511 5.33397 12.382 4.70308 13.1575 4.70308Z" fill="black"/>
<path d="M13.1561 8.45313C12.533 8.45313 11.9628 8.66225 11.4967 9.00504C11.6536 9.41803 11.7498 9.86092 11.7498 10.3282V12.2346H16V11.2658C16 9.71235 14.7095 8.45313 13.1561 8.45313Z" fill="black"/>
<path d="M0 12.2346V11.2658C0 9.71235 1.29047 8.45313 2.84389 8.45313C3.46697 8.45313 4.03719 8.66225 4.50327 9.00504C4.34641 9.41803 4.25021 9.86092 4.25021 10.3282V12.2346H0Z" fill="black"/>
</svg>
