<svg xmlns="http://www.w3.org/2000/svg" width="16" height="16" viewBox="0 0 16 16" fill="none"><rect width="16" height="16" fill="none"/>
<path d="M7.13236 6.13335C8.55351 6.13335 9.70557 4.98421 9.70557 3.56668C9.70557 2.14914 8.55351 1 7.13236 1C5.71122 1 4.55915 2.14914 4.55915 3.56668C4.55915 4.98421 5.71122 6.13335 7.13236 6.13335Z" fill="black"/>
<path d="M6.11375 12.7663C5.60817 11.7573 5.90906 10.386 6.80092 9.64463C7.21384 9.30497 7.73302 9.12034 8.26823 9.12284C8.81733 9.13609 9.35331 9.29294 9.82254 9.57769C10.1827 9.36495 10.5793 9.22062 10.9922 9.152V8.58325C10.9917 8.11927 10.8067 7.67445 10.4778 7.34636C10.1488 7.01828 9.70288 6.83375 9.23772 6.83325H4.55915C4.09399 6.83375 3.64803 7.01828 3.31911 7.34636C2.9902 7.67445 2.80519 8.11927 2.80469 8.58325V13.2499C2.80469 13.4046 2.8663 13.553 2.97598 13.6624C3.08565 13.7718 3.2344 13.8333 3.38951 13.8333H6.97154C6.62526 13.5304 6.33493 13.1693 6.11375 12.7663Z" fill="black"/>
<path d="M12.47 10.0927C12.1387 9.81663 11.2344 9.30272 9.82255 10.2662C8.41035 9.30257 7.50622 9.81693 7.17506 10.0927C6.49506 10.6587 6.25397 11.7406 6.63688 12.5057C7.25094 13.7307 9.59154 14.9188 9.69081 14.9688C9.73163 14.9893 9.7767 15 9.8224 15C9.8681 15 9.91317 14.9893 9.95398 14.9688C10.0533 14.9188 12.3939 13.7305 13.0079 12.5057C13.3914 11.7411 13.15 10.6587 12.47 10.0927ZM11.577 12.0835C11.4613 12.0835 11.3483 12.0493 11.2521 11.9852C11.1559 11.9211 11.081 11.83 11.0367 11.7234C10.9924 11.6168 10.9809 11.4995 11.0034 11.3863C11.026 11.2732 11.0817 11.1692 11.1635 11.0877C11.2453 11.0061 11.3495 10.9505 11.4629 10.928C11.5764 10.9055 11.6939 10.9171 11.8008 10.9612C11.9077 11.0054 11.999 11.0801 12.0633 11.1761C12.1275 11.272 12.1618 11.3848 12.1618 11.5001C12.1618 11.6549 12.1002 11.8032 11.9905 11.9126C11.8809 12.022 11.7321 12.0835 11.577 12.0835Z" fill="black"/>
</svg>
