<svg xmlns="http://www.w3.org/2000/svg" width="25" height="25" viewBox="0 0 25 25" fill="none"><rect width="25" height="25" fill="none"/>
<path d="M12.0067 10.8939C13.266 10.8939 14.3564 10.4559 15.2474 9.59174C16.1384 8.72774 16.59 7.67059 16.59 6.44929C16.59 5.22841 16.1384 4.17111 15.2473 3.30684C14.3562 2.44299 13.2659 2.005 12.0067 2.005C10.7473 2.005 9.65713 2.44299 8.76616 3.30698C7.8752 4.17097 7.4234 5.22826 7.4234 6.44929C7.4234 7.67059 7.8752 8.72788 8.76631 9.59188C9.65742 10.4557 10.7477 10.8939 12.0067 10.8939Z" fill="black"/>
<path d="M21.1289 17.37C21.0992 16.9792 21.0392 16.5528 20.9509 16.1025C20.8617 15.6489 20.7468 15.2201 20.6094 14.8281C20.4674 14.423 20.2742 14.0229 20.0355 13.6396C19.7877 13.2417 19.4967 12.8952 19.1701 12.61C18.8286 12.3118 18.4105 12.0719 17.927 11.897C17.4451 11.723 16.9112 11.6348 16.34 11.6348C16.1157 11.6348 15.8987 11.7189 15.4798 11.9679C15.2219 12.1214 14.9203 12.2989 14.5837 12.4953C14.2958 12.6627 13.9059 12.8196 13.4242 12.9616C12.9543 13.1004 12.4771 13.1708 12.0062 13.1708C11.5353 13.1708 11.0583 13.1004 10.5879 12.9616C10.1067 12.8197 9.71678 12.6628 9.42926 12.4954C9.0958 12.3009 8.79403 12.1234 8.53232 11.9677C8.11387 11.7187 7.89676 11.6347 7.67245 11.6347C7.10109 11.6347 6.56729 11.723 6.08563 11.8972C5.60246 12.0718 5.18418 12.3116 4.84234 12.6102C4.51592 12.8955 4.22471 13.2418 3.97726 13.6396C3.73869 14.0229 3.54556 14.4229 3.40339 14.8283C3.26609 15.2202 3.15125 15.6489 3.06206 16.1025C2.97371 16.5522 2.91369 16.9787 2.88401 17.3705C2.85484 17.7543 2.84009 18.1527 2.84009 18.5551C2.84009 19.6022 3.20473 20.4499 3.92378 21.0751C4.63395 21.692 5.57363 22.005 6.71633 22.005H17.2971C18.4398 22.005 19.3791 21.6922 20.0895 21.0751C20.8087 20.4504 21.1733 19.6025 21.1733 18.5549C21.1732 18.1507 21.1583 17.752 21.1289 17.37Z" fill="black"/>
</svg>
