<svg xmlns="http://www.w3.org/2000/svg" width="17" height="17" viewBox="0 0 17 17" fill="none"><rect width="17" height="17" fill="none"/>
<path d="M8.00122 7.26593C8.84074 7.26593 9.56771 6.97394 10.1617 6.39785C10.7557 5.82185 11.0568 5.11709 11.0568 4.30288C11.0568 3.48896 10.7557 2.7841 10.1616 2.20792C9.56751 1.63201 8.84065 1.34003 8.00122 1.34003C7.1616 1.34003 6.43483 1.63201 5.84085 2.20801C5.24688 2.78401 4.94568 3.48887 4.94568 4.30288C4.94568 5.11709 5.24688 5.82195 5.84095 6.39794C6.43503 6.97385 7.16189 7.26593 8.00122 7.26593Z" fill="black"/>
<path d="M14.0827 11.5834C14.0629 11.3228 14.0229 11.0385 13.964 10.7384C13.9045 10.436 13.828 10.1501 13.7363 9.88877C13.6417 9.6187 13.5129 9.35199 13.3537 9.0964C13.1885 8.83113 12.9945 8.60013 12.7768 8.41005C12.5491 8.21119 12.2704 8.05131 11.948 7.93469C11.6268 7.81868 11.2709 7.75991 10.8901 7.75991C10.7405 7.75991 10.5959 7.81593 10.3166 7.98193C10.1447 8.08427 9.94362 8.20262 9.71919 8.33353C9.52729 8.44515 9.26732 8.54973 8.94621 8.64441C8.63293 8.73695 8.31484 8.78389 8.00089 8.78389C7.68693 8.78389 7.36895 8.73695 7.05534 8.64441C6.73456 8.54983 6.4746 8.44525 6.28291 8.33363C6.06061 8.20395 5.85943 8.08559 5.68496 7.98183C5.40599 7.81583 5.26125 7.75981 5.11171 7.75981C4.73081 7.75981 4.37494 7.81868 4.05383 7.93479C3.73172 8.05121 3.45286 8.21109 3.22497 8.41015C3.00736 8.60033 2.81322 8.83123 2.64825 9.0964C2.48921 9.35199 2.36045 9.61859 2.26567 9.88887C2.17414 10.1502 2.09758 10.436 2.03812 10.7384C1.97921 11.0381 1.9392 11.3225 1.91942 11.5837C1.89997 11.8396 1.89014 12.1052 1.89014 12.3734C1.89014 13.0715 2.13323 13.6366 2.6126 14.0534C3.08604 14.4647 3.7125 14.6734 4.4743 14.6734H11.5281C12.2899 14.6734 12.9162 14.4648 13.3897 14.0534C13.8692 13.6369 14.1123 13.0717 14.1123 12.3733C14.1122 12.1038 14.1022 11.8381 14.0827 11.5834Z" fill="black"/>
</svg>
