<svg xmlns="http://www.w3.org/2000/svg" width="24" height="24" viewBox="0 0 24 24" fill="none"><rect width="24" height="24" fill="none"/>
<path d="M12.0013 9.86678C10.8381 9.86678 9.8918 8.92045 9.8918 7.75731C9.8918 6.59416 10.8381 5.64783 12.0013 5.64783C13.1644 5.64783 14.1108 6.59416 14.1108 7.75731C14.1108 8.92045 13.1644 9.86678 12.0013 9.86678Z" fill="black"/>
<path d="M7.78197 15.4919C7.78197 13.1654 9.67445 11.2729 12.0009 11.2729C14.3274 11.2729 16.2199 13.1654 16.2199 15.4919V18.3514H7.78197V15.4919Z" fill="black"/>
<path d="M6.37585 9.16441C6.37585 8.00126 5.42951 7.05493 4.26637 7.05493C3.10322 7.05493 2.15689 8.00126 2.15689 9.16441C2.15689 10.3275 3.10322 11.2739 4.26637 11.2739C5.42951 11.2739 6.37585 10.3275 6.37585 9.16441Z" fill="black"/>
<path d="M19.7362 7.05493C20.8993 7.05493 21.8457 8.00126 21.8457 9.16441C21.8457 10.3275 20.8993 11.2739 19.7362 11.2739C18.573 11.2739 17.6267 10.3275 17.6267 9.16441C17.6267 8.00126 18.573 7.05493 19.7362 7.05493Z" fill="black"/>
<path d="M19.7342 12.68C18.7996 12.68 17.9442 12.9937 17.2451 13.5079C17.4804 14.1273 17.6247 14.7917 17.6247 15.4926V18.3522H24V16.899C24 14.5688 22.0643 12.68 19.7342 12.68Z" fill="black"/>
<path d="M0 18.3522V16.899C0 14.5688 1.9357 12.68 4.26583 12.68C5.20045 12.68 6.05578 12.9937 6.75491 13.5079C6.51961 14.1273 6.37531 14.7917 6.37531 15.4926V18.3522H0Z" fill="black"/>
</svg>
