<svg xmlns="http://www.w3.org/2000/svg" width="24" height="24" viewBox="0 0 24 24" fill="none"><rect width="24" height="24" fill="none"/>
<path d="M11.4189 8.80002C13.8551 8.80002 15.8301 6.83007 15.8301 4.40001C15.8301 1.96995 13.8551 0 11.4189 0C8.98262 0 7.00765 1.96995 7.00765 4.40001C7.00765 6.83007 8.98262 8.80002 11.4189 8.80002Z" fill="black"/>
<path d="M9.67268 20.1709C8.80597 18.4411 9.32178 16.0904 10.8507 14.8193C11.5585 14.2371 12.4486 13.9206 13.3661 13.9248C14.3074 13.9476 15.2262 14.2164 16.0306 14.7046C16.648 14.3399 17.3279 14.0925 18.0357 13.9748V12.9998C18.0348 12.2045 17.7177 11.4419 17.1538 10.8795C16.59 10.317 15.8255 10.0007 15.028 9.99984H7.00765C6.21024 10.0007 5.44573 10.317 4.88187 10.8795C4.31802 11.4419 4.00086 12.2045 4 12.9998V20.9999C4 21.2651 4.10563 21.5194 4.29364 21.707C4.48165 21.8945 4.73666 21.9999 5.00255 21.9999H11.1432C10.5495 21.4807 10.0518 20.8616 9.67268 20.1709Z" fill="black"/>
<path d="M20.5691 15.5875C20.0012 15.1142 18.451 14.2332 16.0306 15.885C13.6097 14.233 12.0598 15.1147 11.4921 15.5875C10.3263 16.5577 9.91305 18.4125 10.5695 19.724C11.6221 21.824 15.6346 23.8607 15.8048 23.9465C15.8747 23.9817 15.952 24 16.0303 24C16.1087 24 16.186 23.9817 16.2559 23.9465C16.4261 23.8607 20.4386 21.8237 21.4912 19.724C22.1487 18.4132 21.7348 16.5577 20.5691 15.5875ZM19.0382 19.0002C18.84 19.0002 18.6461 18.9416 18.4813 18.8317C18.3164 18.7218 18.1879 18.5656 18.112 18.3829C18.0361 18.2002 18.0163 17.9991 18.055 17.8051C18.0936 17.6111 18.1891 17.433 18.3293 17.2931C18.4695 17.1533 18.6482 17.058 18.8427 17.0194C19.0371 16.9808 19.2387 17.0007 19.4219 17.0763C19.6051 17.152 19.7617 17.2802 19.8718 17.4446C19.982 17.6091 20.0408 17.8024 20.0408 18.0002C20.0408 18.2654 19.9352 18.5198 19.7472 18.7073C19.5591 18.8949 19.3041 19.0002 19.0382 19.0002Z" fill="black"/>
</svg>
