<svg xmlns="http://www.w3.org/2000/svg" width="24" height="24" viewBox="0 0 24 24" fill="none"><rect width="24" height="24" fill="none"/>
<path d="M11.9967 10.8888C13.256 10.8888 14.3464 10.4509 15.2374 9.58673C16.1284 8.72274 16.58 7.66559 16.58 6.44428C16.58 5.2234 16.1284 4.16611 15.2373 3.30183C14.3461 2.43798 13.2558 2 11.9967 2C10.7373 2 9.64712 2.43798 8.75615 3.30197C7.86519 4.16597 7.41339 5.22326 7.41339 6.44428C7.41339 7.66559 7.86519 8.72288 8.7563 9.58687C9.64741 10.4507 10.7377 10.8888 11.9967 10.8888Z" fill="black"/>
<path d="M21.1189 17.365C21.0892 16.9742 21.0292 16.5478 20.9409 16.0975C20.8517 15.6439 20.7368 15.2151 20.5994 14.8231C20.4574 14.418 20.2642 14.0179 20.0255 13.6346C19.7777 13.2366 19.4867 12.8902 19.1601 12.605C18.8186 12.3067 18.4004 12.0669 17.9169 11.892C17.4351 11.718 16.9012 11.6298 16.33 11.6298C16.1056 11.6298 15.8887 11.7139 15.4698 11.9629C15.2119 12.1164 14.9103 12.2939 14.5737 12.4902C14.2858 12.6577 13.8958 12.8145 13.4142 12.9566C12.9443 13.0954 12.4671 13.1658 11.9962 13.1658C11.5253 13.1658 11.0483 13.0954 10.5779 12.9566C10.0967 12.8147 9.70677 12.6578 9.41925 12.4904C9.08579 12.2959 8.78402 12.1183 8.52231 11.9627C8.10386 11.7137 7.88675 11.6297 7.66244 11.6297C7.09108 11.6297 6.55728 11.718 6.07562 11.8921C5.59246 12.0668 5.17417 12.3066 4.83233 12.6052C4.50591 12.8905 4.2147 13.2368 3.96725 13.6346C3.72868 14.0179 3.53555 14.4178 3.39338 14.8233C3.25608 15.2152 3.14124 15.6439 3.05205 16.0975C2.9637 16.5472 2.90368 16.9737 2.874 17.3655C2.84483 17.7493 2.83008 18.1477 2.83008 18.5501C2.83008 19.5972 3.19472 20.4449 3.91377 21.0701C4.62394 21.687 5.56362 22 6.70632 22H17.2871C18.4298 22 19.3691 21.6872 20.0795 21.0701C20.7987 20.4454 21.1633 19.5975 21.1633 18.5499C21.1632 18.1457 21.1482 17.747 21.1189 17.365Z" fill="black"/>
</svg>
