<svg xmlns="http://www.w3.org/2000/svg" width="16" height="17" viewBox="0 0 16 17" fill="none"><rect width="16" height="17" fill="none"/>
<path fill-rule="evenodd" clip-rule="evenodd" d="M3.15365 5.72273C3.15365 3.99259 4.55757 2.59003 6.28941 2.59003C8.02125 2.59003 9.42517 3.99259 9.42517 5.72273C9.42517 6.79896 8.88194 7.74843 8.05446 8.31241C9.97272 9.01443 11.3545 10.8279 11.4184 12.9722C11.4254 13.208 11.2397 13.4049 11.0037 13.4119C10.7676 13.4189 10.5705 13.2335 10.5635 12.9976C10.495 10.6985 8.60756 8.85544 6.28936 8.85544C3.97115 8.85544 2.08369 10.6985 2.01519 12.9976C2.00816 13.2335 1.81111 13.4189 1.57505 13.4119C1.33899 13.4049 1.15332 13.208 1.16035 12.9722C1.22423 10.8279 2.60603 9.01439 4.52432 8.31238C3.69686 7.7484 3.15365 6.79894 3.15365 5.72273ZM6.28941 3.4444C5.02991 3.4444 4.00887 4.46444 4.00887 5.72273C4.00887 6.98103 5.02991 8.00107 6.28941 8.00107C7.54891 8.00107 8.56995 6.98103 8.56995 5.72273C8.56995 4.46444 7.54891 3.4444 6.28941 3.4444Z" fill="black"/>
<path d="M11.0159 5.72273C10.9317 5.72273 10.8492 5.72872 10.7686 5.74023C10.5348 5.77363 10.3182 5.61138 10.2848 5.37783C10.2513 5.14428 10.4137 4.92787 10.6475 4.89446C10.7681 4.87724 10.8911 4.86836 11.0159 4.86836C12.4423 4.86836 13.5986 6.02357 13.5986 7.44857C13.5986 8.28918 13.1962 9.03537 12.5745 9.50613C13.9037 10.1014 14.8302 11.4346 14.8302 12.9849C14.8302 13.2209 14.6387 13.4121 14.4025 13.4121C14.1664 13.4121 13.9749 13.2209 13.9749 12.9849C13.9749 11.6487 13.0872 10.5186 11.8679 10.153L11.5632 10.0617V9.10711L11.7971 8.98838C12.3596 8.70287 12.7434 8.12013 12.7434 7.44857C12.7434 6.49541 11.97 5.72273 11.0159 5.72273Z" fill="black"/>
</svg>
