<svg xmlns="http://www.w3.org/2000/svg" width="24" height="24" viewBox="0 0 24 24" fill="none"><rect width="24" height="24" fill="none"/>
<path d="M11.999 10.6667C13.5102 10.6667 14.8187 10.1411 15.8879 9.10412C16.957 8.06732 17.499 6.79874 17.499 5.33316C17.499 3.8681 16.957 2.59934 15.8877 1.56221C14.8184 0.525579 13.51 0 11.999 0C10.4877 0 9.17951 0.525579 8.11035 1.56238C7.04118 2.59917 6.49902 3.86793 6.49902 5.33316C6.49902 6.79874 7.04118 8.06749 8.11052 9.10429C9.17986 10.1409 10.4882 10.6667 11.999 10.6667Z" fill="black"/>
<path d="M22.9457 18.4381C22.9101 17.9691 22.8381 17.4574 22.7321 16.9171C22.625 16.3727 22.4872 15.8581 22.3222 15.3878C22.1518 14.9017 21.9201 14.4216 21.6336 13.9615C21.3363 13.484 20.987 13.0682 20.5951 12.7261C20.1853 12.3682 19.6836 12.0804 19.1033 11.8704C18.5251 11.6616 17.8844 11.5558 17.199 11.5558C16.9298 11.5558 16.6695 11.6567 16.1667 11.9555C15.8573 12.1397 15.4954 12.3527 15.0914 12.5884C14.746 12.7893 14.278 12.9775 13.7 13.148C13.1361 13.3145 12.5635 13.399 11.9984 13.399C11.4333 13.399 10.8609 13.3145 10.2964 13.148C9.71903 12.9777 9.25109 12.7895 8.90606 12.5885C8.50591 12.3551 8.14378 12.1421 7.82974 11.9553C7.32759 11.6565 7.06706 11.5557 6.79788 11.5557C6.11225 11.5557 5.47169 11.6616 4.8937 11.8706C4.31389 12.0802 3.81194 12.368 3.40173 12.7263C3.01003 13.0686 2.66058 13.4842 2.36364 13.9615C2.07736 14.4216 1.8456 14.9015 1.67499 15.388C1.51023 15.8583 1.37242 16.3727 1.26539 16.9171C1.15937 17.4567 1.08734 17.9685 1.05173 18.4387C1.01673 18.8993 0.999023 19.3773 0.999023 19.8602C0.999023 21.1167 1.43659 22.134 2.29946 22.8842C3.15167 23.6245 4.27929 24.0001 5.65054 24.0001H18.3475C19.7188 24.0001 20.846 23.6247 21.6984 22.8842C22.5615 22.1345 22.999 21.1171 22.999 19.86C22.9988 19.3749 22.9809 18.8965 22.9457 18.4381Z" fill="black"/>
</svg>
