<svg xmlns="http://www.w3.org/2000/svg" width="25" height="25" viewBox="0 0 25 25" fill="none"><rect width="25" height="25" fill="none"/>
<path fill-rule="evenodd" clip-rule="evenodd" d="M4.92148 8.67833C4.92148 6.14704 6.97549 4.095 9.50927 4.095C12.0431 4.095 14.0971 6.14704 14.0971 8.67833C14.0971 10.2529 13.3023 11.642 12.0917 12.4672C14.8982 13.4943 16.9198 16.1475 17.0132 19.2847C17.0235 19.6298 16.7519 19.9178 16.4065 19.9281C16.0611 19.9383 15.7728 19.667 15.7626 19.3219C15.6623 15.9581 12.9009 13.2617 9.5092 13.2617C6.11754 13.2617 3.35606 15.9581 3.25585 19.3219C3.24557 19.667 2.95726 19.9383 2.61189 19.9281C2.26653 19.9178 1.99489 19.6298 2.00517 19.2847C2.09863 16.1474 4.12028 13.4942 6.92685 12.4671C5.71623 11.642 4.92148 10.2529 4.92148 8.67833ZM9.50927 5.345C7.66655 5.345 6.17271 6.83738 6.17271 8.67833C6.17271 10.5193 7.66655 12.0117 9.50927 12.0117C11.352 12.0117 12.8458 10.5193 12.8458 8.67833C12.8458 6.83738 11.352 5.345 9.50927 5.345Z" fill="black"/>
<path d="M16.4244 8.67833C16.3012 8.67833 16.1805 8.68709 16.0626 8.70393C15.7206 8.7528 15.4036 8.51542 15.3547 8.17372C15.3058 7.83202 15.5434 7.5154 15.8855 7.46652C16.0618 7.44133 16.2418 7.42833 16.4244 7.42833C18.5113 7.42833 20.2031 9.11847 20.2031 11.2033C20.2031 12.4332 19.6143 13.5249 18.7047 14.2137C20.6495 15.0846 22.0049 17.0352 22.0049 19.3033C22.0049 19.6485 21.7248 19.9283 21.3793 19.9283C21.0337 19.9283 20.7536 19.6485 20.7536 19.3033C20.7536 17.3484 19.4549 15.6949 17.671 15.1601L17.2252 15.0265V13.6299L17.5674 13.4562C18.3903 13.0384 18.9519 12.1859 18.9519 11.2033C18.9519 9.8088 17.8203 8.67833 16.4244 8.67833Z" fill="black"/>
</svg>
