<svg xmlns="http://www.w3.org/2000/svg" width="25" height="25" viewBox="0 0 25 25" fill="none"><rect width="25" height="25" fill="none"/>
<path d="M10.7064 9.20503C12.8381 9.20503 14.5662 7.48132 14.5662 5.35502C14.5662 3.22871 12.8381 1.505 10.7064 1.505C8.57464 1.505 6.84654 3.22871 6.84654 5.35502C6.84654 7.48132 8.57464 9.20503 10.7064 9.20503Z" fill="black"/>
<path d="M9.17844 19.1545C8.42007 17.641 8.87141 15.5841 10.2092 14.4719C10.8286 13.9625 11.6073 13.6855 12.4102 13.6893C13.2338 13.7091 14.0378 13.9444 14.7416 14.3715C15.2819 14.0524 15.8767 13.8359 16.4961 13.733V12.8799C16.4953 12.1839 16.2178 11.5167 15.7244 11.0246C15.2311 10.5324 14.5621 10.2556 13.8644 10.2549H6.84654C6.1488 10.2556 5.47986 10.5324 4.98648 11.0246C4.49311 11.5167 4.2156 12.1839 4.21484 12.8799V19.8799C4.21484 20.112 4.30727 20.3345 4.47178 20.4986C4.63629 20.6627 4.85942 20.7549 5.09208 20.7549H10.4651C9.9457 20.3006 9.51021 19.7589 9.17844 19.1545Z" fill="black"/>
<path d="M18.7129 15.1441C18.2159 14.73 16.8595 13.9591 14.7416 15.4044C12.6233 13.9589 11.2671 14.7304 10.7704 15.1441C9.7504 15.993 9.38877 17.6159 9.96313 18.7635C10.8842 20.601 14.3951 22.3832 14.544 22.4582C14.6053 22.489 14.6729 22.505 14.7414 22.505C14.81 22.505 14.8776 22.489 14.9388 22.4582C15.0877 22.3832 18.5986 20.6008 19.5197 18.7635C20.0949 17.6166 19.7329 15.993 18.7129 15.1441ZM17.3733 18.1302C17.1998 18.1302 17.0302 18.0789 16.886 17.9828C16.7417 17.8866 16.6293 17.7499 16.5629 17.5901C16.4965 17.4302 16.4791 17.2542 16.5129 17.0845C16.5468 16.9148 16.6303 16.7589 16.753 16.6365C16.8757 16.5141 17.032 16.4308 17.2022 16.397C17.3723 16.3633 17.5487 16.3806 17.709 16.4468C17.8693 16.513 18.0063 16.6252 18.1027 16.7691C18.1991 16.913 18.2506 17.0822 18.2506 17.2552C18.2506 17.4873 18.1581 17.7098 17.9936 17.8739C17.8291 18.038 17.606 18.1302 17.3733 18.1302Z" fill="black"/>
</svg>
