<svg xmlns="http://www.w3.org/2000/svg" width="25" height="25" viewBox="0 0 25 25" fill="none"><rect width="25" height="25" fill="none"/>
<path d="M13.0503 7.9329C13.0503 5.68262 11.179 3.85999 8.86852 3.85999C6.55806 3.85999 4.6867 5.68262 4.6867 7.9329C4.6867 10.1832 6.55806 12.0058 8.86852 12.0058C11.179 12.0058 13.0503 10.1832 13.0503 7.9329ZM15.1412 9.96936V12.0058H18.2776V15.0605H20.3685V12.0058H23.5049V9.96936H20.3685V6.91467H18.2776V9.96936H15.1412ZM0.504883 18.1152V20.1517H17.2322V18.1152C17.2322 15.4067 11.6599 14.0423 8.86852 14.0423C6.07716 14.0423 0.504883 15.4067 0.504883 18.1152Z" fill="black"/>
</svg>
