<svg xmlns="http://www.w3.org/2000/svg" width="16" height="16" viewBox="0 0 16 16" fill="none"><rect width="16" height="16" fill="none"/>
<path fill-rule="evenodd" clip-rule="evenodd" d="M2.80558 5.69442C2.80558 3.83814 4.31186 2.33331 6.16997 2.33331C8.02807 2.33331 9.53435 3.83814 9.53435 5.69442C9.53435 6.84911 8.95152 7.86781 8.06371 8.47291C10.1218 9.22611 11.6043 11.1718 11.6729 13.4725C11.6804 13.7255 11.4812 13.9367 11.2279 13.9442C10.9747 13.9517 10.7632 13.7527 10.7557 13.4997C10.6822 11.0329 8.65713 9.05553 6.16991 9.05553C3.68269 9.05553 1.65761 11.0329 1.58412 13.4997C1.57658 13.7527 1.36516 13.9517 1.11189 13.9442C0.858621 13.9367 0.659417 13.7255 0.666955 13.4725C0.735497 11.1718 2.21804 9.22607 4.27619 8.47288C3.3884 7.86778 2.80558 6.8491 2.80558 5.69442ZM6.16997 3.24998C4.81864 3.24998 3.72316 4.34439 3.72316 5.69442C3.72316 7.04446 4.81864 8.13887 6.16997 8.13887C7.5213 8.13887 8.61678 7.04446 8.61678 5.69442C8.61678 4.34439 7.5213 3.24998 6.16997 3.24998Z" fill="black"/>
<path d="M11.2411 5.69442C11.1507 5.69442 11.0622 5.70085 10.9757 5.71319C10.7249 5.74903 10.4925 5.57495 10.4566 5.32437C10.4208 5.07379 10.595 4.8416 10.8458 4.80576C10.9752 4.78728 11.1071 4.77776 11.2411 4.77776C12.7715 4.77776 14.0121 6.01719 14.0121 7.54609C14.0121 8.44799 13.5803 9.24858 12.9133 9.75366C14.3394 10.3923 15.3334 11.8228 15.3334 13.4861C15.3334 13.7392 15.128 13.9444 14.8746 13.9444C14.6212 13.9444 14.4158 13.7392 14.4158 13.4861C14.4158 12.0525 13.4634 10.8399 12.1552 10.4477L11.8283 10.3497V9.32555L12.0792 9.19816C12.6827 8.89184 13.0945 8.26661 13.0945 7.54609C13.0945 6.52344 12.2647 5.69442 11.2411 5.69442Z" fill="black"/>
</svg>
