<svg xmlns="http://www.w3.org/2000/svg" width="16" height="16" viewBox="0 0 16 16" fill="none"><rect width="16" height="16" fill="none"/>
<path d="M7.66166 6.46666C9.0828 6.46666 10.2349 5.31752 10.2349 3.89999C10.2349 2.48245 9.0828 1.33331 7.66166 1.33331C6.24051 1.33331 5.08845 2.48245 5.08845 3.89999C5.08845 5.31752 6.24051 6.46666 7.66166 6.46666Z" fill="black"/>
<path d="M6.64305 13.0997C6.13747 12.0906 6.43836 10.7194 7.33021 9.97794C7.74314 9.63828 8.26231 9.45365 8.79753 9.45615C9.34662 9.4694 9.8826 9.62625 10.3518 9.911C10.712 9.69827 11.1086 9.55393 11.5215 9.48532V8.91656C11.521 8.45259 11.336 8.00776 11.0071 7.67968C10.6781 7.3516 10.2322 7.16706 9.76702 7.16656H5.08845C4.62329 7.16706 4.17733 7.3516 3.84841 7.67968C3.51949 8.00776 3.33449 8.45259 3.33398 8.91656V13.5832C3.33398 13.738 3.3956 13.8863 3.50527 13.9957C3.61495 14.1051 3.7637 14.1666 3.91881 14.1666H7.50084C7.15456 13.8637 6.86423 13.5026 6.64305 13.0997Z" fill="black"/>
<path d="M12.9993 10.426C12.668 10.1499 11.7637 9.63603 10.3518 10.5996C8.93965 9.63588 8.03551 10.1502 7.70436 10.426C7.02436 10.992 6.78327 12.0739 7.16618 12.839C7.78024 14.064 10.1208 15.2521 10.2201 15.3021C10.2609 15.3226 10.306 15.3333 10.3517 15.3333C10.3974 15.3333 10.4425 15.3226 10.4833 15.3021C10.5826 15.2521 12.9232 14.0638 13.5372 12.839C13.9207 12.0744 13.6793 10.992 12.9993 10.426ZM12.1063 12.4168C11.9906 12.4168 11.8776 12.3826 11.7814 12.3185C11.6852 12.2544 11.6103 12.1633 11.566 12.0567C11.5217 11.9501 11.5102 11.8328 11.5327 11.7197C11.5553 11.6065 11.611 11.5026 11.6928 11.421C11.7746 11.3394 11.8788 11.2838 11.9922 11.2613C12.1057 11.2388 12.2232 11.2504 12.3301 11.2945C12.437 11.3387 12.5283 11.4134 12.5926 11.5094C12.6568 11.6053 12.6911 11.7181 12.6911 11.8335C12.6911 11.9882 12.6295 12.1365 12.5198 12.2459C12.4102 12.3553 12.2614 12.4168 12.1063 12.4168Z" fill="black"/>
</svg>
