<svg xmlns="http://www.w3.org/2000/svg" width="17" height="17" viewBox="0 0 17 17" fill="none"><rect width="17" height="17" fill="none"/>
<path d="M9.6986 5.28528C9.6986 3.78509 8.45102 2.57001 6.91072 2.57001C5.37042 2.57001 4.12284 3.78509 4.12284 5.28528C4.12284 6.78548 5.37042 8.00056 6.91072 8.00056C8.45102 8.00056 9.6986 6.78548 9.6986 5.28528ZM11.0925 6.64292V8.00056H13.1834V10.037H14.5774V8.00056H16.6683V6.64292H14.5774V4.60647H13.1834V6.64292H11.0925ZM1.33496 12.0735V13.4311H12.4865V12.0735C12.4865 10.2678 8.77163 9.3582 6.91072 9.3582C5.04981 9.3582 1.33496 10.2678 1.33496 12.0735Z" fill="black"/>
</svg>
