<svg xmlns="http://www.w3.org/2000/svg" width="24" height="24" viewBox="0 0 24 24" fill="none"><rect width="24" height="24" fill="none"/>
<path d="M11.4925 9.70003C13.6242 9.70003 15.3523 7.97632 15.3523 5.85001C15.3523 3.72371 13.6242 2 11.4925 2C9.36077 2 7.63267 3.72371 7.63267 5.85001C7.63267 7.97632 9.36077 9.70003 11.4925 9.70003Z" fill="black"/>
<path d="M9.96457 19.6495C9.20621 18.136 9.65754 16.0791 10.9953 14.9669C11.6147 14.4575 12.3935 14.1805 13.1963 14.1843C14.0199 14.2041 14.8239 14.4394 15.5278 14.8665C16.068 14.5474 16.6629 14.3309 17.2822 14.228V13.3749C17.2815 12.6789 17.004 12.0117 16.5106 11.5195C16.0172 11.0274 15.3483 10.7506 14.6505 10.7499H7.63267C6.93493 10.7506 6.26599 11.0274 5.77262 11.5195C5.27924 12.0117 5.00173 12.6789 5.00098 13.3749V20.3749C5.00098 20.607 5.0934 20.8295 5.25791 20.9936C5.42242 21.1577 5.64555 21.2499 5.87821 21.2499H11.2513C10.7318 20.7956 10.2963 20.2539 9.96457 19.6495Z" fill="black"/>
<path d="M19.499 15.639C19.002 15.2249 17.6456 14.4541 15.5278 15.8994C13.4095 14.4539 12.0533 15.2254 11.5565 15.639C10.5365 16.488 10.1749 18.1109 10.7493 19.2585C11.6704 21.096 15.1813 22.8782 15.3302 22.9532C15.3914 22.984 15.459 23 15.5275 23C15.5961 23 15.6637 22.984 15.7249 22.9532C15.8738 22.8782 19.3847 21.0958 20.3058 19.2585C20.8811 18.1116 20.519 16.488 19.499 15.639ZM18.1595 18.6252C17.986 18.6252 17.8164 18.5739 17.6721 18.4777C17.5278 18.3816 17.4154 18.2449 17.349 18.0851C17.2826 17.9252 17.2652 17.7492 17.2991 17.5795C17.3329 17.4098 17.4165 17.2539 17.5392 17.1315C17.6618 17.0091 17.8181 16.9258 17.9883 16.892C18.1585 16.8583 18.3349 16.8756 18.4952 16.9418C18.6554 17.008 18.7925 17.1202 18.8888 17.2641C18.9852 17.408 19.0367 17.5772 19.0367 17.7502C19.0367 17.9823 18.9443 18.2048 18.7798 18.3689C18.6152 18.533 18.3921 18.6252 18.1595 18.6252Z" fill="black"/>
</svg>
