<svg xmlns="http://www.w3.org/2000/svg" width="16" height="16" viewBox="0 0 16 16" fill="none"><rect width="16" height="16" fill="none"/>
<path d="M7.9978 7.25921C8.83733 7.25921 9.56429 6.96723 10.1583 6.39114C10.7522 5.81514 11.0533 5.11037 11.0533 4.29617C11.0533 3.48225 10.7522 2.77739 10.1582 2.2012C9.56409 1.6253 8.83723 1.33331 7.9978 1.33331C7.15818 1.33331 6.43141 1.6253 5.83744 2.2013C5.24346 2.77729 4.94226 3.48215 4.94226 4.29617C4.94226 5.11037 5.24346 5.81523 5.83753 6.39123C6.43161 6.96713 7.15847 7.25921 7.9978 7.25921Z" fill="black"/>
<path d="M14.0793 11.5767C14.0595 11.3161 14.0195 11.0318 13.9606 10.7317C13.9011 10.4292 13.8246 10.1434 13.7329 9.88205C13.6382 9.61198 13.5095 9.34528 13.3503 9.08969C13.1851 8.82441 12.9911 8.59342 12.7734 8.40333C12.5457 8.20448 12.267 8.0446 11.9446 7.92798C11.6234 7.81197 11.2674 7.7532 10.8866 7.7532C10.7371 7.7532 10.5925 7.80921 10.3132 7.97522C10.1413 8.07755 9.9402 8.19591 9.71577 8.32681C9.52387 8.43843 9.2639 8.54301 8.94279 8.6377C8.62951 8.73024 8.31142 8.77717 7.99747 8.77717C7.68351 8.77717 7.36554 8.73024 7.05192 8.6377C6.73115 8.54312 6.47118 8.43853 6.2795 8.32691C6.05719 8.19723 5.85601 8.07888 5.68154 7.97511C5.40257 7.80911 5.25783 7.7531 5.10829 7.7531C4.72739 7.7531 4.37152 7.81197 4.05042 7.92808C3.7283 8.0445 3.44944 8.20438 3.22155 8.40344C3.00394 8.59362 2.8098 8.82451 2.64483 9.08969C2.48579 9.34528 2.35703 9.61188 2.26226 9.88216C2.17072 10.1435 2.09416 10.4292 2.0347 10.7317C1.9758 11.0314 1.93578 11.3158 1.916 11.577C1.89655 11.8329 1.88672 12.0985 1.88672 12.3667C1.88672 13.0648 2.12981 13.6299 2.60918 14.0467C3.08263 14.458 3.70908 14.6666 4.47088 14.6666H11.5247C12.2865 14.6666 12.9128 14.4581 13.3863 14.0467C13.8658 13.6302 14.1089 13.065 14.1089 12.3666C14.1088 12.0971 14.0988 11.8313 14.0793 11.5767Z" fill="black"/>
</svg>
