<svg xmlns="http://www.w3.org/2000/svg" width="16" height="16" viewBox="0 0 16 16" fill="none"><rect width="16" height="16" fill="none"/>
<path d="M8.00085 6.57784C7.22543 6.57784 6.59453 5.94695 6.59453 5.17152C6.59453 4.39609 7.22543 3.7652 8.00085 3.7652C8.77628 3.7652 9.40717 4.39609 9.40717 5.17152C9.40717 5.94695 8.77628 6.57784 8.00085 6.57784Z" fill="black"/>
<path d="M5.18798 10.3279C5.18798 8.77691 6.44964 7.51525 8.00062 7.51525C9.5516 7.51525 10.8133 8.77691 10.8133 10.3279V12.2342H5.18798V10.3279Z" fill="black"/>
<path d="M4.25056 6.10958C4.25056 5.33416 3.61967 4.70326 2.84424 4.70326C2.06882 4.70326 1.43793 5.33416 1.43793 6.10958C1.43793 6.88501 2.06882 7.5159 2.84424 7.5159C3.61967 7.5159 4.25056 6.88501 4.25056 6.10958Z" fill="black"/>
<path d="M13.1575 4.70326C13.9329 4.70326 14.5638 5.33416 14.5638 6.10958C14.5638 6.88501 13.9329 7.5159 13.1575 7.5159C12.382 7.5159 11.7511 6.88501 11.7511 6.10958C11.7511 5.33416 12.382 4.70326 13.1575 4.70326Z" fill="black"/>
<path d="M13.1561 8.45332C12.533 8.45332 11.9628 8.66243 11.4967 9.00522C11.6536 9.41821 11.7498 9.8611 11.7498 10.3284V12.2348H16V11.266C16 9.71253 14.7095 8.45332 13.1561 8.45332Z" fill="black"/>
<path d="M0 12.2348V11.266C0 9.71253 1.29047 8.45332 2.84389 8.45332C3.46697 8.45332 4.03719 8.66243 4.50327 9.00522C4.3464 9.41821 4.25021 9.8611 4.25021 10.3284V12.2348H0Z" fill="black"/>
</svg>
