<svg xmlns="http://www.w3.org/2000/svg" width="24" height="24" viewBox="0 0 24 24" fill="none"><rect width="24" height="24" fill="none"/>
<path d="M21.4765 16.678L18.6796 13.8869C17.6807 12.8901 15.9825 13.2889 15.583 14.5847C15.2833 15.4818 14.2844 15.9802 13.3854 15.7808C11.3876 15.2824 8.69055 12.6907 8.19109 10.5975C7.89142 9.70029 8.49076 8.70348 9.38978 8.40448C10.6884 8.00575 11.0879 6.31119 10.089 5.31438L7.29208 2.52332C6.49296 1.82556 5.29427 1.82556 4.59504 2.52332L2.69712 4.41725C0.799202 6.41087 2.8969 11.6939 7.59175 16.3789C12.2866 21.0639 17.5808 23.2569 19.5786 21.2633L21.4765 19.3693C22.1758 18.5719 22.1758 17.3757 21.4765 16.678Z" fill="black"/>
</svg>
