<svg xmlns="http://www.w3.org/2000/svg" width="16" height="16" viewBox="0 0 16 16" fill="none"><rect width="16" height="16" fill="none"/>
<path d="M14.3172 11.1186L12.4526 9.25792C11.7866 8.59338 10.6545 8.85922 10.3882 9.7231C10.1884 10.3212 9.52245 10.6535 8.92311 10.5205C7.59124 10.1883 5.79321 8.46048 5.46024 7.06495C5.26046 6.46684 5.66002 5.8023 6.25936 5.60296C7.12508 5.33715 7.39146 4.20744 6.72552 3.5429L4.8609 1.6822C4.32815 1.21702 3.52903 1.21702 3.06287 1.6822L1.79759 2.94482C0.532313 4.27389 1.93078 7.79594 5.06068 10.9193C8.19058 14.0426 11.72 15.5046 13.0519 14.1755L14.3172 12.9129C14.7834 12.3812 14.7834 11.5838 14.3172 11.1186Z" fill="black"/>
</svg>
