<svg xmlns="http://www.w3.org/2000/svg" width="17" height="17" viewBox="0 0 17 17" fill="none"><rect width="17" height="17" fill="none"/>
<path d="M14.3284 11.1253L12.4638 9.26463C11.7979 8.6001 10.6658 8.86594 10.3994 9.72981C10.1996 10.3279 9.53368 10.6602 8.93434 10.5273C7.60247 10.195 5.80444 8.46719 5.47147 7.07166C5.27169 6.47355 5.67125 5.80901 6.27059 5.60968C7.13631 5.34386 7.40269 4.21415 6.73675 3.54961L4.87213 1.68891C4.33938 1.22373 3.54026 1.22373 3.0741 1.68891L1.80882 2.95153C0.543544 4.2806 1.94201 7.80265 5.07191 10.926C8.20181 14.0493 11.7313 15.5113 13.0631 14.1822L14.3284 12.9196C14.7946 12.388 14.7946 11.5905 14.3284 11.1253Z" fill="black"/>
</svg>
