<svg xmlns="http://www.w3.org/2000/svg" width="24" height="25" viewBox="0 0 24 25" fill="none"><rect width="24" height="25" fill="none"/>
<path d="M21.4755 16.683L18.6786 13.8919C17.6797 12.8951 15.9816 13.2939 15.582 14.5897C15.2823 15.4868 14.2834 15.9852 13.3844 15.7858C11.3866 15.2874 8.68957 12.6957 8.19012 10.6025C7.89045 9.70529 8.48979 8.70848 9.3888 8.40948C10.6874 8.01076 11.0869 6.31619 10.088 5.31938L7.2911 2.52833C6.49198 1.83056 5.29329 1.83056 4.59406 2.52833L2.69614 4.42226C0.798226 6.41587 2.89592 11.6989 7.59077 16.3839C12.2856 21.0689 17.5798 23.2619 19.5776 21.2683L21.4755 19.3743C22.1748 18.5769 22.1748 17.3807 21.4755 16.683Z" fill="black"/>
</svg>
