<svg xmlns="http://www.w3.org/2000/svg" width="16" height="16" viewBox="0 0 16 16" fill="none"><rect width="16" height="16" fill="none"/>
<path d="M4.66683 1.33334C2.82588 1.33334 1.3335 2.82573 1.3335 4.66668V9.41138L5.47544 5.35876L9.64954 9.44284L11.7314 7.41161L14.6668 10.2756V4.66668C14.6668 2.82573 13.1744 1.33334 11.3335 1.33334H4.66683Z" fill="black"/>
<path d="M14.5152 12.3302L11.7314 9.61409L10.7766 10.5456L13.8343 13.5373C14.1395 13.1913 14.374 12.7813 14.5152 12.3302Z" fill="black"/>
<path d="M12.5143 14.4515L5.47544 7.56444L1.34451 11.6063C1.48335 13.3196 2.91777 14.6667 4.66683 14.6667H11.3335C11.7493 14.6667 12.1473 14.5906 12.5143 14.4515Z" fill="black"/>
</svg>
