<svg xmlns="http://www.w3.org/2000/svg" width="17" height="17" viewBox="0 0 17 17" fill="none"><rect width="17" height="17" fill="none"/>
<path d="M5.78412 8.88306C5.78412 7.59301 6.78078 6.5439 8.00633 6.5439C8.15966 6.5439 8.28412 6.67487 8.28412 6.83627C8.28412 6.99768 8.15966 7.12868 8.00633 7.12868C7.08745 7.12868 6.33966 7.91582 6.33966 8.88306C6.33966 9.04446 6.21524 9.17546 6.0619 9.17546C5.90857 9.17546 5.78412 9.04446 5.78412 8.88306Z" fill="black"/>
<path fill-rule="evenodd" clip-rule="evenodd" d="M11.0621 4.20438H12.7287C13.801 4.20438 14.6732 5.12253 14.6732 6.25117V11.5143C14.6732 12.643 13.801 13.5611 12.7288 13.5611H3.2843C2.21206 13.5611 1.33984 12.643 1.33984 11.5143V6.25117C1.33984 5.12253 2.21206 4.20438 3.2843 4.20438H4.95096C5.07039 4.20438 5.17651 4.12425 5.21484 4.00438L5.39039 3.44942C5.57927 2.85175 6.10872 2.45 6.7076 2.45H9.30539C9.90372 2.45 10.4332 2.85175 10.6232 3.44942L10.7987 4.00438C10.8365 4.12425 10.9421 4.20438 11.0621 4.20438ZM4.67318 8.88274C4.67318 10.8178 6.16818 12.3915 8.00651 12.3915C9.84484 12.3915 11.3398 10.8178 11.3398 8.88274C11.3398 6.94766 9.84484 5.37398 8.00651 5.37398C6.16818 5.37398 4.67318 6.94766 4.67318 8.88274Z" fill="black"/>
</svg>
