<svg xmlns="http://www.w3.org/2000/svg" width="16" height="16" viewBox="0 0 16 16" fill="none"><rect width="16" height="16" fill="none"/>
<path d="M5.77777 9.09972C5.77777 7.80967 6.77444 6.76056 7.99998 6.76056C8.15332 6.76056 8.27777 6.89153 8.27777 7.05293C8.27777 7.21434 8.15332 7.34534 7.99998 7.34534C7.0811 7.34534 6.33332 8.13248 6.33332 9.09972C6.33332 9.26112 6.20889 9.39212 6.05556 9.39212C5.90222 9.39212 5.77777 9.26112 5.77777 9.09972Z" fill="black"/>
<path fill-rule="evenodd" clip-rule="evenodd" d="M11.0557 4.42104H12.7224C13.7946 4.42104 14.6668 5.33918 14.6668 6.46783V11.731C14.6668 12.8596 13.7946 13.7778 12.7224 13.7778H3.27795C2.20571 13.7778 1.3335 12.8596 1.3335 11.731V6.46783C1.3335 5.33918 2.20571 4.42104 3.27795 4.42104H4.94462C5.06404 4.42104 5.17016 4.34091 5.2085 4.22104L5.38404 3.66608C5.57292 3.06841 6.10238 2.66666 6.70126 2.66666H9.29904C9.89738 2.66666 10.4268 3.06841 10.6168 3.66608L10.7924 4.22104C10.8302 4.34091 10.9357 4.42104 11.0557 4.42104ZM4.66683 9.0994C4.66683 11.0345 6.16183 12.6082 8.00016 12.6082C9.8385 12.6082 11.3335 11.0345 11.3335 9.0994C11.3335 7.16432 9.8385 5.59064 8.00016 5.59064C6.16183 5.59064 4.66683 7.16432 4.66683 9.0994Z" fill="black"/>
</svg>
