<svg xmlns="http://www.w3.org/2000/svg" width="24" height="24" viewBox="0 0 24 24" fill="none"><rect width="24" height="24" fill="none"/>
<path d="M7.00098 2C4.23955 2 2.00098 4.23858 2.00098 7V14.1171L8.21389 8.03813L14.475 14.1642L17.5979 11.1174L22.001 15.4134V7C22.001 4.23858 19.7624 2 17.001 2H7.00098Z" fill="black"/>
<path d="M21.7736 18.4953L17.5979 14.4211L16.1657 15.8184L20.7521 20.306C21.21 19.7869 21.5618 19.172 21.7736 18.4953Z" fill="black"/>
<path d="M18.7722 21.6772L8.21389 11.3466L2.0175 17.4094C2.22576 19.9793 4.37739 22 7.00098 22H17.001C17.6246 22 18.2216 21.8858 18.7722 21.6772Z" fill="black"/>
</svg>
