<svg xmlns="http://www.w3.org/2000/svg" width="24" height="24" viewBox="0 0 24 24" fill="none"><rect width="24" height="24" fill="none"/>
<path d="M7.99969 13.5795C7.99969 11.2574 9.79369 9.36902 11.9997 9.36902C12.2757 9.36902 12.4997 9.60477 12.4997 9.8953C12.4997 10.1858 12.2757 10.4216 11.9997 10.4216C10.3457 10.4216 8.99968 11.8385 8.99968 13.5795C8.99968 13.87 8.77571 14.1058 8.49971 14.1058C8.22371 14.1058 7.99969 13.87 7.99969 13.5795Z" fill="black"/>
<path fill-rule="evenodd" clip-rule="evenodd" d="M17.5 5.15789H20.5C22.43 5.15789 24 6.81055 24 8.84211V18.3158C24 20.3473 22.43 22 20.5 22H3.50002C1.56998 22 0 20.3473 0 18.3158V8.84211C0 6.81055 1.56998 5.15789 3.50002 5.15789H6.50002C6.71498 5.15789 6.906 5.01366 6.975 4.79789L7.29098 3.79896C7.63097 2.72316 8.58398 2 9.66197 2H14.338C15.415 2 16.368 2.72316 16.71 3.79896L17.026 4.79789C17.094 5.01366 17.284 5.15789 17.5 5.15789ZM6 13.5789C6 17.0621 8.691 19.8947 12 19.8947C15.309 19.8947 18 17.0621 18 13.5789C18 10.0958 15.309 7.26317 12 7.26317C8.691 7.26317 6 10.0958 6 13.5789Z" fill="black"/>
</svg>
