<svg xmlns="http://www.w3.org/2000/svg" width="25" height="24" viewBox="0 0 25 24" fill="none"><rect width="25" height="24" fill="none"/>
<path d="M7.00488 2C4.24346 2 2.00488 4.23858 2.00488 7V14.1171L8.2178 8.03813L14.4789 14.1642L17.6018 11.1174L22.0049 15.4134V7C22.0049 4.23858 19.7663 2 17.0049 2H7.00488Z" fill="black"/>
<path d="M21.7775 18.4953L17.6018 14.4211L16.1696 15.8184L20.756 20.306C21.2139 19.7869 21.5657 19.172 21.7775 18.4953Z" fill="black"/>
<path d="M18.7761 21.6772L8.2178 11.3466L2.0214 17.4094C2.22967 19.9793 4.3813 22 7.00488 22H17.0049C17.6285 22 18.2255 21.8858 18.7761 21.6772Z" fill="black"/>
</svg>
