<svg xmlns="http://www.w3.org/2000/svg" width="24" height="24" viewBox="0 0 24 24" fill="none"><rect width="24" height="24" fill="none"/>
<path d="M8.66739 13.6496C8.66739 11.7145 10.1624 10.1408 12.0007 10.1408C12.2307 10.1408 12.4174 10.3373 12.4174 10.5794C12.4174 10.8215 12.2307 11.018 12.0007 11.018C10.6224 11.018 9.50071 12.1987 9.50071 13.6496C9.50071 13.8917 9.31407 14.0882 9.08407 14.0882C8.85407 14.0882 8.66739 13.8917 8.66739 13.6496Z" fill="black"/>
<path fill-rule="evenodd" clip-rule="evenodd" d="M16.5843 6.63157H19.0843C20.6927 6.63157 22.001 8.00879 22.001 9.70176V17.5965C22.001 19.2894 20.6927 20.6667 19.0843 20.6667H4.91766C3.3093 20.6667 2.00098 19.2894 2.00098 17.5965V9.70176C2.00098 8.00879 3.3093 6.63157 4.91766 6.63157H7.41766C7.5968 6.63157 7.75598 6.51139 7.81348 6.33158L8.0768 5.49913C8.36012 4.60263 9.1543 4 10.0526 4H13.9493C14.8468 4 15.641 4.60263 15.926 5.49913L16.1893 6.33158C16.246 6.51139 16.4043 6.63157 16.5843 6.63157ZM7.00098 13.6491C7.00098 16.5517 9.24348 18.9123 12.001 18.9123C14.7585 18.9123 17.001 16.5517 17.001 13.6491C17.001 10.7465 14.7585 8.38597 12.001 8.38597C9.24348 8.38597 7.00098 10.7465 7.00098 13.6491Z" fill="black"/>
</svg>
