<svg xmlns="http://www.w3.org/2000/svg" width="25" height="24" viewBox="0 0 25 24" fill="none"><rect width="25" height="24" fill="none"/>
<path d="M8.6713 13.3096C8.6713 11.3745 10.1663 9.80085 12.0046 9.80085C12.2346 9.80085 12.4213 9.99731 12.4213 10.2394C12.4213 10.4815 12.2346 10.678 12.0046 10.678C10.6263 10.678 9.50461 11.8587 9.50461 13.3096C9.50461 13.5517 9.31797 13.7482 9.08797 13.7482C8.85797 13.7482 8.6713 13.5517 8.6713 13.3096Z" fill="black"/>
<path fill-rule="evenodd" clip-rule="evenodd" d="M16.5882 6.29158H19.0882C20.6966 6.29158 22.0049 7.6688 22.0049 9.36176V17.2565C22.0049 18.9495 20.6966 20.3267 19.0882 20.3267H4.92156C3.3132 20.3267 2.00488 18.9495 2.00488 17.2565V9.36176C2.00488 7.6688 3.3132 6.29158 4.92156 6.29158H7.42156C7.6007 6.29158 7.75988 6.17139 7.81738 5.99158L8.0807 5.15914C8.36402 4.26263 9.1582 3.66 10.0565 3.66H13.9532C14.8507 3.66 15.6449 4.26263 15.9299 5.15914L16.1932 5.99158C16.2499 6.17139 16.4082 6.29158 16.5882 6.29158ZM7.00488 13.3091C7.00488 16.2118 9.24738 18.5723 12.0049 18.5723C14.7624 18.5723 17.0049 16.2118 17.0049 13.3091C17.0049 10.4065 14.7624 8.04598 12.0049 8.04598C9.24738 8.04598 7.00488 10.4065 7.00488 13.3091Z" fill="black"/>
</svg>
