<svg xmlns="http://www.w3.org/2000/svg" width="17" height="17" viewBox="0 0 17 17" fill="none"><rect width="17" height="17" fill="none"/>
<path d="M4.67806 1.34C2.83711 1.34 1.34473 2.83238 1.34473 4.67333V9.41804L5.48667 5.36542L9.66077 9.4495L11.7426 7.41827L14.6781 10.2823V4.67333C14.6781 2.83238 13.1857 1.34 11.3447 1.34H4.67806Z" fill="black"/>
<path d="M14.5265 12.3368L11.7426 9.62075L10.7879 10.5523L13.8455 13.544C14.1507 13.1979 14.3852 12.788 14.5265 12.3368Z" fill="black"/>
<path d="M12.5255 14.4581L5.48667 7.57109L1.35574 11.6129C1.49459 13.3262 2.92901 14.6733 4.67806 14.6733H11.3447C11.7605 14.6733 12.1585 14.5972 12.5255 14.4581Z" fill="black"/>
</svg>
