<svg xmlns="http://www.w3.org/2000/svg" width="16" height="16" viewBox="0 0 16 16" fill="none"><rect width="16" height="16" fill="none"/>
<path d="M8.0195 1.33334C6.9815 1.3341 5.9581 1.5786 5.03127 2.04728C4.10444 2.51595 3.29994 3.19577 2.68221 4.03228C2.06449 4.86878 1.6507 5.83873 1.474 6.86443C1.2973 7.89013 1.3626 8.94307 1.66466 9.93892C1.66081 9.96097 1.66081 9.98352 1.66466 10.0056C1.91511 10.8134 2.31917 11.5649 2.85453 12.2186L1.52506 13.5518C1.43283 13.6455 1.37034 13.7646 1.3455 13.8939C1.32066 14.0232 1.33456 14.157 1.38547 14.2784C1.44193 14.4016 1.53455 14.5047 1.65095 14.5737C1.76735 14.6428 1.90199 14.6747 2.03691 14.665H8.0195C9.40691 14.664 10.7592 14.2276 11.8869 13.4172C13.0146 12.6067 13.8611 11.4627 14.3079 10.1456V10.0922C14.5395 9.41858 14.6608 8.71172 14.6668 7.99916C14.6668 7.12379 14.4949 6.257 14.1608 5.44826C13.8268 4.63953 13.3371 3.9047 12.7199 3.28572C12.1026 2.66674 11.3698 2.17574 10.5633 1.84075C9.75683 1.50576 8.89244 1.33334 8.0195 1.33334ZM8.0195 13.3318H3.63891L3.83833 13.1385L9.42874 7.52589C9.553 7.40375 9.72005 7.33534 9.89405 7.33534C10.068 7.33534 10.2351 7.40375 10.3594 7.52589L12.7657 9.92558L12.9186 10.0722C12.5121 11.0384 11.8305 11.8629 10.9591 12.4427C10.0877 13.0224 9.06524 13.3317 8.0195 13.3318ZM3.0606 9.91225L4.11087 8.85905C4.23542 8.7349 4.4039 8.66522 4.57951 8.66522C4.75512 8.66522 4.9236 8.7349 5.04815 8.85905L5.62646 9.43898L3.81839 11.2654C3.4986 10.8557 3.24306 10.3993 3.0606 9.91225ZM13.3041 8.57909L11.3099 6.57934C10.936 6.20486 10.4292 5.99451 9.9007 5.99451C9.37223 5.99451 8.86538 6.20486 8.49146 6.57934L6.57039 8.50576L5.98542 7.92584C5.61178 7.55338 5.10635 7.34433 4.57951 7.34433C4.05267 7.34433 3.54724 7.55338 3.1736 7.92584L2.70164 8.37245C2.69502 8.24811 2.69502 8.1235 2.70164 7.99916C2.70164 6.58485 3.26191 5.22847 4.25921 4.22841C5.2565 3.22834 6.60912 2.66651 8.0195 2.66651C9.42989 2.66651 10.7825 3.22834 11.7798 4.22841C12.7771 5.22847 13.3374 6.58485 13.3374 7.99916C13.3473 8.19012 13.3473 8.38147 13.3374 8.57242L13.3041 8.57909Z" fill="black"/>
</svg>
