<svg xmlns="http://www.w3.org/2000/svg" width="24" height="24" viewBox="0 0 24 24" fill="none"><rect width="24" height="24" fill="none"/>
<path d="M12.03 2C10.473 2.00113 8.93788 2.36789 7.54763 3.0709C6.15739 3.77391 4.95064 4.79364 4.02405 6.0484C3.09747 7.30316 2.47679 8.75808 2.21174 10.2966C1.94669 11.8352 2.04463 13.4146 2.49772 14.9084C2.49194 14.9414 2.49194 14.9753 2.49772 15.0083C2.87339 16.22 3.47948 17.3473 4.28253 18.3279L2.28833 20.3277C2.14997 20.4683 2.05625 20.6468 2.01898 20.8408C1.98172 21.0348 2.00258 21.2354 2.07894 21.4175C2.16363 21.6024 2.30255 21.757 2.47715 21.8606C2.65175 21.9642 2.85372 22.012 3.05609 21.9975H12.03C14.1111 21.9959 16.1396 21.3414 17.8311 20.1257C19.5226 18.91 20.7924 17.1941 21.4625 15.2183V15.1383C21.8101 14.1279 21.9919 13.0676 22.001 11.9987C22.001 10.6857 21.7431 9.38548 21.242 8.17238C20.7409 6.95928 20.0064 5.85703 19.0805 4.92856C18.1547 4.00009 17.0555 3.26359 15.8457 2.76111C14.636 2.25862 13.3394 2 12.03 2ZM12.03 19.9977H5.4591L5.75823 19.7077L14.1438 11.2888C14.3302 11.1056 14.5808 11.003 14.8418 11.003C15.1028 11.003 15.3534 11.1056 15.5398 11.2888L19.1493 14.8884L19.3786 15.1083C18.7688 16.5576 17.7465 17.7944 16.4394 18.664C15.1323 19.5337 13.5986 19.9976 12.03 19.9977ZM4.59163 14.8684L6.16704 13.2886C6.35386 13.1023 6.60658 12.9978 6.87 12.9978C7.13342 12.9978 7.38613 13.1023 7.57295 13.2886L8.44043 14.1585L5.72832 16.8981C5.24863 16.2835 4.86532 15.599 4.59163 14.8684ZM19.9569 12.8686L16.9656 9.869C16.4048 9.30727 15.6445 8.99175 14.8518 8.99175C14.0591 8.99175 13.2988 9.30727 12.7379 9.869L9.85631 12.7586L8.97886 11.8887C8.41841 11.3301 7.66026 11.0165 6.87 11.0165C6.07974 11.0165 5.32159 11.3301 4.76113 11.8887L4.05319 12.5587C4.04326 12.3721 4.04326 12.1852 4.05319 11.9987C4.05319 9.87727 4.8936 7.84269 6.38954 6.34259C7.88548 4.84249 9.91441 3.99975 12.03 3.99975C14.1456 3.99975 16.1745 4.84249 17.6704 6.34259C19.1664 7.84269 20.0068 9.87727 20.0068 11.9987C20.0217 12.2852 20.0217 12.5722 20.0068 12.8586L19.9569 12.8686Z" fill="black"/>
</svg>
