<svg xmlns="http://www.w3.org/2000/svg" width="17" height="17" viewBox="0 0 17 17" fill="none"><rect width="17" height="17" fill="none"/>
<path d="M8.03073 1.34C6.99273 1.34075 5.96933 1.58525 5.0425 2.05393C4.11567 2.5226 3.31117 3.20242 2.69344 4.03893C2.07572 4.87544 1.66193 5.84539 1.48523 6.87108C1.30853 7.89678 1.37383 8.94972 1.67589 9.94557C1.67204 9.96762 1.67204 9.99018 1.67589 10.0122C1.92634 10.82 2.3304 11.5715 2.86576 12.2253L1.53629 13.5584C1.44406 13.6522 1.38157 13.7712 1.35673 13.9005C1.33189 14.0298 1.34579 14.1636 1.3967 14.285C1.45316 14.4083 1.54578 14.5113 1.66218 14.5804C1.77858 14.6495 1.91322 14.6813 2.04814 14.6716H8.03073C9.41814 14.6706 10.7705 14.2343 11.8981 13.4238C13.0258 12.6134 13.8724 11.4694 14.3191 10.1522V10.0989C14.5508 9.42523 14.672 8.71837 14.6781 8.00582C14.6781 7.13045 14.5061 6.26365 14.1721 5.45492C13.838 4.64618 13.3484 3.91135 12.7311 3.29237C12.1138 2.67339 11.381 2.18239 10.5746 1.8474C9.76807 1.51241 8.90367 1.34 8.03073 1.34ZM8.03073 13.3385H3.65014L3.84956 13.1452L9.43997 7.53254C9.56423 7.41041 9.73129 7.34199 9.90528 7.34199C10.0793 7.34199 10.2463 7.41041 10.3706 7.53254L12.7769 9.93224L12.9298 10.0789C12.5233 11.045 11.8417 11.8696 10.9703 12.4493C10.099 13.0291 9.07647 13.3384 8.03073 13.3385ZM3.07183 9.91891L4.1221 8.86571C4.24665 8.74155 4.41513 8.67187 4.59074 8.67187C4.76635 8.67187 4.93483 8.74155 5.05938 8.86571L5.6377 9.44563L3.82962 11.2721C3.50983 10.8623 3.25429 10.406 3.07183 9.91891ZM13.3154 8.58574L11.3212 6.586C10.9472 6.21151 10.4404 6.00116 9.91193 6.00116C9.38346 6.00116 8.87661 6.21151 8.50269 6.586L6.58162 8.51242L5.99665 7.93249C5.62301 7.56004 5.11758 7.35098 4.59074 7.35098C4.0639 7.35098 3.55847 7.56004 3.18483 7.93249L2.71287 8.3791C2.70625 8.25476 2.70625 8.13016 2.71287 8.00582C2.71287 6.59151 3.27314 5.23513 4.27044 4.23506C5.26773 3.23499 6.62035 2.67316 8.03073 2.67316C9.44112 2.67316 10.7937 3.23499 11.791 4.23506C12.7883 5.23513 13.3486 6.59151 13.3486 8.00582C13.3585 8.19677 13.3585 8.38812 13.3486 8.57908L13.3154 8.58574Z" fill="black"/>
</svg>
