<svg xmlns="http://www.w3.org/2000/svg" width="25" height="24" viewBox="0 0 25 24" fill="none"><rect width="25" height="24" fill="none"/>
<path d="M12.0339 2C10.4769 2.00113 8.94178 2.36789 7.55154 3.0709C6.16129 3.77391 4.95455 4.79364 4.02796 6.0484C3.10137 7.30316 2.48069 8.75808 2.21564 10.2966C1.95059 11.8352 2.04853 13.4146 2.50162 14.9084C2.49585 14.9414 2.49585 14.9753 2.50162 15.0083C2.8773 16.22 3.48339 17.3473 4.28643 18.3279L2.29223 20.3277C2.15388 20.4683 2.06015 20.6468 2.02289 20.8408C1.98562 21.0348 2.00649 21.2354 2.08284 21.4175C2.16754 21.6024 2.30646 21.757 2.48106 21.8606C2.65566 21.9642 2.85763 22.012 3.06 21.9975H12.0339C14.115 21.9959 16.1435 21.3414 17.835 20.1257C19.5265 18.91 20.7963 17.1941 21.4665 15.2183V15.1383C21.814 14.1279 21.9958 13.0676 22.0049 11.9987C22.0049 10.6857 21.747 9.38548 21.2459 8.17238C20.7448 6.95928 20.0103 5.85703 19.0844 4.92856C18.1586 4.00009 17.0594 3.26359 15.8496 2.76111C14.6399 2.25862 13.3433 2 12.0339 2ZM12.0339 19.9977H5.46301L5.76214 19.7077L14.1477 11.2888C14.3341 11.1056 14.5847 11.003 14.8457 11.003C15.1067 11.003 15.3573 11.1056 15.5437 11.2888L19.1532 14.8884L19.3825 15.1083C18.7727 16.5576 17.7504 17.7944 16.4433 18.664C15.1362 19.5337 13.6025 19.9976 12.0339 19.9977ZM4.59553 14.8684L6.17095 13.2886C6.35777 13.1023 6.61049 12.9978 6.8739 12.9978C7.13732 12.9978 7.39004 13.1023 7.57686 13.2886L8.44434 14.1585L5.73223 16.8981C5.25254 16.2835 4.86922 15.599 4.59553 14.8684ZM19.9608 12.8686L16.9695 9.869C16.4087 9.30727 15.6484 8.99175 14.8557 8.99175C14.063 8.99175 13.3027 9.30727 12.7418 9.869L9.86022 12.7586L8.98277 11.8887C8.42231 11.3301 7.66416 11.0165 6.8739 11.0165C6.08365 11.0165 5.3255 11.3301 4.76504 11.8887L4.0571 12.5587C4.04717 12.3721 4.04717 12.1852 4.0571 11.9987C4.0571 9.87727 4.89751 7.84269 6.39345 6.34259C7.88939 4.84249 9.91832 3.99975 12.0339 3.99975C14.1495 3.99975 16.1784 4.84249 17.6743 6.34259C19.1703 7.84269 20.0107 9.87727 20.0107 11.9987C20.0256 12.2852 20.0256 12.5722 20.0107 12.8586L19.9608 12.8686Z" fill="black"/>
</svg>
