<svg xmlns="http://www.w3.org/2000/svg" width="24" height="24" viewBox="0 0 24 24" fill="none"><rect width="24" height="24" fill="none"/>
<path d="M12.8864 2.00003C6.87038 2.00003 2.00098 6.85625 2.00098 12.8578C2.00098 13.1809 2.26356 13.4428 2.58746 13.4428H12.8864C13.2103 13.4428 13.4729 13.1809 13.4729 12.8578V2.58503C13.4729 2.26194 13.2103 2.00003 12.8864 2.00003Z" fill="black"/>
<path d="M8.71379 15.1343C8.6109 14.9469 8.41368 14.8304 8.19946 14.8304H4.73092C4.54424 14.8304 4.36865 14.919 4.25818 15.0692C4.14767 15.2193 4.11549 15.4129 4.17138 15.5906C5.27604 19.1 8.46223 21.7092 12.2999 21.9495V17.5646C10.7947 17.3782 9.45442 16.483 8.71379 15.1343Z" fill="black"/>
<path d="M15.6259 4.16475C15.4478 4.10903 15.2536 4.14118 15.1031 4.25133C14.9526 4.36155 14.8637 4.53666 14.8637 4.7229V8.18258C14.8637 8.39622 14.9805 8.59291 15.1684 8.69558C16.5204 9.4344 17.418 10.7712 17.6048 12.2726H22.001C21.7594 8.43635 19.1359 5.26403 15.6259 4.16475Z" fill="black"/>
<path d="M17.6057 13.4429C17.3397 15.5916 15.6272 17.2997 13.473 17.5651V21.949C18.0493 21.6617 21.7123 18.0138 22.0007 13.4429H17.6057Z" fill="black"/>
</svg>
