<svg xmlns="http://www.w3.org/2000/svg" width="25" height="24" viewBox="0 0 25 24" fill="none"><rect width="25" height="24" fill="none"/>
<path d="M12.8903 2.01999C6.87429 2.01999 2.00488 6.87621 2.00488 12.8778C2.00488 13.2008 2.26746 13.4628 2.59137 13.4628H12.8903C13.2142 13.4628 13.4768 13.2008 13.4768 12.8778V2.60499C13.4768 2.2819 13.2142 2.01999 12.8903 2.01999Z" fill="black"/>
<path d="M8.7177 15.1542C8.61481 14.9668 8.41758 14.8503 8.20336 14.8503H4.73483C4.54814 14.8503 4.37256 14.939 4.26209 15.0891C4.15158 15.2393 4.11939 15.4329 4.17529 15.6105C5.27995 19.12 8.46614 21.7291 12.3039 21.9695V17.5845C10.7986 17.3982 9.45833 16.5029 8.7177 15.1542Z" fill="black"/>
<path d="M15.6298 4.18471C15.4517 4.12899 15.2575 4.16113 15.107 4.27128C14.9565 4.38151 14.8676 4.55661 14.8676 4.74286V8.20254C14.8676 8.41618 14.9844 8.61287 15.1723 8.71554C16.5243 9.45436 17.4219 10.7912 17.6087 12.2926H22.0049C21.7633 8.45631 19.1398 5.28398 15.6298 4.18471Z" fill="black"/>
<path d="M17.6096 13.4628C17.3436 15.6116 15.6311 17.3197 13.4769 17.5851V21.9689C18.0532 21.6816 21.7162 18.0337 22.0046 13.4628H17.6096Z" fill="black"/>
</svg>
