<svg xmlns="http://www.w3.org/2000/svg" width="17" height="17" viewBox="0 0 17 17" fill="none"><rect width="17" height="17" fill="none"/>
<path d="M8.60167 1.35488C4.591 1.35488 1.34473 4.59236 1.34473 8.5934C1.34473 8.80879 1.51978 8.98339 1.73572 8.98339H8.60167C8.81761 8.98339 8.99266 8.80879 8.99266 8.5934V1.74488C8.99266 1.52949 8.81761 1.35488 8.60167 1.35488Z" fill="black"/>
<path d="M5.81994 10.1111C5.75134 9.98611 5.61986 9.90844 5.47705 9.90844H3.16469C3.04023 9.90844 2.92318 9.96754 2.84953 10.0676C2.77586 10.1678 2.7544 10.2968 2.79167 10.4153C3.5281 12.7549 5.65223 14.4943 8.21071 14.6545V11.7312C7.20721 11.607 6.31369 11.0102 5.81994 10.1111Z" fill="black"/>
<path d="M10.428 2.79803C10.3093 2.76088 10.1798 2.78231 10.0795 2.85575C9.97913 2.92923 9.91988 3.04597 9.91988 3.17013V5.47659C9.91988 5.61901 9.99777 5.75014 10.123 5.81858C11.0244 6.31113 11.6228 7.20236 11.7473 8.20328H14.6781C14.517 5.64577 12.768 3.53088 10.428 2.79803Z" fill="black"/>
<path d="M11.7479 8.98344C11.5705 10.4159 10.4289 11.5547 8.99273 11.7316V14.6542C12.0436 14.4626 14.4856 12.0307 14.6779 8.98344H11.7479Z" fill="black"/>
</svg>
