<svg xmlns="http://www.w3.org/2000/svg" width="24" height="24" viewBox="0 0 24 24" fill="none"><rect width="24" height="24" fill="none"/>
<path d="M13.0625 0.030304C5.84329 0.030304 0 5.85777 0 13.0596C0 13.4473 0.315096 13.7616 0.703785 13.7616H13.0625C13.4512 13.7616 13.7663 13.4473 13.7663 13.0596V0.732302C13.7663 0.344599 13.4512 0.030304 13.0625 0.030304Z" fill="black"/>
<path d="M8.05538 15.7914C7.93191 15.5665 7.69524 15.4267 7.43818 15.4267H3.27593C3.05191 15.4267 2.84121 15.5331 2.70865 15.7133C2.57604 15.8935 2.53741 16.1258 2.60449 16.339C3.93008 20.5503 7.75351 23.6813 12.3588 23.9697V18.7077C10.5525 18.4842 8.94414 17.4098 8.05538 15.7914Z" fill="black"/>
<path d="M16.3499 2.62797C16.1362 2.56111 15.9031 2.59968 15.7226 2.73186C15.5419 2.86413 15.4353 3.07425 15.4353 3.29775V7.44937C15.4353 7.70573 15.5755 7.94176 15.8009 8.06496C17.4233 8.95155 18.5005 10.5558 18.7246 12.3574H24C23.7101 7.75389 20.5619 3.9471 16.3499 2.62797Z" fill="black"/>
<path d="M18.7257 13.7617C18.4064 16.3402 16.3515 18.39 13.7664 18.7084V23.969C19.258 23.6243 23.6536 19.2468 23.9997 13.7617H18.7257Z" fill="black"/>
</svg>
