<svg xmlns="http://www.w3.org/2000/svg" width="16" height="16" viewBox="0 0 16 16" fill="none"><rect width="16" height="16" fill="none"/>
<path d="M8.59044 1.33336C4.57977 1.33336 1.3335 4.57084 1.3335 8.57187C1.3335 8.78726 1.50855 8.96187 1.72449 8.96187H8.59044C8.80638 8.96187 8.98143 8.78726 8.98143 8.57187V1.72336C8.98143 1.50797 8.80638 1.33336 8.59044 1.33336Z" fill="black"/>
<path d="M5.80871 10.0895C5.74011 9.96459 5.60863 9.88692 5.46582 9.88692H3.15346C3.029 9.88692 2.91195 9.94601 2.8383 10.0461C2.76463 10.1462 2.74317 10.2753 2.78043 10.3937C3.51687 12.7333 5.641 14.4728 8.19948 14.633V11.7097C7.19598 11.5855 6.30246 10.9887 5.80871 10.0895Z" fill="black"/>
<path d="M10.4168 2.7765C10.298 2.73936 10.1686 2.76079 10.0683 2.83422C9.96789 2.90771 9.90865 3.02444 9.90865 3.14861V5.45506C9.90865 5.59749 9.98654 5.72861 10.1118 5.79706C11.0131 6.28961 11.6115 7.18083 11.7361 8.18175H14.6668C14.5058 5.62424 12.7568 3.50936 10.4168 2.7765Z" fill="black"/>
<path d="M11.7367 8.96191C11.5593 10.3944 10.4177 11.5332 8.9815 11.7101V14.6327C12.0324 14.4411 14.4744 12.0092 14.6667 8.96191H11.7367Z" fill="black"/>
</svg>
