<svg xmlns="http://www.w3.org/2000/svg" width="24" height="24" viewBox="0 0 24 24" fill="none"><rect width="24" height="24" fill="none"/>
<path d="M16.0422 1.875C14.9502 1.875 14.0618 2.76342 14.0618 3.85547V5.73562C14.0618 6.70851 14.8533 7.49999 15.8261 7.49999C16.1712 7.49999 16.6427 7.36152 16.931 6.97298C17.1159 6.72384 17.2907 6.27594 17.0732 5.55749C16.9776 5.24081 16.9751 4.92942 17.0663 4.65665L17.3767 3.72548C17.6801 2.81381 17.0028 1.875 16.0422 1.875V1.875ZM16.4872 3.42928L16.177 4.35989C16.0242 4.81724 16.0237 5.32504 16.1758 5.82881C16.2574 6.09848 16.2583 6.30641 16.1782 6.41432C16.0884 6.5353 15.889 6.56254 15.8261 6.56254C15.3702 6.56254 14.9993 6.19157 14.9993 5.73566V3.85547C14.9993 3.28036 15.4671 2.8125 16.0422 2.8125C16.3629 2.8125 16.5882 3.12595 16.4872 3.42928Z" fill="black"/>
<path d="M18.3177 7.91048C18.6061 8.29902 19.0775 8.43749 19.4226 8.43749C20.3955 8.43749 21.187 7.64601 21.187 6.67312V4.79297C21.187 3.70092 20.2985 2.8125 19.2065 2.8125C18.2457 2.8125 17.5687 3.75131 17.8721 4.66322L18.1825 5.59453C18.2735 5.86692 18.2711 6.17831 18.1757 6.49466C17.9581 7.21344 18.1329 7.66133 18.3177 7.91048ZM19.2065 3.75C19.7816 3.75 20.2495 4.21786 20.2495 4.79297V6.67312C20.2495 7.12907 19.8785 7.49999 19.4226 7.49999C19.3598 7.49999 19.1603 7.47276 19.0706 7.35177C18.9904 7.24387 18.9913 7.03593 19.073 6.76588C19.225 6.26249 19.2245 5.75465 19.0718 5.29767L18.7616 4.36692C18.6604 4.06308 18.8861 3.75 19.2065 3.75Z" fill="black"/>
<path d="M17.9055 0.937498C18.1644 0.937498 18.3743 0.727632 18.3743 0.468749C18.3743 0.209866 18.1644 0 17.9055 0C17.6466 0 17.4368 0.209866 17.4368 0.468749C17.4368 0.727632 17.6466 0.937498 17.9055 0.937498Z" fill="black"/>
<path d="M22.5937 0H20.0156C19.7568 0 19.5469 0.209859 19.5469 0.468749C19.5469 0.727639 19.7568 0.937498 20.0156 0.937498H22.5937C22.8522 0.937498 23.0625 1.14778 23.0625 1.40625V8.90623C23.0625 9.1647 22.8522 9.37498 22.5937 9.37498H17.9063C17.6474 9.37498 17.4375 9.58484 17.4375 9.84373V10.5871L16.3627 9.51228C16.2748 9.42439 16.1556 9.37498 16.0313 9.37498H13.2188C12.9603 9.37498 12.75 9.1647 12.75 8.90623V1.40625C12.75 1.14778 12.9603 0.937498 13.2188 0.937498H15.7969C16.0557 0.937498 16.2656 0.727639 16.2656 0.468749C16.2656 0.209859 16.0557 0 15.7969 0H13.2188C12.4434 0 11.8125 0.630843 11.8125 1.40625V4.51002C10.6072 4.2644 9.36701 4.24682 8.11713 4.45973C4.03897 5.15244 0.800568 8.46434 0.138506 12.4824C-0.876804 18.6348 3.83459 23.9997 9.8434 24C9.84354 24 9.84372 24 9.84386 24C9.8441 24 9.84429 24 9.84452 24C14.9055 23.9996 19.0442 20.1342 19.6148 15.3688C19.8234 13.6258 19.5795 11.8929 18.9087 10.3125H22.5937C23.3692 10.3125 24 9.68164 24 8.90623V1.40625C24 0.630843 23.3692 0 22.5937 0V0ZM5.42061 6.4138C5.4387 6.99669 5.51904 7.44805 5.66393 7.78067C5.95489 8.44963 6.66542 8.81516 7.23635 9.10887C7.44382 9.21561 7.74452 9.37029 7.85534 9.47319C7.71209 9.73025 7.46163 9.99603 7.21901 10.2535C6.78157 10.7177 6.32932 11.1977 6.42185 11.7693C6.52573 12.4099 7.03976 12.6664 7.41509 12.8537C7.74138 13.0165 7.87671 13.0978 7.90123 13.249C7.90343 13.2626 7.94768 13.5946 7.27587 14.7074C7.16834 14.8855 7.05893 15.0562 6.95768 15.2091C6.4121 14.1333 5.31584 12.1664 4.20978 11.3217C3.65389 10.8973 2.85622 10.5328 1.83528 10.235C2.61688 8.64673 3.88438 7.29758 5.42061 6.4138ZM9.41069 20.3927C9.25605 20.7661 9.22296 21.3721 9.23838 21.9615C8.37373 20.7881 7.49567 19.4934 7.3332 18.9564C7.14556 18.3364 7.19834 17.4157 7.26373 16.8157C8.04434 17.1707 9.17454 17.7083 9.56969 17.9931C9.76015 18.1304 9.95154 18.24 10.1367 18.346C10.6579 18.6444 10.8549 18.7861 10.8549 19.0922C10.8549 19.2169 10.802 19.2757 10.4057 19.4807C10.0557 19.6616 9.62008 19.887 9.41069 20.3927ZM1.06354 12.6349C1.14913 12.1153 1.28446 11.6023 1.46535 11.1042C2.41728 11.3734 3.16456 11.7033 3.64086 12.0669C4.82933 12.9746 6.11192 15.5932 6.39856 16.1997C6.32384 16.6828 6.12711 18.2076 6.43592 19.2279C6.6896 20.0665 8.02685 21.9177 8.84894 23.0068C3.78912 22.4404 0.218381 17.7564 1.06354 12.6349ZM10.2567 23.0531C10.1648 22.2077 10.1218 21.1259 10.2768 20.7513C10.3499 20.575 10.537 20.4682 10.8363 20.3134C11.2171 20.1165 11.7924 19.8189 11.7924 19.0922C11.7924 18.2137 11.1327 17.836 10.6026 17.5324C10.4384 17.4384 10.2686 17.3411 10.1178 17.2326C9.6154 16.8705 8.33604 16.2713 7.59785 15.9374C7.73838 15.7317 7.90741 15.4751 8.07462 15.1984C8.84702 13.9207 8.87369 13.388 8.82663 13.0987C8.72276 12.4585 8.20891 12.2021 7.83368 12.0149C7.5072 11.852 7.37178 11.7706 7.34745 11.621C7.34332 11.4887 7.70627 11.1034 7.90127 10.8965C8.18801 10.5922 8.51309 10.2473 8.71207 9.85901C8.80394 9.67995 8.96543 9.21617 8.48191 8.77812C8.27079 8.58683 7.97665 8.43547 7.66521 8.2753C7.20396 8.03797 6.68117 7.769 6.52353 7.40661C6.44989 7.23753 6.33725 6.8308 6.35642 5.9473C6.97385 5.68471 7.61763 5.49552 8.27431 5.38396C9.47421 5.17963 10.6625 5.20893 11.8125 5.46908V8.90623C11.8125 9.68164 12.4433 10.312 13.2187 10.312H13.8596C13.54 11.0974 13.6779 11.6337 13.884 11.967C14.0666 12.2625 13.9842 12.5756 13.8346 13.062C13.6714 13.5928 13.4682 14.2535 13.884 14.9262C14.2972 15.5948 14.9901 15.7497 15.6015 15.8865C16.1014 15.9984 16.5736 16.104 16.8877 16.4661C17.0342 16.6353 17.3295 17.1025 17.6998 18.347C16.2504 21.0345 13.4412 22.911 10.2567 23.0531ZM18.684 15.2574C18.6095 15.8795 18.4677 16.4885 18.2612 17.0784C18.0448 16.5212 17.8247 16.1159 17.5961 15.852C17.0795 15.2565 16.4031 15.1052 15.8062 14.9717C15.2364 14.8442 14.8772 14.75 14.6815 14.4333C14.4987 14.1375 14.5811 13.8242 14.7308 13.3376C14.894 12.8069 15.0971 12.1465 14.6815 11.474C14.5328 11.2336 14.6141 10.817 14.9027 10.3125H15.8371L17.5748 12.0502C17.7089 12.1843 17.9105 12.2243 18.0856 12.1518C18.2608 12.0792 18.375 11.9083 18.375 11.7187V11.5914C18.7267 12.7644 18.8336 14.0077 18.684 15.2574Z" fill="black"/>
</svg>
