<svg xmlns="http://www.w3.org/2000/svg" width="24" height="24" viewBox="0 0 24 24" fill="none"><rect width="24" height="24" fill="none"/>
<path d="M15.3684 3.5625C14.4584 3.5625 13.718 4.30286 13.718 5.2129V6.77972C13.718 7.59046 14.3776 8.25004 15.1883 8.25004C15.4759 8.25004 15.8688 8.13465 16.1091 7.81086C16.2631 7.60324 16.4088 7.22999 16.2275 6.63128C16.1479 6.36737 16.1459 6.10787 16.2218 5.88057L16.4805 5.10458C16.7333 4.34485 16.1689 3.5625 15.3684 3.5625ZM15.7392 4.85775L15.4808 5.63326C15.3534 6.0144 15.353 6.43756 15.4797 6.85737C15.5477 7.0821 15.5485 7.25538 15.4817 7.34531C15.4069 7.44613 15.2407 7.46882 15.1883 7.46882C14.8084 7.46882 14.4993 7.15968 14.4993 6.77975V5.2129C14.4993 4.73364 14.8892 4.34376 15.3684 4.34376C15.6356 4.34376 15.8234 4.60497 15.7392 4.85775Z" fill="black"/>
<path d="M17.2647 8.59211C17.505 8.9159 17.8979 9.03129 18.1854 9.03129C18.9962 9.03129 19.6557 8.37171 19.6557 7.56097V5.99415C19.6557 5.08411 18.9154 4.34375 18.0053 4.34375C17.2047 4.34375 16.6405 5.1261 16.8933 5.88603L17.152 6.66213C17.2279 6.88912 17.2259 7.14862 17.1463 7.41225C16.965 8.01124 17.1106 8.38449 17.2647 8.59211ZM18.0053 5.12501C18.4846 5.12501 18.8745 5.51489 18.8745 5.99415V7.56097C18.8745 7.94093 18.5654 8.25003 18.1854 8.25003C18.1331 8.25003 17.9669 8.22734 17.8921 8.12652C17.8253 8.03659 17.826 7.86331 17.8941 7.63827C18.0207 7.21877 18.0203 6.79557 17.8931 6.41474L17.6346 5.63911C17.5503 5.38591 17.7384 5.12501 18.0053 5.12501Z" fill="black"/>
<path d="M16.9211 2.78126C17.1369 2.78126 17.3118 2.60637 17.3118 2.39063C17.3118 2.17489 17.1369 2 16.9211 2C16.7054 2 16.5305 2.17489 16.5305 2.39063C16.5305 2.60637 16.7054 2.78126 16.9211 2.78126Z" fill="black"/>
<path d="M20.8281 2H18.6797C18.464 2 18.289 2.17488 18.289 2.39063C18.289 2.60637 18.464 2.78126 18.6797 2.78126H20.8281C21.0435 2.78126 21.2187 2.95649 21.2187 3.17188V9.42194C21.2187 9.63733 21.0435 9.81257 20.8281 9.81257H16.9218C16.7061 9.81257 16.5312 9.98745 16.5312 10.2032V10.8227L15.6355 9.92698C15.5623 9.85374 15.4629 9.81257 15.3593 9.81257H13.0155C12.8002 9.81257 12.6249 9.63733 12.6249 9.42194V3.17188C12.6249 2.95649 12.8002 2.78126 13.0155 2.78126H15.164C15.3797 2.78126 15.5546 2.60637 15.5546 2.39063C15.5546 2.17488 15.3797 2 15.164 2H13.0155C12.3694 2 11.8437 2.52571 11.8437 3.17188V5.75839C10.8392 5.5537 9.80572 5.53905 8.76414 5.71648C5.36564 6.29375 2.66694 9.05369 2.11522 12.4021C1.26912 17.5292 5.19532 22 10.2027 22.0002C10.2028 22.0002 10.203 22.0002 10.2031 22.0002C10.2033 22.0002 10.2035 22.0002 10.2036 22.0002C14.4212 21.9999 17.8702 18.7787 18.3456 14.8075C18.5195 13.355 18.3162 11.9108 17.7572 10.5938H20.8281C21.4743 10.5938 22 10.0681 22 9.42194V3.17188C22 2.52571 21.4743 2 20.8281 2V2ZM6.51702 7.34489C6.53209 7.83064 6.59905 8.20677 6.71979 8.48396C6.96225 9.04143 7.55437 9.34604 8.03015 9.59081C8.20305 9.67975 8.45363 9.80866 8.54598 9.8944C8.4266 10.1086 8.21789 10.3301 8.0157 10.5447C7.65117 10.9315 7.27429 11.3315 7.3514 11.8079C7.43796 12.3417 7.86632 12.5554 8.1791 12.7115C8.45102 12.8472 8.56379 12.9149 8.58422 13.0409C8.58606 13.0522 8.62293 13.329 8.06308 14.2563C7.97347 14.4047 7.8823 14.547 7.79793 14.6744C7.34327 13.7779 6.42971 12.1388 5.50798 11.4348C5.04474 11.0812 4.38001 10.7775 3.52922 10.5293C4.18055 9.20569 5.23681 8.08138 6.51702 7.34489ZM9.84212 18.9941C9.71325 19.3053 9.68568 19.8102 9.69853 20.3014C8.97797 19.3236 8.24625 18.2446 8.11086 17.7971C7.95449 17.2805 7.99847 16.5132 8.05297 16.0132C8.70348 16.309 9.64532 16.757 9.97462 16.9944C10.1333 17.1088 10.2928 17.2002 10.4471 17.2885C10.8815 17.5372 11.0456 17.6552 11.0456 17.9103C11.0456 18.0143 11.0015 18.0632 10.6713 18.2341C10.3796 18.3849 10.0166 18.5726 9.84212 18.9941ZM2.88609 12.5292C2.95741 12.0962 3.07019 11.6687 3.22093 11.2536C4.01422 11.4779 4.63696 11.7529 5.03388 12.0559C6.02428 12.8123 7.09311 14.9945 7.33198 15.4999C7.26972 15.9025 7.10577 17.1731 7.36312 18.0234C7.57452 18.7223 8.68891 20.2649 9.37399 21.1725C5.15743 20.7005 2.18178 16.7972 2.88609 12.5292ZM10.5471 21.2111C10.4706 20.5066 10.4347 19.6051 10.5639 19.293C10.6248 19.146 10.7807 19.057 11.0302 18.928C11.3474 18.7639 11.8269 18.5159 11.8269 17.9103C11.8269 17.1783 11.2771 16.8634 10.8354 16.6105C10.6985 16.5322 10.557 16.4511 10.4314 16.3606C10.0127 16.0589 8.94657 15.5595 8.33141 15.2813C8.44852 15.1099 8.58938 14.896 8.72871 14.6655C9.37239 13.6007 9.39462 13.1568 9.3554 12.9157C9.26884 12.3822 8.84063 12.1686 8.52793 12.0125C8.25586 11.8768 8.14301 11.809 8.12273 11.6843C8.1193 11.574 8.42176 11.253 8.58426 11.0805C8.82321 10.8269 9.09411 10.5395 9.25993 10.2159C9.33649 10.0667 9.47107 9.68022 9.06813 9.31518C8.89219 9.15576 8.64707 9.02963 8.38754 8.89615C8.00316 8.69838 7.56749 8.47423 7.43613 8.17224C7.37476 8.03134 7.28089 7.69239 7.29687 6.95614C7.8114 6.73731 8.34789 6.57965 8.89512 6.48668C9.89505 6.3164 10.8853 6.34082 11.8436 6.55762V9.42194C11.8436 10.0681 12.3693 10.5934 13.0155 10.5934H13.5496C13.2833 11.2479 13.3981 11.6948 13.5699 11.9726C13.7221 12.2188 13.6534 12.4798 13.5288 12.8851C13.3927 13.3275 13.2234 13.8781 13.5699 14.4387C13.9142 14.9958 14.4917 15.1249 15.0012 15.2389C15.4178 15.3321 15.8113 15.4201 16.073 15.7219C16.1951 15.8629 16.4412 16.2522 16.7498 17.2893C15.5419 19.5289 13.2009 21.0927 10.5471 21.2111ZM17.5699 14.7146C17.5079 15.233 17.3897 15.7405 17.2176 16.2322C17.0373 15.7678 16.8539 15.43 16.6634 15.2102C16.2329 14.7139 15.6692 14.5878 15.1717 14.4765C14.6969 14.3703 14.3976 14.2918 14.2345 14.0279C14.0822 13.7814 14.1508 13.5203 14.2756 13.1148C14.4116 12.6726 14.5808 12.1222 14.2345 11.5618C14.1106 11.3614 14.1784 11.0143 14.4188 10.5938H15.1975L16.6456 12.0419C16.7574 12.1537 16.9253 12.187 17.0713 12.1266C17.2173 12.0661 17.3125 11.9237 17.3125 11.7657V11.6596C17.6055 12.6371 17.6946 13.6732 17.5699 14.7146Z" fill="black"/>
</svg>
