<svg xmlns="http://www.w3.org/2000/svg" width="16" height="16" viewBox="0 0 16 16" fill="none"><rect width="16" height="16" fill="none"/>
<path d="M10.2455 2.375C9.63884 2.375 9.14526 2.86857 9.14526 3.47527V4.51981C9.14526 5.06031 9.58498 5.50003 10.1255 5.50003C10.3172 5.50003 10.5791 5.4231 10.7393 5.20724C10.842 5.06883 10.9391 4.81999 10.8183 4.42085C10.7652 4.24491 10.7638 4.07192 10.8145 3.92038L10.9869 3.40306C11.1555 2.89657 10.7792 2.375 10.2455 2.375V2.375ZM10.4927 3.2385L10.3204 3.75551C10.2355 4.0096 10.2352 4.29171 10.3197 4.57158C10.3651 4.7214 10.3656 4.83692 10.3211 4.89687C10.2712 4.96408 10.1604 4.97922 10.1255 4.97922C9.87217 4.97922 9.6661 4.77312 9.6661 4.51984V3.47527C9.6661 3.15576 9.92603 2.89584 10.2455 2.89584C10.4237 2.89584 10.5489 3.06998 10.4927 3.2385Z" fill="black"/>
<path d="M11.5097 5.72811C11.6699 5.94397 11.9318 6.0209 12.1235 6.0209C12.664 6.0209 13.1037 5.58118 13.1037 5.04068V3.99614C13.1037 3.38945 12.6102 2.89587 12.0035 2.89587C11.4697 2.89587 11.0936 3.41744 11.2621 3.92406L11.4346 4.44146C11.4852 4.59279 11.4838 4.76579 11.4308 4.94154C11.3099 5.34087 11.407 5.5897 11.5097 5.72811V5.72811ZM12.0035 3.41671C12.323 3.41671 12.5829 3.67664 12.5829 3.99614V5.04068C12.5829 5.29399 12.3768 5.50006 12.1235 5.50006C12.0886 5.50006 11.9778 5.48493 11.928 5.41772C11.8835 5.35777 11.8839 5.24225 11.9293 5.09222C12.0137 4.81256 12.0135 4.53042 11.9287 4.27654L11.7563 3.75945C11.7001 3.59065 11.8255 3.41671 12.0035 3.41671Z" fill="black"/>
<path d="M11.2807 1.85421C11.4245 1.85421 11.5411 1.73762 11.5411 1.59379C11.5411 1.44997 11.4245 1.33337 11.2807 1.33337C11.1369 1.33337 11.0203 1.44997 11.0203 1.59379C11.0203 1.73762 11.1369 1.85421 11.2807 1.85421Z" fill="black"/>
<path d="M13.8853 1.33337H12.453C12.3092 1.33337 12.1926 1.44996 12.1926 1.59379C12.1926 1.73762 12.3092 1.85421 12.453 1.85421H13.8853C14.0289 1.85421 14.1457 1.97104 14.1457 2.11463V6.28133C14.1457 6.42493 14.0289 6.54175 13.8853 6.54175H11.2811C11.1373 6.54175 11.0207 6.65834 11.0207 6.80217V7.21514L10.4236 6.61803C10.3748 6.5692 10.3085 6.54175 10.2395 6.54175H8.67695C8.53336 6.54175 8.41653 6.42493 8.41653 6.28133V2.11463C8.41653 1.97104 8.53336 1.85421 8.67695 1.85421H10.1093C10.2531 1.85421 10.3697 1.73762 10.3697 1.59379C10.3697 1.44996 10.2531 1.33337 10.1093 1.33337H8.67695C8.24617 1.33337 7.89569 1.68385 7.89569 2.11463V3.83897C7.22608 3.70251 6.53706 3.69274 5.84268 3.81103C3.57701 4.19587 1.77788 6.03584 1.41007 8.26812C0.845998 11.6862 3.46347 14.6667 6.80173 14.6668C6.80181 14.6668 6.80191 14.6668 6.80199 14.6668C6.80212 14.6668 6.80222 14.6668 6.80235 14.6668C9.61404 14.6666 11.9134 12.5191 12.2303 9.8717C12.3463 8.90336 12.2107 7.94059 11.838 7.06259H13.8853C14.3161 7.06259 14.6666 6.71212 14.6666 6.28133V2.11463C14.6666 1.68385 14.3161 1.33337 13.8853 1.33337V1.33337ZM4.3446 4.89663C4.35465 5.22046 4.39928 5.47122 4.47978 5.65602C4.64142 6.02766 5.03616 6.23073 5.35335 6.39391C5.46862 6.45321 5.63567 6.53915 5.69724 6.59631C5.61765 6.73912 5.47851 6.88678 5.34372 7.02983C5.1007 7.2877 4.84944 7.55436 4.90085 7.87195C4.95856 8.22783 5.24414 8.37033 5.45265 8.47437C5.63393 8.56482 5.70911 8.61 5.72273 8.69398C5.72396 8.70154 5.74854 8.88602 5.37531 9.50422C5.31557 9.60316 5.25479 9.69803 5.19854 9.78295C4.89543 9.18529 4.28639 8.09257 3.67191 7.62327C3.36308 7.38749 2.91992 7.18501 2.35273 7.01957C2.78695 6.13717 3.49113 5.38763 4.3446 4.89663V4.89663ZM6.56133 12.6628C6.47542 12.8702 6.45704 13.2069 6.4656 13.5343C5.98524 12.8825 5.49742 12.1631 5.40716 11.8648C5.30291 11.5204 5.33223 11.0089 5.36856 10.6755C5.80224 10.8727 6.43013 11.1714 6.64967 11.3297C6.75548 11.4059 6.86181 11.4668 6.96467 11.5257C7.25426 11.6915 7.36366 11.7702 7.36366 11.9403C7.36366 12.0096 7.33428 12.0422 7.1141 12.1561C6.91967 12.2566 6.67766 12.3818 6.56133 12.6628ZM1.92398 8.35286C1.97153 8.06416 2.04671 7.77916 2.14721 7.50244C2.67607 7.65197 3.09123 7.83528 3.35584 8.03729C4.0161 8.54156 4.72866 9.99636 4.88791 10.3333C4.8464 10.6017 4.7371 11.4488 4.90866 12.0157C5.0496 12.4815 5.79253 13.51 6.24925 14.1151C3.43821 13.8004 1.45444 11.1981 1.92398 8.35286ZM7.03134 14.1408C6.9803 13.6711 6.95639 13.0701 7.04254 12.862C7.08311 12.764 7.18704 12.7047 7.35337 12.6187C7.56488 12.5093 7.88452 12.344 7.88452 11.9403C7.88452 11.4522 7.51801 11.2423 7.2235 11.0737C7.13228 11.0215 7.03793 10.9674 6.9542 10.9071C6.67506 10.706 5.9643 10.3731 5.55419 10.1876C5.63226 10.0733 5.72617 9.93074 5.81906 9.77701C6.24818 9.06716 6.263 8.77122 6.23685 8.61052C6.17914 8.25484 5.89367 8.11242 5.68521 8.00838C5.50382 7.91788 5.42859 7.87267 5.41507 7.78957C5.41278 7.71603 5.61442 7.50202 5.72276 7.38707C5.88206 7.21798 6.06266 7.02637 6.17321 6.81066C6.22425 6.71118 6.31396 6.45352 6.04534 6.21016C5.92805 6.10388 5.76463 6.01979 5.59161 5.93081C5.33536 5.79896 5.04491 5.64953 4.95734 5.4482C4.91642 5.35427 4.85385 5.1283 4.8645 4.63746C5.20752 4.49158 5.56518 4.38647 5.93 4.32449C6.59662 4.21098 7.25681 4.22725 7.89567 4.37179V6.28133C7.89567 6.71212 8.24614 7.06233 8.67693 7.06233H9.033C8.85544 7.49866 8.93201 7.79661 9.04654 7.98179C9.148 8.14593 9.10221 8.31989 9.01909 8.5901C8.92841 8.88503 8.81552 9.25209 9.04654 9.62581C9.27607 9.99722 9.66105 10.0833 10.0007 10.1593C10.2784 10.2214 10.5408 10.2801 10.7153 10.4813C10.7967 10.5753 10.9607 10.8349 11.1665 11.5262C10.3612 13.0193 8.80055 14.0618 7.03134 14.1408V14.1408ZM11.7132 9.80977C11.6718 10.1554 11.593 10.4937 11.4783 10.8215C11.3581 10.5119 11.2358 10.2867 11.1088 10.1401C10.8218 9.80931 10.446 9.72522 10.1144 9.65105C9.79787 9.58024 9.59834 9.5279 9.48961 9.35198C9.38803 9.18763 9.43381 9.01357 9.51696 8.74323C9.60764 8.44841 9.72048 8.0815 9.48959 7.70791C9.40696 7.57431 9.45217 7.3429 9.61248 7.06259H10.1316L11.097 8.02799C11.1715 8.10249 11.2835 8.12473 11.3808 8.08442C11.4781 8.04411 11.5416 7.94916 11.5416 7.84382V7.77312C11.7369 8.42479 11.7963 9.1155 11.7132 9.80977V9.80977Z" fill="black"/>
</svg>
