<svg xmlns="http://www.w3.org/2000/svg" width="17" height="17" viewBox="0 0 17 17" fill="none"><rect width="17" height="17" fill="none"/>
<path d="M10.2573 2.38171C9.65055 2.38171 9.15698 2.87529 9.15698 3.48198V4.52652C9.15698 5.06702 9.5967 5.50674 10.1372 5.50674C10.3289 5.50674 10.5908 5.42981 10.751 5.21395C10.8537 5.07554 10.9508 4.82671 10.83 4.42756C10.7769 4.25163 10.7755 4.07863 10.8262 3.92709L10.9986 3.40977C11.1672 2.90328 10.7909 2.38171 10.2573 2.38171ZM10.5045 3.24521L10.3321 3.76222C10.2472 4.01631 10.247 4.29842 10.3314 4.5783C10.3768 4.72811 10.3773 4.84364 10.3328 4.90358C10.2829 4.9708 10.1721 4.98593 10.1372 4.98593C9.88389 4.98593 9.67782 4.77983 9.67782 4.52655V3.48198C9.67782 3.16248 9.93774 2.90255 10.2573 2.90255C10.4354 2.90255 10.5606 3.07669 10.5045 3.24521Z" fill="black"/>
<path d="M11.5214 5.73477C11.6816 5.95063 11.9436 6.02755 12.1352 6.02755C12.6757 6.02755 13.1155 5.58784 13.1155 5.04734V4.0028C13.1155 3.3961 12.6219 2.90253 12.0152 2.90253C11.4814 2.90253 11.1053 3.42409 11.2738 3.93071L11.4463 4.44811C11.4969 4.59944 11.4956 4.77244 11.4425 4.9482C11.3216 5.34752 11.4187 5.59635 11.5214 5.73477ZM12.0152 3.42336C12.3347 3.42336 12.5946 3.68329 12.5946 4.0028V5.04734C12.5946 5.30065 12.3886 5.50672 12.1352 5.50672C12.1004 5.50672 11.9895 5.49159 11.9397 5.42437C11.8952 5.36442 11.8957 5.2489 11.9411 5.09887C12.0255 4.81921 12.0252 4.53707 11.9404 4.28319L11.768 3.7661C11.7118 3.5973 11.8372 3.42336 12.0152 3.42336Z" fill="black"/>
<path d="M11.2924 1.86086C11.4362 1.86086 11.5528 1.74427 11.5528 1.60045C11.5528 1.45662 11.4362 1.34003 11.2924 1.34003C11.1486 1.34003 11.032 1.45662 11.032 1.60045C11.032 1.74427 11.1486 1.86086 11.2924 1.86086Z" fill="black"/>
<path d="M13.897 1.34003H12.4647C12.3209 1.34003 12.2043 1.45662 12.2043 1.60045C12.2043 1.74428 12.3209 1.86086 12.4647 1.86086H13.897C14.0406 1.86086 14.1575 1.97769 14.1575 2.12128V6.28799C14.1575 6.43158 14.0406 6.5484 13.897 6.5484H11.2929C11.1491 6.5484 11.0324 6.66499 11.0324 6.80882V7.2218L10.4353 6.62468C10.3865 6.57585 10.3202 6.5484 10.2512 6.5484H8.68867C8.54507 6.5484 8.42825 6.43158 8.42825 6.28799V2.12128C8.42825 1.97769 8.54507 1.86086 8.68867 1.86086H10.121C10.2648 1.86086 10.3814 1.74428 10.3814 1.60045C10.3814 1.45662 10.2648 1.34003 10.121 1.34003H8.68867C8.25788 1.34003 7.90741 1.6905 7.90741 2.12128V3.84562C7.2378 3.70916 6.54878 3.6994 5.8544 3.81768C3.58873 4.20253 1.7896 6.04249 1.42178 8.27477C0.857717 11.6928 3.47519 14.6733 6.81345 14.6735C6.81352 14.6735 6.81363 14.6735 6.81371 14.6735C6.81384 14.6735 6.81394 14.6735 6.81407 14.6735C9.62576 14.6733 11.9251 12.5258 12.242 9.87835C12.358 8.91001 12.2225 7.94724 11.8498 7.06924H13.897C14.3278 7.06924 14.6783 6.71877 14.6783 6.28799V2.12128C14.6783 1.6905 14.3278 1.34003 13.897 1.34003V1.34003ZM4.35631 4.90329C4.36637 5.22712 4.411 5.47787 4.4915 5.66267C4.65314 6.03431 5.04788 6.23739 5.36507 6.40056C5.48033 6.45986 5.64739 6.5458 5.70896 6.60296C5.62937 6.74578 5.49023 6.89343 5.35544 7.03648C5.11242 7.29435 4.86116 7.56102 4.91257 7.8786C4.97028 8.23449 5.25585 8.37699 5.46437 8.48103C5.64565 8.57147 5.72083 8.61665 5.73445 8.70064C5.73568 8.70819 5.76026 8.89267 5.38703 9.51088C5.32729 9.60981 5.2665 9.70468 5.21025 9.7896C4.90715 9.19194 4.29811 8.09923 3.68363 7.62992C3.3748 7.39414 2.93164 7.19167 2.36445 7.02622C2.79867 6.14382 3.50284 5.39428 4.35631 4.90329ZM6.57305 12.6694C6.48714 12.8769 6.46875 13.2135 6.47732 13.541C5.99695 12.8891 5.50914 12.1698 5.41888 11.8714C5.31463 11.527 5.34395 11.0155 5.38028 10.6822C5.81396 10.8794 6.44185 11.1781 6.66139 11.3363C6.7672 11.4126 6.87352 11.4735 6.97639 11.5324C7.26598 11.6982 7.37538 11.7769 7.37538 11.9469C7.37538 12.0162 7.346 12.0488 7.12582 12.1627C6.93139 12.2633 6.68938 12.3885 6.57305 12.6694ZM1.93569 8.35951C1.98325 8.07081 2.05843 7.78581 2.15893 7.50909C2.68778 7.65862 3.10294 7.84193 3.36756 8.04394C4.02782 8.54821 4.74038 10.003 4.89963 10.34C4.85812 10.6083 4.74882 11.4555 4.92038 12.0223C5.06132 12.4882 5.80424 13.5166 6.26097 14.1217C3.44993 13.8071 1.46616 11.2048 1.93569 8.35951ZM7.04306 14.1475C6.99201 13.6778 6.96811 13.0767 7.05426 12.8687C7.09483 12.7707 7.19876 12.7114 7.36509 12.6254C7.5766 12.516 7.89624 12.3506 7.89624 11.9469C7.89624 11.4589 7.52973 11.249 7.23522 11.0804C7.144 11.0281 7.04965 10.9741 6.96592 10.9138C6.68678 10.7126 5.97602 10.3797 5.56591 10.1942C5.64398 10.08 5.73789 9.93739 5.83078 9.78367C6.2599 9.07382 6.27472 8.77788 6.24857 8.61717C6.19086 8.26149 5.90539 8.11907 5.69693 8.01503C5.51554 7.92454 5.44031 7.87933 5.42679 7.79623C5.4245 7.72269 5.62614 7.50867 5.73448 7.39372C5.89378 7.22463 6.07438 7.03302 6.18492 6.81731C6.23597 6.71783 6.32568 6.46017 6.05706 6.21681C5.93977 6.11054 5.77635 6.02645 5.60333 5.93746C5.34708 5.80561 5.05663 5.65618 4.96905 5.45485C4.92814 5.36092 4.86556 5.13495 4.87621 4.64412C5.21924 4.49823 5.5769 4.39313 5.94172 4.33115C6.60834 4.21763 7.26853 4.23391 7.90739 4.37844V6.28799C7.90739 6.71877 8.25786 7.06898 8.68864 7.06898H9.04471C8.86716 7.50531 8.94372 7.80326 9.05826 7.98844C9.15972 8.15258 9.11393 8.32654 9.03081 8.59676C8.94013 8.89168 8.82724 9.25874 9.05826 9.63247C9.28779 10.0039 9.67277 10.09 10.0124 10.166C10.2901 10.2281 10.5525 10.2868 10.727 10.488C10.8084 10.5819 10.9724 10.8415 11.1782 11.5329C10.3729 13.026 8.81226 14.0685 7.04306 14.1475ZM11.7249 9.81643C11.6835 10.1621 11.6048 10.5004 11.49 10.8281C11.3698 10.5186 11.2475 10.2934 11.1206 10.1468C10.8336 9.81596 10.4577 9.73187 10.1261 9.6577C9.80959 9.58689 9.61006 9.53455 9.50133 9.35864C9.39974 9.19429 9.44553 9.02022 9.52868 8.74988C9.61936 8.45506 9.73219 8.08816 9.50131 7.71456C9.41868 7.58097 9.46388 7.34956 9.6242 7.06924H10.1433L11.1087 8.03464C11.1832 8.10915 11.2952 8.13139 11.3925 8.09107C11.4898 8.05076 11.5533 7.95581 11.5533 7.85047V7.77977C11.7486 8.43144 11.808 9.12215 11.7249 9.81643Z" fill="black"/>
</svg>
