<svg xmlns="http://www.w3.org/2000/svg" width="24" height="24" viewBox="0 0 24 24" fill="none"><rect width="24" height="24" fill="none"/>
<path d="M15.3694 3.5625C14.4594 3.5625 13.719 4.30286 13.719 5.2129V6.77972C13.719 7.59046 14.3786 8.25004 15.1893 8.25004C15.4769 8.25004 15.8698 8.13465 16.11 7.81086C16.2641 7.60324 16.4098 7.22999 16.2285 6.63128C16.1489 6.36737 16.1468 6.10787 16.2228 5.88057L16.4814 5.10458C16.7343 4.34485 16.1699 3.5625 15.3694 3.5625V3.5625ZM15.7402 4.85775L15.4817 5.63326C15.3544 6.0144 15.354 6.43756 15.4807 6.85737C15.5487 7.0821 15.5494 7.25538 15.4827 7.34531C15.4079 7.44613 15.2417 7.46882 15.1893 7.46882C14.8094 7.46882 14.5003 7.15968 14.5003 6.77975V5.2129C14.5003 4.73364 14.8901 4.34376 15.3694 4.34376C15.6366 4.34376 15.8244 4.60497 15.7402 4.85775Z" fill="black"/>
<path d="M17.2657 8.59211C17.506 8.9159 17.8989 9.03129 18.1864 9.03129C18.9971 9.03129 19.6567 8.37171 19.6567 7.56097V5.99415C19.6567 5.08411 18.9164 4.34375 18.0063 4.34375C17.2057 4.34375 16.6415 5.1261 16.8943 5.88603L17.153 6.66213C17.2288 6.88912 17.2269 7.14862 17.1473 7.41225C16.966 8.01124 17.1116 8.38449 17.2657 8.59211V8.59211ZM18.0063 5.12501C18.4856 5.12501 18.8755 5.51489 18.8755 5.99415V7.56097C18.8755 7.94093 18.5664 8.25003 18.1864 8.25003C18.1341 8.25003 17.9678 8.22734 17.893 8.12652C17.8263 8.03659 17.827 7.86331 17.8951 7.63827C18.0217 7.21877 18.0213 6.79557 17.8941 6.41474L17.6355 5.63911C17.5512 5.38591 17.7394 5.12501 18.0063 5.12501Z" fill="black"/>
<path d="M16.9221 2.78126C17.1379 2.78126 17.3128 2.60637 17.3128 2.39063C17.3128 2.17489 17.1379 2 16.9221 2C16.7064 2 16.5315 2.17489 16.5315 2.39063C16.5315 2.60637 16.7064 2.78126 16.9221 2.78126Z" fill="black"/>
<path d="M20.8291 2H18.6806C18.4649 2 18.29 2.17488 18.29 2.39063C18.29 2.60637 18.4649 2.78126 18.6806 2.78126H20.8291C21.0445 2.78126 21.2197 2.95649 21.2197 3.17188V9.42194C21.2197 9.63733 21.0445 9.81257 20.8291 9.81257H16.9228C16.7071 9.81257 16.5322 9.98745 16.5322 10.2032V10.8227L15.6365 9.92698C15.5632 9.85374 15.4639 9.81257 15.3603 9.81257H13.0165C12.8011 9.81257 12.6259 9.63733 12.6259 9.42194V3.17188C12.6259 2.95649 12.8011 2.78126 13.0165 2.78126H15.165C15.3807 2.78126 15.5556 2.60637 15.5556 2.39063C15.5556 2.17488 15.3807 2 15.165 2H13.0165C12.3703 2 11.8446 2.52571 11.8446 3.17188V5.75839C10.8402 5.5537 9.80669 5.53905 8.76512 5.71648C5.36662 6.29375 2.66792 9.05369 2.1162 12.4021C1.2701 17.5292 5.1963 22 10.2037 22.0002C10.2038 22.0002 10.204 22.0002 10.2041 22.0002C10.2043 22.0002 10.2044 22.0002 10.2046 22.0002C14.4222 21.9999 17.8711 18.7787 18.3466 14.8075C18.5205 13.355 18.3172 11.9108 17.7582 10.5938H20.8291C21.4753 10.5938 22.001 10.0681 22.001 9.42194V3.17188C22.001 2.52571 21.4753 2 20.8291 2V2ZM6.51799 7.34489C6.53307 7.83064 6.60002 8.20677 6.72077 8.48396C6.96323 9.04143 7.55535 9.34604 8.03113 9.59081C8.20402 9.67975 8.45461 9.80866 8.54696 9.8944C8.42758 10.1086 8.21887 10.3301 8.01668 10.5447C7.65214 10.9315 7.27526 11.3315 7.35237 11.8079C7.43894 12.3417 7.8673 12.5554 8.18008 12.7115C8.45199 12.8472 8.56477 12.9149 8.5852 13.0409C8.58703 13.0522 8.62391 13.329 8.06406 14.2563C7.97445 14.4047 7.88328 14.547 7.7989 14.6744C7.34425 13.7779 6.43069 12.1388 5.50896 11.4348C5.04571 11.0812 4.38098 10.7775 3.53019 10.5293C4.18153 9.20569 5.23779 8.08138 6.51799 7.34489V7.34489ZM9.8431 18.9941C9.71423 19.3053 9.68665 19.8102 9.6995 20.3014C8.97895 19.3236 8.24723 18.2446 8.11183 17.7971C7.95547 17.2805 7.99945 16.5132 8.05394 16.0132C8.70446 16.309 9.6463 16.757 9.9756 16.9944C10.1343 17.1088 10.2938 17.2002 10.4481 17.2885C10.8825 17.5372 11.0466 17.6552 11.0466 17.9103C11.0466 18.0143 11.0025 18.0632 10.6722 18.2341C10.3806 18.3849 10.0176 18.5726 9.8431 18.9941ZM2.88706 12.5292C2.95839 12.0962 3.07117 11.6687 3.22191 11.2536C4.0152 11.4779 4.63794 11.7529 5.03485 12.0559C6.02525 12.8123 7.09409 14.9945 7.33296 15.4999C7.27069 15.9025 7.10675 17.1731 7.36409 18.0234C7.5755 18.7223 8.68989 20.2649 9.37497 21.1725C5.15841 20.7005 2.18276 16.7972 2.88706 12.5292ZM10.5481 21.2111C10.4715 20.5066 10.4357 19.6051 10.5649 19.293C10.6258 19.146 10.7817 19.057 11.0312 18.928C11.3484 18.7639 11.8279 18.5159 11.8279 17.9103C11.8279 17.1783 11.2781 16.8634 10.8364 16.6105C10.6995 16.5322 10.558 16.4511 10.4324 16.3606C10.0137 16.0589 8.94755 15.5595 8.33238 15.2813C8.44949 15.1099 8.59035 14.896 8.72969 14.6655C9.37337 13.6007 9.3956 13.1568 9.35638 12.9157C9.26981 12.3822 8.84161 12.1686 8.52891 12.0125C8.25684 11.8768 8.14398 11.809 8.12371 11.6843C8.12027 11.574 8.42274 11.253 8.58524 11.0805C8.82418 10.8269 9.09509 10.5395 9.26091 10.2159C9.33747 10.0667 9.47204 9.68022 9.06911 9.31518C8.89317 9.15576 8.64805 9.02963 8.38852 8.89615C8.00414 8.69838 7.56847 8.47423 7.4371 8.17224C7.37573 8.03134 7.28187 7.69239 7.29784 6.95614C7.81238 6.73731 8.34887 6.57965 8.8961 6.48668C9.89603 6.3164 10.8863 6.34082 11.8446 6.55762V9.42194C11.8446 10.0681 12.3703 10.5934 13.0165 10.5934H13.5506C13.2843 11.2479 13.3991 11.6948 13.5709 11.9726C13.7231 12.2188 13.6544 12.4798 13.5297 12.8851C13.3937 13.3275 13.2244 13.8781 13.5709 14.4387C13.9152 14.9958 14.4927 15.1249 15.0021 15.2389C15.4187 15.3321 15.8123 15.4201 16.074 15.7219C16.1961 15.8629 16.4421 16.2522 16.7508 17.2893C15.5429 19.5289 13.2019 21.0927 10.5481 21.2111V21.2111ZM17.5709 14.7146C17.5088 15.233 17.3907 15.7405 17.2186 16.2322C17.0383 15.7678 16.8548 15.43 16.6644 15.2102C16.2339 14.7139 15.6701 14.5878 15.1727 14.4765C14.6979 14.3703 14.3986 14.2918 14.2355 14.0279C14.0831 13.7814 14.1518 13.5203 14.2765 13.1148C14.4126 12.6726 14.5818 12.1222 14.2355 11.5618C14.1115 11.3614 14.1793 11.0143 14.4198 10.5938H15.1985L16.6466 12.0419C16.7584 12.1537 16.9263 12.187 17.0723 12.1266C17.2182 12.0661 17.3134 11.9237 17.3134 11.7657V11.6596C17.6065 12.6371 17.6956 13.6732 17.5709 14.7146V14.7146Z" fill="black"/>
</svg>
