<svg xmlns="http://www.w3.org/2000/svg" width="17" height="17" viewBox="0 0 17 17" fill="none"><rect width="17" height="17" fill="none"/>
<path fill-rule="evenodd" clip-rule="evenodd" d="M10.2339 4.12155H13.1503C13.9947 4.12155 14.6781 4.80488 14.6781 5.64933V7.45488H11.3447V6.76044C11.3447 6.53266 11.1558 6.34377 10.9281 6.34377C10.7003 6.34377 10.5114 6.53266 10.5114 6.76044V7.45488H5.51139V6.76044C5.51139 6.53266 5.3225 6.34377 5.09473 6.34377C4.86695 6.34377 4.67806 6.53266 4.67806 6.76044V7.45488H1.34473V5.64933C1.34473 4.80488 2.02806 4.12155 2.8725 4.12155H5.78944V3.56599C5.78944 2.95322 6.28778 2.45488 6.90055 2.45488H9.12278C9.73555 2.45488 10.2339 2.95322 10.2339 3.56599V4.12155ZM9.12278 4.12155V3.56599H6.90055V4.12155H9.12278Z" fill="black"/>
<path d="M11.3447 8.79933V8.28822H14.6781V12.0382C14.6781 12.8827 13.9947 13.566 13.1503 13.566H2.8725C2.02806 13.566 1.34473 12.8827 1.34473 12.0382V8.28822H4.67806V8.79933C4.67806 9.0271 4.86695 9.21599 5.09473 9.21599C5.3225 9.21599 5.51139 9.0271 5.51139 8.79933V8.28822H10.5114V8.79933C10.5114 9.0271 10.7003 9.21599 10.9281 9.21599C11.1558 9.21599 11.3447 9.0271 11.3447 8.79933Z" fill="black"/>
</svg>
