<svg xmlns="http://www.w3.org/2000/svg" width="25" height="25" viewBox="0 0 25 25" fill="none"><rect width="25" height="25" fill="none"/>
<path fill-rule="evenodd" clip-rule="evenodd" d="M15.3386 6.16501H19.7132C20.9799 6.16501 22.0049 7.19001 22.0049 8.45668V11.165H17.0049V10.1233C17.0049 9.78168 16.7215 9.49834 16.3799 9.49834C16.0382 9.49834 15.7549 9.78168 15.7549 10.1233V11.165H8.25488V10.1233C8.25488 9.78168 7.97155 9.49834 7.62988 9.49834C7.28822 9.49834 7.00488 9.78168 7.00488 10.1233V11.165H2.00488V8.45668C2.00488 7.19001 3.02988 6.16501 4.29655 6.16501H8.67196V5.33168C8.67196 4.41251 9.41946 3.66501 10.3386 3.66501H13.672C14.5911 3.66501 15.3386 4.41251 15.3386 5.33168V6.16501ZM13.672 6.16501V5.33168H10.3386V6.16501H13.672Z" fill="black"/>
<path d="M17.0049 13.1817V12.415H22.0049V18.04C22.0049 19.3067 20.9799 20.3317 19.7132 20.3317H4.29655C3.02988 20.3317 2.00488 19.3067 2.00488 18.04V12.415H7.00488V13.1817C7.00488 13.5233 7.28822 13.8067 7.62988 13.8067C7.97155 13.8067 8.25488 13.5233 8.25488 13.1817V12.415H15.7549V13.1817C15.7549 13.5233 16.0382 13.8067 16.3799 13.8067C16.7215 13.8067 17.0049 13.5233 17.0049 13.1817Z" fill="black"/>
</svg>
