<svg xmlns="http://www.w3.org/2000/svg" width="16" height="16" viewBox="0 0 16 16" fill="none"><rect width="16" height="16" fill="none"/>
<path fill-rule="evenodd" clip-rule="evenodd" d="M10.2224 4.13336H13.1388C13.9833 4.13336 14.6666 4.81669 14.6666 5.66113V7.46669H11.3333V6.77225C11.3333 6.54447 11.1444 6.35558 10.9166 6.35558C10.6888 6.35558 10.4999 6.54447 10.4999 6.77225V7.46669H5.49992V6.77225C5.49992 6.54447 5.31103 6.35558 5.08325 6.35558C4.85547 6.35558 4.66659 6.54447 4.66659 6.77225V7.46669H1.33325V5.66113C1.33325 4.81669 2.01659 4.13336 2.86103 4.13336H5.77797V3.5778C5.77797 2.96502 6.2763 2.46669 6.88908 2.46669H9.1113C9.72408 2.46669 10.2224 2.96502 10.2224 3.5778V4.13336ZM9.1113 4.13336V3.5778H6.88908V4.13336H9.1113Z" fill="black"/>
<path d="M11.3333 8.81113V8.30002H14.6666V12.05C14.6666 12.8945 13.9833 13.5778 13.1388 13.5778H2.86103C2.01659 13.5778 1.33325 12.8945 1.33325 12.05V8.30002H4.66659V8.81113C4.66659 9.03891 4.85547 9.2278 5.08325 9.2278C5.31103 9.2278 5.49992 9.03891 5.49992 8.81113V8.30002H10.4999V8.81113C10.4999 9.03891 10.6888 9.2278 10.9166 9.2278C11.1444 9.2278 11.3333 9.03891 11.3333 8.81113Z" fill="black"/>
</svg>
