<svg xmlns="http://www.w3.org/2000/svg" width="24" height="24" viewBox="0 0 24 24" fill="none"><rect width="24" height="24" fill="none"/>
<path fill-rule="evenodd" clip-rule="evenodd" d="M15.3347 6.2H19.7093C20.976 6.2 22.001 7.225 22.001 8.49166V11.2H17.001V10.1583C17.001 9.81666 16.7176 9.53333 16.376 9.53333C16.0343 9.53333 15.751 9.81666 15.751 10.1583V11.2H8.25098V10.1583C8.25098 9.81666 7.96764 9.53333 7.62598 9.53333C7.28431 9.53333 7.00098 9.81666 7.00098 10.1583V11.2H2.00098V8.49166C2.00098 7.225 3.02598 6.2 4.29264 6.2H8.66805V5.36666C8.66805 4.4475 9.41555 3.7 10.3347 3.7H13.668C14.5872 3.7 15.3347 4.4475 15.3347 5.36666V6.2ZM13.668 6.2V5.36666H10.3347V6.2H13.668Z" fill="black"/>
<path d="M17.001 13.2167V12.45H22.001V18.075C22.001 19.3417 20.976 20.3667 19.7093 20.3667H4.29264C3.02598 20.3667 2.00098 19.3417 2.00098 18.075V12.45H7.00098V13.2167C7.00098 13.5583 7.28431 13.8417 7.62598 13.8417C7.96764 13.8417 8.25098 13.5583 8.25098 13.2167V12.45H15.751V13.2167C15.751 13.5583 16.0343 13.8417 16.376 13.8417C16.7176 13.8417 17.001 13.5583 17.001 13.2167Z" fill="black"/>
</svg>
