<svg xmlns="http://www.w3.org/2000/svg" width="24" height="24" viewBox="0 0 24 24" fill="none"><rect width="24" height="24" fill="none"/>
<path fill-rule="evenodd" clip-rule="evenodd" d="M16.0004 5H21.25C22.77 5 24 6.23 24 7.75V11H18V9.75C18 9.34 17.66 9 17.25 9C16.84 9 16.5 9.34 16.5 9.75V11H7.5V9.75C7.5 9.34 7.16 9 6.75 9C6.34 9 6 9.34 6 9.75V11H0V7.75C0 6.23 1.23 5 2.75 5H8.00042V4C8.00042 2.897 8.89742 2 10.0004 2H14.0004C15.1034 2 16.0004 2.897 16.0004 4V5ZM14.0004 5V4H10.0004V5H14.0004ZM18 13.42V12.5H24V19.25C24 20.77 22.77 22 21.25 22H2.75C1.23 22 0 20.77 0 19.25V12.5H6V13.42C6 13.83 6.34 14.17 6.75 14.17C7.16 14.17 7.5 13.83 7.5 13.42V12.5H16.5V13.42C16.5 13.83 16.84 14.17 17.25 14.17C17.66 14.17 18 13.83 18 13.42Z" fill="black"/>
</svg>
