<svg xmlns="http://www.w3.org/2000/svg" width="24" height="24" viewBox="0 0 24 24" fill="none"><rect width="24" height="24" fill="none"/>
<path fill-rule="evenodd" clip-rule="evenodd" d="M11.3724 1.05092C10.2677 1.30791 9.44029 2.05137 9.07263 3.11726C8.96847 3.41918 8.95388 3.52678 8.95293 3.99855C8.95232 4.30193 8.97553 4.62018 9.00618 4.72938C9.08895 5.0239 9.23427 5.37766 9.34579 5.55607C9.4009 5.64428 9.446 5.73615 9.446 5.76027C9.446 5.78916 8.98155 5.80412 8.08618 5.80412C6.61761 5.80412 6.35535 5.83073 5.77882 6.03841C4.58522 6.46831 3.62851 7.49082 3.30306 8.68443C3.25471 8.86176 2.83462 11.1515 2.36955 13.7727C1.60323 18.0916 1.52393 18.5842 1.52393 19.0254C1.52393 19.576 1.59583 19.9757 1.77929 20.4449C2.28609 21.741 3.41968 22.6703 4.81445 22.9331C5.12678 22.9919 5.99787 23 12.0001 23C18.0024 23 18.8735 22.9919 19.1858 22.9331C20.5806 22.6703 21.7141 21.741 22.2209 20.4449C22.4044 19.9757 22.4763 19.576 22.4763 19.0254C22.4763 18.5842 22.397 18.0916 21.6307 13.7727C21.1656 11.1515 20.7455 8.86176 20.6972 8.68443C20.3717 7.49082 19.415 6.46831 18.2214 6.03841C17.6449 5.83073 17.3826 5.80412 15.9141 5.80412C15.0187 5.80412 14.5542 5.78916 14.5542 5.76027C14.5542 5.73615 14.5993 5.64428 14.6544 5.55607C14.766 5.37766 14.9113 5.0239 14.9941 4.72938C15.0247 4.62018 15.0479 4.30193 15.0473 3.99855C15.0464 3.52678 15.0318 3.41918 14.9276 3.11726C14.5981 2.16216 13.8606 1.43194 12.9212 1.13097C12.5003 0.996064 11.7702 0.958362 11.3724 1.05092ZM12.498 2.37281C12.8416 2.45814 13.2266 2.74239 13.4489 3.07496C13.8488 3.6732 13.8395 4.42247 13.4244 5.04475C13.1836 5.40578 12.7014 5.69523 12.2365 5.75786C11.6031 5.84324 10.9099 5.54554 10.5758 5.04475C10.1599 4.4211 10.1514 3.67333 10.5534 3.07186C10.9761 2.4394 11.7074 2.17652 12.498 2.37281ZM17.3897 7.15825C18.1912 7.32479 18.8773 7.85825 19.2459 8.60133L19.4471 9.00685L20.2983 13.7572C21.0637 18.0293 21.1497 18.5574 21.1527 19.002C21.1553 19.3998 21.1372 19.5551 21.0599 19.7973C20.7379 20.8066 19.8866 21.517 18.8233 21.6639C18.3552 21.7286 5.64501 21.7286 5.17691 21.6639C4.11362 21.517 3.26232 20.8066 2.94029 19.7973C2.86302 19.5551 2.84492 19.3998 2.84756 19.002C2.85051 18.5574 2.93652 18.0293 3.70198 13.7572L4.55315 9.00685L4.75432 8.60133C5.11843 7.86732 5.80553 7.32772 6.58886 7.16066C7.01838 7.06905 16.9498 7.06685 17.3897 7.15825ZM7.76713 11.6792C7.68899 11.7175 7.58185 11.8089 7.52903 11.8824C7.43306 12.0161 7.43302 12.0171 7.42111 14.3619L7.40925 16.7077L7.50769 16.8514C7.6673 17.0842 7.81609 17.17 8.06072 17.17C8.30488 17.17 8.45414 17.0842 8.61267 16.8529C8.70488 16.7183 8.71016 16.6683 8.71163 15.9111L8.71319 15.1114L9.69648 16.1088C10.5336 16.9578 10.7059 17.1127 10.8553 17.1506C11.2793 17.2582 11.6529 16.9657 11.6535 16.5257C11.6539 16.2468 11.6293 16.2146 10.6424 15.1989L9.86912 14.403L10.1306 14.1124C10.2744 13.9525 10.5806 13.6379 10.8109 13.4133C11.0413 13.1887 11.3251 12.8926 11.4418 12.7555C11.6338 12.5296 11.6538 12.4858 11.6538 12.2912C11.6538 11.9366 11.4613 11.6833 11.1474 11.6248C10.8186 11.5635 10.7289 11.6291 9.68696 12.6919L8.71007 13.6883V12.8945C8.71007 12.2041 8.69964 12.0813 8.62981 11.951C8.47228 11.657 8.0709 11.5306 7.76713 11.6792ZM14.0034 11.6739C13.2799 11.8674 12.7161 12.4024 12.4875 13.1124C12.4234 13.3115 12.4114 13.5152 12.4114 14.4021C12.4114 15.3194 12.4218 15.4858 12.4926 15.6917C12.7996 16.5856 13.5671 17.1581 14.4676 17.165C15.4544 17.1724 16.2644 16.5567 16.521 15.6041C16.6301 15.1992 16.6054 14.3728 16.4793 14.2052C16.3001 13.9673 16.1564 13.9292 15.4379 13.9292C14.8305 13.9292 14.7732 13.9361 14.6404 14.0259C14.3099 14.2492 14.2194 14.5543 14.3897 14.8704C14.5184 15.1095 14.716 15.2189 15.0189 15.2189C15.2857 15.2189 15.3123 15.2817 15.1482 15.5235C14.8733 15.9286 14.2747 15.9772 13.9401 15.6218C13.7499 15.4198 13.7317 15.3109 13.7317 14.376C13.7317 13.5841 13.7403 13.4792 13.8173 13.3292C13.8644 13.2376 13.9571 13.1243 14.0234 13.0775C14.1589 12.9816 14.4712 12.8871 14.5604 12.9149C14.5927 12.925 14.6718 12.9446 14.736 12.9586C14.8002 12.9725 14.9635 13.0801 15.0989 13.1977C15.3605 13.4251 15.5331 13.4851 15.7886 13.4375C15.987 13.4006 16.2297 13.1595 16.2669 12.9625C16.3223 12.6692 16.2567 12.5092 15.964 12.2241C15.4205 11.6949 14.6907 11.4901 14.0034 11.6739Z" fill="black"/>
</svg>
