<svg xmlns="http://www.w3.org/2000/svg" width="25" height="25" viewBox="0 0 25 25" fill="none"><rect width="25" height="25" fill="none"/>
<path fill-rule="evenodd" clip-rule="evenodd" d="M17.4741 5.79445H19.0211C19.8766 5.79445 20.5727 6.50849 20.5727 7.38653V9.74932C20.5727 10.627 19.8766 11.3411 19.0211 11.3411H18.6591V15.4815H12.5993V11.3411H11.4033V15.4815H5.34354V11.3411H4.98155C4.12601 11.3411 3.42993 10.627 3.42993 9.74932V7.38653C3.42993 6.50845 4.12601 5.79442 4.98155 5.79442H6.62654C6.24817 4.80379 6.45248 3.62162 7.27287 2.81783C8.37909 1.73397 10.17 1.73416 11.276 2.81783C11.2771 2.81891 11.2778 2.81957 11.2785 2.82023C11.2869 2.82819 11.2946 2.83683 12.0201 3.61674L12.829 2.81915C14.5972 1.08673 17.6624 2.2984 17.6624 4.77895C17.6624 5.12941 17.5966 5.47388 17.4741 5.79445ZM15.9877 3.64642C15.3489 3.02047 14.3148 3.02055 13.676 3.64642L12.5993 4.7081V5.79442H16.125C16.603 5.17073 16.5987 4.24491 15.9877 3.64642ZM10.4212 3.63763C9.77559 3.01465 8.74762 3.03012 8.11852 3.64646C7.53156 4.22152 7.4856 5.16159 7.97975 5.79445H11.4033V4.69345L10.4212 3.63763ZM5.34318 20.4152C5.34318 21.2918 6.07115 22.005 6.96577 22.005H11.403V16.6537H5.34318V20.4152ZM12.5999 22.005H17.0371C17.9317 22.005 18.6596 21.2918 18.6596 20.4152V16.6537H12.5999V22.005Z" fill="black"/>
</svg>
