<svg xmlns="http://www.w3.org/2000/svg" width="24" height="24" viewBox="0 0 24 24" fill="none"><rect width="24" height="24" fill="none"/>
<path fill-rule="evenodd" clip-rule="evenodd" d="M18.5674 4.54733H20.4237C21.4504 4.54733 22.2856 5.40416 22.2856 6.45782V9.29316C22.2856 10.3464 21.4504 11.2032 20.4237 11.2032H19.9893V16.1717H12.7176V11.2032H11.2824V16.1717H4.01069V11.2032H3.5763C2.54965 11.2032 1.71436 10.3464 1.71436 9.29316V6.45782C1.71436 5.40412 2.54965 4.54728 3.5763 4.54728H5.55028C5.09623 3.35854 5.34141 1.93993 6.32586 0.975383C7.65333 -0.325245 9.80236 -0.325011 11.1296 0.975383C11.131 0.976688 11.1318 0.977473 11.1326 0.978264C11.1427 0.987815 11.1519 0.99819 12.0225 1.93407L12.9932 0.976977C15.115 -1.10193 18.7933 0.352068 18.7933 3.32873C18.7933 3.74927 18.7143 4.16264 18.5674 4.54733ZM16.7837 1.9697C16.017 1.21856 14.7762 1.21865 14.0096 1.9697L12.7176 3.2437V4.54728H16.9484C17.5221 3.79886 17.5168 2.68788 16.7837 1.9697ZM10.1039 1.95915C9.32913 1.21158 8.09557 1.23014 7.34065 1.96974C6.6363 2.65981 6.58114 3.78789 7.17412 4.54733H11.2824V3.22612L10.1039 1.95915ZM4.01016 22.0922C4.01016 23.144 4.88372 23.9999 5.95726 23.9999H11.2819V17.5784H4.01016V22.0922ZM12.7184 23.9999H18.043C19.1165 23.9999 19.9901 23.144 19.9901 22.0922V17.5784H12.7184V23.9999Z" fill="black"/>
</svg>
