<svg xmlns="http://www.w3.org/2000/svg" width="17" height="17" viewBox="0 0 17 17" fill="none"><rect width="17" height="17" fill="none"/>
<path fill-rule="evenodd" clip-rule="evenodd" d="M11.6475 3.8663H12.6788C13.2491 3.8663 13.7132 4.34232 13.7132 4.92768V6.50287C13.7132 7.08801 13.2491 7.56403 12.6788 7.56403H12.4374V10.3243H8.3976V7.56403H7.60026V10.3243H3.56041V7.56403H3.31908C2.74872 7.56403 2.28467 7.08801 2.28467 6.50287V4.92768C2.28467 4.34229 2.74872 3.86627 3.31908 3.86627H4.41574C4.16349 3.20586 4.2997 2.41774 4.84662 1.88188C5.58411 1.1593 6.77802 1.15943 7.5154 1.88188C7.51614 1.8826 7.5166 1.88304 7.51706 1.88348C7.52264 1.88878 7.52778 1.89455 8.01142 2.41448L8.55069 1.88276C9.7295 0.727813 11.773 1.53559 11.773 3.18929C11.773 3.42293 11.7291 3.65258 11.6475 3.8663ZM10.6565 2.43428C10.2306 2.01698 9.54128 2.01703 9.11539 2.43428L8.3976 3.14206V3.86627H10.748C11.0667 3.45048 11.0638 2.83327 10.6565 2.43428ZM6.94554 2.42842C6.51511 2.0131 5.8298 2.02341 5.4104 2.4343C5.01909 2.81767 4.98844 3.44439 5.31788 3.8663H7.60026V3.13229L6.94554 2.42842ZM3.56014 13.6135C3.56014 14.1978 4.04546 14.6733 4.64187 14.6733H7.59999V11.1058H3.56014V13.6135ZM8.39797 14.6733H11.3561C11.9525 14.6733 12.4378 14.1978 12.4378 13.6135V11.1058H8.39797V14.6733Z" fill="black"/>
</svg>
