<svg xmlns="http://www.w3.org/2000/svg" width="16" height="16" viewBox="0 0 16 16" fill="none"><rect width="16" height="16" fill="none"/>
<path fill-rule="evenodd" clip-rule="evenodd" d="M11.6494 3.85961H12.6807C13.2511 3.85961 13.7151 4.33563 13.7151 4.921V6.49619C13.7151 7.08132 13.2511 7.55734 12.6807 7.55734H12.4394V10.3176H8.39955V7.55734H7.60221V10.3176H3.56236V7.55734H3.32104C2.75067 7.55734 2.28662 7.08132 2.28662 6.49619V4.921C2.28662 4.33561 2.75067 3.85959 3.32104 3.85959H4.4177C4.16544 3.19917 4.30166 2.41106 4.84858 1.87519C5.58606 1.15262 6.77997 1.15275 7.51735 1.87519C7.51809 1.87592 7.51855 1.87636 7.51902 1.87679C7.52459 1.8821 7.52974 1.88786 8.01337 2.4078L8.55264 1.87608C9.73145 0.721129 11.775 1.52891 11.775 3.18261C11.775 3.41625 11.731 3.6459 11.6494 3.85961ZM10.6585 2.42759C10.2326 2.01029 9.54323 2.01034 9.11734 2.42759L8.39955 3.13537V3.85959H10.75C11.0687 3.4438 11.0658 2.82658 10.6585 2.42759ZM6.94749 2.42173C6.51706 2.00641 5.83175 2.01672 5.41235 2.42762C5.02104 2.81099 4.9904 3.4377 5.31983 3.85961H7.60221V3.12561L6.94749 2.42173ZM3.5621 13.6068C3.5621 14.1911 4.04741 14.6666 4.64382 14.6666H7.60195V11.0991H3.5621V13.6068ZM8.39992 14.6666H11.3581C11.9545 14.6666 12.4398 14.1911 12.4398 13.6068V11.0991H8.39992V14.6666Z" fill="black"/>
</svg>
