<svg xmlns="http://www.w3.org/2000/svg" width="24" height="24" viewBox="0 0 24 24" fill="none"><rect width="24" height="24" fill="none"/>
<path fill-rule="evenodd" clip-rule="evenodd" d="M17.4751 5.78945H19.0221C19.8776 5.78945 20.5737 6.50348 20.5737 7.38153V9.74432C20.5737 10.622 19.8776 11.336 19.0221 11.336H18.6601V15.4765H12.6003V11.336H11.4043V15.4765H5.34452V11.336H4.98253C4.12699 11.336 3.43091 10.622 3.43091 9.74432V7.38153C3.43091 6.50344 4.12699 5.78941 4.98253 5.78941H6.62752C6.24914 4.79879 6.45346 3.61661 7.27384 2.81282C8.38007 1.72896 10.1709 1.72916 11.277 2.81282C11.2781 2.81391 11.2788 2.81456 11.2795 2.81522C11.2879 2.82318 11.2956 2.83183 12.021 3.61173L12.8299 2.81415C14.5982 1.08172 17.6634 2.29339 17.6634 4.77395C17.6634 5.1244 17.5975 5.46888 17.4751 5.78945ZM15.9887 3.64142C15.3498 3.01547 14.3158 3.01555 13.677 3.64142L12.6003 4.70309V5.78941H16.126C16.604 5.16573 16.5996 4.23991 15.9887 3.64142ZM10.4222 3.63263C9.77657 3.00965 8.7486 3.02512 8.1195 3.64146C7.53254 4.21651 7.48657 5.15659 7.98072 5.78945H11.4043V4.68844L10.4222 3.63263ZM5.34416 20.4102C5.34416 21.2868 6.07213 22 6.96675 22H11.4039V16.6487H5.34416V20.4102ZM12.6009 22H17.038C17.9327 22 18.6606 21.2868 18.6606 20.4102V16.6487H12.6009V22Z" fill="black"/>
</svg>
