<svg xmlns="http://www.w3.org/2000/svg" width="16" height="16" viewBox="0 0 16 16" fill="none"><rect width="16" height="16" fill="none"/>
<path d="M8.66671 5.71333C8.14005 5.71333 7.71338 6.14 7.71338 6.66667C7.71338 7.19333 8.14005 7.62 8.66671 7.62C9.19338 7.62 9.62005 7.19333 9.62005 6.66667C9.62005 6.14 9.19338 5.71333 8.66671 5.71333Z" fill="black"/>
<path d="M8.66671 2C6.16671 2 4.13338 3.96 4.01338 6.42667L2.73338 8.13333C2.56671 8.35333 2.72671 8.66667 3.00005 8.66667H4.00005V10.6667C4.00005 11.4 4.60005 12 5.33338 12H6.00005V14H10.6667V10.88C12.24 10.1333 13.3334 8.52667 13.3334 6.66667C13.3334 4.08667 11.2467 2 8.66671 2ZM10.6667 6.66667C10.6667 6.75333 10.66 6.84 10.6534 6.92667L11.2067 7.36667C11.26 7.40667 11.2734 7.47333 11.24 7.53333L10.7067 8.46C10.6734 8.52 10.6 8.54 10.5467 8.52L9.88671 8.25333C9.74671 8.36 9.60005 8.44667 9.44005 8.51333L9.33338 9.22C9.32671 9.28667 9.26671 9.33333 9.20005 9.33333H8.13338C8.06671 9.33333 8.01338 9.28667 8.00005 9.22L7.90005 8.51333C7.73338 8.44667 7.58671 8.36 7.44671 8.25333L6.78671 8.52C6.72671 8.54 6.65338 8.52 6.62005 8.46L6.08671 7.53333C6.05338 7.48 6.06671 7.40667 6.12005 7.36667L6.68005 6.92667C6.67338 6.84 6.66671 6.75333 6.66671 6.66667C6.66671 6.58 6.68005 6.48667 6.69338 6.40667L6.12671 5.96667C6.07338 5.92667 6.06005 5.86 6.09338 5.79333L6.62671 4.87333C6.66005 4.81333 6.72671 4.79333 6.78671 4.81333L7.45338 5.08C7.58671 4.98 7.74005 4.88667 7.90005 4.82L8.00005 4.11333C8.01338 4.04667 8.06671 4 8.13338 4H9.20005C9.26671 4 9.32005 4.04667 9.33338 4.11333L9.43338 4.82C9.59338 4.88667 9.74005 4.97333 9.88005 5.08L10.5467 4.81333C10.6067 4.79333 10.68 4.81333 10.7067 4.87333L11.24 5.79333C11.2734 5.85333 11.26 5.92667 11.2067 5.96667L10.64 6.40667C10.66 6.48667 10.6667 6.57333 10.6667 6.66667Z" fill="black"/>
</svg>
