<svg xmlns="http://www.w3.org/2000/svg" width="17" height="16" viewBox="0 0 17 16" fill="none"><rect width="17" height="16" fill="none"/>
<path d="M8.66622 5.71333C8.13956 5.71333 7.71289 6.14 7.71289 6.66667C7.71289 7.19333 8.13956 7.62 8.66622 7.62C9.19289 7.62 9.61956 7.19333 9.61956 6.66667C9.61956 6.14 9.19289 5.71333 8.66622 5.71333Z" fill="black"/>
<path d="M8.66622 2C6.16622 2 4.13289 3.96 4.01289 6.42667L2.73289 8.13333C2.56622 8.35333 2.72622 8.66667 2.99956 8.66667H3.99956V10.6667C3.99956 11.4 4.59956 12 5.33289 12H5.99956V14H10.6662V10.88C12.2396 10.1333 13.3329 8.52667 13.3329 6.66667C13.3329 4.08667 11.2462 2 8.66622 2ZM10.6662 6.66667C10.6662 6.75333 10.6596 6.84 10.6529 6.92667L11.2062 7.36667C11.2596 7.40667 11.2729 7.47333 11.2396 7.53333L10.7062 8.46C10.6729 8.52 10.5996 8.54 10.5462 8.52L9.88622 8.25333C9.74622 8.36 9.59956 8.44667 9.43956 8.51333L9.33289 9.22C9.32622 9.28667 9.26622 9.33333 9.19956 9.33333H8.13289C8.06622 9.33333 8.01289 9.28667 7.99956 9.22L7.89956 8.51333C7.73289 8.44667 7.58622 8.36 7.44622 8.25333L6.78622 8.52C6.72622 8.54 6.65289 8.52 6.61956 8.46L6.08622 7.53333C6.05289 7.48 6.06622 7.40667 6.11956 7.36667L6.67956 6.92667C6.67289 6.84 6.66622 6.75333 6.66622 6.66667C6.66622 6.58 6.67956 6.48667 6.69289 6.40667L6.12622 5.96667C6.07289 5.92667 6.05956 5.86 6.09289 5.79333L6.62622 4.87333C6.65956 4.81333 6.72622 4.79333 6.78622 4.81333L7.45289 5.08C7.58622 4.98 7.73956 4.88667 7.89956 4.82L7.99956 4.11333C8.01289 4.04667 8.06622 4 8.13289 4H9.19956C9.26622 4 9.31956 4.04667 9.33289 4.11333L9.43289 4.82C9.59289 4.88667 9.73956 4.97333 9.87956 5.08L10.5462 4.81333C10.6062 4.79333 10.6796 4.81333 10.7062 4.87333L11.2396 5.79333C11.2729 5.85333 11.2596 5.92667 11.2062 5.96667L10.6396 6.40667C10.6596 6.48667 10.6662 6.57333 10.6662 6.66667Z" fill="black"/>
</svg>
