<svg xmlns="http://www.w3.org/2000/svg" width="24" height="24" viewBox="0 0 24 24" fill="none"><rect width="24" height="24" fill="none"/>
<path d="M13.001 8.57C12.211 8.57 11.571 9.21 11.571 10C11.571 10.79 12.211 11.43 13.001 11.43C13.791 11.43 14.431 10.79 14.431 10C14.431 9.21 13.791 8.57 13.001 8.57Z" fill="black"/>
<path d="M13.001 3C9.25105 3 6.20105 5.94 6.02105 9.64L4.10105 12.2C3.85105 12.53 4.09105 13 4.50105 13H6.00105V16C6.00105 17.1 6.90105 18 8.00105 18H9.00105V21H16.001V16.32C18.361 15.2 20.001 12.79 20.001 10C20.001 6.13 16.871 3 13.001 3ZM16.001 10C16.001 10.13 15.991 10.26 15.981 10.39L16.811 11.05C16.891 11.11 16.911 11.21 16.861 11.3L16.061 12.69C16.011 12.78 15.901 12.81 15.821 12.78L14.831 12.38C14.621 12.54 14.401 12.67 14.161 12.77L14.001 13.83C13.991 13.93 13.901 14 13.801 14H12.201C12.101 14 12.021 13.93 12.001 13.83L11.851 12.77C11.601 12.67 11.381 12.54 11.171 12.38L10.181 12.78C10.091 12.81 9.98105 12.78 9.93105 12.69L9.13105 11.3C9.08105 11.22 9.10105 11.11 9.18105 11.05L10.021 10.39C10.011 10.26 10.001 10.13 10.001 10C10.001 9.87 10.021 9.73 10.041 9.61L9.19104 8.95C9.11104 8.89 9.09105 8.79 9.14105 8.69L9.94104 7.31C9.99104 7.22 10.091 7.19 10.181 7.22L11.181 7.62C11.381 7.47 11.611 7.33 11.851 7.23L12.001 6.17C12.021 6.07 12.101 6 12.201 6H13.801C13.901 6 13.981 6.07 14.001 6.17L14.151 7.23C14.391 7.33 14.611 7.46 14.821 7.62L15.821 7.22C15.911 7.19 16.021 7.22 16.061 7.31L16.861 8.69C16.911 8.78 16.891 8.89 16.811 8.95L15.961 9.61C15.991 9.73 16.001 9.86 16.001 10Z" fill="black"/>
</svg>
