<svg xmlns="http://www.w3.org/2000/svg" width="25" height="25" viewBox="0 0 25 25" fill="none"><rect width="25" height="25" fill="none"/>
<path d="M13.0018 8.575C12.2118 8.575 11.5718 9.215 11.5718 10.005C11.5718 10.795 12.2118 11.435 13.0018 11.435C13.7918 11.435 14.4318 10.795 14.4318 10.005C14.4318 9.215 13.7918 8.575 13.0018 8.575Z" fill="black"/>
<path d="M13.0018 3.005C9.25178 3.005 6.20178 5.94501 6.02178 9.64501L4.10178 12.205C3.85178 12.535 4.09178 13.005 4.50178 13.005H6.00178V16.005C6.00178 17.105 6.90178 18.005 8.00178 18.005H9.00178V21.005H16.0018V16.325C18.3618 15.205 20.0018 12.795 20.0018 10.005C20.0018 6.135 16.8718 3.005 13.0018 3.005ZM16.0018 10.005C16.0018 10.135 15.9918 10.265 15.9818 10.395L16.8118 11.055C16.8918 11.115 16.9118 11.215 16.8618 11.305L16.0618 12.695C16.0118 12.785 15.9018 12.815 15.8218 12.785L14.8318 12.385C14.6218 12.545 14.4018 12.675 14.1618 12.775L14.0018 13.835C13.9918 13.935 13.9018 14.005 13.8018 14.005H12.2018C12.1018 14.005 12.0218 13.935 12.0018 13.835L11.8518 12.775C11.6018 12.675 11.3818 12.545 11.1718 12.385L10.1818 12.785C10.0918 12.815 9.98178 12.785 9.93178 12.695L9.13178 11.305C9.08178 11.225 9.10178 11.115 9.18178 11.055L10.0218 10.395C10.0118 10.265 10.0018 10.135 10.0018 10.005C10.0018 9.875 10.0218 9.735 10.0418 9.615L9.19178 8.955C9.11178 8.895 9.09178 8.795 9.14178 8.695L9.94178 7.315C9.99178 7.225 10.0918 7.195 10.1818 7.225L11.1818 7.625C11.3818 7.475 11.6118 7.335 11.8518 7.235L12.0018 6.175C12.0218 6.07501 12.1018 6.005 12.2018 6.005H13.8018C13.9018 6.005 13.9818 6.07501 14.0018 6.175L14.1518 7.235C14.3918 7.335 14.6118 7.465 14.8218 7.625L15.8218 7.225C15.9118 7.195 16.0218 7.225 16.0618 7.315L16.8618 8.695C16.9118 8.785 16.8918 8.895 16.8118 8.955L15.9618 9.615C15.9918 9.735 16.0018 9.86501 16.0018 10.005Z" fill="black"/>
</svg>
