<svg xmlns="http://www.w3.org/2000/svg" width="24" height="24" viewBox="0 0 24 24" fill="none"><rect width="24" height="24" fill="none"/>
<path fill-rule="evenodd" clip-rule="evenodd" d="M12.001 22C17.5238 22 22.001 17.5228 22.001 12C22.001 6.47715 17.5238 2 12.001 2C6.47813 2 2.00098 6.47715 2.00098 12C2.00098 17.5228 6.47813 22 12.001 22ZM13.0779 15.0591H11.0207V17H13.0779V15.0591ZM9.87474 7.51041C9.01413 8.04321 8.5562 8.94762 8.50098 10.2236H10.496C10.496 9.85203 10.6065 9.49384 10.8274 9.14909C11.0529 8.80434 11.4326 8.63197 11.9665 8.63197C12.5095 8.63197 12.8823 8.773 13.0848 9.05507C13.2919 9.33266 13.3955 9.64159 13.3955 9.98187C13.3955 10.2774 13.3034 10.5482 13.1193 10.7945C13.0181 10.9378 12.8846 11.0698 12.7189 11.1907L12.215 11.5735C11.7179 11.9496 11.4096 12.2832 11.2899 12.5742C11.1703 12.8608 11.0966 13.3824 11.069 14.139H12.9329C12.9375 13.7808 12.9674 13.5167 13.0227 13.3465C13.1101 13.0779 13.2873 12.8428 13.5542 12.6414L14.0444 12.272C14.5414 11.8959 14.8774 11.587 15.0523 11.3452C15.3514 10.9467 15.501 10.4565 15.501 9.87441C15.501 8.92523 15.1558 8.20887 14.4655 7.72532C13.7797 7.24177 12.9168 7 11.8767 7C11.0851 7 10.4178 7.17014 9.87474 7.51041Z" fill="black"/>
</svg>
