<svg xmlns="http://www.w3.org/2000/svg" width="24" height="24" viewBox="0 0 24 24" fill="none"><rect width="24" height="24" fill="none"/>
<path fill-rule="evenodd" clip-rule="evenodd" d="M22 12C22 17.5228 17.5228 22 12 22C6.47715 22 2 17.5228 2 12C2 6.47715 6.47715 2 12 2C17.5228 2 22 6.47715 22 12ZM20.3336 12C20.3336 16.6024 16.6026 20.3333 12.0002 20.3333C7.39786 20.3333 3.6669 16.6024 3.6669 12C3.6669 7.39763 7.39786 3.66667 12.0002 3.66667C16.6026 3.66667 20.3336 7.39763 20.3336 12ZM11.1667 9.50013C11.1667 9.50013 11.1667 9.49491 11.1676 9.48431C11.1686 9.47306 11.1704 9.45783 11.1734 9.439C11.1794 9.401 11.1895 9.35356 11.2052 9.30054C11.2373 9.19236 11.2868 9.07959 11.3539 8.98169C11.4703 8.812 11.6445 8.66667 12 8.66667C12.3951 8.66667 12.5616 8.81261 12.6571 8.94526C12.7832 9.12039 12.8333 9.35558 12.8333 9.5C12.8333 10.0758 12.6609 10.4609 12.1809 11.0648C12.1013 11.165 12.0237 11.2685 11.9497 11.3713C11.7953 11.586 11.6564 11.7978 11.5476 11.9705C11.466 12.0999 11.3988 12.2112 11.3517 12.2908C11.3281 12.3306 11.3094 12.3627 11.2964 12.3852L11.2811 12.4118L11.2767 12.4194L11.2747 12.423C11.0481 12.8236 11.1891 13.332 11.5897 13.5586C11.9902 13.7852 12.4989 13.6437 12.7256 13.2432L12.728 13.2389L12.7394 13.2192C12.7497 13.2014 12.7653 13.1745 12.7856 13.1402C12.8264 13.0714 12.8854 12.9735 12.9574 12.8593C13.1037 12.6274 13.2937 12.3434 13.4857 12.1018C14.0962 11.3337 14.5 10.5909 14.5 9.5C14.5 9.08887 14.3835 8.49072 14.0096 7.97141C13.6051 7.40961 12.9383 7 12 7C11.0222 7 10.363 7.47967 9.97939 8.03914C9.62621 8.55421 9.5 9.13825 9.5 9.5C9.5 9.96024 9.8731 10.3333 10.3333 10.3333C10.7936 10.3333 11.1667 9.96037 11.1667 9.50013ZM12 16.1667C12.4602 16.1667 12.8333 15.7936 12.8333 15.3333C12.8333 14.8731 12.4602 14.5 12 14.5C11.5398 14.5 11.1667 14.8731 11.1667 15.3333C11.1667 15.7936 11.5398 16.1667 12 16.1667Z" fill="black"/>
</svg>
