<svg xmlns="http://www.w3.org/2000/svg" width="25" height="24" viewBox="0 0 25 24" fill="none"><rect width="25" height="24" fill="none"/>
<path fill-rule="evenodd" clip-rule="evenodd" d="M3.12988 7.10425C3.12988 4.28525 5.41513 2 8.23413 2H15.777C18.596 2 20.8812 4.28525 20.8812 7.10425V13.8402C20.8812 16.6592 18.596 18.9445 15.777 18.9445H14.845L12.8086 21.6597C12.4683 22.1134 11.7878 22.1134 11.4475 21.6597L9.41104 18.9445H8.23413C5.41513 18.9445 3.12988 16.6592 3.12988 13.8402V7.10425ZM12.9628 11.9314H11.7131V11.2568C11.7131 10.9618 11.7463 10.7444 11.8126 10.6043C11.8864 10.4568 12.0412 10.2651 12.2771 10.0292L13.0845 9.22187C13.254 9.03755 13.3388 8.80899 13.3388 8.5362C13.3388 8.2634 13.2503 8.03853 13.0734 7.86158C12.8964 7.67726 12.6679 7.5851 12.3877 7.5851C12.1076 7.5851 11.8716 7.67358 11.6799 7.85052C11.4956 8.0201 11.3887 8.24866 11.3592 8.5362H10.0211C10.0948 7.88002 10.3491 7.36761 10.7841 6.99897C11.2265 6.62295 11.7758 6.43495 12.432 6.43495C13.0881 6.43495 13.6227 6.61558 14.0355 6.97685C14.4484 7.33074 14.6549 7.82841 14.6549 8.46984C14.6549 8.91221 14.5332 9.28085 14.2899 9.57576C14.1498 9.75271 14.0429 9.87805 13.9692 9.95177C13.8955 10.0255 13.7959 10.1213 13.6706 10.2393C13.5526 10.3499 13.4494 10.4494 13.3609 10.5379C13.2798 10.619 13.2135 10.6891 13.1619 10.748C13.0292 10.9102 12.9628 11.1388 12.9628 11.4337V11.9314ZM12.3545 14.3865C12.126 14.3865 11.9269 14.3091 11.7573 14.1543C11.5878 13.9921 11.503 13.8004 11.503 13.5792C11.503 13.3506 11.5841 13.1553 11.7463 12.9931C11.9159 12.8309 12.1149 12.7498 12.3435 12.7498C12.5794 12.7498 12.7822 12.8309 12.9517 12.9931C13.1213 13.1479 13.2061 13.3396 13.2061 13.5681C13.2061 13.7893 13.1213 13.981 12.9517 14.1432C12.7895 14.3054 12.5905 14.3865 12.3545 14.3865Z" fill="black"/>
</svg>
