<svg xmlns="http://www.w3.org/2000/svg" width="25" height="24" viewBox="0 0 25 24" fill="none"><rect width="25" height="24" fill="none"/>
<path fill-rule="evenodd" clip-rule="evenodd" d="M22.0049 12C22.0049 17.5228 17.5277 22 12.0049 22C6.48204 22 2.00488 17.5228 2.00488 12C2.00488 6.47715 6.48204 2 12.0049 2C17.5277 2 22.0049 6.47715 22.0049 12ZM20.3384 12C20.3384 16.6024 16.6075 20.3333 12.0051 20.3333C7.40274 20.3333 3.67178 16.6024 3.67178 12C3.67178 7.39763 7.40274 3.66667 12.0051 3.66667C16.6075 3.66667 20.3384 7.39763 20.3384 12ZM11.1716 9.50013C11.1716 9.50013 11.1716 9.49491 11.1725 9.48431C11.1735 9.47306 11.1753 9.45783 11.1782 9.439C11.1843 9.401 11.1944 9.35356 11.2101 9.30054C11.2422 9.19236 11.2917 9.07959 11.3588 8.98169C11.4752 8.812 11.6493 8.66667 12.0049 8.66667C12.4 8.66667 12.5664 8.81261 12.6619 8.94526C12.788 9.12039 12.8382 9.35558 12.8382 9.5C12.8382 10.0758 12.6658 10.4609 12.1858 11.0648C12.1062 11.165 12.0286 11.2685 11.9546 11.3713C11.8002 11.586 11.6613 11.7978 11.5525 11.9705C11.4708 12.0999 11.4037 12.2112 11.3565 12.2908C11.3329 12.3306 11.3143 12.3627 11.3012 12.3852L11.286 12.4118L11.2816 12.4194L11.2796 12.423C11.053 12.8236 11.194 13.332 11.5945 13.5586C11.9951 13.7852 12.5038 13.6437 12.7304 13.2432L12.7329 13.2389L12.7442 13.2192C12.7545 13.2014 12.7702 13.1745 12.7905 13.1402C12.8313 13.0714 12.8903 12.9735 12.9623 12.8593C13.1085 12.6274 13.2986 12.3434 13.4906 12.1018C14.101 11.3337 14.5049 10.5909 14.5049 9.5C14.5049 9.08887 14.3884 8.49072 14.0145 7.97141C13.61 7.40961 12.9432 7 12.0049 7C11.0271 7 10.3679 7.47967 9.98428 8.03914C9.63109 8.55421 9.50488 9.13825 9.50488 9.5C9.50488 9.96024 9.87798 10.3333 10.3382 10.3333C10.7985 10.3333 11.1716 9.96037 11.1716 9.50013ZM12.0049 16.1667C12.4651 16.1667 12.8382 15.7936 12.8382 15.3333C12.8382 14.8731 12.4651 14.5 12.0049 14.5C11.5446 14.5 11.1716 14.8731 11.1716 15.3333C11.1716 15.7936 11.5446 16.1667 12.0049 16.1667Z" fill="black"/>
</svg>
