<svg xmlns="http://www.w3.org/2000/svg" width="25" height="24" viewBox="0 0 25 24" fill="none"><rect width="25" height="24" fill="none"/>
<path fill-rule="evenodd" clip-rule="evenodd" d="M12.0049 22C17.5277 22 22.0049 17.5228 22.0049 12C22.0049 6.47715 17.5277 2 12.0049 2C6.48204 2 2.00488 6.47715 2.00488 12C2.00488 17.5228 6.48204 22 12.0049 22ZM13.0818 15.0591H11.0246V17H13.0818V15.0591ZM9.87865 7.51041C9.01803 8.04321 8.56011 8.94762 8.50488 10.2236H10.5C10.5 9.85203 10.6104 9.49384 10.8313 9.14909C11.0568 8.80434 11.4365 8.63197 11.9704 8.63197C12.5134 8.63197 12.8862 8.773 13.0887 9.05507C13.2958 9.33266 13.3994 9.64159 13.3994 9.98187C13.3994 10.2774 13.3073 10.5482 13.1232 10.7945C13.022 10.9378 12.8885 11.0698 12.7228 11.1907L12.2189 11.5735C11.7218 11.9496 11.4135 12.2832 11.2938 12.5742C11.1742 12.8608 11.1005 13.3824 11.0729 14.139H12.9368C12.9414 13.7808 12.9714 13.5167 13.0266 13.3465C13.114 13.0779 13.2912 12.8428 13.5581 12.6414L14.0483 12.272C14.5453 11.8959 14.8813 11.587 15.0562 11.3452C15.3553 10.9467 15.5049 10.4565 15.5049 9.87441C15.5049 8.92523 15.1597 8.20887 14.4694 7.72532C13.7836 7.24177 12.9207 7 11.8806 7C11.089 7 10.4217 7.17014 9.87865 7.51041Z" fill="black"/>
</svg>
