<svg xmlns="http://www.w3.org/2000/svg" width="17" height="17" viewBox="0 0 17 17" fill="none"><rect width="17" height="17" fill="none"/>
<path fill-rule="evenodd" clip-rule="evenodd" d="M2.09961 5.73782C2.09961 3.85849 3.62311 2.33499 5.50244 2.33499H10.531C12.4104 2.33499 13.9339 3.85849 13.9339 5.73783V10.2285C13.9339 12.1078 12.4104 13.6313 10.531 13.6313H9.9097L8.55209 15.4415C8.32523 15.7439 7.87152 15.7439 7.64467 15.4415L6.28705 13.6313H5.50244C3.62311 13.6313 2.09961 12.1078 2.09961 10.2285V5.73782ZM8.65489 8.95591H7.82176V8.50617C7.82176 8.30956 7.84388 8.16456 7.88812 8.07117C7.93727 7.97287 8.04049 7.84507 8.19778 7.68778L8.73599 7.14957C8.84904 7.02669 8.90556 6.87432 8.90556 6.69246C8.90556 6.51059 8.84658 6.36068 8.72862 6.24271C8.61065 6.11983 8.45828 6.05839 8.2715 6.05839C8.08473 6.05839 7.92744 6.11738 7.79964 6.23534C7.67676 6.34839 7.60549 6.50076 7.58583 6.69246H6.69372C6.74287 6.255 6.91245 5.9134 7.20245 5.66764C7.49736 5.41696 7.86354 5.29162 8.30099 5.29162C8.73845 5.29162 9.0948 5.41204 9.37005 5.65289C9.6453 5.88882 9.78293 6.2206 9.78293 6.64822C9.78293 6.94313 9.70183 7.18889 9.53963 7.3855C9.44624 7.50346 9.37497 7.58702 9.32581 7.63617C9.27666 7.68533 9.21031 7.74922 9.12675 7.82787C9.04811 7.9016 8.97929 7.96795 8.92031 8.02693C8.86624 8.081 8.82201 8.1277 8.7876 8.16702C8.69913 8.27515 8.65489 8.42752 8.65489 8.62413V8.95591ZM8.24939 10.5927C8.09701 10.5927 7.9643 10.5411 7.85125 10.4378C7.7382 10.3297 7.68168 10.2019 7.68168 10.0545C7.68168 9.90208 7.73575 9.77183 7.84388 9.6637C7.95693 9.55556 8.08964 9.50149 8.24201 9.50149C8.3993 9.50149 8.53447 9.55556 8.64752 9.6637C8.76057 9.76692 8.81709 9.89471 8.81709 10.0471C8.81709 10.1945 8.76057 10.3223 8.64752 10.4305C8.53938 10.5386 8.40667 10.5927 8.24939 10.5927Z" fill="black"/>
</svg>
