<svg xmlns="http://www.w3.org/2000/svg" width="16" height="16" viewBox="0 0 16 16" fill="none"><rect width="16" height="16" fill="none"/>
<path fill-rule="evenodd" clip-rule="evenodd" d="M14.6668 8.00001C14.6668 11.6819 11.6821 14.6667 8.00016 14.6667C4.31826 14.6667 1.3335 11.6819 1.3335 8.00001C1.3335 4.31811 4.31826 1.33334 8.00016 1.33334C11.6821 1.33334 14.6668 4.31811 14.6668 8.00001ZM13.5558 8.00003C13.5558 11.0683 11.0685 13.5556 8.00029 13.5556C4.93204 13.5556 2.44473 11.0683 2.44473 8.00003C2.44473 4.93178 4.93204 2.44447 8.00029 2.44447C11.0685 2.44447 13.5558 4.93178 13.5558 8.00003ZM7.44458 6.33345C7.44458 6.33345 7.44462 6.32996 7.44523 6.3229C7.44588 6.3154 7.44705 6.30525 7.44904 6.29269C7.45305 6.26736 7.45983 6.23573 7.4703 6.20039C7.49167 6.12827 7.52467 6.05309 7.56943 5.98782C7.647 5.87469 7.7631 5.7778 8.00014 5.7778C8.26351 5.7778 8.37451 5.8751 8.43817 5.96353C8.52224 6.08028 8.55569 6.23707 8.55569 6.33336C8.55569 6.7172 8.44075 6.97397 8.12077 7.37659C8.0677 7.44336 8.01597 7.51236 7.96663 7.58092C7.86365 7.72403 7.77109 7.86523 7.69852 7.98033C7.64411 8.06664 7.59932 8.14085 7.56791 8.19388C7.55218 8.22044 7.53973 8.2418 7.53104 8.25684L7.52085 8.27455L7.51796 8.27962L7.5166 8.28202C7.36552 8.54907 7.45953 8.88803 7.72657 9.03912C7.9936 9.19019 8.33274 9.09585 8.48384 8.82885L8.48549 8.82596L8.49304 8.81283C8.49991 8.80095 8.51034 8.78302 8.5239 8.76014C8.55105 8.7143 8.59043 8.64903 8.63843 8.57291C8.73591 8.41828 8.86261 8.22897 8.99062 8.06791C9.39758 7.55586 9.6668 7.06062 9.6668 6.33336C9.6668 6.05927 9.58915 5.66051 9.33988 5.3143C9.07021 4.93976 8.62565 4.66669 8.00014 4.66669C7.34828 4.66669 6.90883 4.98647 6.65306 5.35945C6.41761 5.70283 6.33347 6.09219 6.33347 6.33336C6.33347 6.64018 6.5822 6.88891 6.88903 6.88891C7.19585 6.88891 7.44458 6.64027 7.44458 6.33345ZM8.00014 10.7778C8.30696 10.7778 8.55569 10.5291 8.55569 10.2222C8.55569 9.91542 8.30696 9.66669 8.00014 9.66669C7.69331 9.66669 7.44458 9.91542 7.44458 10.2222C7.44458 10.5291 7.69331 10.7778 8.00014 10.7778Z" fill="black"/>
</svg>
