<svg xmlns="http://www.w3.org/2000/svg" width="16" height="16" viewBox="0 0 16 16" fill="none"><rect width="16" height="16" fill="none"/>
<path fill-rule="evenodd" clip-rule="evenodd" d="M2.08008 4.73616C2.08008 2.85683 3.60358 1.33333 5.48291 1.33333H10.5115C12.3908 1.33333 13.9143 2.85683 13.9143 4.73616V9.22682C13.9143 11.1062 12.3908 12.6296 10.5115 12.6296H9.89017L8.53256 14.4398C8.3057 14.7423 7.85199 14.7423 7.62513 14.4398L6.26752 12.6296H5.48291C3.60358 12.6296 2.08008 11.1061 2.08008 9.22682V4.73616ZM8.63536 7.95424H7.80223V7.5045C7.80223 7.30789 7.82435 7.1629 7.86859 7.06951C7.91774 6.9712 8.02096 6.84341 8.17824 6.68612L8.71646 6.14791C8.82951 6.02503 8.88603 5.87265 8.88603 5.69079C8.88603 5.50893 8.82705 5.35902 8.70909 5.24105C8.59112 5.11817 8.43875 5.05673 8.25197 5.05673C8.06519 5.05673 7.90791 5.11571 7.78011 5.23368C7.65723 5.34673 7.58596 5.4991 7.5663 5.69079H6.67419C6.72334 5.25334 6.89292 4.91173 7.18292 4.66597C7.47783 4.4153 7.84401 4.28996 8.28146 4.28996C8.71892 4.28996 9.07527 4.41038 9.35052 4.65123C9.62577 4.88716 9.7634 5.21893 9.7634 5.64656C9.7634 5.94147 9.6823 6.18723 9.52009 6.38384C9.42671 6.5018 9.35544 6.58536 9.30628 6.63451C9.25713 6.68366 9.19078 6.74756 9.10722 6.8262C9.02857 6.89993 8.95976 6.96629 8.90078 7.02527C8.84671 7.07934 8.80248 7.12603 8.76807 7.16535C8.6796 7.27349 8.63536 7.42586 8.63536 7.62247V7.95424ZM8.22985 9.59101C8.07748 9.59101 7.94477 9.5394 7.83172 9.43618C7.71867 9.32804 7.66215 9.20025 7.66215 9.05279C7.66215 8.90042 7.71621 8.77017 7.82435 8.66203C7.9374 8.5539 8.07011 8.49983 8.22248 8.49983C8.37977 8.49983 8.51494 8.5539 8.62799 8.66203C8.74103 8.76525 8.79756 8.89305 8.79756 9.04542C8.79756 9.19288 8.74103 9.32067 8.62799 9.42881C8.51985 9.53694 8.38714 9.59101 8.22985 9.59101Z" fill="black"/>
</svg>
