<svg xmlns="http://www.w3.org/2000/svg" width="24" height="24" viewBox="0 0 24 24" fill="none"><rect width="24" height="24" fill="none"/>
<path fill-rule="evenodd" clip-rule="evenodd" d="M3.12109 7.10425C3.12109 4.28525 5.40635 2 8.22534 2H15.7682C18.5872 2 20.8725 4.28525 20.8725 7.10425V13.8402C20.8725 16.6592 18.5872 18.9445 15.7682 18.9445H14.8362L12.7998 21.6597C12.4595 22.1134 11.779 22.1134 11.4387 21.6597L9.40225 18.9445H8.22534C5.40634 18.9445 3.12109 16.6592 3.12109 13.8402V7.10425ZM12.954 11.9314H11.7043V11.2568C11.7043 10.9618 11.7375 10.7444 11.8039 10.6043C11.8776 10.4568 12.0324 10.2651 12.2683 10.0292L13.0757 9.22187C13.2452 9.03755 13.33 8.80899 13.33 8.5362C13.33 8.2634 13.2416 8.03853 13.0646 7.86158C12.8877 7.67726 12.6591 7.5851 12.3789 7.5851C12.0988 7.5851 11.8628 7.67358 11.6711 7.85052C11.4868 8.0201 11.3799 8.24866 11.3504 8.5362H10.0123C10.086 7.88002 10.3404 7.36761 10.7753 6.99897C11.2177 6.62295 11.767 6.43495 12.4232 6.43495C13.0794 6.43495 13.6139 6.61558 14.0268 6.97685C14.4396 7.33074 14.6461 7.82841 14.6461 8.46984C14.6461 8.91221 14.5244 9.28085 14.2811 9.57576C14.141 9.75271 14.0341 9.87805 13.9604 9.95177C13.8867 10.0255 13.7871 10.1213 13.6618 10.2393C13.5438 10.3499 13.4406 10.4494 13.3521 10.5379C13.271 10.619 13.2047 10.6891 13.1531 10.748C13.0204 10.9102 12.954 11.1388 12.954 11.4337V11.9314ZM12.3458 14.3865C12.1172 14.3865 11.9181 14.3091 11.7486 14.1543C11.579 13.9921 11.4942 13.8004 11.4942 13.5792C11.4942 13.3506 11.5753 13.1553 11.7375 12.9931C11.9071 12.8309 12.1061 12.7498 12.3347 12.7498C12.5706 12.7498 12.7734 12.8309 12.943 12.9931C13.1125 13.1479 13.1973 13.3396 13.1973 13.5681C13.1973 13.7893 13.1125 13.981 12.943 14.1432C12.7808 14.3054 12.5817 14.3865 12.3458 14.3865Z" fill="black"/>
</svg>
