<svg xmlns="http://www.w3.org/2000/svg" width="24" height="25" viewBox="0 0 24 25" fill="none"><rect width="24" height="25" fill="none"/>
<path fill-rule="evenodd" clip-rule="evenodd" d="M1.56689 6.50476C1.56689 3.19105 4.25319 0.504761 7.5669 0.504761H16.4335C19.7472 0.504761 22.4335 3.19105 22.4335 6.50476V14.4228C22.4335 17.7366 19.7472 20.4228 16.4335 20.4228H15.3379L12.9441 23.6146C12.5441 24.1479 11.7441 24.1479 11.3441 23.6146L8.95034 20.4228H7.56689C4.25318 20.4228 1.56689 17.7366 1.56689 14.4228V6.50476ZM13.1254 12.179H11.6564V11.386C11.6564 11.0393 11.6954 10.7837 11.7734 10.619C11.8601 10.4457 12.0421 10.2203 12.3194 9.943L13.2684 8.994C13.4677 8.77733 13.5674 8.50867 13.5674 8.188C13.5674 7.86733 13.4634 7.603 13.2554 7.395C13.0474 7.17833 12.7787 7.07 12.4494 7.07C12.1201 7.07 11.8427 7.174 11.6174 7.382C11.4007 7.58133 11.2751 7.85 11.2404 8.188H9.6674C9.75407 7.41667 10.0531 6.81433 10.5644 6.381C11.0844 5.939 11.7301 5.718 12.5014 5.718C13.2727 5.718 13.9011 5.93033 14.3864 6.355C14.8717 6.771 15.1144 7.356 15.1144 8.11C15.1144 8.63 14.9714 9.06333 14.6854 9.41C14.5207 9.618 14.3951 9.76533 14.3084 9.852C14.2217 9.93867 14.1047 10.0513 13.9574 10.19C13.8187 10.32 13.6974 10.437 13.5934 10.541C13.4981 10.6363 13.4201 10.7187 13.3594 10.788C13.2034 10.9787 13.1254 11.2473 13.1254 11.594V12.179ZM12.4104 15.065C12.1417 15.065 11.9077 14.974 11.7084 14.792C11.5091 14.6013 11.4094 14.376 11.4094 14.116C11.4094 13.8473 11.5047 13.6177 11.6954 13.427C11.8947 13.2363 12.1287 13.141 12.3974 13.141C12.6747 13.141 12.9131 13.2363 13.1124 13.427C13.3117 13.609 13.4114 13.8343 13.4114 14.103C13.4114 14.363 13.3117 14.5883 13.1124 14.779C12.9217 14.9697 12.6877 15.065 12.4104 15.065Z" fill="black"/>
</svg>
