<svg xmlns="http://www.w3.org/2000/svg" width="24" height="24" viewBox="0 0 24 24" fill="none"><rect width="24" height="24" fill="none"/>
<path fill-rule="evenodd" clip-rule="evenodd" d="M22.001 12C22.001 17.5228 17.5238 22 12.001 22C6.47813 22 2.00098 17.5228 2.00098 12C2.00098 6.47715 6.47813 2 12.001 2C17.5238 2 22.001 6.47715 22.001 12ZM20.3345 12C20.3345 16.6024 16.6036 20.3333 12.0012 20.3333C7.39884 20.3333 3.66788 16.6024 3.66788 12C3.66788 7.39763 7.39884 3.66667 12.0012 3.66667C16.6036 3.66667 20.3345 7.39763 20.3345 12ZM11.1676 9.50013C11.1676 9.50013 11.1677 9.49491 11.1686 9.48431C11.1696 9.47306 11.1714 9.45783 11.1743 9.439C11.1803 9.401 11.1905 9.35356 11.2062 9.30054C11.2383 9.19236 11.2878 9.07959 11.3549 8.98169C11.4713 8.812 11.6454 8.66667 12.001 8.66667C12.396 8.66667 12.5625 8.81261 12.658 8.94526C12.7841 9.12039 12.8343 9.35558 12.8343 9.5C12.8343 10.0758 12.6619 10.4609 12.1819 11.0648C12.1023 11.165 12.0247 11.2685 11.9507 11.3713C11.7962 11.586 11.6574 11.7978 11.5486 11.9705C11.4669 12.0999 11.3998 12.2112 11.3526 12.2908C11.329 12.3306 11.3104 12.3627 11.2973 12.3852L11.2821 12.4118L11.2777 12.4194L11.2757 12.423C11.049 12.8236 11.1901 13.332 11.5906 13.5586C11.9912 13.7852 12.4999 13.6437 12.7265 13.2432L12.729 13.2389L12.7403 13.2192C12.7506 13.2014 12.7663 13.1745 12.7866 13.1402C12.8273 13.0714 12.8864 12.9735 12.9584 12.8593C13.1046 12.6274 13.2947 12.3434 13.4867 12.1018C14.0971 11.3337 14.501 10.5909 14.501 9.5C14.501 9.08887 14.3845 8.49072 14.0106 7.97141C13.6061 7.40961 12.9392 7 12.001 7C11.0232 7 10.364 7.47967 9.98037 8.03914C9.62718 8.55421 9.50098 9.13825 9.50098 9.5C9.50098 9.96024 9.87407 10.3333 10.3343 10.3333C10.7945 10.3333 11.1676 9.96037 11.1676 9.50013ZM12.001 16.1667C12.4612 16.1667 12.8343 15.7936 12.8343 15.3333C12.8343 14.8731 12.4612 14.5 12.001 14.5C11.5407 14.5 11.1676 14.8731 11.1676 15.3333C11.1676 15.7936 11.5407 16.1667 12.001 16.1667Z" fill="black"/>
</svg>
