<svg xmlns="http://www.w3.org/2000/svg" width="17" height="17" viewBox="0 0 17 17" fill="none"><rect width="17" height="17" fill="none"/>
<path fill-rule="evenodd" clip-rule="evenodd" d="M14.6883 8.00666C14.6883 11.6886 11.7035 14.6733 8.02165 14.6733C4.33975 14.6733 1.35498 11.6886 1.35498 8.00666C1.35498 4.32476 4.33975 1.34 8.02165 1.34C11.7035 1.34 14.6883 4.32476 14.6883 8.00666ZM13.5773 8.00668C13.5773 11.0749 11.09 13.5622 8.02177 13.5622C4.95352 13.5622 2.46622 11.0749 2.46622 8.00668C2.46622 4.93843 4.95352 2.45112 8.02177 2.45112C11.09 2.45112 13.5773 4.93843 13.5773 8.00668ZM7.46607 6.3401C7.46607 6.3401 7.46611 6.33661 7.46672 6.32955C7.46737 6.32205 7.46854 6.3119 7.47052 6.29935C7.47453 6.27401 7.48131 6.24238 7.49179 6.20704C7.51316 6.13492 7.54616 6.05974 7.59091 5.99447C7.66849 5.88134 7.78459 5.78446 8.02162 5.78446C8.285 5.78446 8.39599 5.88175 8.45966 5.97018C8.54372 6.08694 8.57718 6.24373 8.57718 6.34001C8.57718 6.72386 8.46223 6.98063 8.14225 7.38324C8.08918 7.45001 8.03745 7.51901 7.98811 7.58757C7.88513 7.73068 7.79257 7.87188 7.72001 7.98698C7.66559 8.07329 7.62081 8.1475 7.58939 8.20053C7.57366 8.22709 7.56122 8.24845 7.55252 8.26349L7.54234 8.28121L7.53945 8.28627L7.53809 8.28867C7.387 8.55572 7.48101 8.89468 7.74806 9.04577C8.01509 9.19684 8.35422 9.1025 8.50533 8.8355L8.50697 8.83261L8.51452 8.81949C8.52139 8.8076 8.53183 8.78968 8.54538 8.7668C8.57253 8.72095 8.61192 8.65568 8.65991 8.57956C8.7574 8.42493 8.8841 8.23562 9.0121 8.07456C9.41906 7.56251 9.68829 7.06728 9.68829 6.34001C9.68829 6.06592 9.61063 5.66716 9.36136 5.32095C9.0917 4.94642 8.64713 4.67334 8.02162 4.67334C7.36977 4.67334 6.93031 4.99312 6.67455 5.36611C6.43909 5.70948 6.35495 6.09884 6.35495 6.34001C6.35495 6.64684 6.60368 6.89557 6.91051 6.89557C7.21733 6.89557 7.46607 6.64692 7.46607 6.3401ZM8.02162 10.7845C8.32845 10.7845 8.57718 10.5357 8.57718 10.2289C8.57718 9.92208 8.32845 9.67335 8.02162 9.67335C7.7148 9.67335 7.46607 9.92208 7.46607 10.2289C7.46607 10.5357 7.7148 10.7845 8.02162 10.7845Z" fill="black"/>
</svg>
