<svg xmlns="http://www.w3.org/2000/svg" width="17" height="17" viewBox="0 0 17 17" fill="none"><rect width="17" height="17" fill="none"/>
<path d="M8.20963 2.53025C8.47764 2.2699 8.91216 2.2699 9.18017 2.53025L11.239 4.53025C11.507 4.7906 11.507 5.21271 11.239 5.47306L9.18017 7.47306C8.91216 7.73341 8.47764 7.73341 8.20963 7.47306C7.94162 7.21271 7.94162 6.7906 8.20963 6.53025L9.09691 5.66832H8.00863C5.57392 5.66832 3.54784 7.63651 3.54784 10.0017C3.54784 12.3668 5.57392 14.335 8.00863 14.335C10.4433 14.335 12.4694 12.3668 12.4694 10.0017C12.4694 9.63347 12.7767 9.33499 13.1557 9.33499C13.5347 9.33499 13.842 9.63347 13.842 10.0017C13.842 13.1032 11.2014 15.6683 8.00863 15.6683C4.81588 15.6683 2.17529 13.1032 2.17529 10.0017C2.17529 6.90013 4.81588 4.33499 8.00863 4.33499H9.09691L8.20963 3.47306C7.94162 3.21271 7.94162 2.7906 8.20963 2.53025Z" fill="black"/>
</svg>
