<svg xmlns="http://www.w3.org/2000/svg" width="16" height="16" viewBox="0 0 16 16" fill="none"><rect width="16" height="16" fill="none"/>
<path d="M8.16764 1.52859C8.43565 1.26824 8.87017 1.26824 9.13818 1.52859L11.197 3.52859C11.465 3.78894 11.465 4.21105 11.197 4.4714L9.13818 6.4714C8.87017 6.73175 8.43565 6.73175 8.16764 6.4714C7.89963 6.21105 7.89963 5.78894 8.16764 5.52859L9.05492 4.66666H7.96663C5.53193 4.66666 3.50585 6.63485 3.50585 8.99999C3.50585 11.3651 5.53193 13.3333 7.96663 13.3333C10.4013 13.3333 12.4274 11.3651 12.4274 8.99999C12.4274 8.6318 12.7347 8.33333 13.1137 8.33333C13.4927 8.33333 13.8 8.6318 13.8 8.99999C13.8 12.1015 11.1594 14.6667 7.96663 14.6667C4.77389 14.6667 2.1333 12.1015 2.1333 8.99999C2.1333 5.89847 4.77389 3.33333 7.96663 3.33333H9.05492L8.16764 2.4714C7.89963 2.21105 7.89963 1.78894 8.16764 1.52859Z" fill="black"/>
</svg>
