<svg xmlns="http://www.w3.org/2000/svg" width="24" height="24" viewBox="0 0 24 24" fill="none"><rect width="24" height="24" fill="none"/>
<path d="M12.2524 2.29289C12.6544 1.90237 13.3062 1.90237 13.7082 2.29289L16.7965 5.29289C17.1985 5.68342 17.1985 6.31658 16.7965 6.70711L13.7082 9.70711C13.3062 10.0976 12.6544 10.0976 12.2524 9.70711C11.8504 9.31658 11.8504 8.68342 12.2524 8.29289L13.5834 7H11.9509C8.29887 7 5.25975 9.95228 5.25975 13.5C5.25975 17.0477 8.29887 20 11.9509 20C15.603 20 18.6421 17.0477 18.6421 13.5C18.6421 12.9477 19.103 12.5 19.6715 12.5C20.24 12.5 20.7009 12.9477 20.7009 13.5C20.7009 18.1523 16.74 22 11.9509 22C7.16181 22 3.20093 18.1523 3.20093 13.5C3.20093 8.84771 7.16181 5 11.9509 5H13.5834L12.2524 3.70711C11.8504 3.31658 11.8504 2.68342 12.2524 2.29289Z" fill="black"/>
</svg>
