<svg xmlns="http://www.w3.org/2000/svg" width="25" height="24" viewBox="0 0 25 24" fill="none"><rect width="25" height="24" fill="none"/>
<path d="M12.3064 2.29289C12.7084 1.90237 13.3602 1.90237 13.7622 2.29289L16.8504 5.29289C17.2524 5.68342 17.2524 6.31658 16.8504 6.70711L13.7622 9.70711C13.3602 10.0976 12.7084 10.0976 12.3064 9.70711C11.9044 9.31658 11.9044 8.68342 12.3064 8.29289L13.6373 7H12.0049C8.35282 7 5.31371 9.95228 5.31371 13.5C5.31371 17.0477 8.35282 20 12.0049 20C15.6569 20 18.6961 17.0477 18.6961 13.5C18.6961 12.9477 19.1569 12.5 19.7255 12.5C20.294 12.5 20.7549 12.9477 20.7549 13.5C20.7549 18.1523 16.794 22 12.0049 22C7.21577 22 3.25488 18.1523 3.25488 13.5C3.25488 8.84771 7.21577 5 12.0049 5H13.6373L12.3064 3.70711C11.9044 3.31658 11.9044 2.68342 12.3064 2.29289Z" fill="black"/>
</svg>
