<svg xmlns="http://www.w3.org/2000/svg" width="16" height="16" viewBox="0 0 16 16" fill="none"><rect width="16" height="16" fill="none"/>
<path d="M7.60498 11.151C7.60498 11.3697 7.77683 11.5416 7.99561 11.5416C8.21438 11.5416 8.38623 11.3697 8.38623 11.151C8.38623 10.9322 8.21438 10.7604 7.99561 10.7604C7.77683 10.7604 7.60498 10.9322 7.60498 11.151Z" fill="black"/>
<path fill-rule="evenodd" clip-rule="evenodd" d="M4.87061 1.33331H11.1206C11.3365 1.33331 11.5112 1.50803 11.5112 1.72394V11.151C11.5112 13.0896 9.93422 14.6666 7.99561 14.6666C6.05699 14.6666 4.47998 13.0896 4.47998 11.151V1.72394C4.47998 1.50803 4.65469 1.33331 4.87061 1.33331ZM6.04248 11.151C6.04248 10.0729 6.91748 9.1979 7.99561 9.1979C9.07373 9.1979 9.94873 10.0729 9.94873 11.151C9.94873 12.2291 9.07373 13.1041 7.99561 13.1041C6.91748 13.1041 6.04248 12.2291 6.04248 11.151ZM6.82373 4.87498C6.82373 5.09071 6.64883 5.2656 6.43311 5.2656C6.21738 5.2656 6.04248 5.09071 6.04248 4.87498C6.04248 4.65925 6.21738 4.48435 6.43311 4.48435C6.64883 4.48435 6.82373 4.65925 6.82373 4.87498ZM8.38623 4.87498C8.38623 5.09071 8.21133 5.2656 7.99561 5.2656C7.77988 5.2656 7.60498 5.09071 7.60498 4.87498C7.60498 4.65925 7.77988 4.48435 7.99561 4.48435C8.21133 4.48435 8.38623 4.65925 8.38623 4.87498ZM9.16748 4.87498C9.16748 4.65925 9.34238 4.48435 9.55811 4.48435C9.77383 4.48435 9.94873 4.65925 9.94873 4.87498C9.94873 5.09071 9.77383 5.2656 9.55811 5.2656C9.34238 5.2656 9.16748 5.09071 9.16748 4.87498ZM6.82373 3.31248C6.82373 3.52821 6.64883 3.7031 6.43311 3.7031C6.21738 3.7031 6.04248 3.52821 6.04248 3.31248C6.04248 3.09675 6.21738 2.92185 6.43311 2.92185C6.64883 2.92185 6.82373 3.09675 6.82373 3.31248ZM9.94873 3.31248C9.94873 3.52821 9.77383 3.7031 9.55811 3.7031C9.34238 3.7031 9.16748 3.52821 9.16748 3.31248C9.16748 3.09675 9.34238 2.92185 9.55811 2.92185C9.77383 2.92185 9.94873 3.09675 9.94873 3.31248ZM9.16748 6.43748C9.16748 6.22175 9.34238 6.04685 9.55811 6.04685C9.77383 6.04685 9.94873 6.22175 9.94873 6.43748C9.94873 6.65321 9.77383 6.8281 9.55811 6.8281C9.34238 6.8281 9.16748 6.65321 9.16748 6.43748ZM8.38623 6.43748C8.38623 6.65321 8.21133 6.8281 7.99561 6.8281C7.77988 6.8281 7.60498 6.65321 7.60498 6.43748C7.60498 6.22175 7.77988 6.04685 7.99561 6.04685C8.21133 6.04685 8.38623 6.22175 8.38623 6.43748ZM6.82373 6.43748C6.82373 6.65321 6.64883 6.8281 6.43311 6.8281C6.21738 6.8281 6.04248 6.65321 6.04248 6.43748C6.04248 6.22175 6.21738 6.04685 6.43311 6.04685C6.64883 6.04685 6.82373 6.22175 6.82373 6.43748ZM7.21436 8.3906H6.43311C6.21719 8.3906 6.04248 8.21589 6.04248 7.99998C6.04248 7.78407 6.21719 7.60935 6.43311 7.60935H7.21436C7.43027 7.60935 7.60498 7.78407 7.60498 7.99998C7.60498 8.21589 7.43027 8.3906 7.21436 8.3906ZM8.38623 7.99998C8.38623 7.78407 8.56094 7.60935 8.77686 7.60935H9.55811C9.77402 7.60935 9.94873 7.78407 9.94873 7.99998C9.94873 8.21589 9.77402 8.3906 9.55811 8.3906H8.77686C8.56094 8.3906 8.38623 8.21589 8.38623 7.99998Z" fill="black"/>
</svg>
