<svg xmlns="http://www.w3.org/2000/svg" width="24" height="24" viewBox="0 0 24 24" fill="none"><rect width="24" height="24" fill="none"/>
<path d="M11.4077 16.7266C11.4077 17.0546 11.6655 17.3125 11.9937 17.3125C12.3218 17.3125 12.5796 17.0546 12.5796 16.7266C12.5796 16.3984 12.3218 16.1406 11.9937 16.1406C11.6655 16.1406 11.4077 16.3984 11.4077 16.7266Z" fill="black"/>
<path fill-rule="evenodd" clip-rule="evenodd" d="M7.30615 2H16.6812C17.005 2 17.2671 2.26207 17.2671 2.58594V16.7266C17.2671 19.6345 14.9016 22 11.9937 22C9.08572 22 6.72021 19.6345 6.72021 16.7266V2.58594C6.72021 2.26207 6.98229 2 7.30615 2ZM9.06396 16.7266C9.06396 15.1094 10.3765 13.7969 11.9937 13.7969C13.6108 13.7969 14.9233 15.1094 14.9233 16.7266C14.9233 18.3438 13.6108 19.6562 11.9937 19.6562C10.3765 19.6562 9.06396 18.3438 9.06396 16.7266ZM10.2358 7.3125C10.2358 7.63609 9.9735 7.89844 9.6499 7.89844C9.32631 7.89844 9.06396 7.63609 9.06396 7.3125C9.06396 6.98891 9.32631 6.72656 9.6499 6.72656C9.9735 6.72656 10.2358 6.98891 10.2358 7.3125ZM12.5796 7.3125C12.5796 7.63609 12.3172 7.89844 11.9937 7.89844C11.6701 7.89844 11.4077 7.63609 11.4077 7.3125C11.4077 6.98891 11.6701 6.72656 11.9937 6.72656C12.3172 6.72656 12.5796 6.98891 12.5796 7.3125ZM13.7515 7.3125C13.7515 6.98891 14.0138 6.72656 14.3374 6.72656C14.661 6.72656 14.9233 6.98891 14.9233 7.3125C14.9233 7.63609 14.661 7.89844 14.3374 7.89844C14.0138 7.89844 13.7515 7.63609 13.7515 7.3125ZM10.2358 4.96875C10.2358 5.29234 9.9735 5.55469 9.6499 5.55469C9.32631 5.55469 9.06396 5.29234 9.06396 4.96875C9.06396 4.64516 9.32631 4.38281 9.6499 4.38281C9.9735 4.38281 10.2358 4.64516 10.2358 4.96875ZM14.9233 4.96875C14.9233 5.29234 14.661 5.55469 14.3374 5.55469C14.0138 5.55469 13.7515 5.29234 13.7515 4.96875C13.7515 4.64516 14.0138 4.38281 14.3374 4.38281C14.661 4.38281 14.9233 4.64516 14.9233 4.96875ZM13.7515 9.65625C13.7515 9.33266 14.0138 9.07031 14.3374 9.07031C14.661 9.07031 14.9233 9.33266 14.9233 9.65625C14.9233 9.97984 14.661 10.2422 14.3374 10.2422C14.0138 10.2422 13.7515 9.97984 13.7515 9.65625ZM12.5796 9.65625C12.5796 9.97984 12.3172 10.2422 11.9937 10.2422C11.6701 10.2422 11.4077 9.97984 11.4077 9.65625C11.4077 9.33266 11.6701 9.07031 11.9937 9.07031C12.3172 9.07031 12.5796 9.33266 12.5796 9.65625ZM10.2358 9.65625C10.2358 9.97984 9.9735 10.2422 9.6499 10.2422C9.32631 10.2422 9.06396 9.97984 9.06396 9.65625C9.06396 9.33266 9.32631 9.07031 9.6499 9.07031C9.9735 9.07031 10.2358 9.33266 10.2358 9.65625ZM10.8218 12.5859H9.6499C9.32604 12.5859 9.06396 12.3239 9.06396 12C9.06396 11.6761 9.32604 11.4141 9.6499 11.4141H10.8218C11.1456 11.4141 11.4077 11.6761 11.4077 12C11.4077 12.3239 11.1456 12.5859 10.8218 12.5859ZM12.5796 12C12.5796 11.6761 12.8417 11.4141 13.1655 11.4141H14.3374C14.6613 11.4141 14.9233 11.6761 14.9233 12C14.9233 12.3239 14.6613 12.5859 14.3374 12.5859H13.1655C12.8417 12.5859 12.5796 12.3239 12.5796 12Z" fill="black"/>
</svg>
