<svg xmlns="http://www.w3.org/2000/svg" width="24" height="25" viewBox="0 0 24 25" fill="none"><rect width="24" height="25" fill="none"/>
<path d="M11.4075 16.7316C11.4075 17.0597 11.6652 17.3175 11.9934 17.3175C12.3216 17.3175 12.5793 17.0597 12.5793 16.7316C12.5793 16.4034 12.3216 16.1456 11.9934 16.1456C11.6652 16.1456 11.4075 16.4034 11.4075 16.7316Z" fill="black"/>
<path fill-rule="evenodd" clip-rule="evenodd" d="M7.30591 2.005H16.6809C17.0048 2.005 17.2668 2.26708 17.2668 2.59094V16.7316C17.2668 19.6395 14.9013 22.005 11.9934 22.005C9.08548 22.005 6.71997 19.6395 6.71997 16.7316V2.59094C6.71997 2.26708 6.98204 2.005 7.30591 2.005ZM9.06372 16.7316C9.06372 15.1144 10.3762 13.8019 11.9934 13.8019C13.6106 13.8019 14.9231 15.1144 14.9231 16.7316C14.9231 18.3488 13.6106 19.6613 11.9934 19.6613C10.3762 19.6613 9.06372 18.3488 9.06372 16.7316ZM10.2356 7.3175C10.2356 7.6411 9.97325 7.90344 9.64966 7.90344C9.32606 7.90344 9.06372 7.6411 9.06372 7.3175C9.06372 6.99391 9.32606 6.73157 9.64966 6.73157C9.97325 6.73157 10.2356 6.99391 10.2356 7.3175ZM12.5793 7.3175C12.5793 7.6411 12.317 7.90344 11.9934 7.90344C11.6698 7.90344 11.4075 7.6411 11.4075 7.3175C11.4075 6.99391 11.6698 6.73157 11.9934 6.73157C12.317 6.73157 12.5793 6.99391 12.5793 7.3175ZM13.7512 7.3175C13.7512 6.99391 14.0136 6.73157 14.3372 6.73157C14.6608 6.73157 14.9231 6.99391 14.9231 7.3175C14.9231 7.6411 14.6608 7.90344 14.3372 7.90344C14.0136 7.90344 13.7512 7.6411 13.7512 7.3175ZM10.2356 4.97375C10.2356 5.29735 9.97325 5.55969 9.64966 5.55969C9.32606 5.55969 9.06372 5.29735 9.06372 4.97375C9.06372 4.65016 9.32606 4.38782 9.64966 4.38782C9.97325 4.38782 10.2356 4.65016 10.2356 4.97375ZM14.9231 4.97375C14.9231 5.29735 14.6608 5.55969 14.3372 5.55969C14.0136 5.55969 13.7512 5.29735 13.7512 4.97375C13.7512 4.65016 14.0136 4.38782 14.3372 4.38782C14.6608 4.38782 14.9231 4.65016 14.9231 4.97375ZM13.7512 9.66125C13.7512 9.33766 14.0136 9.07532 14.3372 9.07532C14.6608 9.07532 14.9231 9.33766 14.9231 9.66125C14.9231 9.98485 14.6608 10.2472 14.3372 10.2472C14.0136 10.2472 13.7512 9.98485 13.7512 9.66125ZM12.5793 9.66125C12.5793 9.98485 12.317 10.2472 11.9934 10.2472C11.6698 10.2472 11.4075 9.98485 11.4075 9.66125C11.4075 9.33766 11.6698 9.07532 11.9934 9.07532C12.317 9.07532 12.5793 9.33766 12.5793 9.66125ZM10.2356 9.66125C10.2356 9.98485 9.97325 10.2472 9.64966 10.2472C9.32606 10.2472 9.06372 9.98485 9.06372 9.66125C9.06372 9.33766 9.32606 9.07532 9.64966 9.07532C9.97325 9.07532 10.2356 9.33766 10.2356 9.66125ZM10.8215 12.5909H9.64966C9.32579 12.5909 9.06372 12.3289 9.06372 12.005C9.06372 11.6811 9.32579 11.4191 9.64966 11.4191H10.8215C11.1454 11.4191 11.4075 11.6811 11.4075 12.005C11.4075 12.3289 11.1454 12.5909 10.8215 12.5909ZM12.5793 12.005C12.5793 11.6811 12.8414 11.4191 13.1653 11.4191H14.3372C14.661 11.4191 14.9231 11.6811 14.9231 12.005C14.9231 12.3289 14.661 12.5909 14.3372 12.5909H13.1653C12.8414 12.5909 12.5793 12.3289 12.5793 12.005Z" fill="black"/>
</svg>
