<svg xmlns="http://www.w3.org/2000/svg" width="17" height="17" viewBox="0 0 17 17" fill="none"><rect width="17" height="17" fill="none"/>
<path d="M7.62012 11.1577C7.62012 11.3765 7.79197 11.5484 8.01074 11.5484C8.22952 11.5484 8.40137 11.3765 8.40137 11.1577C8.40137 10.939 8.22952 10.7671 8.01074 10.7671C7.79197 10.7671 7.62012 10.939 7.62012 11.1577Z" fill="black"/>
<path fill-rule="evenodd" clip-rule="evenodd" d="M4.88574 1.34003H11.1357C11.3517 1.34003 11.5264 1.51474 11.5264 1.73065V11.1577C11.5264 13.0964 9.94936 14.6734 8.01074 14.6734C6.07212 14.6734 4.49512 13.0964 4.49512 11.1577V1.73065C4.49512 1.51474 4.66983 1.34003 4.88574 1.34003ZM6.05762 11.1577C6.05762 10.0796 6.93262 9.20461 8.01074 9.20461C9.08887 9.20461 9.96387 10.0796 9.96387 11.1577C9.96387 12.2359 9.08887 13.1109 8.01074 13.1109C6.93262 13.1109 6.05762 12.2359 6.05762 11.1577ZM6.83887 4.88169C6.83887 5.09742 6.66397 5.27232 6.44824 5.27232C6.23251 5.27232 6.05762 5.09742 6.05762 4.88169C6.05762 4.66596 6.23251 4.49107 6.44824 4.49107C6.66397 4.49107 6.83887 4.66596 6.83887 4.88169ZM8.40137 4.88169C8.40137 5.09742 8.22647 5.27232 8.01074 5.27232C7.79501 5.27232 7.62012 5.09742 7.62012 4.88169C7.62012 4.66596 7.79501 4.49107 8.01074 4.49107C8.22647 4.49107 8.40137 4.66596 8.40137 4.88169ZM9.18262 4.88169C9.18262 4.66596 9.35751 4.49107 9.57324 4.49107C9.78897 4.49107 9.96387 4.66596 9.96387 4.88169C9.96387 5.09742 9.78897 5.27232 9.57324 5.27232C9.35751 5.27232 9.18262 5.09742 9.18262 4.88169ZM6.83887 3.31919C6.83887 3.53492 6.66397 3.70982 6.44824 3.70982C6.23251 3.70982 6.05762 3.53492 6.05762 3.31919C6.05762 3.10346 6.23251 2.92857 6.44824 2.92857C6.66397 2.92857 6.83887 3.10346 6.83887 3.31919ZM9.96387 3.31919C9.96387 3.53492 9.78897 3.70982 9.57324 3.70982C9.35751 3.70982 9.18262 3.53492 9.18262 3.31919C9.18262 3.10346 9.35751 2.92857 9.57324 2.92857C9.78897 2.92857 9.96387 3.10346 9.96387 3.31919ZM9.18262 6.44419C9.18262 6.22846 9.35751 6.05357 9.57324 6.05357C9.78897 6.05357 9.96387 6.22846 9.96387 6.44419C9.96387 6.65992 9.78897 6.83482 9.57324 6.83482C9.35751 6.83482 9.18262 6.65992 9.18262 6.44419ZM8.40137 6.44419C8.40137 6.65992 8.22647 6.83482 8.01074 6.83482C7.79501 6.83482 7.62012 6.65992 7.62012 6.44419C7.62012 6.22846 7.79501 6.05357 8.01074 6.05357C8.22647 6.05357 8.40137 6.22846 8.40137 6.44419ZM6.83887 6.44419C6.83887 6.65992 6.66397 6.83482 6.44824 6.83482C6.23251 6.83482 6.05762 6.65992 6.05762 6.44419C6.05762 6.22846 6.23251 6.05357 6.44824 6.05357C6.66397 6.05357 6.83887 6.22846 6.83887 6.44419ZM7.22949 8.39732H6.44824C6.23233 8.39732 6.05762 8.2226 6.05762 8.00669C6.05762 7.79078 6.23233 7.61607 6.44824 7.61607H7.22949C7.4454 7.61607 7.62012 7.79078 7.62012 8.00669C7.62012 8.2226 7.4454 8.39732 7.22949 8.39732ZM8.40137 8.00669C8.40137 7.79078 8.57608 7.61607 8.79199 7.61607H9.57324C9.78915 7.61607 9.96387 7.79078 9.96387 8.00669C9.96387 8.2226 9.78915 8.39732 9.57324 8.39732H8.79199C8.57608 8.39732 8.40137 8.2226 8.40137 8.00669Z" fill="black"/>
</svg>
