<svg xmlns="http://www.w3.org/2000/svg" width="24" height="24" viewBox="0 0 24 24" fill="none"><rect width="24" height="24" fill="none"/>
<path d="M11.4084 16.7266C11.4084 17.0546 11.6662 17.3125 11.9944 17.3125C12.3225 17.3125 12.5803 17.0546 12.5803 16.7266C12.5803 16.3984 12.3225 16.1406 11.9944 16.1406C11.6662 16.1406 11.4084 16.3984 11.4084 16.7266Z" fill="black"/>
<path fill-rule="evenodd" clip-rule="evenodd" d="M7.30688 2H16.6819C17.0058 2 17.2678 2.26207 17.2678 2.58594V16.7266C17.2678 19.6345 14.9023 22 11.9944 22C9.08646 22 6.72095 19.6345 6.72095 16.7266V2.58594C6.72095 2.26207 6.98302 2 7.30688 2ZM9.0647 16.7266C9.0647 15.1094 10.3772 13.7969 11.9944 13.7969C13.6116 13.7969 14.9241 15.1094 14.9241 16.7266C14.9241 18.3438 13.6116 19.6562 11.9944 19.6562C10.3772 19.6562 9.0647 18.3438 9.0647 16.7266ZM10.2366 7.3125C10.2366 7.63609 9.97423 7.89844 9.65063 7.89844C9.32704 7.89844 9.0647 7.63609 9.0647 7.3125C9.0647 6.98891 9.32704 6.72656 9.65063 6.72656C9.97423 6.72656 10.2366 6.98891 10.2366 7.3125ZM12.5803 7.3125C12.5803 7.63609 12.318 7.89844 11.9944 7.89844C11.6708 7.89844 11.4084 7.63609 11.4084 7.3125C11.4084 6.98891 11.6708 6.72656 11.9944 6.72656C12.318 6.72656 12.5803 6.98891 12.5803 7.3125ZM13.7522 7.3125C13.7522 6.98891 14.0145 6.72656 14.3381 6.72656C14.6617 6.72656 14.9241 6.98891 14.9241 7.3125C14.9241 7.63609 14.6617 7.89844 14.3381 7.89844C14.0145 7.89844 13.7522 7.63609 13.7522 7.3125ZM10.2366 4.96875C10.2366 5.29234 9.97423 5.55469 9.65063 5.55469C9.32704 5.55469 9.0647 5.29234 9.0647 4.96875C9.0647 4.64516 9.32704 4.38281 9.65063 4.38281C9.97423 4.38281 10.2366 4.64516 10.2366 4.96875ZM14.9241 4.96875C14.9241 5.29234 14.6617 5.55469 14.3381 5.55469C14.0145 5.55469 13.7522 5.29234 13.7522 4.96875C13.7522 4.64516 14.0145 4.38281 14.3381 4.38281C14.6617 4.38281 14.9241 4.64516 14.9241 4.96875ZM13.7522 9.65625C13.7522 9.33266 14.0145 9.07031 14.3381 9.07031C14.6617 9.07031 14.9241 9.33266 14.9241 9.65625C14.9241 9.97984 14.6617 10.2422 14.3381 10.2422C14.0145 10.2422 13.7522 9.97984 13.7522 9.65625ZM12.5803 9.65625C12.5803 9.97984 12.318 10.2422 11.9944 10.2422C11.6708 10.2422 11.4084 9.97984 11.4084 9.65625C11.4084 9.33266 11.6708 9.07031 11.9944 9.07031C12.318 9.07031 12.5803 9.33266 12.5803 9.65625ZM10.2366 9.65625C10.2366 9.97984 9.97423 10.2422 9.65063 10.2422C9.32704 10.2422 9.0647 9.97984 9.0647 9.65625C9.0647 9.33266 9.32704 9.07031 9.65063 9.07031C9.97423 9.07031 10.2366 9.33266 10.2366 9.65625ZM10.8225 12.5859H9.65063C9.32677 12.5859 9.0647 12.3239 9.0647 12C9.0647 11.6761 9.32677 11.4141 9.65063 11.4141H10.8225C11.1464 11.4141 11.4084 11.6761 11.4084 12C11.4084 12.3239 11.1464 12.5859 10.8225 12.5859ZM12.5803 12C12.5803 11.6761 12.8424 11.4141 13.1663 11.4141H14.3381C14.662 11.4141 14.9241 11.6761 14.9241 12C14.9241 12.3239 14.662 12.5859 14.3381 12.5859H13.1663C12.8424 12.5859 12.5803 12.3239 12.5803 12Z" fill="black"/>
</svg>
