<svg xmlns="http://www.w3.org/2000/svg" width="24" height="24" viewBox="0 0 24 24" fill="none"><rect width="24" height="24" fill="none"/>
<path fill-rule="evenodd" clip-rule="evenodd" d="M12.001 22C17.5238 22 22.001 17.5228 22.001 12C22.001 6.47715 17.5238 2 12.001 2C6.47813 2 2.00098 6.47715 2.00098 12C2.00098 17.5228 6.47813 22 12.001 22ZM12.001 8.5C10.068 8.5 8.50098 10.067 8.50098 12H7.00098C7.00098 9.23858 9.23955 7 12.001 7C13.5319 7 14.9021 7.68804 15.8193 8.77177L16.001 7.5H17.001L17.001 11H13.501V10L14.7415 9.82278C14.1003 9.01674 13.111 8.5 12.001 8.5ZM15.501 12C15.501 13.933 13.934 15.5 12.001 15.5C10.891 15.5 9.90163 14.9833 9.26042 14.1772L10.501 14V13L7.00098 13L7.00098 16.5H8.00098L8.18266 15.2282C9.09983 16.312 10.4701 17 12.001 17C14.7624 17 17.001 14.7614 17.001 12H15.501Z" fill="black"/>
</svg>
