<svg xmlns="http://www.w3.org/2000/svg" width="25" height="24" viewBox="0 0 25 24" fill="none"><rect width="25" height="24" fill="none"/>
<path fill-rule="evenodd" clip-rule="evenodd" d="M12.0049 22C17.5277 22 22.0049 17.5228 22.0049 12C22.0049 6.47715 17.5277 2 12.0049 2C6.48204 2 2.00488 6.47715 2.00488 12C2.00488 17.5228 6.48204 22 12.0049 22ZM12.0049 8.5C10.0719 8.5 8.50488 10.067 8.50488 12H7.00488C7.00488 9.23858 9.24346 7 12.0049 7C13.5358 7 14.906 7.68804 15.8232 8.77177L16.0049 7.5H17.0049L17.0049 11H13.5049V10L14.7454 9.82278C14.1042 9.01674 13.1149 8.5 12.0049 8.5ZM15.5049 12C15.5049 13.933 13.9379 15.5 12.0049 15.5C10.8949 15.5 9.90554 14.9833 9.26433 14.1772L10.5049 14V13L7.00488 13L7.00488 16.5H8.00488L8.18656 15.2282C9.10373 16.312 10.474 17 12.0049 17C14.7663 17 17.0049 14.7614 17.0049 12H15.5049Z" fill="black"/>
</svg>
