<svg xmlns="http://www.w3.org/2000/svg" width="16" height="16" viewBox="0 0 16 16" fill="none"><rect width="16" height="16" fill="none"/>
<path fill-rule="evenodd" clip-rule="evenodd" d="M11.3074 2.14395V13.0293C11.3074 13.4686 11.4533 13.8744 11.6991 14.2011H3.2866C2.20966 14.2011 1.3335 13.325 1.3335 12.248V2.14395C1.3335 1.92822 1.50839 1.75333 1.72412 1.75333H10.9167C11.1325 1.75333 11.3074 1.92822 11.3074 2.14395ZM3.25014 10.3796C3.02002 10.3796 2.83347 10.5662 2.83347 10.7963C2.83347 11.0264 3.02002 11.213 3.25014 11.213H5.08347C5.31359 11.213 5.50014 11.0264 5.50014 10.7963C5.50014 10.5662 5.31359 10.3796 5.08347 10.3796H3.25014ZM2.83347 8.90747C2.83347 8.67735 3.02002 8.4908 3.25014 8.4908H9.63903C9.86915 8.4908 10.0557 8.67735 10.0557 8.90747C10.0557 9.13759 9.86915 9.32413 9.63903 9.32413H3.25014C3.02002 9.32413 2.83347 9.13759 2.83347 8.90747ZM3.38903 3.65749C3.0822 3.65749 2.83347 3.90622 2.83347 4.21305V5.87971C2.83347 6.18654 3.0822 6.43527 3.38903 6.43527H5.61125C5.91808 6.43527 6.16681 6.18654 6.16681 5.87971V4.21305C6.16681 3.90622 5.91808 3.65749 5.61125 3.65749H3.38903Z" fill="black"/>
<path d="M12.0886 4.46098H14.2761C14.4918 4.46098 14.6667 4.63588 14.6667 4.85161L14.6668 9.86908C14.6669 12.9076 14.6669 13.0004 14.6657 13.0005C14.6322 13.8446 13.8062 14.4269 13.0008 14.1811C12.4973 14.0275 12.1246 13.5742 12.0909 13.0289C12.0907 13.0289 12.0905 13.0299 12.0903 13.0299C12.0883 13.0299 12.0883 12.9007 12.0884 9.75975V9.75361C12.0885 8.5153 12.0886 6.80976 12.0886 4.46098Z" fill="black"/>
</svg>
