<svg xmlns="http://www.w3.org/2000/svg" width="17" height="17" viewBox="0 0 17 17" fill="none"><rect width="17" height="17" fill="none"/>
<path fill-rule="evenodd" clip-rule="evenodd" d="M11.3137 2.15063V13.0359C11.3137 13.4753 11.4596 13.8811 11.7054 14.2078H3.29295C2.21601 14.2078 1.33984 13.3316 1.33984 12.2547V2.15063C1.33984 1.9349 1.51474 1.76001 1.73047 1.76001H10.9231C11.1388 1.76001 11.3137 1.9349 11.3137 2.15063ZM3.25649 10.3863C3.02637 10.3863 2.83982 10.5729 2.83982 10.803C2.83982 11.0331 3.02637 11.2197 3.25648 11.2197H5.08982C5.31994 11.2197 5.50649 11.0331 5.50649 10.803C5.50649 10.5729 5.31994 10.3863 5.08982 10.3863H3.25649ZM2.83982 8.91415C2.83982 8.68403 3.02637 8.49748 3.25649 8.49748H9.64538C9.8755 8.49748 10.062 8.68403 10.062 8.91415C10.062 9.14427 9.8755 9.33082 9.64538 9.33082H3.25649C3.02637 9.33082 2.83982 9.14427 2.83982 8.91415ZM3.39537 3.66417C3.08855 3.66417 2.83982 3.9129 2.83982 4.21973V5.8864C2.83982 6.19322 3.08855 6.44195 3.39537 6.44195H5.6176C5.92442 6.44195 6.17315 6.19322 6.17315 5.8864V4.21973C6.17315 3.9129 5.92442 3.66417 5.6176 3.66417H3.39537Z" fill="black"/>
<path d="M12.0949 4.46767H14.2824C14.4982 4.46767 14.6731 4.64256 14.6731 4.85829L14.6731 9.87576C14.6732 12.9143 14.6732 13.0071 14.672 13.0071C14.6385 13.8513 13.8125 14.4335 13.0072 14.1878C12.5037 14.0342 12.131 13.5809 12.0973 13.0356C12.0971 13.0356 12.0969 13.0366 12.0967 13.0366C12.0946 13.0366 12.0946 12.9074 12.0948 9.76644V9.76029C12.0949 8.52199 12.0949 6.81644 12.0949 4.46767Z" fill="black"/>
</svg>
