<svg xmlns="http://www.w3.org/2000/svg" width="24" height="24" viewBox="0 0 24 24" fill="none"><rect width="24" height="24" fill="none"/>
<path fill-rule="evenodd" clip-rule="evenodd" d="M16.9618 3.21594V19.5439C16.9618 20.2029 17.1806 20.8117 17.5493 21.3017H4.93064C3.31522 21.3017 2.00098 19.9875 2.00098 18.3721V3.21594C2.00098 2.89235 2.26332 2.63 2.58691 2.63H16.3758C16.6994 2.63 16.9618 2.89235 16.9618 3.21594ZM4.87594 15.5695C4.53076 15.5695 4.25094 15.8493 4.25094 16.1945C4.25094 16.5396 4.53076 16.8195 4.87594 16.8195H7.62594C7.97112 16.8195 8.25094 16.5396 8.25094 16.1945C8.25094 15.8493 7.97112 15.5695 7.62594 15.5695H4.87594ZM4.25094 13.3612C4.25094 13.016 4.53076 12.7362 4.87594 12.7362H14.4593C14.8045 12.7362 15.0843 13.016 15.0843 13.3612C15.0843 13.7064 14.8045 13.9862 14.4593 13.9862H4.87594C4.53076 13.9862 4.25094 13.7064 4.25094 13.3612ZM5.08427 5.48625C4.62403 5.48625 4.25094 5.85935 4.25094 6.31958V8.81959C4.25094 9.27982 4.62403 9.65292 5.08427 9.65292H8.41761C8.87785 9.65292 9.25094 9.27982 9.25094 8.81959V6.31958C9.25094 5.85935 8.87785 5.48625 8.41761 5.48625H5.08427Z" fill="black"/>
<path d="M18.1336 6.69149H21.4149C21.7384 6.69149 22.0008 6.95383 22.0008 7.27742L22.0009 14.8036C22.0011 19.3614 22.0011 19.5007 21.9992 19.5007C21.949 20.767 20.71 21.6403 19.502 21.2717C18.7468 21.0412 18.1877 20.3613 18.1372 19.5433C18.1368 19.5433 18.1365 19.5449 18.1362 19.5449C18.1331 19.5448 18.1331 19.3511 18.1334 14.6396V14.6304C18.1335 12.773 18.1336 10.2146 18.1336 6.69149Z" fill="black"/>
</svg>
