<svg xmlns="http://www.w3.org/2000/svg" width="25" height="25" viewBox="0 0 25 25" fill="none"><rect width="25" height="25" fill="none"/>
<path fill-rule="evenodd" clip-rule="evenodd" d="M16.9657 3.22088V19.5489C16.9657 20.2078 17.1845 20.8166 17.5532 21.3067H4.93454C3.31913 21.3067 2.00488 19.9924 2.00488 18.377V3.22088C2.00488 2.89729 2.26722 2.63495 2.59082 2.63495H16.3798C16.7033 2.63495 16.9657 2.89729 16.9657 3.22088ZM4.87984 15.5744C4.53467 15.5744 4.25484 15.8542 4.25484 16.1994C4.25484 16.5446 4.53467 16.8244 4.87984 16.8244H7.62985C7.97503 16.8244 8.25485 16.5446 8.25485 16.1994C8.25485 15.8542 7.97503 15.5744 7.62985 15.5744H4.87984ZM4.25484 13.3662C4.25484 13.021 4.53467 12.7412 4.87984 12.7412H14.4632C14.8084 12.7412 15.0882 13.021 15.0882 13.3662C15.0882 13.7113 14.8084 13.9912 14.4632 13.9912H4.87984C4.53467 13.9912 4.25484 13.7113 4.25484 13.3662ZM5.08818 5.49119C4.62794 5.49119 4.25484 5.86429 4.25484 6.32453V8.82453C4.25484 9.28477 4.62794 9.65786 5.08818 9.65786H8.42151C8.88175 9.65786 9.25485 9.28477 9.25485 8.82453V6.32453C9.25485 5.86429 8.88175 5.49119 8.42151 5.49119H5.08818Z" fill="black"/>
<path d="M18.1375 6.69644H21.4188C21.7424 6.69644 22.0047 6.95878 22.0047 7.28237L22.0048 14.8086C22.005 19.3664 22.005 19.5056 22.0031 19.5057C21.9529 20.7719 20.7139 21.6452 19.5059 21.2766C18.7507 21.0462 18.1916 20.3663 18.1411 19.5483C18.1407 19.5483 18.1404 19.5498 18.1401 19.5498C18.137 19.5498 18.1371 19.3561 18.1373 14.6446V14.6354C18.1374 12.7779 18.1375 10.2196 18.1375 6.69644Z" fill="black"/>
</svg>
