<svg xmlns="http://www.w3.org/2000/svg" width="24" height="24" viewBox="0 0 24 24" fill="none"><rect width="24" height="24" fill="none"/>
<path fill-rule="evenodd" clip-rule="evenodd" d="M17.9529 1.70312V21.2967C17.9529 22.0874 18.2156 22.818 18.658 23.406H3.51559C1.57709 23.406 0 21.8289 0 19.8904V1.70312C0 1.31481 0.314809 1 0.703118 1H17.2498C17.6381 1 17.9529 1.31481 17.9529 1.70312ZM3.44995 16.5273C3.03574 16.5273 2.69995 16.8631 2.69995 17.2773C2.69995 17.6916 3.03574 18.0273 3.44995 18.0273H6.74995C7.16417 18.0273 7.49995 17.6916 7.49995 17.2773C7.49995 16.8631 7.16417 16.5273 6.74995 16.5273H3.44995ZM2.69995 13.8774C2.69995 13.4632 3.03574 13.1274 3.44995 13.1274H14.95C15.3642 13.1274 15.7 13.4632 15.7 13.8774C15.7 14.2917 15.3642 14.6274 14.95 14.6274H3.44995C3.03574 14.6274 2.69995 14.2917 2.69995 13.8774ZM3.69995 4.42749C3.14767 4.42749 2.69995 4.87521 2.69995 5.42749V8.42749C2.69995 8.97977 3.14767 9.42749 3.69995 9.42749H7.69995C8.25224 9.42749 8.69995 8.97977 8.69995 8.42749V5.42749C8.69995 4.87521 8.25224 4.42749 7.69995 4.42749H3.69995Z" fill="black"/>
<path d="M19.3592 5.87378H23.2966C23.6849 5.87378 23.9997 6.18859 23.9997 6.5769L23.9999 15.6083C24.0001 21.0777 24.0001 21.2448 23.9979 21.2448C23.9376 22.7644 22.4508 23.8123 21.0012 23.37C20.0949 23.0935 19.424 22.2776 19.3634 21.296C19.363 21.296 19.3626 21.2978 19.3623 21.2978C19.3586 21.2978 19.3586 21.0653 19.3589 15.4116V15.4005C19.359 13.1715 19.3592 10.1016 19.3592 5.87378Z" fill="black"/>
</svg>
