<svg xmlns="http://www.w3.org/2000/svg" width="24" height="24" viewBox="0 0 24 24" fill="none"><rect width="24" height="24" fill="none"/>
<path fill-rule="evenodd" clip-rule="evenodd" d="M6.33836 1.01385C6.28809 1.024 6.20099 1.08124 6.14483 1.14102L6.04272 1.2497V11.9973V22.7449L6.16194 22.8642L6.2812 22.9834L9.30554 22.9953C12.6619 23.0084 12.6084 23.0123 12.7414 22.7469C12.8127 22.6045 12.8162 22.021 12.8059 11.9205L12.795 1.24471L12.6758 1.1255L12.5565 1.00623L9.49319 1.00077C7.8083 0.997804 6.38864 1.00365 6.33836 1.01385ZM11.9894 2.80183L11.9779 3.80177L11.3757 3.82327C11.0446 3.8351 10.7475 3.86163 10.7155 3.88228C10.6835 3.90292 10.63 3.98515 10.5966 4.06506C10.5443 4.19039 10.5443 4.23056 10.5974 4.35743C10.6312 4.43829 10.6979 4.52538 10.7457 4.55097C10.7956 4.57768 11.0802 4.59742 11.4159 4.59742H11.9994V5.30378V6.01019L11.3981 6.02417C10.8175 6.03772 10.793 6.04202 10.6858 6.14937C10.4982 6.33714 10.5493 6.68078 10.7804 6.7861C10.84 6.81324 11.1256 6.83384 11.4423 6.83384H11.9994V7.54137V8.2489L10.9204 8.26176L9.84138 8.27462L9.73764 8.3953C9.59296 8.56359 9.59615 8.80474 9.74483 8.94451C9.85523 9.04829 9.86052 9.04881 10.9276 9.06162L11.9994 9.07448V9.78201V10.4895H11.4172C10.7735 10.4895 10.6647 10.5234 10.5864 10.748C10.528 10.9156 10.5816 11.0889 10.7252 11.1962C10.8289 11.2738 10.918 11.287 11.4228 11.2993L12.0015 11.3134L11.9896 12.0089L11.9779 12.7045L11.3757 12.726C11.0446 12.7378 10.7475 12.7643 10.7155 12.785C10.6835 12.8056 10.63 12.8878 10.5966 12.9678C10.5443 13.0931 10.5443 13.1333 10.5974 13.2601C10.6312 13.341 10.6979 13.4281 10.7457 13.4537C10.7956 13.4804 11.0802 13.5001 11.4159 13.5001H11.9994V14.2097V14.9194H10.949H9.89854L9.76624 15.0307C9.66517 15.1158 9.63391 15.1774 9.63391 15.2916C9.63391 15.6951 9.76216 15.7365 11.0099 15.7365H12.0015L11.9897 16.4354L11.9779 17.1343L11.3757 17.1558C11.0446 17.1676 10.7475 17.1942 10.7155 17.2148C10.6835 17.2355 10.63 17.3177 10.5966 17.3976C10.5443 17.5229 10.5443 17.5631 10.5974 17.69C10.6312 17.7708 10.6979 17.8579 10.7457 17.8835C10.7956 17.9102 11.0802 17.93 11.4159 17.93H11.9994V18.6363V19.3427L11.3981 19.3567C10.8175 19.3703 10.793 19.3746 10.6858 19.4819C10.4982 19.6697 10.5493 20.0133 10.7804 20.1186C10.84 20.1458 11.1256 20.1664 11.4423 20.1664H11.9994V21.1556V22.1448H9.41887H6.83838V11.9733V1.80189H9.41964H12.0009L11.9894 2.80183ZM16.1004 1.97697C15.9678 2.02652 15.9023 2.12496 15.2439 3.26416C14.5117 4.5311 14.4928 4.57105 14.5423 4.75143C14.6131 5.00991 14.7031 5.04737 15.294 5.06419L15.8271 5.07937V11.9957V18.9121L15.2903 18.9264C14.7774 18.94 14.7486 18.9456 14.6409 19.0535C14.4269 19.2677 14.458 19.3546 15.2245 20.6817C15.6075 21.3448 15.9621 21.9162 16.0126 21.9515C16.1758 22.0659 16.3813 22.0334 16.5316 21.8695C16.6054 21.7891 16.9551 21.2162 17.3087 20.5963C18.017 19.3547 18.0462 19.2694 17.8347 19.0578C17.7218 18.9447 17.6992 18.9402 17.181 18.9264L16.6442 18.9121V11.9957V5.07937L17.1809 5.06419C17.686 5.04991 17.7238 5.04268 17.825 4.94148C18.0545 4.71182 18.045 4.68335 17.3076 3.39319C16.9358 2.74269 16.5843 2.1592 16.5265 2.09649C16.4163 1.9771 16.2358 1.92644 16.1004 1.97697ZM16.4219 3.46845C16.5146 3.6281 16.6528 3.87006 16.7289 4.00606L16.8675 4.25335H16.2613C15.9176 4.25335 15.6551 4.23611 15.6551 4.21348C15.6551 4.17435 16.2198 3.17815 16.242 3.17815C16.2483 3.17815 16.3292 3.30881 16.4219 3.46845ZM16.8472 19.7686C16.7221 20.004 16.2435 20.812 16.2347 20.8026C16.1921 20.7572 15.6551 19.8039 15.6551 19.7737C15.6551 19.7532 15.9272 19.7363 16.2597 19.7363C16.5922 19.7363 16.8567 19.7508 16.8472 19.7686Z" fill="black"/>
</svg>
