<svg xmlns="http://www.w3.org/2000/svg" width="17" height="17" viewBox="0 0 17 17" fill="none"><rect width="17" height="17" fill="none"/>
<path d="M12.3639 10.2717C12.352 10.0158 12.3341 9.76573 12.3163 9.47998C11.8162 9.52165 11.4055 9.73001 11.0364 10.0217C10.3518 10.5694 10.0065 11.2897 9.98268 12.1648C9.97673 12.4148 9.98268 12.6589 9.98268 12.9089C9.98268 13.1709 9.84576 13.3376 9.58978 13.3376C8.35155 13.3435 7.11332 13.3376 5.86913 13.3316C5.85127 13.3316 5.83936 13.3137 5.79174 13.2899C6.09535 12.5518 6.12511 11.8017 5.76197 11.0159C5.9108 11.0099 6.012 10.998 6.11916 10.998C7.11927 10.998 8.12533 10.9921 9.12545 11.004C9.31594 11.004 9.41714 10.9563 9.50049 10.7658C10.0065 9.65262 10.8697 8.96802 12.0662 8.71799C12.2508 8.67632 12.3341 8.62274 12.3282 8.42034C12.3222 6.93208 12.3282 5.44381 12.3222 3.95555C12.3222 3.53884 12.1436 3.28881 11.8222 3.21142C11.6733 3.1757 11.5602 3.1757 11.5067 3.3662C11.4293 3.61623 11.2209 3.71148 10.9709 3.71148C10.3339 3.71148 9.70289 3.72338 9.06591 3.70552C8.52419 3.69362 8.16105 3.31262 8.16105 2.80066C8.16105 2.2887 8.52419 1.9077 9.06591 1.88985C9.70289 1.87199 10.3339 1.88389 10.9709 1.88389C11.2328 1.88389 11.4233 1.99105 11.5305 2.24703C11.5602 2.31846 11.6793 2.3899 11.7686 2.40181C12.5782 2.49706 13.114 3.08045 13.114 3.90793C13.1199 5.37833 13.114 6.84278 13.114 8.31318C13.114 8.42034 13.114 8.52749 13.114 8.62869C13.4593 8.7418 13.7926 8.843 14.1141 8.95016C14.2272 8.98588 14.3344 9.04541 14.4356 9.10494C14.638 9.22995 14.7332 9.39664 14.6201 9.63476C14.5189 9.84907 14.3105 9.90265 14.0605 9.80144C13.7629 9.67643 13.4652 9.56332 13.114 9.42045C13.114 9.75977 13.114 10.0158 13.114 10.2717L13.1259 10.2658C12.864 10.2658 12.602 10.2658 12.346 10.2658C12.352 10.2598 12.3639 10.2717 12.3639 10.2717Z" fill="black"/>
<path d="M1.34476 12.1648C1.35071 11.0814 2.23771 10.2063 3.32712 10.2182C4.37486 10.2301 5.24995 11.1111 5.25591 12.1648C5.26186 13.2483 4.3689 14.1353 3.28545 14.1234C2.20795 14.1115 1.3388 13.2364 1.34476 12.1648ZM3.67835 12.1648C3.65454 11.9326 3.52952 11.7957 3.29736 11.7957C3.06519 11.7957 2.92827 11.9326 2.90445 12.1589C2.8866 12.3672 3.08305 12.5577 3.30331 12.5458C3.54143 12.5339 3.66049 12.397 3.67835 12.1648Z" fill="black"/>
<path d="M13.1258 10.2717C14.0842 10.4682 14.739 11.3254 14.6736 12.3017C14.614 13.2661 13.852 14.0281 12.8638 14.1174C11.9113 14.2007 11.0124 13.534 10.81 12.5875C10.6076 11.6588 11.1315 10.6825 12.0185 10.3551C12.1257 10.3134 12.2507 10.3015 12.3638 10.2777L12.3519 10.2658C12.3459 10.8909 12.34 11.51 12.3459 12.135C12.3459 12.4506 12.59 12.6291 12.8579 12.5279C13.0662 12.4506 13.1198 12.2839 13.1258 12.0755C13.1258 11.4743 13.1377 10.867 13.1377 10.2658L13.1258 10.2717Z" fill="black"/>
</svg>
