<svg xmlns="http://www.w3.org/2000/svg" width="16" height="16" viewBox="0 0 16 16" fill="none"><rect width="16" height="16" fill="none"/>
<path d="M12.3527 10.3917C12.3408 10.1357 12.3229 9.88566 12.305 9.59991C11.805 9.64158 11.3942 9.84994 11.0251 10.1416C10.3405 10.6893 9.99527 11.4096 9.97145 12.2847C9.9655 12.5348 9.97145 12.7788 9.97145 13.0289C9.97145 13.2908 9.83453 13.4575 9.57855 13.4575C8.34032 13.4634 7.10209 13.4575 5.8579 13.4515C5.84004 13.4515 5.82813 13.4337 5.78051 13.4099C6.08411 12.6717 6.11388 11.9216 5.75074 11.1358C5.89957 11.1298 6.00077 11.1179 6.10793 11.1179C7.10804 11.1179 8.1141 11.112 9.11421 11.1239C9.30471 11.1239 9.40591 11.0763 9.48926 10.8858C9.99527 9.77255 10.8585 9.08795 12.055 8.83792C12.2396 8.79625 12.3229 8.74267 12.317 8.54027C12.311 7.05201 12.317 5.56375 12.311 4.07549C12.311 3.65877 12.1324 3.40875 11.8109 3.33136C11.6621 3.29564 11.549 3.29564 11.4954 3.48614C11.418 3.73616 11.2097 3.83141 10.9597 3.83141C10.3227 3.83141 9.69166 3.84332 9.05468 3.82546C8.51296 3.81355 8.14982 3.43256 8.14982 2.9206C8.14982 2.40863 8.51296 2.02764 9.05468 2.00978C9.69166 1.99192 10.3227 2.00383 10.9597 2.00383C11.2216 2.00383 11.4121 2.11098 11.5192 2.36696C11.549 2.4384 11.6681 2.50984 11.7574 2.52174C12.567 2.61699 13.1028 3.20039 13.1028 4.02786C13.1087 5.49826 13.1028 6.96271 13.1028 8.43312C13.1028 8.54027 13.1028 8.64743 13.1028 8.74863C13.448 8.86174 13.7814 8.96294 14.1029 9.07009C14.216 9.10581 14.3231 9.16534 14.4243 9.22487C14.6267 9.34989 14.722 9.51657 14.6089 9.75469C14.5077 9.969 14.2993 10.0226 14.0493 9.92138C13.7516 9.79636 13.454 9.68326 13.1028 9.54038C13.1028 9.87971 13.1028 10.1357 13.1028 10.3917L13.1147 10.3857C12.8527 10.3857 12.5908 10.3857 12.3348 10.3857C12.3408 10.3798 12.3527 10.3917 12.3527 10.3917Z" fill="black"/>
<path d="M1.33353 12.2847C1.33948 11.2013 2.22648 10.3262 3.31589 10.3381C4.36363 10.35 5.23872 11.2311 5.24468 12.2847C5.25063 13.3682 4.35767 14.2552 3.27422 14.2433C2.19672 14.2314 1.32757 13.3563 1.33353 12.2847ZM3.66712 12.2847C3.64331 12.0526 3.51829 11.9157 3.28613 11.9157C3.05396 11.9157 2.91704 12.0526 2.89322 12.2788C2.87537 12.4871 3.07182 12.6776 3.29208 12.6657C3.5302 12.6538 3.64926 12.5169 3.66712 12.2847Z" fill="black"/>
<path d="M13.1145 10.3917C14.073 10.5881 14.7278 11.4454 14.6623 12.4217C14.6028 13.3861 13.8408 14.148 12.8526 14.2373C11.9001 14.3207 11.0012 13.6539 10.7988 12.7074C10.5964 11.7787 11.1203 10.8024 12.0073 10.475C12.1144 10.4333 12.2394 10.4214 12.3525 10.3976L12.3406 10.3857C12.3347 11.0108 12.3287 11.6299 12.3347 12.255C12.3347 12.5705 12.5788 12.7491 12.8466 12.6479C13.055 12.5705 13.1086 12.4038 13.1145 12.1954C13.1145 11.5942 13.1264 10.987 13.1264 10.3857L13.1145 10.3917Z" fill="black"/>
</svg>
