<svg xmlns="http://www.w3.org/2000/svg" width="24" height="25" viewBox="0 0 24 25" fill="none"><rect width="24" height="25" fill="none"/>
<path d="M18.5288 15.4126C18.5109 15.0286 18.4841 14.6536 18.4573 14.225C17.7072 14.2875 17.0911 14.6 16.5375 15.0376C15.5106 15.8591 14.9927 16.9396 14.9569 18.2522C14.948 18.6273 14.9569 18.9934 14.9569 19.3684C14.9569 19.7613 14.7516 20.0113 14.3676 20.0113C12.5102 20.0203 10.6529 20.0113 8.7866 20.0024C8.75982 20.0024 8.74196 19.9756 8.67052 19.9399C9.12593 18.8326 9.17058 17.7075 8.62587 16.5288C8.84911 16.5199 9.00091 16.502 9.16165 16.502C10.6618 16.502 12.1709 16.4931 13.6711 16.5109C13.9568 16.5109 14.1086 16.4395 14.2336 16.1538C14.9927 14.4839 16.2874 13.457 18.0823 13.082C18.3591 13.0195 18.4841 12.9391 18.4752 12.6355C18.4663 10.4031 18.4752 8.17073 18.4663 5.93833C18.4663 5.31326 18.1984 4.93822 17.7162 4.82214C17.4929 4.76856 17.3233 4.76856 17.2429 5.05431C17.1268 5.42935 16.8143 5.57222 16.4392 5.57222C15.4838 5.57222 14.5372 5.59008 13.5818 5.56329C12.7692 5.54543 12.2245 4.97394 12.2245 4.206C12.2245 3.43805 12.7692 2.86656 13.5818 2.83977C14.5372 2.81298 15.4838 2.83084 16.4392 2.83084C16.8321 2.83084 17.1179 2.99158 17.2786 3.37555C17.3233 3.4827 17.5019 3.58986 17.6358 3.60772C18.8502 3.75059 19.6539 4.62569 19.6539 5.8669C19.6628 8.0725 19.6539 10.2692 19.6539 12.4748C19.6539 12.6355 19.6539 12.7962 19.6539 12.948C20.1718 13.1177 20.6719 13.2695 21.1541 13.4302C21.3237 13.4838 21.4844 13.5731 21.6362 13.6624C21.9399 13.8499 22.0827 14.1 21.9131 14.4571C21.7613 14.7786 21.4487 14.859 21.0737 14.7072C20.6272 14.5197 20.1807 14.35 19.6539 14.1357C19.6539 14.6447 19.6539 15.0286 19.6539 15.4126L19.6717 15.4037C19.2788 15.4037 18.8859 15.4037 18.502 15.4037C18.5109 15.3947 18.5288 15.4126 18.5288 15.4126Z" fill="black"/>
<path d="M2.00005 18.2522C2.00898 16.627 3.33948 15.3144 4.97359 15.3322C6.5452 15.3501 7.85784 16.6717 7.86677 18.2522C7.8757 19.8774 6.53627 21.2079 4.91108 21.1901C3.29483 21.1722 1.99112 19.8595 2.00005 18.2522ZM5.50044 18.2522C5.46472 17.904 5.2772 17.6986 4.92894 17.6986C4.58069 17.6986 4.37531 17.904 4.33959 18.2433C4.3128 18.5558 4.60748 18.8416 4.93787 18.8237C5.29506 18.8059 5.47365 18.6005 5.50044 18.2522Z" fill="black"/>
<path d="M19.6716 15.4126C21.1092 15.7073 22.0915 16.9931 21.9932 18.4576C21.9039 19.9042 20.761 21.0472 19.2787 21.1811C17.8499 21.3061 16.5016 20.306 16.198 18.8862C15.8943 17.4932 16.6802 16.0288 18.0107 15.5376C18.1714 15.4751 18.3589 15.4573 18.5286 15.4215L18.5107 15.4037C18.5018 16.3413 18.4929 17.27 18.5018 18.2076C18.5018 18.6808 18.8679 18.9487 19.2697 18.7969C19.5823 18.6808 19.6626 18.4308 19.6716 18.1183C19.6716 17.2164 19.6894 16.3056 19.6894 15.4037L19.6716 15.4126Z" fill="black"/>
</svg>
