<svg xmlns="http://www.w3.org/2000/svg" width="24" height="24" viewBox="0 0 24 24" fill="none"><rect width="24" height="24" fill="none"/>
<path d="M19.8323 16.0875C19.8109 15.6268 19.7787 15.1768 19.7466 14.6625C18.8466 14.7375 18.1073 15.1125 17.443 15.6375C16.2109 16.6232 15.5894 17.9196 15.5466 19.4946C15.5359 19.9446 15.5466 20.3839 15.5466 20.8339C15.5466 21.3054 15.3002 21.6054 14.8394 21.6054C12.6109 21.6161 10.3823 21.6054 8.14302 21.5946C8.11087 21.5946 8.08945 21.5625 8.00373 21.5196C8.55016 20.1911 8.60373 18.8411 7.95016 17.4268C8.21802 17.4161 8.40016 17.3946 8.59302 17.3946C10.393 17.3946 12.2037 17.3839 14.0037 17.4054C14.3466 17.4054 14.5287 17.3196 14.6787 16.9768C15.5894 14.9732 17.143 13.7411 19.2966 13.2911C19.6287 13.2161 19.7787 13.1196 19.768 12.7554C19.7573 10.0768 19.768 7.39821 19.7573 4.71964C19.7573 3.96964 19.4359 3.51964 18.8573 3.38035C18.5894 3.31607 18.3859 3.31607 18.2894 3.65892C18.1502 4.10892 17.7752 4.28035 17.3252 4.28035C16.1787 4.28035 15.043 4.30178 13.8966 4.26964C12.9216 4.24821 12.268 3.5625 12.268 2.64107C12.268 1.71964 12.9216 1.03392 13.8966 1.00178C15.043 0.969638 16.1787 0.991067 17.3252 0.991067C17.7966 0.991067 18.1394 1.18392 18.3323 1.64464C18.3859 1.77321 18.6002 1.90178 18.7609 1.92321C20.218 2.09464 21.1823 3.14464 21.1823 4.63392C21.193 7.28035 21.1823 9.91607 21.1823 12.5625C21.1823 12.7554 21.1823 12.9482 21.1823 13.1304C21.8037 13.3339 22.4037 13.5161 22.9823 13.7089C23.1859 13.7732 23.3787 13.8804 23.5609 13.9875C23.9252 14.2125 24.0966 14.5125 23.893 14.9411C23.7109 15.3268 23.3359 15.4232 22.8859 15.2411C22.3502 15.0161 21.8144 14.8125 21.1823 14.5554C21.1823 15.1661 21.1823 15.6268 21.1823 16.0875L21.2037 16.0768C20.7323 16.0768 20.2609 16.0768 19.8002 16.0768C19.8109 16.0661 19.8323 16.0875 19.8323 16.0875Z" fill="black"/>
<path d="M5.4712e-05 19.4947C0.010769 17.5447 1.6072 15.9696 3.56791 15.9911C5.45363 16.0125 7.02863 17.5982 7.03934 19.4947C7.05006 21.4447 5.44291 23.0411 3.49291 23.0197C1.55363 22.9982 -0.0106596 21.4232 5.4712e-05 19.4947ZM4.20006 19.4947C4.1572 19.0768 3.9322 18.8304 3.51434 18.8304C3.09648 18.8304 2.85005 19.0768 2.8072 19.4839C2.77506 19.8589 3.12863 20.2018 3.52506 20.1804C3.95363 20.1589 4.16791 19.9125 4.20006 19.4947Z" fill="black"/>
<path d="M21.2035 16.0875C22.9285 16.4411 24.1071 17.9839 23.9892 19.7411C23.8821 21.4768 22.5106 22.8482 20.7321 23.0089C19.0178 23.1589 17.3999 21.9589 17.0356 20.2554C16.6714 18.5839 17.6142 16.8268 19.2106 16.2375C19.4035 16.1625 19.6285 16.1411 19.8321 16.0982L19.8106 16.0768C19.7999 17.2018 19.7892 18.3161 19.7999 19.4411C19.7999 20.0089 20.2392 20.3304 20.7214 20.1482C21.0964 20.0089 21.1928 19.7089 21.2035 19.3339C21.2035 18.2518 21.2249 17.1589 21.2249 16.0768L21.2035 16.0875Z" fill="black"/>
</svg>
