<svg xmlns="http://www.w3.org/2000/svg" width="24" height="24" viewBox="0 0 24 24" fill="none"><rect width="24" height="24" fill="none"/>
<path d="M18.5297 15.5875C18.5119 15.2036 18.4851 14.8285 18.4583 14.3999C17.7082 14.4624 17.0921 14.7749 16.5384 15.2125C15.5115 16.034 14.9936 17.1145 14.9579 18.4271C14.949 18.8022 14.9579 19.1683 14.9579 19.5433C14.9579 19.9362 14.7525 20.1863 14.3686 20.1863C12.5112 20.1952 10.6539 20.1863 8.78758 20.1773C8.76079 20.1773 8.74293 20.1505 8.6715 20.1148C9.1269 19.0076 9.17155 17.8824 8.62685 16.7037C8.85009 16.6948 9.00189 16.6769 9.16262 16.6769C10.6628 16.6769 12.1719 16.668 13.6721 16.6859C13.9578 16.6859 14.1096 16.6144 14.2346 16.3287C14.9936 14.6589 16.2884 13.632 18.0833 13.2569C18.3601 13.1944 18.4851 13.114 18.4762 12.8104C18.4672 10.578 18.4762 8.34565 18.4672 6.11326C18.4672 5.48819 18.1993 5.11315 17.7171 4.99706C17.4939 4.94349 17.3242 4.94349 17.2439 5.22923C17.1278 5.60428 16.8153 5.74715 16.4402 5.74715C15.4848 5.74715 14.5382 5.76501 13.5828 5.73822C12.7702 5.72036 12.2255 5.14887 12.2255 4.38092C12.2255 3.61298 12.7702 3.04149 13.5828 3.0147C14.5382 2.98791 15.4848 3.00577 16.4402 3.00577C16.8331 3.00577 17.1189 3.1665 17.2796 3.55047C17.3242 3.65763 17.5028 3.76478 17.6368 3.78264C18.8512 3.92552 19.6549 4.80061 19.6549 6.04182C19.6638 8.24743 19.6549 10.4441 19.6549 12.6497C19.6549 12.8104 19.6549 12.9712 19.6549 13.123C20.1728 13.2926 20.6728 13.4444 21.155 13.6052C21.3247 13.6587 21.4854 13.748 21.6372 13.8373C21.9408 14.0249 22.0837 14.2749 21.914 14.6321C21.7622 14.9535 21.4497 15.0339 21.0747 14.8821C20.6282 14.6946 20.1817 14.5249 19.6549 14.3106C19.6549 14.8196 19.6549 15.2036 19.6549 15.5875L19.6727 15.5786C19.2798 15.5786 18.8869 15.5786 18.5029 15.5786C18.5119 15.5697 18.5297 15.5875 18.5297 15.5875Z" fill="black"/>
<path d="M2.00102 18.4271C2.00995 16.802 3.34046 15.4893 4.97457 15.5072C6.54617 15.525 7.85882 16.8466 7.86775 18.4271C7.87668 20.0523 6.53724 21.3828 4.91206 21.365C3.29581 21.3471 1.99209 20.0345 2.00102 18.4271ZM5.50141 18.4271C5.46569 18.0789 5.27817 17.8735 4.92992 17.8735C4.58167 17.8735 4.37629 18.0789 4.34057 18.4182C4.31378 18.7308 4.60846 19.0165 4.93885 18.9986C5.29603 18.9808 5.47462 18.7754 5.50141 18.4271Z" fill="black"/>
<path d="M19.6725 15.5875C21.1102 15.8822 22.0924 17.1681 21.9942 18.6325C21.9049 20.0791 20.7619 21.2221 19.2796 21.356C17.8509 21.4811 16.5025 20.4809 16.1989 19.0611C15.8953 17.6681 16.6811 16.2037 18.0116 15.7126C18.1724 15.65 18.3599 15.6322 18.5295 15.5965L18.5117 15.5786C18.5028 16.5162 18.4938 17.4449 18.5028 18.3825C18.5028 18.8558 18.8689 19.1236 19.2707 18.9718C19.5832 18.8558 19.6636 18.6057 19.6725 18.2932C19.6725 17.3913 19.6904 16.4805 19.6904 15.5786L19.6725 15.5875Z" fill="black"/>
</svg>
