<svg xmlns="http://www.w3.org/2000/svg" width="24" height="24" viewBox="0 0 24 24" fill="none"><rect width="24" height="24" fill="none"/>
<path fill-rule="evenodd" clip-rule="evenodd" d="M16.211 17.8083C14.7206 18.9594 12.8518 19.6442 10.8231 19.6442C5.95076 19.6442 2.00098 15.6944 2.00098 10.8221C2.00098 5.94978 5.95076 2 10.8231 2C15.6954 2 19.6452 5.94978 19.6452 10.8221C19.6452 12.7579 19.0216 14.5481 17.9645 16.0028L21.7574 19.7958C22.0822 20.1205 22.0822 20.647 21.7574 20.9717L21.1539 21.5753C20.8292 21.9 20.3027 21.9 19.9779 21.5753L16.211 17.8083ZM17.1246 10.822C17.1246 14.3023 14.3033 17.1235 10.8231 17.1235C7.3429 17.1235 4.52163 14.3023 4.52163 10.822C4.52163 7.34182 7.3429 4.52055 10.8231 4.52055C14.3033 4.52055 17.1246 7.34182 17.1246 10.822Z" fill="black"/>
</svg>
