<svg xmlns="http://www.w3.org/2000/svg" width="25" height="24" viewBox="0 0 25 24" fill="none"><rect width="25" height="24" fill="none"/>
<path fill-rule="evenodd" clip-rule="evenodd" d="M16.3833 17.8983C14.893 19.0494 13.0242 19.7342 10.9954 19.7342C6.12312 19.7342 2.17334 15.7844 2.17334 10.9121C2.17334 6.03978 6.12312 2.09 10.9954 2.09C15.8677 2.09 19.8175 6.03978 19.8175 10.9121C19.8175 12.8479 19.194 14.6381 18.1369 16.0928L21.9298 19.8858C22.2545 20.2105 22.2545 20.737 21.9298 21.0617L21.3263 21.6653C21.0015 21.99 20.475 21.99 20.1503 21.6653L16.3833 17.8983ZM17.297 10.912C17.297 14.3923 14.4757 17.2135 10.9955 17.2135C7.51526 17.2135 4.69399 14.3923 4.69399 10.912C4.69399 7.43182 7.51526 4.61055 10.9955 4.61055C14.4757 4.61055 17.297 7.43182 17.297 10.912Z" fill="black"/>
</svg>
