<svg xmlns="http://www.w3.org/2000/svg" width="16" height="16" viewBox="0 0 16 16" fill="none"><rect width="16" height="16" fill="none"/>
<path fill-rule="evenodd" clip-rule="evenodd" d="M10.8066 11.8722C9.81303 12.6396 8.56715 13.0961 7.21464 13.0961C3.96644 13.0961 1.33325 10.4629 1.33325 7.21473C1.33325 3.96653 3.96644 1.33334 7.21464 1.33334C10.4628 1.33334 13.096 3.96653 13.096 7.21473C13.096 8.50529 12.6804 9.69876 11.9756 10.6686L14.5042 13.1972C14.7207 13.4137 14.7207 13.7647 14.5042 13.9812L14.1019 14.3835C13.8854 14.6 13.5344 14.6 13.3179 14.3835L10.8066 11.8722ZM11.4157 7.21469C11.4157 9.53484 9.53483 11.4157 7.21468 11.4157C4.89454 11.4157 3.01369 9.53484 3.01369 7.21469C3.01369 4.89455 4.89454 3.0137 7.21468 3.0137C9.53483 3.0137 11.4157 4.89455 11.4157 7.21469Z" fill="black"/>
</svg>
