<svg xmlns="http://www.w3.org/2000/svg" width="17" height="17" viewBox="0 0 17 17" fill="none"><rect width="17" height="17" fill="none"/>
<path fill-rule="evenodd" clip-rule="evenodd" d="M10.8229 11.9389C9.82939 12.7062 8.58351 13.1628 7.231 13.1628C3.9828 13.1628 1.34961 10.5296 1.34961 7.28139C1.34961 4.03318 3.9828 1.39999 7.231 1.39999C10.4792 1.39999 13.1124 4.03318 13.1124 7.28139C13.1124 8.57194 12.6967 9.76542 11.992 10.7352L14.5206 13.2638C14.7371 13.4803 14.7371 13.8313 14.5206 14.0478L14.1182 14.4502C13.9017 14.6667 13.5507 14.6667 13.3342 14.4502L10.8229 11.9389ZM11.432 7.28135C11.432 9.6015 9.55118 11.4823 7.23104 11.4823C4.91089 11.4823 3.03004 9.6015 3.03004 7.28135C3.03004 4.96121 4.91089 3.08036 7.23104 3.08036C9.55118 3.08036 11.432 4.96121 11.432 7.28135Z" fill="black"/>
</svg>
