<svg xmlns="http://www.w3.org/2000/svg" width="24" height="24" viewBox="0 0 24 24" fill="none"><rect width="24" height="24" fill="none"/>
<path d="M11.376 9.42499H5.12598C4.80238 9.42499 4.54004 9.68733 4.54004 10.0109C4.54004 10.3345 4.80238 10.5969 5.12598 10.5969H11.376C11.6996 10.5969 11.9619 10.3345 11.9619 10.0109C11.9619 9.68733 11.6996 9.42499 11.376 9.42499Z" fill="black"/>
<path fill-rule="evenodd" clip-rule="evenodd" d="M14.7229 9.42499H18.0291C18.8191 9.42499 19.4619 10.0678 19.4619 10.8578V11.664C19.4619 12.4541 18.8191 13.0969 18.0291 13.0969H14.7229C13.9328 13.0969 13.29 12.4541 13.29 11.6641V10.8578C13.29 10.0678 13.9328 9.42499 14.7229 9.42499ZM18.0291 11.925C18.173 11.925 18.29 11.8079 18.29 11.664V10.8578C18.29 10.7139 18.173 10.5968 18.0291 10.5968H14.7229C14.5789 10.5968 14.4619 10.7139 14.4619 10.8578V11.664C14.4619 11.8079 14.5789 11.925 14.7229 11.925H18.0291Z" fill="black"/>
<path fill-rule="evenodd" clip-rule="evenodd" d="M19.3721 3.79999H4.62988C3.18027 3.79999 2.00098 4.97928 2.00098 6.42889V14.843C2.00098 16.2624 3.13195 17.4219 4.54004 17.4696V19.5754C4.54004 20.1387 4.99824 20.5969 5.56148 20.5969H10.3155C10.8787 20.5969 11.3369 20.1387 11.3369 19.5754V17.4719H19.3721C20.8216 17.4719 22.001 16.2926 22.001 14.843V6.42889C22.001 4.97928 20.8217 3.79999 19.3721 3.79999ZM4.62988 4.97186H19.3721C20.1755 4.97186 20.8291 5.62546 20.8291 6.42889V6.92499H3.17285V6.42889C3.17285 5.62546 3.82645 4.97186 4.62988 4.97186ZM9.22754 14.7375H6.64941V14.0734C6.64941 13.5349 7.0875 13.0969 7.62598 13.0969H8.25098C8.78945 13.0969 9.22754 13.5349 9.22754 14.0734V14.7375ZM10.165 19.425H5.71191V15.9094H10.165V19.425ZM19.3721 16.3H11.3369V15.7589C11.3369 15.224 10.9235 14.784 10.3994 14.7412V14.0734C10.3994 12.8888 9.43563 11.925 8.25098 11.925H7.62598C6.44133 11.925 5.47754 12.8888 5.47754 14.0734V14.7412C4.95348 14.7841 4.54004 15.224 4.54004 15.759V16.2969C3.77832 16.2504 3.17285 15.6162 3.17285 14.843V8.09686H20.8291V14.843C20.8291 15.6464 20.1755 16.3 19.3721 16.3Z" fill="black"/>
</svg>
