<svg xmlns="http://www.w3.org/2000/svg" width="25" height="24" viewBox="0 0 25 24" fill="none"><rect width="25" height="24" fill="none"/>
<path d="M11.3799 9.22501H5.12988C4.80629 9.22501 4.54395 9.48735 4.54395 9.81094C4.54395 10.1345 4.80629 10.3969 5.12988 10.3969H11.3799C11.7035 10.3969 11.9658 10.1345 11.9658 9.81094C11.9658 9.48735 11.7035 9.22501 11.3799 9.22501Z" fill="black"/>
<path fill-rule="evenodd" clip-rule="evenodd" d="M14.7268 9.22501H18.033C18.823 9.22501 19.4658 9.86778 19.4658 10.6578V11.464C19.4658 12.2541 18.823 12.8969 18.033 12.8969H14.7268C13.9367 12.8969 13.2939 12.2541 13.2939 11.4641V10.6579C13.2939 9.86778 13.9367 9.22501 14.7268 9.22501ZM18.033 11.725C18.1769 11.725 18.2939 11.6079 18.2939 11.464V10.6578C18.2939 10.5139 18.1769 10.3968 18.033 10.3968H14.7268C14.5829 10.3968 14.4658 10.5139 14.4658 10.6578V11.464C14.4658 11.6079 14.5829 11.725 14.7268 11.725H18.033Z" fill="black"/>
<path fill-rule="evenodd" clip-rule="evenodd" d="M19.376 3.60001H4.63379C3.18418 3.60001 2.00488 4.7793 2.00488 6.22891V14.643C2.00488 16.0624 3.13586 17.222 4.54395 17.2696V19.3754C4.54395 19.9387 5.00215 20.3969 5.56539 20.3969H10.3194C10.8826 20.3969 11.3408 19.9387 11.3408 19.3754V17.2719H19.376C20.8255 17.2719 22.0049 16.0926 22.0049 14.643V6.22891C22.0049 4.7793 20.8256 3.60001 19.376 3.60001ZM4.63379 4.77188H19.376C20.1794 4.77188 20.833 5.42548 20.833 6.22891V6.72501H3.17676V6.22891C3.17676 5.42548 3.83035 4.77188 4.63379 4.77188ZM9.23145 14.5375H6.65332V13.8734C6.65332 13.335 7.09141 12.8969 7.62988 12.8969H8.25488C8.79336 12.8969 9.23145 13.335 9.23145 13.8734V14.5375ZM10.1689 19.225H5.71582V15.7094H10.1689V19.225ZM19.376 16.1H11.3408V15.559C11.3408 15.024 10.9274 14.5841 10.4033 14.5412V13.8734C10.4033 12.6888 9.43953 11.725 8.25488 11.725H7.62988C6.44523 11.725 5.48145 12.6888 5.48145 13.8734V14.5413C4.95738 14.5841 4.54395 15.024 4.54395 15.559V16.097C3.78223 16.0504 3.17676 15.4162 3.17676 14.643V7.89688H20.833V14.643C20.833 15.4464 20.1794 16.1 19.376 16.1Z" fill="black"/>
</svg>
