<svg xmlns="http://www.w3.org/2000/svg" width="17" height="16" viewBox="0 0 17 16" fill="none"><rect width="17" height="16" fill="none"/>
<path d="M7.58984 6.15H3.42318C3.20745 6.15 3.03255 6.3249 3.03255 6.54063C3.03255 6.75636 3.20745 6.93125 3.42318 6.93125H7.58984C7.80557 6.93125 7.98047 6.75636 7.98047 6.54063C7.98047 6.3249 7.80557 6.15 7.58984 6.15Z" fill="black"/>
<path fill-rule="evenodd" clip-rule="evenodd" d="M9.82109 6.15H12.0252C12.552 6.15 12.9805 6.57852 12.9805 7.10521V7.64268C12.9805 8.1694 12.552 8.59792 12.0253 8.59792H9.82112C9.2944 8.59792 8.86589 8.1694 8.86589 7.64271V7.10524C8.86589 6.57852 9.2944 6.15 9.82109 6.15ZM12.0252 7.81667C12.1212 7.81667 12.1992 7.73862 12.1992 7.64268V7.10521C12.1992 7.00927 12.1212 6.93122 12.0252 6.93122H9.82109C9.72516 6.93122 9.64711 7.00927 9.64711 7.10521V7.64268C9.64711 7.73862 9.72516 7.81667 9.82109 7.81667H12.0252Z" fill="black"/>
<path fill-rule="evenodd" clip-rule="evenodd" d="M12.9206 2.4H3.09245C2.12604 2.4 1.33984 3.1862 1.33984 4.15261V9.76198C1.33984 10.7083 2.09383 11.4813 3.03255 11.513V12.9169C3.03255 13.2924 3.33802 13.5979 3.71352 13.5979H6.88284C7.25833 13.5979 7.5638 13.2924 7.5638 12.917V11.5146H12.9206C13.887 11.5146 14.6732 10.7284 14.6732 9.76198V4.15261C14.6732 3.1862 13.887 2.4 12.9206 2.4ZM3.09245 3.18125H12.9206C13.4562 3.18125 13.8919 3.61698 13.8919 4.15261V4.48333H2.12109V4.15261C2.12109 3.61698 2.55682 3.18125 3.09245 3.18125ZM6.15755 9.69167H4.4388V9.24896C4.4388 8.88998 4.73086 8.59792 5.08984 8.59792H5.50651C5.86549 8.59792 6.15755 8.88998 6.15755 9.24896V9.69167ZM6.78255 12.8167H3.8138V10.4729H6.78255V12.8167ZM12.9206 10.7333H7.5638V10.3726C7.5638 10.016 7.28818 9.72271 6.9388 9.69414V9.24896C6.9388 8.45919 6.29628 7.81667 5.50651 7.81667H5.08984C4.30008 7.81667 3.65755 8.45919 3.65755 9.24896V9.69417C3.30818 9.72274 3.03255 10.016 3.03255 10.3727V10.7313C2.52474 10.7003 2.12109 10.2775 2.12109 9.76198V5.26458H13.8919V9.76198C13.8919 10.2976 13.4562 10.7333 12.9206 10.7333Z" fill="black"/>
</svg>
