<svg xmlns="http://www.w3.org/2000/svg" width="16" height="16" viewBox="0 0 16 16" fill="none"><rect width="16" height="16" fill="none"/>
<path d="M7.5835 6.28331H3.41683C3.2011 6.28331 3.0262 6.45821 3.0262 6.67393C3.0262 6.88966 3.2011 7.06456 3.41683 7.06456H7.5835C7.79923 7.06456 7.97412 6.88966 7.97412 6.67393C7.97412 6.45821 7.79923 6.28331 7.5835 6.28331Z" fill="black"/>
<path fill-rule="evenodd" clip-rule="evenodd" d="M9.81475 6.28331H12.0189C12.5456 6.28331 12.9741 6.71183 12.9741 7.23852V7.77599C12.9741 8.30271 12.5456 8.73123 12.0189 8.73123H9.81477C9.28805 8.73123 8.85954 8.30271 8.85954 7.77602V7.23854C8.85954 6.71183 9.28805 6.28331 9.81475 6.28331ZM12.0189 7.94998C12.1148 7.94998 12.1929 7.87193 12.1929 7.77599V7.23852C12.1929 7.14258 12.1148 7.06453 12.0189 7.06453H9.81475C9.71881 7.06453 9.64076 7.14258 9.64076 7.23852V7.77599C9.64076 7.87193 9.71881 7.94998 9.81475 7.94998H12.0189Z" fill="black"/>
<path fill-rule="evenodd" clip-rule="evenodd" d="M12.9142 2.53331H3.0861C2.11969 2.53331 1.3335 3.31951 1.3335 4.28591V9.89529C1.3335 10.8416 2.08748 11.6146 3.0262 11.6464V13.0502C3.0262 13.4258 3.33167 13.7312 3.70717 13.7312H6.87649C7.25199 13.7312 7.55745 13.4258 7.55745 13.0503V11.6479H12.9142C13.8806 11.6479 14.6668 10.8617 14.6668 9.89529V4.28591C14.6668 3.31951 13.8806 2.53331 12.9142 2.53331ZM3.0861 3.31456H12.9142C13.4498 3.31456 13.8856 3.75029 13.8856 4.28591V4.61664H2.11475V4.28591C2.11475 3.75029 2.55048 3.31456 3.0861 3.31456ZM6.1512 9.82498H4.43245V9.38227C4.43245 9.02328 4.72451 8.73123 5.0835 8.73123H5.50016C5.85915 8.73123 6.1512 9.02328 6.1512 9.38227V9.82498ZM6.7762 12.95H3.80745V10.6062H6.7762V12.95ZM12.9142 10.8666H7.55745V10.5059C7.55745 10.1493 7.28183 9.85602 6.93245 9.82745V9.38227C6.93245 8.5925 6.28993 7.94998 5.50016 7.94998H5.0835C4.29373 7.94998 3.6512 8.5925 3.6512 9.38227V9.82748C3.30183 9.85604 3.0262 10.1493 3.0262 10.506V10.8646C2.51839 10.8336 2.11475 10.4108 2.11475 9.89529V5.39789H13.8856V9.89529C13.8856 10.4309 13.4499 10.8666 12.9142 10.8666Z" fill="black"/>
</svg>
