<svg xmlns="http://www.w3.org/2000/svg" width="24" height="24" viewBox="0 0 24 24" fill="none"><rect width="24" height="24" fill="none"/>
<path d="M8.17633 5.42059C7.85808 5.72548 7.81167 6.26052 8.07267 6.61565C8.33368 6.97078 8.80326 7.01151 9.12152 6.70662L11.2902 4.62908V13.3974C11.2902 13.8035 11.6193 14.1326 12.0254 14.1326C12.4314 14.1326 12.7606 13.8035 12.7606 13.3974L12.7606 4.5866L14.9734 6.70643C15.2917 7.01131 15.7612 6.97058 16.0222 6.61545C16.2832 6.26033 16.2368 5.72528 15.9186 5.4204L12.5616 2.20448C12.4107 2.05983 12.2256 1.99298 12.0449 2.00058C11.8659 1.99443 11.6828 2.06138 11.5333 2.20467L8.17633 5.42059Z" fill="black"/>
<path d="M4.13086 12.4491C4.13086 11.9889 4.50395 11.6158 4.96419 11.6158C5.42443 11.6158 5.79752 11.9889 5.79752 12.4491V17C5.79752 18.841 7.28991 20.3333 9.13085 20.3333H14.8657C16.7066 20.3333 18.199 18.841 18.199 17V12.4491C18.199 11.9889 18.5721 11.6158 19.0323 11.6158C19.4926 11.6158 19.8657 11.9889 19.8657 12.4491V17C19.8657 19.7614 17.6271 22 14.8657 22H9.13085C6.36943 22 4.13086 19.7614 4.13086 17V12.4491Z" fill="black"/>
</svg>
