<svg xmlns="http://www.w3.org/2000/svg" width="16" height="16" viewBox="0 0 16 16" fill="none"><rect width="16" height="16" fill="none"/>
<path d="M5.4504 3.61373C5.23823 3.81699 5.20729 4.17368 5.38129 4.41044C5.5553 4.64719 5.86835 4.67434 6.08052 4.47109L7.52629 3.08605V8.93161C7.52629 9.20231 7.74574 9.42176 8.01644 9.42176C8.28714 9.42176 8.50659 9.20231 8.50659 8.93161L8.50659 3.05774L9.98178 4.47095C10.1939 4.67421 10.507 4.64706 10.681 4.41031C10.855 4.17355 10.8241 3.81686 10.6119 3.6136L8.37394 1.46965C8.27328 1.37322 8.14991 1.32865 8.02946 1.33372C7.91008 1.32962 7.78808 1.37426 7.68836 1.46978L5.4504 3.61373Z" fill="black"/>
<path d="M2.75342 8.29943C2.75342 7.9926 3.00215 7.74387 3.30897 7.74387C3.6158 7.74387 3.86453 7.9926 3.86453 8.29943V11.3333C3.86453 12.5606 4.85945 13.5556 6.08675 13.5556H9.90996C11.1373 13.5556 12.1322 12.5606 12.1322 11.3333V8.29943C12.1322 7.9926 12.3809 7.74387 12.6877 7.74387C12.9946 7.74387 13.2433 7.9926 13.2433 8.29943V11.3333C13.2433 13.1743 11.7509 14.6667 9.90996 14.6667H6.08675C4.2458 14.6667 2.75342 13.1743 2.75342 11.3333V8.29943Z" fill="black"/>
</svg>
