<svg xmlns="http://www.w3.org/2000/svg" width="17" height="17" viewBox="0 0 17 17" fill="none"><rect width="17" height="17" fill="none"/>
<path d="M5.46212 4.61551C5.24995 4.81876 5.21901 5.17546 5.39301 5.41221C5.56702 5.64897 5.88007 5.67612 6.09224 5.47286L7.53801 4.08783V9.93338C7.53801 10.2041 7.75746 10.4235 8.02816 10.4235C8.29886 10.4235 8.51831 10.2041 8.51831 9.93339L8.51831 4.05951L9.9935 5.47273C10.2057 5.67599 10.5187 5.64884 10.6927 5.41208C10.8667 5.17533 10.8358 4.81863 10.6236 4.61538L8.38566 2.47143C8.285 2.375 8.16163 2.33043 8.04118 2.3355C7.9218 2.3314 7.7998 2.37603 7.70008 2.47156L5.46212 4.61551Z" fill="black"/>
<path d="M2.76514 9.30121C2.76514 8.99438 3.01387 8.74565 3.32069 8.74565C3.62752 8.74565 3.87625 8.99438 3.87625 9.30121V12.3351C3.87625 13.5624 4.87117 14.5573 6.09847 14.5573H9.92168C11.149 14.5573 12.1439 13.5624 12.1439 12.3351V9.3012C12.1439 8.99438 12.3926 8.74565 12.6995 8.74565C13.0063 8.74565 13.255 8.99438 13.255 9.3012V12.3351C13.255 14.1761 11.7626 15.6684 9.92168 15.6684H6.09847C4.25752 15.6684 2.76514 14.1761 2.76514 12.3351V9.30121Z" fill="black"/>
</svg>
