<svg xmlns="http://www.w3.org/2000/svg" width="25" height="24" viewBox="0 0 25 24" fill="none"><rect width="25" height="24" fill="none"/>
<path d="M8.3587 5.42059C8.04045 5.72548 7.99404 6.26052 8.25505 6.61565C8.51605 6.97078 8.98564 7.01151 9.30389 6.70662L11.4725 4.62908V13.3974C11.4725 13.8035 11.8017 14.1326 12.2078 14.1326C12.6138 14.1326 12.943 13.8035 12.943 13.3974L12.943 4.5866L15.1558 6.70643C15.474 7.01131 15.9436 6.97058 16.2046 6.61545C16.4656 6.26033 16.4192 5.72528 16.101 5.4204L12.744 2.20448C12.593 2.05983 12.408 1.99298 12.2273 2.00058C12.0482 1.99443 11.8652 2.06138 11.7156 2.20467L8.3587 5.42059Z" fill="black"/>
<path d="M4.31323 12.4491C4.31323 11.9889 4.68633 11.6158 5.14656 11.6158C5.6068 11.6158 5.9799 11.9889 5.9799 12.4491V17C5.9799 18.841 7.47228 20.3333 9.31323 20.3333H15.048C16.889 20.3333 18.3814 18.841 18.3814 17V12.4491C18.3814 11.9889 18.7545 11.6158 19.2147 11.6158C19.6749 11.6158 20.048 11.9889 20.048 12.4491V17C20.048 19.7614 17.8095 22 15.048 22H9.31323C6.55181 22 4.31323 19.7614 4.31323 17V12.4491Z" fill="black"/>
</svg>
