<svg xmlns="http://www.w3.org/2000/svg" width="24" height="24" viewBox="0 0 24 24" fill="none"><rect width="24" height="24" fill="none"/>
<path d="M7.37363 8.66667V6.7619C7.37363 5.49897 7.86139 4.28776 8.72961 3.39473C9.59784 2.5017 10.7754 2 12.0033 2C13.2311 2 14.4087 2.5017 15.2769 3.39473C16.1451 4.28776 16.6329 5.49897 16.6329 6.7619V8.66667H19.4107C19.6562 8.66667 19.8917 8.76701 20.0654 8.94561C20.239 9.12422 20.3366 9.36646 20.3366 9.61905V21.0476C20.3366 21.3002 20.239 21.5424 20.0654 21.7211C19.8917 21.8997 19.6562 22 19.4107 22H4.59585C4.35028 22 4.11476 21.8997 3.94112 21.7211C3.76747 21.5424 3.66992 21.3002 3.66992 21.0476V9.61905C3.66992 9.36646 3.76747 9.12422 3.94112 8.94561C4.11476 8.76701 4.35028 8.66667 4.59585 8.66667H7.37363ZM7.37363 10.5714H5.52177V20.0952H18.4847V10.5714H16.6329V12.4762H14.781V10.5714H9.22548V12.4762H7.37363V10.5714ZM9.22548 8.66667H14.781V6.7619C14.781 6.00414 14.4884 5.27742 13.9674 4.7416C13.4465 4.20578 12.74 3.90476 12.0033 3.90476C11.2665 3.90476 10.56 4.20578 10.0391 4.7416C9.51814 5.27742 9.22548 6.00414 9.22548 6.7619V8.66667Z" fill="black"/>
</svg>
