<svg xmlns="http://www.w3.org/2000/svg" width="17" height="17" viewBox="0 0 17 17" fill="none"><rect width="17" height="17" fill="none"/>
<path d="M9.224 7.4145H7.95416V5.50973H6.04939V4.23988H7.95416V2.33512H9.224V4.23988H11.1288V5.50973H9.224V7.4145Z" fill="black"/>
<path d="M4.15101 14.3986C4.15101 13.7002 4.71609 13.1288 5.41451 13.1288C6.11292 13.1288 6.68435 13.7002 6.68435 14.3986C6.68435 15.097 6.11292 15.6685 5.41451 15.6685C4.71609 15.6685 4.15101 15.097 4.15101 14.3986Z" fill="black"/>
<path d="M11.7639 13.1288C11.0655 13.1288 10.5004 13.7002 10.5004 14.3986C10.5004 15.097 11.0655 15.6685 11.7639 15.6685C12.4623 15.6685 13.0337 15.097 13.0337 14.3986C13.0337 13.7002 12.4623 13.1288 11.7639 13.1288Z" fill="black"/>
<path d="M10.8431 9.95429H6.11293L5.41451 11.2241H13.0336V12.494H5.41451C4.44943 12.494 3.83991 11.4591 4.3034 10.6083L5.16054 9.05905L2.87482 4.23999H1.60498V2.97014H3.68118L6.38594 8.68444H10.8431L13.3002 4.23999L14.405 4.84951L11.9542 9.30032C11.7383 9.69397 11.3193 9.95429 10.8431 9.95429Z" fill="black"/>
</svg>
