<svg xmlns="http://www.w3.org/2000/svg" width="25" height="24" viewBox="0 0 25 24" fill="none"><rect width="25" height="24" fill="none"/>
<path d="M13.8333 9.61907H11.9285V6.76192H9.0714V4.85715H11.9285V2H13.8333V4.85715H16.6905V6.76192H13.8333V9.61907Z" fill="black"/>
<path d="M6.22384 20.0952C6.22384 19.0476 7.07146 18.1905 8.11908 18.1905C9.1667 18.1905 10.0238 19.0476 10.0238 20.0952C10.0238 21.1429 9.1667 22 8.11908 22C7.07146 22 6.22384 21.1429 6.22384 20.0952Z" fill="black"/>
<path d="M17.6431 18.1905C16.5955 18.1905 15.7479 19.0476 15.7479 20.0952C15.7479 21.1429 16.5955 22 17.6431 22C18.6907 22 19.5479 21.1429 19.5479 20.0952C19.5479 19.0476 18.6907 18.1905 17.6431 18.1905Z" fill="black"/>
<path d="M16.262 13.4288H9.16671L8.11908 15.3335H19.5477V17.2383H8.11908C6.67146 17.2383 5.75717 15.6859 6.45241 14.4097L7.73813 12.0859L4.30955 4.85731H2.40479V2.95254H5.51908L9.57623 11.524H16.262L19.9477 4.85731L21.6048 5.7716L17.9286 12.4478C17.6048 13.0383 16.9762 13.4288 16.262 13.4288Z" fill="black"/>
</svg>
