<svg xmlns="http://www.w3.org/2000/svg" width="16" height="16" viewBox="0 0 16 16" fill="none"><rect width="16" height="16" fill="none"/>
<path d="M4.91494 5.77777V4.50793C4.91494 3.66597 5.24011 2.8585 5.81893 2.26315C6.39774 1.66779 7.18279 1.33333 8.00136 1.33333C8.81993 1.33333 9.60497 1.66779 10.1838 2.26315C10.7626 2.8585 11.0878 3.66597 11.0878 4.50793V5.77777H12.9396C13.1033 5.77777 13.2604 5.84467 13.3761 5.96374C13.4919 6.08281 13.5569 6.2443 13.5569 6.41269V14.0317C13.5569 14.2001 13.4919 14.3616 13.3761 14.4807C13.2604 14.5998 13.1033 14.6667 12.9396 14.6667H3.06308C2.89937 14.6667 2.74236 14.5998 2.6266 14.4807C2.51084 14.3616 2.4458 14.2001 2.4458 14.0317V6.41269C2.4458 6.2443 2.51084 6.08281 2.6266 5.96374C2.74236 5.84467 2.89937 5.77777 3.06308 5.77777H4.91494ZM4.91494 7.04761H3.68037V13.3968H12.3223V7.04761H11.0878V8.31746H9.85321V7.04761H6.1495V8.31746H4.91494V7.04761ZM6.1495 5.77777H9.85321V4.50793C9.85321 4.00276 9.6581 3.51827 9.31081 3.16106C8.96352 2.80385 8.4925 2.60317 8.00136 2.60317C7.51021 2.60317 7.03919 2.80385 6.6919 3.16106C6.34461 3.51827 6.1495 4.00276 6.1495 4.50793V5.77777Z" fill="black"/>
</svg>
