<svg xmlns="http://www.w3.org/2000/svg" width="17" height="17" viewBox="0 0 17 17" fill="none"><rect width="17" height="17" fill="none"/>
<path d="M4.91933 6.77956V5.50972C4.91933 4.66776 5.24451 3.86029 5.82332 3.26494C6.40214 2.66958 7.18718 2.33512 8.00575 2.33512C8.82432 2.33512 9.60936 2.66958 10.1882 3.26494C10.767 3.86029 11.0922 4.66776 11.0922 5.50972V6.77956H12.944C13.1077 6.77956 13.2647 6.84646 13.3805 6.96553C13.4963 7.0846 13.5613 7.24609 13.5613 7.41448V15.0335C13.5613 15.2019 13.4963 15.3634 13.3805 15.4825C13.2647 15.6016 13.1077 15.6685 12.944 15.6685H3.06748C2.90377 15.6685 2.74676 15.6016 2.63099 15.4825C2.51523 15.3634 2.4502 15.2019 2.4502 15.0335V7.41448C2.4502 7.24609 2.51523 7.0846 2.63099 6.96553C2.74676 6.84646 2.90377 6.77956 3.06748 6.77956H4.91933ZM4.91933 8.0494H3.68476V14.3986H12.3267V8.0494H11.0922V9.31924H9.8576V8.0494H6.1539V9.31924H4.91933V8.0494ZM6.1539 6.77956H9.8576V5.50972C9.8576 5.00455 9.6625 4.52006 9.31521 4.16285C8.96792 3.80564 8.49689 3.60496 8.00575 3.60496C7.51461 3.60496 7.04358 3.80564 6.69629 4.16285C6.349 4.52006 6.1539 5.00455 6.1539 5.50972V6.77956Z" fill="black"/>
</svg>
