<svg xmlns="http://www.w3.org/2000/svg" width="16" height="16" viewBox="0 0 16 16" fill="none"><rect width="16" height="16" fill="none"/>
<path d="M9.21912 6.41271H7.94927V4.50794H6.04451V3.2381H7.94927V1.33333H9.21912V3.2381H11.1239V4.50794H9.21912V6.41271Z" fill="black"/>
<path d="M4.14613 13.3968C4.14613 12.6984 4.71121 12.127 5.40963 12.127C6.10804 12.127 6.67947 12.6984 6.67947 13.3968C6.67947 14.0952 6.10804 14.6667 5.40963 14.6667C4.71121 14.6667 4.14613 14.0952 4.14613 13.3968Z" fill="black"/>
<path d="M11.759 12.127C11.0606 12.127 10.4955 12.6984 10.4955 13.3968C10.4955 14.0952 11.0606 14.6667 11.759 14.6667C12.4574 14.6667 13.0288 14.0952 13.0288 13.3968C13.0288 12.6984 12.4574 12.127 11.759 12.127Z" fill="black"/>
<path d="M10.8382 8.9525H6.10804L5.40963 10.2223H13.0287V11.4922H5.40963C4.44455 11.4922 3.83502 10.4573 4.29852 9.60647L5.15566 8.05726L2.86994 3.2382H1.6001V1.96836H3.67629L6.38106 7.68266H10.8382L13.2954 3.2382L14.4001 3.84773L11.9493 8.29853C11.7335 8.69218 11.3144 8.9525 10.8382 8.9525Z" fill="black"/>
</svg>
