<svg xmlns="http://www.w3.org/2000/svg" width="24" height="24" viewBox="0 0 24 24" fill="none"><rect width="24" height="24" fill="none"/>
<path d="M13.8294 9.61907H11.9246V6.76192H9.0675V4.85715H11.9246V2H13.8294V4.85715H16.6866V6.76192H13.8294V9.61907Z" fill="black"/>
<path d="M6.21993 20.0952C6.21993 19.0476 7.06755 18.1905 8.11517 18.1905C9.16279 18.1905 10.0199 19.0476 10.0199 20.0952C10.0199 21.1429 9.16279 22 8.11517 22C7.06755 22 6.21993 21.1429 6.21993 20.0952Z" fill="black"/>
<path d="M17.6392 18.1905C16.5916 18.1905 15.744 19.0476 15.744 20.0952C15.744 21.1429 16.5916 22 17.6392 22C18.6868 22 19.544 21.1429 19.544 20.0952C19.544 19.0476 18.6868 18.1905 17.6392 18.1905Z" fill="black"/>
<path d="M16.2581 13.4288H9.1628L8.11518 15.3335H19.5438V17.2383H8.11518C6.66756 17.2383 5.75327 15.6859 6.44851 14.4097L7.73422 12.0859L4.30565 4.85731H2.40088V2.95254H5.51517L9.57232 11.524H16.2581L19.9438 4.85731L21.6009 5.7716L17.9247 12.4478C17.6009 13.0383 16.9723 13.4288 16.2581 13.4288Z" fill="black"/>
</svg>
