<svg xmlns="http://www.w3.org/2000/svg" width="24" height="24" viewBox="0 0 24 24" fill="none"><rect width="24" height="24" fill="none"/>
<path fill-rule="evenodd" clip-rule="evenodd" d="M10.4106 3.78386V6.56771H9.65914C9.24584 6.56771 8.82207 6.57624 8.71741 6.58667C7.82128 6.67596 7.00009 7.0114 6.30339 7.57277C6.07372 7.75781 5.72088 8.12158 5.54648 8.35307C4.98645 9.09655 4.65934 10.0102 4.63633 10.8951L4.63155 11.0788L11.9978 11.0835L19.3641 11.0881L19.3508 10.863C19.2931 9.88307 18.9526 8.98996 18.3542 8.24905C18.1887 8.04407 17.8382 7.69518 17.6401 7.53813C17.1576 7.15568 16.5271 6.84755 15.9224 6.69867C15.4766 6.58894 15.3857 6.58122 14.4394 6.57256L13.5711 6.56462V3.78231V1H11.9909H10.4106V3.78386ZM11.8656 12.1374C11.4707 12.2039 11.1839 12.6015 11.2505 12.9902C11.3063 13.3158 11.5289 13.5502 11.845 13.6161C12.4475 13.7417 12.9332 13.1114 12.6683 12.5477C12.6145 12.4333 12.4729 12.2821 12.3646 12.2236C12.2132 12.1417 12.0289 12.1099 11.8656 12.1374ZM6.32825 12.1707C6.18779 12.2156 6.11146 12.2656 6.00433 12.3828C5.72033 12.6936 5.73523 13.1483 6.03864 13.4292C6.22247 13.5994 6.44128 13.6686 6.67117 13.6292C6.82387 13.6031 6.93142 13.5505 7.0495 13.4443C7.21543 13.2951 7.30516 13.0978 7.30516 12.8821C7.30516 12.3763 6.81092 12.0163 6.32825 12.1707ZM8.89148 12.1698C8.63716 12.2645 8.45573 12.4727 8.39683 12.7374C8.27499 13.2851 8.80702 13.7742 9.34314 13.6074C9.89719 13.4349 10.0691 12.7411 9.65558 12.3467C9.5035 12.2016 9.38077 12.1507 9.16106 12.1416C9.02104 12.1358 8.9677 12.1414 8.89148 12.1698ZM14.6168 12.1692C14.4157 12.2356 14.2673 12.3706 14.1702 12.5756C14.1177 12.6864 14.1132 12.7111 14.1132 12.8892C14.1132 13.0708 14.1169 13.0901 14.1738 13.2056C14.2782 13.4177 14.4502 13.5588 14.6741 13.6162C15.0905 13.723 15.5147 13.4447 15.5943 13.0126C15.6543 12.6871 15.4756 12.3451 15.1709 12.2024C15.0154 12.1296 14.7797 12.1155 14.6168 12.1692ZM17.1665 12.1804C17.0169 12.2419 16.9219 12.3121 16.8379 12.4234C16.5407 12.8171 16.6795 13.3609 17.1318 13.5742C17.2418 13.6262 17.2735 13.6326 17.4208 13.6328C17.6188 13.633 17.7379 13.5969 17.8729 13.4954C18.1499 13.2873 18.2527 12.9317 18.1292 12.6085C18.0512 12.4044 17.8593 12.2222 17.6589 12.1618C17.5184 12.1196 17.2939 12.128 17.1665 12.1804ZM5.32107 14.9947C5.11074 15.0512 4.9412 15.1945 4.83892 15.4023C4.78173 15.5184 4.77856 15.5356 4.77856 15.7278C4.77856 15.9194 4.78188 15.9374 4.83798 16.0514C4.87517 16.127 4.93528 16.2079 4.99871 16.2679C5.44784 16.6927 6.15876 16.4414 6.26146 15.8216C6.34709 15.3048 5.83677 14.8561 5.32107 14.9947ZM18.3128 14.9841C18.0953 15.0298 17.8896 15.1956 17.7903 15.4051C17.7371 15.5173 17.7331 15.5397 17.7331 15.7282C17.7331 15.9193 17.7365 15.9375 17.7926 16.0514C17.8647 16.198 18.0136 16.3449 18.1559 16.4101C18.6067 16.6165 19.132 16.3315 19.2125 15.8369C19.2545 15.5788 19.1341 15.2799 18.9234 15.1192C18.768 15.0007 18.508 14.9431 18.3128 14.9841ZM8.48117 15.1417C8.19546 15.2181 7.98168 15.4536 7.92595 15.7533C7.88374 15.9802 7.96569 16.2346 8.13577 16.4045C8.50359 16.7718 9.10818 16.6694 9.33993 16.2005C9.40676 16.0653 9.40913 16.0538 9.40913 15.8662C9.40913 15.6833 9.40554 15.6646 9.34814 15.548C9.24199 15.3324 9.04897 15.1819 8.81562 15.1327C8.68939 15.1061 8.60561 15.1084 8.48117 15.1417ZM15.135 15.1413C14.7581 15.2426 14.5127 15.6135 14.5764 15.9854C14.6483 16.405 15.0225 16.6815 15.4316 16.6173C16.0411 16.5217 16.2854 15.7551 15.8404 15.3343C15.6383 15.1432 15.3853 15.074 15.135 15.1413ZM11.8656 15.2612C11.4875 15.3249 11.211 15.6861 11.2435 16.0741C11.2794 16.5033 11.6964 16.8266 12.1147 16.7495C12.5915 16.6617 12.8639 16.1709 12.6897 15.7134C12.6406 15.5843 12.4906 15.4155 12.3644 15.3473C12.2132 15.2655 12.0289 15.2337 11.8656 15.2612ZM4.24894 17.8485C3.72021 18.0227 3.55287 18.6914 3.93908 19.0867C4.41868 19.5777 5.22875 19.2392 5.22875 18.5479C5.22875 18.2569 5.06622 18.0102 4.78894 17.8804C4.63245 17.8072 4.41355 17.7943 4.24894 17.8485ZM19.295 17.8391C18.9263 17.9561 18.7045 18.3095 18.7679 18.679C18.8174 18.9678 19.0059 19.1891 19.2814 19.2819C19.6696 19.4127 20.1039 19.1834 20.2253 18.7837C20.343 18.3962 20.1146 17.9523 19.7402 17.8412C19.6281 17.8079 19.397 17.8068 19.295 17.8391ZM7.99423 18.1331C7.81729 18.189 7.68328 18.289 7.58211 18.4405C7.32395 18.8271 7.46811 19.347 7.88874 19.5463C8.00356 19.6007 8.02668 19.605 8.20555 19.605C8.37669 19.605 8.41043 19.5994 8.5042 19.5554C8.56234 19.5282 8.65433 19.4639 8.70862 19.4125C9.21727 18.9315 8.88587 18.1029 8.18717 18.1088C8.12148 18.1094 8.03466 18.1203 7.99423 18.1331ZM15.554 18.1412C15.2057 18.2562 14.9772 18.6246 15.0385 18.9726C15.1085 19.3696 15.4361 19.6333 15.8311 19.6104C16.1006 19.5948 16.3291 19.4426 16.4498 19.1984C16.5076 19.0814 16.5191 19.0377 16.5259 18.9085C16.5391 18.656 16.4648 18.465 16.2895 18.301C16.1526 18.173 16.0235 18.1212 15.8221 18.1136C15.6974 18.1088 15.6314 18.1156 15.554 18.1412ZM11.8656 18.385C11.7312 18.4076 11.5776 18.4866 11.4763 18.5852C11.0914 18.9599 11.1911 19.5725 11.6759 19.8121C11.8065 19.8767 11.8243 19.8806 11.9899 19.8806C12.1503 19.8806 12.1765 19.8754 12.294 19.8199C12.5748 19.6874 12.7442 19.4267 12.7442 19.1272C12.7442 18.914 12.6623 18.7245 12.5074 18.5796C12.3331 18.4166 12.0992 18.3457 11.8656 18.385ZM3.26452 20.6723C3.0438 20.7316 2.84667 20.8952 2.75169 21.0979C2.70728 21.1927 2.70215 21.2246 2.70215 21.4061C2.70215 21.5973 2.70549 21.6154 2.76157 21.7293C2.90681 22.0244 3.24878 22.2063 3.55353 22.1506C3.87556 22.0918 4.12364 21.8406 4.18487 21.5114C4.24056 21.2119 4.06644 20.8711 3.78822 20.735C3.60287 20.6443 3.44061 20.6249 3.26452 20.6723ZM20.3828 20.6621C20.158 20.7188 19.9651 20.8752 19.8685 21.0791C19.8132 21.1958 19.8095 21.2163 19.8095 21.4061C19.8095 21.5973 19.8129 21.6154 19.869 21.7293C20.0131 22.0222 20.3414 22.2004 20.6464 22.1513C21.0636 22.0841 21.3533 21.6984 21.2889 21.2959C21.2311 20.9351 20.9435 20.6679 20.5951 20.6513C20.5167 20.6476 20.4212 20.6525 20.3828 20.6621ZM7.59916 21.1044C7.29465 21.1638 7.03802 21.4352 6.99605 21.7422C6.92764 22.2424 7.36997 22.6816 7.85263 22.5927C8.17273 22.5337 8.39794 22.3157 8.47311 21.992C8.56375 21.6017 8.30942 21.2035 7.91163 21.113C7.77283 21.0814 7.72347 21.0801 7.59916 21.1044ZM16.0794 21.1101C15.8601 21.1645 15.6558 21.333 15.5593 21.5389C15.5148 21.6337 15.5097 21.6656 15.5097 21.8471C15.5097 22.0379 15.5131 22.0566 15.5685 22.1687C15.7188 22.4728 16.0496 22.6499 16.3605 22.5927C16.7806 22.5153 17.0554 22.1424 16.9899 21.7388C16.9368 21.4111 16.6999 21.1622 16.3846 21.1028C16.2612 21.0796 16.1961 21.0811 16.0794 21.1101ZM11.8471 21.5081C11.4625 21.5838 11.1852 21.9805 11.2505 22.3616C11.3078 22.696 11.5598 22.9486 11.8798 22.9923C12.2124 23.0378 12.5166 22.8788 12.6628 22.5828C12.8872 22.1289 12.6214 21.602 12.1202 21.507C12.0088 21.4858 11.9592 21.486 11.8471 21.5081Z" fill="black"/>
</svg>
