<svg xmlns="http://www.w3.org/2000/svg" width="17" height="17" viewBox="0 0 17 17" fill="none"><rect width="17" height="17" fill="none"/>
<path d="M8.00479 1.34003C11.5119 1.34003 14.3548 4.18257 14.3548 7.68923V10.0791C14.3548 10.3149 14.2891 10.5461 14.165 10.7468C14.041 10.9474 13.8635 11.1095 13.6525 11.2149L11.8148 12.1337V12.7686C11.8148 13.2544 11.6292 13.7219 11.2958 14.0754C10.9625 14.4289 10.5066 14.6417 10.0215 14.6702L9.87803 14.6734C9.89199 14.6042 9.90133 14.5342 9.90598 14.4638L9.90979 14.3559V14.0384C9.90989 13.7181 9.78888 13.4095 9.57101 13.1746C9.35315 12.9397 9.05454 12.7958 8.73503 12.7718L8.63978 12.7686H7.36979C7.04938 12.7685 6.74078 12.8895 6.50584 13.1073C6.2709 13.3252 6.12699 13.6237 6.10296 13.9432L6.09978 14.0384V14.3559C6.09978 14.4645 6.11058 14.5711 6.13154 14.6734H6.09978C5.59455 14.6734 5.11 14.4727 4.75275 14.1155C4.39549 13.7583 4.19479 13.2738 4.19479 12.7686V12.1337L2.3571 11.2149C2.14598 11.1095 1.96844 10.9473 1.84438 10.7465C1.72033 10.5458 1.65468 10.3144 1.65479 10.0784V7.68923C1.65479 4.18257 4.49768 1.34003 8.00479 1.34003ZM5.46479 7.05431C5.12796 7.05431 4.80493 7.1881 4.56676 7.42624C4.32859 7.66438 4.19479 7.98737 4.19479 8.32415C4.19479 8.66094 4.32859 8.98393 4.56676 9.22207C4.80493 9.46021 5.12796 9.594 5.46479 9.594C5.80161 9.594 6.12464 9.46021 6.36281 9.22207C6.60098 8.98393 6.73479 8.66094 6.73479 8.32415C6.73479 7.98737 6.60098 7.66438 6.36281 7.42624C6.12464 7.1881 5.80161 7.05431 5.46479 7.05431ZM10.5448 7.05431C10.208 7.05431 9.88493 7.1881 9.64676 7.42624C9.40859 7.66438 9.27479 7.98737 9.27479 8.32415C9.27479 8.66094 9.40859 8.98393 9.64676 9.22207C9.88493 9.46021 10.208 9.594 10.5448 9.594C10.8816 9.594 11.2046 9.46021 11.4428 9.22207C11.681 8.98393 11.8148 8.66094 11.8148 8.32415C11.8148 7.98737 11.681 7.66438 11.4428 7.42624C11.2046 7.1881 10.8816 7.05431 10.5448 7.05431Z" fill="black"/>
</svg>
