<svg xmlns="http://www.w3.org/2000/svg" width="25" height="24" viewBox="0 0 25 24" fill="none"><rect width="25" height="24" fill="none"/>
<path d="M12.0099 2C17.2705 2 21.5349 6.26381 21.5349 11.5238V15.1086C21.5349 15.4624 21.4363 15.8092 21.2502 16.1101C21.0641 16.4111 20.7979 16.6542 20.4814 16.8124L17.7249 18.1905V19.1429C17.7249 19.8716 17.4464 20.5729 16.9464 21.1031C16.4464 21.6333 15.7626 21.9525 15.035 21.9952L14.8197 22C14.8407 21.8963 14.8547 21.7913 14.8616 21.6857L14.8674 21.5238V21.0476C14.8675 20.5671 14.686 20.1042 14.3592 19.7519C14.0324 19.3995 13.5845 19.1837 13.1052 19.1476L12.9624 19.1429H11.0574C10.5768 19.1427 10.1138 19.3242 9.76144 19.6509C9.40903 19.9777 9.19317 20.4256 9.15713 20.9048L9.15236 21.0476V21.5238C9.15236 21.6867 9.16856 21.8467 9.19999 22H9.15236C8.39451 22 7.66769 21.699 7.13181 21.1632C6.59592 20.6273 6.29486 19.9006 6.29486 19.1429V18.1905L3.53833 16.8124C3.22166 16.6542 2.95534 16.4108 2.76926 16.1097C2.58318 15.8086 2.4847 15.4616 2.48486 15.1076V11.5238C2.48486 6.26381 6.74921 2 12.0099 2ZM8.19986 10.5714C7.69463 10.5714 7.21008 10.7721 6.85282 11.1293C6.49557 11.4865 6.29486 11.971 6.29486 12.4762C6.29486 12.9814 6.49557 13.4658 6.85282 13.8231C7.21008 14.1803 7.69463 14.381 8.19986 14.381C8.7051 14.381 9.18964 14.1803 9.5469 13.8231C9.90416 13.4658 10.1049 12.9814 10.1049 12.4762C10.1049 11.971 9.90416 11.4865 9.5469 11.1293C9.18964 10.7721 8.7051 10.5714 8.19986 10.5714ZM15.8199 10.5714C15.3146 10.5714 14.8301 10.7721 14.4728 11.1293C14.1156 11.4865 13.9149 11.971 13.9149 12.4762C13.9149 12.9814 14.1156 13.4658 14.4728 13.8231C14.8301 14.1803 15.3146 14.381 15.8199 14.381C16.3251 14.381 16.8096 14.1803 17.1669 13.8231C17.5242 13.4658 17.7249 12.9814 17.7249 12.4762C17.7249 11.971 17.5242 11.4865 17.1669 11.1293C16.8096 10.7721 16.3251 10.5714 15.8199 10.5714Z" fill="black"/>
</svg>
