<svg xmlns="http://www.w3.org/2000/svg" width="24" height="24" viewBox="0 0 24 24" fill="none"><rect width="24" height="24" fill="none"/>
<path d="M12.005 2C17.2656 2 21.53 6.26381 21.53 11.5238V15.1086C21.53 15.4624 21.4314 15.8092 21.2453 16.1101C21.0593 16.4111 20.793 16.6542 20.4765 16.8124L17.72 18.1905V19.1429C17.72 19.8716 17.4415 20.5729 16.9415 21.1031C16.4415 21.6333 15.7577 21.9525 15.0301 21.9952L14.8149 22C14.8358 21.8963 14.8498 21.7913 14.8568 21.6857L14.8625 21.5238V21.0476C14.8626 20.5671 14.6811 20.1042 14.3543 19.7519C14.0275 19.3995 13.5796 19.1837 13.1004 19.1476L12.9575 19.1429H11.0525C10.5719 19.1427 10.109 19.3242 9.75656 19.6509C9.40415 19.9777 9.18829 20.4256 9.15224 20.9048L9.14748 21.0476V21.5238C9.14748 21.6867 9.16367 21.8467 9.19511 22H9.14748C8.38962 22 7.66281 21.699 7.12692 21.1632C6.59104 20.6273 6.28998 19.9006 6.28998 19.1429V18.1905L3.53345 16.8124C3.21677 16.6542 2.95046 16.4108 2.76438 16.1097C2.5783 15.8086 2.47982 15.4616 2.47998 15.1076V11.5238C2.47998 6.26381 6.74432 2 12.005 2ZM8.19498 10.5714C7.68974 10.5714 7.2052 10.7721 6.84794 11.1293C6.49069 11.4865 6.28998 11.971 6.28998 12.4762C6.28998 12.9814 6.49069 13.4658 6.84794 13.8231C7.2052 14.1803 7.68974 14.381 8.19498 14.381C8.70022 14.381 9.18476 14.1803 9.54202 13.8231C9.89928 13.4658 10.1 12.9814 10.1 12.4762C10.1 11.971 9.89928 11.4865 9.54202 11.1293C9.18476 10.7721 8.70022 10.5714 8.19498 10.5714ZM15.815 10.5714C15.3097 10.5714 14.8252 10.7721 14.4679 11.1293C14.1107 11.4865 13.91 11.971 13.91 12.4762C13.91 12.9814 14.1107 13.4658 14.4679 13.8231C14.8252 14.1803 15.3097 14.381 15.815 14.381C16.3202 14.381 16.8048 14.1803 17.162 13.8231C17.5193 13.4658 17.72 12.9814 17.72 12.4762C17.72 11.971 17.5193 11.4865 17.162 11.1293C16.8048 10.7721 16.3202 10.5714 15.815 10.5714Z" fill="black"/>
</svg>
