<svg xmlns="http://www.w3.org/2000/svg" width="16" height="16" viewBox="0 0 16 16" fill="none"><rect width="16" height="16" fill="none"/>
<path d="M8.00253 1.33331C11.5092 1.33331 14.3517 4.17585 14.3517 7.68252V10.0724C14.3517 10.3082 14.286 10.5394 14.162 10.7401C14.038 10.9407 13.8605 11.1028 13.6495 11.2082L11.8121 12.127V12.7619C11.8121 13.2477 11.6264 13.7152 11.2931 14.0687C10.9598 14.4222 10.504 14.635 10.019 14.6635L9.87554 14.6666C9.8895 14.5975 9.89883 14.5275 9.90348 14.4571L9.90729 14.3492V14.0317C9.90739 13.7114 9.7864 13.4028 9.56856 13.1679C9.35073 12.933 9.05215 12.7891 8.73269 12.7651L8.63745 12.7619H7.36761C7.04724 12.7618 6.73868 12.8828 6.50377 13.1006C6.26886 13.3185 6.12497 13.617 6.10094 13.9365L6.09777 14.0317V14.3492C6.09777 14.4578 6.10856 14.5644 6.12951 14.6666H6.09777C5.59259 14.6666 5.10811 14.466 4.7509 14.1088C4.39368 13.7515 4.193 13.2671 4.193 12.7619V12.127L2.35554 11.2082C2.14445 11.1028 1.96693 10.9405 1.84289 10.7398C1.71886 10.539 1.65321 10.3077 1.65332 10.0717V7.68252C1.65332 4.17585 4.49586 1.33331 8.00253 1.33331ZM8.00253 2.60315C6.68289 2.60317 5.41506 3.11677 4.46748 4.0352C3.51989 4.95363 2.96694 6.2048 2.9257 7.52379L2.92316 7.68252V10.0724L5.46284 11.3422V12.3524L5.51046 12.299C5.96018 11.8163 6.5804 11.5279 7.23935 11.4952L7.36761 11.492L8.6838 11.4927L8.82538 11.499C9.45967 11.546 10.0254 11.8228 10.4444 12.2463L10.5422 12.3524V11.3422L13.0819 10.0724V7.68252C13.0819 6.33539 12.5467 5.04343 11.5942 4.09087C10.6416 3.1383 9.34966 2.60315 8.00253 2.60315ZM5.46284 7.0476C5.79963 7.0476 6.12262 7.18139 6.36076 7.41953C6.5989 7.65767 6.73269 7.98066 6.73269 8.31744C6.73269 8.65422 6.5989 8.97721 6.36076 9.21535C6.12262 9.4535 5.79963 9.58728 5.46284 9.58728C5.12606 9.58728 4.80307 9.4535 4.56493 9.21535C4.32679 8.97721 4.193 8.65422 4.193 8.31744C4.193 7.98066 4.32679 7.65767 4.56493 7.41953C4.80307 7.18139 5.12606 7.0476 5.46284 7.0476ZM10.5422 7.0476C10.879 7.0476 11.202 7.18139 11.4401 7.41953C11.6783 7.65767 11.8121 7.98066 11.8121 8.31744C11.8121 8.65422 11.6783 8.97721 11.4401 9.21535C11.202 9.4535 10.879 9.58728 10.5422 9.58728C10.2054 9.58728 9.88244 9.4535 9.6443 9.21535C9.40616 8.97721 9.27237 8.65422 9.27237 8.31744C9.27237 7.98066 9.40616 7.65767 9.6443 7.41953C9.88244 7.18139 10.2054 7.0476 10.5422 7.0476Z" fill="black"/>
</svg>
