<svg xmlns="http://www.w3.org/2000/svg" width="17" height="17" viewBox="0 0 17 17" fill="none"><rect width="17" height="17" fill="none"/>
<path d="M8.0079 1.34003C11.5146 1.34003 14.3571 4.18257 14.3571 7.68923V10.0791C14.3571 10.3149 14.2914 10.5462 14.1674 10.7468C14.0433 10.9474 13.8659 11.1095 13.6549 11.2149L11.8174 12.1337V12.7686C11.8174 13.2544 11.6318 13.7219 11.2985 14.0754C10.9652 14.4289 10.5094 14.6417 10.0244 14.6702L9.88091 14.6734C9.89487 14.6042 9.90421 14.5342 9.90885 14.4638L9.91266 14.3559V14.0384C9.91276 13.7181 9.79177 13.4095 9.57393 13.1746C9.3561 12.9397 9.05752 12.7958 8.73806 12.7718L8.64282 12.7686H7.37298C7.05261 12.7685 6.74405 12.8895 6.50914 13.1073C6.27423 13.3252 6.13034 13.6237 6.10631 13.9432L6.10314 14.0384V14.3559C6.10314 14.4645 6.11393 14.5711 6.13488 14.6734H6.10314C5.59796 14.6734 5.11348 14.4727 4.75627 14.1155C4.39905 13.7583 4.19837 13.2738 4.19837 12.7686V12.1337L2.36091 11.2149C2.14982 11.1095 1.9723 10.9473 1.84827 10.7465C1.72423 10.5458 1.65858 10.3144 1.65869 10.0784V7.68923C1.65869 4.18257 4.50123 1.34003 8.0079 1.34003ZM8.0079 2.60987C6.68826 2.60988 5.42043 3.12348 4.47285 4.04191C3.52526 4.96035 2.97231 6.21151 2.93107 7.5305L2.92853 7.68923V10.0791L5.46822 11.3489V12.3591L5.51583 12.3057C5.96555 11.823 6.58578 11.5346 7.24472 11.5019L7.37298 11.4988L8.68917 11.4994L8.83076 11.5057C9.46504 11.5527 10.0308 11.8296 10.4498 12.253L10.5476 12.3591V11.3489L13.0873 10.0791V7.68923C13.0873 6.3421 12.5521 5.05015 11.5996 4.09758C10.647 3.14501 9.35503 2.60987 8.0079 2.60987ZM5.46822 7.05431C5.805 7.05431 6.12799 7.1881 6.36613 7.42624C6.60427 7.66438 6.73806 7.98737 6.73806 8.32416C6.73806 8.66094 6.60427 8.98393 6.36613 9.22207C6.12799 9.46021 5.805 9.594 5.46822 9.594C5.13143 9.594 4.80844 9.46021 4.5703 9.22207C4.33216 8.98393 4.19837 8.66094 4.19837 8.32416C4.19837 7.98737 4.33216 7.66438 4.5703 7.42624C4.80844 7.1881 5.13143 7.05431 5.46822 7.05431ZM10.5476 7.05431C10.8844 7.05431 11.2074 7.1881 11.4455 7.42624C11.6836 7.66438 11.8174 7.98737 11.8174 8.32416C11.8174 8.66094 11.6836 8.98393 11.4455 9.22207C11.2074 9.46021 10.8844 9.594 10.5476 9.594C10.2108 9.594 9.88781 9.46021 9.64967 9.22207C9.41153 8.98393 9.27774 8.66094 9.27774 8.32416C9.27774 7.98737 9.41153 7.66438 9.64967 7.42624C9.88781 7.1881 10.2108 7.05431 10.5476 7.05431Z" fill="black"/>
</svg>
