<svg xmlns="http://www.w3.org/2000/svg" width="16" height="16" viewBox="0 0 16 16" fill="none"><rect width="16" height="16" fill="none"/>
<path d="M8.00332 1.33331C11.5104 1.33331 14.3533 4.17585 14.3533 7.68252V10.0724C14.3533 10.3082 14.2876 10.5394 14.1636 10.7401C14.0395 10.9407 13.862 11.1028 13.651 11.2082L11.8133 12.127V12.7619C11.8133 13.2477 11.6277 13.7152 11.2943 14.0687C10.961 14.4222 10.5052 14.635 10.0201 14.6635L9.87657 14.6666C9.89053 14.5975 9.89986 14.5275 9.90451 14.4571L9.90832 14.3492V14.0317C9.90842 13.7114 9.78741 13.4028 9.56955 13.1679C9.35169 12.933 9.05307 12.7891 8.73357 12.7651L8.63832 12.7619H7.36832C7.04791 12.7618 6.73931 12.8828 6.50437 13.1006C6.26943 13.3184 6.12553 13.617 6.1015 13.9365L6.09832 14.0317V14.3492C6.09832 14.4578 6.10912 14.5644 6.13007 14.6666H6.09832C5.59308 14.6666 5.10854 14.466 4.75128 14.1088C4.39403 13.7515 4.19332 13.2671 4.19332 12.7619V12.127L2.35563 11.2082C2.14451 11.1028 1.96697 10.9405 1.84292 10.7398C1.71886 10.539 1.65321 10.3077 1.65332 10.0717V7.68252C1.65332 4.17585 4.49622 1.33331 8.00332 1.33331ZM5.46332 7.0476C5.1265 7.0476 4.80347 7.18139 4.56529 7.41953C4.32712 7.65767 4.19332 7.98066 4.19332 8.31744C4.19332 8.65422 4.32712 8.97721 4.56529 9.21535C4.80347 9.45349 5.1265 9.58728 5.46332 9.58728C5.80015 9.58728 6.12317 9.45349 6.36135 9.21535C6.59952 8.97721 6.73332 8.65422 6.73332 8.31744C6.73332 7.98066 6.59952 7.65767 6.36135 7.41953C6.12317 7.18139 5.80015 7.0476 5.46332 7.0476ZM10.5433 7.0476C10.2065 7.0476 9.88347 7.18139 9.64529 7.41953C9.40712 7.65767 9.27332 7.98066 9.27332 8.31744C9.27332 8.65422 9.40712 8.97721 9.64529 9.21535C9.88347 9.45349 10.2065 9.58728 10.5433 9.58728C10.8801 9.58728 11.2032 9.45349 11.4413 9.21535C11.6795 8.97721 11.8133 8.65422 11.8133 8.31744C11.8133 7.98066 11.6795 7.65767 11.4413 7.41953C11.2032 7.18139 10.8801 7.0476 10.5433 7.0476Z" fill="black"/>
</svg>
