<svg xmlns="http://www.w3.org/2000/svg" width="25" height="24" viewBox="0 0 25 24" fill="none"><rect width="25" height="24" fill="none"/>
<path fill-rule="evenodd" clip-rule="evenodd" d="M15.0048 5.00003C15.0048 5.67009 14.7852 6.28883 14.4139 6.78818L17.0951 10.9999H20.2658C21.2262 10.9999 22.0049 11.7786 22.0049 12.7391V20.2608C22.0049 21.2213 21.2262 21.9999 20.2658 21.9999H3.74401C2.78352 21.9999 2.00488 21.2213 2.00488 20.2608V12.7391C2.00488 11.7786 2.78352 10.9999 3.74401 10.9999H6.91346L9.59414 6.78599C9.22387 6.28702 9.00484 5.6691 9.00484 5.00003C9.00484 3.34318 10.348 2.00003 12.0048 2.00003C13.6617 2.00003 15.0048 3.34318 15.0048 5.00003ZM15.3278 10.9999H8.6804L10.7602 7.73048C11.1394 7.90358 11.5608 8.00003 12.0048 8.00003C12.4479 8.00003 12.8686 7.90397 13.2471 7.73153L15.3278 10.9999ZM14.4448 14.0001L11.5635 16.9414L9.52777 14.9623L8.48216 16.0377L11.5893 19.0586L15.5407 15.0248L14.4947 14.0001H14.4448Z" fill="black"/>
</svg>
