<svg xmlns="http://www.w3.org/2000/svg" width="17" height="17" viewBox="0 0 17 17" fill="none"><rect width="17" height="17" fill="none"/>
<path fill-rule="evenodd" clip-rule="evenodd" d="M10.0065 3.34C10.0065 3.7867 9.86003 4.1992 9.61253 4.5321L11.4 7.33994H13.5138C14.1541 7.33994 14.6732 7.85903 14.6732 8.49936V13.5139C14.6732 14.1542 14.1541 14.6733 13.5138 14.6733H2.49926C1.85893 14.6733 1.33984 14.1542 1.33984 13.5139V8.49936C1.33984 7.85903 1.85893 7.33994 2.49926 7.33994H4.61223L6.39935 4.53064C6.1525 4.19799 6.00648 3.78605 6.00648 3.34C6.00648 2.23543 6.90191 1.34 8.00648 1.34C9.11105 1.34 10.0065 2.23543 10.0065 3.34ZM10.2218 7.33994H5.79019L7.17675 5.1603C7.42951 5.2757 7.71048 5.34 8.00648 5.34C8.30188 5.34 8.58233 5.27596 8.83469 5.161L10.2218 7.33994ZM9.63309 9.34006L7.71224 11.3009L6.3551 9.98148L5.65803 10.6985L7.72946 12.7124L10.3637 10.0232L9.66637 9.34006H9.63309Z" fill="black"/>
</svg>
