<svg xmlns="http://www.w3.org/2000/svg" width="24" height="24" viewBox="0 0 24 24" fill="none"><rect width="24" height="24" fill="none"/>
<path fill-rule="evenodd" clip-rule="evenodd" d="M15.45 3.95C15.45 4.72056 15.1973 5.43212 14.7704 6.00638L17.8537 10.8499H21.5C22.6046 10.8499 23.5 11.7453 23.5 12.8499V21.4999C23.5 22.6045 22.6046 23.4999 21.5 23.4999H2.5C1.39543 23.4999 0.5 22.6045 0.5 21.4999V12.8499C0.5 11.7453 1.39543 10.8499 2.5 10.8499H6.14487L9.22764 6.00385C8.80183 5.43004 8.54995 4.71943 8.54995 3.95C8.54995 2.04462 10.0946 0.5 12 0.5C13.9053 0.5 15.45 2.04462 15.45 3.95ZM15.8213 10.8499H8.17685L10.5687 7.09002C11.0047 7.28908 11.4894 7.4 12 7.4C12.5095 7.4 12.9933 7.28953 13.4286 7.09122L15.8213 10.8499ZM14.8059 14.3001L11.4924 17.6826L9.15132 15.4066L7.94886 16.6434L11.5221 20.1173L16.0662 15.4785L14.8633 14.3001H14.8059Z" fill="black"/>
</svg>
