<svg xmlns="http://www.w3.org/2000/svg" width="16" height="16" viewBox="0 0 16 16" fill="none"><rect width="16" height="16" fill="none"/>
<path fill-rule="evenodd" clip-rule="evenodd" d="M10.0011 3.33333C10.0011 3.78003 9.85466 4.19253 9.60716 4.52543L11.3946 7.33327H13.5084C14.1487 7.33327 14.6678 7.85236 14.6678 8.49269V13.5072C14.6678 14.1475 14.1487 14.6666 13.5084 14.6666H2.49389C1.85356 14.6666 1.33447 14.1475 1.33447 13.5072V8.49269C1.33447 7.85236 1.85356 7.33327 2.49389 7.33327H4.60686L6.39398 4.52397C6.14713 4.19132 6.00111 3.77938 6.00111 3.33333C6.00111 2.22876 6.89654 1.33333 8.00111 1.33333C9.10568 1.33333 10.0011 2.22876 10.0011 3.33333ZM10.2164 7.33327H5.78482L7.17138 5.15363C7.42413 5.26903 7.70511 5.33333 8.00111 5.33333C8.29651 5.33333 8.57696 5.26929 8.82932 5.15433L10.2164 7.33327ZM9.62772 9.33339L7.70687 11.2943L6.34973 9.97481L5.65265 10.6918L7.72409 12.7057L10.3584 10.0165L9.661 9.33339H9.62772Z" fill="black"/>
</svg>
