<svg xmlns="http://www.w3.org/2000/svg" width="25" height="24" viewBox="0 0 25 24" fill="none"><rect width="25" height="24" fill="none"/>
<path fill-rule="evenodd" clip-rule="evenodd" d="M15.0019 5C15.0019 5.67005 14.7822 6.2888 14.411 6.78815L17.0921 10.9999H20.2628C21.2233 10.9999 22.002 11.7785 22.002 12.739V20.2608C22.002 21.2213 21.2233 21.9999 20.2628 21.9999H3.74108C2.78059 21.9999 2.00195 21.2213 2.00195 20.2608V12.739C2.00195 11.7785 2.78059 10.9999 3.74108 10.9999H6.91053L9.59121 6.78596C9.22094 6.28699 9.00191 5.66907 9.00191 5C9.00191 3.34315 10.3451 2 12.0019 2C13.6588 2 15.0019 3.34315 15.0019 5ZM15.3248 10.9999H8.67747L10.7573 7.73045C11.1364 7.90355 11.5579 8 12.0019 8C12.445 8 12.8657 7.90394 13.2442 7.7315L15.3248 10.9999ZM14.4418 14.0001L11.5606 16.9414L9.52484 14.9622L8.47923 16.0377L11.5864 19.0586L15.5378 15.0248L14.4917 14.0001H14.4418Z" fill="black"/>
</svg>
