<svg xmlns="http://www.w3.org/2000/svg" width="16" height="16" viewBox="0 0 16 16" fill="none"><rect width="16" height="16" fill="none"/>
<path fill-rule="evenodd" clip-rule="evenodd" d="M8.18524 5.17438C8.91382 4.44579 10.094 4.45168 10.8213 5.17895C11.5486 5.90621 11.5545 7.08642 10.8259 7.81501C10.0973 8.5436 8.91708 8.5377 8.18981 7.81044C7.46254 7.08317 7.45665 5.90296 8.18524 5.17438ZM10.0083 5.99192C9.7262 5.7098 9.27396 5.7116 8.99821 5.98735C8.72246 6.2631 8.72066 6.71534 9.00278 6.99746C9.28491 7.27958 9.73715 7.27779 10.0129 7.00204C10.2886 6.72628 10.2904 6.27405 10.0083 5.99192Z" fill="black"/>
<path fill-rule="evenodd" clip-rule="evenodd" d="M14.4099 3.0527C14.1904 2.35571 13.6445 1.80977 12.9475 1.5903C10.9693 0.967447 8.80893 1.49654 7.34247 2.96301L6.61951 3.68596C5.62207 3.25674 4.42103 3.44943 3.6064 4.26406L2.70333 5.16714C2.47883 5.39164 2.47883 5.75562 2.70333 5.98011L3.68049 6.95728C3.53041 7.5305 3.67999 8.16593 4.12923 8.61517L4.32103 8.80696L3.43296 9.33794C3.28089 9.42886 3.17925 9.58483 3.15746 9.76066C3.13568 9.93649 3.19619 10.1125 3.32147 10.2378L5.76234 12.6787C5.88759 12.8039 6.06359 12.8645 6.23938 12.8427C6.41517 12.821 6.57113 12.7194 6.66209 12.5674L7.19354 11.6795L7.38503 11.871C7.83422 12.3202 8.46956 12.4697 9.04274 12.3198L10.0201 13.2971C10.2446 13.5216 10.6085 13.5216 10.833 13.2971L11.7361 12.394C12.5508 11.5793 12.7435 10.3782 12.3142 9.38076L13.0372 8.65773C14.5036 7.19126 15.0327 5.03086 14.4099 3.0527ZM12.6022 2.68695C12.9411 2.79365 13.2065 3.0591 13.3132 3.398C13.8074 4.96737 13.3876 6.68133 12.2242 7.84475L9.01098 11.058C8.78648 11.2825 8.4225 11.2825 8.198 11.058L4.94221 7.80219C4.71771 7.5777 4.71771 7.21371 4.94221 6.98922L8.15544 3.77598C9.31887 2.61256 11.0328 2.1928 12.6022 2.68695ZM11.3799 10.315L10.0219 11.673L10.4266 12.0776L10.9231 11.581C11.2696 11.2346 11.4218 10.7675 11.3799 10.315ZM4.41938 5.07704C4.76576 4.73065 5.23277 4.5784 5.68519 4.62028L4.32732 5.97816L3.92279 5.57363L4.41938 5.07704ZM6.35532 10.8412L5.15935 9.64528L4.65589 9.9463L6.05411 11.3445L6.35532 10.8412Z" fill="black"/>
<path d="M4.14414 12.6691C4.36863 12.4446 4.36863 12.0806 4.14414 11.8561C3.91964 11.6317 3.55566 11.6317 3.33116 11.8561L1.81325 13.3741C1.58876 13.5986 1.58876 13.9625 1.81325 14.187C2.03775 14.4115 2.40173 14.4115 2.62623 14.187L4.14414 12.6691Z" fill="black"/>
<path d="M2.92354 10.6358C3.14804 10.8603 3.14804 11.2243 2.92354 11.4488L2.31484 12.0575C2.09035 12.282 1.72637 12.282 1.50187 12.0575C1.27737 11.833 1.27737 11.469 1.50187 11.2445L2.11057 10.6358C2.33506 10.4113 2.69904 10.4113 2.92354 10.6358Z" fill="black"/>
<path d="M5.36445 13.8896C5.58895 13.6651 5.58895 13.3011 5.36445 13.0766C5.13995 12.8521 4.77597 12.8521 4.55147 13.0766L3.94278 13.6853C3.71828 13.9098 3.71828 14.2738 3.94278 14.4983C4.16727 14.7228 4.53125 14.7228 4.75575 14.4983L5.36445 13.8896Z" fill="black"/>
</svg>
