<svg xmlns="http://www.w3.org/2000/svg" width="24" height="25" viewBox="0 0 24 25" fill="none"><rect width="24" height="25" fill="none"/>
<path fill-rule="evenodd" clip-rule="evenodd" d="M12.2776 7.7666C13.3705 6.67372 15.1408 6.68256 16.2317 7.77346C17.3226 8.86436 17.3314 10.6347 16.2386 11.7275C15.1457 12.8204 13.3754 12.8116 12.2845 11.7207C11.1936 10.6298 11.1847 8.85948 12.2776 7.7666ZM15.0122 8.99292C14.5891 8.56973 13.9107 8.57243 13.4971 8.98606C13.0834 9.39968 13.0807 10.078 13.5039 10.5012C13.9271 10.9244 14.6055 10.9217 15.0191 10.5081C15.4327 10.0945 15.4354 9.4161 15.0122 8.99292Z" fill="black"/>
<path fill-rule="evenodd" clip-rule="evenodd" d="M21.6146 4.58409C21.2854 3.5386 20.4665 2.71968 19.421 2.39049C16.4538 1.45621 13.2132 2.24985 11.0135 4.44955L9.92903 5.53398C8.43287 4.89014 6.6313 5.17919 5.40936 6.40113L4.05474 7.75574C3.718 8.09249 3.718 8.63846 4.05474 8.97521L5.52049 10.4409C5.29537 11.3008 5.51975 12.2539 6.19361 12.9278L6.4813 13.2155L5.14919 14.0119C4.92109 14.1483 4.76862 14.3823 4.73595 14.646C4.70327 14.9098 4.79404 15.1738 4.98197 15.3618L8.64327 19.0231C8.83115 19.211 9.09514 19.3017 9.35883 19.2691C9.62251 19.2365 9.85645 19.0842 9.99289 18.8562L10.7901 17.5242L11.0773 17.8115C11.7511 18.4853 12.7041 18.7097 13.5639 18.4847L15.0299 19.9507C15.3666 20.2874 15.9126 20.2874 16.2493 19.9507L17.6039 18.596C18.8259 17.374 19.1149 15.5724 18.471 14.0762L19.5555 12.9916C21.7552 10.7919 22.5489 7.55133 21.6146 4.58409ZM18.903 4.03545C19.4114 4.19552 19.8096 4.59369 19.9696 5.10204C20.7108 7.4561 20.0812 10.027 18.3361 11.7722L13.5162 16.592C13.1795 16.9288 12.6335 16.9288 12.2968 16.592L7.41307 11.7083C7.07632 11.3716 7.07632 10.8256 7.41307 10.4889L12.2329 5.66901C13.9781 3.92388 16.549 3.29424 18.903 4.03545ZM17.0696 15.4776L15.0326 17.5145L15.6396 18.1215L16.3845 17.3766C16.9041 16.8569 17.1325 16.1563 17.0696 15.4776ZM6.62882 7.62059C7.1484 7.10101 7.84891 6.87263 8.52755 6.93546L6.49073 8.97227L5.88393 8.36547L6.62882 7.62059ZM9.53273 16.2669L7.73878 14.473L6.9836 14.9245L9.08092 17.0218L9.53273 16.2669Z" fill="black"/>
<path d="M6.21596 19.0087C6.5527 18.672 6.5527 18.126 6.21596 17.7893C5.87921 17.4525 5.33324 17.4525 4.9965 17.7893L2.71963 20.0661C2.38289 20.4029 2.38289 20.9488 2.71963 21.2856C3.05638 21.6223 3.60235 21.6223 3.9391 21.2856L6.21596 19.0087Z" fill="black"/>
<path d="M4.38507 15.9588C4.72181 16.2955 4.72181 16.8415 4.38507 17.1782L3.47202 18.0913C3.13527 18.428 2.5893 18.428 2.25256 18.0913C1.91581 17.7545 1.91581 17.2086 2.25256 16.8718L3.16561 15.9588C3.50235 15.622 4.04832 15.622 4.38507 15.9588Z" fill="black"/>
<path d="M8.04643 20.8394C8.38317 20.5027 8.38317 19.9567 8.04643 19.6199C7.70968 19.2832 7.16371 19.2832 6.82697 19.6199L5.91392 20.533C5.57717 20.8697 5.57717 21.4157 5.91392 21.7524C6.25066 22.0892 6.79664 22.0892 7.13338 21.7524L8.04643 20.8394Z" fill="black"/>
</svg>
