<svg xmlns="http://www.w3.org/2000/svg" width="24" height="24" viewBox="0 0 24 24" fill="none"><rect width="24" height="24" fill="none"/>
<path fill-rule="evenodd" clip-rule="evenodd" d="M12.2786 7.76159C13.3715 6.66871 15.1418 6.67755 16.2327 7.76845C17.3236 8.85935 17.3324 10.6297 16.2395 11.7225C15.1467 12.8154 13.3763 12.8066 12.2854 11.7157C11.1945 10.6248 11.1857 8.85447 12.2786 7.76159ZM15.0132 8.98791C14.59 8.56473 13.9117 8.56743 13.498 8.98105C13.0844 9.39468 13.0817 10.073 13.5049 10.4962C13.9281 10.9194 14.6065 10.9167 15.0201 10.5031C15.4337 10.0895 15.4364 9.4111 15.0132 8.98791Z" fill="black"/>
<path fill-rule="evenodd" clip-rule="evenodd" d="M21.6156 4.57909C21.2864 3.53359 20.4675 2.71468 19.422 2.38549C16.4547 1.4512 13.2141 2.24484 11.0144 4.44455L9.93 5.52898C8.43384 4.88513 6.63228 5.17418 5.41034 6.39612L4.05572 7.75074C3.71898 8.08748 3.71898 8.63346 4.05572 8.9702L5.52146 10.4359C5.29635 11.2958 5.52072 12.2489 6.19458 12.9228L6.48227 13.2105L5.15017 14.0069C4.92207 14.1433 4.7696 14.3773 4.73692 14.641C4.70425 14.9048 4.79502 15.1688 4.98294 15.3568L8.64425 19.0181C8.83212 19.2059 9.09612 19.2967 9.3598 19.2641C9.62349 19.2315 9.85742 19.0792 9.99387 18.8512L10.791 17.5192L11.0783 17.8065C11.7521 18.4803 12.7051 18.7047 13.5648 18.4797L15.0308 19.9457C15.3676 20.2824 15.9135 20.2824 16.2503 19.9457L17.6049 18.591C18.8269 17.369 19.1159 15.5674 18.472 14.0712L19.5565 12.9866C21.7562 10.7869 22.5499 7.54632 21.6156 4.57909ZM18.904 4.03045C19.4124 4.19051 19.8105 4.58869 19.9706 5.09703C20.7118 7.45109 20.0822 10.022 18.337 11.7672L13.5172 16.587C13.1805 16.9238 12.6345 16.9238 12.2977 16.587L7.41404 11.7033C7.0773 11.3666 7.0773 10.8206 7.41404 10.4839L12.2339 5.66401C13.979 3.91887 16.55 3.28923 18.904 4.03045ZM17.0705 15.4726L15.0336 17.5095L15.6406 18.1165L16.3854 17.3716C16.9051 16.8519 17.1335 16.1513 17.0705 15.4726ZM6.6298 7.61558C7.14938 7.096 7.84989 6.86763 8.52852 6.93046L6.49171 8.96727L5.88491 8.36047L6.6298 7.61558ZM9.53371 16.2619L7.73975 14.4679L6.98457 14.9195L9.0819 17.0168L9.53371 16.2619Z" fill="black"/>
<path d="M6.21694 19.0037C6.55368 18.667 6.55368 18.121 6.21694 17.7843C5.88019 17.4475 5.33422 17.4475 4.99747 17.7843L2.72061 20.0611C2.38387 20.3979 2.38387 20.9438 2.72061 21.2806C3.05736 21.6173 3.60333 21.6173 3.94007 21.2806L6.21694 19.0037Z" fill="black"/>
<path d="M4.38604 15.9538C4.72279 16.2905 4.72279 16.8365 4.38604 17.1732L3.473 18.0863C3.13625 18.423 2.59028 18.423 2.25354 18.0863C1.91679 17.7495 1.91679 17.2036 2.25354 16.8668L3.16658 15.9538C3.50333 15.617 4.0493 15.617 4.38604 15.9538Z" fill="black"/>
<path d="M8.04741 20.8344C8.38415 20.4976 8.38415 19.9517 8.04741 19.6149C7.71066 19.2782 7.16469 19.2782 6.82794 19.6149L5.9149 20.528C5.57815 20.8647 5.57815 21.4107 5.9149 21.7474C6.25164 22.0842 6.79761 22.0842 7.13436 21.7474L8.04741 20.8344Z" fill="black"/>
</svg>
