<svg xmlns="http://www.w3.org/2000/svg" width="17" height="17" viewBox="0 0 17 17" fill="none"><rect width="17" height="17" fill="none"/>
<path fill-rule="evenodd" clip-rule="evenodd" d="M8.19647 5.18109C8.92505 4.4525 10.1053 4.4584 10.8325 5.18566C11.5598 5.91293 11.5657 7.09314 10.8371 7.82172C10.1085 8.55031 8.92831 8.54441 8.20104 7.81715C7.47377 7.08988 7.46788 5.90967 8.19647 5.18109ZM10.0196 5.99864C9.73743 5.71651 9.28519 5.71831 9.00944 5.99406C8.73369 6.26981 8.73189 6.72205 9.01401 7.00418C9.29614 7.2863 9.74838 7.2845 10.0241 7.00875C10.2999 6.733 10.3017 6.28076 10.0196 5.99864Z" fill="black"/>
<path fill-rule="evenodd" clip-rule="evenodd" d="M14.4211 3.05942C14.2017 2.36242 13.6557 1.81648 12.9587 1.59702C10.9806 0.974161 8.82017 1.50326 7.3537 2.96972L6.63074 3.69268C5.6333 3.26345 4.43226 3.45615 3.61763 4.27078L2.71456 5.17385C2.49006 5.39835 2.49006 5.76233 2.71456 5.98683L3.69172 6.96399C3.54164 7.53722 3.69122 8.17264 4.14046 8.62188L4.33226 8.81367L3.44419 9.34466C3.29212 9.43558 3.19048 9.59154 3.16869 9.76737C3.14691 9.9432 3.20742 10.1193 3.3327 10.2445L5.77357 12.6854C5.89882 12.8107 6.07482 12.8712 6.25061 12.8494C6.4264 12.8277 6.58236 12.7261 6.67332 12.5741L7.20477 11.6862L7.39626 11.8777C7.84545 12.3269 8.48079 12.4765 9.05397 12.3265L10.0313 13.3038C10.2558 13.5283 10.6198 13.5283 10.8443 13.3038L11.7473 12.4007C12.562 11.5861 12.7547 10.3849 12.3254 9.38747L13.0484 8.66444C14.5149 7.19798 15.044 5.03758 14.4211 3.05942ZM12.6134 2.69366C12.9523 2.80037 13.2178 3.06582 13.3245 3.40472C13.8186 4.97409 13.3989 6.68804 12.2354 7.85147L9.02221 11.0647C8.79771 11.2892 8.43373 11.2892 8.20923 11.0647L4.95344 7.80891C4.72894 7.58441 4.72894 7.22043 4.95344 6.99593L8.16667 3.7827C9.3301 2.61927 11.044 2.19952 12.6134 2.69366ZM11.3911 10.3217L10.0332 11.6797L10.4378 12.0843L10.9344 11.5877C11.2808 11.2413 11.4331 10.7742 11.3911 10.3217ZM4.43061 5.08375C4.77699 4.73736 5.244 4.58511 5.69642 4.627L4.33855 5.98487L3.93402 5.58034L4.43061 5.08375ZM6.36655 10.848L5.17058 9.65199L4.66712 9.95301L6.06534 11.3512L6.36655 10.848Z" fill="black"/>
<path d="M4.15537 12.6758C4.37986 12.4513 4.37986 12.0874 4.15537 11.8629C3.93087 11.6384 3.56689 11.6384 3.34239 11.8629L1.82448 13.3808C1.59999 13.6053 1.59999 13.9692 1.82448 14.1937C2.04898 14.4182 2.41296 14.4182 2.63746 14.1937L4.15537 12.6758Z" fill="black"/>
<path d="M2.93477 10.6425C3.15927 10.867 3.15927 11.231 2.93477 11.4555L2.32607 12.0642C2.10158 12.2887 1.7376 12.2887 1.5131 12.0642C1.2886 11.8397 1.2886 11.4757 1.5131 11.2512L2.1218 10.6425C2.34629 10.4181 2.71028 10.4181 2.93477 10.6425Z" fill="black"/>
<path d="M5.37568 13.8963C5.60018 13.6718 5.60018 13.3078 5.37568 13.0833C5.15118 12.8588 4.7872 12.8588 4.56271 13.0833L3.95401 13.692C3.72951 13.9165 3.72951 14.2805 3.95401 14.505C4.1785 14.7295 4.54248 14.7295 4.76698 14.505L5.37568 13.8963Z" fill="black"/>
</svg>
