<svg xmlns="http://www.w3.org/2000/svg" width="24" height="24" viewBox="0 0 24 24" fill="none"><rect width="24" height="24" fill="none"/>
<path d="M12.4562 3.23746L14.3608 7.48122C14.579 7.96721 15.0385 8.30106 15.5681 8.35832L20.1927 8.85839C20.6217 8.90478 20.7945 9.43636 20.4746 9.72606L17.0272 12.8489C16.6324 13.2065 16.4568 13.7467 16.566 14.2681L17.5195 18.8209C17.608 19.2433 17.1558 19.5718 16.7815 19.3572L12.7461 17.0434C12.284 16.7785 11.716 16.7785 11.2539 17.0434L7.21855 19.3572C6.8442 19.5718 6.39201 19.2433 6.48046 18.8209L7.43397 14.2681C7.54316 13.7467 7.36764 13.2065 6.97285 12.8489L3.52537 9.72606C3.20555 9.43636 3.37827 8.90478 3.80729 8.85839L8.43193 8.35832C8.96153 8.30106 9.42104 7.96721 9.63916 7.48122L11.5438 3.23746C11.7205 2.84377 12.2795 2.84377 12.4562 3.23746Z" stroke="black"/>
</svg>
