<svg xmlns="http://www.w3.org/2000/svg" width="24" height="25" viewBox="0 0 24 25" fill="none"><rect width="24" height="25" fill="none"/>
<path d="M11.1738 2.98974C11.4938 2.27669 12.5062 2.27669 12.8262 2.98974L15.0536 7.95251C15.1853 8.24592 15.4627 8.44747 15.7824 8.48205L21.1906 9.06683C21.9676 9.15086 22.2805 10.1137 21.7012 10.6384L17.6697 14.2903C17.4313 14.5062 17.3253 14.8324 17.3913 15.1471L18.5063 20.4713C18.6665 21.2363 17.8475 21.8313 17.1695 21.4426L12.4505 18.7368C12.1715 18.5769 11.8285 18.5769 11.5495 18.7368L6.83052 21.4426C6.15249 21.8313 5.33348 21.2363 5.49369 20.4713L6.60874 15.1471C6.67466 14.8324 6.5687 14.5062 6.33034 14.2903L2.29877 10.6384C1.71952 10.1137 2.03235 9.15086 2.8094 9.06683L8.21756 8.48205C8.53731 8.44747 8.81473 8.24592 8.94641 7.95251L11.1738 2.98974Z" fill="black"/>
</svg>
