<svg xmlns="http://www.w3.org/2000/svg" width="16" height="16" viewBox="0 0 16 16" fill="none"><rect width="16" height="16" fill="none"/>
<path d="M7.44912 1.98323C7.66247 1.50787 8.33737 1.50787 8.55072 1.98323L10.0356 5.29174C10.1234 5.48735 10.3084 5.62172 10.5215 5.64477L14.127 6.03463C14.645 6.09064 14.8536 6.73251 14.4674 7.08232L11.7797 9.51695C11.6208 9.66089 11.5501 9.8783 11.5941 10.0882L12.3375 13.6376C12.4443 14.1476 11.8983 14.5443 11.4462 14.2851L8.30022 12.4813C8.11422 12.3746 7.88562 12.3746 7.69962 12.4813L4.5536 14.2851C4.10158 14.5443 3.55557 14.1476 3.66238 13.6376L4.40575 10.0882C4.44969 9.8783 4.37905 9.66089 4.22015 9.51695L1.53243 7.08232C1.14626 6.73251 1.35482 6.09064 1.87285 6.03463L5.47829 5.64477C5.69146 5.62172 5.8764 5.48735 5.96419 5.29174L7.44912 1.98323Z" fill="black"/>
</svg>
