<svg xmlns="http://www.w3.org/2000/svg" width="24" height="24" viewBox="0 0 24 24" fill="none"><rect width="24" height="24" fill="none"/>
<path d="M12.0963 3.31231L14.3237 8.27508C14.5717 8.82768 15.0942 9.20729 15.6964 9.27241L21.1046 9.85719C21.1371 9.86071 21.1521 9.87059 21.1611 9.87822C21.173 9.88839 21.1859 9.90562 21.1937 9.92955C21.2015 9.95348 21.2012 9.97499 21.1975 9.99023C21.1947 10.0017 21.1884 10.0185 21.1641 10.0405L17.1326 13.6924C16.6837 14.099 16.4841 14.7133 16.6082 15.3061L17.7233 20.6303C17.73 20.6623 17.7252 20.6796 17.7208 20.6905C17.7148 20.705 17.7024 20.7226 17.682 20.7374C17.6617 20.7522 17.6411 20.7585 17.6255 20.7598C17.6137 20.7607 17.5958 20.7598 17.5674 20.7436L12.8484 18.0378C12.3229 17.7365 11.6771 17.7365 11.1516 18.0378L6.43259 20.7436C6.40422 20.7598 6.38626 20.7607 6.37452 20.7598C6.35888 20.7585 6.33835 20.7522 6.31799 20.7374C6.29764 20.7226 6.28522 20.705 6.27924 20.6905C6.27475 20.6796 6.27 20.6623 6.2767 20.6303L7.39175 15.3061C7.51591 14.7133 7.31634 14.099 6.86742 13.6924L2.83586 10.0405C2.81162 10.0185 2.80527 10.0017 2.8025 9.99023C2.79881 9.97498 2.79854 9.95348 2.80632 9.92955C2.81409 9.90562 2.82695 9.88839 2.83889 9.87822C2.84786 9.87059 2.86289 9.86071 2.8954 9.85719L8.30357 9.27241C8.90577 9.20729 9.42825 8.82768 9.67627 8.27508L11.9037 3.31231C11.917 3.28248 11.9311 3.27124 11.9411 3.26507C11.9545 3.25685 11.9748 3.24995 12 3.24995C12.0252 3.24995 12.0455 3.25685 12.0589 3.26507C12.0689 3.27124 12.083 3.28248 12.0963 3.31231Z" stroke="black" stroke-width="1.6"/>
</svg>
