<svg xmlns="http://www.w3.org/2000/svg" width="24" height="24" viewBox="0 0 24 24" fill="none"><rect width="24" height="24" fill="none"/>
<path d="M11.1748 2.97473C11.4948 2.26168 12.5072 2.26168 12.8272 2.97473L15.0546 7.93749C15.1863 8.2309 15.4637 8.43246 15.7834 8.46703L21.1916 9.05182C21.9686 9.13584 22.2815 10.0986 21.7022 10.6234L17.6706 14.2753C17.4323 14.4912 17.3263 14.8173 17.3922 15.1321L18.5073 20.4563C18.6675 21.2213 17.8485 21.8163 17.1705 21.4276L12.4514 18.7218C12.1724 18.5618 11.8295 18.5618 11.5505 18.7218L6.83149 21.4276C6.15346 21.8163 5.33446 21.2213 5.49467 20.4563L6.60972 15.1321C6.67564 14.8173 6.56967 14.4912 6.33132 14.2753L2.29975 10.6234C1.72049 10.0986 2.03333 9.13584 2.81038 9.05182L8.21854 8.46703C8.53828 8.43246 8.8157 8.2309 8.94739 7.93749L11.1748 2.97473Z" fill="black"/>
</svg>
