<svg xmlns="http://www.w3.org/2000/svg" width="17" height="16" viewBox="0 0 17 16" fill="none"><rect width="17" height="16" fill="none"/>
<path d="M7.46059 1.98653C7.67394 1.51116 8.34884 1.51116 8.5622 1.98653L10.0471 5.29504C10.1349 5.49064 10.3199 5.62502 10.533 5.64807L14.1385 6.03792C14.6565 6.09394 14.865 6.73581 14.4789 7.08561L11.7912 9.52024C11.6323 9.66418 11.5616 9.8816 11.6056 10.0915L12.3489 13.6409C12.4557 14.1509 11.9097 14.5476 11.4577 14.2884L8.3117 12.4846C8.1257 12.3779 7.89709 12.3779 7.71109 12.4846L4.56507 14.2884C4.11305 14.5476 3.56705 14.1509 3.67385 13.6409L4.41722 10.0915C4.46117 9.8816 4.39053 9.66418 4.23162 9.52024L1.54391 7.08561C1.15774 6.7358 1.36629 6.09394 1.88433 6.03792L5.48977 5.64807C5.70293 5.62502 5.88788 5.49064 5.97567 5.29504L7.46059 1.98653Z" fill="black"/>
</svg>
