<svg xmlns="http://www.w3.org/2000/svg" width="24" height="25" viewBox="0 0 24 25" fill="none"><rect width="24" height="25" fill="none"/>
<path d="M18.0552 7.95591L19.2522 6.75894L18.0744 5.58071L16.7939 6.86119C15.6241 6.03222 14.2591 5.52131 12.8325 5.37851V3.67093H14.4985V2.005H9.50068V3.67093H11.1666V5.37851C9.74002 5.52131 8.37499 6.03222 7.20524 6.86119L5.92476 5.58071L4.74695 6.75894L5.94392 7.95591C4.82662 9.13889 4.08028 10.6232 3.79706 12.2256C3.51385 13.8279 3.70616 15.4782 4.35026 16.9725C4.99436 18.4668 6.06202 19.7397 7.42141 20.6341C8.7808 21.5284 10.3724 22.005 11.9996 22.005C13.6268 22.005 15.2183 21.5284 16.5777 20.6341C17.9371 19.7397 19.0048 18.4668 19.6489 16.9725C20.293 15.4782 20.4853 13.8279 20.2021 12.2256C19.9189 10.6232 19.1725 9.13889 18.0552 7.95591ZM11.9996 20.3302C10.6816 20.3302 9.39325 19.9394 8.29741 19.2072C7.20157 18.475 6.34746 17.4342 5.8431 16.2166C5.33874 14.999 5.20678 13.6591 5.4639 12.3665C5.72102 11.0738 6.35568 9.88649 7.28761 8.95455C8.21955 8.02261 9.40691 7.38795 10.6995 7.13083C11.9922 6.87371 13.332 7.00568 14.5497 7.51004C15.7673 8.0144 16.808 8.8685 17.5402 9.96435C18.2725 11.0602 18.6633 12.3486 18.6633 13.6665C18.6613 15.4332 17.9586 17.127 16.7093 18.3763C15.4601 19.6255 13.7663 20.3282 11.9996 20.3302Z" fill="black"/>
<path d="M11.9996 8.66875V13.6665H7.00177C7.00177 14.655 7.29488 15.6213 7.84405 16.4432C8.39321 17.265 9.17376 17.9056 10.087 18.2839C11.0002 18.6622 12.0051 18.7611 12.9746 18.5683C13.944 18.3754 14.8346 17.8995 15.5335 17.2005C16.2325 16.5015 16.7085 15.611 16.9013 14.6416C17.0942 13.6721 16.9952 12.6672 16.6169 11.754C16.2386 10.8407 15.5981 10.0602 14.7762 9.51103C13.9543 8.96186 12.988 8.66875 11.9996 8.66875Z" fill="black"/>
</svg>
