<svg xmlns="http://www.w3.org/2000/svg" width="24" height="24" viewBox="0 0 24 24" fill="none"><rect width="24" height="24" fill="none"/>
<path d="M18.0562 7.95091L19.2532 6.75394L18.0754 5.57571L16.7949 6.85618C15.6251 6.02721 14.2601 5.5163 12.8335 5.37351V3.66593H14.4994V2H9.50165V3.66593H11.1676V5.37351C9.741 5.5163 8.37597 6.02721 7.20621 6.85618L5.92574 5.57571L4.74793 6.75394L5.9449 7.95091C4.8276 9.13388 4.08126 10.6182 3.79804 12.2206C3.51482 13.8229 3.70714 15.4732 4.35124 16.9675C4.99533 18.4618 6.063 19.7347 7.42239 20.629C8.78177 21.5234 10.3733 22 12.0005 22C13.6278 22 15.2193 21.5234 16.5787 20.629C17.9381 19.7347 19.0058 18.4618 19.6499 16.9675C20.294 15.4732 20.4863 13.8229 20.2031 12.2206C19.9198 10.6182 19.1735 9.13388 18.0562 7.95091ZM12.0005 20.3252C10.6826 20.3252 9.39423 19.9344 8.29839 19.2022C7.20254 18.47 6.34844 17.4292 5.84408 16.2116C5.33972 14.994 5.20775 13.6541 5.46487 12.3615C5.72199 11.0688 6.35665 9.88148 7.28859 8.94954C8.22053 8.01761 9.40789 7.38295 10.7005 7.12583C11.9932 6.86871 13.333 7.00067 14.5506 7.50503C15.7683 8.00939 16.809 8.8635 17.5412 9.95934C18.2734 11.0552 18.6643 12.3435 18.6643 13.6615C18.6623 15.4282 17.9596 17.122 16.7103 18.3713C15.4611 19.6205 13.7673 20.3232 12.0005 20.3252Z" fill="black"/>
<path d="M12.0005 8.66374V13.6615H7.00275C7.00275 14.65 7.29586 15.6163 7.84502 16.4381C8.39419 17.26 9.17474 17.9006 10.088 18.2789C11.0012 18.6572 12.0061 18.7561 12.9756 18.5633C13.945 18.3704 14.8355 17.8945 15.5345 17.1955C16.2335 16.4965 16.7094 15.606 16.9023 14.6365C17.0951 13.6671 16.9962 12.6622 16.6179 11.749C16.2396 10.8357 15.599 10.0552 14.7772 9.50602C13.9553 8.95686 12.989 8.66374 12.0005 8.66374Z" fill="black"/>
</svg>
