<svg xmlns="http://www.w3.org/2000/svg" width="16" height="17" viewBox="0 0 16 17" fill="none"><rect width="16" height="17" fill="none"/>
<path d="M12.035 5.30727L12.833 4.50929L12.0478 3.7238L11.1941 4.57745C10.4143 4.0248 9.50429 3.6842 8.55323 3.589V2.45062H9.66385V1.34H6.332V2.45062H7.44262V3.589C6.49156 3.6842 5.58154 4.0248 4.8017 4.57745L3.94805 3.7238L3.16284 4.50929L3.96082 5.30727C3.21596 6.09592 2.7184 7.08547 2.52959 8.15371C2.34078 9.22196 2.46899 10.3221 2.89838 11.3183C3.32778 12.3145 4.03956 13.1631 4.94582 13.7594C5.85207 14.3556 6.91312 14.6733 7.99792 14.6733C9.08273 14.6733 10.1438 14.3556 11.05 13.7594C11.9563 13.1631 12.6681 12.3145 13.0975 11.3183C13.5269 10.3221 13.6551 9.22196 13.4663 8.15371C13.2775 7.08547 12.7799 6.09592 12.035 5.30727ZM7.99792 13.5568C7.11929 13.5568 6.26038 13.2963 5.52982 12.8081C4.79925 12.32 4.22985 11.6262 3.89361 10.8144C3.55737 10.0026 3.46939 9.1094 3.64081 8.24765C3.81222 7.38589 4.23533 6.59432 4.85662 5.97303C5.47791 5.35173 6.26948 4.92863 7.13124 4.75722C7.993 4.5858 8.88623 4.67378 9.69799 5.01002C10.5097 5.34626 11.2036 5.91566 11.6917 6.64622C12.1799 7.37679 12.4404 8.23569 12.4404 9.11433C12.4391 10.2921 11.9706 11.4213 11.1378 12.2542C10.3049 13.087 9.17574 13.5555 7.99792 13.5568Z" fill="black"/>
<path d="M7.99791 5.78249V9.11435H4.66606C4.66606 9.77333 4.86147 10.4175 5.22758 10.9654C5.59368 11.5134 6.11405 11.9404 6.72287 12.1926C7.33168 12.4448 8.00161 12.5107 8.64793 12.3822C9.29424 12.2536 9.88792 11.9363 10.3539 11.4703C10.8199 11.0044 11.1372 10.4107 11.2657 9.76436C11.3943 9.11804 11.3283 8.44812 11.0761 7.8393C10.824 7.23048 10.3969 6.71012 9.84899 6.34401C9.30107 5.9779 8.65689 5.78249 7.99791 5.78249Z" fill="black"/>
</svg>
