<svg xmlns="http://www.w3.org/2000/svg" width="16" height="16" viewBox="0 0 16 16" fill="none"><rect width="16" height="16" fill="none"/>
<path d="M12.037 5.30061L12.835 4.50263L12.0498 3.71715L11.1961 4.5708C10.4163 4.01815 9.50624 3.67755 8.55519 3.58235V2.44396H9.66581V1.33334H6.33395V2.44396H7.44457V3.58235C6.49351 3.67755 5.58349 4.01815 4.80365 4.5708L3.95 3.71715L3.1648 4.50263L3.96278 5.30061C3.21791 6.08927 2.72035 7.07882 2.53154 8.14706C2.34273 9.21531 2.47094 10.3155 2.90034 11.3117C3.32973 12.3079 4.04151 13.1565 4.94777 13.7527C5.85403 14.3489 6.91507 14.6667 7.99988 14.6667C9.08468 14.6667 10.1457 14.3489 11.052 13.7527C11.9582 13.1565 12.67 12.3079 13.0994 11.3117C13.5288 10.3155 13.657 9.21531 13.4682 8.14706C13.2794 7.07882 12.7818 6.08927 12.037 5.30061ZM7.99988 13.5502C7.12124 13.5502 6.26233 13.2896 5.53177 12.8015C4.80121 12.3133 4.2318 11.6195 3.89556 10.8077C3.55932 9.99599 3.47135 9.10275 3.64276 8.241C3.81417 7.37924 4.23728 6.58766 4.85857 5.96637C5.47986 5.34508 6.27144 4.92198 7.13319 4.75056C7.99495 4.57915 8.88818 4.66712 9.69994 5.00337C10.5117 5.33961 11.2055 5.90901 11.6937 6.63957C12.1818 7.37013 12.4424 8.22904 12.4424 9.10768C12.441 10.2855 11.9726 11.4147 11.1397 12.2475C10.3069 13.0804 9.17769 13.5488 7.99988 13.5502Z" fill="black"/>
<path d="M7.99987 5.77584V9.1077H4.66801C4.66801 9.76667 4.86342 10.4109 5.22953 10.9588C5.59564 11.5067 6.116 11.9338 6.72482 12.1859C7.33364 12.4381 8.00356 12.5041 8.64988 12.3755C9.2962 12.247 9.88988 11.9296 10.3558 11.4637C10.8218 10.9977 11.1391 10.404 11.2677 9.75771C11.3963 9.11139 11.3303 8.44147 11.0781 7.83265C10.8259 7.22383 10.3989 6.70347 9.85095 6.33736C9.30303 5.97125 8.65885 5.77584 7.99987 5.77584Z" fill="black"/>
</svg>
