<svg xmlns="http://www.w3.org/2000/svg" width="24" height="25" viewBox="0 0 24 25" fill="none"><rect width="24" height="25" fill="none"/>
<path d="M5.64 17.0049L4.93 17.7149C4.74375 17.9022 4.63921 18.1557 4.63921 18.4199C4.63921 18.6841 4.74375 18.9375 4.93 19.1249C5.11736 19.3111 5.37081 19.4157 5.635 19.4157C5.89919 19.4157 6.15264 19.3111 6.34 19.1249L7.05 18.4149C7.21383 18.2236 7.29943 17.9775 7.28971 17.7258C7.27999 17.4742 7.17566 17.2354 6.99756 17.0573C6.81947 16.8792 6.58073 16.7749 6.32905 16.7652C6.07738 16.7555 5.8313 16.8411 5.64 17.0049ZM5 12.0049C5 11.7397 4.89464 11.4853 4.70711 11.2978C4.51957 11.1102 4.26522 11.0049 4 11.0049H3C2.73478 11.0049 2.48043 11.1102 2.29289 11.2978C2.10536 11.4853 2 11.7397 2 12.0049C2 12.2701 2.10536 12.5245 2.29289 12.712C2.48043 12.8995 2.73478 13.0049 3 13.0049H4C4.26522 13.0049 4.51957 12.8995 4.70711 12.712C4.89464 12.5245 5 12.2701 5 12.0049ZM12 5.00488C12.2652 5.00488 12.5196 4.89953 12.7071 4.71199C12.8946 4.52445 13 4.2701 13 4.00488V3.00488C13 2.73967 12.8946 2.48531 12.7071 2.29778C12.5196 2.11024 12.2652 2.00488 12 2.00488C11.7348 2.00488 11.4804 2.11024 11.2929 2.29778C11.1054 2.48531 11 2.73967 11 3.00488V4.00488C11 4.2701 11.1054 4.52445 11.2929 4.71199C11.4804 4.89953 11.7348 5.00488 12 5.00488ZM5.64 7.05488C5.82626 7.23963 6.07766 7.34378 6.34 7.34488C6.47161 7.34564 6.60207 7.32042 6.72391 7.27065C6.84574 7.22089 6.95656 7.14756 7.05 7.05488C7.23625 6.86752 7.34079 6.61407 7.34079 6.34988C7.34079 6.0857 7.23625 5.83225 7.05 5.64488L6.34 4.93488C6.1487 4.77106 5.90262 4.68545 5.65095 4.69517C5.39927 4.70489 5.16053 4.80922 4.98244 4.98732C4.80434 5.16541 4.70001 5.40415 4.69029 5.65583C4.68057 5.90751 4.76617 6.15358 4.93 6.34488L5.64 7.05488ZM17.64 7.34488C17.9023 7.34378 18.1537 7.23963 18.34 7.05488L19.05 6.34488C19.1547 6.25524 19.2397 6.14492 19.2997 6.02085C19.3597 5.89679 19.3935 5.76166 19.3988 5.62394C19.4041 5.48622 19.3809 5.34889 19.3306 5.22056C19.2804 5.09224 19.2041 4.97569 19.1066 4.87823C19.0092 4.78078 18.8926 4.70452 18.7643 4.65425C18.636 4.60397 18.4987 4.58076 18.3609 4.58608C18.2232 4.5914 18.0881 4.62513 17.964 4.68516C17.84 4.74518 17.7296 4.8302 17.64 4.93488L17 5.64488C16.8137 5.83225 16.7092 6.0857 16.7092 6.34988C16.7092 6.61407 16.8137 6.86752 17 7.05488C17.1763 7.23024 17.4116 7.33364 17.66 7.34488H17.64ZM21 11.0049H20C19.7348 11.0049 19.4804 11.1102 19.2929 11.2978C19.1054 11.4853 19 11.7397 19 12.0049C19 12.2701 19.1054 12.5245 19.2929 12.712C19.4804 12.8995 19.7348 13.0049 20 13.0049H21C21.2652 13.0049 21.5196 12.8995 21.7071 12.712C21.8946 12.5245 22 12.2701 22 12.0049C22 11.7397 21.8946 11.4853 21.7071 11.2978C21.5196 11.1102 21.2652 11.0049 21 11.0049ZM12 19.0049C11.7348 19.0049 11.4804 19.1102 11.2929 19.2978C11.1054 19.4853 11 19.7397 11 20.0049V21.0049C11 21.2701 11.1054 21.5245 11.2929 21.712C11.4804 21.8995 11.7348 22.0049 12 22.0049C12.2652 22.0049 12.5196 21.8995 12.7071 21.712C12.8946 21.5245 13 21.2701 13 21.0049V20.0049C13 19.7397 12.8946 19.4853 12.7071 19.2978C12.5196 19.1102 12.2652 19.0049 12 19.0049ZM18.36 17.0049C18.17 16.8992 17.9508 16.8583 17.7355 16.8884C17.5202 16.9185 17.3205 17.018 17.1668 17.1717C17.0131 17.3254 16.9136 17.525 16.8835 17.7403C16.8534 17.9556 16.8943 18.1749 17 18.3649L17.71 19.0749C17.8974 19.2611 18.1508 19.3657 18.415 19.3657C18.6792 19.3657 18.9326 19.2611 19.12 19.0749C19.3063 18.8875 19.4108 18.6341 19.4108 18.3699C19.4108 18.1057 19.3063 17.8522 19.12 17.6649L18.36 17.0049ZM12 6.50488C10.9122 6.50488 9.84883 6.82745 8.94436 7.4318C8.03989 8.03615 7.33494 8.89513 6.91866 9.90012C6.50238 10.9051 6.39346 12.011 6.60568 13.0779C6.8179 14.1448 7.34172 15.1248 8.11091 15.894C8.8801 16.6632 9.86011 17.187 10.927 17.3992C11.9939 17.6114 13.0998 17.5025 14.1048 17.0862C15.1098 16.6699 15.9687 15.965 16.5731 15.0605C17.1774 14.156 17.5 13.0927 17.5 12.0049C17.4974 10.547 16.917 9.14959 15.8862 8.11872C14.8553 7.08784 13.4579 6.50753 12 6.50488ZM12 15.5049C11.3078 15.5049 10.6311 15.2996 10.0555 14.915C9.47993 14.5304 9.03133 13.9838 8.76642 13.3443C8.50151 12.7047 8.4322 12.001 8.56725 11.3221C8.7023 10.6431 9.03564 10.0195 9.52513 9.53001C10.0146 9.04053 10.6383 8.70718 11.3172 8.57213C11.9961 8.43709 12.6999 8.5064 13.3394 8.7713C13.9789 9.03621 14.5256 9.48481 14.9101 10.0604C15.2947 10.636 15.5 11.3126 15.5 12.0049C15.5 12.9331 15.1313 13.8234 14.4749 14.4798C13.8185 15.1361 12.9283 15.5049 12 15.5049Z" fill="black"/>
</svg>
