<svg xmlns="http://www.w3.org/2000/svg" width="24" height="24" viewBox="0 0 24 24" fill="none"><rect width="24" height="24" fill="none"/>
<path d="M18.9733 4.61998C17.2837 2.93035 15.0371 1.99991 12.6477 2C12.2562 2 11.9389 2.31736 11.9389 2.70882C11.9389 3.10027 12.2563 3.41763 12.6477 3.41763C14.6585 3.41754 16.549 4.20055 17.9708 5.62244C19.3928 7.04432 20.1758 8.93488 20.1757 10.9457C20.1757 11.3372 20.493 11.6546 20.8846 11.6546C21.276 11.6546 21.5934 11.3372 21.5934 10.9458C21.5935 8.55618 20.663 6.30961 18.9733 4.61998Z" fill="black"/>
<path d="M16.0575 10.9459C16.0575 11.3374 16.3749 11.6547 16.7664 11.6546C17.1579 11.6546 17.4751 11.3373 17.4751 10.9458C17.475 8.28446 15.3094 6.11897 12.6478 6.1186C12.2564 6.1186 11.939 6.43586 11.9389 6.82732C11.9389 7.21877 12.2562 7.53614 12.6476 7.53623C14.5277 7.53651 16.0573 9.06605 16.0575 10.9459Z" fill="black"/>
<path d="M12.5943 15.6933C12.8583 15.3073 13.4087 14.5038 14.4891 14.5598C15.6233 14.6214 18.6222 16.8242 19.0105 17.8796C19.1837 18.3455 19.1864 18.8377 19.0178 19.3403C18.636 20.4741 17.9558 21.2922 17.0503 21.7072C16.6245 21.9025 16.1653 22 15.6858 22C15.1765 22 14.6439 21.8899 14.1032 21.67C11.4026 20.5692 9.03936 19.0301 7.07829 17.0949C7.07338 17.0903 7.06856 17.0855 7.06384 17.0807C5.12498 15.1182 3.58307 12.7522 2.481 10.0481C2.05382 8.99793 2.04106 7.97884 2.44367 7.10047C2.85875 6.19508 3.67701 5.5148 4.80998 5.13327C5.31353 4.96428 5.80592 4.96731 6.27402 5.14177C7.32657 5.52879 9.52939 8.52765 9.59082 9.66006C9.64658 10.7442 8.84325 11.2931 8.45709 11.5568C8.13377 11.7775 7.69279 11.6946 7.47202 11.3713C7.25115 11.0481 7.33423 10.607 7.65745 10.3863C8.11307 10.075 8.18537 9.93376 8.17517 9.73491C8.10372 9.12835 6.33328 6.71232 5.77766 6.46953C5.61615 6.40942 5.45661 6.4115 5.26155 6.4769C4.50935 6.73028 3.98029 7.15018 3.7323 7.69115C3.49669 8.205 3.51805 8.83518 3.79392 9.51347C4.82369 12.0403 6.26051 14.2484 8.06431 16.0763L8.06648 16.0784C9.89618 17.886 12.1071 19.3255 14.6378 20.357C15.3155 20.6327 15.9456 20.6541 16.4595 20.4185C17.0005 20.1705 17.4204 19.6414 17.6741 18.8886C17.7392 18.6942 17.7415 18.5344 17.6808 18.3713C17.4388 17.8177 15.0227 16.0472 14.4093 15.9751C14.2176 15.966 14.0763 16.0377 13.7644 16.4937C13.5434 16.8168 13.1023 16.8996 12.7792 16.6786C12.456 16.4575 12.3733 16.0164 12.5943 15.6933Z" fill="black"/>
</svg>
