<svg xmlns="http://www.w3.org/2000/svg" width="16" height="16" viewBox="0 0 16 16" fill="none"><rect width="16" height="16" fill="none"/>
<path d="M12.6485 3.07997C11.5221 1.95354 10.0244 1.33325 8.43149 1.33331C8.17046 1.33331 7.95894 1.54489 7.95894 1.80586C7.95894 2.06683 8.17052 2.2784 8.43149 2.2784C9.772 2.27834 11.0323 2.80034 11.9802 3.74827C12.9282 4.6962 13.4502 5.95657 13.4502 7.29715C13.4502 7.55812 13.6617 7.76969 13.9227 7.76969C14.1837 7.76969 14.3953 7.55812 14.3953 7.29721C14.3953 5.7041 13.775 4.20639 12.6485 3.07997Z" fill="black"/>
<path d="M10.7047 7.29726C10.7047 7.55823 10.9163 7.76981 11.1773 7.76974C11.4383 7.76974 11.6498 7.55817 11.6498 7.2972C11.6496 5.52295 10.2059 4.0793 8.43155 4.07904C8.17058 4.07904 7.95901 4.29055 7.95894 4.55153C7.95894 4.8125 8.17046 5.02407 8.43143 5.02413C9.6848 5.02432 10.7046 6.04401 10.7047 7.29726Z" fill="black"/>
<path d="M8.39588 10.4622C8.57186 10.2049 8.93881 9.6692 9.65909 9.7065C10.4152 9.74758 12.4145 11.2161 12.6734 11.9197C12.7888 12.2303 12.7906 12.5585 12.6782 12.8935C12.4237 13.6494 11.9702 14.1948 11.3666 14.4715C11.0827 14.6016 10.7766 14.6666 10.4569 14.6666C10.1173 14.6666 9.7623 14.5932 9.40178 14.4466C7.60144 13.7128 6.02591 12.6867 4.71854 11.3966C4.71526 11.3935 4.71205 11.3903 4.7089 11.3871C3.41633 10.0788 2.38839 8.50145 1.65367 6.69872C1.36889 5.9986 1.36038 5.3192 1.62879 4.73363C1.90551 4.13003 2.45101 3.67651 3.20633 3.42216C3.54203 3.3095 3.87029 3.31152 4.18236 3.42783C4.88405 3.68584 6.3526 5.68508 6.39355 6.44002C6.43073 7.16276 5.89518 7.5287 5.63773 7.70448C5.42219 7.85167 5.1282 7.79635 4.98102 7.58087C4.83378 7.36539 4.88916 7.07134 5.10464 6.92416C5.40839 6.71661 5.45659 6.62248 5.44979 6.48992C5.40215 6.08555 4.22186 4.47486 3.85145 4.313C3.74377 4.27293 3.63742 4.27431 3.50737 4.31791C3.00591 4.48683 2.6532 4.76677 2.48787 5.12741C2.3308 5.46998 2.34504 5.8901 2.52895 6.3423C3.21547 8.02682 4.17335 9.4989 5.37588 10.7175L5.37733 10.7189C6.59713 11.924 8.07109 12.8836 9.7582 13.5713C10.21 13.7551 10.6301 13.7694 10.9727 13.6123C11.3334 13.447 11.6133 13.0943 11.7824 12.5924C11.8258 12.4628 11.8273 12.3562 11.7869 12.2475C11.6256 11.8784 10.0148 10.6981 9.60585 10.65C9.47807 10.644 9.38388 10.6918 9.17596 10.9958C9.02859 11.2112 8.73454 11.2664 8.51912 11.119C8.30371 10.9717 8.24851 10.6776 8.39588 10.4622Z" fill="black"/>
</svg>
