<svg xmlns="http://www.w3.org/2000/svg" width="25" height="25" viewBox="0 0 25 25" fill="none"><rect width="25" height="25" fill="none"/>
<path d="M19.1025 4.62498C17.4128 2.93535 15.1662 2.00491 12.7769 2.005C12.3853 2.005 12.0681 2.32237 12.0681 2.71382C12.0681 3.10528 12.3854 3.42264 12.7769 3.42264C14.7876 3.42255 16.6781 4.20555 18.1 5.62744C19.522 7.04933 20.305 8.93989 20.3049 10.9508C20.3049 11.3422 20.6222 11.6596 21.0137 11.6596C21.4052 11.6596 21.7225 11.3422 21.7225 10.9508C21.7226 8.56119 20.7922 6.31462 19.1025 4.62498Z" fill="black"/>
<path d="M16.1867 10.9509C16.1867 11.3424 16.504 11.6597 16.8956 11.6597C17.287 11.6597 17.6043 11.3423 17.6043 10.9508C17.6041 8.28946 15.4385 6.12398 12.777 6.1236C12.3855 6.1236 12.0681 6.44087 12.0681 6.83232C12.0681 7.22378 12.3853 7.54114 12.7768 7.54123C14.6568 7.54152 16.1865 9.07105 16.1867 10.9509Z" fill="black"/>
<path d="M12.7235 15.6983C12.9874 15.3124 13.5378 14.5088 14.6183 14.5648C15.7525 14.6264 18.7513 16.8292 19.1397 17.8846C19.3128 18.3505 19.3156 18.8427 19.147 19.3453C18.7651 20.4791 18.085 21.2972 17.1795 21.7122C16.7536 21.9075 16.2945 22.005 15.8149 22.005C15.3056 22.005 14.7731 21.8949 14.2323 21.675C11.5318 20.5742 9.16851 19.0352 7.20745 17.0999C7.20253 17.0953 7.19771 17.0905 7.19299 17.0857C5.25413 15.1232 3.71222 12.7572 2.61015 10.0531C2.18297 9.00293 2.17021 7.98384 2.57282 7.10548C2.9879 6.20008 3.80616 5.5198 4.93913 5.13827C5.44268 4.96929 5.93507 4.97231 6.40317 5.14678C7.45572 5.53379 9.65854 8.53266 9.71997 9.66506C9.77573 10.7492 8.9724 11.2981 8.58624 11.5618C8.26292 11.7825 7.82194 11.6996 7.60117 11.3763C7.3803 11.0531 7.46338 10.612 7.7866 10.3913C8.24222 10.08 8.31452 9.93876 8.30432 9.73991C8.23287 9.13335 6.46243 6.71733 5.90681 6.47453C5.7453 6.41443 5.58577 6.41651 5.3907 6.48191C4.6385 6.73528 4.10944 7.15519 3.86145 7.69616C3.62584 8.21 3.6472 8.84019 3.92307 9.51848C4.95284 12.0453 6.38966 14.2534 8.19346 16.0813L8.19563 16.0834C10.0253 17.891 12.2363 19.3305 14.7669 20.362C15.4447 20.6377 16.0748 20.6591 16.5887 20.4235C17.1297 20.1755 17.5496 19.6464 17.8032 18.8936C17.8683 18.6992 17.8706 18.5394 17.8099 18.3763C17.568 17.8227 15.1519 16.0522 14.5384 15.9801C14.3468 15.971 14.2055 16.0427 13.8936 16.4987C13.6725 16.8218 13.2315 16.9046 12.9083 16.6836C12.5852 16.4625 12.5024 16.0215 12.7235 15.6983Z" fill="black"/>
</svg>
