<svg xmlns="http://www.w3.org/2000/svg" width="17" height="17" viewBox="0 0 17 17" fill="none"><rect width="17" height="17" fill="none"/>
<path d="M12.7399 3.08668C11.6134 1.96026 10.1157 1.33996 8.5228 1.34003C8.26176 1.34003 8.05025 1.5516 8.05025 1.81257C8.05025 2.07354 8.26183 2.28512 8.5228 2.28512C9.86331 2.28505 11.1236 2.80706 12.0715 3.75498C13.0195 4.70291 13.5415 5.96328 13.5415 7.30386C13.5415 7.56483 13.753 7.7764 14.014 7.7764C14.275 7.7764 14.4866 7.56483 14.4866 7.30392C14.4866 5.71082 13.8663 4.2131 12.7399 3.08668Z" fill="black"/>
<path d="M10.796 7.30398C10.796 7.56495 11.0076 7.77652 11.2686 7.77646C11.5296 7.77646 11.7411 7.56488 11.7411 7.30391C11.741 5.52966 10.2972 4.08601 8.52286 4.08576C8.26189 4.08576 8.05032 4.29727 8.05025 4.55824C8.05025 4.81921 8.26176 5.03078 8.52273 5.03085C9.77611 5.03104 10.7959 6.05072 10.796 7.30398Z" fill="black"/>
<path d="M8.48719 10.4689C8.66317 10.2116 9.03012 9.67591 9.7504 9.71321C10.5065 9.75429 12.5058 11.2228 12.7647 11.9264C12.8801 12.237 12.8819 12.5652 12.7695 12.9002C12.515 13.6561 12.0615 14.2015 11.4579 14.4782C11.174 14.6083 10.8679 14.6734 10.5482 14.6734C10.2086 14.6734 9.8536 14.6 9.49308 14.4533C7.69275 13.7195 6.11722 12.6935 4.80985 11.4033C4.80657 11.4002 4.80336 11.397 4.80021 11.3938C3.50764 10.0855 2.4797 8.50816 1.74498 6.70543C1.4602 6.00531 1.45169 5.32592 1.72009 4.74034C1.99682 4.13674 2.54232 3.68323 3.29764 3.42887C3.63334 3.31622 3.9616 3.31823 4.27367 3.43454C4.97536 3.69255 6.44391 5.69179 6.48486 6.44673C6.52204 7.16947 5.98648 7.53541 5.72904 7.7112C5.5135 7.85838 5.21951 7.80306 5.07233 7.58758C4.92508 7.3721 4.98047 7.07805 5.19595 6.93087C5.4997 6.72333 5.5479 6.6292 5.54109 6.49663C5.49346 6.09226 4.31317 4.48158 3.94276 4.31971C3.83508 4.27964 3.72873 4.28103 3.59868 4.32463C3.09722 4.49355 2.74451 4.77348 2.57918 5.13413C2.42211 5.47669 2.43635 5.89682 2.62026 6.34901C3.30678 8.03354 4.26466 9.50561 5.46719 10.7242L5.46864 10.7257C6.68843 11.9307 8.1624 12.8904 9.84951 13.578C10.3013 13.7619 10.7214 13.7761 11.064 13.619C11.4247 13.4537 11.7046 13.101 11.8737 12.5991C11.9171 12.4695 11.9186 12.3629 11.8782 12.2542C11.7169 11.8852 10.1061 10.7048 9.69716 10.6567C9.56938 10.6507 9.47519 10.6985 9.26727 11.0025C9.1199 11.2179 8.82585 11.2731 8.61043 11.1257C8.39502 10.9784 8.33982 10.6843 8.48719 10.4689Z" fill="black"/>
</svg>
