<svg xmlns="http://www.w3.org/2000/svg" width="24" height="24" viewBox="0 0 24 24" fill="none"><rect width="24" height="24" fill="none"/>
<path d="M18.3254 5.61292L3.87624 11.186C2.89007 11.5816 2.89592 12.1317 3.69649 12.377L7.30014 13.5017L8.67899 17.7292C8.84661 18.1918 8.76398 18.3754 9.24985 18.3754C9.62481 18.3754 9.79115 18.2044 9.99999 18.0004C10.1328 17.8704 10.9213 17.1038 11.8017 16.2478L15.5502 19.0174C16.24 19.3979 16.738 19.2008 16.9098 18.3768L19.3703 6.78153C19.6223 5.77154 18.9853 5.31341 18.3254 5.61292ZM7.8657 13.2433L15.9884 8.11869C16.3938 7.87277 16.7656 8.00498 16.4604 8.27596L9.50526 14.5512L9.23445 17.4396L7.8657 13.2433V13.2433Z" fill="black"/>
</svg>
