<svg xmlns="http://www.w3.org/2000/svg" width="17" height="17" viewBox="0 0 17 17" fill="none"><rect width="17" height="17" fill="none"/>
<path fill-rule="evenodd" clip-rule="evenodd" d="M9.99709 5.21558C9.82816 4.9313 9.51917 4.75665 9.18516 4.75665C8.85115 4.75665 8.54216 4.9313 8.37323 5.21558L7.81794 6.15002L6.74556 6.38229C6.41932 6.45295 6.15548 6.6889 6.05227 7.00231C5.94905 7.31571 6.02193 7.6596 6.24376 7.90596L6.97296 8.71574L6.86548 9.79374C6.83278 10.1217 6.9787 10.4422 7.24892 10.6359C7.51914 10.8295 7.87317 10.8674 8.1792 10.7354L9.18516 10.3014L10.1911 10.7354C10.4971 10.8674 10.8512 10.8295 11.1214 10.6359C11.3916 10.4422 11.5375 10.1217 11.5048 9.79373L11.3974 8.71574L12.1266 7.90596C12.3484 7.6596 12.4213 7.31571 12.318 7.00231C12.2148 6.6889 11.951 6.45295 11.6248 6.38229L10.5524 6.15002L9.99709 5.21558ZM6.94738 7.28925L8.42173 6.96991L9.18516 5.68521L9.94859 6.96991L11.4229 7.28925L10.4204 8.40257L10.5682 9.88464L9.18516 9.288L7.80213 9.88464L7.9499 8.40257L6.94738 7.28925Z" fill="black"/>
<path fill-rule="evenodd" clip-rule="evenodd" d="M1.34473 13.4232H13.1094C13.9758 13.4232 14.6781 12.7303 14.6781 11.8756V4.13762C14.6781 3.28291 13.9758 2.59003 13.1094 2.59003H2.91335C2.04703 2.59003 1.34473 3.28291 1.34473 4.13762V13.4232ZM13.1094 3.59596H4.95517V12.4172H13.1094C13.4126 12.4172 13.6585 12.1747 13.6585 11.8756V4.13762C13.6585 3.83847 13.4126 3.59596 13.1094 3.59596ZM2.91335 3.59596H4.014V12.4172H2.36433V4.13762C2.36433 3.83847 2.61014 3.59596 2.91335 3.59596Z" fill="black"/>
</svg>
