<svg xmlns="http://www.w3.org/2000/svg" width="24" height="25" viewBox="0 0 24 25" fill="none"><rect width="24" height="25" fill="none"/>
<path d="M2.62933 5.46497H7.97616V18.5495H2.62933C2.28178 18.5495 2 18.2403 2 17.8588V14.3573C2 13.9758 2.28178 13.6665 2.62933 13.6665C3.46291 13.6665 4.14109 12.9223 4.14109 12.0073C4.14109 11.0923 3.46291 10.3479 2.62933 10.3479C2.28178 10.3479 2 10.0387 2 9.65715V6.15572C2 5.77421 2.28178 5.46497 2.62933 5.46497Z" fill="black"/>
<path d="M22 9.65715C22 10.0387 21.7182 10.3479 21.3707 10.3479C20.5371 10.3479 19.8589 11.0923 19.8589 12.0073C19.8589 12.9223 20.5371 13.6666 21.3707 13.6666C21.7182 13.6666 22 13.9758 22 14.3573V17.8588C22 18.2403 21.7182 18.5496 21.3707 18.5496H9.23423V5.46497H21.3707C21.7182 5.46497 22 5.77421 22 6.15572V9.65715Z" fill="black"/>
</svg>
