<svg xmlns="http://www.w3.org/2000/svg" width="16" height="16" viewBox="0 0 16 16" fill="none"><rect width="16" height="16" fill="none"/>
<path d="M1.7528 3.64001H5.31736V12.3631H1.7528C1.52111 12.3631 1.33325 12.1569 1.33325 11.9025V9.56823C1.33325 9.31389 1.52111 9.10773 1.7528 9.10773C2.30852 9.10773 2.76064 8.61154 2.76064 8.00155C2.76064 7.39155 2.30852 6.89531 1.7528 6.89531C1.52111 6.89531 1.33325 6.68914 1.33325 6.4348V4.10052C1.33325 3.84618 1.52111 3.64001 1.7528 3.64001Z" fill="black"/>
<path d="M14.6666 6.4348C14.6666 6.68914 14.4787 6.89531 14.247 6.89531C13.6913 6.89531 13.2392 7.39155 13.2392 8.00155C13.2392 8.61154 13.6913 9.10776 14.247 9.10776C14.4787 9.10776 14.6666 9.31392 14.6666 9.56826V11.9026C14.6666 12.1569 14.4787 12.3631 14.247 12.3631H6.15607V3.64001H14.247C14.4787 3.64001 14.6666 3.84618 14.6666 4.10052V6.4348Z" fill="black"/>
</svg>
