<svg xmlns="http://www.w3.org/2000/svg" width="24" height="24" viewBox="0 0 24 24" fill="none"><rect width="24" height="24" fill="none"/>
<path d="M0.755192 4.14922H7.17139V19.8507H0.755192C0.338137 19.8507 0 19.4796 0 19.0218V14.82C0 14.3622 0.338137 13.9911 0.755192 13.9911C1.75549 13.9911 2.5693 13.098 2.5693 12C2.5693 10.902 1.75549 10.0087 0.755192 10.0087C0.338137 10.0087 0 9.63766 0 9.17984V4.97813C0 4.52031 0.338137 4.14922 0.755192 4.14922Z" fill="black"/>
<path d="M24 9.17984C24 9.63766 23.6619 10.0087 23.2448 10.0087C22.2445 10.0087 21.4307 10.902 21.4307 12C21.4307 13.098 22.2445 13.9912 23.2448 13.9912C23.6619 13.9912 24 14.3623 24 14.8201V19.0218C24 19.4797 23.6619 19.8507 23.2448 19.8507H8.68108V4.14922H23.2448C23.6619 4.14922 24 4.52031 24 4.97813V9.17984Z" fill="black"/>
</svg>
