<svg xmlns="http://www.w3.org/2000/svg" width="24" height="24" viewBox="0 0 24 24" fill="none"><rect width="24" height="24" fill="none"/>
<path d="M2.6303 5.45996H7.97714V18.5445H2.6303C2.28276 18.5445 2.00098 18.2353 2.00098 17.8538V14.3523C2.00098 13.9708 2.28276 13.6615 2.6303 13.6615C3.46388 13.6615 4.14206 12.9172 4.14206 12.0023C4.14206 11.0873 3.46388 10.3429 2.6303 10.3429C2.28276 10.3429 2.00098 10.0337 2.00098 9.65214V6.15071C2.00098 5.7692 2.28276 5.45996 2.6303 5.45996Z" fill="black"/>
<path d="M22.001 9.65214C22.001 10.0337 21.7192 10.3429 21.3717 10.3429C20.5381 10.3429 19.8599 11.0873 19.8599 12.0023C19.8599 12.9172 20.5381 13.6616 21.3717 13.6616C21.7192 13.6616 22.001 13.9708 22.001 14.3523V17.8538C22.001 18.2353 21.7192 18.5446 21.3717 18.5446H9.23521V5.45996H21.3717C21.7192 5.45996 22.001 5.7692 22.001 6.15071V9.65214Z" fill="black"/>
</svg>
