<svg xmlns="http://www.w3.org/2000/svg" width="17" height="17" viewBox="0 0 17 17" fill="none"><rect width="17" height="17" fill="none"/>
<path d="M1.76428 3.64001H5.32883V12.3631H1.76428C1.53258 12.3631 1.34473 12.1569 1.34473 11.9025V9.56823C1.34473 9.31389 1.53258 9.10773 1.76428 9.10773C2.32 9.10773 2.77212 8.61154 2.77212 8.00155C2.77212 7.39155 2.32 6.89531 1.76428 6.89531C1.53258 6.89531 1.34473 6.68914 1.34473 6.4348V4.10052C1.34473 3.84618 1.53258 3.64001 1.76428 3.64001Z" fill="black"/>
<path d="M14.6781 6.4348C14.6781 6.68914 14.4902 6.89531 14.2585 6.89531C13.7028 6.89531 13.2507 7.39155 13.2507 8.00155C13.2507 8.61154 13.7028 9.10776 14.2585 9.10776C14.4902 9.10776 14.6781 9.31392 14.6781 9.56826V11.9026C14.6781 12.1569 14.4902 12.3631 14.2585 12.3631H6.16755V3.64001H14.2585C14.4902 3.64001 14.6781 3.84618 14.6781 4.10052V6.4348Z" fill="black"/>
</svg>
