<svg xmlns="http://www.w3.org/2000/svg" width="24" height="25" viewBox="0 0 24 25" fill="none"><rect width="24" height="25" fill="none"/>
<path fill-rule="evenodd" clip-rule="evenodd" d="M14.9785 7.81333C14.7251 7.38691 14.2617 7.12494 13.7606 7.12494C13.2596 7.12494 12.7962 7.38691 12.5428 7.81333L11.7098 9.21499L10.1013 9.56339C9.61189 9.66938 9.21613 10.0233 9.06131 10.4934C8.90649 10.9635 9.0158 11.4794 9.34856 11.8489L10.4423 13.0636L10.2811 14.6806C10.2321 15.1725 10.451 15.6532 10.8563 15.9437C11.2616 16.2343 11.7927 16.2911 12.2517 16.0931L13.7606 15.4421L15.2696 16.0931C15.7286 16.2911 16.2597 16.2343 16.665 15.9437C17.0703 15.6532 17.2892 15.1725 17.2402 14.6806L17.0789 13.0636L18.1727 11.8489C18.5055 11.4794 18.6148 10.9635 18.46 10.4934C18.3052 10.0233 17.9094 9.66938 17.42 9.56339L15.8115 9.21499L14.9785 7.81333ZM10.404 10.9238L12.6155 10.4448L13.7606 8.51777L14.9058 10.4448L17.1173 10.9238L15.6135 12.5938L15.8352 14.8169L13.7606 13.922L11.6861 14.8169L11.9078 12.5938L10.404 10.9238Z" fill="black"/>
<path fill-rule="evenodd" clip-rule="evenodd" d="M2 20.1247H19.6471C20.9466 20.1247 22 19.0854 22 17.8033V6.19639C22 4.91432 20.9466 3.875 19.6471 3.875H4.35294C3.05345 3.875 2 4.91432 2 6.19639V20.1247ZM19.6471 5.3839H7.41567V18.6158H19.6471C20.1019 18.6158 20.4706 18.2521 20.4706 17.8033V6.19639C20.4706 5.74766 20.1019 5.3839 19.6471 5.3839ZM4.35294 5.3839H6.00391V18.6158H3.52941V6.19639C3.52941 5.74766 3.89812 5.3839 4.35294 5.3839Z" fill="black"/>
</svg>
