<svg xmlns="http://www.w3.org/2000/svg" width="16" height="16" viewBox="0 0 16 16" fill="none"><rect width="16" height="16" fill="none"/>
<path fill-rule="evenodd" clip-rule="evenodd" d="M9.98561 5.21222C9.81668 4.92794 9.50769 4.75329 9.17368 4.75329C8.83967 4.75329 8.53069 4.92794 8.36176 5.21222L7.80647 6.14666L6.73409 6.37893C6.40785 6.44959 6.14401 6.68555 6.04079 6.99895C5.93758 7.31235 6.01045 7.65625 6.23229 7.9026L6.96149 8.71238L6.854 9.79038C6.82131 10.1183 6.96723 10.4388 7.23745 10.6325C7.50767 10.8262 7.8617 10.8641 8.16773 10.7321L9.17368 10.2981L10.1796 10.7321C10.4857 10.8641 10.8397 10.8262 11.1099 10.6325C11.3801 10.4388 11.5261 10.1183 11.4934 9.79038L11.3859 8.71238L12.1151 7.9026C12.3369 7.65625 12.4098 7.31235 12.3066 6.99895C12.2034 6.68555 11.9395 6.44959 11.6133 6.37893L10.5409 6.14666L9.98561 5.21222ZM6.9359 7.28589L8.41025 6.96656L9.17368 5.68185L9.93711 6.96656L11.4115 7.28589L10.4089 8.39921L10.5567 9.88128L9.17368 9.28464L7.79066 9.88128L7.93843 8.39921L6.9359 7.28589Z" fill="black"/>
<path fill-rule="evenodd" clip-rule="evenodd" d="M1.33325 13.4198H13.098C13.9643 13.4198 14.6666 12.7269 14.6666 11.8722V4.13426C14.6666 3.27955 13.9643 2.58667 13.098 2.58667H2.90188C2.03555 2.58667 1.33325 3.27955 1.33325 4.13426V13.4198ZM13.098 3.5926H4.9437V12.4139H13.098C13.4012 12.4139 13.647 12.1714 13.647 11.8722V4.13426C13.647 3.83511 13.4012 3.5926 13.098 3.5926ZM2.90188 3.5926H4.00252V12.4139H2.35286V4.13426C2.35286 3.83511 2.59866 3.5926 2.90188 3.5926Z" fill="black"/>
</svg>
