<svg xmlns="http://www.w3.org/2000/svg" width="24" height="24" viewBox="0 0 24 24" fill="none"><rect width="24" height="24" fill="none"/>
<path fill-rule="evenodd" clip-rule="evenodd" d="M14.9795 7.81833C14.7261 7.39192 14.2626 7.12994 13.7616 7.12994C13.2606 7.12994 12.7971 7.39192 12.5437 7.81833L11.7108 9.22L10.1022 9.5684C9.61287 9.67439 9.21711 10.0283 9.06229 10.4984C8.90746 10.9685 9.01678 11.4844 9.34953 11.8539L10.4433 13.0686L10.2821 14.6856C10.2331 15.1775 10.4519 15.6582 10.8573 15.9487C11.2626 16.2393 11.7936 16.2961 12.2527 16.0981L13.7616 15.4471L15.2706 16.0981C15.7296 16.2961 16.2606 16.2393 16.666 15.9487C17.0713 15.6582 17.2902 15.1775 17.2411 14.6856L17.0799 13.0686L18.1737 11.8539C18.5065 11.4844 18.6158 10.9685 18.461 10.4984C18.3061 10.0283 17.9104 9.67439 17.421 9.5684L15.8124 9.22L14.9795 7.81833ZM10.405 10.9288L12.6165 10.4498L13.7616 8.52277L14.9068 10.4498L17.1183 10.9288L15.6145 12.5988L15.8362 14.8219L13.7616 13.927L11.6871 14.8219L11.9087 12.5988L10.405 10.9288Z" fill="black"/>
<path fill-rule="evenodd" clip-rule="evenodd" d="M2.00098 20.1297H19.648C20.9475 20.1297 22.001 19.0904 22.001 17.8083V6.20139C22.001 4.91933 20.9475 3.88 19.648 3.88H4.35392C3.05442 3.88 2.00098 4.91933 2.00098 6.20139V20.1297ZM19.648 5.38891H7.41665V18.6208H19.648C20.1029 18.6208 20.4716 18.2571 20.4716 17.8083V6.20139C20.4716 5.75267 20.1029 5.38891 19.648 5.38891ZM4.35392 5.38891H6.00488V18.6208H3.53039V6.20139C3.53039 5.75267 3.89909 5.38891 4.35392 5.38891Z" fill="black"/>
</svg>
