<svg xmlns="http://www.w3.org/2000/svg" width="16" height="16" viewBox="0 0 16 16" fill="none"><rect width="16" height="16" fill="none"/>
<path d="M6.7578 1.33334C6.27755 1.33334 5.88824 1.72266 5.88824 2.20291C5.88824 2.68316 6.27755 3.07247 6.7578 3.07247H7.04766V3.94204H8.78679V3.07247H9.07664C9.55689 3.07247 9.94621 2.68316 9.94621 2.20291C9.94621 1.72266 9.55689 1.33334 9.07664 1.33334H6.7578Z" fill="black"/>
<path fill-rule="evenodd" clip-rule="evenodd" d="M13.1656 9.49719C13.1656 12.3522 10.8512 14.6667 7.99614 14.6667C5.14112 14.6667 2.82666 12.3522 2.82666 9.49719C2.82666 6.64217 5.14112 4.32771 7.99614 4.32771C10.8512 4.32771 13.1656 6.64217 13.1656 9.49719ZM7.32655 6.58773H8.2106V9.50282L10.568 11.1258L10.0668 11.8539L7.55375 10.1239H7.32655V9.96749L7.15407 9.84875L7.32655 9.5982V6.58773Z" fill="black"/>
<path d="M11.4131 3.11798C11.1472 2.96478 10.8075 3.05608 10.6543 3.32191L10.208 4.09624L11.7148 4.96465L12.1611 4.19032C12.3143 3.92449 12.223 3.58478 11.9572 3.43157L11.4131 3.11798Z" fill="black"/>
</svg>
