<svg xmlns="http://www.w3.org/2000/svg" width="24" height="24" viewBox="0 0 24 24" fill="none"><rect width="24" height="24" fill="none"/>
<path d="M9.77625 0C8.9118 0 8.21103 0.700772 8.21103 1.56522C8.21103 2.42966 8.9118 3.13043 9.77625 3.13043H10.298V4.69565H13.4284V3.13043H13.9502C14.8146 3.13043 15.5154 2.42966 15.5154 1.56522C15.5154 0.700772 14.8146 0 13.9502 0H9.77625Z" fill="black"/>
<path fill-rule="evenodd" clip-rule="evenodd" d="M21.3103 14.6949C21.3103 19.834 17.1443 24 12.0053 24C6.86622 24 2.7002 19.834 2.7002 14.6949C2.7002 9.55588 6.86622 5.38986 12.0053 5.38986C17.1443 5.38986 21.3103 9.55588 21.3103 14.6949ZM10.8 9.45789H12.3913V14.7051L16.6347 17.6264L15.7324 18.9371L11.2089 15.823H10.8V15.5415L10.4895 15.3277L10.8 14.8767V9.45789Z" fill="black"/>
<path d="M18.1557 3.21235C17.6772 2.93658 17.0657 3.10092 16.79 3.57943L15.9867 4.97322L18.6989 6.53635L19.5022 5.14256C19.778 4.66406 19.6136 4.05259 19.1351 3.77682L18.1557 3.21235Z" fill="black"/>
</svg>
