<svg xmlns="http://www.w3.org/2000/svg" width="24" height="25" viewBox="0 0 24 25" fill="none"><rect width="24" height="25" fill="none"/>
<path d="M10.1367 2.005C9.41633 2.005 8.83235 2.58898 8.83235 3.30935C8.83235 4.02972 9.41633 4.6137 10.1367 4.6137H10.5715V5.91805H13.1802V4.6137H13.615C14.3353 4.6137 14.9193 4.02972 14.9193 3.30935C14.9193 2.58898 14.3353 2.005 13.615 2.005H10.1367Z" fill="black"/>
<path fill-rule="evenodd" clip-rule="evenodd" d="M19.7484 14.2508C19.7484 18.5333 16.2768 22.005 11.9942 22.005C7.71167 22.005 4.23999 18.5333 4.23999 14.2508C4.23999 9.96824 7.71167 6.49656 11.9942 6.49656C16.2768 6.49656 19.7484 9.96824 19.7484 14.2508ZM10.9898 9.88658H12.3159V14.2592L15.8521 16.6936L15.1001 17.7859L11.3306 15.1908H10.9898V14.9562L10.7311 14.7781L10.9898 14.4023V9.88658Z" fill="black"/>
<path d="M17.1196 4.68196C16.7208 4.45215 16.2113 4.58911 15.9815 4.98786L15.3121 6.14935L17.5723 7.45196L18.2417 6.29047C18.4715 5.89172 18.3345 5.38216 17.9358 5.15235L17.1196 4.68196Z" fill="black"/>
</svg>
