<svg xmlns="http://www.w3.org/2000/svg" width="24" height="24" viewBox="0 0 24 24" fill="none"><rect width="24" height="24" fill="none"/>
<path d="M10.1377 2C9.41731 2 8.83333 2.58398 8.83333 3.30435C8.83333 4.02472 9.41731 4.6087 10.1377 4.6087H10.5725V5.91304H13.1812V4.6087H13.6159C14.3363 4.6087 14.9203 4.02472 14.9203 3.30435C14.9203 2.58398 14.3363 2 13.6159 2H10.1377Z" fill="black"/>
<path fill-rule="evenodd" clip-rule="evenodd" d="M19.7494 14.2458C19.7494 18.5283 16.2777 22 11.9952 22C7.71265 22 4.24097 18.5283 4.24097 14.2458C4.24097 9.96323 7.71265 6.49155 11.9952 6.49155C16.2777 6.49155 19.7494 9.96323 19.7494 14.2458ZM10.9908 9.88158H12.3169V14.2542L15.8531 16.6886L15.1011 17.7809L11.3316 15.1858H10.9908V14.9512L10.7321 14.7731L10.9908 14.3973V9.88158Z" fill="black"/>
<path d="M17.1206 4.67696C16.7218 4.44715 16.2123 4.5841 15.9824 4.98286L15.3131 6.14435L17.5732 7.44696L18.2426 6.28547C18.4725 5.88671 18.3355 5.37716 17.9368 5.14735L17.1206 4.67696Z" fill="black"/>
</svg>
