<svg xmlns="http://www.w3.org/2000/svg" width="17" height="17" viewBox="0 0 17 17" fill="none"><rect width="17" height="17" fill="none"/>
<path d="M6.7661 1.34C6.28585 1.34 5.89654 1.72931 5.89654 2.20956C5.89654 2.68981 6.28585 3.07913 6.7661 3.07913H7.05596V3.94869H8.79509V3.07913H9.08494C9.56519 3.07913 9.95451 2.68981 9.95451 2.20956C9.95451 1.72931 9.56519 1.34 9.08494 1.34H6.7661Z" fill="black"/>
<path fill-rule="evenodd" clip-rule="evenodd" d="M13.1739 9.50385C13.1739 12.3589 10.8595 14.6733 8.00444 14.6733C5.14942 14.6733 2.83496 12.3589 2.83496 9.50385C2.83496 6.64882 5.14942 4.33436 8.00444 4.33436C10.8595 4.33436 13.1739 6.64882 13.1739 9.50385ZM7.33485 6.59438H8.2189V9.50947L10.5764 11.1324L10.0751 11.8606L7.56205 10.1306H7.33485V9.97414L7.16237 9.8554L7.33485 9.60486V6.59438Z" fill="black"/>
<path d="M11.4214 3.12464C11.1555 2.97143 10.8158 3.06273 10.6626 3.32857L10.2164 4.10289L11.7231 4.9713L12.1694 4.19697C12.3226 3.93114 12.2313 3.59144 11.9655 3.43823L11.4214 3.12464Z" fill="black"/>
</svg>
