<svg xmlns="http://www.w3.org/2000/svg" width="25" height="24" viewBox="0 0 25 24" fill="none"><rect width="25" height="24" fill="none"/>
<path fill-rule="evenodd" clip-rule="evenodd" d="M7.59479 4C7.59479 2.89543 8.49022 2 9.59479 2H14.4183C15.5229 2 16.4183 2.89543 16.4183 4V4.84305H20.448C20.8486 4.84305 21.1735 5.16787 21.1735 5.56854C21.1735 5.96922 20.8486 6.29404 20.448 6.29404H19.6344V19C19.6344 20.6569 18.2913 22 16.6344 22H7.3893C5.73244 22 4.38929 20.6569 4.38929 19V6.29404H3.56558C3.1649 6.29404 2.84009 5.96922 2.84009 5.56854C2.84009 5.16787 3.1649 4.84305 3.56558 4.84305H7.59479V4ZM9.15686 4.84305H15.0392V4.17642C15.0392 3.62414 14.5915 3.17642 14.0392 3.17642H10.1569C9.60458 3.17642 9.15686 3.62414 9.15686 4.17642V4.84305ZM5.92823 6.29404H18.0949V18.8097C18.0949 19.7486 17.3338 20.5097 16.3949 20.5097H7.62824C6.68935 20.5097 5.92823 19.7486 5.92823 18.8097V6.29404Z" fill="black"/>
</svg>
