<svg xmlns="http://www.w3.org/2000/svg" width="17" height="16" viewBox="0 0 17 16" fill="none"><rect width="17" height="16" fill="none"/>
<path fill-rule="evenodd" clip-rule="evenodd" d="M4.92331 2.99013C4.92862 1.8901 5.82201 1 6.92328 1H9.09977C10.201 1 11.0944 1.8901 11.0997 2.99013H13.9205C14.201 2.99013 14.4283 3.2175 14.4283 3.49798C14.4283 3.77845 14.201 4.00582 13.9205 4.00582H13.3506V12C13.3506 13.6569 12.0074 15 10.3506 15H5.67899C4.02214 15 2.67899 13.6569 2.67899 12V4.00582H2.10281C1.82234 4.00582 1.59497 3.77845 1.59497 3.49798C1.59497 3.2175 1.82234 2.99013 2.10282 2.99013H4.92331ZM6.02272 2.99013H10.1289C10.1327 2.95472 10.1346 2.91875 10.1346 2.88233V2.8235C10.1346 2.27121 9.68692 1.8235 9.13464 1.8235H7.01698C6.46469 1.8235 6.01698 2.27121 6.01698 2.8235V2.88232C6.01698 2.91875 6.01892 2.95472 6.02272 2.99013ZM3.75674 4.00582H12.2734V11.9568C12.2734 13.0614 11.378 13.9568 10.2734 13.9568H5.75674C4.65217 13.9568 3.75674 13.0614 3.75674 11.9568V4.00582Z" fill="black"/>
</svg>
