<svg xmlns="http://www.w3.org/2000/svg" width="16" height="16" viewBox="0 0 16 16" fill="none"><rect width="16" height="16" fill="none"/>
<path fill-rule="evenodd" clip-rule="evenodd" d="M4.90841 2.99013C4.91373 1.8901 5.80711 1 6.90839 1H9.08488C10.1862 1 11.0795 1.8901 11.0849 2.99013H13.9056C14.1861 2.99013 14.4134 3.2175 14.4134 3.49798C14.4134 3.77845 14.1861 4.00582 13.9056 4.00582H13.3357V12C13.3357 13.6569 11.9925 15 10.3357 15H5.6641C4.00724 15 2.6641 13.6569 2.6641 12V4.00582H2.08792C1.80745 4.00582 1.58008 3.77845 1.58008 3.49798C1.58008 3.2175 1.80745 2.99013 2.08792 2.99013H4.90841ZM6.00783 2.99013H10.114C10.1178 2.95472 10.1197 2.91875 10.1197 2.88233V2.8235C10.1197 2.27121 9.67203 1.8235 9.11974 1.8235H7.00208C6.4498 1.8235 6.00208 2.27121 6.00208 2.8235V2.88232C6.00208 2.91875 6.00403 2.95472 6.00783 2.99013ZM3.74185 4.00582H12.2585V11.9568C12.2585 13.0614 11.3631 13.9568 10.2585 13.9568H5.74185C4.63728 13.9568 3.74185 13.0614 3.74185 11.9568V4.00582Z" fill="black"/>
</svg>
