<svg xmlns="http://www.w3.org/2000/svg" width="24" height="24" viewBox="0 0 24 24" fill="none"><rect width="24" height="24" fill="none"/>
<path fill-rule="evenodd" clip-rule="evenodd" d="M7.58478 4C7.58478 2.89543 8.48021 2 9.58478 2H14.4083C15.5129 2 16.4083 2.89543 16.4083 4V4.84305H20.438C20.8386 4.84305 21.1635 5.16787 21.1635 5.56854C21.1635 5.96922 20.8386 6.29404 20.438 6.29404H19.6244V19C19.6244 20.6569 18.2813 22 16.6244 22H7.37929C5.72243 22 4.37928 20.6569 4.37928 19V6.29404H3.55557C3.15489 6.29404 2.83008 5.96922 2.83008 5.56854C2.83008 5.16787 3.15489 4.84305 3.55557 4.84305H7.58478V4ZM9.14685 4.84305H15.0292V4.17642C15.0292 3.62414 14.5815 3.17642 14.0292 3.17642H10.1469C9.59457 3.17642 9.14685 3.62414 9.14685 4.17642V4.84305ZM5.91822 6.29404H18.0849V18.8097C18.0849 19.7486 17.3238 20.5097 16.3849 20.5097H7.61823C6.67934 20.5097 5.91822 19.7486 5.91822 18.8097V6.29404Z" fill="black"/>
</svg>
