<svg xmlns="http://www.w3.org/2000/svg" width="24" height="25" viewBox="0 0 24 25" fill="none"><rect width="24" height="25" fill="none"/>
<path fill-rule="evenodd" clip-rule="evenodd" d="M2.70176 5.83115V14.3404C2.70176 14.4981 2.82951 14.6259 2.98716 14.6259H12.6336C12.7912 14.6259 12.919 14.4981 12.919 14.3405V5.83115C12.919 5.35831 12.5357 4.97498 12.0628 4.97498H3.55794C3.08507 4.97498 2.70176 5.35831 2.70176 5.83115ZM7.79399 19.0313C8.77467 19.0313 9.56974 18.2362 9.56974 17.2555C9.56974 16.2748 8.77467 15.4798 7.79399 15.4798C6.8133 15.4798 6.01824 16.2748 6.01824 17.2555C6.01824 18.2362 6.8133 19.0313 7.79399 19.0313ZM7.79395 16.3677C8.28431 16.3677 8.68183 16.7652 8.68183 17.2555C8.68183 17.7459 8.28431 18.1434 7.79395 18.1434C7.3036 18.1434 6.90605 17.7459 6.90605 17.2555C6.90605 16.7652 7.3036 16.3677 7.79395 16.3677ZM2.28539 15.4797H6.26454C5.84654 15.8403 5.55814 16.345 5.47487 16.9164H2.28539C2.12778 16.9164 2 16.7886 2 16.631V15.7651C2 15.6075 2.12778 15.4797 2.28539 15.4797ZM17.085 19.0313C18.0657 19.0313 18.8607 18.2362 18.8607 17.2555C18.8607 16.2748 18.0657 15.4797 17.085 15.4798C16.1042 15.4798 15.3092 16.2748 15.3092 17.2555C15.3092 18.2362 16.1042 19.0313 17.085 19.0313ZM17.085 16.3677C17.5753 16.3677 17.9729 16.7652 17.9729 17.2555C17.9729 17.7459 17.5753 18.1434 17.085 18.1434C16.5946 18.1434 16.1971 17.7459 16.1971 17.2555C16.1971 16.7652 16.5946 16.3677 17.085 16.3677ZM22 16.631V15.7651C22 15.6075 21.8722 15.4797 21.7146 15.4797H21.0201V11.6016C21.0201 11.1463 20.8839 10.7013 20.6292 10.324L18.8922 7.75141C18.4677 7.12269 17.7587 6.74586 17.0001 6.74586H14.3058C13.9906 6.74586 13.735 7.00141 13.735 7.31664V15.4797H9.32343C9.74144 15.8403 10.0298 16.345 10.1131 16.9164H14.7658C14.931 15.783 15.9065 14.909 17.085 14.909C18.2633 14.909 19.2388 15.7829 19.404 16.9164H21.7146C21.8722 16.9164 22 16.7886 22 16.631Z" fill="black"/>
</svg>
