<svg xmlns="http://www.w3.org/2000/svg" width="24" height="24" viewBox="0 0 24 24" fill="none"><rect width="24" height="24" fill="none"/>
<path fill-rule="evenodd" clip-rule="evenodd" d="M0.842118 4.59357V14.8047C0.842118 14.9939 0.995412 15.1472 1.18459 15.1472H12.7603C12.9495 15.1472 13.1028 14.9939 13.1028 14.8047V4.59357C13.1028 4.02616 12.6428 3.56616 12.0754 3.56616H1.86953C1.30208 3.56616 0.842118 4.02616 0.842118 4.59357ZM6.95278 20.4337C8.12961 20.4337 9.08369 19.4797 9.08369 18.3028C9.08369 17.1259 8.12961 16.1719 6.95278 16.1719C5.77596 16.1719 4.82188 17.1259 4.82188 18.3028C4.82188 19.4797 5.77596 20.4337 6.95278 20.4337ZM6.95275 17.2374C7.54118 17.2374 8.0182 17.7144 8.0182 18.3028C8.0182 18.8913 7.54118 19.3683 6.95275 19.3683C6.36431 19.3683 5.88726 18.8913 5.88726 18.3028C5.88726 17.7144 6.36431 17.2374 6.95275 17.2374ZM0.342471 16.1719H5.11745C4.61584 16.6046 4.26976 17.2102 4.16984 17.8958H0.342471C0.153333 17.8958 0 17.7425 0 17.5534V16.5144C0 16.3252 0.153333 16.1719 0.342471 16.1719ZM18.102 20.4337C19.2788 20.4337 20.2329 19.4797 20.2329 18.3028C20.2329 17.1259 19.2788 16.1719 18.102 16.1719C16.9251 16.1719 15.9711 17.1259 15.9711 18.3028C15.9711 19.4797 16.9251 20.4337 18.102 20.4337ZM18.102 17.2374C18.6904 17.2374 19.1674 17.7144 19.1674 18.3028C19.1674 18.8913 18.6904 19.3683 18.102 19.3683C17.5135 19.3683 17.0365 18.8913 17.0365 18.3028C17.0365 17.7144 17.5135 17.2374 18.102 17.2374ZM24 17.5534V16.5144C24 16.3252 23.8467 16.1719 23.6575 16.1719H22.8241V11.5181C22.8241 10.9717 22.6607 10.4378 22.355 9.98498L20.2707 6.89789C19.7613 6.14342 18.9104 5.69122 18.0001 5.69122H14.7669C14.3887 5.69122 14.082 5.99789 14.082 6.37616V16.1719H8.78812C9.28973 16.6046 9.63577 17.2102 9.73573 17.8958H15.3189C15.5173 16.5358 16.6878 15.4869 18.102 15.4869C19.516 15.4869 20.6865 16.5357 20.8848 17.8958H23.6575C23.8467 17.8958 24 17.7425 24 17.5534Z" fill="black"/>
</svg>
