<svg xmlns="http://www.w3.org/2000/svg" width="24" height="24" viewBox="0 0 24 24" fill="none"><rect width="24" height="24" fill="none"/>
<path fill-rule="evenodd" clip-rule="evenodd" d="M2.70274 6.15616V14.6654C2.70274 14.8231 2.83049 14.9509 2.98813 14.9509H12.6346C12.7922 14.9509 12.92 14.8231 12.92 14.6655V6.15616C12.92 5.68332 12.5367 5.29999 12.0638 5.29999H3.55892C3.08604 5.29999 2.70274 5.68332 2.70274 6.15616ZM7.79496 19.3563C8.77565 19.3563 9.57072 18.5613 9.57072 17.5805C9.57072 16.5998 8.77565 15.8048 7.79496 15.8048C6.81428 15.8048 6.01921 16.5998 6.01921 17.5805C6.01921 18.5613 6.81428 19.3563 7.79496 19.3563ZM7.79493 16.6927C8.28529 16.6927 8.68281 17.0902 8.68281 17.5805C8.68281 18.0709 8.28529 18.4685 7.79493 18.4685C7.30457 18.4685 6.90702 18.0709 6.90702 17.5805C6.90702 17.0902 7.30457 16.6927 7.79493 16.6927ZM2.28637 15.8048H6.26552C5.84751 16.1653 5.55911 16.67 5.47585 17.2414H2.28637C2.12875 17.2414 2.00098 17.1136 2.00098 16.956V16.0901C2.00098 15.9325 2.12875 15.8048 2.28637 15.8048ZM17.0859 19.3563C18.0666 19.3563 18.8617 18.5613 18.8617 17.5805C18.8617 16.5998 18.0666 15.8048 17.0859 15.8048C16.1052 15.8048 15.3102 16.5998 15.3102 17.5805C15.3102 18.5613 16.1052 19.3563 17.0859 19.3563ZM17.0859 16.6927C17.5763 16.6927 17.9739 17.0902 17.9739 17.5805C17.9739 18.0709 17.5763 18.4685 17.0859 18.4685C16.5956 18.4685 16.1981 18.0709 16.1981 17.5805C16.1981 17.0902 16.5956 16.6927 17.0859 16.6927ZM22.001 16.956V16.0901C22.001 15.9325 21.8732 15.8048 21.7156 15.8048H21.021V11.9266C21.021 11.4713 20.8849 11.0264 20.6301 10.649L18.8932 8.07643C18.4687 7.4477 17.7597 7.07087 17.001 7.07087H14.3068C13.9915 7.07087 13.736 7.32643 13.736 7.64165V15.8048H9.32441C9.74241 16.1653 10.0308 16.6701 10.1141 17.2414H14.7668C14.932 16.108 15.9075 15.234 17.086 15.234C18.2643 15.234 19.2397 16.108 19.405 17.2414H21.7156C21.8732 17.2414 22.001 17.1136 22.001 16.956Z" fill="black"/>
</svg>
