<svg xmlns="http://www.w3.org/2000/svg" width="17" height="16" viewBox="0 0 17 16" fill="none"><rect width="17" height="16" fill="none"/>
<path fill-rule="evenodd" clip-rule="evenodd" d="M1.81257 3.89079V9.56364C1.81257 9.66874 1.89773 9.75393 2.00283 9.75393H8.43379C8.53889 9.75393 8.62405 9.66874 8.62405 9.56367V3.89079C8.62405 3.57556 8.36852 3.32001 8.05329 3.32001H2.38335C2.0681 3.32001 1.81257 3.57556 1.81257 3.89079ZM5.20739 12.6909C5.86118 12.6909 6.39122 12.1609 6.39122 11.507C6.39122 10.8532 5.86118 10.3232 5.20739 10.3232C4.55359 10.3232 4.02355 10.8532 4.02355 11.507C4.02355 12.1609 4.55359 12.6909 5.20739 12.6909ZM5.20736 10.9151C5.53427 10.9151 5.79928 11.1801 5.79928 11.507C5.79928 11.8339 5.53427 12.099 5.20736 12.099C4.88046 12.099 4.61542 11.8339 4.61542 11.507C4.61542 11.1801 4.88046 10.9151 5.20736 10.9151ZM1.53499 10.3232H4.18775C3.90908 10.5636 3.71682 10.9 3.66131 11.2809H1.53499C1.42991 11.2809 1.34473 11.1958 1.34473 11.0907V10.5134C1.34473 10.4084 1.42991 10.3232 1.53499 10.3232ZM11.4014 12.6909C12.0552 12.6909 12.5852 12.1609 12.5852 11.507C12.5852 10.8532 12.0552 10.3232 11.4014 10.3232C10.7476 10.3232 10.2175 10.8532 10.2175 11.507C10.2175 12.1609 10.7476 12.6909 11.4014 12.6909ZM11.4014 10.9151C11.7283 10.9151 11.9933 11.1801 11.9933 11.507C11.9933 11.8339 11.7283 12.099 11.4014 12.099C11.0745 12.099 10.8095 11.8339 10.8095 11.507C10.8095 11.1801 11.0744 10.9151 11.4014 10.9151ZM14.6781 11.0907V10.5134C14.6781 10.4084 14.5929 10.3232 14.4878 10.3232H14.0248V7.73774C14.0248 7.43419 13.934 7.13759 13.7642 6.88602L12.6062 5.17097C12.3232 4.75181 11.8505 4.5006 11.3448 4.5006H9.54858C9.33843 4.5006 9.16806 4.67097 9.16806 4.88112V10.3232H6.22701C6.50569 10.5636 6.69793 10.9 6.75346 11.2809H9.85525C9.96542 10.5253 10.6158 9.94266 11.4014 9.94266C12.1869 9.94266 12.8372 10.5253 12.9474 11.2809H14.4878C14.5929 11.2809 14.6781 11.1958 14.6781 11.0907Z" fill="black"/>
</svg>
