<svg xmlns="http://www.w3.org/2000/svg" width="16" height="16" viewBox="0 0 16 16" fill="none"><rect width="16" height="16" fill="none"/>
<path fill-rule="evenodd" clip-rule="evenodd" d="M1.80134 4.10411V9.77696C1.80134 9.88206 1.8865 9.96725 1.9916 9.96725H8.42256C8.52766 9.96725 8.61282 9.88206 8.61282 9.77698V4.10411C8.61282 3.78888 8.35729 3.53333 8.04206 3.53333H2.37212C2.05687 3.53333 1.80134 3.78888 1.80134 4.10411ZM5.19615 12.9042C5.84995 12.9042 6.37999 12.3742 6.37999 11.7204C6.37999 11.0665 5.84995 10.5365 5.19615 10.5365C4.54236 10.5365 4.01232 11.0665 4.01232 11.7204C4.01232 12.3742 4.54236 12.9042 5.19615 12.9042ZM5.19613 11.1284C5.52304 11.1284 5.78805 11.3935 5.78805 11.7204C5.78805 12.0473 5.52304 12.3123 5.19613 12.3123C4.86923 12.3123 4.60419 12.0473 4.60419 11.7204C4.60419 11.3935 4.86923 11.1284 5.19613 11.1284ZM1.52376 10.5365H4.17652C3.89785 10.7769 3.70559 11.1133 3.65008 11.4943H1.52376C1.41868 11.4943 1.3335 11.4091 1.3335 11.304V10.7268C1.3335 10.6217 1.41868 10.5365 1.52376 10.5365ZM11.3901 12.9042C12.0439 12.9042 12.574 12.3742 12.574 11.7204C12.574 11.0665 12.0439 10.5365 11.3901 10.5365C10.7363 10.5365 10.2063 11.0665 10.2063 11.7204C10.2063 12.3742 10.7363 12.9042 11.3901 12.9042ZM11.3901 11.1284C11.717 11.1284 11.9821 11.3935 11.9821 11.7204C11.9821 12.0473 11.717 12.3123 11.3901 12.3123C11.0632 12.3123 10.7982 12.0473 10.7982 11.7204C10.7982 11.3935 11.0632 11.1284 11.3901 11.1284ZM14.6668 11.304V10.7268C14.6668 10.6217 14.5816 10.5365 14.4766 10.5365H14.0135V7.95106C14.0135 7.64751 13.9228 7.35091 13.7529 7.09934L12.595 5.38428C12.312 4.96513 11.8393 4.71391 11.3335 4.71391H9.53735C9.3272 4.71391 9.15683 4.88428 9.15683 5.09444V10.5365H6.21578C6.49445 10.7769 6.6867 11.1134 6.74223 11.4943H9.84402C9.95419 10.7387 10.6045 10.156 11.3902 10.156C12.1757 10.156 12.826 10.7386 12.9362 11.4943H14.4766C14.5816 11.4943 14.6668 11.4091 14.6668 11.304Z" fill="black"/>
</svg>
