<svg width="24" height="25" viewBox="0 0 24 25" fill="none" xmlns="http://www.w3.org/2000/svg">
<path d="M22.2026 4.14008H1.79742C0.804703 4.14008 0 4.94478 0 5.9375V18.0668C0 19.0595 0.804703 19.8642 1.79742 19.8642H22.2026C23.1952 19.8642 24 19.0595 24 18.0668V5.9375C24 4.94478 23.1953 4.14008 22.2026 4.14008Z" fill="#F5F5F5"/>
<path d="M0.0988464 5.34964H23.9011C23.6575 4.64572 22.9893 4.14008 22.2026 4.14008H1.79741C1.01066 4.14008 0.342456 4.64572 0.0988464 5.34964Z" fill="#D42020"/>
<path d="M24 8.97836H0V10.1879H24V8.97836Z" fill="#D42020"/>
<path d="M24 6.55853H0V7.76805H24V6.55853Z" fill="#D42020"/>
<path d="M0 12.1928C0 12.4213 0.185297 12.6066 0.413813 12.6066H24V11.3971H0V12.1928Z" fill="#D42020"/>
<path d="M24 16.236H0V17.4455H24V16.236Z" fill="#D42020"/>
<path d="M23.9011 18.6551H0.0988464C0.342456 19.359 1.01071 19.8647 1.79741 19.8647H22.2026C22.9893 19.8647 23.6575 19.359 23.9011 18.6551Z" fill="#D42020"/>
<path d="M24 13.817H0V15.0266H24V13.817Z" fill="#D42020"/>
<path d="M0.413813 12.6069H10.7587C10.9872 12.6069 11.1725 12.4216 11.1725 12.1931V4.55383C11.1725 4.32526 10.9872 4.14001 10.7587 4.14001H1.79742C0.804703 4.14006 0 4.94476 0 5.93748V12.1931C0 12.4217 0.185297 12.6069 0.413813 12.6069Z" fill="#41479B"/>
<path d="M1.16195 5.09028L1.25354 5.36496L1.54309 5.36717C1.58059 5.36749 1.59611 5.41531 1.56597 5.43757L1.33304 5.60956L1.42042 5.8856C1.43176 5.92132 1.39103 5.95095 1.36051 5.9291L1.12497 5.76078L0.88942 5.92915C0.858905 5.95099 0.818264 5.92137 0.829514 5.88565L0.916889 5.6096L0.683968 5.43762C0.653827 5.41531 0.669343 5.36749 0.706843 5.36721L0.996389 5.36501L1.08798 5.09032C1.0998 5.0547 1.15004 5.0547 1.16195 5.09028Z" fill="#F5F5F5"/>
<path d="M1.16195 6.52667L1.25354 6.80136L1.54309 6.80357C1.58059 6.80389 1.59611 6.85166 1.56597 6.87397L1.33304 7.04601L1.42042 7.32205C1.43176 7.35777 1.39103 7.3874 1.36051 7.36556L1.12497 7.19723L0.88942 7.3656C0.858905 7.3874 0.818264 7.35782 0.829514 7.3221L0.916889 7.04605L0.683968 6.87402C0.653827 6.85171 0.669343 6.80394 0.706843 6.80361L0.996389 6.80141L1.08798 6.52672C1.0998 6.49114 1.15004 6.49114 1.16195 6.52667Z" fill="#F5F5F5"/>
<path d="M1.16195 7.9636L1.25354 8.23829L1.54309 8.24049C1.58059 8.24082 1.59611 8.28858 1.56597 8.3109L1.33304 8.48293L1.42042 8.75898C1.43176 8.79469 1.39103 8.82432 1.36051 8.80248L1.12497 8.63415L0.88942 8.80252C0.858905 8.82432 0.818264 8.79479 0.829514 8.75902L0.916889 8.48297L0.683968 8.31094C0.653827 8.28863 0.669343 8.24086 0.706843 8.24054L0.996389 8.23833L1.08798 7.96365C1.0998 7.92802 1.15004 7.92802 1.16195 7.9636Z" fill="#F5F5F5"/>
<path d="M1.16195 9.40116L1.25354 9.67584L1.54309 9.67805C1.58059 9.67838 1.59611 9.72619 1.56597 9.74845L1.33304 9.92048L1.42042 10.1965C1.43176 10.2322 1.39103 10.2619 1.36051 10.24L1.12497 10.0717L0.88942 10.2401C0.858905 10.2619 0.818264 10.2323 0.829514 10.1966L0.916889 9.92053L0.683968 9.7485C0.653827 9.72628 0.669343 9.67842 0.706843 9.67809L0.996389 9.67589L1.08798 9.40121C1.0998 9.36558 1.15004 9.36558 1.16195 9.40116Z" fill="#F5F5F5"/>
<path d="M1.16195 10.8376L1.25354 11.1122L1.54309 11.1144C1.58059 11.1148 1.59611 11.1625 1.56597 11.1849L1.33304 11.3569L1.42042 11.6329C1.43176 11.6686 1.39103 11.6983 1.36051 11.6764L1.12497 11.5081L0.88942 11.6765C0.858905 11.6983 0.818264 11.6687 0.829514 11.633L0.916889 11.3569L0.683968 11.1849C0.653827 11.1626 0.669343 11.1148 0.706843 11.1145L0.996389 11.1123L1.08798 10.8376C1.0998 10.802 1.15004 10.802 1.16195 10.8376Z" fill="#F5F5F5"/>
<path d="M2.27728 5.79508L2.36887 6.06977L2.65842 6.07197C2.69592 6.0723 2.71143 6.12011 2.68129 6.14238L2.44837 6.31441L2.53575 6.59046C2.54709 6.62618 2.50635 6.65581 2.47584 6.63396L2.24029 6.46559L2.00475 6.63396C1.97423 6.65576 1.93359 6.62618 1.94484 6.59046L2.03222 6.31441L1.79929 6.14238C1.76915 6.12007 1.78467 6.0723 1.82217 6.07197L2.11171 6.06977L2.20331 5.79508C2.21512 5.75955 2.26542 5.75955 2.27728 5.79508Z" fill="#F5F5F5"/>
<path d="M2.27728 7.23198L2.36887 7.50666L2.65842 7.50887C2.69592 7.50919 2.71143 7.55701 2.68129 7.57927L2.44837 7.7513L2.53575 8.02735C2.54709 8.06307 2.50635 8.09269 2.47584 8.07085L2.24029 7.90248L2.00475 8.07085C1.97423 8.09265 1.93359 8.06312 1.94484 8.02735L2.03222 7.7513L1.79929 7.57927C1.76915 7.55705 1.78467 7.50919 1.82217 7.50887L2.11171 7.50666L2.20331 7.23198C2.21512 7.1964 2.26542 7.1964 2.27728 7.23198Z" fill="#F5F5F5"/>
<path d="M2.27728 8.66862L2.36887 8.94331L2.65842 8.94551C2.69592 8.94584 2.71143 8.99361 2.68129 9.01592L2.44837 9.18795L2.53575 9.464C2.54709 9.49972 2.50635 9.52934 2.47584 9.5075L2.24029 9.33912L2.00475 9.5075C1.97423 9.5293 1.93359 9.49972 1.94484 9.464L2.03222 9.18795L1.79929 9.01592C1.76915 8.99361 1.78467 8.94584 1.82217 8.94551L2.11171 8.94331L2.20331 8.66862C2.21512 8.63304 2.26542 8.63304 2.27728 8.66862Z" fill="#F5F5F5"/>
<path d="M2.27728 10.105L2.36887 10.3797L2.65842 10.3819C2.69592 10.3822 2.71143 10.43 2.68129 10.4523L2.44837 10.6243L2.53575 10.9004C2.54709 10.9361 2.50635 10.9657 2.47584 10.9439L2.24029 10.7755L2.00475 10.9439C1.97423 10.9657 1.93359 10.9361 1.94484 10.9004L2.03222 10.6243L1.79929 10.4523C1.76915 10.43 1.78467 10.3822 1.82217 10.3819L2.11171 10.3797L2.20331 10.105C2.21512 10.0695 2.26542 10.0695 2.27728 10.105Z" fill="#F5F5F5"/>
<path d="M3.3926 5.09016L3.4842 5.36485L3.77374 5.36705C3.81124 5.36738 3.82676 5.41519 3.79662 5.43746L3.5637 5.60944L3.65107 5.88549C3.66241 5.92121 3.62168 5.95083 3.59117 5.92899L3.35562 5.76061L3.12007 5.92899C3.08956 5.95083 3.04892 5.92121 3.06017 5.88549L3.14754 5.60944L2.91462 5.43746C2.88448 5.41515 2.89999 5.36733 2.93749 5.36705L3.22704 5.36485L3.31863 5.09016C3.33045 5.05458 3.38074 5.05458 3.3926 5.09016Z" fill="#F5F5F5"/>
<path d="M3.3926 6.5275L3.4842 6.80219L3.77374 6.80439C3.81124 6.80472 3.82676 6.85249 3.79662 6.8748L3.5637 7.04683L3.65107 7.32288C3.66241 7.35859 3.62168 7.38822 3.59117 7.36638L3.35562 7.198L3.12007 7.36638C3.08956 7.38817 3.04892 7.35859 3.06017 7.32288L3.14754 7.04683L2.91462 6.8748C2.88448 6.85249 2.89999 6.80472 2.93749 6.80439L3.22704 6.80219L3.31863 6.5275C3.33045 6.49197 3.38074 6.49197 3.3926 6.5275Z" fill="#F5F5F5"/>
<path d="M3.3926 7.9644L3.4842 8.23908L3.77374 8.24129C3.81124 8.24162 3.82676 8.28938 3.79662 8.31169L3.5637 8.48373L3.65107 8.75977C3.66241 8.79549 3.62168 8.82512 3.59117 8.80327L3.35562 8.6349L3.12007 8.80327C3.08956 8.82507 3.04892 8.79554 3.06017 8.75977L3.14754 8.48373L2.91462 8.31169C2.88448 8.28938 2.89999 8.24162 2.93749 8.24129L3.22704 8.23908L3.31863 7.9644C3.33045 7.92882 3.38074 7.92882 3.3926 7.9644Z" fill="#F5F5F5"/>
<path d="M3.3926 9.40104L3.4842 9.67573L3.77374 9.67793C3.81124 9.67826 3.82676 9.72608 3.79662 9.74834L3.5637 9.92037L3.65107 10.1964C3.66241 10.2321 3.62168 10.2618 3.59117 10.2399L3.35562 10.0715L3.12007 10.2399C3.08956 10.2617 3.04892 10.2321 3.06017 10.1964L3.14754 9.92037L2.91462 9.74834C2.88448 9.72612 2.89999 9.67826 2.93749 9.67793L3.22704 9.67573L3.31863 9.40104C3.33045 9.36546 3.38074 9.36546 3.3926 9.40104Z" fill="#F5F5F5"/>
<path d="M3.3926 10.8374L3.4842 11.1121L3.77374 11.1143C3.81124 11.1147 3.82676 11.1624 3.79662 11.1847L3.5637 11.3568L3.65107 11.6328C3.66241 11.6685 3.62168 11.6982 3.59117 11.6763L3.35562 11.5079L3.12007 11.6763C3.08956 11.6981 3.04892 11.6685 3.06017 11.6328L3.14754 11.3568L2.91462 11.1847C2.88448 11.1624 2.89999 11.1147 2.93749 11.1143L3.22704 11.1121L3.31863 10.8374C3.33045 10.8019 3.38074 10.8019 3.3926 10.8374Z" fill="#F5F5F5"/>
<path d="M4.5079 5.79508L4.59949 6.06977L4.88904 6.07197C4.92654 6.0723 4.94206 6.12011 4.91192 6.14238L4.67899 6.31441L4.76637 6.59046C4.77771 6.62618 4.73698 6.65581 4.70646 6.63396L4.47091 6.46559L4.23537 6.63396C4.20485 6.65576 4.16421 6.62618 4.17546 6.59046L4.26284 6.31441L4.02992 6.14238C3.99977 6.12007 4.01529 6.0723 4.05279 6.07197L4.34234 6.06977L4.43393 5.79508C4.4457 5.75955 4.49604 5.75955 4.5079 5.79508Z" fill="#F5F5F5"/>
<path d="M4.5079 7.23198L4.59949 7.50666L4.88904 7.50887C4.92654 7.50919 4.94206 7.55701 4.91192 7.57927L4.67899 7.7513L4.76637 8.02735C4.77771 8.06307 4.73698 8.09269 4.70646 8.07085L4.47091 7.90248L4.23537 8.07085C4.20485 8.09265 4.16421 8.06312 4.17546 8.02735L4.26284 7.7513L4.02992 7.57927C3.99977 7.55705 4.01529 7.50919 4.05279 7.50887L4.34234 7.50666L4.43393 7.23198C4.4457 7.1964 4.49604 7.1964 4.5079 7.23198Z" fill="#F5F5F5"/>
<path d="M4.5079 8.66862L4.59949 8.94331L4.88904 8.94551C4.92654 8.94584 4.94206 8.99361 4.91192 9.01592L4.67899 9.18795L4.76637 9.464C4.77771 9.49972 4.73698 9.52934 4.70646 9.5075L4.47091 9.33912L4.23537 9.5075C4.20485 9.5293 4.16421 9.49972 4.17546 9.464L4.26284 9.18795L4.02992 9.01592C3.99977 8.99361 4.01529 8.94584 4.05279 8.94551L4.34234 8.94331L4.43393 8.66862C4.4457 8.63304 4.49604 8.63304 4.5079 8.66862Z" fill="#F5F5F5"/>
<path d="M4.5079 10.105L4.59949 10.3797L4.88904 10.3819C4.92654 10.3822 4.94206 10.43 4.91192 10.4523L4.67899 10.6243L4.76637 10.9004C4.77771 10.9361 4.73698 10.9657 4.70646 10.9439L4.47091 10.7755L4.23537 10.9439C4.20485 10.9657 4.16421 10.9361 4.17546 10.9004L4.26284 10.6243L4.02992 10.4523C3.99977 10.43 4.01529 10.3822 4.05279 10.3819L4.34234 10.3797L4.43393 10.105C4.4457 10.0695 4.49604 10.0695 4.5079 10.105Z" fill="#F5F5F5"/>
<path d="M5.62318 5.09028L5.71478 5.36496L6.00432 5.36717C6.04182 5.36749 6.05734 5.41531 6.0272 5.43757L5.79428 5.60956L5.88165 5.8856C5.89299 5.92132 5.85226 5.95095 5.82174 5.9291L5.58615 5.76078L5.3506 5.92915C5.32009 5.95099 5.27945 5.92137 5.2907 5.88565L5.37807 5.6096L5.14515 5.43762C5.11501 5.41531 5.13052 5.36749 5.16802 5.36721L5.45757 5.36501L5.54917 5.09032C5.56103 5.0547 5.61132 5.0547 5.62318 5.09028Z" fill="#F5F5F5"/>
<path d="M5.62318 6.5275L5.71478 6.80219L6.00432 6.80439C6.04182 6.80472 6.05734 6.85249 6.0272 6.8748L5.79428 7.04683L5.88165 7.32288C5.89299 7.35859 5.85226 7.38822 5.82174 7.36638L5.58615 7.198L5.3506 7.36638C5.32009 7.38817 5.27945 7.35859 5.2907 7.32288L5.37807 7.04683L5.14515 6.8748C5.11501 6.85249 5.13052 6.80472 5.16802 6.80439L5.45757 6.80219L5.54917 6.5275C5.56103 6.49197 5.61132 6.49197 5.62318 6.5275Z" fill="#F5F5F5"/>
<path d="M5.62318 7.96428L5.71478 8.23897L6.00432 8.24117C6.04182 8.2415 6.05734 8.28927 6.0272 8.31158L5.79428 8.48361L5.88165 8.75966C5.89299 8.79537 5.85226 8.825 5.82174 8.80316L5.58615 8.63473L5.3506 8.80311C5.32009 8.82491 5.27945 8.79533 5.2907 8.75961L5.37807 8.48356L5.14515 8.31153C5.11501 8.28922 5.13052 8.24145 5.16802 8.24112L5.45757 8.23892L5.54917 7.96423C5.56103 7.9287 5.61132 7.9287 5.62318 7.96428Z" fill="#F5F5F5"/>
<path d="M5.62318 9.40104L5.71478 9.67573L6.00432 9.67793C6.04182 9.67826 6.05734 9.72608 6.0272 9.74834L5.79428 9.92037L5.88165 10.1964C5.89299 10.2321 5.85226 10.2618 5.82174 10.2399L5.58615 10.0715L5.3506 10.2399C5.32009 10.2617 5.27945 10.2321 5.2907 10.1964L5.37807 9.92037L5.14515 9.74834C5.11501 9.72612 5.13052 9.67826 5.16802 9.67793L5.45757 9.67573L5.54917 9.40104C5.56103 9.36546 5.61132 9.36546 5.62318 9.40104Z" fill="#F5F5F5"/>
<path d="M5.62318 10.8374L5.71478 11.1121L6.00432 11.1143C6.04182 11.1147 6.05734 11.1624 6.0272 11.1847L5.79428 11.3568L5.88165 11.6328C5.89299 11.6685 5.85226 11.6982 5.82174 11.6763L5.58615 11.5079L5.3506 11.6763C5.32009 11.6981 5.27945 11.6685 5.2907 11.6328L5.37807 11.3568L5.14515 11.1847C5.11501 11.1624 5.13052 11.1147 5.16802 11.1143L5.45757 11.1121L5.54917 10.8374C5.56103 10.8019 5.61132 10.8019 5.62318 10.8374Z" fill="#F5F5F5"/>
<path d="M6.73843 5.79508L6.83002 6.06977L7.11956 6.07197C7.15706 6.0723 7.17258 6.12011 7.14244 6.14238L6.90952 6.31441L6.99689 6.59046C7.00824 6.62618 6.9675 6.65581 6.93699 6.63396L6.70144 6.46559L6.4659 6.63396C6.43538 6.65576 6.39474 6.62618 6.40599 6.59046L6.49336 6.31441L6.26044 6.14238C6.2303 6.12007 6.24582 6.0723 6.28332 6.07197L6.57286 6.06977L6.66446 5.79508C6.67632 5.75955 6.72657 5.75955 6.73843 5.79508Z" fill="#F5F5F5"/>
<path d="M6.73843 7.23198L6.83002 7.50666L7.11956 7.50887C7.15706 7.50919 7.17258 7.55701 7.14244 7.57927L6.90952 7.7513L6.99689 8.02735C7.00824 8.06307 6.9675 8.09269 6.93699 8.07085L6.70144 7.90248L6.4659 8.07085C6.43538 8.09265 6.39474 8.06312 6.40599 8.02735L6.49336 7.7513L6.26044 7.57927C6.2303 7.55705 6.24582 7.50919 6.28332 7.50887L6.57286 7.50666L6.66446 7.23198C6.67632 7.1964 6.72657 7.1964 6.73843 7.23198Z" fill="#F5F5F5"/>
<path d="M6.73843 8.66862L6.83002 8.94331L7.11956 8.94551C7.15706 8.94584 7.17258 8.99361 7.14244 9.01592L6.90952 9.18795L6.99689 9.464C7.00824 9.49972 6.9675 9.52934 6.93699 9.5075L6.70144 9.33912L6.4659 9.5075C6.43538 9.5293 6.39474 9.49972 6.40599 9.464L6.49336 9.18795L6.26044 9.01592C6.2303 8.99361 6.24582 8.94584 6.28332 8.94551L6.57286 8.94331L6.66446 8.66862C6.67632 8.63304 6.72657 8.63304 6.73843 8.66862Z" fill="#F5F5F5"/>
<path d="M6.73843 10.105L6.83002 10.3797L7.11956 10.3819C7.15706 10.3822 7.17258 10.43 7.14244 10.4523L6.90952 10.6243L6.99689 10.9004C7.00824 10.9361 6.9675 10.9657 6.93699 10.9439L6.70144 10.7755L6.4659 10.9439C6.43538 10.9657 6.39474 10.9361 6.40599 10.9004L6.49336 10.6243L6.26044 10.4523C6.2303 10.43 6.24582 10.3822 6.28332 10.3819L6.57286 10.3797L6.66446 10.105C6.67632 10.0695 6.72657 10.0695 6.73843 10.105Z" fill="#F5F5F5"/>
<path d="M7.85381 5.09016L7.94541 5.36485L8.23495 5.36705C8.27245 5.36738 8.28796 5.41519 8.25782 5.43746L8.0249 5.60944L8.11228 5.88549C8.12362 5.92121 8.08289 5.95083 8.05237 5.92899L7.81683 5.76061L7.58128 5.92899C7.55077 5.95083 7.51013 5.92121 7.52138 5.88549L7.60875 5.60944L7.37583 5.43746C7.34569 5.41515 7.36121 5.36733 7.39871 5.36705L7.68825 5.36485L7.77984 5.09016C7.79161 5.05458 7.84195 5.05458 7.85381 5.09016Z" fill="#F5F5F5"/>
<path d="M7.85381 6.5275L7.94541 6.80219L8.23495 6.80439C8.27245 6.80472 8.28796 6.85249 8.25782 6.8748L8.0249 7.04683L8.11228 7.32288C8.12362 7.35859 8.08289 7.38822 8.05237 7.36638L7.81683 7.198L7.58128 7.36638C7.55077 7.38817 7.51013 7.35859 7.52138 7.32288L7.60875 7.04683L7.37583 6.8748C7.34569 6.85249 7.36121 6.80472 7.39871 6.80439L7.68825 6.80219L7.77984 6.5275C7.79161 6.49197 7.84195 6.49197 7.85381 6.5275Z" fill="#F5F5F5"/>
<path d="M7.85381 7.9644L7.94541 8.23908L8.23495 8.24129C8.27245 8.24162 8.28796 8.28938 8.25782 8.31169L8.0249 8.48373L8.11228 8.75977C8.12362 8.79549 8.08289 8.82512 8.05237 8.80327L7.81683 8.6349L7.58128 8.80327C7.55077 8.82507 7.51013 8.79554 7.52138 8.75977L7.60875 8.48373L7.37583 8.31169C7.34569 8.28938 7.36121 8.24162 7.39871 8.24129L7.68825 8.23908L7.77984 7.9644C7.79161 7.92882 7.84195 7.92882 7.85381 7.9644Z" fill="#F5F5F5"/>
<path d="M7.85381 9.40104L7.94541 9.67573L8.23495 9.67793C8.27245 9.67826 8.28796 9.72608 8.25782 9.74834L8.0249 9.92037L8.11228 10.1964C8.12362 10.2321 8.08289 10.2618 8.05237 10.2399L7.81683 10.0715L7.58128 10.2399C7.55077 10.2617 7.51013 10.2321 7.52138 10.1964L7.60875 9.92037L7.37583 9.74834C7.34569 9.72612 7.36121 9.67826 7.39871 9.67793L7.68825 9.67573L7.77984 9.40104C7.79161 9.36546 7.84195 9.36546 7.85381 9.40104Z" fill="#F5F5F5"/>
<path d="M7.85381 10.8374L7.94541 11.1121L8.23495 11.1143C8.27245 11.1147 8.28796 11.1624 8.25782 11.1847L8.0249 11.3568L8.11228 11.6328C8.12362 11.6685 8.08289 11.6982 8.05237 11.6763L7.81683 11.5079L7.58128 11.6763C7.55077 11.6981 7.51013 11.6685 7.52138 11.6328L7.60875 11.3568L7.37583 11.1847C7.34569 11.1624 7.36121 11.1147 7.39871 11.1143L7.68825 11.1121L7.77984 10.8374C7.79161 10.8019 7.84195 10.8019 7.85381 10.8374Z" fill="#F5F5F5"/>
<path d="M8.96914 5.79508L9.06073 6.06977L9.35028 6.07197C9.38778 6.0723 9.40329 6.12011 9.37315 6.14238L9.14023 6.31441L9.22761 6.59046C9.23895 6.62618 9.19822 6.65581 9.1677 6.63396L8.93216 6.46559L8.69661 6.63396C8.66609 6.65576 8.62545 6.62618 8.6367 6.59046L8.72408 6.31441L8.49116 6.14238C8.46102 6.12007 8.47653 6.0723 8.51403 6.07197L8.80358 6.06977L8.89517 5.79508C8.90698 5.75955 8.95728 5.75955 8.96914 5.79508Z" fill="#F5F5F5"/>
<path d="M8.96914 7.23198L9.06073 7.50666L9.35028 7.50887C9.38778 7.50919 9.40329 7.55701 9.37315 7.57927L9.14023 7.7513L9.22761 8.02735C9.23895 8.06307 9.19822 8.09269 9.1677 8.07085L8.93216 7.90248L8.69661 8.07085C8.66609 8.09265 8.62545 8.06312 8.6367 8.02735L8.72408 7.7513L8.49116 7.57927C8.46102 7.55705 8.47653 7.50919 8.51403 7.50887L8.80358 7.50666L8.89517 7.23198C8.90698 7.1964 8.95728 7.1964 8.96914 7.23198Z" fill="#F5F5F5"/>
<path d="M8.96914 8.66862L9.06073 8.94331L9.35028 8.94551C9.38778 8.94584 9.40329 8.99361 9.37315 9.01592L9.14023 9.18795L9.22761 9.464C9.23895 9.49972 9.19822 9.52934 9.1677 9.5075L8.93216 9.33912L8.69661 9.5075C8.66609 9.5293 8.62545 9.49972 8.6367 9.464L8.72408 9.18795L8.49116 9.01592C8.46102 8.99361 8.47653 8.94584 8.51403 8.94551L8.80358 8.94331L8.89517 8.66862C8.90698 8.63304 8.95728 8.63304 8.96914 8.66862Z" fill="#F5F5F5"/>
<path d="M8.96914 10.105L9.06073 10.3797L9.35028 10.3819C9.38778 10.3822 9.40329 10.43 9.37315 10.4523L9.14023 10.6243L9.22761 10.9004C9.23895 10.9361 9.19822 10.9657 9.1677 10.9439L8.93216 10.7755L8.69661 10.9439C8.66609 10.9657 8.62545 10.9361 8.6367 10.9004L8.72408 10.6243L8.49116 10.4523C8.46102 10.43 8.47653 10.3822 8.51403 10.3819L8.80358 10.3797L8.89517 10.105C8.90698 10.0695 8.95728 10.0695 8.96914 10.105Z" fill="#F5F5F5"/>
<path d="M10.0844 5.09016L10.176 5.36485L10.4656 5.36705C10.5031 5.36738 10.5186 5.41519 10.4885 5.43746L10.2555 5.60944L10.3429 5.88549C10.3543 5.92121 10.3135 5.95083 10.283 5.92899L10.0475 5.76061L9.81191 5.92899C9.78139 5.95083 9.74075 5.92121 9.752 5.88549L9.83938 5.60944L9.60645 5.43746C9.57631 5.41515 9.59183 5.36733 9.62933 5.36705L9.91888 5.36485L10.0105 5.09016C10.0223 5.05458 10.0725 5.05458 10.0844 5.09016Z" fill="#F5F5F5"/>
<path d="M10.0844 6.5275L10.176 6.80219L10.4656 6.80439C10.5031 6.80472 10.5186 6.85249 10.4885 6.8748L10.2555 7.04683L10.3429 7.32288C10.3543 7.35859 10.3135 7.38822 10.283 7.36638L10.0475 7.198L9.81191 7.36638C9.78139 7.38817 9.74075 7.35859 9.752 7.32288L9.83938 7.04683L9.60645 6.8748C9.57631 6.85249 9.59183 6.80472 9.62933 6.80439L9.91888 6.80219L10.0105 6.5275C10.0223 6.49197 10.0725 6.49197 10.0844 6.5275Z" fill="#F5F5F5"/>
<path d="M10.0844 7.9644L10.176 8.23908L10.4656 8.24129C10.5031 8.24162 10.5186 8.28938 10.4885 8.31169L10.2555 8.48373L10.3429 8.75977C10.3543 8.79549 10.3135 8.82512 10.283 8.80327L10.0475 8.6349L9.81191 8.80327C9.78139 8.82507 9.74075 8.79554 9.752 8.75977L9.83938 8.48373L9.60645 8.31169C9.57631 8.28938 9.59183 8.24162 9.62933 8.24129L9.91888 8.23908L10.0105 7.9644C10.0223 7.92882 10.0725 7.92882 10.0844 7.9644Z" fill="#F5F5F5"/>
<path d="M10.0844 9.40104L10.176 9.67573L10.4656 9.67793C10.5031 9.67826 10.5186 9.72608 10.4885 9.74834L10.2555 9.92037L10.3429 10.1964C10.3543 10.2321 10.3135 10.2618 10.283 10.2399L10.0475 10.0715L9.81191 10.2399C9.78139 10.2617 9.74075 10.2321 9.752 10.1964L9.83938 9.92037L9.60645 9.74834C9.57631 9.72612 9.59183 9.67826 9.62933 9.67793L9.91888 9.67573L10.0105 9.40104C10.0223 9.36546 10.0725 9.36546 10.0844 9.40104Z" fill="#F5F5F5"/>
<path d="M10.0844 10.8374L10.176 11.1121L10.4656 11.1143C10.5031 11.1147 10.5186 11.1624 10.4885 11.1847L10.2555 11.3568L10.3429 11.6328C10.3543 11.6685 10.3135 11.6982 10.283 11.6763L10.0475 11.5079L9.81191 11.6763C9.78139 11.6981 9.74075 11.6685 9.752 11.6328L9.83938 11.3568L9.60645 11.1847C9.57631 11.1624 9.59183 11.1147 9.62933 11.1143L9.91888 11.1121L10.0105 10.8374C10.0223 10.8019 10.0725 10.8019 10.0844 10.8374Z" fill="#F5F5F5"/>
</svg>
