<svg xmlns="http://www.w3.org/2000/svg" width="24" height="24" viewBox="0 0 24 24" fill="none"><rect width="24" height="24" fill="none"/>
<path fill-rule="evenodd" clip-rule="evenodd" d="M13.9003 3.18582L11.9991 0.130005L10.098 3.18582L7.11831 1.16746L6.62444 4.73235L3.08141 4.10044L4.08021 7.558L0.586468 8.4218L2.90524 11.1742L0.0648832 13.3843L3.30268 14.9557L1.60684 18.13L5.20383 18.2485L4.94572 21.8382L8.27995 20.4835L9.50421 23.8678L11.9991 21.274L14.4941 23.8678L15.7183 20.4835L19.0526 21.8382L18.7945 18.2485L22.3914 18.13L20.6956 14.9557L23.9334 13.3843L21.0931 11.1742L23.4118 8.4218L19.9181 7.558L20.9169 4.10044L17.3739 4.73235L16.88 1.16746L13.9003 3.18582ZM15.9927 8.15215L16.0692 8.1362C16.153 8.11896 16.3092 8.1388 16.4286 8.18184C16.6891 8.2757 16.8978 8.50725 16.9751 8.7882C17.0055 8.89851 17.0074 9.11102 16.979 9.22374C16.9379 9.38713 16.9106 9.43025 16.7058 9.65609C16.1935 10.221 11.9748 14.6405 11.0057 15.6275C10.6552 15.9846 10.6369 16.0014 10.5573 16.0404C10.3267 16.1534 10.1137 16.1592 9.8648 16.0596C9.79501 16.0317 9.77173 16.0142 9.65549 15.9025C9.29255 15.5537 7.67405 13.8657 7.24876 13.3924C7.14247 13.2741 7.11222 13.233 7.07994 13.1629C7.03073 13.056 7.00873 12.9662 7.00093 12.8405C6.97962 12.497 7.15025 12.1841 7.45535 12.0072C7.59509 11.9261 7.64059 11.9167 7.87305 11.921L8.07492 11.9248L8.14128 11.9591C8.30346 12.043 8.37958 12.1176 9.62938 13.4189L10.1935 14.0062L11.5795 12.5597C13.8422 10.1982 15.1267 8.8643 15.5792 8.40645L15.7425 8.24114L15.8395 8.20252C15.8929 8.18129 15.9618 8.15862 15.9927 8.15215Z" fill="black"/>
</svg>
