<svg xmlns="http://www.w3.org/2000/svg" width="17" height="17" viewBox="0 0 17 17" fill="none"><rect width="17" height="17" fill="none"/>
<path d="M6.34473 8.00336C6.34473 8.36985 6.04473 8.6697 5.67806 8.6697C5.31139 8.6697 5.01139 8.36985 5.01139 8.00336C5.01139 7.63688 5.31139 7.33703 5.67806 7.33703C6.04473 7.33703 6.34473 7.63688 6.34473 8.00336ZM9.17806 6.6707C9.54473 6.6707 9.84473 6.37085 9.84473 6.00436C9.84473 5.63788 9.54473 5.33803 9.17806 5.33803C8.81139 5.33803 8.51139 5.63788 8.51139 6.00436C8.51139 6.37085 8.81139 6.6707 9.17806 6.6707ZM6.84473 6.6707C7.21139 6.6707 7.51139 6.37085 7.51139 6.00436C7.51139 5.63788 7.21139 5.33803 6.84473 5.33803C6.47806 5.33803 6.17806 5.63788 6.17806 6.00436C6.17806 6.37085 6.47806 6.6707 6.84473 6.6707ZM6.84473 9.33603C6.47806 9.33603 6.17806 9.63588 6.17806 10.0024C6.17806 10.3688 6.47806 10.6687 6.84473 10.6687C7.21139 10.6687 7.51139 10.3688 7.51139 10.0024C7.51139 9.63588 7.21139 9.33603 6.84473 9.33603ZM14.6781 7.50361V8.50311C14.6781 8.77631 14.4514 9.00286 14.1781 9.00286C13.9047 9.00286 13.6781 8.77631 13.6781 8.50311H12.6514C12.5514 9.41599 12.1914 10.2556 11.6381 10.9352L12.3647 11.6615L12.3714 11.6549C12.5647 11.4616 12.8847 11.4616 13.0781 11.6549C13.2714 11.8481 13.2714 12.1679 13.0781 12.3612L12.3714 13.0675C12.1781 13.2607 11.8581 13.2607 11.6647 13.0675C11.4714 12.8743 11.4714 12.5611 11.6581 12.3678L10.9314 11.6415C10.2514 12.1879 9.41806 12.5478 8.50473 12.6477V13.6739H8.51139C8.78473 13.6739 9.01139 13.9004 9.01139 14.1736C9.01139 14.4468 8.78473 14.6734 8.51139 14.6734H7.51139C7.23806 14.6734 7.01139 14.4468 7.01139 14.1736C7.01139 13.9004 7.23139 13.6805 7.50473 13.6739V12.641C6.59139 12.5411 5.75806 12.1813 5.08473 11.6349L4.35806 12.3612L4.36473 12.3678C4.55806 12.5611 4.55806 12.8809 4.36473 13.0742C4.17139 13.2674 3.85139 13.2674 3.65806 13.0742L2.94473 12.3612C2.75139 12.1679 2.75139 11.8481 2.94473 11.6549C3.13806 11.4616 3.45139 11.4616 3.64473 11.6482L4.37139 10.9219C3.82473 10.2422 3.46473 9.41599 3.37139 8.50311H2.34473C2.34473 8.77631 2.11806 9.00286 1.84473 9.00286C1.57139 9.00286 1.34473 8.77631 1.34473 8.50311V7.50361C1.34473 7.23042 1.57139 7.00386 1.84473 7.00386C2.11806 7.00386 2.34473 7.23042 2.34473 7.50361H3.37139C3.47139 6.59074 3.83139 5.76448 4.37139 5.08482L3.64473 4.35852C3.45139 4.54509 3.13806 4.54509 2.94473 4.35185C2.75139 4.15862 2.75139 3.83878 2.94473 3.64554L3.65139 2.93923C3.84473 2.74599 4.16473 2.74599 4.35806 2.93923C4.55139 3.13246 4.55139 3.4523 4.35806 3.64554L4.35139 3.6522L5.07806 4.37851C5.75806 3.83211 6.58473 3.47229 7.49806 3.37234V2.33953C7.22473 2.33286 7.00473 2.11297 7.00473 1.83978C7.01139 1.56658 7.23806 1.34003 7.51139 1.34003H8.51139C8.78473 1.34003 9.01139 1.56658 9.01139 1.83978C9.01139 2.11297 8.78473 2.33953 8.51139 2.33953H8.50473V3.36568C9.41806 3.45897 10.2514 3.82545 10.9314 4.37184L11.6581 3.64554C11.4647 3.4523 11.4714 3.13913 11.6647 2.94589C11.8581 2.75265 12.1781 2.75265 12.3714 2.94589L13.0781 3.6522C13.2714 3.84544 13.2714 4.16528 13.0781 4.35852C12.8847 4.55175 12.5647 4.55175 12.3714 4.35852L12.3647 4.35185L11.6381 5.07149C12.1847 5.75115 12.5514 6.58407 12.6514 7.50361H13.6781C13.6781 7.23042 13.9047 7.00386 14.1781 7.00386C14.4514 7.00386 14.6781 7.23042 14.6781 7.50361ZM11.3447 8.00336C11.3447 6.16428 9.85139 4.67169 8.01139 4.67169C6.17139 4.67169 4.67806 6.16428 4.67806 8.00336C4.67806 9.84244 6.17139 11.335 8.01139 11.335C9.85139 11.335 11.3447 9.84244 11.3447 8.00336ZM8.01139 7.33703C7.64473 7.33703 7.34473 7.63688 7.34473 8.00336C7.34473 8.36985 7.64473 8.6697 8.01139 8.6697C8.37806 8.6697 8.67806 8.36985 8.67806 8.00336C8.67806 7.63688 8.37806 7.33703 8.01139 7.33703ZM10.3447 7.33703C9.97806 7.33703 9.67806 7.63688 9.67806 8.00336C9.67806 8.36985 9.97806 8.6697 10.3447 8.6697C10.7114 8.6697 11.0114 8.36985 11.0114 8.00336C11.0114 7.63688 10.7114 7.33703 10.3447 7.33703ZM9.17806 9.33603C8.81139 9.33603 8.51139 9.63588 8.51139 10.0024C8.51139 10.3688 8.81139 10.6687 9.17806 10.6687C9.54473 10.6687 9.84473 10.3688 9.84473 10.0024C9.84473 9.63588 9.54473 9.33603 9.17806 9.33603Z" fill="black"/>
</svg>
