<svg xmlns="http://www.w3.org/2000/svg" width="24" height="24" viewBox="0 0 24 24" fill="none"><rect width="24" height="24" fill="none"/>
<path d="M9.50098 11.995C9.50098 12.5447 9.05098 12.9945 8.50098 12.9945C7.95098 12.9945 7.50098 12.5447 7.50098 11.995C7.50098 11.4453 7.95098 10.9955 8.50098 10.9955C9.05098 10.9955 9.50098 11.4453 9.50098 11.995ZM13.751 9.996C14.301 9.996 14.751 9.54623 14.751 8.9965C14.751 8.44678 14.301 7.997 13.751 7.997C13.201 7.997 12.751 8.44678 12.751 8.9965C12.751 9.54623 13.201 9.996 13.751 9.996ZM10.251 9.996C10.801 9.996 11.251 9.54623 11.251 8.9965C11.251 8.44678 10.801 7.997 10.251 7.997C9.70098 7.997 9.25098 8.44678 9.25098 8.9965C9.25098 9.54623 9.70098 9.996 10.251 9.996ZM10.251 13.994C9.70098 13.994 9.25098 14.4438 9.25098 14.9935C9.25098 15.5432 9.70098 15.993 10.251 15.993C10.801 15.993 11.251 15.5432 11.251 14.9935C11.251 14.4438 10.801 13.994 10.251 13.994ZM22.001 11.2454V12.7446C22.001 13.1544 21.661 13.4943 21.251 13.4943C20.841 13.4943 20.501 13.1544 20.501 12.7446H18.961C18.811 14.1139 18.271 15.3733 17.441 16.3928L18.531 17.4823L18.541 17.4723C18.831 17.1824 19.311 17.1824 19.601 17.4723C19.891 17.7621 19.891 18.2419 19.601 18.5317L18.541 19.5912C18.251 19.8811 17.771 19.8811 17.481 19.5912C17.191 19.3013 17.191 18.8316 17.471 18.5417L16.381 17.4523C15.361 18.2719 14.111 18.8116 12.741 18.9615V20.5008H12.751C13.161 20.5008 13.501 20.8406 13.501 21.2504C13.501 21.6602 13.161 22 12.751 22H11.251C10.841 22 10.501 21.6602 10.501 21.2504C10.501 20.8406 10.831 20.5107 11.241 20.5008V18.9515C9.87098 18.8016 8.62098 18.2619 7.61098 17.4423L6.52098 18.5317L6.53098 18.5417C6.82098 18.8316 6.82098 19.3113 6.53098 19.6012C6.24098 19.8911 5.76098 19.8911 5.47098 19.6012L4.40098 18.5317C4.11098 18.2419 4.11098 17.7621 4.40098 17.4723C4.69098 17.1824 5.16098 17.1824 5.45098 17.4623L6.54098 16.3728C5.72098 15.3533 5.18098 14.1139 5.04098 12.7446H3.50098C3.50098 13.1544 3.16098 13.4943 2.75098 13.4943C2.34098 13.4943 2.00098 13.1544 2.00098 12.7446V11.2454C2.00098 10.8356 2.34098 10.4958 2.75098 10.4958C3.16098 10.4958 3.50098 10.8356 3.50098 11.2454H5.04098C5.19098 9.87606 5.73098 8.63668 6.54098 7.61719L5.45098 6.52774C5.16098 6.8076 4.69098 6.8076 4.40098 6.51774C4.11098 6.22789 4.11098 5.74813 4.40098 5.45827L5.46098 4.3988C5.75098 4.10895 6.23098 4.10895 6.52098 4.3988C6.81098 4.68866 6.81098 5.16842 6.52098 5.45827L6.51098 5.46827L7.60098 6.55772C8.62098 5.73813 9.86098 5.1984 11.231 5.04848V3.49925C10.821 3.48926 10.491 3.15942 10.491 2.74963C10.501 2.33983 10.841 2 11.251 2H12.751C13.161 2 13.501 2.33983 13.501 2.74963C13.501 3.15942 13.161 3.49925 12.751 3.49925H12.741V5.03848C14.111 5.17841 15.361 5.72814 16.381 6.54773L17.471 5.45827C17.181 5.16842 17.191 4.69865 17.481 4.4088C17.771 4.11894 18.251 4.11894 18.541 4.4088L19.601 5.46827C19.891 5.75812 19.891 6.23788 19.601 6.52774C19.311 6.81759 18.831 6.81759 18.541 6.52774L18.531 6.51774L17.441 7.5972C18.261 8.61669 18.811 9.86607 18.961 11.2454H20.501C20.501 10.8356 20.841 10.4958 21.251 10.4958C21.661 10.4958 22.001 10.8356 22.001 11.2454ZM17.001 11.995C17.001 9.23638 14.761 6.9975 12.001 6.9975C9.24098 6.9975 7.00098 9.23638 7.00098 11.995C7.00098 14.7536 9.24098 16.9925 12.001 16.9925C14.761 16.9925 17.001 14.7536 17.001 11.995ZM12.001 10.9955C11.451 10.9955 11.001 11.4453 11.001 11.995C11.001 12.5447 11.451 12.9945 12.001 12.9945C12.551 12.9945 13.001 12.5447 13.001 11.995C13.001 11.4453 12.551 10.9955 12.001 10.9955ZM15.501 10.9955C14.951 10.9955 14.501 11.4453 14.501 11.995C14.501 12.5447 14.951 12.9945 15.501 12.9945C16.051 12.9945 16.501 12.5447 16.501 11.995C16.501 11.4453 16.051 10.9955 15.501 10.9955ZM13.751 13.994C13.201 13.994 12.751 14.4438 12.751 14.9935C12.751 15.5432 13.201 15.993 13.751 15.993C14.301 15.993 14.751 15.5432 14.751 14.9935C14.751 14.4438 14.301 13.994 13.751 13.994Z" fill="black"/>
</svg>
