<svg xmlns="http://www.w3.org/2000/svg" width="16" height="16" viewBox="0 0 16 16" fill="none"><rect width="16" height="16" fill="none"/>
<path d="M6.3335 7.99665C6.3335 8.36313 6.0335 8.66298 5.66683 8.66298C5.30016 8.66298 5.00016 8.36313 5.00016 7.99665C5.00016 7.63016 5.30016 7.33031 5.66683 7.33031C6.0335 7.33031 6.3335 7.63016 6.3335 7.99665ZM9.16683 6.66398C9.5335 6.66398 9.8335 6.36413 9.8335 5.99765C9.8335 5.63116 9.5335 5.33131 9.16683 5.33131C8.80016 5.33131 8.50016 5.63116 8.50016 5.99765C8.50016 6.36413 8.80016 6.66398 9.16683 6.66398ZM6.8335 6.66398C7.20016 6.66398 7.50016 6.36413 7.50016 5.99765C7.50016 5.63116 7.20016 5.33131 6.8335 5.33131C6.46683 5.33131 6.16683 5.63116 6.16683 5.99765C6.16683 6.36413 6.46683 6.66398 6.8335 6.66398ZM6.8335 9.32932C6.46683 9.32932 6.16683 9.62917 6.16683 9.99565C6.16683 10.3621 6.46683 10.662 6.8335 10.662C7.20016 10.662 7.50016 10.3621 7.50016 9.99565C7.50016 9.62917 7.20016 9.32932 6.8335 9.32932ZM14.6668 7.4969V8.4964C14.6668 8.7696 14.4402 8.99615 14.1668 8.99615C13.8935 8.99615 13.6668 8.7696 13.6668 8.4964H12.6402C12.5402 9.40928 12.1802 10.2489 11.6268 10.9285L12.3535 11.6548L12.3602 11.6482C12.5535 11.4549 12.8735 11.4549 13.0668 11.6482C13.2602 11.8414 13.2602 12.1612 13.0668 12.3545L12.3602 13.0608C12.1668 13.254 11.8468 13.254 11.6535 13.0608C11.4602 12.8675 11.4602 12.5544 11.6468 12.3611L10.9202 11.6348C10.2402 12.1812 9.40683 12.541 8.4935 12.641V13.6671H8.50016C8.7735 13.6671 9.00016 13.8937 9.00016 14.1669C9.00016 14.4401 8.7735 14.6666 8.50016 14.6666H7.50016C7.22683 14.6666 7.00016 14.4401 7.00016 14.1669C7.00016 13.8937 7.22016 13.6738 7.4935 13.6671V12.6343C6.58016 12.5344 5.74683 12.1746 5.0735 11.6282L4.34683 12.3545L4.3535 12.3611C4.54683 12.5544 4.54683 12.8742 4.3535 13.0674C4.16016 13.2607 3.84016 13.2607 3.64683 13.0674L2.9335 12.3545C2.74016 12.1612 2.74016 11.8414 2.9335 11.6482C3.12683 11.4549 3.44016 11.4549 3.6335 11.6415L4.36016 10.9152C3.8135 10.2355 3.4535 9.40928 3.36016 8.4964H2.3335C2.3335 8.7696 2.10683 8.99615 1.8335 8.99615C1.56016 8.99615 1.3335 8.7696 1.3335 8.4964V7.4969C1.3335 7.2237 1.56016 6.99715 1.8335 6.99715C2.10683 6.99715 2.3335 7.2237 2.3335 7.4969H3.36016C3.46016 6.58402 3.82016 5.75777 4.36016 5.07811L3.6335 4.3518C3.44016 4.53838 3.12683 4.53838 2.9335 4.34514C2.74016 4.1519 2.74016 3.83206 2.9335 3.63883L3.64016 2.93251C3.8335 2.73928 4.1535 2.73928 4.34683 2.93251C4.54016 3.12575 4.54016 3.44559 4.34683 3.63883L4.34016 3.64549L5.06683 4.37179C5.74683 3.8254 6.5735 3.46558 7.48683 3.36563V2.33281C7.2135 2.32615 6.9935 2.10626 6.9935 1.83306C7.00016 1.55987 7.22683 1.33331 7.50016 1.33331H8.50016C8.7735 1.33331 9.00016 1.55987 9.00016 1.83306C9.00016 2.10626 8.7735 2.33281 8.50016 2.33281H8.4935V3.35897C9.40683 3.45225 10.2402 3.81874 10.9202 4.36513L11.6468 3.63883C11.4535 3.44559 11.4602 3.13241 11.6535 2.93918C11.8468 2.74594 12.1668 2.74594 12.3602 2.93918L13.0668 3.64549C13.2602 3.83873 13.2602 4.15857 13.0668 4.3518C12.8735 4.54504 12.5535 4.54504 12.3602 4.3518L12.3535 4.34514L11.6268 5.06478C12.1735 5.74444 12.5402 6.57736 12.6402 7.4969H13.6668C13.6668 7.2237 13.8935 6.99715 14.1668 6.99715C14.4402 6.99715 14.6668 7.2237 14.6668 7.4969ZM11.3335 7.99665C11.3335 6.15757 9.84016 4.66498 8.00016 4.66498C6.16016 4.66498 4.66683 6.15757 4.66683 7.99665C4.66683 9.83573 6.16016 11.3283 8.00016 11.3283C9.84016 11.3283 11.3335 9.83573 11.3335 7.99665ZM8.00016 7.33031C7.6335 7.33031 7.3335 7.63016 7.3335 7.99665C7.3335 8.36313 7.6335 8.66298 8.00016 8.66298C8.36683 8.66298 8.66683 8.36313 8.66683 7.99665C8.66683 7.63016 8.36683 7.33031 8.00016 7.33031ZM10.3335 7.33031C9.96683 7.33031 9.66683 7.63016 9.66683 7.99665C9.66683 8.36313 9.96683 8.66298 10.3335 8.66298C10.7002 8.66298 11.0002 8.36313 11.0002 7.99665C11.0002 7.63016 10.7002 7.33031 10.3335 7.33031ZM9.16683 9.32932C8.80016 9.32932 8.50016 9.62917 8.50016 9.99565C8.50016 10.3621 8.80016 10.662 9.16683 10.662C9.5335 10.662 9.8335 10.3621 9.8335 9.99565C9.8335 9.62917 9.5335 9.32932 9.16683 9.32932Z" fill="black"/>
</svg>
