<svg xmlns="http://www.w3.org/2000/svg" width="24" height="25" viewBox="0 0 24 25" fill="none"><rect width="24" height="25" fill="none"/>
<path d="M9.5 12C9.5 12.5497 9.05 12.9995 8.5 12.9995C7.95 12.9995 7.5 12.5497 7.5 12C7.5 11.4503 7.95 11.0005 8.5 11.0005C9.05 11.0005 9.5 11.4503 9.5 12ZM13.75 10.001C14.3 10.001 14.75 9.55123 14.75 9.00151C14.75 8.45178 14.3 8.00201 13.75 8.00201C13.2 8.00201 12.75 8.45178 12.75 9.00151C12.75 9.55123 13.2 10.001 13.75 10.001ZM10.25 10.001C10.8 10.001 11.25 9.55123 11.25 9.00151C11.25 8.45178 10.8 8.00201 10.25 8.00201C9.7 8.00201 9.25 8.45178 9.25 9.00151C9.25 9.55123 9.7 10.001 10.25 10.001ZM10.25 13.999C9.7 13.999 9.25 14.4488 9.25 14.9985C9.25 15.5482 9.7 15.998 10.25 15.998C10.8 15.998 11.25 15.5482 11.25 14.9985C11.25 14.4488 10.8 13.999 10.25 13.999ZM22 11.2504V12.7496C22 13.1594 21.66 13.4993 21.25 13.4993C20.84 13.4993 20.5 13.1594 20.5 12.7496H18.96C18.81 14.1189 18.27 15.3783 17.44 16.3978L18.53 17.4873L18.54 17.4773C18.83 17.1874 19.31 17.1874 19.6 17.4773C19.89 17.7671 19.89 18.2469 19.6 18.5367L18.54 19.5962C18.25 19.8861 17.77 19.8861 17.48 19.5962C17.19 19.3064 17.19 18.8366 17.47 18.5467L16.38 17.4573C15.36 18.2769 14.11 18.8166 12.74 18.9665V20.5058H12.75C13.16 20.5058 13.5 20.8456 13.5 21.2554C13.5 21.6652 13.16 22.005 12.75 22.005H11.25C10.84 22.005 10.5 21.6652 10.5 21.2554C10.5 20.8456 10.83 20.5157 11.24 20.5058V18.9565C9.87 18.8066 8.62 18.2669 7.61 17.4473L6.52 18.5367L6.53 18.5467C6.82 18.8366 6.82 19.3164 6.53 19.6062C6.24 19.8961 5.76 19.8961 5.47 19.6062L4.4 18.5367C4.11 18.2469 4.11 17.7671 4.4 17.4773C4.69 17.1874 5.16 17.1874 5.45 17.4673L6.54 16.3778C5.72 15.3583 5.18 14.1189 5.04 12.7496H3.5C3.5 13.1594 3.16 13.4993 2.75 13.4993C2.34 13.4993 2 13.1594 2 12.7496V11.2504C2 10.8406 2.34 10.5008 2.75 10.5008C3.16 10.5008 3.5 10.8406 3.5 11.2504H5.04C5.19 9.88107 5.73 8.64169 6.54 7.6222L5.45 6.53274C5.16 6.8126 4.69 6.8126 4.4 6.52275C4.11 6.23289 4.11 5.75313 4.4 5.46328L5.46 4.40381C5.75 4.11395 6.23 4.11395 6.52 4.40381C6.81 4.69366 6.81 5.17342 6.52 5.46328L6.51 5.47327L7.6 6.56273C8.62 5.74314 9.86 5.20341 11.23 5.05348V3.50426C10.82 3.49426 10.49 3.16443 10.49 2.75463C10.5 2.34483 10.84 2.005 11.25 2.005H12.75C13.16 2.005 13.5 2.34483 13.5 2.75463C13.5 3.16443 13.16 3.50426 12.75 3.50426H12.74V5.04349C14.11 5.18342 15.36 5.73314 16.38 6.55273L17.47 5.46328C17.18 5.17342 17.19 4.70366 17.48 4.4138C17.77 4.12395 18.25 4.12395 18.54 4.4138L19.6 5.47327C19.89 5.76313 19.89 6.24289 19.6 6.53274C19.31 6.8226 18.83 6.8226 18.54 6.53274L18.53 6.52275L17.44 7.60221C18.26 8.6217 18.81 9.87107 18.96 11.2504H20.5C20.5 10.8406 20.84 10.5008 21.25 10.5008C21.66 10.5008 22 10.8406 22 11.2504ZM17 12C17 9.24139 14.76 7.00251 12 7.00251C9.24 7.00251 7 9.24139 7 12C7 14.7586 9.24 16.9975 12 16.9975C14.76 16.9975 17 14.7586 17 12ZM12 11.0005C11.45 11.0005 11 11.4503 11 12C11 12.5497 11.45 12.9995 12 12.9995C12.55 12.9995 13 12.5497 13 12C13 11.4503 12.55 11.0005 12 11.0005ZM15.5 11.0005C14.95 11.0005 14.5 11.4503 14.5 12C14.5 12.5497 14.95 12.9995 15.5 12.9995C16.05 12.9995 16.5 12.5497 16.5 12C16.5 11.4503 16.05 11.0005 15.5 11.0005ZM13.75 13.999C13.2 13.999 12.75 14.4488 12.75 14.9985C12.75 15.5482 13.2 15.998 13.75 15.998C14.3 15.998 14.75 15.5482 14.75 14.9985C14.75 14.4488 14.3 13.999 13.75 13.999Z" fill="black"/>
</svg>
