<svg xmlns="http://www.w3.org/2000/svg" width="24" height="24" viewBox="0 0 24 24" fill="none"><rect width="24" height="24" fill="none"/>
<path d="M17.333 12.0391C16.1484 12.0391 15.1846 13.0905 15.1846 14.3829C15.1846 15.6752 16.1484 16.7266 17.333 16.7266H20.3766C20.3888 16.7266 20.4006 16.7253 20.4126 16.7246C20.4245 16.7252 20.4362 16.7266 20.4482 16.7266C20.8438 16.7266 21.1644 16.3768 21.1644 15.9453V9.81252C21.1644 8.77244 20.6958 7.84998 19.9772 7.28166L17.5409 2.92151C17.4415 2.7437 17.2812 2.61651 17.0955 2.56823C16.9098 2.51987 16.7142 2.55444 16.5519 2.66421L14.7552 3.87967L13.945 2.38382C13.8476 2.20397 13.6882 2.07421 13.5025 2.02343C13.3168 1.97265 13.1201 2.00518 12.9565 2.11362L6.05761 6.68752H4.97949C4.59059 6.68752 4.27309 6.3476 4.26356 5.9258C4.27309 5.50401 4.59059 5.16409 4.97949 5.16409H6.30436C6.69989 5.16409 7.02051 4.81432 7.02051 4.38284C7.02051 3.95135 6.69989 3.60159 6.30436 3.60159H4.97949C3.96622 3.60159 3.11461 4.37088 2.88942 5.40217C2.85197 5.49694 2.83105 5.60123 2.83105 5.71096V18.875C2.83105 20.5981 4.11611 22 5.69564 22H18.2998C19.5348 22 20.627 21.1418 21.0176 19.8644C21.1428 19.4551 20.9401 19.0126 20.5649 18.8761C20.1898 18.7396 19.7841 18.9607 19.6589 19.37C19.4637 20.0085 18.9175 20.4375 18.2998 20.4375H5.69564C4.90587 20.4375 4.26335 19.7366 4.26335 18.875V8.116C4.48746 8.20272 4.72848 8.25002 4.97949 8.25002H18.2998C19.0896 8.25002 19.7321 8.95096 19.7321 9.81252V12.0391H17.333ZM19.7321 15.1641H17.333C16.9381 15.1641 16.6169 14.8136 16.6169 14.3828C16.6169 13.952 16.9381 13.6016 17.333 13.6016H19.7321V15.1641ZM8.81546 6.68756L13.0808 3.85971L13.8434 5.26756C13.858 5.30604 13.8748 5.34397 13.8956 5.38053C13.9112 5.40791 13.9285 5.43342 13.9465 5.45795L14.6125 6.68756H8.81546ZM16.2762 6.68752L15.4841 5.22518L16.6935 4.40702L17.9678 6.68752H16.2762Z" fill="black"/>
</svg>
