<svg xmlns="http://www.w3.org/2000/svg" width="24" height="24" viewBox="0 0 24 24" fill="none"><rect width="24" height="24" fill="none"/>
<path d="M18.979 3.75216H5.75621L13.0623 0.369673C15.067 -0.558444 17.4294 0.321274 18.3387 2.33458L18.979 3.75216Z" fill="black"/>
<path d="M4 5.77624C1.79086 5.77624 0 7.5671 0 9.77624V20C0 22.2091 1.79086 24 4 24H18C20.2091 24 22 22.2091 22 20V19.8502C21.6769 19.9158 21.3425 19.9503 21 19.9503C18.2386 19.9503 16 17.7117 16 14.9503V14.826C16 12.0645 18.2386 9.82595 21 9.82595C21.3425 9.82595 21.6769 9.86038 22 9.92597V9.77624C22 7.5671 20.2091 5.77624 18 5.77624H4Z" fill="black"/>
<path d="M21 11.8508C19.3431 11.8508 18 13.194 18 14.8508V14.9254C18 16.5822 19.3431 17.9254 21 17.9254C22.6569 17.9254 24 16.5822 24 14.9254V14.8508C24 13.194 22.6569 11.8508 21 11.8508Z" fill="black"/>
</svg>
