<svg xmlns="http://www.w3.org/2000/svg" width="25" height="25" viewBox="0 0 25 25" fill="none"><rect width="25" height="25" fill="none"/>
<path fill-rule="evenodd" clip-rule="evenodd" d="M7.46914 6.34384C6.7795 6.62964 6.37605 7.3226 6.42984 8.03381L6.42984 11.672C9.24802 11.8819 11.4757 14.2065 11.5241 17.0605H20.8128C21.7473 17.0605 22.5049 16.303 22.5049 15.3684V8.03595C22.5049 7.10142 21.7473 6.34384 20.8128 6.34384H7.46914ZM14.4674 14.3813C15.947 14.3813 17.1465 13.1818 17.1465 11.7021C17.1465 10.2225 15.947 9.02296 14.4674 9.02296C12.9877 9.02296 11.7882 10.2225 11.7882 11.7021C11.7882 13.1818 12.9877 14.3813 14.4674 14.3813Z" fill="black"/>
<path d="M10.9115 5.00425H20.2404L19.6277 3.42909C19.2889 2.55814 18.3081 2.12677 17.4372 2.46559L10.9115 5.00425Z" fill="black"/>
<path fill-rule="evenodd" clip-rule="evenodd" d="M10.5231 17.1521C10.5231 19.6369 8.5043 21.6512 6.01399 21.6512C3.52368 21.6512 1.50488 19.6369 1.50488 17.1521C1.50488 14.6674 3.52368 12.653 6.01399 12.653C8.5043 12.653 10.5231 14.6674 10.5231 17.1521ZM7.86947 16.0506C8.09995 16.3146 8.07278 16.7155 7.80879 16.946L5.81685 18.685L4.21858 17.2896C3.95458 17.0592 3.92742 16.6583 4.1579 16.3943C4.38838 16.1303 4.78923 16.1032 5.05322 16.3336L5.81685 17.0003L6.97414 15.99C7.23814 15.7595 7.63899 15.7866 7.86947 16.0506Z" fill="black"/>
</svg>
