<svg xmlns="http://www.w3.org/2000/svg" width="16" height="16" viewBox="0 0 16 16" fill="none"><rect width="16" height="16" fill="none"/>
<path d="M11.5547 8.02607C10.7649 8.02607 10.1224 8.72701 10.1224 9.58857C10.1224 10.4501 10.7649 11.1511 11.5547 11.1511H13.5838C13.5919 11.1511 13.5998 11.1502 13.6078 11.1497C13.6157 11.1502 13.6235 11.151 13.6315 11.151C13.8952 11.151 14.1089 10.9179 14.1089 10.6302V6.54167C14.1089 5.84829 13.7965 5.23332 13.3175 4.85444L11.6933 1.94767C11.627 1.82913 11.5202 1.74434 11.3964 1.71215C11.2726 1.67991 11.1421 1.70296 11.034 1.77613L9.83618 2.58644L9.29601 1.58921C9.23106 1.46931 9.12483 1.3828 9.00101 1.34895C8.87721 1.31509 8.74608 1.33678 8.63701 1.40908L4.03776 4.45834H3.31901C3.05974 4.45834 2.84807 4.23173 2.84172 3.95053C2.84807 3.66933 3.05974 3.44272 3.31901 3.44272H4.20226C4.46594 3.44272 4.67969 3.20954 4.67969 2.92189C4.67969 2.63423 4.46594 2.40105 4.20226 2.40105H3.31901C2.64349 2.40105 2.07576 2.91392 1.92563 3.60144C1.90066 3.66462 1.88672 3.73415 1.88672 3.8073V12.5833C1.88672 13.7321 2.74342 14.6667 3.79644 14.6667H12.1992C13.0225 14.6667 13.7507 14.0945 14.0111 13.2429C14.0945 12.9701 13.9594 12.6751 13.7093 12.5841C13.4592 12.493 13.1887 12.6404 13.1053 12.9133C12.9751 13.339 12.611 13.625 12.1992 13.625H3.79644C3.26993 13.625 2.84158 13.1577 2.84158 12.5833V5.41066C2.99099 5.46847 3.15167 5.50001 3.31901 5.50001H12.1992C12.7257 5.50001 13.1541 5.9673 13.1541 6.54167V8.02607H11.5547ZM13.1541 10.1094H11.5547C11.2914 10.1094 11.0773 9.87576 11.0773 9.58855C11.0773 9.30136 11.2914 9.06771 11.5547 9.06771H13.1541V10.1094ZM5.87632 4.45837L8.71987 2.57314L9.22826 3.5117C9.23803 3.53735 9.24925 3.56264 9.26309 3.58702C9.27348 3.60527 9.28498 3.62228 9.29699 3.63863L9.741 4.45837H5.87632ZM10.8501 4.45834L10.3221 3.48345L11.1283 2.93801L11.9779 4.45834H10.8501Z" fill="black"/>
</svg>
