<svg xmlns="http://www.w3.org/2000/svg" width="25" height="24" viewBox="0 0 25 24" fill="none"><rect width="25" height="24" fill="none"/>
<path fill-rule="evenodd" clip-rule="evenodd" d="M7.04949 5.72053C6.23437 6.05833 5.7575 6.87739 5.82108 7.71801L5.82108 12.0182C9.15205 12.2663 11.7851 15.0138 11.8423 18.3872H22.8211C23.9257 18.3872 24.8211 17.4918 24.8211 16.3872V7.72053C24.8211 6.61596 23.9256 5.72053 22.8211 5.72053H7.04949ZM15.3211 15.2205C17.07 15.2205 18.4877 13.8027 18.4877 12.0538C18.4877 10.3049 17.07 8.88714 15.3211 8.88714C13.5722 8.88714 12.1544 10.3049 12.1544 12.0538C12.1544 13.8027 13.5722 15.2205 15.3211 15.2205Z" fill="black"/>
<path d="M11.1182 4.1372H22.1446L21.4203 2.27543C21.0199 1.24601 19.8607 0.736145 18.8313 1.13661L11.1182 4.1372Z" fill="black"/>
<path fill-rule="evenodd" clip-rule="evenodd" d="M10.6591 18.4955C10.6591 21.4324 8.27301 23.8132 5.32957 23.8132C2.38613 23.8132 0 21.4324 0 18.4955C0 15.5586 2.38613 13.1777 5.32957 13.1777C8.27301 13.1777 10.6591 15.5586 10.6591 18.4955ZM7.52266 17.1935C7.79508 17.5056 7.76297 17.9794 7.45094 18.2518L5.09656 20.3073L3.20747 18.658C2.89544 18.3856 2.86333 17.9118 3.13575 17.5998C3.40816 17.2877 3.88195 17.2556 4.19398 17.528L5.09656 18.316L6.46443 17.1218C6.77645 16.8494 7.25024 16.8815 7.52266 17.1935Z" fill="black"/>
</svg>
