<svg xmlns="http://www.w3.org/2000/svg" width="25" height="24" viewBox="0 0 25 24" fill="none"><rect width="25" height="24" fill="none"/>
<path d="M17.342 12.0391C16.1574 12.0391 15.1936 13.0905 15.1936 14.3829C15.1936 15.6752 16.1574 16.7266 17.342 16.7266H20.3857C20.3978 16.7266 20.4097 16.7253 20.4216 16.7246C20.4335 16.7252 20.4452 16.7266 20.4573 16.7266C20.8528 16.7266 21.1734 16.3768 21.1734 15.9453V9.81252C21.1734 8.77244 20.7048 7.84998 19.9862 7.28166L17.5499 2.92151C17.4506 2.7437 17.2903 2.61651 17.1046 2.56823C16.9189 2.51987 16.7232 2.55444 16.561 2.66421L14.7643 3.87967L13.954 2.38382C13.8566 2.20397 13.6973 2.07421 13.5115 2.02343C13.3258 1.97265 13.1291 2.00518 12.9655 2.11362L6.06665 6.68752H4.98853C4.59962 6.68752 4.28212 6.3476 4.27259 5.9258C4.28212 5.50401 4.59962 5.16409 4.98853 5.16409H6.3134C6.70892 5.16409 7.02954 4.81432 7.02954 4.38284C7.02954 3.95135 6.70892 3.60159 6.3134 3.60159H4.98853C3.97525 3.60159 3.12365 4.37088 2.89845 5.40217C2.861 5.49694 2.84009 5.60123 2.84009 5.71096V18.875C2.84009 20.5981 4.12514 22 5.70467 22H18.3088C19.5438 22 20.6361 21.1418 21.0266 19.8644C21.1518 19.4551 20.9491 19.0126 20.5739 18.8761C20.1988 18.7396 19.7931 18.9607 19.668 19.37C19.4727 20.0085 18.9265 20.4375 18.3088 20.4375H5.70467C4.91491 20.4375 4.27238 19.7366 4.27238 18.875V8.116C4.4965 8.20272 4.73752 8.25002 4.98853 8.25002H18.3088C19.0986 8.25002 19.7411 8.95096 19.7411 9.81252V12.0391H17.342ZM19.7411 15.1641H17.342C16.9472 15.1641 16.6259 14.8136 16.6259 14.3828C16.6259 13.952 16.9472 13.6016 17.342 13.6016H19.7411V15.1641ZM8.82449 6.68756L13.0898 3.85971L13.8524 5.26756C13.8671 5.30604 13.8839 5.34397 13.9046 5.38053C13.9202 5.40791 13.9375 5.43342 13.9555 5.45795L14.6215 6.68756H8.82449ZM16.2852 6.68752L15.4931 5.22518L16.7025 4.40702L17.9768 6.68752H16.2852Z" fill="black"/>
</svg>
