<svg xmlns="http://www.w3.org/2000/svg" width="16" height="16" viewBox="0 0 16 16" fill="none"><rect width="16" height="16" fill="none"/>
<path fill-rule="evenodd" clip-rule="evenodd" d="M4.81727 4.4762C4.37589 4.65912 4.11767 5.10263 4.1521 5.55782L4.1521 7.88639C5.95581 8.02071 7.38157 9.50849 7.41257 11.3352H13.3575C13.9557 11.3352 14.4405 10.8503 14.4405 10.2522V5.55919C14.4405 4.96107 13.9557 4.4762 13.3575 4.4762H4.81727ZM9.29631 9.62038C10.2433 9.62038 11.0111 8.85267 11.0111 7.90564C11.0111 6.95862 10.2433 6.1909 9.29631 6.1909C8.34929 6.1909 7.58158 6.95862 7.58158 7.90564C7.58158 8.85267 8.34929 9.62038 9.29631 9.62038Z" fill="black"/>
<path d="M7.02045 3.61883H12.9912L12.599 2.61068C12.3822 2.05326 11.7545 1.77717 11.1971 1.99402L7.02045 3.61883Z" fill="black"/>
<path fill-rule="evenodd" clip-rule="evenodd" d="M6.77189 11.3938C6.77189 12.9841 5.47981 14.2733 3.88594 14.2733C2.29208 14.2733 1 12.9841 1 11.3938C1 9.80346 2.29208 8.51425 3.88594 8.51425C5.47981 8.51425 6.77189 9.80346 6.77189 11.3938ZM5.0735 10.6888C5.22101 10.8578 5.20362 11.1143 5.03466 11.2618L3.75977 12.3749L2.73683 11.4818C2.56787 11.3343 2.55048 11.0777 2.698 10.9088C2.84551 10.7398 3.10206 10.7224 3.27103 10.8699L3.75977 11.2966L4.50047 10.65C4.66943 10.5024 4.92598 10.5198 5.0735 10.6888Z" fill="black"/>
</svg>
