<svg xmlns="http://www.w3.org/2000/svg" width="17" height="17" viewBox="0 0 17 17" fill="none"><rect width="17" height="17" fill="none"/>
<path fill-rule="evenodd" clip-rule="evenodd" d="M5.10194 4.38615C4.66056 4.56907 4.40234 5.01259 4.43676 5.46778L4.43676 7.79634C6.24047 7.93067 7.66624 9.41844 7.69724 11.2451H13.6422C14.2403 11.2451 14.7252 10.7602 14.7252 10.1621V5.46915C14.7252 4.87103 14.2403 4.38615 13.6422 4.38615H5.10194ZM9.58098 9.53034C10.528 9.53034 11.2957 8.76262 11.2957 7.8156C11.2957 6.86857 10.528 6.10086 9.58098 6.10086C8.63396 6.10086 7.86624 6.86857 7.86624 7.8156C7.86624 8.76262 8.63396 9.53034 9.58098 9.53034Z" fill="black"/>
<path d="M7.30512 3.52878H13.2759L12.8837 2.52064C12.6669 1.96321 12.0392 1.68712 11.4818 1.90398L7.30512 3.52878Z" fill="black"/>
<path fill-rule="evenodd" clip-rule="evenodd" d="M7.05656 11.3037C7.05656 12.8941 5.76447 14.1833 4.17061 14.1833C2.57675 14.1833 1.28467 12.8941 1.28467 11.3037C1.28467 9.71342 2.57675 8.4242 4.17061 8.4242C5.76447 8.4242 7.05656 9.71342 7.05656 11.3037ZM5.35816 10.5988C5.50568 10.7677 5.48829 11.0243 5.31933 11.1718L4.04444 12.2848L3.0215 11.3917C2.85254 11.2442 2.83515 10.9877 2.98266 10.8187C3.13018 10.6498 3.38673 10.6324 3.55569 10.7799L4.04444 11.2066L4.78513 10.5599C4.9541 10.4124 5.21065 10.4298 5.35816 10.5988Z" fill="black"/>
</svg>
