<svg xmlns="http://www.w3.org/2000/svg" width="24" height="24" viewBox="0 0 24 24" fill="none"><rect width="24" height="24" fill="none"/>
<path d="M17.525 5.47046H7.057L12.841 2.79266C14.4281 2.0579 16.2983 2.75434 17.0182 4.34821L17.525 5.47046Z" fill="black"/>
<path d="M5.66667 7.07286C3.91777 7.07286 2.5 8.49062 2.5 10.2395V18.3333C2.5 20.0822 3.91777 21.5 5.66667 21.5H16.75C18.4989 21.5 19.9167 20.0822 19.9167 18.3333V18.2148C19.6609 18.2667 19.3961 18.294 19.125 18.294C16.9389 18.294 15.1667 16.5218 15.1667 14.3356V14.2372C15.1667 12.0511 16.9389 10.2789 19.125 10.2789C19.3961 10.2789 19.6609 10.3061 19.9167 10.3581V10.2395C19.9167 8.49062 18.4989 7.07286 16.75 7.07286H5.66667Z" fill="black"/>
<path d="M19.125 11.8819C17.8133 11.8819 16.75 12.9452 16.75 14.2569V14.3159C16.75 15.6276 17.8133 16.6909 19.125 16.6909C20.4367 16.6909 21.5 15.6276 21.5 14.3159V14.2569C21.5 12.9452 20.4367 11.8819 19.125 11.8819Z" fill="black"/>
</svg>
