<svg xmlns="http://www.w3.org/2000/svg" width="25" height="24" viewBox="0 0 25 24" fill="none"><rect width="25" height="24" fill="none"/>
<path d="M17.5299 5.47046H7.06189L12.8459 2.79266C14.433 2.0579 16.3031 2.75434 17.023 4.34821L17.5299 5.47046Z" fill="black"/>
<path d="M5.67155 7.07286C3.92265 7.07286 2.50488 8.49062 2.50488 10.2395V18.3333C2.50488 20.0822 3.92265 21.5 5.67155 21.5H16.7549C18.5038 21.5 19.9216 20.0822 19.9216 18.3333V18.2148C19.6658 18.2667 19.401 18.294 19.1299 18.294C16.9438 18.294 15.1716 16.5218 15.1716 14.3356V14.2372C15.1716 12.0511 16.9438 10.2789 19.1299 10.2789C19.401 10.2789 19.6658 10.3061 19.9216 10.3581V10.2395C19.9216 8.49062 18.5038 7.07286 16.7549 7.07286H5.67155Z" fill="black"/>
<path d="M19.1299 11.8819C17.8182 11.8819 16.7549 12.9452 16.7549 14.2569V14.3159C16.7549 15.6276 17.8182 16.6909 19.1299 16.6909C20.4416 16.6909 21.5049 15.6276 21.5049 14.3159V14.2569C21.5049 12.9452 20.4416 11.8819 19.1299 11.8819Z" fill="black"/>
</svg>
