<svg xmlns="http://www.w3.org/2000/svg" width="17" height="17" viewBox="0 0 17 17" fill="none"><rect width="17" height="17" fill="none"/>
<path d="M11.6866 3.65007H4.70792L8.56393 1.86487C9.62198 1.37503 10.8688 1.83933 11.3487 2.9019L11.6866 3.65007Z" fill="black"/>
<path d="M3.78103 4.71834C2.6151 4.71834 1.66992 5.66351 1.66992 6.82945V12.2253C1.66992 13.3913 2.6151 14.3364 3.78103 14.3364H11.1699C12.3359 14.3364 13.281 13.3913 13.281 12.2253V12.1463C13.1105 12.1809 12.934 12.1991 12.7533 12.1991C11.2958 12.1991 10.1144 11.0176 10.1144 9.56018V9.49458C10.1144 8.03716 11.2958 6.85569 12.7533 6.85569C12.934 6.85569 13.1105 6.87386 13.281 6.90848V6.82945C13.281 5.66352 12.3359 4.71834 11.1699 4.71834H3.78103Z" fill="black"/>
<path d="M12.7533 7.92436C11.8788 7.92436 11.1699 8.63325 11.1699 9.5077V9.54706C11.1699 10.4215 11.8788 11.1304 12.7533 11.1304C13.6277 11.1304 14.3366 10.4215 14.3366 9.54706V9.5077C14.3366 8.63325 13.6277 7.92436 12.7533 7.92436Z" fill="black"/>
</svg>
