<svg xmlns="http://www.w3.org/2000/svg" width="16" height="16" viewBox="0 0 16 16" fill="none"><rect width="16" height="16" fill="none"/>
<path d="M11.6822 3.64698H4.70353L8.55954 1.86178C9.61759 1.37194 10.8644 1.83623 11.3443 2.89881L11.6822 3.64698Z" fill="black"/>
<path d="M3.77664 4.71524C2.6107 4.71524 1.66553 5.66042 1.66553 6.82636V12.2222C1.66553 13.3882 2.6107 14.3333 3.77664 14.3333H11.1655C12.3315 14.3333 13.2766 13.3882 13.2766 12.2222V12.1432C13.1061 12.1778 12.9296 12.196 12.7489 12.196C11.2914 12.196 10.11 11.0145 10.11 9.55709V9.49149C10.11 8.03407 11.2914 6.85259 12.7489 6.85259C12.9296 6.85259 13.1061 6.87077 13.2766 6.90538V6.82636C13.2766 5.66042 12.3315 4.71524 11.1655 4.71524H3.77664Z" fill="black"/>
<path d="M12.7489 7.92127C11.8744 7.92127 11.1655 8.63015 11.1655 9.5046V9.54397C11.1655 10.4184 11.8744 11.1273 12.7489 11.1273C13.6233 11.1273 14.3322 10.4184 14.3322 9.54397V9.5046C14.3322 8.63015 13.6233 7.92127 12.7489 7.92127Z" fill="black"/>
</svg>
