<svg xmlns="http://www.w3.org/2000/svg" width="17" height="17" viewBox="0 0 17 17" fill="none"><rect width="17" height="17" fill="none"/>
<path d="M11.563 9.02786C10.7732 9.02786 10.1307 9.7288 10.1307 10.5904C10.1307 11.4519 10.7732 12.1529 11.563 12.1529H13.5921C13.6002 12.1529 13.6081 12.152 13.6161 12.1515C13.624 12.1519 13.6318 12.1528 13.6398 12.1528C13.9035 12.1528 14.1172 11.9197 14.1172 11.632V7.54346C14.1172 6.85008 13.8048 6.23511 13.3258 5.85623L11.7016 2.94946C11.6353 2.83092 11.5285 2.74613 11.4047 2.71394C11.2809 2.6817 11.1504 2.70475 11.0423 2.77792L9.84448 3.58823L9.30431 2.591C9.23936 2.4711 9.13313 2.38459 9.00931 2.35074C8.88551 2.31688 8.75438 2.33857 8.64531 2.41087L4.04606 5.46013H3.32731C3.06804 5.46013 2.85637 5.23352 2.85002 4.95232C2.85637 4.67112 3.06804 4.44451 3.32731 4.44451H4.21056C4.47424 4.44451 4.68799 4.21133 4.68799 3.92368C4.68799 3.63602 4.47424 3.40284 4.21056 3.40284H3.32731C2.65179 3.40284 2.08406 3.91571 1.93393 4.60323C1.90896 4.66641 1.89502 4.73594 1.89502 4.80909V13.5851C1.89502 14.7339 2.75172 15.6685 3.80474 15.6685H12.2075C13.0308 15.6685 13.759 15.0963 14.0194 14.2447C14.1028 13.9719 13.9677 13.6769 13.7176 13.5858C13.4675 13.4948 13.197 13.6422 13.1136 13.9151C12.9834 14.3408 12.6193 14.6268 12.2075 14.6268H3.80474C3.27823 14.6268 2.84988 14.1595 2.84988 13.5851V6.41245C2.99929 6.47026 3.15997 6.5018 3.32731 6.5018H12.2075C12.734 6.5018 13.1624 6.96909 13.1624 7.54346V9.02786H11.563ZM13.1624 11.1112H11.563C11.2997 11.1112 11.0856 10.8775 11.0856 10.5903C11.0856 10.3031 11.2997 10.0695 11.563 10.0695H13.1624V11.1112ZM5.88462 5.46016L8.72817 3.57493L9.23656 4.51349C9.24633 4.53914 9.25755 4.56443 9.27139 4.58881C9.28178 4.60706 9.29328 4.62407 9.30529 4.64042L9.7493 5.46016H5.88462ZM10.8584 5.46013L10.3304 4.48524L11.1366 3.9398L11.9862 5.46013H10.8584Z" fill="black"/>
</svg>
