<svg xmlns="http://www.w3.org/2000/svg" width="24" height="24" viewBox="0 0 24 24" fill="none"><rect width="24" height="24" fill="none"/>
<path fill-rule="evenodd" clip-rule="evenodd" d="M6.96523 6.99383C6.2756 7.27963 5.87214 7.97259 5.92593 8.6838L5.92593 12.322C8.74412 12.5319 10.9718 14.8565 11.0202 17.7105H20.3089C21.2434 17.7105 22.001 16.9529 22.001 16.0184V8.68594C22.001 7.75142 21.2434 6.99383 20.3089 6.99383H6.96523ZM13.9635 15.0313C15.4431 15.0313 16.6426 13.8318 16.6426 12.3521C16.6426 10.8725 15.4431 9.67295 13.9635 9.67295C12.4838 9.67295 11.2843 10.8725 11.2843 12.3521C11.2843 13.8318 12.4838 15.0313 13.9635 15.0313Z" fill="black"/>
<path d="M10.4076 5.65424H19.7365L19.1238 4.07908C18.7849 3.20814 17.8042 2.77676 16.9333 3.11558L10.4076 5.65424Z" fill="black"/>
<path fill-rule="evenodd" clip-rule="evenodd" d="M10.0192 17.8021C10.0192 20.2869 8.0004 22.3012 5.51008 22.3012C3.01977 22.3012 1.00098 20.2869 1.00098 17.8021C1.00098 15.3173 3.01977 13.303 5.51008 13.303C8.0004 13.303 10.0192 15.3173 10.0192 17.8021ZM7.36556 16.7006C7.59604 16.9646 7.56887 17.3655 7.30488 17.596L5.31295 19.335L3.71467 17.9396C3.45068 17.7092 3.42351 17.3083 3.65399 17.0443C3.88447 16.7803 4.28532 16.7532 4.54931 16.9836L5.31295 17.6503L6.47024 16.64C6.73423 16.4095 7.13508 16.4366 7.36556 16.7006Z" fill="black"/>
</svg>
