<svg xmlns="http://www.w3.org/2000/svg" width="24" height="24" viewBox="0 0 24 24" fill="none"><rect width="24" height="24" fill="none"/>
<path fill-rule="evenodd" clip-rule="evenodd" d="M15.4037 6.36448H15.3956C15.5678 7.59548 14.8679 8.82359 13.6546 9.27145L5.61768 12.2381V21.0874C5.61768 22.1919 6.51311 23.0874 7.61768 23.0874H16.3825C17.4871 23.0874 18.3825 22.1919 18.3825 21.0874V8.36448C18.3825 7.88796 18.2159 7.45037 17.9377 7.1068V6.84928C17.9377 3.57054 15.2797 0.912598 12.001 0.912598C8.72224 0.912598 6.06429 3.57054 6.06429 6.84928V8.68593L8.56429 7.75558V6.84928C8.56429 4.95125 10.1029 3.4126 12.001 3.4126C13.7344 3.4126 15.1682 4.69602 15.4037 6.36448Z" fill="black"/>
</svg>
