<svg xmlns="http://www.w3.org/2000/svg" width="17" height="16" viewBox="0 0 17 16" fill="none"><rect width="17" height="16" fill="none"/>
<path d="M1.34473 2.55198C1.34473 1.88264 1.88734 1.34003 2.55668 1.34003C3.22602 1.34003 3.76863 1.88264 3.76863 2.55198C3.76863 3.22132 3.22602 3.76393 2.55668 3.76393C1.88734 3.76393 1.34473 3.22132 1.34473 2.55198Z" fill="black"/>
<path d="M14.6781 6.79266H6.1944V9.21656H14.6781V6.79266Z" fill="black"/>
<path d="M1.34473 8.00498C1.34473 7.33563 1.88734 6.79303 2.55668 6.79303C3.22602 6.79303 3.76863 7.33563 3.76863 8.00498C3.76863 8.67432 3.22602 9.21693 2.55668 9.21693C1.88734 9.21693 1.34473 8.67432 1.34473 8.00498Z" fill="black"/>
<path d="M14.6781 12.2458H6.1944V14.6697H14.6781V12.2458Z" fill="black"/>
<path d="M2.55668 12.2463C1.88734 12.2463 1.34473 12.7889 1.34473 13.4583C1.34473 14.1276 1.88734 14.6702 2.55668 14.6702C3.22602 14.6702 3.76863 14.1276 3.76863 13.4583C3.76863 12.7889 3.22602 12.2463 2.55668 12.2463Z" fill="black"/>
<path d="M14.6781 1.34003H6.1944V3.76393H14.6781V1.34003Z" fill="black"/>
</svg>
