<svg xmlns="http://www.w3.org/2000/svg" width="24" height="24" viewBox="0 0 24 24" fill="none"><rect width="24" height="24" fill="none"/>
<path d="M2.00098 3.81793C2.00098 2.81391 2.81489 2 3.8189 2C4.82291 2 5.63683 2.81391 5.63683 3.81793C5.63683 4.82194 4.82291 5.63585 3.8189 5.63585C2.81489 5.63585 2.00098 4.82194 2.00098 3.81793Z" fill="black"/>
<path d="M22.001 10.1789H9.27549V13.8148H22.001V10.1789Z" fill="black"/>
<path d="M2.00098 11.9974C2.00098 10.9934 2.81489 10.1795 3.8189 10.1795C4.82291 10.1795 5.63683 10.9934 5.63683 11.9974C5.63683 13.0014 4.82291 13.8153 3.8189 13.8153C2.81489 13.8153 2.00098 13.0014 2.00098 11.9974Z" fill="black"/>
<path d="M22.001 18.3587H9.27549V21.9945H22.001V18.3587Z" fill="black"/>
<path d="M3.8189 18.3594C2.81489 18.3594 2.00098 19.1734 2.00098 20.1774C2.00098 21.1814 2.81489 21.9953 3.8189 21.9953C4.82291 21.9953 5.63683 21.1814 5.63683 20.1774C5.63683 19.1734 4.82291 18.3594 3.8189 18.3594Z" fill="black"/>
<path d="M22.001 2H9.27549V5.63585H22.001V2Z" fill="black"/>
</svg>
