<svg xmlns="http://www.w3.org/2000/svg" width="16" height="16" viewBox="0 0 16 16" fill="none"><rect width="16" height="16" fill="none"/>
<path d="M1.3335 2.54532C1.3335 1.87598 1.8761 1.33337 2.54545 1.33337C3.21479 1.33337 3.7574 1.87598 3.7574 2.54532C3.7574 3.21467 3.21479 3.75728 2.54545 3.75728C1.8761 3.75728 1.3335 3.21467 1.3335 2.54532Z" fill="black"/>
<path d="M14.6668 6.786H6.18317V9.2099H14.6668V6.786Z" fill="black"/>
<path d="M1.3335 7.99832C1.3335 7.32898 1.8761 6.78637 2.54545 6.78637C3.21479 6.78637 3.7574 7.32898 3.7574 7.99832C3.7574 8.66767 3.21479 9.21027 2.54545 9.21027C1.8761 9.21027 1.3335 8.66767 1.3335 7.99832Z" fill="black"/>
<path d="M14.6668 12.2392H6.18317V14.6631H14.6668V12.2392Z" fill="black"/>
<path d="M2.54545 12.2397C1.8761 12.2397 1.3335 12.7823 1.3335 13.4516C1.3335 14.121 1.8761 14.6636 2.54545 14.6636C3.21479 14.6636 3.7574 14.121 3.7574 13.4516C3.7574 12.7823 3.21479 12.2397 2.54545 12.2397Z" fill="black"/>
<path d="M14.6668 1.33337H6.18317V3.75728H14.6668V1.33337Z" fill="black"/>
</svg>
