<svg xmlns="http://www.w3.org/2000/svg" width="24" height="24" viewBox="0 0 24 24" fill="none"><rect width="24" height="24" fill="none"/>
<path d="M2 3.82281C2 2.8188 2.81391 2.00488 3.81793 2.00488C4.82194 2.00488 5.63585 2.8188 5.63585 3.82281C5.63585 4.82682 4.82194 5.64073 3.81793 5.64073C2.81391 5.64073 2 4.82682 2 3.82281Z" fill="black"/>
<path d="M22 10.1838H9.27451V13.8197H22V10.1838Z" fill="black"/>
<path d="M2 12.0023C2 10.9983 2.81391 10.1844 3.81793 10.1844C4.82194 10.1844 5.63585 10.9983 5.63585 12.0023C5.63585 13.0063 4.82194 13.8202 3.81793 13.8202C2.81391 13.8202 2 13.0063 2 12.0023Z" fill="black"/>
<path d="M22 18.3635H9.27451V21.9994H22V18.3635Z" fill="black"/>
<path d="M3.81793 18.3643C2.81391 18.3643 2 19.1782 2 20.1823C2 21.1863 2.81391 22.0002 3.81793 22.0002C4.82194 22.0002 5.63585 21.1863 5.63585 20.1823C5.63585 19.1782 4.82194 18.3643 3.81793 18.3643Z" fill="black"/>
<path d="M22 2.00488H9.27451V5.64073H22V2.00488Z" fill="black"/>
</svg>
