<svg xmlns="http://www.w3.org/2000/svg" width="24" height="24" viewBox="0 0 24 24" fill="none"><rect width="24" height="24" fill="none"/>
<path fill-rule="evenodd" clip-rule="evenodd" d="M12.6968 3.29632C14.8212 3.40073 16.8007 4.27675 18.3126 5.78968C19.9253 7.4034 20.813 9.54847 20.8121 11.8297C20.8102 16.5371 16.978 20.3673 12.2702 20.3673C10.4999 20.3673 9.0931 19.8233 8.18472 19.3281L3.65649 20.5153L4.86835 16.0911C4.12084 14.7964 3.7275 13.3277 3.72812 11.8229C3.73001 7.11557 7.56192 3.28577 12.2701 3.28577L12.6968 3.29632ZM8.39449 17.7825L8.65379 17.9362C9.74385 18.5828 10.9933 18.9249 12.2673 18.9254H12.2702C16.1834 18.9254 19.3683 15.742 19.3699 11.8292C19.3706 9.93307 18.6328 8.15018 17.2924 6.80889C15.9519 5.46751 14.1694 4.72838 12.273 4.72777C8.35685 4.72777 5.1719 7.91085 5.17034 11.8234C5.16981 13.1642 5.54514 14.4701 6.25584 15.5999L6.42464 15.8684L5.70742 18.487L8.39449 17.7825ZM16.5736 13.8599C16.5202 13.7708 16.378 13.7175 16.1645 13.6107C15.9511 13.5039 14.9018 12.9878 14.7061 12.9166C14.5105 12.8455 14.3682 12.8099 14.2259 13.0234C14.0837 13.2369 13.6746 13.7175 13.5501 13.8599C13.4256 14.0022 13.3011 14.0201 13.0877 13.9133C12.8743 13.8065 12.1865 13.5812 11.3713 12.8544C10.7368 12.2888 10.3085 11.5902 10.1839 11.3766C10.0595 11.1631 10.1707 11.0476 10.2775 10.9413C10.3735 10.8457 10.491 10.6921 10.5977 10.5675C10.7044 10.443 10.74 10.3539 10.8111 10.2116C10.8823 10.0692 10.8467 9.9447 10.7933 9.83791C10.74 9.73108 10.3131 8.68103 10.1353 8.25388C9.962 7.83795 9.78605 7.89426 9.65504 7.88768C9.5307 7.88152 9.38827 7.88017 9.24601 7.88017C9.10371 7.88017 8.87248 7.93352 8.67684 8.14714C8.4812 8.36067 7.92982 8.87682 7.92982 9.92679C7.92982 10.9769 8.69463 11.9912 8.80135 12.1336C8.90807 12.276 10.3064 14.4307 12.4474 15.3548C12.9566 15.5746 13.3542 15.7058 13.6641 15.8042C14.1755 15.9665 14.6407 15.9436 15.0085 15.8887C15.4185 15.8274 16.2713 15.3726 16.4491 14.8744C16.627 14.376 16.627 13.9489 16.5736 13.8599Z" fill="black"/>
</svg>
