<svg xmlns="http://www.w3.org/2000/svg" width="17" height="17" viewBox="0 0 17 17" fill="none"><rect width="17" height="17" fill="none"/>
<path d="M1.28887 6.56543C1.63335 6.93915 2.18046 6.97579 2.55196 6.63871C5.70631 3.82483 10.2859 3.82483 13.447 6.63139C13.8252 6.96846 14.3791 6.93915 14.7236 6.56543C15.1221 6.13309 15.0951 5.41497 14.656 5.02659C10.7992 1.6045 5.21999 1.6045 1.35641 5.02659C0.917369 5.40764 0.883596 6.12577 1.28887 6.56543ZM6.53036 12.2518L7.52327 13.329C7.7867 13.6148 8.21223 13.6148 8.47566 13.329L9.46857 12.2518C9.78603 11.9074 9.71848 11.3139 9.31321 11.0867C8.48917 10.625 7.50301 10.625 6.6722 11.0867C6.2872 11.3139 6.2129 11.9074 6.53036 12.2518ZM4.01093 9.51855C4.3419 9.87761 4.862 9.91425 5.247 9.61381C6.8951 8.3461 9.11058 8.3461 10.7587 9.61381C11.1437 9.90692 11.6638 9.87761 11.9948 9.51855L12.0015 9.51122C12.4068 9.07155 12.3798 8.32411 11.9137 7.96505C9.59015 6.14042 6.42229 6.14042 4.09198 7.96505C3.62592 8.33144 3.59891 9.07155 4.01093 9.51855Z" fill="black"/>
</svg>
