<svg xmlns="http://www.w3.org/2000/svg" width="24" height="24" viewBox="0 0 24 24" fill="none"><rect width="24" height="24" fill="none"/>
<path d="M1.92695 10.1581C2.44367 10.7187 3.26434 10.7737 3.82159 10.268C8.55312 6.04721 15.4224 6.04721 20.1641 10.257C20.7315 10.7627 21.5623 10.7187 22.079 10.1581C22.6768 9.50961 22.6363 8.43242 21.9777 7.84986C16.1925 2.71672 7.82363 2.71672 2.02827 7.84986C1.36971 8.42143 1.31905 9.49862 1.92695 10.1581ZM9.78919 18.6877L11.2786 20.3035C11.6737 20.7322 12.312 20.7322 12.7071 20.3035L14.1965 18.6877C14.6727 18.1711 14.5714 17.2808 13.9635 16.94C12.7274 16.2475 11.2482 16.2475 10.002 16.94C9.42445 17.2808 9.313 18.1711 9.78919 18.6877ZM6.01005 14.5878C6.5065 15.1264 7.28665 15.1813 7.86416 14.7307C10.3363 12.8291 13.6595 12.8291 16.1317 14.7307C16.7092 15.1704 17.4893 15.1264 17.9858 14.5878L17.9959 14.5768C18.6038 13.9173 18.5633 12.7961 17.8642 12.2575C14.3789 9.5206 9.62708 9.5206 6.13163 12.2575C5.43254 12.8071 5.39201 13.9173 6.01005 14.5878Z" fill="black"/>
</svg>
