<svg xmlns="http://www.w3.org/2000/svg" width="24" height="24" viewBox="0 0 24 24" fill="none"><rect width="24" height="24" fill="none"/>
<path d="M0.486829 9.53785C1.07737 10.1785 2.01528 10.2413 2.65213 9.66347C8.05959 4.83967 15.9103 4.83967 21.3293 9.65091C21.9777 10.2288 22.9272 10.1785 23.5178 9.53785C24.2009 8.79669 24.1546 7.56562 23.402 6.89983C16.7903 1.03339 7.22589 1.03339 0.602621 6.89983C-0.150024 7.55306 -0.20792 8.78413 0.486829 9.53785ZM9.47225 19.2859L11.1744 21.1326C11.626 21.6225 12.3555 21.6225 12.807 21.1326L14.5092 19.2859C15.0534 18.6955 14.9376 17.678 14.2429 17.2886C12.8302 16.4972 11.1396 16.4972 9.71541 17.2886C9.0554 17.678 8.92803 18.6955 9.47225 19.2859ZM5.15322 14.6003C5.7206 15.2159 6.6122 15.2787 7.27221 14.7636C10.0975 12.5904 13.8955 12.5904 16.7208 14.7636C17.3808 15.2661 18.2724 15.2159 18.8398 14.6003L18.8514 14.5878C19.5461 13.834 19.4998 12.5527 18.7008 11.9372C14.7176 8.80926 9.28698 8.80926 5.29217 11.9372C4.49321 12.5653 4.4469 13.834 5.15322 14.6003Z" fill="#A0B6C9"/>
</svg>
