<svg xmlns="http://www.w3.org/2000/svg" width="16" height="16" viewBox="0 0 16 16" fill="none"><rect width="16" height="16" fill="none"/>
<path d="M1.28398 6.77204C1.62846 7.14576 2.17558 7.1824 2.54708 6.84532C5.70143 4.03143 10.281 4.03143 13.4421 6.83799C13.8203 7.17507 14.3742 7.14576 14.7187 6.77204C15.1172 6.3397 15.0902 5.62157 14.6511 5.2332C10.7943 1.8111 5.2151 1.8111 1.35153 5.2332C0.912486 5.61424 0.878714 6.33237 1.28398 6.77204ZM6.52548 12.4584L7.51839 13.5356C7.78181 13.8214 8.20735 13.8214 8.47077 13.5356L9.46369 12.4584C9.78115 12.114 9.7136 11.5205 9.30833 11.2933C8.48428 10.8317 7.49813 10.8317 6.66732 11.2933C6.28232 11.5205 6.20802 12.114 6.52548 12.4584ZM4.00605 9.72515C4.33702 10.0842 4.85712 10.1209 5.24212 9.82041C6.89022 8.5527 9.1057 8.5527 10.7538 9.82041C11.1388 10.1135 11.6589 10.0842 11.9899 9.72515L11.9966 9.71782C12.4019 9.27815 12.3749 8.53072 11.9088 8.17165C9.58527 6.34703 6.41741 6.34703 4.0871 8.17165C3.62104 8.53804 3.59402 9.27815 4.00605 9.72515Z" fill="black"/>
</svg>
