<svg xmlns="http://www.w3.org/2000/svg" width="24" height="25" viewBox="0 0 24 25" fill="none"><rect width="24" height="25" fill="none"/>
<path d="M1.92598 9.85307C2.44269 10.4136 3.26337 10.4686 3.82061 9.96298C8.55214 5.74216 15.4215 5.74216 20.1631 9.95199C20.7305 10.4576 21.5613 10.4136 22.078 9.85307C22.6758 9.20455 22.6353 8.12736 21.9767 7.5448C16.1915 2.41166 7.82266 2.41166 2.02729 7.5448C1.36873 8.11637 1.31807 9.19356 1.92598 9.85307ZM9.78822 18.3827L11.2776 19.9984C11.6727 20.4271 12.311 20.4271 12.7062 19.9984L14.1955 18.3827C14.6717 17.866 14.5704 16.9757 13.9625 16.635C12.7264 15.9425 11.2472 15.9425 10.001 16.635C9.42347 16.9757 9.31202 17.866 9.78822 18.3827ZM6.00907 14.2827C6.50553 14.8213 7.28567 14.8763 7.86318 14.4256C10.3353 12.5241 13.6585 12.5241 16.1307 14.4256C16.7082 14.8653 17.4883 14.8213 17.9848 14.2827L17.9949 14.2717C18.6028 13.6122 18.5623 12.4911 17.8632 11.9525C14.3779 9.21555 9.62611 9.21555 6.13065 11.9525C5.43156 12.5021 5.39103 13.6122 6.00907 14.2827Z" fill="black"/>
</svg>
