<svg xmlns="http://www.w3.org/2000/svg" width="17" height="17" viewBox="0 0 17 17" fill="none"><rect width="17" height="17" fill="none"/>
<path fill-rule="evenodd" clip-rule="evenodd" d="M3.72717 3.33635C2.59481 3.42345 1.65254 4.24068 1.40617 5.34933C1.36533 5.53312 1.34473 5.72082 1.34473 5.90909V10.1045C1.34473 10.2928 1.36533 10.4805 1.40617 10.6642C1.65254 11.7729 2.59481 12.5901 3.72716 12.6772L4.91616 12.7687H11.1066L12.2956 12.6772C13.428 12.5901 14.3702 11.7729 14.6166 10.6642C14.6575 10.4805 14.6781 10.2928 14.6781 10.1045V5.90909C14.6781 5.72082 14.6575 5.53312 14.6166 5.34933C14.3702 4.24068 13.428 3.42345 12.2956 3.33635L11.1066 3.24488H4.91616L3.72717 3.33635ZM10.2985 7.75277L6.62441 9.7018V5.84319L10.2985 7.75277Z" fill="black"/>
</svg>
