<svg xmlns="http://www.w3.org/2000/svg" width="16" height="16" viewBox="0 0 16 16" fill="none"><rect width="16" height="16" fill="none"/>
<path fill-rule="evenodd" clip-rule="evenodd" d="M3.71593 3.33147C2.58358 3.41857 1.64131 4.2358 1.39494 5.34445C1.3541 5.52824 1.3335 5.71594 1.3335 5.90421V10.0996C1.3335 10.2879 1.3541 10.4756 1.39494 10.6594C1.64131 11.768 2.58358 12.5853 3.71593 12.6724L4.90492 12.7638H11.0954L12.2844 12.6724C13.4167 12.5853 14.359 11.768 14.6054 10.6594C14.6462 10.4756 14.6668 10.2879 14.6668 10.0996V5.90421C14.6668 5.71594 14.6462 5.52824 14.6054 5.34445C14.359 4.2358 13.4167 3.41857 12.2844 3.33147L11.0954 3.24001H4.90492L3.71593 3.33147ZM10.2873 7.74789L6.61318 9.69692V5.83831L10.2873 7.74789Z" fill="black"/>
</svg>
