<svg xmlns="http://www.w3.org/2000/svg" width="24" height="24" viewBox="0 0 24 24" fill="none"><rect width="24" height="24" fill="none"/>
<path fill-rule="evenodd" clip-rule="evenodd" d="M5.57463 4.99719C3.8761 5.12785 2.4627 6.35369 2.09314 8.01667C2.03188 8.29235 2.00098 8.5739 2.00098 8.8563V15.1494C2.00098 15.4318 2.03188 15.7134 2.09314 15.989C2.4627 17.652 3.8761 18.8779 5.57463 19.0085L7.35812 19.1457H16.6438L18.4273 19.0085C20.1258 18.8779 21.5393 17.652 21.9088 15.989C21.9701 15.7134 22.001 15.4318 22.001 15.1494V8.8563C22.001 8.5739 21.9701 8.29235 21.9088 8.01667C21.5393 6.35369 20.1259 5.12785 18.4273 4.99719L16.6438 4.86H7.35812L5.57463 4.99719ZM15.4316 11.6218L9.92051 14.5454V8.75746L15.4316 11.6218Z" fill="black"/>
</svg>
