<svg xmlns="http://www.w3.org/2000/svg" width="25" height="24" viewBox="0 0 25 24" fill="none"><rect width="25" height="24" fill="none"/>
<path fill-rule="evenodd" clip-rule="evenodd" d="M5.57854 4.9872C3.88001 5.11785 2.4666 6.3437 2.09705 8.00668C2.03579 8.28235 2.00488 8.56391 2.00488 8.84631V15.1394C2.00488 15.4218 2.03579 15.7034 2.09705 15.9791C2.4666 17.642 3.88001 18.8679 5.57854 18.9985L7.36203 19.1357H16.6477L18.4312 18.9985C20.1298 18.8679 21.5432 17.642 21.9127 15.9791C21.974 15.7034 22.0049 15.4218 22.0049 15.1394V8.84631C22.0049 8.56391 21.974 8.28235 21.9127 8.00668C21.5432 6.3437 20.1298 5.11785 18.4312 4.9872L16.6477 4.85001H7.36203L5.57854 4.9872ZM15.4355 11.6118L9.92441 14.5354V8.74747L15.4355 11.6118Z" fill="black"/>
</svg>
