<svg xmlns="http://www.w3.org/2000/svg" width="24" height="25" viewBox="0 0 24 25" fill="none"><rect width="24" height="25" fill="none"/>
<path fill-rule="evenodd" clip-rule="evenodd" d="M22 12.0034C22 17.5263 17.5228 22.0034 12 22.0034C6.47715 22.0034 2 17.5263 2 12.0034C2 6.48057 6.47715 2.00342 12 2.00342C17.5228 2.00342 22 6.48057 22 12.0034ZM14.0348 7.12724C14.035 7.12722 14.0352 7.12721 14.0354 7.12721H14.0346L14.0348 7.12724ZM14.0348 7.12724C14.0321 7.12744 14.0295 7.12848 14.0274 7.13021L8.2535 12.431C8.22514 12.4571 8.20569 12.4906 8.19765 12.5273C8.18961 12.5639 8.19335 12.6019 8.20838 12.6365C8.22342 12.6711 8.24906 12.7006 8.28203 12.7214C8.31499 12.7421 8.35377 12.7531 8.39338 12.7528H11.0065C11.1043 12.7529 11.2006 12.7756 11.2869 12.819C11.3732 12.8624 11.4469 12.9252 11.5014 13.0019C11.5559 13.0785 11.5895 13.1666 11.5994 13.2585C11.6093 13.3503 11.5951 13.443 11.5581 13.5284L10.1967 16.6698L15.7457 11.5745C15.774 11.5484 15.7934 11.515 15.8015 11.4784C15.8096 11.4419 15.8059 11.4039 15.791 11.3694C15.776 11.3348 15.7505 11.3052 15.7177 11.2845C15.6848 11.2637 15.6462 11.2526 15.6066 11.2527H12.9934C12.8937 11.2527 12.7956 11.2291 12.7081 11.184C12.6205 11.139 12.5463 11.0739 12.4923 10.9948C12.4383 10.9157 12.4062 10.8251 12.3989 10.7312C12.3916 10.6374 12.4094 10.5433 12.4506 10.4576L14.0465 7.14371L14.0489 7.13921C14.0484 7.13674 14.0473 7.13442 14.0457 7.13246C14.0445 7.13065 14.0429 7.12912 14.0409 7.12796L14.0348 7.12724ZM13.9395 6.00696C13.6598 6.02784 13.3966 6.14018 13.1953 6.32462L13.1945 6.32387L7.42377 11.6247C6.52888 12.446 7.14561 13.878 8.39338 13.878H10.1188L8.8909 16.711C8.82923 16.8534 8.80562 17.0079 8.82216 17.1609C8.83869 17.314 8.89487 17.4608 8.98572 17.5885C9.07658 17.7162 9.19933 17.8208 9.34316 17.8932C9.48698 17.9656 9.64746 18.0034 9.81044 18.0034H10.0505C10.309 18.0033 10.5574 17.908 10.7427 17.7379L16.5762 12.3808C17.4711 11.5595 16.8544 10.1275 15.6066 10.1275H13.9193L15.1321 7.60951C15.2479 7.36829 15.2707 7.09651 15.1968 6.84107C15.123 6.58562 14.9569 6.36252 14.7274 6.21025C14.4979 6.05798 14.2192 5.98608 13.9395 6.00696Z" fill="black"/>
</svg>
